<svg xmlns="http://www.w3.org/2000/svg" viewBox="0 0 1920 1080"><defs><style>.cls-1{fill:#8a8553;}.cls-12,.cls-13,.cls-15,.cls-16,.cls-19,.cls-2,.cls-5,.cls-8{fill:none;stroke-miterlimit:10;}.cls-2{stroke:#7d794b;stroke-width:34px;}.cls-3{fill:#637d3d;}.cls-4{fill:#63873d;}.cls-12,.cls-15,.cls-16,.cls-19,.cls-5,.cls-8{stroke:#57482b;}.cls-5{stroke-width:18.62px;}.cls-6{fill:#848568;}.cls-7{fill:#62634e;}.cls-8{stroke-width:17.38px;}.cls-9{fill:#757d36;}.cls-10{fill:#7f873b;}.cls-11{fill:#918c57;}.cls-12{stroke-width:32.96px;}.cls-13{stroke:#878250;stroke-width:84px;}.cls-14{fill:#6c9442;}.cls-15{stroke-width:32.57px;}.cls-16{stroke-width:55.85px;}.cls-17{fill:#9b944e;}.cls-18{fill:#948e4b;}.cls-19{stroke-width:80.34px;}.cls-20{opacity:0.5;}.cls-21{opacity:0.7;}</style></defs><g id="before-plains"><g id="bp-plains-3"><polygon class="cls-1" points="1967.83 378.56 -62.84 332.43 -62.84 -50.71 1957.16 -43.77 1967.83 378.56"/><path class="cls-2" d="M1027.33-52c214.58,190.67-272.45,96.21-290.22,290.54"/><path class="cls-3" d="M827.79,82.77c59.37,18.62,185.78-31,71.81-62.77C840.23,1.38,713.81,51,827.79,82.77Z"/><path class="cls-3" d="M737.74,53.2C780.09,66.48,870.26,31.07,789,8.42,746.62-4.86,656.45,30.56,737.74,53.2Z"/><path class="cls-3" d="M922.2,61.55C973.76,77.72,1083.54,34.61,984.57,7,933-9.13,823.23,34,922.2,61.55Z"/><path class="cls-3" d="M862.76,41.38C900,53.07,979.4,21.9,907.85,2,870.57-9.72,791.21,21.45,862.76,41.38Z"/><path class="cls-3" d="M697.06,105.49c59.38,18.62,185.79-31,71.82-62.78C709.5,24.1,583.09,73.75,697.06,105.49Z"/><path class="cls-3" d="M651.46,61C693.81,74.23,784,38.82,702.69,16.17,660.33,2.89,570.17,38.31,651.46,61Z"/><path class="cls-3" d="M780.93,93.92C832.49,110.09,942.27,67,843.29,39.4,791.73,23.23,682,66.35,780.93,93.92Z"/><path class="cls-3" d="M732,64.09c37.28,11.7,116.65-19.48,45.09-39.41C739.84,13,660.48,44.17,732,64.09Z"/><path class="cls-4" d="M769.3,90.74C807.93,102.86,890.18,70.56,816,49.9,777.39,37.79,695.14,70.09,769.3,90.74Z"/><path class="cls-3" d="M689.1,86.24c24-20.94,1.15-46.14-50.94-56.28-77.95-23.6-233.35,36-86.77,75.85C603.49,115.94,665.14,107.19,689.1,86.24Z"/><path class="cls-4" d="M568.07,95.16c42.66,13.38,133.48-22.29,51.6-45.11C577,36.68,486.18,72.35,568.07,95.16Z"/><path class="cls-4" d="M673.26,82.22c44.32,13.9,138.68-23.16,53.61-46.86C682.54,21.46,588.19,58.52,673.26,82.22Z"/><path class="cls-3" d="M553,81.58c20.52-17.94,1-39.51-43.62-48.2-66.75-20.21-199.84,30.86-74.3,65C479.73,107,532.53,99.51,553,81.58Z"/><path class="cls-4" d="M526.18,77c106.38-15.36-38.26-40.54-76.85-31.94-37,3.15-49.82,12.87-28.6,21.69S489.16,80.17,526.18,77Z"/><path class="cls-4" d="M866.14,52.36c36.52,8,140.94-13.17,53.89-27.6C883.51,16.71,779.08,37.93,866.14,52.36Z"/><path class="cls-3" d="M1817.27,140.37c22.6,7.75,49.89.22,61-16.82,25.57-47.39-62.81-63.75-81.84-28.07C1785.31,112.51,1794.67,132.61,1817.27,140.37Z"/><path class="cls-3" d="M1791.83,96.58c16.12,5.53,35.59.16,43.48-12,18.23-33.8-44.8-45.47-58.38-20C1769,76.71,1775.71,91.05,1791.83,96.58Z"/><path class="cls-3" d="M1864.05,129c19.63,6.73,43.33.19,52.94-14.61,22.2-41.15-54.55-55.36-71.08-24.37C1836.3,104.8,1844.43,122.26,1864.05,129Z"/><path class="cls-3" d="M1836.78,99.67c14.19,4.87,31.32.14,38.27-10.56,16-29.75-39.44-40-51.39-17.62C1816.72,82.19,1822.59,94.8,1836.78,99.67Z"/><path class="cls-4" d="M1857.57,125.87c14.7,5,32.46.15,39.66-10.94,16.63-30.83-40.87-41.48-53.26-18.27C1836.77,107.75,1842.86,120.83,1857.57,125.87Z"/><path class="cls-3" d="M1812.83,121.44c30.64-57.35-82.55-79.25-105.23-36.09C1677,142.7,1790.15,164.6,1812.83,121.44Z"/><path class="cls-4" d="M1745.31,130.21c16.24,5.57,35.85.16,43.8-12.08,18.36-34-45.13-45.81-58.81-20.17C1722.35,110.2,1729.07,124.64,1745.31,130.21Z"/><path class="cls-4" d="M1804,117.49c16.87,5.78,37.24.16,45.5-12.56,19.08-35.37-46.88-47.58-61.09-21C1780.14,96.7,1787.12,111.7,1804,117.49Z"/><path class="cls-3" d="M1736.93,116.86c26.24-49.12-70.7-67.87-90.12-30.91C1620.57,135.06,1717.51,153.82,1736.93,116.86Z"/><path class="cls-4" d="M1721.94,112.37c59.11-14.29-17-39.31-42.87-31.41C1620,95.24,1696.12,120.27,1721.94,112.37Z"/><line class="cls-5" x1="34.62" y1="-23.24" x2="45.66" y2="128.78"/><path class="cls-3" d="M-31.23-16.35c-.17,55,132.88,55,132.69,0C101.64-71.3-31.42-71.3-31.23-16.35Z"/><path class="cls-3" d="M258.75,144.6c59.38,18.62,185.79-31,71.82-62.78C271.19,63.21,144.78,112.86,258.75,144.6Z"/><path class="cls-3" d="M213.15,100.06c42.36,13.28,132.52-22.13,51.23-44.78C222,42,131.86,77.42,213.15,100.06Z"/><path class="cls-3" d="M342.62,133C394.18,149.2,504,106.08,405,78.51,353.42,62.35,243.64,105.46,342.62,133Z"/><path class="cls-3" d="M293.73,103.21C331,114.9,410.37,83.73,338.82,63.79,301.54,52.11,222.17,83.28,293.73,103.21Z"/><path class="cls-4" d="M331,129.86C369.62,142,451.87,109.67,377.72,89,339.08,76.9,256.83,109.2,331,129.86Z"/><path class="cls-3" d="M250.79,125.36c24-21,1.16-46.14-50.93-56.28-78-23.61-233.36,36-86.77,75.84C165.18,155.06,226.83,146.3,250.79,125.36Z"/><path class="cls-4" d="M129.76,134.27c42.66,13.38,133.49-22.29,51.6-45.1C138.7,75.79,47.88,111.46,129.76,134.27Z"/><path class="cls-4" d="M235,121.33c44.32,13.9,138.68-23.16,53.61-46.86C244.24,60.57,149.88,97.63,235,121.33Z"/><path class="cls-3" d="M114.74,120.69c20.52-17.93,1-39.51-43.62-48.2-66.76-20.21-199.84,30.86-74.31,65C41.42,146.13,94.22,138.63,114.74,120.69Z"/><path class="cls-4" d="M87.87,116.12C194.25,100.76,49.61,75.58,11,84.18c-37,3.16-49.82,12.87-28.6,21.69S50.85,119.28,87.87,116.12Z"/><path class="cls-6" d="M8.67,102,46,96.41l35.26,24.88L86.34,146C33,155.1,43.58,160-7.82,138.62Z"/><path class="cls-7" d="M103.29,138.62l-17,7.42L47,96.53C61.55,106.33,89.75,127.48,103.29,138.62Z"/><line class="cls-5" x1="1126.03" y1="-17.9" x2="1137.08" y2="134.12"/><path class="cls-3" d="M1060.19-11c-.18,55,132.88,55,132.69,0C1193.06-66,1060-65.95,1060.19-11Z"/><path class="cls-6" d="M340.6,197,360,184.62l17.92-6.51,22.36,1.72,19,14,11.53,31.37c-45.36,5.83-45.41,8.9-90.47-5Z"/><path class="cls-7" d="M447,220.22l-16.3,5-12.92-30.55-17.59-14.8C431.15,195.68,428,190.23,447,220.22Z"/><path class="cls-6" d="M838.67,178.64,865,161.76l24.41-8.86,30.46,2.34,25.85,19L961.45,217c-61.79,7.95-61.86,12.13-123.23-6.75Z"/><path class="cls-7" d="M983.64,210.25,961.45,217l-17.61-41.6-24-20.16C962,176.83,957.65,169.4,983.64,210.25Z"/><line class="cls-8" x1="559.5" y1="-19.06" x2="549.19" y2="122.84"/><path class="cls-3" d="M518.36,176.39c.07,46.3-105.48,46.29-105.4,0S518.44,130.09,518.36,176.39Z"/><path class="cls-9" d="M626.78,130.88c.33,38.77-108.28,38.76-107.93,0C518.52,92.11,627.12,92.12,626.78,130.88Z"/><path class="cls-3" d="M621-12.63c.16,51.3-124,51.29-123.86,0C496.94-63.93,621.14-63.92,621-12.63Z"/><path class="cls-4" d="M599,174.27c.06,41.61-94.81,41.61-94.74,0S599.05,132.66,599,174.27Z"/><path class="cls-3" d="M1140.84,160.79c47.15,19.87,98.82-42.15,40.59-67C1134.27,73.93,1082.61,135.94,1140.84,160.79Z"/><path class="cls-3" d="M1115.06,113.25c33.64,14.17,70.49-30.07,29-47.79C1110.38,51.29,1073.53,95.52,1115.06,113.25Z"/><path class="cls-3" d="M1188.24,148.44c41,17.25,85.82-36.6,35.25-58.19C1182.54,73,1137.67,126.86,1188.24,148.44Z"/><path class="cls-3" d="M1160.61,116.61c29.6,12.47,62-26.47,25.48-42.07C1156.48,62.07,1124.05,101,1160.61,116.61Z"/><path class="cls-4" d="M1181.67,145.05c30.68,12.93,64.29-27.42,26.41-43.59C1177.4,88.54,1143.78,128.89,1181.67,145.05Z"/><path class="cls-3" d="M1136.34,140.25c31.26-60.29-81.71-87.38-106.63-39.19C998.45,161.35,1111.42,188.44,1136.34,140.25Z"/><path class="cls-4" d="M1067.93,149.77c33.88,14.27,71-30.29,29.16-48.14C1063.21,87.36,1026.09,131.91,1067.93,149.77Z"/><path class="cls-4" d="M1127.38,136c35.2,14.83,73.77-31.46,30.3-50C1122.48,71.11,1083.92,117.4,1127.38,136Z"/><path class="cls-3" d="M1059.44,135.27c26.77-51.63-70-74.83-91.31-33.56C941.36,153.34,1038.1,176.54,1059.44,135.27Z"/><path class="cls-4" d="M1044.25,130.39c59.66-15.31-16.4-42.62-43.43-34.09C941.16,111.6,1017.21,138.91,1044.25,130.39Z"/><path class="cls-3" d="M377,317.05C339.3,328.92,295.49,315,279.12,286c-37.36-78.77,107.22-104.8,136.4-43C431.9,272,414.64,305.19,377,317.05Z"/><path class="cls-3" d="M422.83,245.05c-26.86,8.46-58.11-1.47-69.79-22.19-26.65-56.18,76.48-74.75,97.29-30.65C462,212.93,449.7,236.58,422.83,245.05Z"/><path class="cls-3" d="M301.71,295.74c-32.71,10.3-70.76-1.79-85-27-32.44-68.4,93.12-91,118.46-37.31C349.41,256.63,334.42,285.43,301.71,295.74Z"/><path class="cls-3" d="M349.14,248c-23.65,7.45-51.15-1.29-61.43-19.53-23.46-49.45,67.31-65.8,85.64-27C383.63,219.76,372.79,240.58,349.14,248Z"/><path class="cls-4" d="M312.61,290.84c-24.51,7.72-53-1.34-63.67-20.24-24.3-51.25,69.77-68.19,88.76-28C348.35,261.54,337.12,283.12,312.61,290.84Z"/><path class="cls-3" d="M386.09,285.62c-44.8-95.28,140.59-130,175.38-55.24C606.28,325.65,420.89,360.39,386.09,285.62Z"/><path class="cls-4" d="M495.46,303.57c-27.07,8.53-58.54-1.48-70.31-22.34-26.84-56.59,77-75.3,98-30.87C534.92,271.22,522.52,295.05,495.46,303.57Z"/><path class="cls-4" d="M400.91,279.43c-28.12,8.86-60.82-1.54-73-23.22C300,197.42,407.9,178,429.69,224.14,441.91,245.82,429,270.57,400.91,279.43Z"/><path class="cls-3" d="M510.46,281.65c-38.37-81.59,120.4-111.34,150.2-47.3C699,315.94,540.26,345.68,510.46,281.65Z"/><path class="cls-4" d="M535.38,274.87c-95.19-26.82,31.82-64.9,73.1-50.44C703.67,251.25,576.65,289.32,535.38,274.87Z"/><path class="cls-4" d="M1328.35-10.7c-.16,39.12,97.05,39.11,96.88,0C1425.39-49.81,1328.18-49.8,1328.35-10.7Z"/><line class="cls-5" x1="1365.47" y1="-12.08" x2="1358.81" y2="152"/><path class="cls-4" d="M1293.29-17.53c.28,70,116.27,70,116.53,0C1409.55-87.49,1293.55-87.48,1293.29-17.53Z"/><path class="cls-3" d="M1402.64,150.14c26.25,9,58,.26,70.81-19.54,29.7-55-73-74.06-95.08-32.61C1365.51,117.78,1376.38,141.13,1402.64,150.14Z"/><path class="cls-3" d="M1373.09,99.27c18.72,6.42,41.34.18,50.5-13.94,21.19-39.26-52-52.82-67.82-23.26C1346.61,76.19,1354.36,92.84,1373.09,99.27Z"/><path class="cls-3" d="M1457,136.92c22.8,7.82,50.33.22,61.49-17,25.79-47.8-63.37-64.31-82.57-28.32C1424.75,108.82,1434.18,129.1,1457,136.92Z"/><path class="cls-3" d="M1425.3,102.86c16.49,5.66,36.39.16,44.46-12.26C1488.4,56,1424,44.1,1410.06,70.12,1402,82.55,1408.82,97.21,1425.3,102.86Z"/><path class="cls-4" d="M1449.45,133.3c17.08,5.86,37.71.17,46.07-12.71,19.33-35.82-47.47-48.19-61.86-21.22C1425.3,112.24,1432.37,127.44,1449.45,133.3Z"/><path class="cls-3" d="M1397.48,128.15c35.6-66.62-95.9-92.06-122.25-41.92C1239.63,152.85,1371.13,178.29,1397.48,128.15Z"/><path class="cls-4" d="M1319,138.34c18.87,6.47,41.65.18,50.88-14,21.34-39.55-52.43-53.21-68.31-23.43C1292.37,115.09,1300.18,131.87,1319,138.34Z"/><path class="cls-4" d="M1387.21,123.56c19.6,6.72,43.27.19,52.86-14.59,22.17-41.09-54.47-55.28-71-24.34C1359.5,99.41,1367.61,116.83,1387.21,123.56Z"/><path class="cls-3" d="M1309.31,122.83c30.49-57.06-82.13-78.84-104.69-35.91C1174.13,144,1286.75,165.76,1309.31,122.83Z"/><path class="cls-4" d="M1291.9,117.61c68.66-16.6-19.8-45.67-49.8-36.48C1173.43,97.72,1261.89,126.79,1291.9,117.61Z"/><line class="cls-5" x1="1241.02" y1="9.09" x2="1234.35" y2="173.17"/><path class="cls-9" d="M1165.27,3.35c.28,70,116.27,70,116.53,0C1281.53-66.62,1165.54-66.61,1165.27,3.35Z"/><path class="cls-10" d="M1203.89,10.47c-.15,39.11,97.06,39.11,96.89,0C1300.93-28.64,1203.72-28.64,1203.89,10.47Z"/><path class="cls-3" d="M227.44,198c54.55,17.11,170.71-28.51,66-57.68C238.87,123.2,122.72,168.82,227.44,198Z"/><path class="cls-3" d="M185.54,157.06c38.91,12.2,121.76-20.34,47.07-41.15C193.69,103.71,110.84,136.25,185.54,157.06Z"/><path class="cls-3" d="M304.5,187.35c47.38,14.86,148.24-24.76,57.3-50.09C314.42,122.4,213.55,162,304.5,187.35Z"/><path class="cls-3" d="M259.57,160c34.26,10.74,107.18-17.9,41.43-36.22C266.75,113,193.83,141.64,259.57,160Z"/><path class="cls-4" d="M293.81,184.44c35.5,11.13,111.07-18.55,42.94-37.54C301.25,135.78,225.67,165.46,293.81,184.44Z"/><path class="cls-3" d="M220.12,180.3c22-19.24,1.06-42.4-46.8-51.71-71.63-21.69-214.41,33.1-79.73,69.69C141.46,207.59,198.11,199.54,220.12,180.3Z"/><path class="cls-4" d="M108.91,188.49c39.2,12.29,122.66-20.48,47.42-41.44C117.13,134.76,33.68,167.54,108.91,188.49Z"/><path class="cls-4" d="M205.57,176.6c40.72,12.77,127.42-21.28,49.25-43.06C214.1,120.78,127.4,154.83,205.57,176.6Z"/><path class="cls-3" d="M95.11,176C114,159.53,96,139.71,55,131.73c-61.34-18.58-183.62,28.35-68.28,59.68C27.74,199.38,76.26,192.49,95.11,176Z"/><path class="cls-4" d="M70.42,171.81c97.75-14.11-35.15-37.25-70.61-29.34-34,2.9-45.77,11.82-26.28,19.93S36.41,174.72,70.42,171.81Z"/><path class="cls-6" d="M54.54,236.26l54.06-8.06L166.1,235l.92,65c-77.3,13.13-61.91,20.17-136.35-10.74Z"/><path class="cls-7" d="M191.57,289.32,167,300.06l-56.93-71.68C183.54,237.22,159,224.8,191.57,289.32Z"/><path class="cls-4" d="M299.61-26.15c-.15,39.11,97.06,39.11,96.89,0C396.66-65.27,299.45-65.26,299.61-26.15Z"/><line class="cls-5" x1="336.74" y1="-27.53" x2="330.07" y2="136.55"/><path class="cls-4" d="M264.56-33c.27,70,116.26,69.95,116.53,0C380.81-102.94,264.82-102.94,264.56-33Z"/><line class="cls-5" x1="198.22" y1="-20.62" x2="191.56" y2="143.46"/><path class="cls-9" d="M122.48-26.36c.27,70,116.26,70,116.53,0C238.73-96.32,122.74-96.31,122.48-26.36Z"/><path class="cls-10" d="M161.1-19.24c-.16,39.12,97,39.11,96.88,0C258.14-58.35,160.93-58.34,161.1-19.24Z"/><line class="cls-5" x1="1439.41" y1="-20.16" x2="1450.45" y2="131.86"/><path class="cls-3" d="M1373.57-13.27c-.18,55,132.88,55,132.69,0C1506.43-68.22,1373.38-68.22,1373.57-13.27Z"/><path class="cls-4" d="M1752.54,13.07c-.16,39.11,97,39.11,96.88,0C1849.58-26,1752.37-26,1752.54,13.07Z"/><line class="cls-5" x1="1789.66" y1="11.69" x2="1782.99" y2="175.77"/><path class="cls-4" d="M1717.48,6.24c.27,70,116.27,70,116.53,0C1833.74-63.73,1717.74-63.72,1717.48,6.24Z"/><line class="cls-5" x1="1683.96" y1="21.62" x2="1677.29" y2="185.69"/><path class="cls-9" d="M1608.21,15.87c.28,70,116.27,70,116.53,0C1724.47-54.09,1608.48-54.08,1608.21,15.87Z"/><path class="cls-10" d="M1646.83,23c-.15,39.11,97.06,39.1,96.89,0C1743.87-16.12,1646.66-16.11,1646.83,23Z"/><path class="cls-3" d="M1432,419.14c44,15.09,97.08.44,118.61-32.72,49.74-92.21-122.23-124-159.26-54.62C1369.77,365,1388,404.06,1432,419.14Z"/><path class="cls-3" d="M1382.45,333.94c31.37,10.76,69.25.31,84.6-23.34,35.49-65.78-87.18-88.49-113.6-39C1338.1,295.28,1351.08,323.18,1382.45,333.94Z"/><path class="cls-3" d="M1523,397c38.2,13.1,84.31.37,103-28.42,43.2-80.08-106.14-107.73-138.31-47.44C1469,349.94,1484.79,383.9,1523,397Z"/><path class="cls-3" d="M1469.91,340c27.61,9.47,60.95.27,74.47-20.55,31.23-57.89-76.74-77.88-100-34.29C1430.87,305.93,1442.3,330.49,1469.91,340Z"/><path class="cls-4" d="M1510.36,390.94c28.62,9.81,63.17.28,77.17-21.29,32.37-60-79.52-80.72-103.62-35.55C1469.9,355.67,1481.74,381.12,1510.36,390.94Z"/><path class="cls-3" d="M1423.31,382.33c59.63-111.61-160.64-154.22-204.77-70.24C1158.91,423.69,1379.17,466.3,1423.31,382.33Z"/><path class="cls-4" d="M1291.93,399.38c31.6,10.84,69.75.31,85.22-23.51,35.74-66.25-87.82-89.13-114.43-39.25C1247.25,360.44,1260.33,388.54,1291.93,399.38Z"/><path class="cls-4" d="M1406.11,374.62c32.83,11.26,72.47.33,88.54-24.42,37.13-68.83-91.24-92.6-118.88-40.78C1359.7,334.17,1373.28,363.36,1406.11,374.62Z"/><path class="cls-3" d="M1275.62,373.4c51.07-95.57-137.57-132.06-175.36-60.14C1049.19,408.82,1237.82,445.31,1275.62,373.4Z"/><path class="cls-4" d="M1246.46,364.66c115-27.8-33.16-76.49-83.42-61.1C1048,331.34,1196.2,380,1246.46,364.66Z"/></g><g id="bp-plains-2"><polygon class="cls-11" points="-50 714.36 1970 779.02 1970 55.41 -50 326.06 -50 714.36"/><path class="cls-9" d="M600.36,363.09c-.6,133.59-204.06,133.58-204.64,0C396.31,229.49,599.78,229.51,600.36,363.09Z"/><path class="cls-10" d="M463.1,368.72c5.19,93.53-346.61,93.53-341.39,0C116.52,275.2,468.32,275.2,463.1,368.72Z"/><path class="cls-3" d="M1793.82,261.42c44,15.08,97.08.43,118.61-32.73,49.75-92.2-122.22-124-159.26-54.62C1731.64,207.22,1749.84,246.33,1793.82,261.42Z"/><path class="cls-3" d="M1744.32,176.21c31.37,10.76,69.25.31,84.61-23.34,35.48-65.77-87.18-88.48-113.6-39C1700,137.55,1713,165.45,1744.32,176.21Z"/><path class="cls-3" d="M1884.86,239.28c38.19,13.1,84.31.38,103-28.42,43.2-80.07-106.14-107.73-138.31-47.44C1830.86,192.21,1846.66,226.18,1884.86,239.28Z"/><path class="cls-3" d="M1831.79,182.23c27.61,9.47,61,.27,74.46-20.54,31.24-57.9-76.73-77.89-100-34.3C1792.75,148.2,1804.17,172.76,1831.79,182.23Z"/><path class="cls-4" d="M1872.23,233.21c28.62,9.82,63.17.28,77.18-21.29,32.37-60-79.53-80.72-103.63-35.54C1831.78,198,1843.62,223.39,1872.23,233.21Z"/><path class="cls-3" d="M1785.18,224.6c59.63-111.6-160.64-154.21-204.77-70.23C1520.78,266,1741.05,308.57,1785.18,224.6Z"/><path class="cls-4" d="M1653.8,241.65c31.6,10.84,69.75.32,85.22-23.51,35.74-66.25-87.81-89.12-114.43-39.24C1609.13,202.71,1622.2,230.81,1653.8,241.65Z"/><path class="cls-4" d="M1768,216.9c32.82,11.26,72.46.32,88.53-24.43,37.13-68.83-91.23-92.6-118.88-40.78C1721.57,176.44,1735.16,205.63,1768,216.9Z"/><path class="cls-3" d="M1637.49,215.67c51.07-95.57-137.56-132.06-175.36-60.14C1411.06,251.1,1599.7,287.59,1637.49,215.67Z"/><path class="cls-4" d="M1608.33,206.93c115-27.79-33.16-76.49-83.42-61.1C1409.9,173.62,1558.07,222.31,1608.33,206.93Z"/><line class="cls-12" x1="429.72" y1="132.31" x2="441.52" y2="422.7"/><path class="cls-9" d="M563.78,122.15C563.3,246,358,246,357.55,122.14,358-1.67,563.32-1.66,563.78,122.15Z"/><path class="cls-10" d="M495.43,134.75c.28,69.23-171.76,69.22-171.47,0C323.68,65.53,495.73,65.54,495.43,134.75Z"/><path class="cls-13" d="M639.91,233.62c27.45,195.93,821.26,403.63,803.49,598"/><path class="cls-6" d="M1459,486.41l33.74-21.61L1524,453.44l39,3,33.11,24.37,20.11,54.72c-79.13,10.18-79.22,15.53-157.81-8.65Z"/><path class="cls-7" d="M1644.69,526.89l-28.42,8.65-22.55-53.28-30.67-25.81C1617,484.09,1611.41,474.58,1644.69,526.89Z"/><path class="cls-14" d="M250,127.48c-.23,87.56-162.27,87.55-162.48,0C87.75,39.92,249.78,39.93,250,127.48Z"/><line class="cls-12" x1="204.04" y1="111.45" x2="215.84" y2="401.84"/><line class="cls-12" x1="676.48" y1="122.86" x2="656.93" y2="391.9"/><path class="cls-3" d="M639.91,407.15c-.6,133.6-204.06,133.58-204.64,0C435.87,273.56,639.33,273.57,639.91,407.15Z"/><path class="cls-4" d="M471.27,418.67C470.9,537,258.93,537,258.58,418.66,259,300.33,470.92,300.34,471.27,418.67Z"/><path class="cls-4" d="M1365.28,288c0,81.76-171.31,81.76-171.33,0S1365.25,206.21,1365.28,288Z"/><path class="cls-9" d="M141.8,375.33C141,552.19-62,552.18-62.84,375.32-62,198.47,141,198.48,141.8,375.33Z"/><path class="cls-9" d="M485.48,483.63c.66,95.68-257,95.66-256.36,0C228.46,388,486.17,388,485.48,483.63Z"/><path class="cls-3" d="M308.91,466.1c-.72,156.35-234,156.33-234.72,0C74.91,309.76,308.21,309.77,308.91,466.1Z"/><path class="cls-3" d="M598.48,493.43c.13,87.79-200,87.78-199.84,0C398.51,405.65,598.63,405.66,598.48,493.43Z"/><path class="cls-9" d="M804,407.15c.63,73.51-205.29,73.5-204.64,0C598.77,333.65,804.69,333.66,804,407.15Z"/><path class="cls-3" d="M1148.38,331.48c.11,75.26-171.46,75.25-171.33,0C976.94,256.22,1148.51,256.23,1148.38,331.48Z"/><path class="cls-9" d="M1480.08,296.26c.05,77.49-171.41,77.48-171.33,0S1480.15,218.78,1480.08,296.26Z"/><path class="cls-4" d="M1367.47,432.36c-.32,96.8-171,96.79-171.33,0C1196.45,335.55,1367.17,335.56,1367.47,432.36Z"/><path class="cls-3" d="M1458.44,355.65c-.2,69.49-127.87,69.48-128,0C1330.58,286.17,1458.26,286.18,1458.44,355.65Z"/><path class="cls-9" d="M1857.87,351.13c.06,103.3-227.06,103.28-227,0S1858,247.85,1857.87,351.13Z"/><path class="cls-3" d="M793,135.06c.31,97.26-235.17,97.25-234.84,0C557.86,37.8,793.34,37.81,793,135.06Z"/><path class="cls-14" d="M331.79,130.88c-.48,123.82-205.77,123.81-206.23,0C126,7.06,331.33,7.07,331.79,130.88Z"/><path class="cls-4" d="M751.33,489.42c.12,78.9-179.76,78.89-179.62,0C571.59,410.51,751.47,410.52,751.33,489.42Z"/><path class="cls-3" d="M1647.62,58.11c-.27,68.61-114.36,68.6-114.61,0C1533.27-10.5,1647.36-10.49,1647.62,58.11Z"/><line class="cls-15" x1="1527.29" y1="131.24" x2="1535.3" y2="328.39"/><path class="cls-3" d="M1627.26,93.6c-.45,115-191.13,115-191.56,0C1436.15-21.41,1626.83-21.39,1627.26,93.6Z"/><path class="cls-3" d="M1473.27,429.89c-.18,87.25-167.69,87.24-167.86,0C1305.59,342.64,1473.11,342.64,1473.27,429.89Z"/><path class="cls-4" d="M1629.55,350.61c.06,110.26-242.35,110.25-242.26,0C1387.22,240.36,1629.64,240.37,1629.55,350.61Z"/><path class="cls-3" d="M871.53,638.8c-81.6,30.92-158-77.51-60.72-115.06C892.41,492.82,968.8,601.25,871.53,638.8Z"/><path class="cls-3" d="M918.5,560c-58.21,22.06-112.69-55.29-43.31-82.08C933.4,455.9,987.89,533.24,918.5,560Z"/><path class="cls-3" d="M794.46,615.48c-70.87,26.86-137.21-67.31-52.74-99.92C812.59,488.71,878.93,582.87,794.46,615.48Z"/><path class="cls-3" d="M843,563.29c-51.24,19.42-99.2-48.66-38.13-72.24C856.14,471.64,904.11,539.71,843,563.29Z"/><path class="cls-4" d="M805.63,610.12c-53.1,20.12-102.81-50.43-39.52-74.86C819.21,515.14,868.92,585.69,805.63,610.12Z"/><path class="cls-3" d="M880.88,604.41C834.57,503.16,1022.06,460.1,1060.49,544,1106.79,645.23,919.31,688.29,880.88,604.41Z"/><path class="cls-4" d="M992.88,624.06c-58.64,22.21-113.52-55.69-43.63-82.68C1007.88,519.17,1062.76,597.08,992.88,624.06Z"/><path class="cls-4" d="M896.05,597.64c-60.91,23.08-117.94-57.86-45.33-85.89C911.64,488.67,968.66,569.61,896.05,597.64Z"/><path class="cls-3" d="M1008.25,600.07c-39.66-86.71,120.9-123.59,153.81-51.75C1201.72,635,1041.16,671.91,1008.25,600.07Z"/><path class="cls-4" d="M1033.76,592.65c-97.09-29,31.08-70.94,74.86-55.17C1205.71,566.44,1077.54,608.41,1033.76,592.65Z"/><path class="cls-3" d="M1089.68,432.52c-40.41,13.86-89.2.4-109-30.07C935,317.73,1093,288.47,1127,352.26,1146.81,382.72,1130.09,418.66,1089.68,432.52Z"/><path class="cls-3" d="M1135.16,354.23c-28.82,9.88-63.63.28-77.74-21.45-32.6-60.43,80.11-81.3,104.38-35.8C1175.91,318.71,1164,344.34,1135.16,354.23Z"/><path class="cls-3" d="M1006,412.18c-35.09,12-77.47.35-94.64-26.11-39.7-73.58,97.52-99,127.08-43.59C1055.65,368.93,1041.12,400.14,1006,412.18Z"/><path class="cls-3" d="M1054.8,359.76c-25.37,8.7-56,.25-68.43-18.88-28.7-53.19,70.51-71.56,91.88-31.51C1090.67,328.5,1080.17,351.06,1054.8,359.76Z"/><path class="cls-4" d="M1017.63,406.6c-26.29,9-58,.26-70.91-19.56-29.74-55.13,73.07-74.16,95.21-32.66C1054.81,374.2,1043.92,397.58,1017.63,406.6Z"/><path class="cls-3" d="M1048.37,297.5C1103.16,195,900.77,155.8,860.22,233,805.43,335.51,1007.82,374.66,1048.37,297.5Z"/><path class="cls-4" d="M927.65,313.17c29,10,64.09.29,78.3-21.6,32.84-60.87-80.68-81.9-105.14-36.06C886.6,277.39,898.62,303.21,927.65,313.17Z"/><path class="cls-4" d="M1113.42,391.61c-30.17,10.35-66.59.3-81.35-22.44C998,305.93,1115.9,284.09,1141.3,331.7,1156.07,354.44,1143.58,381.26,1113.42,391.61Z"/><path class="cls-3" d="M912.67,289.3C959.59,201.48,786.26,168,751.54,234,704.61,321.85,877.94,355.38,912.67,289.3Z"/><path class="cls-4" d="M885.87,281.27c105.68-25.54-30.47-70.29-76.65-56.15C703.54,250.66,839.69,295.4,885.87,281.27Z"/><path class="cls-3" d="M1630.49,515.93c-76.14-166.73,231.83-238.13,295.22-99.64C2001.86,583,1693.89,654.41,1630.49,515.93Z"/><path class="cls-3" d="M1720.94,777.19c-156.89,59.53-303.1-149.42-116.55-221.55C1761.27,496.11,1907.48,705.06,1720.94,777.19Z"/><path class="cls-3" d="M1811.09,625.51C1699.18,668,1594.9,518.94,1728,467.48,1839.86,425,1944.15,574.06,1811.09,625.51Z"/><path class="cls-3" d="M1573,732.29C1436.77,784,1309.8,602.54,1471.8,539.89,1608,488.2,1735,669.65,1573,732.29Z"/><path class="cls-3" d="M1666.25,631.8c-98.5,37.37-190.3-93.81-73.18-139.1C1691.57,455.33,1783.36,586.51,1666.25,631.8Z"/><path class="cls-4" d="M1594.44,722c-102.08,38.73-197.21-97.22-75.83-144.15C1620.69,539.09,1715.82,675,1594.44,722Z"/><path class="cls-3" d="M1738.87,711C1650,516.29,2009.58,432.91,2083.6,594.62,2172.51,789.3,1812.9,872.68,1738.87,711Z"/><path class="cls-4" d="M1953.84,748.8c-112.72,42.77-217.77-107.36-83.74-159.18C1982.82,546.85,2087.86,697,1953.84,748.8Z"/><path class="cls-4" d="M1768,697.93c-117.11,44.44-226.25-111.53-87-165.37C1798.11,488.13,1907.24,644.09,1768,697.93Z"/><path class="cls-4" d="M1691.8,483c-186.3-55.74,59.52-136.59,143.69-106.24C2021.79,432.5,1776,513.35,1691.8,483Z"/><line class="cls-16" x1="1771.23" y1="374.4" x2="1784.97" y2="712.45"/><path class="cls-3" d="M1942.65,309.87c-.77,197.2-327.73,197.19-328.46,0C1615,112.67,1941.91,112.69,1942.65,309.87Z"/><path class="cls-4" d="M1837.65,286c-.46,117.64-196.08,117.63-196.52,0C1641.58,168.36,1837.21,168.37,1837.65,286Z"/></g><g id="bp-plains-1"><polygon class="cls-17" points="1970 1130 -50 1130 -50 471.06 1970 741.7 1970 1130"/><path class="cls-3" d="M819.27,713.4c44,15.09,97.08.44,118.61-32.72,49.74-92.21-122.22-124-159.26-54.63C757.09,659.21,775.29,698.32,819.27,713.4Z"/><path class="cls-3" d="M769.77,628.19c31.37,10.76,69.25.31,84.6-23.34,35.49-65.77-87.18-88.48-113.6-39C725.42,589.54,738.4,617.43,769.77,628.19Z"/><path class="cls-3" d="M910.31,691.26c38.19,13.1,84.3.38,103-28.42,43.2-80.07-106.14-107.72-138.31-47.43C856.31,644.2,872.11,678.16,910.31,691.26Z"/><path class="cls-3" d="M857.23,634.21c27.61,9.48,60.95.28,74.47-20.54,31.23-57.89-76.74-77.88-100-34.3C818.19,600.19,829.62,624.74,857.23,634.21Z"/><path class="cls-4" d="M897.68,685.19c28.62,9.82,63.17.29,77.18-21.29,32.36-60-79.53-80.71-103.63-35.54C857.22,649.93,869.07,675.38,897.68,685.19Z"/><path class="cls-3" d="M810.63,676.58C870.26,565,650,522.37,605.86,606.35,546.23,717.94,766.5,760.55,810.63,676.58Z"/><path class="cls-4" d="M679.25,693.64c31.6,10.84,69.75.31,85.22-23.51C800.21,603.88,676.65,581,650,630.88,634.57,654.7,647.65,682.8,679.25,693.64Z"/><path class="cls-4" d="M793.43,668.88c32.83,11.26,72.47.32,88.54-24.43,37.13-68.83-91.23-92.59-118.88-40.77C747,628.42,760.6,657.62,793.43,668.88Z"/><path class="cls-3" d="M662.94,667.66C714,572.08,525.37,535.59,487.58,607.51,436.51,703.08,625.15,739.57,662.94,667.66Z"/><path class="cls-4" d="M633.78,658.92c115-27.8-33.16-76.5-83.42-61.11C435.34,625.6,583.52,674.3,633.78,658.92Z"/><path class="cls-3" d="M1701.84,921.17C1549.24,979,1406.4,776.24,1588.29,706,1740.88,648.2,1883.72,851,1701.84,921.17Z"/><path class="cls-3" d="M1789.67,773.88c-108.85,41.24-210.73-103.38-81-153.47C1817.52,579.17,1919.4,723.79,1789.67,773.88Z"/><path class="cls-3" d="M1557.73,877.57c-132.52,50.22-256.57-125.86-98.62-186.84C1591.63,640.52,1715.68,816.6,1557.73,877.57Z"/><path class="cls-3" d="M1648.56,780c-95.81,36.3-185.49-91-71.3-135.08C1673.06,608.6,1762.75,735.9,1648.56,780Z"/><path class="cls-4" d="M1578.6,867.55c-99.29,37.62-192.23-94.3-73.88-140C1604,689.94,1696.94,821.86,1578.6,867.55Z"/><path class="cls-3" d="M1719.31,856.87c-86.59-189.34,264-269.85,335.85-113C2141.75,933.2,1791.17,1013.72,1719.31,856.87Z"/><path class="cls-4" d="M1928.74,893.6C1819.1,935.15,1716.47,789.47,1847.15,739,1956.79,697.48,2059.42,843.15,1928.74,893.6Z"/><path class="cls-4" d="M1747.69,844.21c-113.91,43.16-220.53-108.18-84.76-160.6C1776.83,640.45,1883.45,791.8,1747.69,844.21Z"/><path class="cls-3" d="M1658.63,1019.15c-91.24-199.52,278.18-284.36,353.9-119.07C2103.77,1099.58,1734.35,1184.42,1658.63,1019.15Z"/><path class="cls-4" d="M1717.33,1002.07c-223.38-66.65,71.53-163.22,172.25-127C2113,941.76,1818.06,1038.33,1717.33,1002.07Z"/><path class="cls-3" d="M345.91,718.71c40.41,13.86,89.21.4,109-30.07,45.7-84.72-112.31-114-146.34-50.19C288.78,668.91,305.5,704.85,345.91,718.71Z"/><path class="cls-3" d="M300.43,640.42c28.82,9.89,63.63.28,77.74-21.45,32.6-60.43-80.11-81.3-104.38-35.8C259.68,604.9,271.61,630.53,300.43,640.42Z"/><path class="cls-3" d="M429.56,698.37c35.09,12,77.47.35,94.64-26.11,39.7-73.58-97.52-99-127.08-43.59C379.94,655.13,394.47,686.33,429.56,698.37Z"/><path class="cls-3" d="M380.8,646c25.37,8.7,56,.25,68.42-18.88,28.7-53.19-70.51-71.56-91.88-31.51C344.92,614.69,355.42,637.25,380.8,646Z"/><path class="cls-4" d="M418,692.79c26.29,9,58,.26,70.91-19.56,29.74-55.13-73.07-74.16-95.21-32.66C380.79,660.39,391.67,683.77,418,692.79Z"/><path class="cls-3" d="M338,684.88c54.79-102.54-147.6-141.7-188.15-64.53C95,722.89,297.42,762,338,684.88Z"/><path class="cls-4" d="M217.26,700.55c29,10,64.09.29,78.3-21.6,32.84-60.87-80.69-81.89-105.14-36.06C176.21,664.77,188.22,690.59,217.26,700.55Z"/><path class="cls-4" d="M322.17,677.8c30.17,10.35,66.59.3,81.35-22.44,34.12-63.24-83.83-85.08-109.23-37.47C279.52,640.63,292,667.46,322.17,677.8Z"/><path class="cls-3" d="M202.27,676.68c46.92-87.82-126.4-121.34-161.13-55.26C-5.78,709.23,167.54,742.76,202.27,676.68Z"/><path class="cls-4" d="M175.47,668.65C281.15,643.11,145,598.36,98.83,612.5-6.85,638,129.3,682.78,175.47,668.65Z"/><path class="cls-18" d="M1171.73,635.55a218.22,218.22,0,0,1-9,50.68,238.93,238.93,0,0,1-8.65,24c-.82,1.93-1.69,3.81-2.54,5.72s-1.7,3.84-2.63,5.67l-2.75,5.52-1.39,2.76-1.45,2.67a353.15,353.15,0,0,1-25.11,39.64c-8.83,12.13-17.87,23.32-26.76,33.9-17.8,21.13-35,39.89-49.56,57.7-7.3,8.89-13.94,17.51-19.71,25.85a192,192,0,0,0-14.35,24,116.32,116.32,0,0,0-8.32,21.63,84.42,84.42,0,0,0-2.83,19.48A100.73,100.73,0,0,0,998,974.09a151,151,0,0,0,5.11,21.1c4.79,14.86,12.15,31.19,21.6,48a514.45,514.45,0,0,0,33.6,51.31L867,1206.38a710.14,710.14,0,0,1-34.31-83.54l-.94-2.76-.88-2.84-1.76-5.67c-1.15-3.8-2.36-7.5-3.39-11.44l-3.17-11.66c-1-4-1.92-8-2.85-12a402.71,402.71,0,0,1-8.25-50.21,326.89,326.89,0,0,1-.74-54.14,279.64,279.64,0,0,1,9.61-55.64,264.9,264.9,0,0,1,20.74-52.15,295.62,295.62,0,0,1,28.67-44.13,363.8,363.8,0,0,1,31.94-35.63c10.81-10.63,21.6-20.2,32.13-29.1,21.07-17.78,41.13-33,58.83-47.56,8.86-7.29,17.14-14.41,24.64-21.46a236.11,236.11,0,0,0,19.88-21l1.11-1.3,1-1.31,2-2.61c.71-.87,1.26-1.74,1.91-2.61s1.29-1.74,1.89-2.62a120.91,120.91,0,0,0,6.5-10.58,102.24,102.24,0,0,0,9.1-22.48Z"/><path class="cls-3" d="M1085.2,904.27c-60.31-131.89,183.89-188,233.94-78.71C1379.46,957.44,1135.26,1013.52,1085.2,904.27Z"/><path class="cls-3" d="M1246.44,905.26c-82-147,319.36-166.27,360.26-80.69C1688.69,971.53,1287.35,990.83,1246.44,905.26Z"/><path class="cls-3" d="M1401.57,877c-101.51,37.88-201.5-94.32-77.21-141.44C1425.86,697.67,1525.85,829.87,1401.57,877Z"/><path class="cls-4" d="M1160,934c-53.55-15.53-74.11-59.22-45.93-97.58,42-75.38,259.06-56.51,193.92,56.24C1279.78,931,1213.53,949.51,1160,934Z"/><path class="cls-4" d="M1452.91,888.08c-81.13,22.48-235.53-54.08-87.57-90.89C1446.47,774.73,1600.87,851.28,1452.91,888.08Z"/><line class="cls-19" x1="1253.39" y1="302.47" x2="1282.16" y2="1010.39"/><path class="cls-9" d="M1346,279.84c.68,168.75-418.73,168.73-418,0C927.28,111.08,1346.69,111.1,1346,279.84Z"/><path class="cls-9" d="M1519.15,273.78c.2,226.11-503,226.08-502.75,0C1016.2,47.67,1519.4,47.69,1519.15,273.78Z"/><path class="cls-10" d="M1382.12,273.78c1.53,110.18-343.79,110.16-342.23,0C1038.37,163.6,1383.69,163.61,1382.12,273.78Z"/><path class="cls-6" d="M617.83,688.28l88.11-13.13,93.71,11.15,1.5,106c-126,21.4-100.91,32.88-222.23-17.5Z"/><path class="cls-7" d="M841.17,774.77l-40,17.5L708.37,675.44C828.08,689.85,788.15,669.61,841.17,774.77Z"/><path class="cls-3" d="M270.69,1038.17C113.8,1097.7-32.41,888.76,154.14,816.62,311,757.1,457.23,966,270.69,1038.17Z"/><path class="cls-3" d="M360.84,886.5C248.93,929,144.65,779.92,277.7,728.47,389.61,686,493.9,835.05,360.84,886.5Z"/><path class="cls-3" d="M122.77,993.28C-13.48,1045-140.45,863.52,21.55,800.88,157.79,749.18,284.76,930.64,122.77,993.28Z"/><path class="cls-3" d="M216,892.78C117.49,930.15,25.7,799,142.82,753.68,241.32,716.31,333.11,847.49,216,892.78Z"/><path class="cls-4" d="M144.19,983C42.11,1021.69-53,885.74,68.36,838.8,170.43,800.07,265.56,936,144.19,983Z"/><path class="cls-3" d="M288.62,972C199.71,777.27,559.33,693.89,633.35,855.6,722.26,1050.28,362.65,1133.66,288.62,972Z"/><path class="cls-4" d="M503.59,1009.78c-112.73,42.77-217.77-107.35-83.75-159.18C532.56,807.83,637.61,958,503.59,1009.78Z"/><path class="cls-4" d="M317.75,958.92c-117.11,44.44-226.25-111.53-87-165.38C347.86,749.11,457,905.08,317.75,958.92Z"/><path class="cls-3" d="M533.08,963.6C456.94,796.87,764.91,725.47,828.3,864,904.44,1030.68,596.47,1102.08,533.08,963.6Z"/><path class="cls-4" d="M582.05,949.31c-186.31-55.74,59.52-136.59,143.68-106.24C912,898.81,666.22,979.65,582.05,949.31Z"/><path class="cls-6" d="M1087.4,967.07l96.54-61.84,89.44-32.5,111.64,8.6,94.73,69.74,57.55,156.58c-226.42,29.12-226.68,44.44-451.55-24.75Z"/><path class="cls-7" d="M1618.62,1082.9l-81.32,24.75-64.51-152.47L1385,881.33C1539.33,960.43,1523.39,933.23,1618.62,1082.9Z"/><line class="cls-19" x1="101.9" y1="497.63" x2="73.13" y2="1205.55"/><path class="cls-9" d="M9.33,475c-.68,168.76,418.73,168.74,418,0C428,306.24,8.6,306.26,9.33,475Z"/><path class="cls-9" d="M-163.86,468.94c-.2,226.11,503,226.08,502.75,0C339.09,242.83-164.11,242.85-163.86,468.94Z"/><path class="cls-10" d="M-26.84,468.94c-1.52,110.18,343.8,110.16,342.24,0C316.92,358.76-28.4,358.77-26.84,468.94Z"/></g></g></svg>