<svg xmlns="http://www.w3.org/2000/svg" viewBox="0 0 1920 1080"><defs><style>.cls-1{fill:#8a8553;}.cls-10,.cls-11,.cls-12,.cls-15,.cls-2,.cls-5{fill:none;stroke-miterlimit:10;}.cls-2{stroke:#7d794b;stroke-width:34px;}.cls-3{fill:#848568;}.cls-4{fill:#62634e;}.cls-11,.cls-12,.cls-15,.cls-5{stroke:#57482b;}.cls-5{stroke-width:17.38px;}.cls-6{fill:#637d3d;}.cls-7{fill:#63873d;}.cls-8{fill:#757d36;}.cls-9{fill:#918c57;}.cls-10{stroke:#878250;stroke-width:84px;}.cls-11{stroke-width:32.96px;}.cls-12{stroke-width:27.59px;}.cls-13{fill:#9b944e;}.cls-14{fill:#948e4b;}.cls-15{stroke-width:80.34px;}.cls-16{fill:#7f873b;}.cls-17{opacity:0.5;}.cls-18{opacity:0.7;}</style></defs><g id="before-plains"><g id="bp-plains-3"><polygon class="cls-1" points="1967.83 378.56 -62.84 332.43 -62.84 -50.71 1957.16 -43.77 1967.83 378.56"/><path class="cls-2" d="M1027.33-52c214.58,190.67-623.15,243.24-640.92,437.57"/><polygon class="cls-3" points="340.61 197.01 359.95 184.62 377.87 178.11 400.23 179.83 419.21 193.81 430.75 225.18 381.47 231.22 340.27 220.22 340.61 197.01"/><polygon class="cls-4" points="447.04 220.22 430.75 225.18 417.82 194.63 400.23 179.83 430.13 195.16 447.04 220.22"/><polygon class="cls-3" points="838.67 178.64 865.02 161.76 889.43 152.9 919.89 155.24 945.74 174.27 961.45 217 894.33 225.23 838.22 210.25 838.67 178.64"/><polygon class="cls-4" points="983.64 210.25 961.45 217 943.84 175.4 919.89 155.24 960.61 176.12 983.64 210.25"/><line class="cls-5" x1="559.5" y1="-19.06" x2="549.19" y2="122.84"/><ellipse class="cls-6" cx="892.27" cy="50.29" rx="44.04" ry="23.74"/><ellipse class="cls-7" cx="838.78" cy="56.18" rx="45.77" ry="21.04"/><ellipse class="cls-6" cx="465.66" cy="176.39" rx="52.7" ry="35.5"/><ellipse class="cls-8" cx="572.81" cy="130.88" rx="53.97" ry="29.78"/><ellipse class="cls-6" cx="559.03" cy="-12.63" rx="61.93" ry="39.35"/><ellipse class="cls-7" cx="551.61" cy="174.27" rx="47.37" ry="31.91"/></g><g id="bp-plains-2"><polygon class="cls-9" points="-50 714.36 1970 779.02 1970 55.41 -50 326.06 -50 714.36"/><path class="cls-10" d="M707.59,224.55c27.45,195.93,753.58,412.7,735.81,607"/><polygon class="cls-3" points="1459.04 486.41 1492.78 464.8 1524.04 453.44 1563.05 456.45 1596.16 480.82 1616.27 535.54 1530.32 546.08 1458.46 526.89 1459.04 486.41"/><polygon class="cls-4" points="1644.69 526.89 1616.27 535.54 1593.72 482.26 1563.05 456.45 1615.2 483.18 1644.69 526.89"/></g><g id="bp-plains-1"><line class="cls-11" x1="204.04" y1="111.45" x2="215.84" y2="401.84"/><ellipse class="cls-7" cx="184.01" cy="113.89" rx="85.73" ry="53.11"/><line class="cls-11" x1="676.48" y1="122.86" x2="656.93" y2="391.9"/><ellipse class="cls-6" cx="571.3" cy="375.74" rx="102.32" ry="102.15"/><ellipse class="cls-7" cx="398.64" cy="387.25" rx="106.34" ry="90.57"/><ellipse class="cls-7" cx="1279.61" cy="287.97" rx="85.67" ry="62.65"/><ellipse class="cls-8" cx="39.48" cy="375.33" rx="102.32" ry="135.11"/><ellipse class="cls-8" cx="357.3" cy="483.63" rx="128.18" ry="73.46"/><ellipse class="cls-6" cx="191.55" cy="466.1" rx="117.36" ry="119.54"/><ellipse class="cls-6" cx="498.56" cy="493.43" rx="99.92" ry="67.3"/><ellipse class="cls-8" cx="701.72" cy="407.15" rx="102.32" ry="56.45"/><ellipse class="cls-6" cx="1062.72" cy="331.48" rx="85.67" ry="57.7"/><ellipse class="cls-8" cx="1394.41" cy="296.26" rx="85.67" ry="59.39"/><ellipse class="cls-7" cx="1338.06" cy="493.43" rx="85.67" ry="74.08"/><ellipse class="cls-6" cx="1394.41" cy="355.65" rx="64.02" ry="53.19"/><ellipse class="cls-8" cx="1716.55" cy="273.17" rx="73.49" ry="51.27"/><ellipse class="cls-6" cx="675.59" cy="135.06" rx="117.42" ry="74.6"/><ellipse class="cls-7" cx="228.67" cy="101.8" rx="103.12" ry="94.72"/><ellipse class="cls-7" cx="661.52" cy="489.42" rx="89.81" ry="60.49"/><line class="cls-12" x1="1550.52" y1="129.55" x2="1557.31" y2="296.57"/><ellipse class="cls-6" cx="1603.91" cy="67.61" rx="48.55" ry="44.47"/><ellipse class="cls-6" cx="1554.07" cy="97.67" rx="81.14" ry="74.53"/><ellipse class="cls-6" cx="1508.34" cy="290.49" rx="54.35" ry="43.26"/><ellipse class="cls-7" cx="1620.18" cy="273.17" rx="78.44" ry="54.72"/><polygon class="cls-13" points="1970 1130 -50 1130 -50 471.06 1970 741.7 1970 1130"/><path class="cls-14" d="M1166.31,631.51a219.47,219.47,0,0,1-8.44,50.7,241.44,241.44,0,0,1-8.35,24.07c-.79,1.93-1.63,3.83-2.46,5.74s-1.65,3.87-2.55,5.7l-2.68,5.55c-.45.92-.9,1.87-1.36,2.77l-1.41,2.69a354.45,354.45,0,0,1-24.56,39.95c-8.65,12.24-17.52,23.55-26.25,34.25-17.48,21.38-34.33,40.36-48.56,58.39-7.13,9-13.61,17.71-19.21,26.14a194.56,194.56,0,0,0-13.87,24.25,118.88,118.88,0,0,0-8,21.89,92.45,92.45,0,0,0-2.6,19.87,106.69,106.69,0,0,0,1.52,19.76,156.78,156.78,0,0,0,5.29,21.46c4.89,15.06,12.34,31.49,21.84,48.37a519,519,0,0,0,33.69,51.44L867,1206.38a716,716,0,0,1-34.32-83.47c-4.86-14.91-9.42-30.08-13-46.19a405.05,405.05,0,0,1-8.37-50A332.89,332.89,0,0,1,810.2,973a284.85,284.85,0,0,1,8.94-55.33A272.84,272.84,0,0,1,839,865.45a297.44,297.44,0,0,1,27.83-44.56A369.15,369.15,0,0,1,898.1,784.6c10.63-10.85,21.28-20.64,31.69-29.74,20.82-18.18,40.71-33.74,58.23-48.63,8.76-7.44,17-14.69,24.37-21.87A236.7,236.7,0,0,0,1032,663.07l1.09-1.33c.35-.44.66-.88,1-1.32l2-2.65c.71-.88,1.25-1.76,1.89-2.65l1.86-2.65a124,124,0,0,0,6.4-10.71,103.83,103.83,0,0,0,8.88-22.71Z"/><ellipse class="cls-6" cx="213.68" cy="846.79" rx="111.56" ry="136.89" transform="translate(-643.43 1014.35) rotate(-86.9)"/><ellipse class="cls-6" cx="313.7" cy="734.9" rx="79.58" ry="97.65" transform="translate(-437.1 1008.4) rotate(-86.9)"/><ellipse class="cls-6" cx="82.39" cy="818.5" rx="96.88" ry="118.88" transform="translate(-739.36 856.5) rotate(-86.9)"/><ellipse class="cls-6" cx="182.78" cy="749.6" rx="70.04" ry="85.95" transform="translate(-575.6 891.57) rotate(-86.9)"/><ellipse class="cls-7" cx="114.33" cy="831.37" rx="72.59" ry="89.07" transform="translate(-722.01 900.57) rotate(-86.9)"/><ellipse class="cls-6" cx="446.35" cy="834.08" rx="174.35" ry="136.07" transform="translate(-36.67 20.68) rotate(-2.55)"/><ellipse class="cls-7" cx="447.03" cy="849.39" rx="80.15" ry="98.36" transform="translate(-425.3 1249.83) rotate(-86.9)"/><ellipse class="cls-7" cx="271.56" cy="799.05" rx="83.28" ry="102.18" transform="translate(-541.01 1026.99) rotate(-86.9)"/><ellipse class="cls-6" cx="1202.17" cy="864.91" rx="126.4" ry="98.66" transform="translate(-37.29 54.34) rotate(-2.55)"/><ellipse class="cls-6" cx="1426.58" cy="864.91" rx="193.7" ry="93.39" transform="translate(-37.07 64.32) rotate(-2.55)"/><ellipse class="cls-6" cx="1362.96" cy="806.26" rx="76.26" ry="96.59" transform="translate(484.17 2123.62) rotate(-86.9)"/><ellipse class="cls-7" cx="1211.01" cy="864.52" rx="110.03" ry="74.25" transform="translate(-98.61 158.23) rotate(-7.18)"/><ellipse class="cls-7" cx="1409.12" cy="842.64" rx="47.86" ry="105.25" transform="translate(491.5 2204.13) rotate(-86.9)"/><line class="cls-15" x1="1253.39" y1="302.47" x2="1282.16" y2="1010.39"/><ellipse class="cls-8" cx="1136.96" cy="279.84" rx="209" ry="129.47"/><ellipse class="cls-8" cx="1267.77" cy="273.78" rx="251.38" ry="173.32"/><ellipse class="cls-16" cx="1211.01" cy="273.78" rx="171.12" ry="84.71"/><polygon class="cls-3" points="563.9 644.34 623.98 605.86 679.63 585.64 749.1 590.99 808.05 634.39 843.86 731.82 690.82 750.58 562.87 716.42 563.9 644.34"/><polygon class="cls-4" points="894.46 716.42 843.86 731.82 803.72 636.95 749.1 590.99 841.96 638.59 894.46 716.42"/><ellipse class="cls-6" cx="651.99" cy="834.08" rx="149.31" ry="116.53" transform="translate(-36.46 29.83) rotate(-2.55)"/><ellipse class="cls-7" cx="626.91" cy="817.67" rx="130.23" ry="53.76" transform="translate(-49.73 40.65) rotate(-3.57)"/><polygon class="cls-3" points="1468.53 925.91 1539.45 880.47 1605.16 856.6 1687.17 862.92 1756.77 914.15 1799.05 1029.18 1618.37 1051.33 1467.32 1011 1468.53 925.91"/><polygon class="cls-4" points="1858.79 1011 1799.05 1029.18 1751.66 917.17 1687.17 862.92 1796.81 919.11 1858.79 1011"/></g></g></svg>