<svg xmlns="http://www.w3.org/2000/svg" xmlns:xlink="http://www.w3.org/1999/xlink" viewBox="0 0 1920 1080"><defs><style>.cls-1{fill:#6da4bf;}.cls-2{fill:url(#linear-gradient);}.cls-3{fill:#5b7339;}.cls-4{fill:#5d803a;}.cls-5{fill:#a7ab8f;}.cls-6{fill:#94967f;}.cls-7{fill:#a39382;}.cls-8{fill:#969988;}.cls-9{fill:#a39f82;}.cls-10{fill:#aeb5a1;}.cls-10,.cls-11,.cls-12,.cls-57,.cls-58,.cls-59,.cls-60,.cls-71,.cls-72,.cls-73,.cls-74,.cls-75{stroke:#969696;}.cls-10,.cls-11,.cls-12,.cls-39,.cls-40,.cls-42,.cls-44,.cls-53,.cls-57,.cls-58,.cls-59,.cls-60,.cls-62,.cls-63,.cls-71,.cls-72,.cls-73,.cls-74,.cls-75,.cls-76,.cls-78{stroke-miterlimit:10;}.cls-10,.cls-11,.cls-12{stroke-width:0.09px;}.cls-11{fill:#aab8a9;}.cls-12{fill:#bfbdb0;}.cls-13{fill:#906755;}.cls-14{fill:#637d3d;}.cls-15{fill:#63873d;}.cls-16{fill:#49280e;}.cls-17{fill:#4f442d;}.cls-18{fill:#563914;}.cls-19{fill:url(#linear-gradient-2);}.cls-20{fill:#4e240f;}.cls-21{fill:#7c3c06;}.cls-22{fill:#4c1e00;}.cls-23{fill:#582d25;}.cls-24{fill:#4c291b;}.cls-25{fill:#54392f;opacity:0.43;}.cls-26{fill:#e5b8a3;}.cls-27{fill:#572003;}.cls-28{fill:#361201;}.cls-29{fill:#d7b9a5;opacity:0.75;}.cls-30{fill:#b55f53;}.cls-31{fill:#61322b;}.cls-32{fill:#a69a54;}.cls-33{fill:#b0a858;}.cls-34{fill:#8d722c;}.cls-35{fill:#57482b;}.cls-36{fill:#967930;}.cls-37{fill:#848568;}.cls-38{fill:#6a6b54;}.cls-39,.cls-40,.cls-42,.cls-44,.cls-53,.cls-62,.cls-63,.cls-76,.cls-78{fill:none;stroke:#57482b;}.cls-39{stroke-width:15px;}.cls-40{stroke-width:18.62px;}.cls-41{fill:#62634e;}.cls-42{stroke-width:23.79px;}.cls-43{fill:#737a3a;}.cls-44{stroke-width:17.38px;}.cls-45{fill:#7a823d;}.cls-46{fill:#757d36;}.cls-47{fill:#7f873b;}.cls-48{fill:#7c7d62;}.cls-49{fill:#686952;}.cls-50{fill:#76785e;}.cls-51{fill:#5f783b;}.cls-52{fill:#818a40;}.cls-53{stroke-width:40.17px;}.cls-54{fill:#678c3f;}.cls-55{fill:#afb396;}.cls-56{fill:#a3a68c;}.cls-57{fill:#ccd4bd;}.cls-57,.cls-58,.cls-59,.cls-60,.cls-71,.cls-72,.cls-73,.cls-74,.cls-75{stroke-width:0.2px;}.cls-58{fill:#c2cfbd;}.cls-59{fill:#c2c4b0;}.cls-60{fill:#c2c0b2;}.cls-61{fill:url(#linear-gradient-3);}.cls-62{stroke-width:29.26px;}.cls-63{stroke-width:27px;}.cls-64{fill:#646b34;}.cls-65{fill:#68703c;}.cls-66{fill:#5b7d39;}.cls-67{fill:#65803e;}.cls-68{fill:#74755c;}.cls-69{fill:#b4b89a;}.cls-70{fill:#a8ab90;}.cls-71{fill:#d3dbc4;}.cls-72{fill:#d5e2ce;}.cls-73{fill:#cdcfb9;}.cls-74{fill:#cddecc;}.cls-75{fill:#cccaba;}.cls-76{stroke-width:30px;}.cls-77{fill:#473b24;}.cls-78{stroke-width:50px;}.cls-79{fill:#717831;}.cls-80{fill:#403521;}.cls-81{opacity:0.5;}.cls-82{opacity:0.7;}</style><linearGradient id="linear-gradient" x1="960" y1="1125.66" x2="960" y2="268.5" gradientUnits="userSpaceOnUse"><stop offset="0" stop-color="#97924e"/><stop offset="0.14" stop-color="#928c4b"/><stop offset="0.6" stop-color="#857e44"/><stop offset="1" stop-color="#807941"/></linearGradient><linearGradient id="linear-gradient-2" x1="935.7" y1="629.99" x2="1004.03" y2="620.91" gradientTransform="matrix(-1, -0.02, -0.02, 1, 1924.43, 11.87)" gradientUnits="userSpaceOnUse"><stop offset="0" stop-color="#522f28"/><stop offset="0.46" stop-color="#5f3e2d"/><stop offset="1" stop-color="#6b4b31"/></linearGradient><linearGradient id="linear-gradient-3" x1="465.04" y1="709.04" x2="533.37" y2="699.97" gradientTransform="translate(-17.21 11.87) rotate(-1.43)" xlink:href="#linear-gradient-2"/></defs><g id="before-plains"><rect class="cls-1" x="-50" y="-43.39" width="2026.27" height="479.31"/><rect class="cls-2" x="-50" y="268.5" width="2020" height="857.15"/><g id="bp-plains-middle"><path class="cls-3" d="M815.63,430.05c42.47,9.89,89-21,36.55-33.38C809.71,386.77,763.18,417.67,815.63,430.05Z"/><path class="cls-3" d="M792.41,406.36c30.3,7.06,63.48-15,26.08-23.81C788.2,375.49,755,397.53,792.41,406.36Z"/><path class="cls-3" d="M858.32,423.89c36.88,8.6,77.29-18.23,31.74-29C853.18,386.31,812.78,413.14,858.32,423.89Z"/><path class="cls-3" d="M833.43,408c26.66,6.21,55.88-13.19,23-21C829.72,380.87,800.5,400.26,833.43,408Z"/><path class="cls-4" d="M852.4,422.21c27.63,6.44,57.91-13.67,23.78-21.72C848.55,394.05,818.28,414.15,852.4,422.21Z"/><path class="cls-3" d="M811.57,419.81c28.16-30-73.59-43.53-96-19.52C687.39,430.32,789.13,443.82,811.57,419.81Z"/><path class="cls-4" d="M750,424.55c30.51,7.11,63.95-15.08,26.27-24C745.71,393.46,712.28,415.66,750,424.55Z"/><path class="cls-4" d="M803.51,417.67c31.7,7.39,66.43-15.67,27.29-24.92C799.1,385.37,764.36,408.43,803.51,417.67Z"/><path class="cls-3" d="M742.31,417.33c24.11-25.72-63-37.28-82.23-16.72C636,426.33,723.1,437.89,742.31,417.33Z"/><path class="cls-4" d="M743.68,419.52c65.71-8.75-19.57-27.61-49.3-22.63C628.68,405.63,714,424.5,743.68,419.52Z"/><path class="cls-5" d="M1674.22,533.45c-.06,9.24-47.87,9.24-47.93,0S1674.17,524.21,1674.22,533.45Z"/><path class="cls-6" d="M1667,532.19c0,3.14-32.53,3.14-32.56,0S1667,529,1667,532.19Z"/><path class="cls-7" d="M1630.86,534.64a5.1,5.1,0,0,1-1.3-.89,1.69,1.69,0,0,1-.54-1.57,2.65,2.65,0,0,1,1-1.34,7.37,7.37,0,0,1,1.4-.83,25.54,25.54,0,0,1,6.07-1.76,49.55,49.55,0,0,1,12.51-.62q-3.12.27-6.21.62c-2.06.24-4.11.51-6.14.89a32.85,32.85,0,0,0-6,1.52,7.59,7.59,0,0,0-1.34.66,2.28,2.28,0,0,0-1,1,1.31,1.31,0,0,0,.3,1.28A6.22,6.22,0,0,0,1630.86,534.64Z"/><path class="cls-7" d="M1672.53,532.28a1.88,1.88,0,0,0-.84-1.24,6.84,6.84,0,0,0-1.37-.71,20.65,20.65,0,0,0-3-.88c-2-.43-4.12-.75-6.2-1s-4.19-.46-6.29-.66l-6.31-.52c1-.1,2.11-.13,3.17-.18s2.12,0,3.18,0c2.13,0,4.25.21,6.36.46a39.61,39.61,0,0,1,6.26,1.24,19.19,19.19,0,0,1,3,1.14,7.29,7.29,0,0,1,1.34.93A1.82,1.82,0,0,1,1672.53,532.28Z"/><path class="cls-8" d="M1671.42,533.1a2.25,2.25,0,0,0-1.42-1.66,10,10,0,0,0-2.14-.81,32.86,32.86,0,0,0-4.52-.9c-3.06-.46-6.14-.67-9.24-.87a49.89,49.89,0,0,1,9.3.42,28.72,28.72,0,0,1,4.57,1,10.83,10.83,0,0,1,2.15,1,4.08,4.08,0,0,1,.9.76A1.52,1.52,0,0,1,1671.42,533.1Z"/><path class="cls-9" d="M1653.26,528.86c-3.1.2-6.2.37-9.27.72-1.54.14-3.07.35-4.6.61a27.84,27.84,0,0,0-4.5,1.09,19.19,19.19,0,0,1,4.44-1.43c1.52-.33,3.07-.54,4.61-.72A60.45,60.45,0,0,1,1653.26,528.86Z"/><path class="cls-10" d="M1655.28,532.9c.56,3.3-3.55,4-4,.64-.28-1.65.43-3.65,1.45-3.81S1655,531.24,1655.28,532.9Z"/><path class="cls-11" d="M1646.06,532.8c1.12,3.16-2.82,4.51-3.87,1.33-.57-1.62-.34-3.54.68-3.84S1645.55,531.26,1646.06,532.8Z"/><path class="cls-12" d="M1649.77,535.35c-2.94,1.62-4.9-2.05-1.94-3.6,1.44-.79,3.64-.85,4.15,0S1651.28,534.56,1649.77,535.35Z"/><path class="cls-13" d="M1648.19,532.4a.09.09,0,0,1-.08-.16A.09.09,0,0,1,1648.19,532.4Z"/><path class="cls-13" d="M1647.64,533.53a.09.09,0,0,1-.08-.15C1647.66,533.32,1647.74,533.48,1647.64,533.53Z"/><path class="cls-13" d="M1647.13,535a.15.15,0,0,1-.15-.26A.15.15,0,0,1,1647.13,535Z"/><path class="cls-13" d="M1648.08,535.15s-.1-.06,0-.09S1648.14,535.12,1648.08,535.15Z"/><path class="cls-13" d="M1648.82,535c-.06,0-.11-.06,0-.09S1648.88,534.94,1648.82,535Z"/><path class="cls-13" d="M1649.57,535.15c-.07,0-.13-.07-.06-.11S1649.65,535.12,1649.57,535.15Z"/><path class="cls-13" d="M1647.83,534.36c-.12.07-.23-.13-.1-.2S1648,534.29,1647.83,534.36Z"/><path class="cls-13" d="M1646.84,533.54c-.13.07-.24-.14-.11-.21S1647,533.47,1646.84,533.54Z"/><path class="cls-5" d="M1668.08,531.85c1,.79.15,4.94.15,4.94l-34,.33s-.87-4,0-4.89C1642.89,535.69,1660.34,534.83,1668.08,531.85Z"/><path class="cls-9" d="M1673.37,532.28a2.44,2.44,0,0,1-.46,1.58,5.88,5.88,0,0,1-1.17,1.22,13.66,13.66,0,0,1-2.93,1.6,31.44,31.44,0,0,1-6.38,1.76,53.33,53.33,0,0,1-6.55.72c-1.09,0-2.19.07-3.29.07s-2.19-.05-3.28-.15c2.18-.19,4.35-.36,6.52-.61s4.31-.53,6.44-.92a44.49,44.49,0,0,0,6.3-1.52,13.23,13.23,0,0,0,2.92-1.31A3.46,3.46,0,0,0,1673.37,532.28Z"/><path class="cls-9" d="M1627.34,532.72A3.41,3.41,0,0,0,1629,535a12.37,12.37,0,0,0,2.58,1.34,35.19,35.19,0,0,0,5.66,1.6A117.72,117.72,0,0,0,1649,539.6a40.45,40.45,0,0,1-12-.62,25.4,25.4,0,0,1-5.78-1.89,10.35,10.35,0,0,1-2.57-1.68A3.4,3.4,0,0,1,1627.34,532.72Z"/><path class="cls-7" d="M1632.45,533.1a1.29,1.29,0,0,0,.66.82,4.5,4.5,0,0,0,1,.45,15.47,15.47,0,0,0,2.15.58c1.45.3,2.93.53,4.42.71,3,.38,6,.61,9,1a38.48,38.48,0,0,1-9.1-.08,27.83,27.83,0,0,1-4.48-.92,12.32,12.32,0,0,1-2.15-.85,4.87,4.87,0,0,1-1-.67A1.27,1.27,0,0,1,1632.45,533.1Z"/><path class="cls-7" d="M1670.45,532.49a1.45,1.45,0,0,1-.69,1.13,7.08,7.08,0,0,1-1.19.69,17.05,17.05,0,0,1-2.59.85,42.2,42.2,0,0,1-5.35,1,68.73,68.73,0,0,1-10.83.37c3.61-.2,7.21-.38,10.78-.82a52.55,52.55,0,0,0,5.32-.83,17.78,17.78,0,0,0,2.59-.73,6.6,6.6,0,0,0,1.2-.57A1.48,1.48,0,0,0,1670.45,532.49Z"/><path class="cls-8" d="M1635.31,534a3.82,3.82,0,0,1-1.32-.48,1.81,1.81,0,0,1-.92-1.18,1.43,1.43,0,0,1,.76-1.3,3.59,3.59,0,0,1,1.33-.47,8.73,8.73,0,0,0-1.12.75c-.32.28-.59.62-.52,1a1.55,1.55,0,0,0,.67,1C1634.53,533.51,1634.92,533.73,1635.31,534Z"/><path class="cls-8" d="M1632,535.23a56.87,56.87,0,0,0,9.28,2,53.51,53.51,0,0,0,9.47.31,88,88,0,0,0,9.44-1c3.13-.49,6.25-1.08,9.36-1.71-3.08.79-6.18,1.5-9.31,2.06a81.19,81.19,0,0,1-9.47,1.08,49.92,49.92,0,0,1-9.54-.42A47.34,47.34,0,0,1,1632,535.23Z"/><path class="cls-8" d="M1636.69,533.1a70,70,0,0,0,7,.94c2.35.17,4.7.26,7.06.23s4.7-.16,7-.35,4.69-.51,7-.82a51.27,51.27,0,0,1-14.09,2.1,47.52,47.52,0,0,1-7.15-.45A35.78,35.78,0,0,1,1636.69,533.1Z"/><path class="cls-14" d="M1845.63,521.66c33.55,11.51,74,.33,90.47-25,38-70.33-93.22-94.62-121.48-41.66C1798.2,480.32,1812.09,510.16,1845.63,521.66Z"/><path class="cls-14" d="M1807.88,456.67c23.92,8.21,52.82.24,64.53-17.8,27.06-50.17-66.5-67.5-86.65-29.72C1774,427.18,1784,448.46,1807.88,456.67Z"/><path class="cls-14" d="M1915.07,504.78c29.13,10,64.31.28,78.57-21.68,32.95-61.08-81-82.17-105.5-36.18C1873.88,468.88,1885.94,494.78,1915.07,504.78Z"/><path class="cls-14" d="M1874.59,461.26c21.06,7.23,46.49.21,56.8-15.67,23.82-44.16-58.53-59.41-76.27-26.16C1844.81,435.31,1853.53,454,1874.59,461.26Z"/><path class="cls-15" d="M1905.44,500.15c21.83,7.48,48.18.21,58.87-16.24,24.69-45.77-60.66-61.57-79-27.11C1874.58,473.25,1883.61,492.66,1905.44,500.15Z"/><path class="cls-14" d="M1839,493.58C1884.53,408.45,1716.51,376,1682.85,440,1637.36,525.13,1805.38,557.63,1839,493.58Z"/><path class="cls-15" d="M1738.83,506.59c24.1,8.26,53.2.24,65-17.94,27.26-50.53-67-68-87.28-29.93C1704.75,476.89,1714.73,498.32,1738.83,506.59Z"/><path class="cls-15" d="M1825.92,487.7c25,8.59,55.28.25,67.54-18.63,28.32-52.5-69.59-70.63-90.68-31.1C1790.52,456.85,1800.88,479.11,1825.92,487.7Z"/><path class="cls-14" d="M1726.39,486.77c38.95-72.9-104.93-100.73-133.76-45.87C1553.68,513.79,1697.56,541.63,1726.39,486.77Z"/><path class="cls-15" d="M1704.14,480.1c87.73-21.2-25.29-58.34-63.62-46.6C1552.79,454.69,1665.81,491.84,1704.14,480.1Z"/><g id="bp-kea-2"><g id="bp-kea-tail-2"><path class="cls-16" d="M970.18,612.3a28.64,28.64,0,0,1,5.15-6.09,38.42,38.42,0,0,1,6.49-4.62,51.92,51.92,0,0,1,7.11-3.57,42.41,42.41,0,0,1,7.62-2.17l0,.18a41.2,41.2,0,0,0-7.29,2.82,49.43,49.43,0,0,0-6.69,4c-2.13,1.48-4.06,3.21-6.11,4.78l-6.18,4.82Z"/><path class="cls-17" d="M968.82,613.37a40.32,40.32,0,0,1,6.3-5.23,54.55,54.55,0,0,1,7.14-4,67.39,67.39,0,0,1,7.51-3.23,31.57,31.57,0,0,1,8-1.8l0,.18a31.07,31.07,0,0,0-7.65,2.46,67.09,67.09,0,0,0-7.16,3.67c-2.33,1.33-4.52,2.89-6.86,4.21s-4.68,2.66-7.16,3.84Z"/><path class="cls-18" d="M991.56,606.45a51.4,51.4,0,0,0-6.31,1.11,43.59,43.59,0,0,0-6.1,1.78,45.52,45.52,0,0,0-5.62,2.71,25.57,25.57,0,0,0-5.11,3.59l-.16-.1a11.42,11.42,0,0,1,4.33-5A19.8,19.8,0,0,1,978.7,608a43.87,43.87,0,0,1,6.39-1.3,51.91,51.91,0,0,1,6.47-.4Z"/><path class="cls-18" d="M971.44,612.19a20,20,0,0,1,4.27-4.88,27.18,27.18,0,0,1,5.5-3.42,38.42,38.42,0,0,1,6-2.47,33.09,33.09,0,0,1,6.29-1.27l0,.17a33.75,33.75,0,0,0-6,1.95,37,37,0,0,0-5.56,2.88c-1.79,1.1-3.39,2.43-5.12,3.59s-3.42,2.39-5.24,3.57Z"/><path class="cls-16" d="M970.31,613a28.53,28.53,0,0,1,5.32-4.11,38.08,38.08,0,0,1,6.06-2.85,54.46,54.46,0,0,1,6.33-2.2,27.09,27.09,0,0,1,6.62-1V603a26.75,26.75,0,0,0-6.35,1.65,54.53,54.53,0,0,0-6,2.65c-2,1-3.81,2.19-5.79,3.13s-4,1.89-6.09,2.68Z"/><path class="cls-17" d="M989.63,608.46c-1.77.12-3.53.33-5.27.62a33.17,33.17,0,0,0-9.92,3,17.38,17.38,0,0,0-4.37,2.68l-.14-.09a8.5,8.5,0,0,1,3.77-4,11.49,11.49,0,0,1,2.55-1.1c.89-.22,1.77-.47,2.66-.62a39.13,39.13,0,0,1,5.36-.7,43.56,43.56,0,0,1,5.36,0Z"/></g><path class="cls-19" d="M911.58,594.46a6.89,6.89,0,0,1,7.41.07c1.76,1.13,6.19,6.44,6.19,6.44a53.17,53.17,0,0,1,12.87-1.75,76.43,76.43,0,0,1,20.16,4.18c2.91,1.17,10.8,4.47,14.34,5.67a2.49,2.49,0,0,1,1.24,3.24,57.59,57.59,0,0,1-7.76,9.8c-3.43,3.09-12.4,8.35-16.53,8.24-1.92-.05-27.72-8-34.57-14.38-2.79-2.6-2.28-12.44-2.28-12.44l-3.54,0-4.27-3.63A77,77,0,0,1,911.58,594.46Z"/><path class="cls-20" d="M924.92,609.12a33.3,33.3,0,0,1,4.05,1.51l1.22.52-1.33,0c-.76,0-1.51,0-2.27-.11s-1.51-.13-2.26-.26c.76-.09,1.51-.12,2.27-.15s1.51,0,2.27,0l-.11.5A35.73,35.73,0,0,1,924.92,609.12Z"/><path class="cls-21" d="M936.31,615.49a38.45,38.45,0,0,1,3.75,1.86l.87.48h-1c-.88,0-1.76-.05-2.64-.1s-1.76-.14-2.64-.28c.89-.1,1.77-.12,2.65-.15s1.76,0,2.64,0l-.13.47A38.35,38.35,0,0,1,936.31,615.49Z"/><path class="cls-20" d="M943.35,600.42a31,31,0,0,1,3.58,1.12l1.36.5h-1.46c-.78,0-1.55,0-2.33-.1s-1.55-.13-2.33-.27c.78-.1,1.56-.13,2.34-.16s1.56,0,2.34,0l-.1.49A29.15,29.15,0,0,1,943.35,600.42Z"/><path class="cls-22" d="M953.9,605.05a61.74,61.74,0,0,1,5.68,2.73l1.55.83-1.76-.17a63.7,63.7,0,0,1-8.11-1.2,67.53,67.53,0,0,1,8.18.5l-.2.66A56.85,56.85,0,0,1,953.9,605.05Z"/><path class="cls-23" d="M953.3,613.44a60.09,60.09,0,0,1,6.09,2.82l1.09.57-1.22.11a67.15,67.15,0,0,1-7.9.31,66.74,66.74,0,0,1,7.84-1l-.14.67A60.06,60.06,0,0,1,953.3,613.44Z"/><path class="cls-24" d="M945.57,610.1a37.43,37.43,0,0,1,3.82,1.86l.81.44-.92,0c-.84,0-1.68,0-2.52,0s-1.68-.06-2.52-.16c.84-.13,1.67-.2,2.51-.26s1.68-.09,2.51-.1l-.11.47A36.29,36.29,0,0,1,945.57,610.1Z"/><path class="cls-23" d="M934.7,620.64a43.54,43.54,0,0,1,4.54,2.25l1.06.6-1.22,0a45.53,45.53,0,0,1-6.38-.46,47.17,47.17,0,0,1,6.4-.15l-.16.57A41.76,41.76,0,0,1,934.7,620.64Z"/><path class="cls-22" d="M938.93,604.37c1,.25,1.88.56,2.8.87s1.84.65,2.75,1l1.15.45-1.23,0c-1.84.07-3.68.11-5.52,0a53.38,53.38,0,0,1,5.49-.53l-.08.5c-.91-.35-1.81-.71-2.7-1.11S939.8,604.82,938.93,604.37Z"/><path class="cls-22" d="M960.84,610.21a60.69,60.69,0,0,1,5.69,2.73l1.55.83-1.76-.17a65.54,65.54,0,0,1-8.11-1.2,63.7,63.7,0,0,1,8.18.5l-.21.66A61.91,61.91,0,0,1,960.84,610.21Z"/><path class="cls-24" d="M956.2,618.63a62.35,62.35,0,0,1,6,3l1.07.59-1.22.08a65.19,65.19,0,0,1-7.91.13,65.09,65.09,0,0,1,7.86-.84l-.15.66A62.23,62.23,0,0,1,956.2,618.63Z"/><path class="cls-23" d="M944.84,616.66a38.64,38.64,0,0,1,3.83,1.86l.89.49h-1c-.87,0-1.73,0-2.59-.11s-1.72-.14-2.57-.28c.86-.09,1.72-.12,2.58-.14s1.73,0,2.59,0l-.13.47A37.51,37.51,0,0,1,944.84,616.66Z"/><path class="cls-22" d="M946.49,622.48a62.31,62.31,0,0,1,6,3l1.07.59-1.23.07a65.21,65.21,0,0,1-7.91.05,63.47,63.47,0,0,1,7.88-.76l-.16.66A62.34,62.34,0,0,1,946.49,622.48Z"/><path class="cls-24" d="M930.63,604.71a40.62,40.62,0,0,1,4,1.3l1,.36-1,.13c-.85.11-1.71.2-2.57.26s-1.72.11-2.59.1c.84-.22,1.69-.37,2.54-.52s1.7-.25,2.56-.34l-.06.49A38.51,38.51,0,0,1,930.63,604.71Z"/><path class="cls-23" d="M934.58,609.46a38.53,38.53,0,0,1,3.89,1.71l.92.45-1,0q-1.29,0-2.58,0c-.86,0-1.73-.07-2.59-.17.86-.13,1.72-.2,2.58-.26s1.72-.08,2.58-.08l-.11.48A36.57,36.57,0,0,1,934.58,609.46Z"/><path class="cls-20" d="M914.73,605.77a22.28,22.28,0,0,1,1.8,2.19l.56.74-.78-.5a22.9,22.9,0,0,1-2.46-1.7,20.7,20.7,0,0,1,2.63,1.41l-.22.24A21.9,21.9,0,0,1,914.73,605.77Z"/><path class="cls-21" d="M920.51,609a24.6,24.6,0,0,1,1.51,2.3l.32.53-.54-.31c-.51-.29-1-.62-1.47-.92s-1-.66-1.41-1c.53.23,1,.51,1.55.78s1,.58,1.5.89l-.23.22A21.71,21.71,0,0,1,920.51,609Z"/><path class="cls-23" d="M917.75,612.32a24.7,24.7,0,0,1,1.52,2.3l.31.53-.54-.31c-.5-.29-1-.62-1.47-.93s-1-.65-1.41-1c.54.23,1.05.51,1.56.78s1,.57,1.49.89l-.22.22A24.61,24.61,0,0,1,917.75,612.32Z"/><path class="cls-22" d="M932.25,600.48c1.28.08,2.55.3,3.81.5l.84.14-.83.19c-1.18.27-2.35.55-3.56.71a35.55,35.55,0,0,1,3.48-1v.32A34.37,34.37,0,0,1,932.25,600.48Z"/><path class="cls-24" d="M920.82,601A24.67,24.67,0,0,1,922.7,603l.43.52-.63-.27a26.86,26.86,0,0,1-3-1.49,25.29,25.29,0,0,1,3.18,1.19l-.19.25A24.68,24.68,0,0,1,920.82,601Z"/><path class="cls-23" d="M920.19,604.72a27.6,27.6,0,0,1,1.65,2.25l.38.57-.6-.33a25.22,25.22,0,0,1-2.88-1.8,25.29,25.29,0,0,1,3,1.51l-.21.23A22.35,22.35,0,0,1,920.19,604.72Z"/><path class="cls-21" d="M924.7,617.19a36.26,36.26,0,0,1,3.21,2.69l.73.67-1-.24c-.85-.22-1.7-.46-2.54-.72s-1.67-.55-2.49-.89c.88.11,1.74.29,2.6.47s1.72.41,2.57.65l-.24.43A39.62,39.62,0,0,1,924.7,617.19Z"/><path class="cls-23" d="M927.19,613.1a39.18,39.18,0,0,1,3.5,2.31l.79.57-1-.12c-.6-.08-1.19-.18-1.78-.3s-1.17-.28-1.75-.48a15.57,15.57,0,0,1,1.81,0c.6.06,1.2.13,1.79.23l-.19.45A39,39,0,0,1,927.19,613.1Z"/><path class="cls-25" d="M909.59,599.1c.28,1.38,1.59,1.64,4.14.8s6.69-.17,6.42-1.54-2.63-2.65-6-2.56C911.3,595.87,909.31,597.73,909.59,599.1Z"/><ellipse class="cls-26" cx="911.47" cy="598.56" rx="1.3" ry="0.95" transform="translate(-147.91 340.17) rotate(-19.59)"/><ellipse class="cls-27" cx="911.5" cy="598.45" rx="1.23" ry="0.77" transform="translate(-140.72 312.45) rotate(-18.08)"/><ellipse class="cls-28" cx="911.47" cy="598.46" rx="0.35" ry="0.32" transform="translate(-140.73 312.44) rotate(-18.08)"/><path class="cls-29" d="M906.19,600.67c.9-.83,1.81-1.65,2.74-2.46a20.58,20.58,0,0,1,3-2.22,5.59,5.59,0,0,1,1.95-.41,9.15,9.15,0,0,1,1.89.07,12.49,12.49,0,0,1,3.58,1.05l0,.1c-1.25.05-2.47,0-3.67-.1l-1.77-.14a4.21,4.21,0,0,0-1.65.15,20.26,20.26,0,0,0-3,1.89c-1,.7-2,1.42-3,2.15Z"/><path class="cls-30" d="M899.36,605.17l5.48-5.25s3.62.69,5,2c.4.36-.49,1.44-.76,1.66C904.92,603.37,899.36,605.17,899.36,605.17Z"/><path class="cls-31" d="M904.46,601.14a3.33,3.33,0,0,1-.66.69,3.6,3.6,0,0,1-.82.5,3.15,3.15,0,0,1,.66-.7A3.56,3.56,0,0,1,904.46,601.14Z"/></g><path class="cls-32" d="M811,450.91a24.45,24.45,0,0,0-8.07,3.2,28.21,28.21,0,0,0-6.21,5.27,38.2,38.2,0,0,0-4.45,6.31,50.92,50.92,0,0,0-3.23,6.76,67.46,67.46,0,0,0-2.84,8.59c.2-4.7.31-9.41.63-14.11a157.81,157.81,0,0,1,2-16.89,73.33,73.33,0,0,1,1.9-8.34,33.68,33.68,0,0,1,3.4-8l-.19-.08a35,35,0,0,0-3.83,8,77,77,0,0,0-2.34,8.33,160.29,160.29,0,0,0-2.66,16.94A164.35,164.35,0,0,0,784,483.42h-.71c0-.89-.07-1.79-.11-2.68-.26-6.71-.84-13.41-1.22-20.12s-.6-13.42-.69-20.14l0-5c0-1.68.07-3.36.1-5s.19-3.35.28-5a23.46,23.46,0,0,1,.26-2.51l.33-2.5-.21,0-.44,2.5c-.15.84-.3,1.67-.37,2.51-.16,1.68-.41,3.35-.49,5s-.25,3.36-.31,5l-.19,5.05c-.13,6.73-.09,13.45.05,20.18.13,6.11.24,12.23.67,18.34q-.36-2.65-.8-5.29a91.19,91.19,0,0,0-3.22-13.39,41.62,41.62,0,0,0-6.49-12.58l-.19.09a39.82,39.82,0,0,1,5.64,12.69,90.35,90.35,0,0,1,2.57,13.35c.36,3,.55,6.06.75,9.1-.2-.47-.4-.93-.61-1.4a26.56,26.56,0,0,0-2.64-4.48A20,20,0,0,0,772,473.2a17.27,17.27,0,0,0-5.22-2.66,22.61,22.61,0,0,0-6-.91v.17a21.71,21.71,0,0,1,5.76,1.22,15.5,15.5,0,0,1,4.72,2.8,19.79,19.79,0,0,1,5.61,8.21,27.89,27.89,0,0,1,1.34,4.61c.35,1.56.63,3.13.93,4.71l0,.22a9.22,9.22,0,0,0-3.46-2.11,14,14,0,0,0-5.43-.6V489a13.84,13.84,0,0,1,5,1.18,7.26,7.26,0,0,1,3.25,2.91A14.87,14.87,0,0,1,779.7,497c.24.93.44,1.89.65,2.87v1.29h4.85c.65-2.44,1.21-4.83,1.87-7.19a54.7,54.7,0,0,1,2.17-7,18.63,18.63,0,0,1,4.32-6.26,15.15,15.15,0,0,1,7.52-3.82l0-.17a16.09,16.09,0,0,0-8.26,3.41,20.54,20.54,0,0,0-5.13,6.35c-.21.39-.41.79-.61,1.19.06-.29.11-.57.17-.86a109.36,109.36,0,0,1,3.48-13.92,48,48,0,0,1,2.87-6.71,36,36,0,0,1,4.05-6.27,27.24,27.24,0,0,1,5.74-5.36,23.45,23.45,0,0,1,7.71-3.42Z"/><path class="cls-33" d="M754.36,439.81a24.65,24.65,0,0,0-8.07,3.19,28.52,28.52,0,0,0-6.21,5.28,37.79,37.79,0,0,0-4.45,6.31,50.33,50.33,0,0,0-3.23,6.76,67.46,67.46,0,0,0-2.84,8.59c.2-4.7.31-9.41.63-14.11a158,158,0,0,1,2-16.9,73.33,73.33,0,0,1,1.9-8.34,33.79,33.79,0,0,1,3.4-8l-.19-.08a35.09,35.09,0,0,0-3.83,8,77.83,77.83,0,0,0-2.34,8.34,160.51,160.51,0,0,0-2.66,16.93,164.76,164.76,0,0,0-1.18,16.59h-.72c0-.9-.06-1.79-.1-2.68-.26-6.72-.84-13.42-1.22-20.13s-.6-13.42-.69-20.13l0-5c0-1.67.07-3.35.1-5s.19-3.35.28-5a23.27,23.27,0,0,1,.26-2.5l.33-2.51-.21,0-.44,2.5c-.15.83-.3,1.67-.37,2.5-.16,1.68-.41,3.36-.49,5s-.25,3.36-.31,5l-.19,5c-.13,6.73-.09,13.46.05,20.18.13,6.12.24,12.24.67,18.34q-.36-2.64-.8-5.28a91.32,91.32,0,0,0-3.22-13.4,41.86,41.86,0,0,0-6.49-12.58l-.19.09a40.14,40.14,0,0,1,5.64,12.69,90.23,90.23,0,0,1,2.57,13.36c.36,3,.55,6.06.75,9.1-.2-.47-.4-.94-.62-1.4a25.85,25.85,0,0,0-2.63-4.48,19.74,19.74,0,0,0-3.86-3.89,17,17,0,0,0-5.22-2.66,22.62,22.62,0,0,0-6-.92v.18a21.32,21.32,0,0,1,5.76,1.22,15.68,15.68,0,0,1,4.72,2.79,19.86,19.86,0,0,1,5.61,8.21,28.28,28.28,0,0,1,1.34,4.62c.35,1.56.62,3.13.92,4.7a1.85,1.85,0,0,1,0,.23,9.24,9.24,0,0,0-3.46-2.12,14.36,14.36,0,0,0-5.43-.6v.17a14.06,14.06,0,0,1,5,1.19,7.29,7.29,0,0,1,3.25,2.9,15.39,15.39,0,0,1,1.21,3.85c.24.93.43,1.89.65,2.88V490h4.85c.65-2.44,1.21-4.83,1.87-7.2a54.56,54.56,0,0,1,2.17-7,18.77,18.77,0,0,1,4.32-6.27,15.15,15.15,0,0,1,7.52-3.82l0-.16a16.09,16.09,0,0,0-8.26,3.41,20.5,20.5,0,0,0-5.13,6.34c-.21.4-.41.8-.61,1.2.06-.29.11-.58.17-.86A109.36,109.36,0,0,1,734,461.74a48,48,0,0,1,2.87-6.71,36.46,36.46,0,0,1,4.05-6.28,27.2,27.2,0,0,1,5.74-5.35,23.67,23.67,0,0,1,7.71-3.43Z"/><path class="cls-34" d="M511.13,323.71c.61,25,64.62,23.88,64.31-1.16C574.84,297.51,510.83,298.66,511.13,323.71Z"/><path class="cls-34" d="M495,301.2c.6,25,64.61,23.88,64.3-1.16C558.7,275,494.69,276.15,495,301.2Z"/><path class="cls-35" d="M521.47,310.88c-.64,7.55-.8,15.1-.87,22.66s.1,15.1.41,22.65c.13,3.77.27,7.55.48,11.32l.3,5.67.37,5.66c.51,7.55,1.12,15.1,2.06,22.65H508.45c.93-7.55,1.54-15.1,2.06-22.65l.37-5.66.29-5.67c.22-3.77.35-7.55.49-11.32.3-7.55.41-15.1.4-22.65s-.23-15.11-.87-22.66Z"/><path class="cls-34" d="M473.53,318.82c.6,25,64.61,23.88,64.31-1.16C537.24,292.62,473.23,293.78,473.53,318.82Z"/><path class="cls-36" d="M496.38,309.41c.3,21.59,53.94,20.62,53.46-1C549.54,286.86,495.9,287.83,496.38,309.41Z"/><path class="cls-37" d="M1628.7,552.41l25.06-16,23.21-8.43,29,2.23,24.59,18.1,14.93,40.63c-58.76,7.56-58.83,11.54-117.19-6.42Z"/><path class="cls-38" d="M1766.56,582.47l-21.1,6.42-16.74-39.56-22.78-19.17C1746,550.69,1741.85,543.63,1766.56,582.47Z"/><line class="cls-39" x1="1064.52" y1="295.32" x2="1107.79" y2="381.67"/><path class="cls-14" d="M1868.1,381.56c22.6,7.75,49.89.22,61-16.82,25.57-47.39-62.81-63.75-81.84-28.07C1836.14,353.71,1845.5,373.8,1868.1,381.56Z"/><path class="cls-14" d="M1842.66,337.77c16.12,5.53,35.59.16,43.48-12,18.24-33.8-44.8-45.47-58.38-20C1819.87,317.9,1826.54,332.24,1842.66,337.77Z"/><path class="cls-14" d="M1914.88,370.18c19.63,6.73,43.33.19,52.94-14.6,22.2-41.16-54.55-55.37-71.08-24.38C1887.13,346,1895.26,363.45,1914.88,370.18Z"/><path class="cls-14" d="M1887.61,340.86c14.19,4.87,31.32.14,38.27-10.56,16-29.75-39.44-40-51.39-17.62C1867.55,323.38,1873.42,336,1887.61,340.86Z"/><path class="cls-15" d="M1908.4,367.06c14.7,5.05,32.46.15,39.66-10.94,16.63-30.83-40.87-41.48-53.26-18.27C1887.6,348.94,1893.69,362,1908.4,367.06Z"/><path class="cls-14" d="M1863.66,362.64c30.64-57.36-82.55-79.25-105.23-36.1C1727.78,383.89,1841,405.79,1863.66,362.64Z"/><path class="cls-15" d="M1796.14,371.4c16.24,5.57,35.85.16,43.8-12.08,18.36-34.05-45.13-45.8-58.81-20.17C1773.18,351.39,1779.9,365.83,1796.14,371.4Z"/><path class="cls-15" d="M1854.82,358.68c16.87,5.78,37.24.16,45.5-12.56,19.08-35.37-46.88-47.58-61.09-20.95C1831,337.89,1838,352.89,1854.82,358.68Z"/><path class="cls-14" d="M1787.76,358.05c26.25-49.12-70.7-67.87-90.12-30.91C1671.4,376.25,1768.34,395,1787.76,358.05Z"/><path class="cls-15" d="M1772.77,353.56c59.11-14.29-17-39.31-42.86-31.4C1670.8,336.44,1747,361.46,1772.77,353.56Z"/><line class="cls-40" x1="85.45" y1="217.95" x2="96.49" y2="369.97"/><path class="cls-14" d="M19.61,224.84c-.18,55,132.87,55,132.68,0C152.47,169.89,19.42,169.89,19.61,224.84Z"/><path class="cls-14" d="M309.58,385.79c59.38,18.62,185.79-31,71.82-62.77C322,304.4,195.61,354.05,309.58,385.79Z"/><path class="cls-14" d="M264,341.25c42.36,13.28,132.52-22.13,51.23-44.78C272.86,283.2,182.69,318.61,264,341.25Z"/><path class="cls-14" d="M393.45,374.22c51.56,16.17,161.34-26.94,62.37-54.52C404.25,303.54,294.47,346.65,393.45,374.22Z"/><path class="cls-14" d="M344.56,344.4c37.28,11.69,116.64-19.48,45.09-39.41C352.37,293.3,273,324.47,344.56,344.4Z"/><path class="cls-15" d="M381.82,371.05c38.63,12.11,120.88-20.19,46.73-40.85C389.91,318.09,307.66,350.39,381.82,371.05Z"/><path class="cls-14" d="M301.62,366.55c24-20.95,1.16-46.14-50.93-56.28-78-23.61-233.36,36-86.77,75.85C216,396.25,277.66,387.49,301.62,366.55Z"/><path class="cls-15" d="M180.59,375.46c42.66,13.38,133.49-22.29,51.6-45.1C189.53,317,98.71,352.66,180.59,375.46Z"/><path class="cls-15" d="M285.78,362.52c44.32,13.9,138.68-23.16,53.61-46.86C295.07,301.77,200.71,338.83,285.78,362.52Z"/><path class="cls-14" d="M165.57,361.88c20.52-17.93,1-39.51-43.62-48.19-66.76-20.22-199.84,30.85-74.31,64.95C92.25,387.32,145.05,379.82,165.57,361.88Z"/><path class="cls-15" d="M138.7,357.31c106.39-15.36-38.26-40.54-76.84-31.94-37,3.16-49.83,12.87-28.61,21.69S101.69,360.47,138.7,357.31Z"/><path class="cls-37" d="M59.5,343.17l37.33-5.57,35.26,24.88,5.08,24.75C83.79,396.3,94.41,401.16,43,379.81Z"/><path class="cls-41" d="M154.12,379.81l-17,7.42L97.86,337.72C112.38,347.52,140.58,368.67,154.12,379.81Z"/><line class="cls-42" x1="1109.56" y1="271.15" x2="1106.02" y2="447.07"/><path class="cls-43" d="M984.15,261.65c-.29,70.21,219,70.2,218.66,0C1203.1,191.43,983.83,191.44,984.15,261.65Z"/><path class="cls-37" d="M391.44,438.2l19.34-12.39,17.92-6.51L451.07,421l19,14,11.53,31.37c-45.37,5.83-45.42,8.9-90.47-5Z"/><path class="cls-41" d="M497.87,461.41l-16.29,5-12.93-30.55L451.07,421C482,436.87,478.79,431.42,497.87,461.41Z"/><line class="cls-44" x1="609.73" y1="346.22" x2="606.44" y2="495.44"/><path class="cls-14" d="M569.19,417.58c.07,46.3-105.48,46.29-105.4,0C463.72,371.28,569.27,371.28,569.19,417.58Z"/><path class="cls-45" d="M617.66,358.25c.12,36.56-88.39,36.56-88.27,0C529.28,321.69,617.79,321.7,617.66,358.25Z"/><path class="cls-15" d="M549.58,422.18c.06,41.62-94.81,41.61-94.74,0S549.65,380.57,549.58,422.18Z"/><path class="cls-3" d="M1175.15,510.27c60.25,25.38,126.26-53.86,51.86-85.61C1166.76,399.29,1100.75,478.52,1175.15,510.27Z"/><path class="cls-3" d="M1142.22,449.52c43,18.11,90.06-38.41,37-61.06C1136.24,370.36,1089.15,426.88,1142.22,449.52Z"/><path class="cls-3" d="M1235.72,494.49c52.32,22,109.64-46.77,45-74.35C1228.43,398.11,1171.11,466.92,1235.72,494.49Z"/><path class="cls-3" d="M1200.41,453.82c37.82,15.93,79.27-33.82,32.56-53.75C1195.14,384.14,1153.7,433.88,1200.41,453.82Z"/><path class="cls-4" d="M1227.32,490.16c39.2,16.51,82.15-35,33.74-55.7C1221.86,418,1178.91,469.5,1227.32,490.16Z"/><path class="cls-3" d="M1169.4,484c39.94-77-104.4-111.64-136.23-50.07C993.23,511,1137.57,545.59,1169.4,484Z"/><path class="cls-4" d="M1082,496.18c43.28,18.23,90.71-38.69,37.26-61.51C1076,416.44,1028.55,473.37,1082,496.18Z"/><path class="cls-4" d="M1158,478.53c45,18.94,94.25-40.2,38.71-63.9C1151.7,395.69,1102.43,454.83,1158,478.53Z"/><path class="cls-3" d="M1071.15,477.66c34.2-66-89.41-95.61-116.67-42.88C920.28,500.75,1043.89,530.39,1071.15,477.66Z"/><path class="cls-4" d="M1073.09,483.26c93.21-22.42-27.76-70.8-69.94-58C909.94,447.66,1030.92,496,1073.09,483.26Z"/><path class="cls-14" d="M427.8,558.24c-37.67,11.87-81.48-2.06-97.85-31.1-37.36-78.76,107.22-104.8,136.4-43C482.73,513.22,465.47,546.38,427.8,558.24Z"/><path class="cls-14" d="M473.67,486.24c-26.87,8.46-58.12-1.47-69.8-22.19-26.65-56.18,76.48-74.75,97.29-30.64C512.85,454.12,500.53,477.77,473.67,486.24Z"/><path class="cls-14" d="M352.54,536.93c-32.71,10.3-70.75-1.79-85-27-32.44-68.4,93.12-91,118.46-37.31C400.25,497.83,385.26,526.63,352.54,536.93Z"/><path class="cls-14" d="M400,489.22c-23.64,7.45-51.15-1.29-61.43-19.53-23.46-49.45,67.31-65.8,85.64-27C434.46,461,423.62,481.77,400,489.22Z"/><path class="cls-15" d="M363.44,532c-24.5,7.72-53-1.34-63.67-20.24-24.3-51.25,69.77-68.19,88.76-28C399.18,502.73,388,524.31,363.44,532Z"/><path class="cls-14" d="M436.92,526.81c-44.8-95.28,140.59-130,175.38-55.24C657.11,566.84,471.72,601.58,436.92,526.81Z"/><path class="cls-15" d="M546.29,544.77c-27.06,8.52-58.54-1.48-70.31-22.35-26.84-56.59,77-75.3,98-30.87C585.75,512.41,573.35,536.24,546.29,544.77Z"/><path class="cls-15" d="M451.74,520.62c-28.11,8.86-60.82-1.54-73-23.22-27.89-58.79,80-78.23,101.82-32.07C492.74,487,479.86,511.76,451.74,520.62Z"/><path class="cls-14" d="M561.29,522.84c-38.37-81.59,120.4-111.34,150.2-47.3C749.86,557.13,591.09,586.88,561.29,522.84Z"/><path class="cls-15" d="M586.21,516.06C491,489.24,618,451.17,659.31,465.62,754.5,492.44,627.48,530.51,586.21,516.06Z"/><path class="cls-14" d="M1457.68,541.76c33.55,11.5,74,.33,90.47-25,37.95-70.33-93.22-94.62-121.48-41.66C1410.25,500.42,1424.14,530.25,1457.68,541.76Z"/><path class="cls-14" d="M1419.93,476.76c23.92,8.21,52.82.24,64.53-17.8,27.06-50.17-66.5-67.49-86.65-29.72C1386.09,447.28,1396,468.55,1419.93,476.76Z"/><path class="cls-14" d="M1527.12,524.87c29.13,10,64.31.29,78.57-21.68,33-61.08-81-82.17-105.5-36.18C1485.93,489,1498,514.88,1527.12,524.87Z"/><path class="cls-14" d="M1486.64,481.35c21.06,7.23,46.49.21,56.8-15.67,23.82-44.15-58.53-59.4-76.27-26.16C1456.86,455.4,1465.58,474.13,1486.64,481.35Z"/><path class="cls-15" d="M1517.49,520.24c21.83,7.49,48.18.22,58.87-16.24,24.69-45.76-60.66-61.57-79-27.11C1486.63,493.34,1495.66,512.75,1517.49,520.24Z"/><path class="cls-14" d="M1451.09,513.67c45.49-85.13-122.53-117.63-156.19-53.57C1249.41,545.22,1417.43,577.72,1451.09,513.67Z"/><path class="cls-15" d="M1350.88,526.68c24.1,8.27,53.2.24,65-17.93,27.26-50.54-67-68-87.28-29.94C1316.8,497,1326.78,518.41,1350.88,526.68Z"/><path class="cls-15" d="M1438,507.8c25,8.58,55.28.24,67.54-18.64,28.32-52.5-69.59-70.63-90.68-31.1C1402.57,476.94,1412.93,499.21,1438,507.8Z"/><path class="cls-14" d="M1338.44,506.86c39-72.9-104.93-100.73-133.76-45.87C1165.73,533.88,1309.61,561.72,1338.44,506.86Z"/><path class="cls-15" d="M1316.19,500.2c87.73-21.21-25.29-58.35-63.62-46.61C1164.84,474.78,1277.86,511.93,1316.19,500.2Z"/><path class="cls-3" d="M278.27,439.18c54.56,17.11,170.71-28.51,66-57.69C289.7,364.39,173.55,410,278.27,439.18Z"/><path class="cls-3" d="M355.33,428.54c47.38,14.86,148.25-24.76,57.3-50.09C365.25,363.6,264.39,403.21,355.33,428.54Z"/><path class="cls-3" d="M310.4,401.14c34.26,10.74,107.18-17.9,41.43-36.21C317.58,354.19,244.66,382.83,310.4,401.14Z"/><path class="cls-4" d="M344.64,425.63c35.5,11.13,111.07-18.55,42.94-37.53C352.08,377,276.5,406.65,344.64,425.63Z"/><path class="cls-4" d="M256.4,417.79c40.72,12.77,127.42-21.28,49.26-43.06C264.93,362,178.23,396,256.4,417.79Z"/><path class="cls-37" d="M64.64,458.42l54.06-8.06,57.49,6.84.92,65c-77.3,13.13-61.91,20.17-136.35-10.74Z"/><path class="cls-41" d="M201.66,511.48l-24.55,10.74-56.93-71.68C193.63,459.38,169.13,447,201.66,511.48Z"/><line class="cls-40" x1="249.05" y1="220.58" x2="242.39" y2="384.66"/><path class="cls-46" d="M173.31,214.83c.27,70,116.27,70,116.53,0C289.56,144.87,173.57,144.88,173.31,214.83Z"/><path class="cls-47" d="M211.93,222c-.16,39.11,97.05,39.11,96.88,0C309,182.84,211.76,182.85,211.93,222Z"/><path class="cls-15" d="M1803.37,254.26c-.16,39.11,97.05,39.11,96.88,0C1900.41,215.14,1803.2,215.15,1803.37,254.26Z"/><line class="cls-40" x1="1840.49" y1="252.88" x2="1833.83" y2="416.96"/><path class="cls-15" d="M1768.31,247.43c.27,70,116.27,69.95,116.53,0C1884.57,177.47,1768.57,177.47,1768.31,247.43Z"/><line class="cls-40" x1="1734.79" y1="262.81" x2="1728.12" y2="426.89"/><path class="cls-46" d="M1659,257.06c.28,70,116.27,70,116.53,0C1775.3,187.1,1659.31,187.11,1659,257.06Z"/><path class="cls-47" d="M1697.66,264.19c-.15,39.11,97.06,39.11,96.89,0C1794.71,225.07,1697.5,225.08,1697.66,264.19Z"/><path class="cls-14" d="M1482.78,660.34c44,15.08,97.08.43,118.61-32.73,49.74-92.21-122.22-124-159.26-54.62C1420.6,606.14,1438.8,645.25,1482.78,660.34Z"/><path class="cls-14" d="M1433.28,575.13c31.37,10.76,69.25.31,84.6-23.34,35.49-65.77-87.18-88.49-113.6-39C1388.93,536.47,1401.91,564.37,1433.28,575.13Z"/><path class="cls-14" d="M1573.82,638.2c38.19,13.1,84.3.37,103-28.42,43.2-80.08-106.14-107.73-138.31-47.44C1519.82,591.13,1535.62,625.1,1573.82,638.2Z"/><path class="cls-14" d="M1520.74,581.15c27.61,9.47,61,.27,74.47-20.55,31.23-57.89-76.74-77.88-100-34.29C1481.7,547.12,1493.13,571.68,1520.74,581.15Z"/><path class="cls-15" d="M1561.19,632.13c28.62,9.81,63.17.28,77.18-21.29,32.36-60-79.53-80.72-103.63-35.54C1520.73,596.87,1532.58,622.31,1561.19,632.13Z"/><path class="cls-14" d="M1474.14,623.52c59.63-111.61-160.64-154.21-204.77-70.23C1209.74,664.88,1430,707.49,1474.14,623.52Z"/><path class="cls-15" d="M1342.76,640.57c31.6,10.84,69.75.31,85.22-23.51,35.74-66.25-87.82-89.13-114.43-39.25C1298.08,601.63,1311.16,629.73,1342.76,640.57Z"/><path class="cls-15" d="M1456.94,615.81c32.83,11.26,72.47.33,88.54-24.42,37.13-68.83-91.23-92.6-118.88-40.78C1410.53,575.36,1424.11,604.55,1456.94,615.81Z"/><path class="cls-14" d="M1326.45,614.59c51.07-95.57-137.57-132.06-175.36-60.14C1100,650,1288.66,686.51,1326.45,614.59Z"/><path class="cls-15" d="M1297.29,605.85c115-27.79-33.16-76.49-83.42-61.1C1098.85,572.54,1247,621.23,1297.29,605.85Z"/><path class="cls-48" d="M1849.6,536.46,1867.46,525l16.56-6,20.66,1.59,8.56,44.54c-41.9,5.39-22.33,5.56-64-7.24Z"/><polygon class="cls-49" points="1904.68 520.6 1917.89 528.1 1926.92 559.36 1913.24 565.14 1904.68 520.6"/><path class="cls-37" d="M676,513.74l33.67-21.57,31.18-11.33,38.92,3,33,24.32,20.07,54.59c-79,10.15-79,15.49-157.44-8.63Z"/><path class="cls-50" d="M861.22,554.12l-28.35,8.63-22.49-53.16-30.61-25.75C833.58,511.42,828,501.94,861.22,554.12Z"/><path class="cls-14" d="M651.08,687.27c66.74,22.6,212.12-26.71,83.87-65.73C668.22,598.94,522.83,648.25,651.08,687.27Z"/><path class="cls-14" d="M549.92,651.53c47.61,16.13,151.31-19,59.83-46.88C562.15,588.53,458.45,623.7,549.92,651.53Z"/><path class="cls-14" d="M692.33,643.45c41.9,14.19,133.17-16.76,52.66-41.27C703.09,588,611.81,619,692.33,643.45Z"/><path class="cls-14" d="M501.79,707c66.74,22.6,212.12-26.7,83.88-65.73C518.93,618.7,373.54,668,501.79,707Z"/><path class="cls-14" d="M451.66,656.67c47.6,16.12,151.3-19,59.82-46.89C463.88,593.67,360.18,628.83,451.66,656.67Z"/><path class="cls-14" d="M597.46,697.62c57.95,19.63,184.21-23.19,72.83-57.08C612.34,620.92,486.08,663.73,597.46,697.62Z"/><path class="cls-14" d="M543,663.2c41.9,14.19,133.18-16.76,52.66-41.27C553.8,607.75,462.52,638.7,543,663.2Z"/><path class="cls-15" d="M585,673.76c43.43,14.7,138-17.38,54.58-42.77C596.19,616.29,501.6,648.37,585,673.76Z"/><path class="cls-14" d="M493.46,685.71c28-21.92,3-50.29-55.76-63.36-87.64-28.76-266.32,30.32-101.33,79.41C395.15,714.82,465.48,707.64,493.46,685.71Z"/><path class="cls-15" d="M355.7,690.78C403.64,707,508.1,671.6,416,643.56,368,627.32,263.55,662.75,355.7,690.78Z"/><path class="cls-15" d="M475.63,680.71c49.81,16.87,158.33-19.93,62.6-49.06C488.42,614.78,379.89,651.58,475.63,680.71Z"/><path class="cls-14" d="M339.14,675.39c24-18.78,2.58-43.08-47.75-54.27-75.06-24.62-228.08,26-86.79,68C254.94,700.31,315.17,694.16,339.14,675.39Z"/><path class="cls-15" d="M308.8,669.37c121.37-12.67-41.95-45.71-86.09-37.81-42.15,2-57.05,12.12-33.28,22.57S266.65,671.39,308.8,669.37Z"/><path class="cls-51" d="M970.92,702.93c67.22,21.11,211.47-31.4,82.39-67.58C986.09,614.24,841.84,666.76,970.92,702.93Z"/><path class="cls-51" d="M909.43,644.87c70.37,24.67,223.61-24.27,88.36-67.08C927.42,553.13,774.18,602.07,909.43,644.87Z"/><path class="cls-51" d="M816.37,668.55c64.58,28.18,213.63-8.61,89.15-58.37C840.94,582,691.9,618.79,816.37,668.55Z"/><path class="cls-51" d="M907.51,704.14c59,16.25,182.56-33.78,69.42-61.19C917.94,626.71,794.36,676.74,907.51,704.14Z"/><path class="cls-15" d="M904.43,667.48c62,19.52,195.21-28.9,76.08-62.34C918.47,585.63,785.3,634,904.43,667.48Z"/><path class="cls-15" d="M979.05,682.35c44.1,12.55,137-24.15,52.4-45.4C987.36,624.4,894.46,661.11,979.05,682.35Z"/><path class="cls-14" d="M122.71,706.73c66.74,22.6,212.13-26.7,83.88-65.73C139.85,618.41-5.53,667.71,122.71,706.73Z"/><path class="cls-14" d="M72.58,656.38c47.6,16.12,151.3-19,59.83-46.88C84.8,593.38-18.9,628.55,72.58,656.38Z"/><path class="cls-14" d="M114.39,685.43c28-21.93,3-50.3-55.76-63.37C-29,593.31-207.69,652.39-42.71,701.48,16.07,714.53,86.4,707.35,114.39,685.43Z"/><path class="cls-15" d="M-23.38,690.49c48,16.24,152.4-19.18,60.26-47.22C-11.07,627-115.52,662.46-23.38,690.49Z"/><path class="cls-15" d="M96.55,680.42c49.81,16.87,158.34-19.93,62.61-49.06C109.34,614.49.82,651.3,96.55,680.42Z"/><path class="cls-14" d="M628.94,711.59c65.86,25,212.95-19,86.21-62.63C649.28,624,502.2,667.92,628.94,711.59Z"/><path class="cls-14" d="M718,704.52c57.2,21.73,184.93-16.45,74.87-54.38C735.68,628.41,607.94,666.6,718,704.52Z"/><path class="cls-15" d="M702.21,674.82c41.36,15.71,133.7-11.89,54.13-39.32C715,619.8,622.64,647.41,702.21,674.82Z"/><path class="cls-14" d="M575,720c57.2,21.73,184.93-16.45,74.87-54.38C592.64,643.88,464.91,682.06,575,720Z"/><path class="cls-15" d="M598,700.65c42.85,16.28,138.56-12.33,56.09-40.75C611.26,643.63,515.56,672.24,598,700.65Z"/><path class="cls-15" d="M688.49,695.68c42.86,16.28,138.56-12.33,56.1-40.75C701.73,638.66,606,667.27,688.49,695.68Z"/><path class="cls-45" d="M696.67,356.78c.14,27.86-107.71,27.86-107.56,0C589,328.92,696.82,328.93,696.67,356.78Z"/><path class="cls-45" d="M671.42,334.25c.16,39.12-123.55,39.11-123.37,0C547.89,295.12,671.59,295.13,671.42,334.25Z"/><path class="cls-52" d="M645.65,338.83c.1,20.77-80.3,20.77-80.18,0C565.36,318.06,645.76,318.06,645.65,338.83Z"/><path class="cls-34" d="M1325.77,365.26c2,84.25,217.41,80.37,216.38-3.9C1540.13,277.11,1324.74,281,1325.77,365.26Z"/><path class="cls-34" d="M1271.46,289.51c2,84.26,217.41,80.38,216.38-3.89C1485.82,201.37,1270.43,205.25,1271.46,289.51Z"/><path class="cls-35" d="M1360.55,322.11c-1.12,12.7-1.73,25.41-2.18,38.11s-.69,25.41-.75,38.11c-.13,25.41.38,50.82,1.31,76.23s2.15,50.82,3.89,76.23,3.84,50.82,7,76.23h-53.08c3.14-25.41,5.24-50.82,7-76.23s3-50.82,3.89-76.23,1.45-50.82,1.31-76.23q-.09-19.05-.74-38.11c-.46-12.7-1.06-25.41-2.19-38.11Z"/><path class="cls-34" d="M1199.23,348.81c2,84.26,217.42,80.38,216.39-3.89C1413.6,260.67,1198.2,264.55,1199.23,348.81Z"/><path class="cls-36" d="M1276.11,317.15c1,72.64,181.53,69.38,179.91-3.24C1455,241.27,1274.49,244.53,1276.11,317.15Z"/><line class="cls-53" x1="69.24" y1="470.9" x2="54.86" y2="824.83"/><path class="cls-15" d="M-86.46,459.14c.59,150.91,250.79,150.9,251.36,0C164.31,308.23-85.89,308.25-86.46,459.14Z"/><path class="cls-54" d="M-10.84,473.88c-.34,84.37,209.35,84.36,209,0C198.48,389.51-11.2,389.52-10.84,473.88Z"/><path class="cls-32" d="M475.4,503a32.53,32.53,0,0,0-10.7,4.24,37.78,37.78,0,0,0-8.25,7,49.68,49.68,0,0,0-5.9,8.38,65.68,65.68,0,0,0-4.29,9A88.56,88.56,0,0,0,442.49,543c.26-6.25.4-12.49.84-18.73A209.45,209.45,0,0,1,446,501.86a96.94,96.94,0,0,1,2.53-11.08,44.91,44.91,0,0,1,4.5-10.64l-.25-.1a45.8,45.8,0,0,0-5.07,10.57,97.55,97.55,0,0,0-3.11,11.07,212.59,212.59,0,0,0-3.54,22.48c-.8,7.32-1.49,14.66-1.57,22h-.94c-.05-1.19-.09-2.38-.14-3.56-.35-8.91-1.11-17.81-1.62-26.72s-.8-17.81-.91-26.73l0-6.68c0-2.23.09-4.45.13-6.68s.25-4.45.37-6.68c0-1.11.19-2.22.34-3.32l.44-3.33-.28,0-.58,3.32c-.2,1.1-.4,2.21-.49,3.33-.21,2.22-.55,4.45-.65,6.68s-.33,4.46-.42,6.69l-.25,6.7c-.17,8.93-.11,17.86.07,26.79.18,8.11.32,16.24.89,24.34q-.48-3.51-1.06-7a123.39,123.39,0,0,0-4.27-17.79c-2-5.81-4.55-11.59-8.63-16.7l-.24.12c3.73,5.22,5.84,11,7.49,16.85a120,120,0,0,1,3.4,17.73c.49,4,.73,8,1,12.08q-.39-.93-.81-1.86a35.16,35.16,0,0,0-3.5-5.94,26.15,26.15,0,0,0-5.13-5.17,22.45,22.45,0,0,0-6.93-3.53,29.91,29.91,0,0,0-8-1.22v.23a28.32,28.32,0,0,1,7.65,1.63,20.52,20.52,0,0,1,6.26,3.71,26.2,26.2,0,0,1,7.44,10.89,37.29,37.29,0,0,1,1.79,6.13c.47,2.07.83,4.16,1.22,6.24l.06.3a12.15,12.15,0,0,0-4.6-2.8,18.89,18.89,0,0,0-7.22-.8v.23a18.27,18.27,0,0,1,6.58,1.57,9.64,9.64,0,0,1,4.32,3.86c.93,1.59,1.13,3.37,1.61,5.11.31,1.23.57,2.51.85,3.81v1.71h.51l.14,0v0h5.78c.87-3.23,1.61-6.41,2.49-9.54a70.13,70.13,0,0,1,2.88-9.32,24.85,24.85,0,0,1,5.73-8.31,20.12,20.12,0,0,1,10-5.07l-.05-.23a21.48,21.48,0,0,0-11,4.53,27.46,27.46,0,0,0-6.8,8.42q-.42.8-.81,1.59c.08-.38.14-.76.22-1.14,1.3-6.2,2.49-12.43,4.62-18.48a63,63,0,0,1,3.81-8.9,48.71,48.71,0,0,1,5.38-8.34,35.89,35.89,0,0,1,7.61-7.1,31.06,31.06,0,0,1,10.25-4.55Z"/><path class="cls-33" d="M382.26,490.48a32.5,32.5,0,0,0-10.71,4.24,38.25,38.25,0,0,0-8.25,7,51.27,51.27,0,0,0-5.9,8.38,66.88,66.88,0,0,0-4.29,9,90.13,90.13,0,0,0-3.77,11.41c.27-6.24.41-12.49.84-18.73a209.45,209.45,0,0,1,2.67-22.43,96.94,96.94,0,0,1,2.53-11.08,44.94,44.94,0,0,1,4.51-10.64l-.25-.1a45.71,45.71,0,0,0-5.08,10.58,98.91,98.91,0,0,0-3.11,11.06,210.41,210.41,0,0,0-3.53,22.48,219.38,219.38,0,0,0-1.57,22h-1c0-1.19-.09-2.38-.13-3.56-.36-8.91-1.12-17.81-1.62-26.72s-.8-17.81-.92-26.73l0-6.68c0-2.23.09-4.45.13-6.68s.25-4.45.37-6.68a30.88,30.88,0,0,1,.35-3.32L344,450l-.28,0-.58,3.32a31.07,31.07,0,0,0-.49,3.33c-.21,2.22-.56,4.45-.66,6.68s-.32,4.46-.41,6.69l-.26,6.7c-.16,8.93-.11,17.86.07,26.79.18,8.12.33,16.24.89,24.34-.31-2.34-.67-4.68-1-7A123.42,123.42,0,0,0,336.94,503c-2-5.8-4.54-11.59-8.62-16.7l-.24.12c3.72,5.22,5.84,11,7.48,16.85A120,120,0,0,1,339,521c.48,4,.73,8,1,12.08q-.39-.93-.81-1.86a34.89,34.89,0,0,0-3.5-5.94,25.83,25.83,0,0,0-5.12-5.17,22.84,22.84,0,0,0-6.94-3.53,29.84,29.84,0,0,0-8-1.22l0,.23a28.24,28.24,0,0,1,7.65,1.63,20.4,20.4,0,0,1,6.26,3.71A26.23,26.23,0,0,1,337,531.78a36.14,36.14,0,0,1,1.78,6.14c.47,2.06.83,4.15,1.23,6.24,0,.1,0,.2.05.3a12.34,12.34,0,0,0-4.59-2.81,18.91,18.91,0,0,0-7.22-.8v.23a18.48,18.48,0,0,1,6.57,1.57,9.58,9.58,0,0,1,4.32,3.86,20.39,20.39,0,0,1,1.61,5.11c.31,1.23.57,2.51.85,3.82v1.71H348c.87-3.24,1.61-6.41,2.49-9.55a73.71,73.71,0,0,1,2.88-9.32,25,25,0,0,1,5.73-8.31,20.12,20.12,0,0,1,10-5.07l-.05-.22a21.42,21.42,0,0,0-11,4.52,27.52,27.52,0,0,0-6.8,8.43c-.28.52-.54,1-.8,1.58.07-.38.14-.76.22-1.14,1.3-6.2,2.49-12.43,4.61-18.48a64.22,64.22,0,0,1,3.81-8.9,48.17,48.17,0,0,1,5.39-8.34,35.41,35.41,0,0,1,7.61-7.1,31.1,31.1,0,0,1,10.24-4.55Z"/><path class="cls-32" d="M360.58,526.67a25.77,25.77,0,0,1,8.48,3.35,30,30,0,0,1,6.52,5.54,39.83,39.83,0,0,1,4.67,6.63,52.43,52.43,0,0,1,3.4,7.1,72.26,72.26,0,0,1,3,9c-.21-5-.32-9.89-.67-14.83a163.45,163.45,0,0,0-2.11-17.74,76.13,76.13,0,0,0-2-8.77,35.4,35.4,0,0,0-3.57-8.42l.2-.08a36.16,36.16,0,0,1,4,8.37A80.22,80.22,0,0,1,385,525.6a166.44,166.44,0,0,1,2.79,17.79c.64,5.8,1.19,11.61,1.25,17.42h.74c0-.94.08-1.87.11-2.81.28-7,.88-14.09,1.28-21.14s.64-14.1.73-21.15l0-5.29c0-1.76-.07-3.52-.1-5.29s-.2-3.51-.29-5.28c0-.88-.16-1.75-.28-2.63l-.35-2.63.23,0,.46,2.63a26.44,26.44,0,0,1,.38,2.63c.17,1.76.44,3.53.52,5.29s.26,3.53.33,5.3l.2,5.29c.13,7.07.09,14.14-.06,21.2-.14,6.43-.25,12.85-.7,19.27q.38-2.79.84-5.55a96.43,96.43,0,0,1,3.38-14.08,43.86,43.86,0,0,1,6.82-13.21l.19.09a42,42,0,0,0-5.92,13.34,93.71,93.71,0,0,0-2.69,14c-.39,3.18-.58,6.37-.79,9.56.21-.49.42-1,.64-1.47a27.44,27.44,0,0,1,2.77-4.7,20.9,20.9,0,0,1,4.05-4.09,17.89,17.89,0,0,1,5.49-2.79,23.21,23.21,0,0,1,6.32-1v.19a22.24,22.24,0,0,0-6.05,1.28,16,16,0,0,0-4.95,2.94,20.76,20.76,0,0,0-5.9,8.62A29.83,29.83,0,0,0,395,564.2c-.37,1.64-.65,3.28-1,4.94a2.23,2.23,0,0,1,0,.23,9.76,9.76,0,0,1,3.64-2.22,15,15,0,0,1,5.71-.63v.18a14.5,14.5,0,0,0-5.21,1.25,7.51,7.51,0,0,0-3.41,3,16,16,0,0,0-1.28,4c-.24,1-.45,2-.67,3v1.35h-.41l-.11,0v0H387.7c-.69-2.56-1.28-5.07-2-7.55a57,57,0,0,0-2.28-7.37,19.74,19.74,0,0,0-4.54-6.58,15.87,15.87,0,0,0-7.9-4l0-.18a17,17,0,0,1,8.68,3.58,21.79,21.79,0,0,1,5.39,6.67c.22.41.43.83.63,1.25-.06-.3-.11-.6-.17-.9a114.85,114.85,0,0,0-3.65-14.62,50,50,0,0,0-3-7.05,38,38,0,0,0-4.26-6.59,28.14,28.14,0,0,0-6-5.62,24.71,24.71,0,0,0-8.1-3.6Z"/><path class="cls-33" d="M559.62,524.45a25.82,25.82,0,0,1,8.47,3.36,30.11,30.11,0,0,1,6.53,5.54,40.6,40.6,0,0,1,4.67,6.63,52.36,52.36,0,0,1,3.39,7.1,71.1,71.1,0,0,1,3,9c-.22-4.94-.33-9.88-.67-14.82a166,166,0,0,0-2.11-17.74,76.17,76.17,0,0,0-2-8.77,35.36,35.36,0,0,0-3.56-8.42l.2-.08a36.53,36.53,0,0,1,4,8.37,76,76,0,0,1,2.46,8.75,166.47,166.47,0,0,1,2.8,17.79c.64,5.8,1.18,11.6,1.24,17.42h.75c0-.94.07-1.88.11-2.81.28-7.06.88-14.09,1.28-21.14s.63-14.1.72-21.15l0-5.29c0-1.76-.07-3.52-.11-5.29s-.2-3.52-.29-5.28a26,26,0,0,0-.27-2.63l-.35-2.63.22,0,.46,2.63a26.06,26.06,0,0,1,.39,2.63c.17,1.76.44,3.52.52,5.29s.25,3.53.33,5.3l.19,5.29c.14,7.07.09,14.14,0,21.2-.14,6.42-.26,12.85-.7,19.27q.38-2.79.83-5.55a96.47,96.47,0,0,1,3.39-14.08,43.63,43.63,0,0,1,6.82-13.21l.19.09a42.06,42.06,0,0,0-5.92,13.33,95.4,95.4,0,0,0-2.7,14c-.38,3.18-.58,6.37-.78,9.56.2-.49.41-1,.64-1.47a27.06,27.06,0,0,1,2.77-4.7,20.62,20.62,0,0,1,4-4.09,17.8,17.8,0,0,1,5.49-2.8,23.59,23.59,0,0,1,6.32-1v.18a22.78,22.78,0,0,0-6.06,1.29,16.28,16.28,0,0,0-4.95,2.94,20.83,20.83,0,0,0-5.89,8.62,29.83,29.83,0,0,0-1.41,4.85c-.37,1.63-.66,3.28-1,4.93a2,2,0,0,0,0,.24,9.59,9.59,0,0,1,3.63-2.22,15,15,0,0,1,5.71-.63v.18a14.5,14.5,0,0,0-5.2,1.25,7.51,7.51,0,0,0-3.41,3,15.85,15.85,0,0,0-1.28,4c-.25,1-.45,2-.67,3v1.35h-.41l-.11,0v0h-4.57c-.69-2.56-1.27-5.07-2-7.55a57,57,0,0,0-2.28-7.37A19.71,19.71,0,0,0,578,555.7a15.87,15.87,0,0,0-7.91-4l.05-.18a17,17,0,0,1,8.68,3.58,21.61,21.61,0,0,1,5.38,6.67c.22.41.43.83.64,1.25-.06-.3-.11-.6-.17-.9A114.9,114.9,0,0,0,581,547.49a51.15,51.15,0,0,0-3-7,38.54,38.54,0,0,0-4.26-6.59,28.14,28.14,0,0,0-6-5.62,24.76,24.76,0,0,0-8.11-3.6Z"/><path class="cls-32" d="M1132.34,492a15.82,15.82,0,0,1,5.2,2.06,18.4,18.4,0,0,1,4,3.4,24.63,24.63,0,0,1,2.87,4.07,33.44,33.44,0,0,1,2.09,4.36,44.48,44.48,0,0,1,1.83,5.55c-.13-3-.2-6.07-.41-9.11a100.13,100.13,0,0,0-1.3-10.89,45.49,45.49,0,0,0-1.23-5.38,21.42,21.42,0,0,0-2.19-5.17l.13-.05a22.37,22.37,0,0,1,2.46,5.13,48.91,48.91,0,0,1,1.51,5.38,102,102,0,0,1,1.72,10.92,106.67,106.67,0,0,1,.76,10.7h.46c0-.58,0-1.15.07-1.73.17-4.33.54-8.65.78-13s.39-8.66.45-13V482c0-1.09,0-2.17-.06-3.25s-.12-2.16-.18-3.24a14.83,14.83,0,0,0-.17-1.62l-.21-1.61.13,0,.29,1.61c.1.54.19,1.08.24,1.62.1,1.08.26,2.16.31,3.25s.16,2.16.2,3.25l.13,3.25c.08,4.34,0,8.68,0,13-.08,3.94-.15,7.89-.43,11.83.15-1.14.33-2.28.51-3.41a60.68,60.68,0,0,1,2.08-8.64,26.94,26.94,0,0,1,4.19-8.12l.12.06a25.92,25.92,0,0,0-3.64,8.19,57.86,57.86,0,0,0-1.65,8.61c-.24,2-.36,3.91-.49,5.87.13-.3.26-.6.4-.9a17,17,0,0,1,1.7-2.89,12.33,12.33,0,0,1,2.49-2.51,11,11,0,0,1,3.37-1.72,14.41,14.41,0,0,1,3.88-.59v.11a14.08,14.08,0,0,0-3.71.79,9.89,9.89,0,0,0-3,1.81,12.6,12.6,0,0,0-3.62,5.29,18.45,18.45,0,0,0-.87,3c-.23,1-.4,2-.59,3l0,.14a6.09,6.09,0,0,1,2.23-1.36,9.14,9.14,0,0,1,3.51-.39v.11a9.12,9.12,0,0,0-3.2.77,4.68,4.68,0,0,0-2.09,1.87,9.93,9.93,0,0,0-.78,2.48c-.16.6-.28,1.22-.42,1.86v.83H1149c-.42-1.57-.78-3.11-1.21-4.64a32.79,32.79,0,0,0-1.4-4.52,11.9,11.9,0,0,0-2.78-4,9.76,9.76,0,0,0-4.85-2.47l0-.11a10.44,10.44,0,0,1,5.33,2.2,13.37,13.37,0,0,1,3.31,4.1l.39.77c0-.19-.07-.37-.11-.56a70.57,70.57,0,0,0-2.24-9,30.85,30.85,0,0,0-1.85-4.32,23.5,23.5,0,0,0-2.62-4,17.15,17.15,0,0,0-3.69-3.45,15.09,15.09,0,0,0-5-2.21Z"/><path class="cls-33" d="M1201,487.74a15.82,15.82,0,0,0-5.2,2.06,18.4,18.4,0,0,0-4,3.4,24.63,24.63,0,0,0-2.87,4.07,33.44,33.44,0,0,0-2.09,4.36,44.48,44.48,0,0,0-1.83,5.55c.13-3,.2-6.07.41-9.11a100.13,100.13,0,0,1,1.3-10.89,45.49,45.49,0,0,1,1.23-5.38,21.42,21.42,0,0,1,2.19-5.17l-.12-.05a22.28,22.28,0,0,0-2.47,5.14,48.13,48.13,0,0,0-1.51,5.37,102,102,0,0,0-1.72,10.92c-.39,3.56-.72,7.13-.76,10.7h-.46c0-.58,0-1.15-.07-1.73-.17-4.33-.54-8.65-.78-13s-.39-8.66-.45-13v-3.24c0-1.08,0-2.17.06-3.25s.12-2.16.18-3.24a14.83,14.83,0,0,1,.17-1.62l.21-1.61-.13,0-.29,1.61c-.09.54-.19,1.08-.23,1.62-.11,1.08-.27,2.16-.32,3.25s-.16,2.16-.2,3.25l-.13,3.25c-.08,4.34-.05,8.68,0,13,.08,3.94.16,7.89.43,11.83-.15-1.14-.33-2.28-.51-3.41a60.68,60.68,0,0,0-2.08-8.64,27.06,27.06,0,0,0-4.19-8.12l-.12.06a25.92,25.92,0,0,1,3.64,8.19,57.86,57.86,0,0,1,1.65,8.61c.24,1.95.36,3.91.49,5.87-.13-.3-.26-.6-.4-.9a17,17,0,0,0-1.7-2.89,12.33,12.33,0,0,0-2.49-2.51,11,11,0,0,0-3.37-1.72,14.39,14.39,0,0,0-3.87-.59v.11a14.08,14.08,0,0,1,3.71.79,10.06,10.06,0,0,1,3.05,1.81,12.67,12.67,0,0,1,3.61,5.29,17.49,17.49,0,0,1,.87,3c.23,1,.4,2,.6,3a.59.59,0,0,0,0,.14,6.09,6.09,0,0,0-2.23-1.36,9.14,9.14,0,0,0-3.51-.39v.11a9.12,9.12,0,0,1,3.2.77,4.68,4.68,0,0,1,2.09,1.87,10,10,0,0,1,.79,2.48c.15.6.27,1.22.41,1.86v.83h3.13c.42-1.57.78-3.11,1.21-4.64A32.79,32.79,0,0,1,1187,511a11.9,11.9,0,0,1,2.78-4,9.8,9.8,0,0,1,4.86-2.47l0-.11a10.44,10.44,0,0,0-5.33,2.2,13.37,13.37,0,0,0-3.31,4.1l-.39.77c0-.19.07-.37.11-.56a70.57,70.57,0,0,1,2.24-9,30.85,30.85,0,0,1,1.85-4.32,23.5,23.5,0,0,1,2.62-4.05,17.4,17.4,0,0,1,3.69-3.45,15.3,15.3,0,0,1,5-2.21Z"/></g><g id="bp-plains-front"><path class="cls-55" d="M578,710.3c-.13,19.75-102.31,19.74-102.42,0C475.71,690.56,577.89,690.56,578,710.3Z"/><path class="cls-56" d="M562.63,707.61c-.09,6.72-69.49,6.72-69.57,0C493.14,700.89,562.55,700.89,562.63,707.61Z"/><path class="cls-7" d="M485.36,712.86a10.83,10.83,0,0,1-2.8-1.9,4.31,4.31,0,0,1-1-1.47,2.91,2.91,0,0,1-.13-1.89,5.79,5.79,0,0,1,2.21-2.88,16.77,16.77,0,0,1,3-1.75,54.78,54.78,0,0,1,13-3.78,107.13,107.13,0,0,1,13.35-1.5,96.52,96.52,0,0,1,13.39.19c-4.44.4-8.86.81-13.27,1.32s-8.79,1.09-13.13,1.89c-2.17.37-4.33.82-6.46,1.34a48.74,48.74,0,0,0-6.26,1.91,18.75,18.75,0,0,0-2.88,1.41,4.91,4.91,0,0,0-2,2.12,2.78,2.78,0,0,0,.65,2.74A12.55,12.55,0,0,0,485.36,712.86Z"/><path class="cls-7" d="M574.4,707.8a3.94,3.94,0,0,0-1.82-2.63,14,14,0,0,0-2.92-1.52,45.18,45.18,0,0,0-6.4-1.87c-4.36-1-8.8-1.62-13.26-2.17s-8.93-1-13.42-1.4l-13.5-1.13a120.81,120.81,0,0,1,13.59-.37c4.53.1,9.06.44,13.57,1a90.32,90.32,0,0,1,13.39,2.64,36.61,36.61,0,0,1,6.43,2.47,13.56,13.56,0,0,1,2.86,2A4,4,0,0,1,574.4,707.8Z"/><path class="cls-8" d="M572,709.55a3.32,3.32,0,0,0-1-2.14,8.56,8.56,0,0,0-2-1.4,23,23,0,0,0-4.58-1.73,70.09,70.09,0,0,0-9.67-1.92c-3.26-.51-6.55-.83-9.83-1.13-1.65-.16-3.3-.28-4.95-.39s-3.3-.22-5-.33a94.54,94.54,0,0,1,10,0c3.31.15,6.62.47,9.92.91a62.93,62.93,0,0,1,9.75,2.17,23.49,23.49,0,0,1,4.59,2,8.65,8.65,0,0,1,1.93,1.64A3.23,3.23,0,0,1,572,709.55Z"/><path class="cls-9" d="M533.21,700.51c-3.31.2-6.62.39-9.92.63s-6.6.5-9.89.89-6.56.77-9.82,1.31c-1.63.27-3.25.58-4.85,1a42,42,0,0,0-4.78,1.36,42.41,42.41,0,0,1,9.49-3.06c3.26-.7,6.56-1.15,9.86-1.54s6.63-.57,10-.66S529.9,700.31,533.21,700.51Z"/><path class="cls-57" d="M525.87,708.06c5.19,4.93-1,11.31-6.09,6.26-2.59-2.47-3.94-6.78-2.4-8.36S523.34,705.54,525.87,708.06Z"/><path class="cls-58" d="M542.68,711.76c-2.5,6.7-10.8,3.51-8.16-3.14,1.25-3.35,4.79-6.32,6.84-5.53S544,708.43,542.68,711.76Z"/><path class="cls-59" d="M535.54,707.65c4.19,5.8-3.08,10.93-7.14,5-2.12-2.94-2.53-7.24-.68-8.49S533.54,704.74,535.54,707.65Z"/><path class="cls-60" d="M550.67,711.82c-4.1,5.86-11.33.68-7.1-5.09,2-2.87,6.18-5.05,8-3.84S552.83,708.88,550.67,711.82Z"/><path class="cls-13" d="M544.87,707.63a.19.19,0,0,1-.31-.22C544.7,707.21,545,707.44,544.87,707.63Z"/><path class="cls-13" d="M544.88,710.32c-.14.2-.45,0-.3-.21S545,710.13,544.88,710.32Z"/><path class="cls-13" d="M545.23,713.54a.32.32,0,0,1-.52-.38C544.94,712.82,545.48,713.2,545.23,713.54Z"/><path class="cls-13" d="M547.25,713a.1.1,0,0,1-.17-.12C547.15,712.78,547.33,712.91,547.25,713Z"/><path class="cls-13" d="M548.49,712c-.08.12-.26,0-.18-.13S548.58,711.86,548.49,712Z"/><path class="cls-13" d="M550.12,711.62c-.1.14-.33,0-.22-.16S550.22,711.48,550.12,711.62Z"/><path class="cls-13" d="M546,711.73a.24.24,0,0,1-.38-.28A.24.24,0,0,1,546,711.73Z"/><path class="cls-13" d="M543.36,711.1c-.19.26-.6,0-.41-.29S543.55,710.84,543.36,711.1Z"/><path class="cls-55" d="M564.88,706.89c2,1.69.33,10.56.33,10.56l-72.74.7s-1.85-8.61,0-10.46C511.05,715.09,548.34,713.26,564.88,706.89Z"/><path class="cls-9" d="M576.18,707.8a5.21,5.21,0,0,1-1,3.39,12.28,12.28,0,0,1-2.49,2.6,27.26,27.26,0,0,1-6.26,3.43A68.52,68.52,0,0,1,552.82,721a113.77,113.77,0,0,1-14,1.56,106.25,106.25,0,0,1-14.05-.18q7-.57,13.93-1.32c4.62-.54,9.22-1.13,13.78-2a94.12,94.12,0,0,0,13.45-3.24,31.55,31.55,0,0,0,6.24-2.8,11.53,11.53,0,0,0,2.63-2.14A5.48,5.48,0,0,0,576.18,707.8Z"/><path class="cls-9" d="M477.83,708.75c.27,2.17,1.83,3.74,3.5,4.91a26.65,26.65,0,0,0,5.51,2.86A75.52,75.52,0,0,0,499,720c2.06.45,4.14.81,6.23,1.15s4.18.63,6.28.92c4.21.55,8.45,1,12.72,1.43a80.16,80.16,0,0,1-12.87.29,85.44,85.44,0,0,1-12.82-1.62,54.08,54.08,0,0,1-12.35-4,22.75,22.75,0,0,1-5.5-3.59,10.43,10.43,0,0,1-2.09-2.58A5.42,5.42,0,0,1,477.83,708.75Z"/><path class="cls-7" d="M488.75,709.55a2.7,2.7,0,0,0,1.42,1.76,11.06,11.06,0,0,0,2.13,1,37.73,37.73,0,0,0,4.58,1.24c3.12.64,6.28,1.12,9.45,1.51s6.36.73,9.56,1.06,6.4.61,9.63,1a71.76,71.76,0,0,1-9.72.48,85.43,85.43,0,0,1-9.71-.65,59.23,59.23,0,0,1-9.58-2,25.84,25.84,0,0,1-4.59-1.83,10.37,10.37,0,0,1-2.07-1.41,4.69,4.69,0,0,1-.81-1A2.19,2.19,0,0,1,488.75,709.55Z"/><path class="cls-7" d="M570,708.27a3.15,3.15,0,0,1-1.48,2.41,13.07,13.07,0,0,1-2.54,1.46A38.51,38.51,0,0,1,560.4,714,92.38,92.38,0,0,1,549,716c-3.84.41-7.7.72-11.56.85q-2.89.09-5.79.09c-1.93,0-3.86,0-5.79-.16,3.86-.2,7.7-.39,11.54-.67s7.68-.59,11.49-1.07a111.71,111.71,0,0,0,11.38-1.78,37.21,37.21,0,0,0,5.51-1.55,13.17,13.17,0,0,0,2.57-1.22A3.22,3.22,0,0,0,570,708.27Z"/><path class="cls-8" d="M494.86,711.47a8.54,8.54,0,0,1-2.82-1,3.7,3.7,0,0,1-2-2.53,2.42,2.42,0,0,1,.44-1.69,4.06,4.06,0,0,1,1.17-1.1,7.48,7.48,0,0,1,2.84-1,18.41,18.41,0,0,0-2.39,1.6,2.46,2.46,0,0,0-1.1,2.06,3.46,3.46,0,0,0,1.43,2C493.2,710.42,494,710.92,494.86,711.47Z"/><path class="cls-8" d="M487.73,714.12a124,124,0,0,0,19.82,4.29,114.92,114.92,0,0,0,20.23.66A187.76,187.76,0,0,0,548,717c3.34-.54,6.68-1.07,10-1.72s6.65-1.31,10-1.93c-6.56,1.71-13.19,3.19-19.87,4.38A170.09,170.09,0,0,1,527.83,720a109.2,109.2,0,0,1-20.37-.9,98.85,98.85,0,0,1-10-2C494.16,716.29,490.93,715.25,487.73,714.12Z"/><path class="cls-8" d="M497.81,709.55a150.34,150.34,0,0,0,15,2q7.53.59,15.08.5c5,0,10.05-.32,15.07-.76s10-1.07,15.07-1.75a100.68,100.68,0,0,1-14.89,3.3,110.88,110.88,0,0,1-15.23,1.21,105.44,105.44,0,0,1-15.27-1A73.84,73.84,0,0,1,497.81,709.55Z"/><g id="bp-kea-1"><g id="bp-kea-tail-1"><path class="cls-16" d="M468.35,703.19l-6.17-4.83c-2.06-1.57-4-3.3-6.12-4.78a48.83,48.83,0,0,0-6.69-4,41.4,41.4,0,0,0-7.28-2.82l0-.17a41.69,41.69,0,0,1,7.61,2.16,49.8,49.8,0,0,1,7.11,3.58,38.84,38.84,0,0,1,6.5,4.61,28.89,28.89,0,0,1,5.14,6.09Z"/><path class="cls-17" d="M469.75,704.28c-2.47-1.18-4.82-2.5-7.15-3.83s-4.53-2.89-6.87-4.22a66.15,66.15,0,0,0-7.16-3.67,31,31,0,0,0-7.64-2.46l0-.18a32.21,32.21,0,0,1,8,1.8,71,71,0,0,1,7.51,3.23,53.47,53.47,0,0,1,7.14,4,40.16,40.16,0,0,1,6.3,5.22Z"/><path class="cls-18" d="M447.12,697a54,54,0,0,1,6.47.4,44.41,44.41,0,0,1,6.39,1.3,20,20,0,0,1,6.11,2.54,11.46,11.46,0,0,1,4.32,5l-.15.1a25.86,25.86,0,0,0-5.11-3.59,44.74,44.74,0,0,0-5.62-2.7,42.31,42.31,0,0,0-6.1-1.79,51.89,51.89,0,0,0-6.32-1.11Z"/><path class="cls-18" d="M467.1,703.08c-1.81-1.18-3.51-2.39-5.24-3.57s-3.33-2.49-5.11-3.59a37.15,37.15,0,0,0-5.57-2.88,33.46,33.46,0,0,0-6-1.94l0-.18a33.25,33.25,0,0,1,6.29,1.27,37.91,37.91,0,0,1,6,2.47,27.18,27.18,0,0,1,5.5,3.42,20,20,0,0,1,4.28,4.88Z"/><path class="cls-16" d="M468.26,703.91c-2.12-.78-4.11-1.72-6.09-2.68s-3.82-2.15-5.78-3.13a55.37,55.37,0,0,0-6-2.65A26.7,26.7,0,0,0,444,693.8v-.18a27,27,0,0,1,6.62,1,54,54,0,0,1,6.34,2.2,38.13,38.13,0,0,1,6.06,2.86,28,28,0,0,1,5.31,4.11Z"/><path class="cls-17" d="M449,699.07a45.63,45.63,0,0,1,5.36,0,40.75,40.75,0,0,1,5.36.7c.89.15,1.77.4,2.67.62a12.12,12.12,0,0,1,2.54,1.1,8.49,8.49,0,0,1,3.77,4l-.13.09a17.44,17.44,0,0,0-4.38-2.68,38.06,38.06,0,0,0-4.78-1.9,37,37,0,0,0-5.13-1.14c-1.74-.3-3.51-.5-5.28-.63Z"/></g><path class="cls-61" d="M527.09,685.23a6.9,6.9,0,0,0-7.4.07c-1.77,1.13-6.2,6.44-6.2,6.44A53,53,0,0,0,500.63,690a76.5,76.5,0,0,0-20.17,4.18c-2.91,1.17-10.79,4.47-14.33,5.67a2.5,2.5,0,0,0-1.25,3.24,58.09,58.09,0,0,0,7.76,9.81c3.43,3.09,12.41,8.34,16.53,8.23,1.92,0,27.73-8,34.57-14.38,2.79-2.6,2.29-12.43,2.29-12.43h3.53l4.28-3.63A77.55,77.55,0,0,0,527.09,685.23Z"/><path class="cls-20" d="M513.75,699.89a33.86,33.86,0,0,1-3.83,2l-.12-.49c.76,0,1.52,0,2.27,0s1.52.06,2.28.15c-.76.13-1.51.2-2.27.26s-1.51.09-2.26.11l-1.33,0,1.22-.52A33.78,33.78,0,0,1,513.75,699.89Z"/><path class="cls-21" d="M502.36,706.26a37.5,37.5,0,0,1-3.49,2.3l-.14-.47c.88,0,1.76,0,2.65,0s1.76.05,2.64.15c-.88.14-1.76.21-2.63.28s-1.76.1-2.64.1h-1l.86-.48A39.61,39.61,0,0,1,502.36,706.26Z"/><path class="cls-20" d="M495.32,691.19a29,29,0,0,1-3.39,1.59l-.1-.49c.78,0,1.56,0,2.33,0s1.56.06,2.34.16c-.77.14-1.55.2-2.32.27s-1.56.09-2.34.1h-1.46l1.36-.5A31.6,31.6,0,0,1,495.32,691.19Z"/><path class="cls-22" d="M484.78,695.82a59.56,59.56,0,0,1-5.34,3.35l-.21-.66a67.53,67.53,0,0,1,8.18-.5,63.7,63.7,0,0,1-8.11,1.2l-1.75.17,1.55-.83A59.35,59.35,0,0,1,484.78,695.82Z"/><path class="cls-23" d="M485.38,704.21a63.8,63.8,0,0,1-5.77,3.46l-.13-.67a65.19,65.19,0,0,1,7.84,1,67.07,67.07,0,0,1-7.9-.31l-1.22-.11,1.08-.56A63.7,63.7,0,0,1,485.38,704.21Z"/><path class="cls-24" d="M493.11,700.87a38.81,38.81,0,0,1-3.58,2.3l-.12-.47c.84,0,1.68,0,2.51.1s1.68.13,2.51.27c-.84.09-1.68.12-2.52.15s-1.67,0-2.51,0l-.93,0,.81-.44A36.6,36.6,0,0,1,493.11,700.87Z"/><path class="cls-23" d="M504,711.41a41.63,41.63,0,0,1-4.23,2.78l-.16-.57a48.9,48.9,0,0,1,6.4.15,47.13,47.13,0,0,1-6.39.47l-1.22,0,1.06-.6A44.54,44.54,0,0,1,504,711.41Z"/><path class="cls-22" d="M499.74,695.14c-.87.46-1.76.85-2.65,1.25s-1.8.75-2.71,1.1l-.08-.49a53.55,53.55,0,0,1,5.5.52c-1.85.1-3.69.06-5.52,0l-1.24,0,1.16-.45c.91-.35,1.82-.69,2.74-1S498.79,695.39,499.74,695.14Z"/><path class="cls-22" d="M477.83,701a60.41,60.41,0,0,1-5.34,3.35l-.21-.66a63.93,63.93,0,0,1,8.18-.5,65.66,65.66,0,0,1-8.1,1.2l-1.76.17,1.55-.83A61.74,61.74,0,0,1,477.83,701Z"/><path class="cls-24" d="M482.48,709.4a60.28,60.28,0,0,1-5.69,3.58l-.15-.66a63.15,63.15,0,0,1,7.86.85,67.12,67.12,0,0,1-7.9-.14l-1.23-.08,1.07-.59A63.68,63.68,0,0,1,482.48,709.4Z"/><path class="cls-23" d="M493.83,707.43a37.37,37.37,0,0,1-3.57,2.3l-.13-.47c.86,0,1.72,0,2.58,0s1.73,0,2.59.15c-.86.13-1.72.2-2.58.27s-1.72.1-2.58.11h-1l.89-.49A37.43,37.43,0,0,1,493.83,707.43Z"/><path class="cls-22" d="M492.19,713.25a64.69,64.69,0,0,1-5.64,3.66l-.16-.67a65.09,65.09,0,0,1,7.87.76,65.21,65.21,0,0,1-7.91,0l-1.22-.06,1.06-.6A62.47,62.47,0,0,1,492.19,713.25Z"/><path class="cls-24" d="M508,695.49a39.5,39.5,0,0,1-3.86,1.77l-.07-.49c.86.09,1.71.21,2.57.34s1.7.3,2.54.52c-.87,0-1.73,0-2.59-.09s-1.72-.16-2.58-.27l-1-.13.95-.36A38.12,38.12,0,0,1,508,695.49Z"/><path class="cls-23" d="M504.1,700.23a36.72,36.72,0,0,1-3.67,2.16l-.11-.48c.86,0,1.72,0,2.58.08s1.72.13,2.58.26c-.86.1-1.72.13-2.58.17s-1.73,0-2.59,0l-1,0,.91-.45A38.7,38.7,0,0,1,504.1,700.23Z"/><path class="cls-20" d="M524,696.54a22,22,0,0,1-1.54,2.38l-.22-.24a23.71,23.71,0,0,1,2.63-1.41,22.78,22.78,0,0,1-2.45,1.7l-.79.5.56-.74A21,21,0,0,1,524,696.54Z"/><path class="cls-21" d="M518.17,699.74a24.61,24.61,0,0,1-1.24,2.46l-.22-.22c.48-.32,1-.6,1.49-.89s1-.56,1.56-.79c-.46.37-.94.7-1.41,1s-1,.63-1.47.92l-.54.31.31-.53A24.55,24.55,0,0,1,518.17,699.74Z"/><path class="cls-23" d="M520.92,703.09a22.57,22.57,0,0,1-1.23,2.46l-.23-.22c.49-.31,1-.59,1.5-.89s1-.55,1.55-.78c-.45.37-.93.69-1.41,1s-1,.63-1.47.92l-.54.31.32-.53A24.6,24.6,0,0,1,520.92,703.09Z"/><path class="cls-22" d="M506.43,691.25a37.73,37.73,0,0,1-3.76.84v-.33c1.17.31,2.34.61,3.48,1a36.15,36.15,0,0,1-3.56-.71l-.83-.19.84-.14C503.88,691.55,505.14,691.33,506.43,691.25Z"/><path class="cls-24" d="M517.85,691.73a24.68,24.68,0,0,1-1.62,2.28l-.19-.25a25.43,25.43,0,0,1,3.19-1.19,27,27,0,0,1-3.06,1.49l-.62.27.43-.52A24.55,24.55,0,0,1,517.85,691.73Z"/><path class="cls-23" d="M518.49,695.49a26.26,26.26,0,0,1-1.38,2.43l-.22-.23a26.19,26.19,0,0,1,3.05-1.51,26.25,26.25,0,0,1-2.89,1.8l-.59.33.37-.56A24.28,24.28,0,0,1,518.49,695.49Z"/><path class="cls-21" d="M514,708a36.06,36.06,0,0,1-2.86,3.06l-.24-.43c.85-.24,1.7-.45,2.56-.65s1.73-.36,2.61-.47c-.82.34-1.66.61-2.5.89s-1.69.5-2.54.72l-1,.24.73-.67A39.39,39.39,0,0,1,514,708Z"/><path class="cls-23" d="M511.48,703.87a37.15,37.15,0,0,1-3.19,2.71l-.19-.45c.59-.1,1.19-.17,1.79-.23a15.68,15.68,0,0,1,1.82,0,15.82,15.82,0,0,1-1.76.48q-.88.18-1.77.3l-1,.12.79-.57A37.63,37.63,0,0,1,511.48,703.87Z"/><path class="cls-25" d="M529.09,689.87c-.28,1.38-1.6,1.65-4.15.8s-6.69-.16-6.41-1.54,2.63-2.65,6-2.56C527.37,686.64,529.37,688.5,529.09,689.87Z"/><ellipse class="cls-26" cx="527.2" cy="689.33" rx="0.95" ry="1.3" transform="translate(-298.97 954.95) rotate(-70.41)"/><ellipse class="cls-27" cx="527.17" cy="689.22" rx="0.77" ry="1.23" transform="translate(-291.63 976.45) rotate(-71.92)"/><ellipse class="cls-28" cx="527.2" cy="689.23" rx="0.32" ry="0.35" transform="translate(-291.62 976.49) rotate(-71.92)"/><path class="cls-29" d="M532.42,691.53q-1.47-1.11-3-2.16a21.32,21.32,0,0,0-3-1.89,4.23,4.23,0,0,0-1.65-.15l-1.78.14c-1.2.07-2.41.15-3.67.1l0-.1a12.58,12.58,0,0,1,3.58-1.05,9.18,9.18,0,0,1,1.89-.07,5.6,5.6,0,0,1,2,.41,19.83,19.83,0,0,1,3,2.23c.94.8,1.85,1.62,2.75,2.46Z"/><path class="cls-30" d="M539.32,695.94l-5.48-5.25s-3.63.7-5,2c-.4.36.5,1.44.76,1.66C533.75,694.14,539.32,695.94,539.32,695.94Z"/><path class="cls-31" d="M534.21,691.91a3.19,3.19,0,0,1,.82.49.49.49,0,1,1-.16.2A3.61,3.61,0,0,1,534.21,691.91Z"/></g><path class="cls-3" d="M1438.49,690.16c-81.61,30.92-158-77.51-60.73-115.07C1459.36,544.17,1535.76,652.6,1438.49,690.16Z"/><path class="cls-3" d="M1485.46,611.38c-58.21,22.06-112.7-55.28-43.32-82.07C1500.35,507.26,1554.84,584.6,1485.46,611.38Z"/><path class="cls-3" d="M1344,677c-70.88,26.85-137.22-67.31-52.74-99.92C1362.11,550.2,1428.45,644.37,1344,677Z"/><path class="cls-3" d="M1410,614.65c-51.24,19.41-99.2-48.67-38.13-72.24C1423.1,523,1471.06,591.07,1410,614.65Z"/><path class="cls-4" d="M1361.94,646.05c-70.86,3.35-97.32-48.38-12.65-52.64C1420.15,590.06,1446.61,641.79,1361.94,646.05Z"/><path class="cls-3" d="M1447.83,655.77c-46.31-101.26,141.18-144.32,179.61-60.43C1673.75,696.59,1486.26,739.65,1447.83,655.77Z"/><path class="cls-4" d="M1559.83,675.41c-58.63,22.22-113.52-55.69-43.63-82.67C1574.83,570.53,1629.72,648.43,1559.83,675.41Z"/><path class="cls-4" d="M1463,649c-60.92,23.08-117.94-57.86-45.33-85.89C1478.59,540,1535.61,621,1463,649Z"/><path class="cls-3" d="M1575.2,651.43c-39.66-86.72,120.9-123.59,153.81-51.75C1768.67,686.39,1608.11,723.26,1575.2,651.43Z"/><path class="cls-4" d="M1600.71,644c-97.09-29,31.09-70.94,74.86-55.18C1772.66,617.79,1644.49,659.77,1600.71,644Z"/><path class="cls-33" d="M1370.53,650.55a39.94,39.94,0,0,0-13.11,5.19,47.18,47.18,0,0,0-10.11,8.57,62.56,62.56,0,0,0-7.22,10.27,81.71,81.71,0,0,0-5.26,11,111.55,111.55,0,0,0-4.62,14c.33-7.65.5-15.3,1-22.94a257.42,257.42,0,0,1,3.28-27.48,116.52,116.52,0,0,1,3.1-13.56,54.71,54.71,0,0,1,5.51-13l-.3-.13a56,56,0,0,0-6.22,13,122.06,122.06,0,0,0-3.81,13.55,260.94,260.94,0,0,0-4.33,27.54c-1,9-1.83,18-1.92,27h-1.16c-.05-1.45-.11-2.9-.16-4.36-.44-10.91-1.37-21.81-2-32.71s-1-21.83-1.13-32.74l0-8.19c0-2.73.12-5.45.16-8.18s.31-5.45.46-8.17a40,40,0,0,1,.42-4.08l.54-4.07-.34,0-.72,4.06c-.24,1.36-.48,2.72-.6,4.08-.25,2.73-.67,5.45-.8,8.18s-.39,5.47-.5,8.2l-.31,8.2c-.21,10.94-.14,21.88.08,32.81.22,9.94.4,19.89,1.09,29.82q-.58-4.31-1.29-8.59a149.7,149.7,0,0,0-5.24-21.78c-2.49-7.12-5.56-14.21-10.56-20.46l-.3.15c4.57,6.39,7.16,13.51,9.17,20.63a146.12,146.12,0,0,1,4.17,21.71c.6,4.93.9,9.86,1.22,14.8-.32-.76-.65-1.52-1-2.27a41.86,41.86,0,0,0-4.28-7.29,32.15,32.15,0,0,0-6.28-6.33,27.88,27.88,0,0,0-8.49-4.32,36.59,36.59,0,0,0-9.78-1.49v.29a34.66,34.66,0,0,1,9.36,2,25.23,25.23,0,0,1,7.67,4.55,32.13,32.13,0,0,1,9.12,13.34,45.62,45.62,0,0,1,2.18,7.51c.58,2.54,1,5.09,1.51,7.64l.06.37a15.13,15.13,0,0,0-5.63-3.44,23.14,23.14,0,0,0-8.84-1v.28a22.4,22.4,0,0,1,8.06,1.92,11.83,11.83,0,0,1,5.28,4.72c1.14,2,1.39,4.14,2,6.26.39,1.51.71,3.08,1,4.68v2.09h.63l.17,0v0h7.07c1.07-4,2-7.85,3-11.69s1.91-7.71,3.53-11.41a30.46,30.46,0,0,1,7-10.18,24.55,24.55,0,0,1,12.24-6.21l-.07-.27a26.23,26.23,0,0,0-13.44,5.54,33.78,33.78,0,0,0-8.34,10.32c-.33.64-.66,1.29-1,1.94.09-.47.17-.93.27-1.4,1.59-7.59,3.05-15.22,5.65-22.63a77.71,77.71,0,0,1,4.67-10.9,58.77,58.77,0,0,1,6.59-10.21,43.8,43.8,0,0,1,9.32-8.7,38.13,38.13,0,0,1,12.55-5.58Z"/><line class="cls-62" x1="1053.1" y1="323.25" x2="915.68" y2="583.51"/><line class="cls-63" x1="811.78" y1="356.78" x2="912.63" y2="480.84"/><path class="cls-35" d="M941.63,308q-.68,15-.92,30.07c-.19,10-.26,20-.29,30.08,0,20.05.22,40.1.63,60.15q1.37,60.15,4.86,120.3t9,120.3c1.9,20.05,4,40.1,6.36,60.15,1.21,10,2.46,20,3.83,30.07s2.83,20.05,4.48,30.08h-107q2.48-15,4.48-30.08c1.37-10,2.61-20,3.83-30.07,2.38-20.05,4.46-40.1,6.36-60.15q5.64-60.15,9-120.3t4.86-120.3c.41-20.05.67-40.1.63-60.15,0-10-.1-20.05-.3-30.08s-.46-20.05-.92-30.07Z"/><path class="cls-64" d="M840.75,293.52c-.57,137,427.19,137,426.58,0C1267.9,156.54,840.14,156.56,840.75,293.52Z"/><path class="cls-64" d="M779.8,204.6c-.56,137,427.2,137,426.59,0C1207,67.61,779.19,67.63,779.8,204.6Z"/><path class="cls-64" d="M633,295.32c-.56,137,427.2,137,426.59,0C1060.12,158.34,632.36,158.36,633,295.32Z"/><path class="cls-65" d="M846.26,204.6c-.51,81.73,387.84,81.72,387.29,0C1234.06,122.86,845.71,122.87,846.26,204.6Z"/><path class="cls-14" d="M871.73,829.45c44,15.08,97.08.43,118.61-32.73,49.74-92.21-122.23-124.05-159.26-54.62C809.55,775.25,827.75,814.36,871.73,829.45Z"/><path class="cls-14" d="M803.78,763.49c31.37,10.77,69.24.32,84.6-23.34,35.48-65.77-87.18-88.48-113.6-39C759.42,724.84,772.41,752.73,803.78,763.49Z"/><path class="cls-14" d="M979.9,811.44c38.2,13.1,84.31.37,103-28.42,43.2-80.08-106.14-107.73-138.31-47.44C925.9,764.37,941.71,798.33,979.9,811.44Z"/><path class="cls-14" d="M924.62,771.56c34,5.27,69.5-9,79.33-31.89,20.1-62.67-108.22-66.22-123.05-19.08C871.06,743.47,890.64,766.29,924.62,771.56Z"/><path class="cls-15" d="M964.3,798.48c28.62,9.82,63.17.29,77.17-21.29,32.37-60-79.52-80.71-103.62-35.54C923.84,763.22,935.68,788.67,964.3,798.48Z"/><path class="cls-14" d="M844.63,811.88C904.27,700.28,684,657.67,639.87,741.65,580.23,853.25,800.5,895.86,844.63,811.88Z"/><path class="cls-15" d="M713.25,828.94c31.6,10.84,69.76.31,85.22-23.51,35.75-66.25-87.81-89.13-114.42-39.25C668.58,790,681.66,818.1,713.25,828.94Z"/><path class="cls-15" d="M821.63,794.27c32.83,11.26,72.47.33,88.54-24.43,37.13-68.82-91.23-92.59-118.88-40.77C775.22,753.82,788.81,783,821.63,794.27Z"/><path class="cls-14" d="M697,803C748,707.39,559.38,670.9,521.59,742.82,470.52,838.38,659.15,874.87,697,803Z"/><path class="cls-15" d="M667.78,794.22c115-27.8-33.16-76.5-83.41-61.11C469.35,760.9,617.53,809.6,667.78,794.22Z"/><path class="cls-3" d="M297.24,840.68c56.3,16,124.29.46,151.85-34.58,63.69-97.46-156.48-131.11-203.9-57.74C217.63,783.4,240.93,824.74,297.24,840.68Z"/><path class="cls-3" d="M233.87,750.63C274,762,322.52,751,342.18,726c45.43-69.52-111.61-93.52-145.44-41.18C177.08,709.77,193.7,739.25,233.87,750.63Z"/><path class="cls-3" d="M413.79,817.28c48.9,13.85,107.94.4,131.87-30C601,702.62,409.77,673.39,368.59,737.11,344.65,767.54,364.89,803.44,413.79,817.28Z"/><path class="cls-3" d="M345.84,757c35.35,10,78,.29,95.34-21.72,40-61.18-98.24-82.31-128-36.24C295.86,721,310.49,747,345.84,757Z"/><path class="cls-66" d="M397.63,810.87c36.63,10.37,80.87.3,98.8-22.5C537.87,725,394.62,703.06,363.76,750.8,345.83,773.6,361,800.5,397.63,810.87Z"/><path class="cls-3" d="M286.17,801.77c76.35-118-205.65-163-262.15-74.23C-52.33,845.49,229.67,890.52,286.17,801.77Z"/><path class="cls-66" d="M118,819.79c40.46,11.46,89.31.33,109.11-24.85,45.76-70-112.43-94.19-146.5-41.48C60.78,778.64,77.52,808.34,118,819.79Z"/><path class="cls-66" d="M264.16,793.63c42,11.9,92.78.34,113.35-25.82,47.54-72.75-116.8-97.87-152.2-43.09C204.74,750.87,222.13,781.73,264.16,793.63Z"/><path class="cls-3" d="M97.09,792.34c65.38-101-176.12-139.58-224.5-63.57C-192.8,829.78,48.71,868.34,97.09,792.34Z"/><path class="cls-66" d="M104,802.21C288.38,768.71,47.85,694.88-32.59,714-216.95,747.5,23.58,821.34,104,802.21Z"/><path class="cls-14" d="M149.56,982.71C-7.33,1027.19-153.53,871.08,33,817.19,189.89,772.72,336.1,928.82,149.56,982.71Z"/><path class="cls-14" d="M239.71,869.4C127.8,901.12,23.52,789.77,156.58,751.33,268.48,719.61,372.77,831,239.71,869.4Z"/><path class="cls-14" d="M1.64,949.17c-136.25,38.62-263.22-96.94-101.22-143.74C36.66,766.81,163.63,902.37,1.64,949.17Z"/><path class="cls-14" d="M94.87,874.09C-3.63,902-95.43,804,21.69,770.17,120.19,742.25,212,840.26,94.87,874.09Z"/><path class="cls-15" d="M23.07,941.46C-79,970.4-174.15,868.83-52.77,833.76,49.31,804.83,144.44,906.4,23.07,941.46Z"/><path class="cls-67" d="M167.49,933.24C78.58,787.79,438.2,725.5,512.22,846.32,601.13,991.76,241.52,1054.05,167.49,933.24Z"/><path class="cls-15" d="M196.62,923.5C79.51,956.7-29.62,840.18,109.62,800,226.73,766.75,335.86,883.28,196.62,923.5Z"/><path class="cls-67" d="M412,927c-76.14-124.56,231.83-177.91,295.22-74.44C783.32,977.11,475.35,1030.46,412,927Z"/><path class="cls-15" d="M460.92,916.32c-186.31-41.64,59.52-102,143.68-79.36C790.91,878.59,545.09,939,460.92,916.32Z"/><path class="cls-15" d="M382.46,961.5c-112.72,32-217.77-80.2-83.74-118.92C411.44,810.63,516.48,922.78,382.46,961.5Z"/><path class="cls-14" d="M1174.24,847.89c-60.32-131.89,183.88-188,233.94-78.71C1468.49,901.06,1224.29,957.14,1174.24,847.89Z"/><path class="cls-14" d="M1335.48,848.88c-82-147,319.36-166.28,360.26-80.69C1777.73,915.14,1376.39,934.45,1335.48,848.88Z"/><path class="cls-14" d="M1490.61,820.59c-101.51,37.88-201.5-94.32-77.22-141.44C1514.9,641.28,1614.89,773.48,1490.61,820.59Z"/><path class="cls-15" d="M1329.18,853.29c-55.79-4-88.91-32-74-62.48,16.6-58.23,229.08-72.95,202,14.45C1442.3,835.77,1385,857.28,1329.18,853.29Z"/><path class="cls-37" d="M1180.7,931.75l96.55-61.85,89.44-32.49,111.63,8.6,94.74,69.74,57.55,156.58c-226.43,29.11-226.68,44.43-451.55-24.75Z"/><path class="cls-68" d="M1711.93,1047.58l-81.32,24.75L1566.1,919.86,1478.32,846C1632.64,925.11,1616.69,897.9,1711.93,1047.58Z"/><path class="cls-69" d="M1731.91,893.32c-.13,19.74-102.31,19.74-102.43,0C1629.61,873.57,1731.79,873.58,1731.91,893.32Z"/><path class="cls-70" d="M1716.53,890.63c-.09,6.71-69.5,6.71-69.58,0C1647,883.91,1716.45,883.91,1716.53,890.63Z"/><path class="cls-7" d="M1639.26,895.87a10.87,10.87,0,0,1-2.8-1.89,4.4,4.4,0,0,1-1-1.47,2.94,2.94,0,0,1-.13-1.9,5.77,5.77,0,0,1,2.21-2.87,17.1,17.1,0,0,1,3-1.76,54.86,54.86,0,0,1,13-3.78,108.88,108.88,0,0,1,13.34-1.49,95.11,95.11,0,0,1,13.4.18c-4.45.41-8.87.81-13.27,1.32s-8.79,1.1-13.13,1.89c-2.18.38-4.34.82-6.47,1.35a47.66,47.66,0,0,0-6.26,1.91,18.19,18.19,0,0,0-2.87,1.41,4.81,4.81,0,0,0-2,2.12,2.78,2.78,0,0,0,.65,2.74A12.83,12.83,0,0,0,1639.26,895.87Z"/><path class="cls-7" d="M1728.3,890.82a4,4,0,0,0-1.82-2.63,14.46,14.46,0,0,0-2.92-1.52,45.57,45.57,0,0,0-6.4-1.87c-4.37-1-8.81-1.63-13.26-2.18s-8.93-1-13.42-1.39L1677,880.1a120.64,120.64,0,0,1,13.58-.38c4.54.11,9.07.45,13.58,1a87.82,87.82,0,0,1,13.39,2.64,35.42,35.42,0,0,1,6.42,2.46,14.06,14.06,0,0,1,2.87,2A4,4,0,0,1,1728.3,890.82Z"/><path class="cls-8" d="M1725.93,892.57a3.38,3.38,0,0,0-1.06-2.15,8.12,8.12,0,0,0-2-1.39,22.1,22.1,0,0,0-4.57-1.74,71.6,71.6,0,0,0-9.67-1.92c-3.26-.51-6.55-.82-9.84-1.13-1.64-.15-3.29-.28-4.94-.39s-3.3-.22-5-.33c3.31-.19,6.64-.16,9.95,0s6.63.48,9.93.92a60.7,60.7,0,0,1,9.75,2.17,22.36,22.36,0,0,1,4.59,2,8.88,8.88,0,0,1,1.93,1.63A3.27,3.27,0,0,1,1725.93,892.57Z"/><path class="cls-9" d="M1687.11,883.52c-3.31.2-6.62.39-9.92.64s-6.6.5-9.89.89-6.56.76-9.82,1.31c-1.63.27-3.25.57-4.86,1a42.38,42.38,0,0,0-4.77,1.36,41.42,41.42,0,0,1,9.49-3.06c3.26-.71,6.56-1.15,9.86-1.54s6.63-.57,10-.67S1683.79,883.33,1687.11,883.52Z"/><path class="cls-71" d="M1692,889.5c1.2,7.06-7.58,8.45-8.62,1.37-.6-3.53.9-7.79,3.08-8.14S1691.51,886,1692,889.5Z"/><path class="cls-72" d="M1676.27,893.82c-2.5,6.71-10.8,3.51-8.15-3.13,1.24-3.36,4.78-6.32,6.84-5.53S1677.59,890.5,1676.27,893.82Z"/><path class="cls-73" d="M1667.44,890.66c4.19,5.8-3.08,10.93-7.14,5-2.12-2.94-2.53-7.24-.68-8.49S1665.44,887.76,1667.44,890.66Z"/><path class="cls-74" d="M1684.49,891.61c2.4,6.74-6,9.62-8.26,2.83-1.23-3.47-.73-7.57,1.45-8.21S1683.4,888.31,1684.49,891.61Z"/><path class="cls-75" d="M1699.8,895.11c-4.1,5.86-11.33.68-7.1-5.09,2-2.87,6.18-5,8-3.84S1702,892.17,1699.8,895.11Z"/><path class="cls-13" d="M1694,890.92c-.13.2-.44,0-.3-.22S1694.14,890.73,1694,890.92Z"/><path class="cls-13" d="M1694,893.61c-.14.2-.45,0-.31-.21S1694.15,893.42,1694,893.61Z"/><path class="cls-13" d="M1694.36,896.83a.33.33,0,0,1-.53-.38A.33.33,0,0,1,1694.36,896.83Z"/><path class="cls-13" d="M1696.37,896.3c-.07.12-.25,0-.17-.12S1696.45,896.2,1696.37,896.3Z"/><path class="cls-13" d="M1697.62,895.26c-.08.12-.26,0-.18-.13S1697.7,895.15,1697.62,895.26Z"/><path class="cls-13" d="M1699.24,894.91c-.1.14-.32,0-.22-.16S1699.35,894.77,1699.24,894.91Z"/><path class="cls-13" d="M1695.15,895c-.17.25-.57,0-.39-.28S1695.34,894.77,1695.15,895Z"/><path class="cls-13" d="M1692.48,894.39a.25.25,0,0,1-.4-.29A.25.25,0,0,1,1692.48,894.39Z"/><path class="cls-69" d="M1718.78,889.91c2,1.69.33,10.55.33,10.55l-72.74.7s-1.86-8.61,0-10.45C1665,898.1,1702.24,896.28,1718.78,889.91Z"/><path class="cls-9" d="M1730.07,890.82a5.13,5.13,0,0,1-1,3.38,12.34,12.34,0,0,1-2.49,2.61,27.65,27.65,0,0,1-6.26,3.43,69.11,69.11,0,0,1-13.64,3.74,115.58,115.58,0,0,1-14,1.56,108,108,0,0,1-14-.18q7-.58,13.93-1.33c4.61-.53,9.22-1.12,13.78-1.95a94.8,94.8,0,0,0,13.45-3.25,31,31,0,0,0,6.24-2.8,11.48,11.48,0,0,0,2.62-2.13A5.44,5.44,0,0,0,1730.07,890.82Z"/><path class="cls-9" d="M1631.73,891.76a7.38,7.38,0,0,0,3.49,4.92,26.46,26.46,0,0,0,5.52,2.85,74.67,74.67,0,0,0,12.1,3.43c2.06.46,4.15.82,6.23,1.15s4.19.63,6.29.92c4.21.55,8.45,1,12.71,1.44a81.2,81.2,0,0,1-12.86.29,85.44,85.44,0,0,1-12.82-1.62,54.25,54.25,0,0,1-12.35-4,22.59,22.59,0,0,1-5.5-3.6,10.85,10.85,0,0,1-2.1-2.57A5.52,5.52,0,0,1,1631.73,891.76Z"/><path class="cls-7" d="M1642.65,892.57a2.69,2.69,0,0,0,1.42,1.75,10.83,10.83,0,0,0,2.13,1,35.52,35.52,0,0,0,4.58,1.23c3.11.64,6.27,1.12,9.45,1.51s6.36.73,9.55,1.06,6.41.61,9.63,1a71.62,71.62,0,0,1-9.71.49A88,88,0,0,1,1660,900a59.7,59.7,0,0,1-9.58-2,26,26,0,0,1-4.58-1.82,10,10,0,0,1-2.07-1.42,4.79,4.79,0,0,1-.82-1A2.15,2.15,0,0,1,1642.65,892.57Z"/><path class="cls-7" d="M1723.85,891.28a3.2,3.2,0,0,1-1.48,2.42,13.89,13.89,0,0,1-2.54,1.45,37.35,37.35,0,0,1-5.53,1.84,96.63,96.63,0,0,1-11.43,2c-3.84.4-7.7.72-11.56.84-1.93.07-3.86.09-5.79.1s-3.86-.06-5.79-.16c3.85-.21,7.7-.4,11.54-.68s7.68-.58,11.49-1.06a111.52,111.52,0,0,0,11.37-1.78,38.6,38.6,0,0,0,5.52-1.55,13.49,13.49,0,0,0,2.57-1.23A3.18,3.18,0,0,0,1723.85,891.28Z"/><path class="cls-8" d="M1648.75,894.48a8.68,8.68,0,0,1-2.82-1,3.76,3.76,0,0,1-2-2.54,2.4,2.4,0,0,1,.43-1.68,3.84,3.84,0,0,1,1.18-1.1,7.44,7.44,0,0,1,2.84-1,20.7,20.7,0,0,0-2.39,1.6,2.5,2.5,0,0,0-1.11,2.07,3.53,3.53,0,0,0,1.43,2C1647.09,893.44,1647.92,893.93,1648.75,894.48Z"/><path class="cls-8" d="M1641.63,897.13a121.82,121.82,0,0,0,19.82,4.29,114,114,0,0,0,20.23.67,189.89,189.89,0,0,0,20.17-2.09c3.34-.54,6.69-1.07,10-1.73s6.65-1.31,10-1.92c-6.56,1.71-13.19,3.19-19.88,4.38a171.68,171.68,0,0,1-20.25,2.32,109.27,109.27,0,0,1-20.37-.89,99.25,99.25,0,0,1-10-2C1648.06,899.31,1644.82,898.27,1641.63,897.13Z"/><path class="cls-8" d="M1651.7,892.57a150.5,150.5,0,0,0,15,2c5,.39,10,.57,15.07.5s10.06-.32,15.08-.75,10-1.08,15.07-1.75a102,102,0,0,1-14.89,3.3,110.89,110.89,0,0,1-15.24,1.2,105.2,105.2,0,0,1-15.26-1A75.32,75.32,0,0,1,1651.7,892.57Z"/><path class="cls-14" d="M1790.88,864.79c-152.6,57.82-295.44-144.93-113.56-215.16C1829.92,591.82,1972.76,794.57,1790.88,864.79Z"/><path class="cls-14" d="M1878.71,717.49c-108.85,41.25-210.74-103.37-81-153.46C1906.55,522.79,2008.44,667.41,1878.71,717.49Z"/><path class="cls-14" d="M1646.76,821.19c-132.52,50.21-256.56-125.86-98.61-186.85C1680.67,584.14,1804.71,760.21,1646.76,821.19Z"/><path class="cls-14" d="M1737.59,723.59c-95.8,36.31-185.48-91-71.29-135.08C1762.1,552.22,1851.78,679.51,1737.59,723.59Z"/><path class="cls-15" d="M1667.64,811.16c-99.29,37.63-192.23-94.3-73.89-140C1693,633.55,1786,765.48,1667.64,811.16Z"/><path class="cls-14" d="M1808.35,800.49c-86.59-189.34,264-269.85,335.84-113C2230.78,876.82,1880.21,957.33,1808.35,800.49Z"/><path class="cls-15" d="M2017.78,837.22c-109.64,41.54-212.27-104.13-81.59-154.59C2045.83,641.09,2148.45,786.77,2017.78,837.22Z"/><path class="cls-15" d="M1836.73,787.82C1722.82,831,1616.19,679.64,1752,627.22,1865.87,584.07,1972.49,735.41,1836.73,787.82Z"/><path class="cls-14" d="M1734.17,962.76c-91.25-199.51,278.17-284.35,353.89-119.07C2179.31,1043.2,1809.89,1128,1734.17,962.76Z"/><path class="cls-15" d="M1890.15,912.49c-223.39-66.65,71.52-163.22,172.24-127C2285.78,852.18,1990.87,948.75,1890.15,912.49Z"/><path class="cls-14" d="M1441.73,1036.5c-8.92-113.13,296.75-88.91,304.24,4.84C1754.9,1154.46,1449.22,1130.24,1441.73,1036.5Z"/><path class="cls-15" d="M1566.29,808.71c-81.12,22.47-235.53-54.08-87.56-90.89C1559.85,695.36,1714.26,771.91,1566.29,808.71Z"/><path class="cls-76" d="M374.19,393c18.67-48.89,43.05-144.41,43.05-144.41"/><path class="cls-35" d="M227.11,619.1c1.89-23.23,8-43.88,15.26-63.76,3.71-9.86,7.81-19.52,12.23-28.92l3.32-7.06c1.14-2.33,2.31-4.64,3.49-6.94s2.35-4.62,3.57-6.89l3.72-6.79c2.44-4.56,5.06-9,7.65-13.43s5.28-8.81,8-13.18,5.56-8.62,8.36-12.91,5.76-8.47,8.68-12.67q17.67-25.1,37.69-48.27c3.34-3.86,6.65-7.73,10.11-11.47,1.71-1.9,3.43-3.78,5.18-5.63s3.54-3.67,5.44-5.38c3.75-3.47,7.6-6.83,11.67-10l12.28-9.28c8.32-6,16.05-12.51,23.81-19,3.84-3.28,7.84-6.38,11.79-9.52l5.94-4.69,6.05-4.56A772.69,772.69,0,0,1,532.84,253.5L546.21,278A452.56,452.56,0,0,0,498,309.12l-5.73,4.31c-1.9,1.46-3.84,2.84-5.69,4.36l-11.18,9c-7.27,6.22-14.52,12.43-21.51,19-1.76,1.61-3.5,3.24-5.24,4.87l-5.11,5c-3.4,3.35-6.84,6.65-10.11,10.13s-6.7,6.78-9.79,10.44-6.06,7.4-8.92,11.26l-8.25,11.8c-2.72,3.94-5.45,7.85-8.39,11.56-5.77,7.49-12.18,14.4-18,21.82a681.41,681.41,0,0,0-63.63,92.68l-3.41,6.09c-1.12,2-2.16,4.1-3.25,6.14l-3.25,6.14-3.1,6.18c-2.13,4.11-4,8.29-5.94,12.44-1,2.07-1.85,4.17-2.76,6.26s-1.85,4.16-2.72,6.25l-2.52,6.28c-.41,1-.85,2.1-1.25,3.14l-1.13,3.15c-.74,2.1-1.54,4.19-2.25,6.29l-2,6.26a192,192,0,0,0-6,24.49Z"/><path class="cls-35" d="M276.56,330.43c-.44,16.66-.55,33.33-.52,50s.19,33.33.48,50c.61,33.33,1.51,66.66,2.89,100,2.57,66.66,6.53,133.33,11.35,200q3.63,50,8,100c3,33.33,5.7,66.66,9.9,100s9.5,66.66,16.32,100c3.42,16.66,7.22,33.33,11.53,50s9.06,33.33,15,50h-300c6-16.67,10.68-33.34,15-50s8.11-33.34,11.53-50c6.82-33.34,12.15-66.67,16.31-100s7-66.67,9.91-100,5.59-66.67,8-100c4.83-66.67,8.79-133.34,11.36-200,1.38-33.34,2.28-66.67,2.89-100q.44-25,.48-50c0-16.67-.08-33.34-.53-50Z"/><path class="cls-77" d="M159.52,406.66q.38,23.79.17,47.58c0,7.93-.16,15.85-.25,23.78L159,501.8l-.58,23.77c-.25,7.93-.44,15.85-.75,23.78q-.78,23.77-2.17,47.53-.36-23.8-.17-47.58c0-7.93.17-15.86.25-23.78l.43-23.78.58-23.78c.25-7.92.44-15.85.75-23.77Q158.15,430.42,159.52,406.66Z"/><path class="cls-35" d="M1851.74,182.08c-.5,33.34-.42,66.67,0,100s1,66.67,1.93,100q2.63,100,7.6,200l1.21,25,1.34,25,1.35,25,.68,12.5.74,12.5,3,50q1.55,25,3.61,50c2.77,33.34,6.32,66.67,10.88,100,2.33,16.67,4.78,33.34,7.69,50s6,33.34,10,50h-200c4-16.66,7.12-33.33,10-50s5.36-33.33,7.69-50c4.56-33.33,8.11-66.66,10.88-100q2.09-25,3.61-50l3-50,.75-12.5.67-12.5,1.35-25,1.34-25,1.21-25q4.86-100,7.6-200,1.4-50,1.93-100c.39-33.33.47-66.66,0-100Z"/><line class="cls-78" x1="1287.97" y1="188.75" x2="1490.92" y2="534.65"/><path class="cls-35" d="M1531.73,151.52c-.48,41.24-.65,82.49-.76,123.73l0,61.86c0,20.63.12,41.25.17,61.87l.22,61.87.49,61.86.48,61.87.71,61.86,1.57,123.74,1,61.86,1.07,61.87.55,30.93.69,30.93c.6,20.63,1.34,41.25,2.37,61.87s2.29,41.25,3.89,61.87,3.44,41.25,6.1,61.87l-119.56-.1c2.69-20.62,4.55-41.24,6.2-61.86s2.92-41.24,4-61.86,1.83-41.24,2.46-61.86l.75-30.93.59-30.94,1.18-61.86,1-61.87,1.77-123.73.81-61.86.58-61.86.59-61.87.32-61.86c.09-20.63.27-41.25.27-61.87l.07-61.87c0-41.24-.14-82.48-.55-123.73Z"/><ellipse class="cls-46" cx="1385.4" cy="93.56" rx="334.14" ry="210.06" transform="translate(-0.15 2.25) rotate(-0.09)"/><ellipse class="cls-79" cx="1720.26" cy="18.32" rx="334.14" ry="180.7" transform="translate(-0.03 2.8) rotate(-0.09)"/><ellipse class="cls-46" cx="1545.94" cy="115.03" rx="77.62" ry="185.79" transform="translate(1416.26 1659.8) rotate(-89.46)"/><ellipse class="cls-46" cx="1738.14" cy="240.11" rx="334.14" ry="210.06" transform="translate(-0.39 2.83) rotate(-0.09)"/><ellipse class="cls-47" cx="1275.47" cy="62.45" rx="77.62" ry="185.79" transform="translate(1200.93 1337.27) rotate(-89.46)"/><ellipse class="cls-47" cx="1820.42" cy="276.52" rx="77.62" ry="185.79" transform="translate(1526.65 2094.24) rotate(-89.46)"/><path class="cls-80" d="M1790.61,535.86c1.21,21.2,1.43,42.36,1.35,63.51s-.62,42.28-1.47,63.39-2,42.22-3.62,63.31-3.55,42.16-6.49,63.19c-1.23-21.2-1.45-42.36-1.37-63.51s.63-42.27,1.49-63.39,2-42.22,3.64-63.31S1787.69,556.9,1790.61,535.86Z"/><path class="cls-77" d="M1501.79,447.07c.62,7.26,1,14.51,1.17,21.76.13,3.62.16,7.25.25,10.88l.08,10.87-.08,10.88c-.08,3.63-.11,7.25-.25,10.88-.22,7.25-.55,14.5-1.17,21.75-.62-7.25-1-14.5-1.17-21.75-.14-3.63-.17-7.25-.25-10.88l-.08-10.88.08-10.87c.08-3.63.12-7.26.25-10.88C1500.84,461.58,1501.17,454.33,1501.79,447.07Z"/><ellipse class="cls-47" cx="1659.97" cy="175.6" rx="77.62" ry="185.79" transform="translate(1468.64 1833.83) rotate(-89.46)"/><path class="cls-77" d="M1465.75,847.15c.82,7.25,1.26,14.5,1.55,21.75.19,3.63.23,7.25.34,10.88l.11,10.88-.11,10.87c-.11,3.63-.15,7.26-.33,10.88-.3,7.25-.73,14.5-1.56,21.76-.84-7.26-1.27-14.51-1.56-21.76-.19-3.62-.23-7.25-.34-10.88l-.1-10.87.11-10.88c.11-3.63.15-7.25.33-10.88C1464.49,861.65,1464.92,854.4,1465.75,847.15Z"/><ellipse class="cls-43" cx="591.55" cy="102.49" rx="187.49" ry="410.37" transform="translate(488.1 693.87) rotate(-89.91)"/><ellipse class="cls-43" cx="378.08" cy="82.15" rx="243.24" ry="101.63" transform="translate(-0.76 3.59) rotate(-0.54)"/><ellipse class="cls-43" cx="39.29" cy="170.22" rx="253.49" ry="403.24" transform="translate(-131 209.24) rotate(-89.91)"/><ellipse class="cls-45" cx="727.9" cy="92.31" rx="185.79" ry="77.62" transform="translate(-0.84 6.9) rotate(-0.54)"/><ellipse class="cls-45" cx="108.24" cy="132.91" rx="298.88" ry="124.88" transform="translate(-1.26 1.03) rotate(-0.54)"/><path class="cls-80" d="M154.64,796.43c-.5,23.12-2,46.13-3.78,69.11s-4,45.89-6.59,68.78-5.44,45.74-8.73,68.55-6.95,45.57-11.57,68.23c.48-23.12,2-46.13,3.76-69.1s4-45.9,6.6-68.79,5.46-45.74,8.75-68.54S150,819.09,154.64,796.43Z"/><ellipse class="cls-45" cx="491.13" cy="50.25" rx="185.79" ry="77.62" transform="translate(-0.45 4.66) rotate(-0.54)"/><path class="cls-77" d="M242.64,690.94c1.16,7.42,1.92,14.86,2.55,22.31.35,3.72.56,7.44.83,11.17l.61,11.18.4,11.19c.05,3.73.18,7.46.16,11.2.05,7.47-.06,15-.55,22.44-1.17-7.42-1.94-14.85-2.56-22.3-.36-3.72-.56-7.45-.84-11.17l-.6-11.18-.39-11.19c-.06-3.74-.18-7.47-.17-11.21C242,705.91,242.14,698.44,242.64,690.94Z"/><path class="cls-14" d="M1604.45,1037c-13.59-173.09,450.62-135.93,462,7.51C2080.07,1217.57,1615.86,1180.4,1604.45,1037Z"/><path class="cls-37" d="M359.51,963.07l55.16-8.22,58.66,7,.94,66.34c-78.86,13.4-63.16,20.58-139.12-11Z"/><path class="cls-38" d="M499.33,1017.21l-25.06,11L416.19,955C491.13,964.05,466.14,951.38,499.33,1017.21Z"/><path class="cls-65" d="M699.16,295.32c-.28,44.63,211.8,44.63,211.5,0C910.94,250.68,698.86,250.69,699.16,295.32Z"/><path class="cls-32" d="M866.4,786a25.23,25.23,0,0,0-8.25,3.27,29.26,29.26,0,0,0-6.35,5.39,39.38,39.38,0,0,0-4.55,6.46,51.4,51.4,0,0,0-3.31,6.91,69,69,0,0,0-2.9,8.79c.21-4.81.31-9.62.64-14.43a162.22,162.22,0,0,1,2.06-17.28,72.09,72.09,0,0,1,2-8.53,34.32,34.32,0,0,1,3.46-8.2l-.19-.08a35.06,35.06,0,0,0-3.91,8.15,74,74,0,0,0-2.39,8.52,162.76,162.76,0,0,0-2.73,17.32c-.62,5.64-1.15,11.3-1.21,17H838c0-.91-.07-1.82-.1-2.74-.27-6.86-.86-13.72-1.25-20.58s-.62-13.73-.7-20.59l0-5.15c0-1.72.07-3.44.1-5.15s.2-3.43.29-5.14a24.6,24.6,0,0,1,.27-2.57l.33-2.56-.21,0-.45,2.55a24.88,24.88,0,0,0-.38,2.57c-.16,1.71-.42,3.43-.5,5.14s-.25,3.44-.32,5.16l-.19,5.16c-.13,6.88-.09,13.76,0,20.64.13,6.26.25,12.51.68,18.76-.24-1.8-.51-3.61-.81-5.4a93,93,0,0,0-3.3-13.71,42.52,42.52,0,0,0-6.64-12.87l-.18.1a40.84,40.84,0,0,1,5.76,13A91.68,91.68,0,0,1,833,809.52c.38,3.09.57,6.2.77,9.3-.2-.48-.4-1-.62-1.43a27.76,27.76,0,0,0-2.7-4.58,20.38,20.38,0,0,0-4-4,17.37,17.37,0,0,0-5.34-2.72,23.19,23.19,0,0,0-6.15-.94v.18a21.9,21.9,0,0,1,5.89,1.25,16,16,0,0,1,4.82,2.86,20.29,20.29,0,0,1,5.74,8.4,28.28,28.28,0,0,1,1.38,4.72c.36,1.59.63,3.2.94,4.81,0,.08,0,.15,0,.23a9.44,9.44,0,0,0-3.54-2.16,14.65,14.65,0,0,0-5.56-.62V825a14.24,14.24,0,0,1,5.07,1.21,7.45,7.45,0,0,1,3.32,3,15.57,15.57,0,0,1,1.24,3.94c.24,1,.44,1.93.66,2.94v1.32h5c.67-2.5,1.24-4.94,1.92-7.36a55.62,55.62,0,0,1,2.22-7.18,19.15,19.15,0,0,1,4.41-6.4,15.45,15.45,0,0,1,7.7-3.91l0-.17a16.53,16.53,0,0,0-8.46,3.49,21,21,0,0,0-5.24,6.49c-.21.4-.42.81-.62,1.22.06-.29.11-.59.17-.88a111,111,0,0,1,3.56-14.24,50.15,50.15,0,0,1,2.93-6.86,37.16,37.16,0,0,1,4.15-6.42,27.87,27.87,0,0,1,5.86-5.47,24,24,0,0,1,7.9-3.51Z"/><path class="cls-32" d="M1236.83,968.89a43.86,43.86,0,0,0-14.45,5.73,51.5,51.5,0,0,0-11.14,9.44,68.61,68.61,0,0,0-8,11.32,90,90,0,0,0-5.8,12.11,121.72,121.72,0,0,0-5.09,15.4c.37-8.43.55-16.86,1.14-25.29a281.55,281.55,0,0,1,3.61-30.28,129.66,129.66,0,0,1,3.41-15,60.61,60.61,0,0,1,6.08-14.36l-.34-.14a62.21,62.21,0,0,0-6.85,14.28,132.07,132.07,0,0,0-4.19,14.93,282.73,282.73,0,0,0-4.77,30.35c-1.1,9.89-2,19.79-2.13,29.72h-1.27c-.06-1.6-.12-3.2-.19-4.8-.47-12-1.5-24-2.18-36.07s-1.08-24-1.24-36.08l0-9c0-3,.12-6,.18-9s.34-6,.5-9c.06-1.51.26-3,.46-4.49l.6-4.49-.38,0-.79,4.48c-.27,1.5-.53,3-.66,4.5-.28,3-.74,6-.88,9s-.44,6-.56,9l-.34,9c-.23,12.06-.15,24.11.09,36.17.24,10.95.44,21.92,1.21,32.86q-.64-4.74-1.43-9.47a166.06,166.06,0,0,0-5.78-24c-2.73-7.84-6.13-15.65-11.63-22.54l-.33.16c5,7,7.89,14.89,10.11,22.75a162.77,162.77,0,0,1,4.59,23.92c.66,5.43,1,10.87,1.34,16.31-.35-.84-.71-1.67-1.09-2.5a47.13,47.13,0,0,0-4.72-8,36,36,0,0,0-6.92-7,30.85,30.85,0,0,0-9.36-4.76,40.44,40.44,0,0,0-10.78-1.64l0,.31a38.61,38.61,0,0,1,10.33,2.19,27.69,27.69,0,0,1,8.44,5,35.44,35.44,0,0,1,10.06,14.71,50.52,50.52,0,0,1,2.41,8.28c.63,2.79,1.11,5.6,1.65,8.42,0,.13,0,.27.07.4a16.57,16.57,0,0,0-6.2-3.79,25.49,25.49,0,0,0-9.75-1.07v.31a24.8,24.8,0,0,1,8.88,2.12,13,13,0,0,1,5.83,5.2c1.25,2.16,1.53,4.56,2.17,6.9.43,1.67.78,3.39,1.15,5.16v2.3h.7l.19,0a0,0,0,0,1,0,0h7.8c1.17-4.36,2.17-8.65,3.35-12.88s2.1-8.5,3.89-12.58a33.75,33.75,0,0,1,7.74-11.22,27.12,27.12,0,0,1,13.49-6.85l-.08-.3a29,29,0,0,0-14.81,6.11,37.15,37.15,0,0,0-9.19,11.37c-.37.71-.73,1.43-1.08,2.14.1-.51.19-1,.29-1.54,1.76-8.37,3.37-16.77,6.24-24.94a84.85,84.85,0,0,1,5.14-12,65.34,65.34,0,0,1,7.27-11.25,48.31,48.31,0,0,1,10.27-9.59,42,42,0,0,1,13.83-6.14Z"/><path class="cls-33" d="M1171.38,987.79a43.1,43.1,0,0,1,14.15,5.61,50.38,50.38,0,0,1,10.9,9.25,67,67,0,0,1,7.8,11.08,87.48,87.48,0,0,1,5.67,11.86,118.31,118.31,0,0,1,5,15.08c-.36-8.26-.54-16.52-1.11-24.76a276.86,276.86,0,0,0-3.54-29.65,126.38,126.38,0,0,0-3.34-14.64,59.39,59.39,0,0,0-6-14.07l.33-.14a61.12,61.12,0,0,1,6.71,14,131.38,131.38,0,0,1,4.1,14.62,281.12,281.12,0,0,1,4.68,29.72c1.07,9.68,2,19.38,2.07,29.1h1.25l.18-4.7c.47-11.78,1.48-23.54,2.14-35.32s1.06-23.55,1.21-35.33l0-8.83c0-2.95-.12-5.89-.17-8.84s-.33-5.87-.49-8.82a40.58,40.58,0,0,0-.46-4.39l-.58-4.4.37,0,.77,4.38a44.47,44.47,0,0,1,.65,4.4c.28,2.95.73,5.89.86,8.84s.43,5.89.55,8.84l.34,8.85c.22,11.81.14,23.61-.09,35.41-.24,10.73-.44,21.47-1.18,32.19.42-3.1.89-6.19,1.39-9.27a161.6,161.6,0,0,1,5.66-23.52c2.68-7.67,6-15.32,11.39-22.07l.32.16c-4.92,6.9-7.72,14.58-9.89,22.27a158.74,158.74,0,0,0-4.5,23.43c-.64,5.31-1,10.64-1.31,16,.34-.82.69-1.64,1.07-2.45a45.8,45.8,0,0,1,4.62-7.86,34.82,34.82,0,0,1,6.78-6.84,29.77,29.77,0,0,1,9.16-4.66,39.6,39.6,0,0,1,10.56-1.61v.31a37.83,37.83,0,0,0-10.11,2.14,27.23,27.23,0,0,0-8.27,4.91,34.64,34.64,0,0,0-9.84,14.4,48.63,48.63,0,0,0-2.36,8.1c-.62,2.74-1.1,5.49-1.62,8.25,0,.13,0,.27-.07.4a16.17,16.17,0,0,1,6.07-3.71,24.84,24.84,0,0,1,9.54-1v.3a24,24,0,0,0-8.69,2.08,12.67,12.67,0,0,0-5.7,5.09c-1.23,2.11-1.5,4.46-2.13,6.76-.42,1.63-.76,3.32-1.13,5v2.26h-.68l-.18,0,0,0h-7.63c-1.15-4.27-2.13-8.47-3.29-12.62s-2.06-8.31-3.81-12.31a32.73,32.73,0,0,0-7.58-11,26.46,26.46,0,0,0-13.2-6.7l.07-.3a28.34,28.34,0,0,1,14.51,6,36.39,36.39,0,0,1,9,11.13c.37.69.72,1.39,1.07,2.1-.1-.51-.19-1-.29-1.51-1.73-8.2-3.3-16.43-6.11-24.43a85.33,85.33,0,0,0-5-11.77,63.78,63.78,0,0,0-7.12-11,47.3,47.3,0,0,0-10.06-9.39,41.18,41.18,0,0,0-13.54-6Z"/><path class="cls-32" d="M547.8,940a25,25,0,0,1,8.25,3.27,29.56,29.56,0,0,1,6.36,5.39,39.5,39.5,0,0,1,4.54,6.46,51.4,51.4,0,0,1,3.31,6.91,68.47,68.47,0,0,1,2.9,8.79c-.2-4.81-.31-9.63-.64-14.43a162.22,162.22,0,0,0-2.06-17.28,74.72,74.72,0,0,0-2-8.54,34.94,34.94,0,0,0-3.47-8.2l.19-.08a35.26,35.26,0,0,1,3.91,8.15,74.12,74.12,0,0,1,2.39,8.53,162,162,0,0,1,2.73,17.32c.62,5.64,1.15,11.3,1.21,17h.73c0-.91.07-1.83.1-2.74.27-6.87.86-13.72,1.25-20.58s.62-13.73.7-20.6l0-5.15c0-1.71-.07-3.43-.1-5.15s-.2-3.42-.29-5.14a24.39,24.39,0,0,0-.26-2.56l-.34-2.56.21,0,.45,2.56a24.69,24.69,0,0,1,.38,2.56c.16,1.72.42,3.43.5,5.15s.25,3.44.32,5.16l.2,5.16c.13,6.88.08,13.76-.06,20.64-.13,6.25-.25,12.51-.68,18.76.24-1.81.52-3.61.81-5.41a93.85,93.85,0,0,1,3.3-13.7,42.51,42.51,0,0,1,6.64-12.87l.19.09a40.75,40.75,0,0,0-5.77,13,91.68,91.68,0,0,0-2.62,13.66c-.38,3.1-.57,6.2-.77,9.31.2-.48.41-1,.62-1.43a27.36,27.36,0,0,1,2.7-4.58,20.11,20.11,0,0,1,3.95-4A17.37,17.37,0,0,1,593,960a22.79,22.79,0,0,1,6.15-.94v.18a22,22,0,0,0-5.89,1.25,15.63,15.63,0,0,0-4.82,2.86,20.32,20.32,0,0,0-5.74,8.39,27.43,27.43,0,0,0-1.37,4.73c-.37,1.59-.64,3.2-1,4.8a2,2,0,0,1,0,.24,9.33,9.33,0,0,1,3.54-2.17,14.44,14.44,0,0,1,5.56-.61v.17a14.14,14.14,0,0,0-5.06,1.22,7.36,7.36,0,0,0-3.33,3,15.57,15.57,0,0,0-1.24,3.94c-.24,1-.44,1.93-.66,2.94v1.31h-.39l-.11,0v0H574.2c-.67-2.49-1.24-4.94-1.92-7.35a54.09,54.09,0,0,0-2.22-7.18,19.19,19.19,0,0,0-4.41-6.41,15.48,15.48,0,0,0-7.7-3.9l0-.17a16.57,16.57,0,0,1,8.46,3.48,21.28,21.28,0,0,1,5.24,6.49l.62,1.22c-.06-.29-.11-.58-.17-.87a110.61,110.61,0,0,0-3.56-14.24,48.94,48.94,0,0,0-2.93-6.86,37.16,37.16,0,0,0-4.15-6.42,27.67,27.67,0,0,0-5.86-5.48,24,24,0,0,0-7.9-3.5Z"/></g></g></svg>