<svg xmlns="http://www.w3.org/2000/svg" xmlns:xlink="http://www.w3.org/1999/xlink" viewBox="0 0 1920 1080"><defs><style>.cls-1{opacity:0.5;}.cls-2{opacity:0.7;}.cls-3{fill:#e5dfe1;}.cls-4{fill:#5b6020;}.cls-5{fill:#b0af45;}.cls-6{fill:#787838;}.cls-7{fill:#848040;}.cls-8{fill:#979639;}.cls-9{fill:#867a3e;}.cls-10{fill:#6a783d;}.cls-11{fill:#84802c;}.cls-12{fill:#5c7312;}.cls-13{fill:#4a5e20;}.cls-14{fill:#4a6220;}.cls-15{fill:#4a6020;}.cls-16{fill:url(#linear-gradient);}.cls-17{fill:#556332;}.cls-18{fill:#80813b;}.cls-19{fill:#696929;}.cls-20{fill:#9a9a3a;}.cls-21{fill:#7a7a2f;}.cls-22{fill:#939339;}.cls-23{fill:#342b1a;}.cls-24{fill:#3c362a;}.cls-25,.cls-34,.cls-35,.cls-36,.cls-37{fill:none;stroke-miterlimit:10;}.cls-25{stroke:#3c362a;stroke-width:20px;}.cls-26{fill:#75752d;}.cls-27{fill:#595922;}.cls-28{fill:#4c4c1d;}.cls-29{fill:#65892b;}.cls-30{fill:#6b8031;}.cls-31{fill:#718544;}.cls-32{fill:#82984d;}.cls-33{fill:#878741;}.cls-34,.cls-35,.cls-36,.cls-37{stroke:#541d16;stroke-linecap:round;stroke-width:4px;}.cls-34{stroke-dasharray:3 25 3 45 3 15;}.cls-35{stroke-dasharray:3 95 3 70;}.cls-36{stroke-dasharray:3 15 3 10;}.cls-37{stroke-dasharray:3 10 3 15;}.cls-38{fill:#676952;}.cls-39{fill:#5d5e4a;}.cls-40{fill:#6a6b54;}.cls-41{fill:#5b5c48;}</style><linearGradient id="linear-gradient" x1="971" y1="-64" x2="971" y2="838" gradientUnits="userSpaceOnUse"><stop offset="0" stop-opacity="0"/><stop offset="0.6" stop-opacity="0.5"/><stop offset="0.74" stop-color="#1d191a" stop-opacity="0.34"/><stop offset="0.76" stop-color="#1c191a" stop-opacity="0.3"/><stop offset="0.82" stop-color="#111010" stop-opacity="0.19"/><stop offset="1" stop-opacity="0"/></linearGradient></defs><g id="fern-interactive"><g id="background-2" data-name="background"><rect class="cls-3" x="-50" y="-57" width="2020" height="560"/><rect class="cls-4" x="-50" y="477" width="2020" height="651"/><path class="cls-5" d="M505.08,71c9.41,130.18-575.15,130.19-565.7,0C-70-59.18,514.53-59.19,505.08,71Z"/><rect class="cls-6" x="-50" y="393" width="2020" height="94"/><path class="cls-7" d="M1063.87,46c9.41,130.18-575.15,130.19-565.7,0C488.76-84.18,1073.32-84.19,1063.87,46Z"/><path class="cls-8" d="M1178.65,213.5c5.63,70.21-333.31,70.21-327.65,0C845.37,143.29,1184.31,143.29,1178.65,213.5Z"/><path class="cls-5" d="M1733.61,61c9.4,130.18-575.16,130.19-565.71,0C1158.5-69.18,1743.05-69.19,1733.61,61Z"/><path class="cls-8" d="M578.94,189.22c5.63,70.21-333.31,70.21-327.66,0C245.65,119,584.6,119,578.94,189.22Z"/><path class="cls-9" d="M78.57,418.8c-.24,82.55-150,82.54-150.22,0C-71.4,336.24,78.35,336.25,78.57,418.8Z"/><path class="cls-7" d="M145.7,383.47c-.48,128.71-217.24,128.7-217.7,0C-71.52,254.76,145.24,254.77,145.7,383.47Z"/><path class="cls-10" d="M210,406.31c-.33,76.1-117.2,76.1-117.52,0C92.77,330.22,209.63,330.22,210,406.31Z"/><path class="cls-11" d="M267.49,355.26c-.27,82.67-145.08,82.66-145.35,0C122.42,272.59,267.23,272.6,267.49,355.26Z"/><path class="cls-9" d="M303.36,427c-.28,82.67-145.09,82.66-145.35,0C158.29,344.37,303.1,344.38,303.36,427Z"/><path class="cls-7" d="M380,376.24c-.62,143-146.18,143-146.79,0C233.83,233.22,379.39,233.23,380,376.24Z"/><path class="cls-12" d="M431.59,409.85c-.33,76.1-117.2,76.09-117.52,0C314.4,333.75,431.27,333.76,431.59,409.85Z"/><path class="cls-11" d="M489.13,358.79c-.27,82.67-145.08,82.66-145.35,0C344.06,276.13,488.87,276.13,489.13,358.79Z"/><path class="cls-9" d="M525,430.57c-.28,82.67-145.09,82.66-145.35,0C379.93,347.91,524.74,347.92,525,430.57Z"/><path class="cls-9" d="M594.56,403.08c.17,66.07-156.84,66.06-156.64,0C437.74,337,594.75,337,594.56,403.08Z"/><path class="cls-7" d="M664.56,354.86C664,484.09,452.5,484.08,452,354.85,452.52,225.62,664.06,225.63,664.56,354.86Z"/><path class="cls-10" d="M731.56,393.08C731.48,454,609.08,454,609,393.07,609.09,332.16,731.49,332.16,731.56,393.08Z"/><path class="cls-11" d="M791.56,352.14c.11,66.16-151.69,66.15-151.57,0C639.89,286,791.69,286,791.56,352.14Z"/><path class="cls-9" d="M829,409.69c.11,66.16-151.69,66.15-151.56,0C677.29,343.54,829.09,343.55,829,409.69Z"/><path class="cls-7" d="M895.68,386.4c-.41,91.74-139.47,91.73-139.87,0C756.22,294.66,895.28,294.67,895.68,386.4Z"/><path class="cls-12" d="M962.68,395.91c-.08,60.92-122.48,60.91-122.55,0C840.21,335,962.61,335,962.68,395.91Z"/><path class="cls-11" d="M1022.68,355c.11,66.16-151.69,66.15-151.56,0C871,288.82,1022.81,288.82,1022.68,355Z"/><path class="cls-9" d="M1060.09,412.53c.1,66.15-151.7,66.15-151.57,0C908.41,346.37,1060.21,346.38,1060.09,412.53Z"/><path class="cls-9" d="M1116.9,401.21c-.25,82.56-150,82.55-150.22,0C966.92,318.65,1116.67,318.66,1116.9,401.21Z"/><path class="cls-7" d="M1184,363.68c-.63,131.72-182.4,131.71-183,0C1001.64,232,1183.4,232,1184,363.68Z"/><path class="cls-10" d="M1248.28,388.73c-.34,76.1-117.2,76.09-117.53,0C1131.09,312.63,1248,312.64,1248.28,388.73Z"/><path class="cls-11" d="M1305.81,337.68c-.27,82.66-145.08,82.65-145.34,0C1160.74,255,1305.55,255,1305.81,337.68Z"/><path class="cls-9" d="M1341.68,409.46c-.27,82.66-145.08,82.66-145.35,0C1196.61,326.79,1341.42,326.8,1341.68,409.46Z"/><path class="cls-7" d="M1405.66,380.4c-.54,114.52-133.59,114.51-134.13,0C1272.08,265.88,1405.13,265.89,1405.66,380.4Z"/><path class="cls-12" d="M1469.92,392.26c-.34,76.1-117.2,76.1-117.53,0C1352.73,316.17,1469.59,316.17,1469.92,392.26Z"/><path class="cls-11" d="M1527.45,341.21c-.27,82.67-145.08,82.66-145.34,0C1382.38,258.54,1527.19,258.55,1527.45,341.21Z"/><path class="cls-9" d="M1563.32,413c-.27,82.67-145.08,82.66-145.35,0C1418.25,330.32,1563.06,330.33,1563.32,413Z"/><path class="cls-9" d="M1572.75,384.07c-.48,100.45-140.6,100.45-141.07,0C1432.16,283.62,1572.28,283.63,1572.75,384.07Z"/><path class="cls-7" d="M1635.79,354.49c-.51,139.18-125.46,139.17-126,0C1510.33,215.32,1635.29,215.32,1635.79,354.49Z"/><path class="cls-12" d="M1904.28,373.2c-.45,92.55-109.93,92.55-110.37,0C1794.36,280.64,1903.84,280.65,1904.28,373.2Z"/><path class="cls-11" d="M1958.32,311.16c-.5,100.58-136,100.57-136.5,0C1822.31,210.58,1957.84,210.59,1958.32,311.16Z"/><path class="cls-9" d="M1992,398.38c-.49,100.58-136,100.57-136.5,0C1856,297.81,1991.52,297.81,1992,398.38Z"/><path class="cls-13" d="M1987.75,596.56c27.4,16.84-1041,16.84-1013.5,0C946.85,579.71,2015.22,579.71,1987.75,596.56Z"/><path class="cls-14" d="M891,539.9c24.92,34.24-974.74,34.24-949.75,0C-83.67,505.67,916,505.67,891,539.9Z"/><path class="cls-15" d="M1405,649.9c8.59,18-352.61,18-344,0C1052.41,631.92,1413.61,631.92,1405,649.9Z"/></g><g id="shade-2" data-name="shade"><rect class="cls-16" x="-56" y="-64" width="2054" height="902"/></g><g id="plants-background-2" data-name="plants-background"><path class="cls-17" d="M375.3,505.49c5.44-5.34,10.78-2.16,12.35,3-3.42-14.69-7.32-17.23-7.32-17.23s6.32-2.81,10.48,14.56c.39-5.21.81-18.38,4.31-19.89-1.13,5-1.52,9.56-1.52,18.55,3.27-11,9-6.37,9-6.37s-5,.62-6.78,11.82c4.55-7.82,6.88-9.54,11.94-3.47-11.05-5.8-7.78,6.74-11.6,11.44-1.07,1.31-7,.72-7.67-.2C385.08,513,383.67,500.93,375.3,505.49Z"/><path class="cls-17" d="M1018.4,518c7.83-6.23,15.51-2.52,17.78,3.48-4.92-17.16-10.54-20.12-10.54-20.12s9.1-3.29,15.09,17c.55-6.09,1.17-21.47,6.19-23.23-1.62,5.84-2.18,11.17-2.18,21.67,4.71-12.84,13-7.44,13-7.44s-7.24.73-9.76,13.81c6.55-9.14,9.91-11.14,17.19-4-15.9-6.79-11.2,7.87-16.7,13.35-1.54,1.54-10.07.85-11-.22C1032.48,526.77,1030.45,512.66,1018.4,518Z"/><path class="cls-17" d="M223,504.27c-8.91-7.09-17.65-2.86-20.23,4,5.59-19.52,12-22.89,12-22.89s-10.36-3.74-17.17,19.34c-.63-6.92-1.33-24.42-7.05-26.43C192.39,484.9,193,491,193,502.91c-5.35-14.6-14.8-8.47-14.8-8.47s8.23.83,11.1,15.72c-7.45-10.4-11.27-12.68-19.55-4.61,18.08-7.72,12.73,8.95,19,15.19,1.75,1.75,11.46,1,12.56-.25C207,514.27,209.29,498.22,223,504.27Z"/><path class="cls-17" d="M1526.59,507.1c-5.13-.41-10.82.93-14.75,5.68,3.9-12.13,13.42-12.91,21.88-10.1l.09-.38c-8.45-5-20.24-4.34-24.58,8.39-.88-6.71-1.29-13.8-3.75-19.88l-.27.17c1.29,6.08,1.16,12.54,1.27,18.81-3.55-7.59-10.5-11.36-17-9.58l0,.4c6.63-.15,12.91,4.69,15.09,13.22-4.9-6-12.56-6.8-18.28-2.52l.12.36c10-3.58,14.06,1.93,19.7,10.3,6.08,4.12,6.63-17.32,28.32-12.45l.06-.39A28.43,28.43,0,0,0,1526.59,507.1Z"/><path class="cls-17" d="M484.21,509.18c12.91-10.27,25.56-4.15,29.3,5.73-8.1-28.26-17.36-33.14-17.36-33.14s15-5.42,24.86,28c.91-10,1.92-35.38,10.2-38.28-2.68,9.63-3.59,18.4-3.6,35.71,7.76-21.15,21.44-12.26,21.44-12.26s-11.92,1.2-16.08,22.75c10.79-15.05,16.33-18.36,28.32-6.68-26.19-11.17-18.45,13-27.51,22-2.53,2.53-16.59,1.39-18.19-.37C507.42,523.66,504.07,500.42,484.21,509.18Z"/><path class="cls-18" d="M628,214c2.8,54.23-191.82,54.23-189,0C436.2,159.77,630.82,159.77,628,214Z"/><path class="cls-19" d="M604,406c2.8,54.23-191.82,54.23-189,0C412.2,351.77,606.82,351.77,604,406Z"/><path class="cls-18" d="M119,189c2.8,54.23-191.82,54.23-189,0C-72.8,134.77,121.82,134.77,119,189Z"/><path class="cls-20" d="M180,263c2.67,51.65-182.68,51.65-180,0C-2.67,211.35,182.68,211.35,180,263Z"/><path class="cls-21" d="M310,310c2.4,46.48-164.41,46.48-162,0C145.6,263.52,312.41,263.52,310,310Z"/><path class="cls-22" d="M453,218.56c2.3,44.47-157.31,44.47-155,0C295.7,174.08,455.31,174.08,453,218.56Z"/><path class="cls-18" d="M462.66,135.35c1.91,37.09-131.2,37.09-129.27,0C331.47,98.26,464.58,98.26,462.66,135.35Z"/><path class="cls-18" d="M522.84,45.75c1.92,37.09-131.19,37.09-129.26,0C391.66,8.66,524.77,8.66,522.84,45.75Z"/><path class="cls-18" d="M345,197c2.8,54.23-191.82,54.23-189,0C153.2,142.77,347.82,142.77,345,197Z"/><path class="cls-23" d="M430,587c1.6-7.43,2.82-14.85,4-22.28s2.08-14.86,3-22.28c1.71-14.86,3-29.71,4-44.56.44-7.43.89-14.86,1.19-22.29s.57-14.85.77-22.28l1-44.56c.72-29.71,1.22-59.42,1.82-89.12s1-59.42,1.38-89.13q1.19-89.13,1.4-178.25c.14-59.42,0-118.83-1.1-178.25h45.22c-1.07,59.42-1.24,118.83-1.1,178.25s.61,118.83,1.4,178.25c.35,29.71.9,59.42,1.38,89.13s1.1,59.41,1.82,89.12l1,44.56c.2,7.43.4,14.86.77,22.28s.75,14.86,1.19,22.29c1,14.85,2.28,29.7,4,44.56.88,7.42,1.83,14.85,3,22.28s2.36,14.85,4,22.28Z"/><path class="cls-24" d="M565.13,513.26c1.09-6.4,2-12.81,2.76-19.22s1.45-12.82,2.06-19.23c1.2-12.82,2.1-25.64,2.78-38.45s1.09-25.64,1.37-38.46l.71-38.45,1.27-76.91.93-76.91c.37-25.63.46-51.27.67-76.91l.24-38.45L578,51.82c.1-51.28,0-102.55-.76-153.82h31.5C608-50.73,607.89.54,608,51.82l.09,38.45.24,38.45c.21,25.64.3,51.28.67,76.91l.93,76.91,1.27,76.91.71,38.45c.28,12.82.7,25.64,1.37,38.46s1.58,25.63,2.78,38.45c.61,6.41,1.27,12.82,2.06,19.23s1.67,12.82,2.76,19.22Z"/><path class="cls-24" d="M252.13,530.39c1.09-6.41,2-12.82,2.76-19.23s1.45-12.82,2.06-19.23c1.2-12.82,2.1-25.63,2.78-38.45s1.09-25.64,1.37-38.46l.71-38.45,1.27-76.91.93-76.91c.37-25.63.46-51.27.67-76.9l.24-38.46L265,68.94c.1-51.27,0-102.55-.76-153.82h31.5C295-33.61,294.89,17.67,295,68.94l.09,38.45.24,38.46c.21,25.63.3,51.27.67,76.9l.93,76.91,1.27,76.91L298.9,415c.28,12.82.7,25.64,1.37,38.46s1.58,25.63,2.78,38.45c.61,6.41,1.27,12.82,2.06,19.23s1.67,12.82,2.76,19.23Z"/><path class="cls-24" d="M332,643c1.18-7.43,2.13-14.85,3-22.28s1.56-14.86,2.22-22.28c1.29-14.86,2.25-29.71,3-44.56s1.17-29.71,1.47-44.57l.77-44.56,1.36-89.12,1-89.13c.4-29.71.49-59.42.71-89.12l.27-44.57.09-44.56C346,48.83,345.85-10.58,345-70H379c-.81,59.42-.93,118.83-.82,178.25l.09,44.56.27,44.57c.22,29.7.31,59.41.71,89.12l1,89.13,1.36,89.12.77,44.56c.3,14.86.75,29.71,1.47,44.57s1.7,29.7,3,44.56c.66,7.42,1.37,14.85,2.22,22.28s1.79,14.85,3,22.28Z"/><line class="cls-25" x1="473" y1="177" x2="573.5" y2="-28.5"/><path class="cls-18" d="M407,42c2.8,54.23-191.82,54.23-189,0C215.2-12.23,409.82-12.23,407,42Z"/><path class="cls-18" d="M688,126c2.8,54.23-191.82,54.23-189,0C496.2,71.77,690.82,71.77,688,126Z"/><path class="cls-18" d="M660.5,14c2.39,46.34-163.91,46.34-161.5,0C496.61-32.34,662.91-32.35,660.5,14Z"/><path class="cls-20" d="M269.24,245.93C271.15,283,138.05,283,140,245.93,138.06,208.84,271.17,208.84,269.24,245.93Z"/><path class="cls-20" d="M329.43,121.34c1.91,37.08-131.2,37.09-129.27,0C198.24,84.25,331.35,84.25,329.43,121.34Z"/><path class="cls-20" d="M213.58,117.58c2.81,54.23-191.81,54.23-189,0C21.78,63.36,216.4,63.36,213.58,117.58Z"/><path class="cls-21" d="M428.24,363.93C430.15,401,297.05,401,299,363.93,297.06,326.84,430.17,326.84,428.24,363.93Z"/><path class="cls-26" d="M488.43,274.34c1.91,37.08-131.2,37.09-129.27,0C357.24,237.25,490.35,237.25,488.43,274.34Z"/><path class="cls-19" d="M92,364c2,38.73-137,38.73-135,0C-45,325.27,94,325.27,92,364Z"/><path class="cls-18" d="M628.08,303.41c1.92,37.09-131.19,37.09-129.26,0C496.9,266.32,630,266.32,628.08,303.41Z"/><path class="cls-23" d="M202.56,558c3.05-25.64,4.54-51.27,5.58-76.91.49-12.82.79-25.63,1-38.45l.48-38.46,1-76.9.69-76.91c.27-25.64.33-51.27.48-76.91l.18-38.45L212,96.55c.07-51.27,0-102.54-.56-153.82h23.1C234-6,233.92,45.28,234,96.55l.07,38.46.18,38.45c.15,25.64.21,51.27.48,76.91l.69,76.91,1,76.9.48,38.46c.21,12.82.52,25.63,1,38.45,1,25.64,2.53,51.27,5.58,76.91Z"/><path class="cls-27" d="M334,420c2.8,54.23-191.82,54.23-189,0C142.2,365.77,336.82,365.77,334,420Z"/><path class="cls-24" d="M18.07,521.76c.54-6.41,1-12.82,1.37-19.23l.55-9.61.47-9.62c.33-6.41.55-12.81.79-19.22s.42-12.82.59-19.23c.75-25.64.79-51.27,1-76.91L23.54,291,24,214.12l.33-76.9.17-76.91c.06-25.64,0-51.27-.09-76.91L24.34-55l-.22-38.46H39.88L39.66-55,39.58-16.6c0,25.64-.15,51.27-.09,76.91l.17,76.91.33,76.9L40.46,291l.66,76.91c.25,25.64.29,51.27,1,76.91.17,6.41.33,12.82.59,19.23s.46,12.81.79,19.22l.47,9.62.55,9.61c.39,6.41.83,12.82,1.37,19.23Z"/><path class="cls-20" d="M106.08,42.41C108,79.5-25.11,79.5-23.18,42.41-25.1,5.32,108,5.32,106.08,42.41Z"/><path class="cls-24" d="M40.06,648a205.43,205.43,0,0,0,8.76-22.28q3.7-11.15,6.54-22.28a425.73,425.73,0,0,0,8.82-44.56c4.43-29.71,4.93-59.42,6.63-89.13q2.23-44.56,4-89.12c1.06-29.71,2.26-59.42,3-89.13Q80.49,202.37,81,113.25c0-14.85.13-29.71,0-44.56L81,46.41l-.23-22.28C80.55,9.27,80.32-5.58,80-20.44S79.18-50.15,78.5-65h100c-.68,14.85-1.1,29.71-1.45,44.56s-.6,29.71-.79,44.57L176,46.41l-.1,22.28c-.09,14.85,0,29.71,0,44.56q.41,89.13,3.18,178.25c.79,29.71,2,59.42,3,89.13q1.83,44.55,4,89.12c1.7,29.71,2.2,59.42,6.63,89.13a425.73,425.73,0,0,0,8.82,44.56q2.85,11.13,6.54,22.28A205.43,205.43,0,0,0,216.94,648Z"/><path class="cls-18" d="M1265,225.34c2.8,54.22-191.82,54.22-189,0C1073.2,171.11,1267.82,171.11,1265,225.34Z"/><path class="cls-27" d="M1241,417.34c2.8,54.22-191.82,54.22-189,0C1049.2,363.11,1243.82,363.11,1241,417.34Z"/><path class="cls-18" d="M756,200.34c2.8,54.22-191.82,54.22-189,0C564.2,146.11,758.82,146.11,756,200.34Z"/><path class="cls-20" d="M817,274.34c2.67,51.64-182.68,51.64-180,0C634.33,222.69,819.68,222.69,817,274.34Z"/><path class="cls-27" d="M947,321.34c2.4,46.48-164.41,46.48-162,0C782.6,274.85,949.41,274.85,947,321.34Z"/><path class="cls-22" d="M1090,285.89c2.3,44.47-157.31,44.47-155,0C932.7,241.42,1092.31,241.42,1090,285.89Z"/><path class="cls-18" d="M1129.66,167.68c1.91,37.09-131.2,37.09-129.27,0C998.47,130.6,1131.58,130.6,1129.66,167.68Z"/><path class="cls-18" d="M1159.84,57.09c1.92,37.09-131.19,37.09-129.26,0C1028.66,20,1161.77,20,1159.84,57.09Z"/><path class="cls-18" d="M984,193c2.8,54.23-191.82,54.23-189,0C792.2,138.77,986.82,138.77,984,193Z"/><path class="cls-24" d="M1067,598.34c1.6-7.43,2.82-14.86,4-22.29s2.08-14.85,3-22.28c1.71-14.85,3-29.71,4-44.56.44-7.43.89-14.85,1.19-22.28s.57-14.86.77-22.28l1-44.56c.72-29.71,1.22-59.42,1.82-89.13s1-59.42,1.38-89.12q1.19-89.13,1.4-178.25c.14-59.42,0-118.84-1.1-178.25h45.22c-1.07,59.41-1.24,118.83-1.1,178.25s.61,118.83,1.4,178.25c.35,29.7.9,59.41,1.38,89.12s1.1,59.42,1.82,89.13l1,44.56c.2,7.42.4,14.85.77,22.28s.75,14.85,1.19,22.28c1,14.85,2.28,29.71,4,44.56.88,7.43,1.83,14.86,3,22.28s2.36,14.86,4,22.29Z"/><path class="cls-23" d="M1202.13,524.6c1.09-6.41,2-12.82,2.76-19.23s1.45-12.81,2.06-19.22c1.2-12.82,2.1-25.64,2.78-38.46s1.09-25.63,1.37-38.45l.71-38.46,1.27-76.9L1214,217c.37-25.64.46-51.27.67-76.91l.24-38.45.09-38.46c.1-51.27,0-102.54-.76-153.81h31.5c-.74,51.27-.86,102.54-.76,153.81l.09,38.46.24,38.45c.21,25.64.3,51.27.67,76.91l.93,76.91,1.27,76.9.71,38.46c.28,12.82.7,25.63,1.37,38.45s1.58,25.64,2.78,38.46c.61,6.41,1.27,12.81,2.06,19.22s1.67,12.82,2.76,19.23Z"/><path class="cls-24" d="M889.13,541.72c1.09-6.41,2-12.82,2.76-19.23s1.45-12.81,2.06-19.22c1.2-12.82,2.1-25.64,2.78-38.46s1.09-25.63,1.37-38.45l.71-38.45L900.08,311l.93-76.91c.37-25.64.46-51.27.67-76.91l.24-38.45L902,80.27c.1-51.27,0-102.54-.76-153.81h31.5C932-22.27,931.89,29,932,80.27l.09,38.46.24,38.45c.21,25.64.3,51.27.67,76.91l.93,76.91,1.27,76.91.71,38.45c.28,12.82.7,25.64,1.37,38.45s1.58,25.64,2.78,38.46c.61,6.41,1.27,12.82,2.06,19.22s1.67,12.82,2.76,19.23Z"/><path class="cls-24" d="M969,654.34c1.18-7.43,2.13-14.86,3-22.29s1.56-14.85,2.22-22.28c1.29-14.85,2.25-29.71,3-44.56s1.17-29.71,1.47-44.56l.77-44.56L980.78,387l1-89.12c.4-29.71.49-59.42.71-89.13l.27-44.56.09-44.56C983,60.17,982.85.75,982-58.66H1016c-.81,59.41-.93,118.83-.82,178.25l.09,44.56.27,44.56c.22,29.71.31,59.42.71,89.13l1,89.12,1.36,89.13.77,44.56c.3,14.85.75,29.71,1.47,44.56s1.7,29.71,3,44.56c.66,7.43,1.37,14.86,2.22,22.28s1.79,14.86,3,22.29Z"/><line class="cls-25" x1="1110" y1="188.34" x2="1210.5" y2="-17.16"/><path class="cls-18" d="M1044,53.34c2.8,54.22-191.82,54.22-189,0C852.2-.89,1046.82-.89,1044,53.34Z"/><path class="cls-18" d="M1325,137.34c2.8,54.22-191.82,54.22-189,0C1133.2,83.11,1327.82,83.11,1325,137.34Z"/><path class="cls-18" d="M1297.5,25.33c2.39,46.34-163.91,46.34-161.5,0C1133.61-21,1299.91-21,1297.5,25.33Z"/><path class="cls-20" d="M892.24,259.27c1.91,37.09-131.19,37.09-129.27,0C761.06,222.18,894.17,222.18,892.24,259.27Z"/><path class="cls-20" d="M966.43,132.67c1.91,37.09-131.2,37.09-129.27,0C835.24,95.58,968.35,95.58,966.43,132.67Z"/><path class="cls-20" d="M850.58,128.92c2.81,54.23-191.81,54.23-189,0C658.78,74.69,853.4,74.69,850.58,128.92Z"/><path class="cls-26" d="M1065.24,375.27c1.91,37.09-131.19,37.09-129.27,0C934.06,338.18,1067.17,338.18,1065.24,375.27Z"/><path class="cls-26" d="M1125.43,285.67c1.91,37.09-131.2,37.09-129.27,0C994.24,248.58,1127.35,248.58,1125.43,285.67Z"/><path class="cls-21" d="M729,375.34c2,38.73-137,38.73-135,0C592,336.6,731,336.6,729,375.34Z"/><path class="cls-21" d="M1265.08,314.75c1.92,37.09-131.19,37.09-129.26,0C1133.9,277.66,1267,277.66,1265.08,314.75Z"/><path class="cls-24" d="M839.56,569.34c3.05-25.64,4.54-51.28,5.58-76.91.49-12.82.79-25.64,1-38.46l.48-38.45,1-76.91.69-76.91c.27-25.63.33-51.27.48-76.91l.18-38.45.07-38.45c.07-51.28,0-102.55-.56-153.82h23.1C871,5.34,870.92,56.61,871,107.89l.07,38.45.18,38.45c.15,25.64.21,51.28.49,76.91l.68,76.91,1,76.91.48,38.45c.21,12.82.52,25.64,1,38.46,1,25.63,2.53,51.27,5.58,76.91Z"/><path class="cls-28" d="M971,431.34c2.8,54.22-191.82,54.22-189,0C779.2,377.11,973.82,377.11,971,431.34Z"/><path class="cls-24" d="M655.07,533.09c.54-6.41,1-12.82,1.37-19.22l.55-9.62.47-9.61c.33-6.41.55-12.82.79-19.23s.42-12.82.59-19.23c.75-25.63.79-51.27,1-76.9l.66-76.91.47-76.91.33-76.91.17-76.91c.06-25.63,0-51.27-.09-76.9l-.08-38.46-.22-38.45h15.76l-.22,38.45-.08,38.46c-.05,25.63-.15,51.27-.09,76.9l.17,76.91.33,76.91.47,76.91.66,76.91c.25,25.63.29,51.27,1,76.9.17,6.41.33,12.82.59,19.23s.46,12.82.79,19.23l.47,9.61.55,9.62c.39,6.4.83,12.81,1.37,19.22Z"/><path class="cls-20" d="M743.08,53.75c1.92,37.09-131.19,37.09-129.26,0C611.9,16.66,745,16.66,743.08,53.75Z"/><path class="cls-18" d="M1575,243.34c2.8,54.22-191.82,54.22-189,0C1383.2,189.11,1577.82,189.11,1575,243.34Z"/><path class="cls-28" d="M1551,435.34c2.8,54.22-191.82,54.22-189,0C1359.2,381.11,1553.82,381.11,1551,435.34Z"/><path class="cls-18" d="M1947,79c2.8,54.23-191.82,54.23-189,0C1755.2,24.77,1949.82,24.77,1947,79Z"/><path class="cls-20" d="M1971,355.34c2.4,46.48-164.41,46.48-162,0C1806.6,308.85,1973.41,308.85,1971,355.34Z"/><path class="cls-22" d="M1400,247.89c2.3,44.47-157.31,44.47-155,0C1242.7,203.42,1402.31,203.42,1400,247.89Z"/><path class="cls-18" d="M1458,188.94c2.9,56.13-198.53,56.13-195.61,0C1259.49,132.82,1460.92,132.82,1458,188.94Z"/><path class="cls-18" d="M1469.84,75.09c1.92,37.09-131.19,37.09-129.26,0C1338.66,38,1471.77,38,1469.84,75.09Z"/><path class="cls-18" d="M1152,111c2.8,54.23-191.82,54.23-189,0C960.2,56.77,1154.82,56.77,1152,111Z"/><path class="cls-24" d="M1377,616.34c1.6-7.43,2.82-14.86,4-22.29s2.08-14.85,3-22.28c1.71-14.85,3-29.71,4-44.56.44-7.43.89-14.85,1.19-22.28s.57-14.86.77-22.28l1-44.56c.72-29.71,1.22-59.42,1.82-89.13s1-59.42,1.38-89.12q1.19-89.13,1.4-178.25c.14-59.42,0-118.84-1.1-178.25h45.22c-1.07,59.41-1.24,118.83-1.1,178.25s.61,118.83,1.4,178.25c.35,29.7.9,59.41,1.38,89.12s1.1,59.42,1.82,89.13l1,44.56c.2,7.42.4,14.85.77,22.28s.75,14.85,1.19,22.28c1,14.85,2.28,29.71,4,44.56.88,7.43,1.83,14.86,3,22.28s2.36,14.86,4,22.29Z"/><path class="cls-24" d="M1512.13,542.6c1.09-6.41,2-12.82,2.76-19.23s1.45-12.81,2.06-19.22c1.2-12.82,2.1-25.64,2.78-38.46s1.09-25.63,1.37-38.45l.71-38.46,1.27-76.9L1524,235c.37-25.64.46-51.27.67-76.91l.24-38.45.09-38.46c.1-51.27,0-102.54-.76-153.81h31.5c-.74,51.27-.86,102.54-.76,153.81l.09,38.46.24,38.45c.21,25.64.3,51.27.67,76.91l.93,76.91,1.27,76.9.71,38.46c.28,12.82.7,25.63,1.37,38.45s1.58,25.64,2.78,38.46c.61,6.41,1.27,12.81,2.06,19.22s1.67,12.82,2.76,19.23Z"/><line class="cls-25" x1="1420" y1="206.34" x2="1520.5" y2="0.84"/><path class="cls-18" d="M1635,155.34c2.8,54.22-191.82,54.22-189,0C1443.2,101.11,1637.82,101.11,1635,155.34Z"/><path class="cls-18" d="M1607.5,43.33c2.39,46.34-163.91,46.34-161.5,0C1443.61-3,1609.91-3,1607.5,43.33Z"/><path class="cls-20" d="M1930.24,256.27c1.91,37.09-131.19,37.09-129.27,0C1799.06,219.18,1932.17,219.18,1930.24,256.27Z"/><path class="cls-20" d="M1990.43,166.67c1.91,37.09-131.2,37.09-129.27,0C1859.24,129.58,1992.35,129.58,1990.43,166.67Z"/><path class="cls-27" d="M1575.08,332.75c1.92,37.09-131.19,37.09-129.26,0C1443.9,295.66,1577,295.66,1575.08,332.75Z"/><path class="cls-23" d="M1863.56,603.34c3-25.64,4.54-51.28,5.58-76.91.49-12.82.79-25.64,1-38.46l.48-38.45,1-76.91.69-76.91c.27-25.63.33-51.27.48-76.91l.18-38.45.07-38.45c.07-51.28,0-102.55-.56-153.82h23.1c-.55,51.27-.63,102.54-.56,153.82l.07,38.45.18,38.45c.15,25.64.21,51.28.49,76.91l.68,76.91,1,76.91.48,38.45c.21,12.82.52,25.64,1,38.46,1,25.63,2.53,51.27,5.58,76.91Z"/><path class="cls-18" d="M1995,465.34c2.8,54.22-191.82,54.22-189,0C1803.2,411.11,1997.82,411.11,1995,465.34Z"/><path class="cls-20" d="M1917.08,167.75c1.92,37.09-131.19,37.09-129.26,0C1785.9,130.66,1919,130.66,1917.08,167.75Z"/><path class="cls-17" d="M1192,574.18c12.91-10.27,25.56-4.16,29.3,5.73-8.1-28.27-17.36-33.15-17.36-33.15s15-5.41,24.86,28c.91-10,1.92-35.37,10.2-38.28-2.68,9.64-3.59,18.4-3.6,35.72,7.76-21.16,21.44-12.27,21.44-12.27s-11.92,1.2-16.08,22.76c10.79-15.06,16.33-18.36,28.32-6.68-26.19-11.18-18.45,13-27.51,22-2.53,2.53-16.59,1.4-18.19-.37C1215.17,588.66,1211.82,565.41,1192,574.18Z"/><path class="cls-29" d="M490.62,560.08c-16.51-1-34.81,2.21-47.43,13.59,12.53-29,43.16-30.9,70.38-24.17l.28-.92c-27.17-12-65.12-10.4-79.09,20.08-2.81-16.06-4.15-33-12.05-47.6l-.86.42c4.13,14.55,3.73,30,4.08,45-11.4-18.17-33.79-27.2-54.55-22.94l.07,1c21.3-.37,41.51,11.23,48.54,31.66-15.77-14.35-40.41-16.29-58.82-6l.4.87c32.23-8.59,45.23,4.61,63.37,24.66,19.55,9.85,21.32-41.49,91.1-29.82l.2-.93A118.25,118.25,0,0,0,490.62,560.08Z"/><path class="cls-30" d="M1330.46,607.09c-22.24-58.69-12.22-89.24-55.12-62.05l-.33-1.12c29.71-27.87,44.2-11.51,59.82,49.42.24-34.49-1.41-70.28,4.46-103.06l.7.43c-3,35.11,0,71.75,2.26,107.47,6.62-42.38,28.08-72.67,55.85-66.6l0,1.22c-28.74-.57-45.78,33.53-49.77,78,12-34.67,40.54-46.63,63.18-26.65l-.26,1.09c-29.45-19.2-51.36,46.77-72,47.85-36.8-3.66-11.55-74.75-67.11-31.83l-.38-1.09C1275.79,596.51,1296.35,562.36,1330.46,607.09Z"/><path class="cls-31" d="M231.71,568.6c-32.79-14.9-70.94-16.51-100.64,12.78,18.81-56.37,62.74-62.8,106.76-45.18C203.48,499,136.57,504.48,113.68,571.14c-2.12-20-8.32-103.62-19-108.83C100,496.1,98.34,531.5,98.36,566c-18-42.18-52.18-63.07-83.93-53.69-.57,4.45,2.82,2.51,4.7,3.32,28.71,3,57.16,28.31,66.81,71.29C60.88,556.92,25,552.8-2.79,576.1c100.15-23.29,66.53,76.21,122.69,58.95,20-17.4,33.94-50.18,57.06-57.32C201.4,564.78,264.24,583.84,231.71,568.6Z"/><path class="cls-30" d="M1225.33,688.47c-26.4-21-52.29-8.5-59.94,11.73,16.58-57.83,35.53-67.8,35.53-67.8s-30.68-11.08-50.86,57.29c-1.87-20.52-3.93-72.36-20.87-78.3,5.48,19.7,7.34,37.64,7.37,73.05-15.87-43.27-43.86-25.09-43.86-25.09s24.39,2.46,32.9,46.55c-22.09-30.79-33.41-37.56-57.93-13.66,53.57-22.86,37.73,26.52,56.26,45,5.19,5.17,33.94,2.85,37.22-.76C1177.86,718.09,1184.72,670.54,1225.33,688.47Z"/><path class="cls-30" d="M825.75,620.89c33-26.24,65.32-10.61,74.87,14.65-20.71-72.24-44.38-84.69-44.38-84.69s38.33-13.85,63.54,71.56c2.33-25.62,4.91-90.39,26.07-97.81-6.85,24.61-9.18,47-9.2,91.26,19.81-54.06,54.78-31.35,54.78-31.35s-30.47,3.07-41.1,58.16c27.59-38.47,41.73-46.92,72.37-17.07-66.92-28.56-47.13,33.13-70.28,56.22-6.48,6.47-42.4,3.57-46.49-.94C885.05,657.89,876.48,598.49,825.75,620.89Z"/><path class="cls-29" d="M1857,623.08c8.57-.77,18.08,1.71,24.64,10.52-6.51-22.48-22.43-23.92-36.57-18.71l-.15-.71c14.12-9.27,33.84-8.06,41.1,15.54,1.46-12.43,2.15-25.57,6.26-36.85l.45.32c-2.15,11.27-1.94,23.24-2.12,34.87C1896.56,614,1908.19,607,1919,610.3l0,.74c-11.07-.29-21.57,8.69-25.23,24.51,8.2-11.11,21-12.61,30.57-4.67l-.21.67c-16.75-6.65-23.5,3.57-32.93,19.09-10.16,7.63-11.08-32.12-47.34-23.08l-.1-.73A44,44,0,0,1,1857,623.08Z"/><path class="cls-32" d="M1284.28,747.92c39.51-18,85.47-19.89,121.26,15.4-22.66-67.93-36.65-77.51-89.69-56.27,41.38-44.78,83.07-36.39,110.65,43.92,2.54-24.09,10-124.84,22.94-131.12-6.42,40.72-4.46,83.36-4.49,125,21.68-50.82,62.88-76,101.13-64.69.68,5.36-3.4,3-5.67,4-34.58,3.65-68.86,34.11-80.49,85.9,30.19-36.17,73.39-41.14,106.91-13.07-120.67-28.06-80.16,91.83-147.84,71C1394.85,807,1383.86,740.21,1284.28,747.92Z"/><path class="cls-24" d="M1279,672.34c1.18-7.43,2.13-14.86,3-22.29s1.56-14.85,2.22-22.28c1.29-14.85,2.25-29.71,3-44.56s1.17-29.71,1.47-44.56l.77-44.56,1.36-89.13,1-89.12c.4-29.71.49-59.42.71-89.13l.27-44.56.09-44.56c.11-59.42,0-118.84-.82-178.25H1326c-.81,59.41-.93,118.83-.82,178.25l.09,44.56.27,44.56c.22,29.71.31,59.42.71,89.13l1,89.12,1.36,89.13.77,44.56c.3,14.85.75,29.71,1.47,44.56s1.7,29.71,3,44.56c.66,7.43,1.37,14.86,2.22,22.28s1.79,14.86,3,22.29Z"/><path class="cls-18" d="M1457,11c2.8,54.23-191.82,54.23-189,0C1265.2-43.23,1459.82-43.23,1457,11Z"/><path class="cls-20" d="M1345,253c2.8,54.23-191.82,54.23-189,0C1153.2,198.77,1347.82,198.77,1345,253Z"/><path class="cls-19" d="M1375.24,393.27c1.91,37.09-131.19,37.09-129.27,0C1244.06,356.18,1377.17,356.18,1375.24,393.27Z"/><path class="cls-26" d="M1435.43,303.67c1.91,37.09-131.2,37.09-129.27,0C1304.24,266.58,1437.35,266.58,1435.43,303.67Z"/><path class="cls-29" d="M738.89,533c-12.27-.74-25.87,1.65-35.25,10.1,9.31-21.58,32.08-23,52.31-18l.21-.68c-20.2-8.89-48.4-7.73-58.79,14.93-2.09-11.94-3.08-24.56-9-35.39l-.64.32c3.07,10.81,2.78,22.31,3,33.47-8.48-13.5-25.12-20.22-40.55-17l0,.71c15.83-.27,30.86,8.35,36.09,23.53-11.73-10.66-30-12.1-43.73-4.48l.3.64c23.95-6.38,33.61,3.43,47.1,18.33,14.53,7.33,15.85-30.83,67.72-22.16l.14-.7A87.89,87.89,0,0,0,738.89,533Z"/><path class="cls-23" d="M677.06,659.34a205.58,205.58,0,0,0,8.76-22.29q3.7-11.13,6.54-22.28a425.22,425.22,0,0,0,8.82-44.56c4.43-29.71,4.93-59.42,6.63-89.12q2.24-44.56,4-89.13c1.06-29.71,2.26-59.42,3.05-89.12q2.64-89.13,3.18-178.25c0-14.86.13-29.71,0-44.57L718,57.74l-.23-22.28c-.19-14.85-.42-29.71-.79-44.56s-.77-29.71-1.45-44.56h100c-.68,14.85-1.1,29.7-1.45,44.56s-.6,29.71-.79,44.56L813,57.74,812.93,80c-.09,14.86,0,29.71,0,44.57q.4,89.11,3.18,178.25c.79,29.7,2,59.41,3.05,89.12q1.83,44.57,4,89.13c1.7,29.7,2.2,59.41,6.63,89.12a425.22,425.22,0,0,0,8.82,44.56q2.85,11.15,6.54,22.28a205.58,205.58,0,0,0,8.76,22.29Z"/></g><g id="tree-2" data-name="tree"><path class="cls-23" d="M1415.16,948.18c2.73-3.11,5.2-6.21,7.58-9.31l3.48-4.66c1.14-1.55,2.23-3.1,3.33-4.65q6.48-9.31,12.07-18.62a393.09,393.09,0,0,0,19.72-37.24c1.43-3.11,2.87-6.21,4.18-9.31l2-4.66,1.9-4.65c2.58-6.21,4.9-12.42,7.11-18.62,4.4-12.42,8.17-24.83,11.41-37.24a480,480,0,0,0,13.09-74.48l3.51-37.24,1.75-18.62,1.65-18.62,3.27-37.24,3-37.24,1.52-18.62,1.41-18.62L1520,501.3q5.3-74.48,9.35-149c5.23-99.31,8.66-198.61,9.5-297.92.42-49.65.22-99.31-.88-149-.56-24.83-1.31-49.65-2.38-74.48s-2.38-49.65-4.42-74.48h301.76c-2,24.83-3.33,49.65-4.42,74.48s-1.82,49.65-2.37,74.48c-1.11,49.65-1.3,99.31-.89,149,.85,99.31,4.28,198.61,9.5,297.92q4,74.48,9.35,149l2.79,37.24,1.41,18.62,1.52,18.62,3,37.24,3.28,37.24,1.64,18.62,1.76,18.62,3.5,37.24a481.22,481.22,0,0,0,13.1,74.48c3.24,12.41,7,24.82,11.4,37.24,2.21,6.2,4.53,12.41,7.11,18.62l1.9,4.65,2,4.66c1.31,3.1,2.75,6.2,4.18,9.31a390.93,390.93,0,0,0,19.73,37.24q5.6,9.3,12.06,18.62c1.1,1.55,2.19,3.1,3.33,4.65l3.49,4.66c2.37,3.1,4.84,6.2,7.58,9.31Z"/><path class="cls-33" d="M1743.5-157,1722.42,30.42l31.63,187.42-72,221.36V510l-56.64,19.82-49.56,105.69C1521.51,720,1518,691.74,1521,796.3l59.64,62.29-78.5,89.59h446.94l-64.3-121c-46.83-280.37-52-671.66-58-955.69Z"/></g><g id="ants-2" data-name="ants"><path id="fi-ants-2" class="cls-34" d="M1815.73-35.13c-24.55,28.33-25,95.21-17.4,135.14,0,0,38.75,201.27,25.31,257.81s-16.48,181.63,2.83,231.77c46.6,130.77-12.51,270.91,122.64,358.59"/><path id="fi-ants-1" class="cls-35" d="M1806.24-31.57c-24.55,28.33-25,95.2-17.4,135.14,0,0,38.75,201.26,25.31,257.8S1797.67,543,1817,593.15c46.6,130.77-12.51,270.91,122.64,358.59"/><path id="fi-ants-1-digit" class="cls-36" d="M1678,833c1.19,6,.09,1.74.14,7.82.12,13.95,56.16,10.65,74.75,8.18,14-1.86-6.32-5.55-4.89-16,1.58-11.51,18.09-10.48,3.16-14C1729.16,815.49,1672.7,805,1678,833Z"/><path id="fi-ants-10-digit" class="cls-37" d="M1587.58,829c1.28,6-12.38,1.28-12.33,7.36.13,14,60.39,10.65,80.39,8.18,15-1.85-6.51-6.09-5-16.54,1.7-11.51,19.16-9.94,3.11-13.46-18.33-4-73.87-9.3-76.78,3.77C1575.75,823.91,1586.39,823.39,1587.58,829Z"/></g><g id="plants-foreground-2" data-name="plants-foreground"><path class="cls-38" d="M1355,856.56l119.58-56.3,110.78-29.58,138.27,7.82c154.73,78.46,110.5,58.34,188.61,206L1607.67,1012,1353,962Z"/><path class="cls-39" d="M2013,962l-100.72,22.53c-78.65-131.63-49.22-126.91-188.61-206C1894.19,845.79,1888.9,815.25,2013,962Z"/><path class="cls-30" d="M1915.67,963.63c-34.09-9.1-66.63-1.72-81.67,28.37,22-44,40.18-61.72,95-44.14l.3-.83c-38.78-18.77-88.19-10.12-101.89,35.17-3.34-25.16-4.48-51.36-14.56-75l-.82.35c6.76,25.46,6.31,52.36,6.74,78.54-11.83-30.57-40.75-51.55-74.15-45.65l.07.89c35.08-1.93,58.92,22,67.73,54.32-17.74-24.67-53.68-31.89-79.59-16.11l.43.78c33.65-15.45,66.13,5.83,82.56,35.4,16,24.23,47.45-76,115.69-45.08l.37-.82A79.08,79.08,0,0,0,1915.67,963.63Z"/><path class="cls-29" d="M1612.7,914.1c-39-2.35-82.23,5.22-112,32.1,29.61-68.6,102-73,166.27-57.11l.67-2.16c-64.2-28.28-153.84-24.58-186.84,47.42-6.64-37.94-9.81-78-28.49-112.45l-2,1c9.76,34.37,8.81,70.91,9.63,106.39-26.93-42.92-79.82-64.25-128.86-54.19l.15,2.25c50.32-.86,98.08,26.54,114.69,74.81-37.26-33.9-95.48-38.49-139-14.26l.95,2c84.5-22.52,113,18.38,164.34,74.42,0,0,.08,0,.1,0s2.08,0,2.16,0c47.23-79.23,110.38-98,198.34-86.59l.46-2.21A279.45,279.45,0,0,0,1612.7,914.1Z"/><path class="cls-32" d="M1902.59,1013c-65.4-19.3-141.48-21.38-200.71,16.54,39.67-78.56,138.39-78.52,212.91-58.49-68.5-48.12-202-41.07-247.6,45.23-4.22-25.89-16.6-134.16-38-140.9,10.63,43.74,7.38,89.57,7.44,134.28-35.89-54.62-104.09-81.67-167.4-69.52-1.14,5.76,5.62,3.25,9.38,4.29,57.24,3.93,114,36.66,133.23,92.31-50-38.87-121.48-44.2-177-14,112.71-9.25,129.06,11,204.28,95,44.92-.26,83.13-84.35,154.22-92.92,22-5.16,45.26-6.85,67.86-6.83C1876.21,1016.75,1957,1029.51,1902.59,1013Z"/></g><g id="boulder"><path class="cls-40" d="M-85.67,639.56,37,578l250-19,165,36.48c102.5-.65,339.25,4.59,435.5,37.1L1009,659.22l68,63.17,195.5,94.11c19,57.47,76.59,225.6,98.5,284.54l-18.61,111.52H-72Z"/><path class="cls-41" d="M1510.45,1099.67c-16.45,8.33-158.06,112.89-158.06,112.89L1371,1101,1272.5,816.5S1077,722.78,1077,722.39s-68-63.17-68-63.17c77.6,49.5,244.11,119,332.69,144.41,0,0,140.31,200,140.31,200Z"/></g></g></svg>