<svg xmlns="http://www.w3.org/2000/svg" xmlns:xlink="http://www.w3.org/1999/xlink" viewBox="0 0 1920 1080"><defs><style>.cls-1{opacity:0.5;}.cls-2{opacity:0.7;}.cls-3{fill:#e5dfe1;}.cls-4{fill:#5b6020;}.cls-5{fill:#b0af45;}.cls-6{fill:#787838;}.cls-7{fill:#848040;}.cls-8{fill:#979639;}.cls-9{fill:#867a3e;}.cls-10{fill:#6a783d;}.cls-11{fill:#84802c;}.cls-12{fill:#5c7312;}.cls-13{fill:#4a5e20;}.cls-14{fill:#4a6220;}.cls-15{fill:url(#linear-gradient);}.cls-16{fill:#65892b;}.cls-17{fill:#556332;}.cls-18{fill:#80813b;}.cls-19{fill:#4c4c1d;}.cls-20{fill:#342b1a;}.cls-21{fill:#595922;}.cls-22{fill:#696929;}.cls-23{fill:#9a9a3a;}.cls-24{fill:#7a7a2f;}.cls-25{fill:#939339;}.cls-26{fill:#3c362a;}.cls-27,.cls-44{fill:none;}.cls-27{stroke:#3c362a;stroke-width:20.64px;}.cls-27,.cls-37,.cls-38,.cls-39,.cls-40,.cls-41,.cls-42,.cls-44{stroke-miterlimit:10;}.cls-28{fill:#75752d;}.cls-29{fill:#6b8031;}.cls-30{fill:#718544;}.cls-31{fill:#82984d;}.cls-32{fill:#382f1c;}.cls-33{fill:#2e2718;}.cls-34{fill:#332b1b;}.cls-35{fill:#2e2617;}.cls-36{fill:#292214;}.cls-37,.cls-38,.cls-39,.cls-40,.cls-41,.cls-42{fill:#875837;stroke:#262113;}.cls-37{stroke-width:2.16px;}.cls-38{stroke-width:2.06px;}.cls-39{stroke-width:1.87px;}.cls-40{stroke-width:1.94px;}.cls-41{stroke-width:1.87px;}.cls-42{stroke-width:1.86px;}.cls-43{fill:#757532;}.cls-44{stroke:#541d16;stroke-linecap:round;stroke-width:4.13px;stroke-dasharray:3.1 25.81 3.1 46.45 3.1 12.39;}</style><linearGradient id="linear-gradient" x1="973.92" y1="-30.71" x2="973.92" y2="900.34" gradientUnits="userSpaceOnUse"><stop offset="0" stop-opacity="0"/><stop offset="0.6" stop-opacity="0.5"/><stop offset="0.74" stop-color="#1d191a" stop-opacity="0.34"/><stop offset="0.76" stop-color="#1c191a" stop-opacity="0.3"/><stop offset="0.82" stop-color="#111010" stop-opacity="0.19"/><stop offset="1" stop-opacity="0"/></linearGradient></defs><g id="fern-message"><g id="background"><rect class="cls-3" x="-79.27" y="-47.05" width="2085.05" height="578.03"/><rect class="cls-4" x="-79.27" y="504.15" width="2085.05" height="671.96"/><path class="cls-5" d="M746.58,127.39c9.71,134.38-593.68,134.38-583.92,0C153-7,756.33-7,746.58,127.39Z"/><rect class="cls-6" x="-79.27" y="417.44" width="2085.05" height="97.03"/><path class="cls-7" d="M1996.13,162.32c9.71,134.37-593.68,134.37-583.92,0C1402.5,27.94,2005.89,27.94,1996.13,162.32Z"/><path class="cls-8" d="M1614.22,270.35c5.81,72.47-344,72.47-338.2,0C1270.2,197.88,1620.06,197.88,1614.22,270.35Z"/><path class="cls-8" d="M304.65,242.2c5.81,72.47-344,72.47-338.21,0C-39.37,169.73,310.49,169.73,304.65,242.2Z"/><path class="cls-9" d="M53.45,444.07c-.25,85.21-154.83,85.21-155.06,0C-101.36,358.85,53.21,358.86,53.45,444.07Z"/><path class="cls-7" d="M122.74,407.6c-.5,132.86-224.24,132.85-224.72,0C-101.48,274.75,122.26,274.76,122.74,407.6Z"/><path class="cls-10" d="M189.06,431.19c-.35,78.55-121,78.54-121.31,0C68.09,352.64,188.72,352.64,189.06,431.19Z"/><path class="cls-11" d="M248.45,378.49c-.29,85.32-149.76,85.32-150,0C98.7,293.16,248.18,293.17,248.45,378.49Z"/><path class="cls-9" d="M285.47,452.58c-.28,85.33-149.76,85.32-150,0C135.73,367.25,285.2,367.26,285.47,452.58Z"/><path class="cls-7" d="M364.58,400.14c-.64,147.62-150.89,147.61-151.52,0C213.7,252.52,364,252.53,364.58,400.14Z"/><path class="cls-12" d="M417.83,434.83c-.34,78.55-121,78.55-121.31,0C296.87,356.28,417.5,356.29,417.83,434.83Z"/><path class="cls-11" d="M477.23,382.13c-.29,85.33-149.76,85.32-150,0C327.48,296.8,477,296.81,477.23,382.13Z"/><path class="cls-9" d="M514.25,456.23c-.29,85.32-149.76,85.32-150,0C364.51,370.9,514,370.91,514.25,456.23Z"/><path class="cls-9" d="M586.05,427.85c.18,68.19-161.89,68.18-161.69,0C424.18,359.66,586.25,359.67,586.05,427.85Z"/><path class="cls-7" d="M658.3,378.07c-.53,133.4-218.89,133.38-219.4,0C439.43,244.67,657.79,244.69,658.3,378.07Z"/><path class="cls-10" d="M727.46,417.52c-.08,62.88-126.43,62.87-126.5,0S727.39,354.65,727.46,417.52Z"/><path class="cls-7" d="M1622.51,376.56c-.43,94.7-144,94.69-144.38,0C1478.56,281.87,1622.09,281.88,1622.51,376.56Z"/><path class="cls-12" d="M1696.83,314.13c-.09,62.88-126.43,62.87-126.5,0C1570.41,251.25,1696.75,251.25,1696.83,314.13Z"/><path class="cls-11" d="M1926,340c.12,68.29-156.57,68.28-156.44,0C1769.41,271.71,1926.1,271.72,1926,340Z"/><path class="cls-9" d="M2017.48,393.74c.63,75.55-210,75.54-209.35,0C1807.51,318.2,2018.13,318.21,2017.48,393.74Z"/><path class="cls-9" d="M1991.22,253.54c-.24,85.22-154.82,85.21-155,0C1836.42,168.32,1991,168.33,1991.22,253.54Z"/><path class="cls-7" d="M1834.46,349c-.66,136-188.27,136-188.92,0C1646.2,213,1833.82,213,1834.46,349Z"/><path class="cls-9" d="M1536.55,393.74c-.29,85.33-149.76,85.32-150,0C1386.8,308.41,1536.28,308.42,1536.55,393.74Z"/><path class="cls-13" d="M1358.6,1060.26c39.45,23.54-1475,79.08-1437.33,52.7C-118.19,1089.42,1396.32,1033.89,1358.6,1060.26Z"/><path class="cls-14" d="M1182.08,582.49c25.73,35.34-1006.13,35.34-980.33,0C176,547.16,1207.88,547.16,1182.08,582.49Z"/></g><g id="shade"><rect class="cls-15" x="-86.15" y="-30.71" width="2120.15" height="931.05"/></g><g id="plants-background"><path class="cls-16" d="M1764.22,609.21c8.57-.77,18.08,1.71,24.64,10.52-6.51-22.48-22.43-23.93-36.57-18.72l-.14-.71c14.11-9.26,33.83-8,41.09,15.55,1.46-12.44,2.16-25.58,6.26-36.86l.45.33c-2.15,11.26-1.94,23.24-2.12,34.86,5.92-14.06,17.56-21,28.34-17.75l0,.73c-11.07-.28-21.57,8.7-25.23,24.52,8.2-11.11,21-12.61,30.57-4.68l-.21.67c-16.74-6.64-23.5,3.58-32.92,19.1-10.17,7.63-11.08-32.12-47.34-23.09l-.1-.72A43.87,43.87,0,0,1,1764.22,609.21Z"/><path class="cls-17" d="M1931,552.81c-14.28-11.37-28.29-4.6-32.42,6.34,9-31.28,19.21-36.67,19.21-36.67s-16.59-6-27.51,31c-1-11.09-2.12-39.13-11.28-42.34,3,10.65,4,20.35,4,39.51-8.58-23.41-23.72-13.57-23.72-13.57s13.19,1.33,17.79,25.18c-11.94-16.66-18.06-20.32-31.33-7.39,29-12.37,20.41,14.34,30.43,24.34,2.81,2.8,18.36,1.54,20.13-.41C1905.29,568.83,1909,543.11,1931,552.81Z"/><path class="cls-17" d="M1534.61,553.1c12.9-10.27,25.56-4.15,29.3,5.73-8.11-28.27-17.37-33.14-17.37-33.14s15-5.42,24.87,28c.91-10,1.92-35.38,10.2-38.28-2.68,9.63-3.59,18.4-3.6,35.71,7.75-21.15,21.43-12.27,21.43-12.27s-11.92,1.21-16.08,22.76c10.8-15,16.33-18.36,28.32-6.68-26.19-11.17-18.44,13-27.5,22-2.54,2.53-16.6,1.39-18.2-.37C1557.82,567.58,1554.46,544.34,1534.61,553.1Z"/><path class="cls-17" d="M345.73,554.25C358.64,544,371.29,550.1,375,560c-8.1-28.27-17.37-33.15-17.37-33.15s15-5.42,24.87,28c.91-10,1.92-35.37,10.2-38.28-2.68,9.63-3.59,18.4-3.6,35.71,7.75-21.15,21.44-12.26,21.44-12.26s-11.93,1.2-16.08,22.76c10.79-15.06,16.33-18.37,28.32-6.68-26.19-11.18-18.45,13-27.51,22-2.54,2.53-16.59,1.39-18.19-.37C368.94,568.73,365.58,545.49,345.73,554.25Z"/><path class="cls-18" d="M1799.69,180.9c2.89,56-198,56-195.09,0C1601.71,124.92,1802.59,124.92,1799.69,180.9Z"/><path class="cls-19" d="M1765.62,415.21c2.9,56-198,56-195.08,0C1567.64,359.23,1768.53,359.23,1765.62,415.21Z"/><path class="cls-20" d="M1615.4,557.38c1.13-6.61,2-13.23,2.85-19.84s1.5-13.23,2.13-19.85c1.23-13.23,2.16-26.46,2.87-39.69s1.11-26.46,1.41-39.69l.73-39.69,1.31-79.39,1-79.38c.39-26.47.47-52.93.69-79.39l.25-39.69.09-39.69c.11-52.93,0-105.85-.78-158.77h32.52c-.77,52.92-.9,105.84-.79,158.77l.09,39.69.25,39.69c.22,26.46.31,52.92.69,79.39l1,79.38,1.31,79.39.74,39.69c.29,13.23.72,26.46,1.41,39.69s1.63,26.46,2.87,39.69c.63,6.62,1.31,13.23,2.13,19.85s1.72,13.23,2.84,19.84Z"/><path class="cls-21" d="M1595.31,307.86c2.89,56-198,56-195.09,0C1397.33,251.88,1598.22,251.88,1595.31,307.86Z"/><path class="cls-18" d="M1523.1,202.8c2.89,56-198,56-195.09,0C1325.12,146.82,1526,146.82,1523.1,202.8Z"/><path class="cls-18" d="M579.39,256.68c2.89,56-198,56-195.08,0C381.41,200.71,582.3,200.71,579.39,256.68Z"/><path class="cls-22" d="M582,412.86c2.9,56-198,56-195.08,0C384,356.88,584.88,356.88,582,412.86Z"/><path class="cls-18" d="M81.35,188.87c2.9,56-198,56-195.08,0C-116.62,132.89,84.26,132.89,81.35,188.87Z"/><path class="cls-23" d="M144.32,265.25c2.75,53.31-188.57,53.31-185.8,0C-44.23,211.94,147.09,211.94,144.32,265.25Z"/><path class="cls-24" d="M278.5,313.76c2.48,48-169.7,48-167.21,0C108.81,265.79,281,265.79,278.5,313.76Z"/><path class="cls-25" d="M426.11,219.37c2.37,45.91-162.38,45.91-160,0C263.75,173.47,428.49,173.47,426.11,219.37Z"/><path class="cls-18" d="M436.08,133.49c2,38.28-135.42,38.28-133.43,0C300.67,95.21,438.07,95.21,436.08,133.49Z"/><path class="cls-18" d="M498.2,41c2,38.28-135.42,38.28-133.43,0C362.79,2.72,500.19,2.72,498.2,41Z"/><path class="cls-18" d="M314.63,197.12c2.89,56-198,56-195.08,0C116.65,141.15,317.54,141.15,314.63,197.12Z"/><path class="cls-26" d="M412.69,599.68c1.21-7.66,2.2-15.33,3.06-23s1.62-15.34,2.3-23c1.33-15.34,2.32-30.67,3.09-46s1.2-30.67,1.52-46l.78-46,1.41-92,1-92c.41-30.66.51-61.33.74-92l.27-46,.1-46c.11-61.33,0-122.66-.85-184h35c-.83,61.33-1,122.66-.85,184l.1,46,.27,46c.24,30.66.33,61.33.74,92l1,92,1.41,92,.79,46c.31,15.33.78,30.67,1.52,46s1.76,30.66,3.09,46c.68,7.66,1.41,15.33,2.29,23s1.85,15.33,3.06,23Z"/><path class="cls-26" d="M541.85,523.57c1.13-6.61,2-13.23,2.85-19.84s1.5-13.23,2.13-19.85c1.23-13.23,2.16-26.46,2.87-39.69s1.12-26.46,1.41-39.69l.73-39.7,1.31-79.38,1-79.38c.39-26.47.47-52.93.69-79.39L555.05,87l.1-39.69c.1-52.93,0-105.85-.79-158.77h32.52c-.77,52.92-.89,105.84-.79,158.77L586.18,87l.25,39.69c.22,26.46.31,52.92.69,79.39l1,79.38,1.31,79.38.73,39.7c.29,13.23.72,26.46,1.41,39.69s1.63,26.46,2.87,39.69c.63,6.62,1.31,13.23,2.13,19.85s1.72,13.23,2.84,19.84Z"/><path class="cls-26" d="M218.77,541.25c1.13-6.62,2-13.23,2.85-19.85s1.5-13.23,2.13-19.85c1.23-13.23,2.16-26.46,2.87-39.69s1.12-26.46,1.41-39.69l.73-39.69,1.31-79.39,1-79.38c.38-26.46.46-52.93.68-79.39l.25-39.69.1-39.69c.1-52.92,0-105.85-.79-158.77H263.8C263-40.91,262.91,12,263,64.94l.09,39.69.26,39.69c.21,26.46.3,52.93.68,79.39l1,79.38,1.31,79.39.73,39.69c.29,13.23.72,26.46,1.41,39.69s1.64,26.46,2.87,39.69c.63,6.62,1.31,13.24,2.13,19.85s1.72,13.23,2.84,19.85Z"/><path class="cls-26" d="M301.21,657.49c1.22-7.67,2.2-15.34,3.07-23s1.61-15.33,2.29-23c1.33-15.33,2.33-30.67,3.09-46s1.2-30.66,1.52-46l.79-46,1.41-92,1-92c.42-30.67.51-61.33.74-92l.27-46,.1-46c.12-61.33,0-122.66-.85-184h35c-.84,61.33-1,122.66-.85,184l.1,46,.27,46c.23,30.67.32,61.33.74,92l1,92,1.41,92,.79,46c.32,15.34.78,30.67,1.52,46s1.76,30.67,3.09,46c.68,7.67,1.41,15.33,2.29,23s1.85,15.33,3.07,23Z"/><line class="cls-27" x1="446.75" y1="176.48" x2="550.49" y2="-35.64"/><path class="cls-18" d="M296.5,46.68c2.89,56-198,56-195.09,0C98.52-9.3,299.4-9.3,296.5,46.68Z"/><path class="cls-18" d="M668.68,123.84c2.89,56-198,56-195.09,0C470.7,67.86,671.59,67.86,668.68,123.84Z"/><path class="cls-18" d="M640.29,8.22c2.47,47.83-169.18,47.83-166.7,0C471.12-39.61,642.78-39.61,640.29,8.22Z"/><path class="cls-23" d="M236.43,247.63c2,38.29-135.42,38.29-133.43,0C101,209.35,238.42,209.35,236.43,247.63Z"/><path class="cls-23" d="M298.56,119c2,38.29-135.42,38.29-133.43,0C163.15,80.74,300.55,80.74,298.56,119Z"/><path class="cls-23" d="M179,115.15c2.9,56-198,56-195.08,0C-19,59.18,181.89,59.18,179,115.15Z"/><path class="cls-24" d="M400.55,369.43c2,38.29-135.42,38.29-133.43,0C265.14,331.15,402.54,331.15,400.55,369.43Z"/><path class="cls-28" d="M462.68,277c2,38.28-135.42,38.28-133.43,0C327.27,238.67,464.67,238.67,462.68,277Z"/><path class="cls-22" d="M53.48,369.5c2.07,40-141.42,40-139.34,0C-87.93,329.52,55.56,329.52,53.48,369.5Z"/><path class="cls-18" d="M681.8,263.36c2,38.28-135.41,38.28-133.42,0C546.4,225.08,683.79,225.08,681.8,263.36Z"/><path class="cls-20" d="M167.61,569.75c1.62-13.23,2.73-26.46,3.65-39.69s1.58-26.46,2.1-39.69.82-26.47,1-39.7l.5-39.69,1-79.38.71-79.39c.28-26.46.34-52.92.5-79.38l.19-39.7.07-39.69c.07-52.92,0-105.85-.58-158.77h23.85c-.57,52.92-.66,105.85-.58,158.77l.07,39.69.18,39.7c.16,26.46.23,52.92.51,79.38l.7,79.39,1,79.38.5,39.69c.21,13.23.53,26.46,1,39.7s1.2,26.46,2.11,39.69,2,26.46,3.65,39.69Z"/><path class="cls-21" d="M303.28,427.31c2.89,56-198,56-195.09,0C105.3,371.33,306.19,371.33,303.28,427.31Z"/><path class="cls-26" d="M-22.83,532.34c.56-6.62,1-13.23,1.41-19.85l.58-9.92.48-9.92c.34-6.62.57-13.23.81-19.85s.44-13.23.61-19.84c.78-26.47.82-52.93,1.08-79.39l.68-79.38.48-79.39.34-79.38L-16.18,56c.07-26.46,0-52.92-.09-79.38L-16.35-63l-.23-39.69H-.32L-.54-63l-.09,39.7C-.67,3.11-.78,29.57-.71,56l.17,79.39L-.2,214.8l.49,79.39L1,373.57C1.22,400,1.27,426.49,2,453c.17,6.61.34,13.23.61,19.84s.47,13.23.82,19.85L4,502.57l.57,9.92c.4,6.62.85,13.23,1.42,19.85Z"/><path class="cls-23" d="M68,37.56c2,38.28-135.42,38.28-133.43,0C-67.39-.72,70-.72,68,37.56Z"/><path class="cls-18" d="M738.87,200.57c2.89,56-198,56-195.09,0C540.89,144.59,741.78,144.59,738.87,200.57Z"/><path class="cls-21" d="M1781.39,322.37c2.48,48-169.71,48-167.21,0C1611.7,274.39,1783.89,274.39,1781.39,322.37Z"/><path class="cls-25" d="M1929,285.78c2.37,45.91-162.38,45.91-160,0C1766.63,239.88,1931.38,239.88,1929,285.78Z"/><path class="cls-18" d="M1969.93,163.77c2,38.28-135.42,38.28-133.43,0C1834.52,125.49,1971.92,125.49,1969.93,163.77Z"/><path class="cls-18" d="M2001.09,49.61c2,38.28-135.42,38.28-133.43,0C1865.68,11.33,2003.08,11.33,2001.09,49.61Z"/><path class="cls-26" d="M1905.26,608.29c1.65-7.67,2.91-15.33,4.08-23s2.15-15.33,3.06-23c1.77-15.33,3.1-30.66,4.12-46,.45-7.66.92-15.33,1.22-23s.6-15.33.8-23l1-46q.56-23,1-46l.91-46c.49-30.66,1-61.33,1.42-92q1.23-92,1.49-184c0-61.33-.05-122.66-1.19-184h46.69c-1.14,61.33-1.24,122.66-1.19,184s.67,122.66,1.49,184c.37,30.66.93,61.33,1.42,92l.91,46q.42,23,1,46l1,46c.2,7.67.42,15.34.8,23s.77,15.34,1.22,23c1,15.34,2.35,30.67,4.12,46,.91,7.67,1.89,15.33,3.06,23s2.43,15.33,4.08,23Z"/><path class="cls-26" d="M1721.66,549.85c1.13-6.61,2-13.23,2.85-19.85s1.5-13.23,2.13-19.84c1.23-13.23,2.16-26.46,2.87-39.69s1.11-26.47,1.41-39.7l.73-39.69L1733,311.7l1-79.39c.39-26.46.47-52.92.69-79.38l.25-39.7.09-39.69c.11-52.92,0-105.84-.79-158.77h32.53c-.78,52.93-.9,105.85-.79,158.77l.09,39.69.25,39.7c.22,26.46.31,52.92.69,79.38l1,79.39,1.31,79.38.74,39.69c.29,13.23.72,26.47,1.41,39.7s1.63,26.46,2.87,39.69c.63,6.61,1.31,13.23,2.13,19.84s1.72,13.24,2.84,19.85Z"/><path class="cls-26" d="M1804.1,666.09c1.21-7.67,2.2-15.33,3.06-23s1.62-15.33,2.3-23c1.33-15.33,2.32-30.66,3.09-46s1.2-30.67,1.52-46l.78-46,1.41-92,1-92c.41-30.66.51-61.33.74-92l.27-46,.1-46c.11-61.33,0-122.66-.85-184h35c-.83,61.33-1,122.66-.85,184l.1,46,.27,46c.24,30.66.33,61.33.74,92l1,92,1.41,92,.79,46c.31,15.33.78,30.66,1.52,46s1.76,30.66,3.09,46c.68,7.67,1.41,15.34,2.29,23s1.85,15.33,3.06,23Z"/><path class="cls-18" d="M1905.68,33.05c2.89,56-198,56-195.09,0C1707.7-22.93,1908.59-22.93,1905.68,33.05Z"/><path class="cls-23" d="M1724.87,258.3c2,38.29-135.42,38.29-133.43,0C1589.46,220,1726.86,220,1724.87,258.3Z"/><path class="cls-23" d="M1801.44,127.63c2,38.28-135.41,38.28-133.42,0C1666,89.34,1803.43,89.34,1801.44,127.63Z"/><path class="cls-28" d="M1903.44,378c2,38.28-135.42,38.28-133.43,0C1768,339.75,1905.43,339.75,1903.44,378Z"/><path class="cls-28" d="M2013.26,313c2,38.28-135.42,38.28-133.43,0C1877.85,274.73,2015.25,274.73,2013.26,313Z"/><path class="cls-24" d="M711,381.2c2.06,40-141.43,40-139.35,0C569.58,341.22,713.08,341.22,711,381.2Z"/><path class="cls-23" d="M725.53,49.26c2,38.28-135.41,38.28-133.42,0C590.13,11,727.52,11,725.53,49.26Z"/><path class="cls-18" d="M2001,169.66c2.89,56-198,56-195.08,0C1803,113.68,2003.89,113.68,2001,169.66Z"/><path class="cls-18" d="M1834.78,269.66c2.89,56-198,56-195.09,0C1636.8,213.69,1837.69,213.69,1834.78,269.66Z"/><path class="cls-22" d="M1819.3,455.46c2.89,56-198,56-195.09,0C1621.32,399.49,1822.21,399.49,1819.3,455.46Z"/><path class="cls-25" d="M1634.58,225.05c2.37,45.9-162.38,45.9-160,0C1472.21,179.14,1637,179.14,1634.58,225.05Z"/><path class="cls-18" d="M1644.54,139.16c2,38.28-135.42,38.28-133.43,0C1509.13,100.88,1646.53,100.88,1644.54,139.16Z"/><path class="cls-18" d="M1751.83,46c2.86,55.35-195.8,55.35-192.93,0C1556-9.4,1754.71-9.4,1751.83,46Z"/><path class="cls-26" d="M1427.24,546.92c1.13-6.62,2-13.23,2.84-19.85s1.5-13.23,2.13-19.84c1.24-13.23,2.17-26.46,2.87-39.7s1.12-26.46,1.42-39.69l.73-39.69,1.31-79.39,1-79.38c.38-26.46.47-52.92.69-79.39l.25-39.69.09-39.69c.11-52.92,0-105.85-.79-158.77h32.53c-.78,52.92-.9,105.85-.79,158.77l.09,39.69.25,39.69c.22,26.47.31,52.93.69,79.39l1,79.38,1.31,79.39.73,39.69c.3,13.23.73,26.46,1.42,39.69s1.63,26.47,2.87,39.7c.63,6.61,1.31,13.23,2.13,19.84s1.71,13.23,2.84,19.85Z"/><path class="cls-26" d="M1509.68,663.16c1.21-7.67,2.2-15.33,3.06-23s1.62-15.33,2.29-23c1.33-15.33,2.33-30.66,3.1-46s1.2-30.66,1.52-46l.78-46,1.41-92,1-92c.41-30.67.5-61.33.74-92l.27-46,.1-46c.11-61.33,0-122.66-.85-184h35c-.83,61.33-1,122.66-.85,184l.1,46,.27,46c.24,30.67.33,61.33.74,92l1,92,1.41,92,.79,46c.31,15.33.78,30.66,1.52,46s1.76,30.67,3.09,46c.68,7.67,1.41,15.33,2.29,23s1.85,15.33,3.06,23Z"/><path class="cls-18" d="M1587.09,42.81c2.9,56-198,56-195.08,0C1389.12-13.17,1590-13.17,1587.09,42.81Z"/><path class="cls-23" d="M1507,124.7c2,38.28-135.42,38.28-133.43,0C1371.62,86.41,1509,86.41,1507,124.7Z"/><path class="cls-24" d="M1609,375.11c2,38.28-135.42,38.28-133.43,0C1473.61,336.82,1611,336.82,1609,375.11Z"/><path class="cls-28" d="M1671.14,282.62c2,38.29-135.42,38.29-133.43,0C1535.74,244.34,1673.13,244.34,1671.14,282.62Z"/><path class="cls-16" d="M436.82,659.11c-24.85-1.5-52.39,3.32-71.4,20.45,18.87-43.71,65-46.52,106-36.39l.42-1.38c-40.91-18-98-15.66-119.06,30.22-4.23-24.17-6.25-49.72-18.15-71.66l-1.29.64c6.22,21.9,5.61,45.18,6.14,67.79-17.17-27.35-50.87-40.94-82.12-34.53l.1,1.44c32.07-.55,62.5,16.9,73.08,47.66-23.74-21.6-60.84-24.52-88.56-9.08l.61,1.3c48.51-12.93,68.08,6.95,95.39,37.13,29.45,14.83,32.11-62.46,137.16-44.89l.3-1.41A178.08,178.08,0,0,0,436.82,659.11Z"/><path class="cls-17" d="M41.58,534.14c-7.36-.6-15.53,1.32-21.16,8.15,5.59-17.42,19.26-18.53,31.41-14.5l.12-.55c-12.12-7.18-29.06-6.24-35.29,12-1.26-9.63-1.86-19.81-5.38-28.55l-.39.26c1.85,8.72,1.67,18,1.82,27C7.63,527.1-2.37,521.68-11.63,524.24l0,.57c9.51-.22,18.53,6.73,21.67,19-7-8.6-18-9.76-26.26-3.61l.18.51c14.38-5.15,20.18,2.77,28.28,14.79,8.73,5.91,9.52-24.87,40.66-17.88L53,537A41.12,41.12,0,0,0,41.58,534.14Z"/><path class="cls-26" d="M-.13,662.65a214.69,214.69,0,0,0,9.05-23q3.81-11.5,6.75-23a439.29,439.29,0,0,0,9.1-46c4.57-30.66,5.09-61.33,6.84-92q4.53-92,7.27-184t3.28-184c0-15.33.14-30.67,0-46l-.1-23-.23-23c-.21-15.33-.44-30.66-.82-46s-.8-30.67-1.5-46H142.77c-.7,15.33-1.14,30.66-1.5,46s-.61,30.66-.82,46l-.23,23-.1,23c-.1,15.33,0,30.67,0,46q.42,92,3.28,184,2.59,92,7.27,184c1.75,30.66,2.27,61.33,6.84,92a439.29,439.29,0,0,0,9.1,46q2.94,11.51,6.75,23a214.69,214.69,0,0,0,9,23Z"/><path class="cls-29" d="M150.49,661.85c-13.29-35.08-7.3-53.34-32.94-37.08l-.19-.67c17.75-16.66,26.41-6.88,35.75,29.53.14-20.61-.85-42,2.66-61.59l.42.25c-1.79,21,0,42.89,1.35,64.23,4-25.32,16.78-43.43,33.38-39.8v.73c-17.17-.34-27.36,20-29.74,46.64,7.18-20.72,24.23-27.87,37.76-15.93l-.16.65c-17.59-11.47-29.7,31.63-42,32.28-18.47,6-7.89-48.35-41.1-22.7l-.22-.65C117.82,655.52,130.11,635.11,150.49,661.85Z"/><path class="cls-30" d="M166.19,648.89c-32.8-14.9-70.94-16.51-100.64,12.78,18.81-56.37,62.73-62.8,106.76-45.18C138,579.33,71,584.77,48.15,651.43c-2.11-20-8.32-103.62-19-108.83,5.33,33.79,3.7,69.19,3.73,103.71-18-42.18-52.19-63.07-83.93-53.69-.57,4.45,2.82,2.51,4.7,3.32,28.7,3,57.15,28.31,66.8,71.29-25-30-60.91-34.14-88.73-10.84,100.16-23.29,66.53,76.21,122.7,59,20-17.4,33.94-50.18,57.06-57.32C135.87,645.07,198.71,664.13,166.19,648.89Z"/><path class="cls-31" d="M1555.11,768.28c39.51-18,85.47-19.89,121.25,15.4-22.66-67.93-36.65-77.51-89.69-56.27,41.39-44.78,83.07-36.39,110.65,43.92,2.55-24.09,10-124.84,22.94-131.12-6.42,40.72-4.46,83.36-4.49,125,21.68-50.82,62.88-76,101.13-64.69.69,5.36-3.4,3-5.67,4-34.58,3.65-68.86,34.11-80.49,85.9,30.19-36.17,73.39-41.14,106.91-13.07-120.67-28.06-80.16,91.83-147.83,71C1665.68,827.38,1654.68,760.57,1555.11,768.28Z"/><path class="cls-29" d="M424.3,593.74c17.73-14.11,35.11-5.71,40.24,7.87-11.13-38.82-23.85-45.52-23.85-45.52s20.6-7.44,34.15,38.46c1.25-13.77,2.64-48.57,14-52.56-3.68,13.22-4.93,25.27-5,49,10.65-29,29.44-16.85,29.44-16.85s-16.37,1.65-22.08,31.26c14.82-20.68,22.42-25.22,38.89-9.18-36-15.34-25.33,17.81-37.77,30.22-3.49,3.47-22.79,1.91-25-.51C456.18,613.62,451.57,581.7,424.3,593.74Z"/><path class="cls-29" d="M411.85,737.26c41.54-33.06,82.27-13.37,94.3,18.45C480.07,664.73,450.26,649,450.26,649s48.28-17.44,80,90.13c2.94-32.27,6.19-113.84,32.84-123.19-8.63,31-11.56,59.22-11.59,114.94,25-68.08,69-39.48,69-39.48s-38.38,3.87-51.76,73.24c34.75-48.45,52.55-59.09,91.14-21.49-84.29-36-59.36,41.73-88.52,70.81-8.16,8.14-53.4,4.49-58.55-1.19C486.55,783.86,475.75,709.05,411.85,737.26Z"/><path class="cls-16" d="M1671,641.4c-18.09-1.09-38.14,2.42-52,14.89,13.73-31.82,47.3-33.86,77.13-26.49l.31-1c-29.78-13.12-71.37-11.41-86.68,22-3.08-17.6-4.55-36.2-13.21-52.17l-.94.46c4.53,15.95,4.09,32.9,4.47,49.35-12.5-19.9-37-29.8-59.78-25.13l.07,1c23.34-.4,45.5,12.31,53.21,34.7-17.29-15.72-44.3-17.85-64.48-6.61l.45.95c35.31-9.42,49.56,5.05,69.44,27,21.43,10.8,23.37-45.46,99.85-32.67l.22-1A129.48,129.48,0,0,0,1671,641.4Z"/></g><g id="tree"><path class="cls-32" d="M486.26,890.43c2.07-2.61,4-5.22,5.86-7.83s3.62-5.22,5.43-7.83c3.54-5.22,6.86-10.44,10-15.66,6.38-10.44,12.17-20.88,17.58-31.32s10.37-20.88,15-31.32c2.37-5.22,4.52-10.44,6.74-15.66s4.27-10.43,6.21-15.65c1-2.61,2-5.22,3-7.83l2.82-7.83c1.9-5.22,3.63-10.44,5.36-15.66q5.13-15.66,9.45-31.32,8.65-31.32,14.37-62.63c1.92-10.44,3.59-20.88,5.08-31.32l4.56-31.32c1.53-10.44,2.89-20.88,4.34-31.32l2.15-15.66,2-15.65q8.22-62.64,14.62-125.27c8.6-83.52,14.93-167,18.15-250.54l.6-15.66.46-15.66c.36-10.44.52-20.88.77-31.32.34-20.88.55-41.76.44-62.63s-.48-41.76-1.2-62.64-1.79-41.76-3.65-62.63h804.8c-1.87,20.87-2.93,41.75-3.65,62.63s-1.09,41.76-1.21,62.64.1,41.75.45,62.63c.25,10.44.41,20.88.76,31.32l.47,15.66.59,15.66c3.23,83.51,9.56,167,18.16,250.54q6.45,62.63,14.61,125.27l2,15.65,2.15,15.66c1.45,10.44,2.81,20.88,4.34,31.32l4.56,31.32q2.23,15.66,5.09,31.32,5.75,31.3,14.37,62.63,4.33,15.66,9.44,31.32c1.74,5.22,3.46,10.44,5.37,15.66l2.81,7.83c1,2.61,2,5.22,3,7.83,1.93,5.22,4.12,10.43,6.2,15.65,2.23,5.22,4.38,10.44,6.75,15.66,4.65,10.44,9.6,20.88,15,31.32s11.21,20.88,17.59,31.32c3.16,5.22,6.48,10.44,10,15.66,1.8,2.61,3.49,5.22,5.42,7.83s3.79,5.22,5.87,7.83Z"/><path class="cls-33" d="M1378.14,849.45c-7-12.05-13.28-24.41-19.28-36.86s-11.62-25-17-37.73-10.32-25.55-14.82-38.58-8.87-26.11-13.52-39.08l-13.92-38.93-13.71-39c-9-26-18.11-52.08-26.9-78.22l1.45-.56c11.07,25.26,21.86,50.63,32.67,76l16.09,38.09,15.87,38.17c5.27,12.74,10.81,25.36,16.27,38s10.43,25.5,15,38.52,8.82,26.13,12.78,39.37,7.62,26.59,10.51,40.24Z"/><path class="cls-33" d="M761.57,829.47c-.77-3.88-1.34-7.75-1.83-11.61s-.91-7.7-1.28-11.55c-.71-7.68-1.16-15.34-1.46-23-.55-15.28-.43-30.49.26-45.64.36-7.57.91-15.13,1.74-22.65s1.92-15,3.19-22.49c2.57-14.95,5.49-29.86,7.7-44.85l3.38-22.48,3.47-22.46,3.61-22.45,3.7-22.44c5.08-29.91,10.09-59.82,15.71-89.67l3.08.33c-.75,30.36-2.09,60.66-3.39,91l-1.07,22.71-1.16,22.71-1.3,22.7-1.4,22.68c-1,15.12-1.24,30.31-1.85,45.47-.32,7.58-.81,15.13-1.58,22.66s-1.8,15-3,22.51c-2.49,15-5.55,29.86-9.28,44.69-1.9,7.41-3.93,14.8-6.24,22.17-1.16,3.68-2.35,7.36-3.66,11s-2.65,7.33-4.22,11Z"/><path class="cls-33" d="M1081.27,826.66c-2.16-7.31-3.74-14.67-5.17-22s-2.58-14.77-3.57-22.18-1.65-14.86-2-22.33-.62-15-1.09-22.41l-1.36-22.39-1.21-22.4-1.08-22.41-.53-11.21-.46-11.21,1-.09,1.6,11.1,1.53,11.12,3,22.23,2.91,22.24,2.76,22.26c.9,7.42,2,14.83,3,22.23s1.74,14.85,2.12,22.32.58,15,.55,22.46-.26,15-1.06,22.61Z"/></g><g id="fallen-tree"><path class="cls-34" d="M-72.5,745.23q32.53,3.19,65.06,5.65c21.69,1.71,43.37,3.21,65.06,4.65q65.05,4.26,130.12,7.33t130.12,5.27L448,772.44l260.24,8.4,260.25,8c86.74,2.65,173.49,5,260.24,7.47l130.12,3.63L1489,803.31q260.25,6.77,520.49,12v272.76q-260.23,4.9-520.49,12l-130.12,3.4-130.12,3.63c-86.75,2.48-173.5,4.82-260.24,7.48l-260.25,8L448,1130.89l-130.13,4.31q-65.06,2.25-130.12,5.27T57.62,1147.8c-21.69,1.44-43.37,3-65.06,4.65s-43.37,3.52-65.06,5.66Z"/><path class="cls-35" d="M60.67,826c2.92-1.35,5.84-2.46,8.76-3.49s5.85-2,8.77-2.84c5.84-1.72,11.68-3.13,17.51-4.39a287.13,287.13,0,0,1,35-5,181.51,181.51,0,0,1,35,.44c11.65,1.24,23.29,2.89,34.94,3.69l17.48,1.3,17.47,1.4L253,818.65l17.47,1.67c23.3,2.39,46.59,4.71,69.88,7.74l0,3.61c-23.34,2.69-46.66,4.67-70,6.71l-17.49,1.42-17.5,1.3-17.49,1.15-17.49,1c-11.66.64-23.33,2.11-35,3.18a181.59,181.59,0,0,1-35-.08,285.23,285.23,0,0,1-34.93-5.55c-5.81-1.34-11.63-2.83-17.45-4.64-2.9-.92-5.81-1.88-8.72-3s-5.81-2.22-8.71-3.61Z"/><path class="cls-33" d="M-104.57,1076.82c3.18-1.49,6.36-2.73,9.55-3.9s6.38-2.24,9.57-3.25c6.39-2,12.79-3.69,19.19-5.23a347.52,347.52,0,0,1,38.51-6.7A222.62,222.62,0,0,1,11,1056.5c12.94.68,25.9,1.76,38.83,2l19.4.45,19.4.57,19.4.72,19.42.84c25.88,1.26,51.77,2.47,77.68,4.38l.13,3.61c-25.7,3.8-51.43,6.9-77.15,10.06l-19.3,2.25-19.3,2.14-19.31,2-19.31,1.87c-12.88,1.19-25.72,3.22-38.58,4.85a222.54,222.54,0,0,1-38.7,1.6,347.32,347.32,0,0,1-38.9-3.87c-6.5-1.06-13-2.27-19.52-3.8-3.26-.78-6.52-1.6-9.79-2.54s-6.53-2-9.8-3.2Z"/><path class="cls-33" d="M677.91,872.19c15.61-3,31.22-4.79,46.84-6.27s31.22-2.42,46.83-3,31.23-.57,46.84.1,31.22,1.52,46.84,2l46.83,1.39,46.84,1.71c31.22,1.26,62.45,2.49,93.67,4.13v2.06c-31.22,1.63-62.45,2.86-93.67,4.13l-46.84,1.7-46.83,1.4c-15.62.44-31.23,1.26-46.84,2s-31.23.72-46.84.1-31.22-1.59-46.83-3-31.23-3.3-46.84-6.26Z"/><path class="cls-33" d="M1183.72,872.19a111.49,111.49,0,0,1,21-5.75,181.25,181.25,0,0,1,21-2.51,114.06,114.06,0,0,1,20.9.62c6.95.83,13.89,1.9,20.85,2.48l20.87,1.91,20.86,2.22c13.9,1.61,27.81,3.18,41.7,5.16l0,2.06c-14,1.29-27.94,2.17-41.9,3.09l-21,1.19-20.94.88c-7,.24-14,1-20.95,1.44a113.13,113.13,0,0,1-20.9-.41,183.46,183.46,0,0,1-20.83-3.54,111.66,111.66,0,0,1-20.75-6.78Z"/><path class="cls-33" d="M1285.36,1060.56a142.48,142.48,0,0,1,24-6.26,239.92,239.92,0,0,1,24-3,150.24,150.24,0,0,1,24,.11c8,.66,16,1.55,24,2l24,1.39,24,1.7c16,1.27,32,2.5,48,4.13v2.07c-16,1.63-32,2.86-48,4.13l-24,1.7-24,1.39c-8,.41-16,1.3-24,2a150.24,150.24,0,0,1-24,.11,237,237,0,0,1-24-3,142.48,142.48,0,0,1-24-6.26Z"/><path class="cls-20" d="M1703.6,814.42c33.41-12.5,102.19-33.37,136.89-42l38.29,13.13-158.71,39Z"/><path class="cls-36" d="M1863.2,780.23l15.58,5.35c-86,41.82-62,38.47-158.71,39C1756.77,816.76,1829.05,795.34,1863.2,780.23Z"/></g><g id="legend"><path class="cls-37" d="M59.35,931.63,49.6,932c-3.13-9,5.79-48.45-9.43-28.12C29.08,897,45.84,891,49.64,885.8,65.14,876,56.16,927.67,59.35,931.63Z"/><path class="cls-37" d="M59.56,996.89c-1.94-7.1-3.21-2.46-7.14-.3-23.62,6.4-26.63-20.53,3.44-23.1-.59-8.22-9.79-5-15.54-2.25-7.11-8.29,2.42-9.36,10-10.06,20.25-3.07,14.52,23.73,16,35.46Zm-3.44-16.24C51.3,981,44,980.82,44.31,987,46.32,996,59.26,988.31,56.12,980.65Z"/><path class="cls-37" d="M150.39,925.26c-34.14,1.68-41.5,4.9-14.46-25.69,7.72-11-5.3-16.81-12.56-7.28-20.8-18.49,56.85-23,7.91,25.45C138.31,918.81,153.69,912,150.39,925.26Z"/><path class="cls-37" d="M145.2,1003.1c-1.94-7.1-3.21-2.46-7.14-.29-23.63,6.39-26.64-20.54,3.43-23.11-.59-8.22-9.79-5-15.53-2.25-7.11-8.29,2.42-9.36,10-10.06,20.25-3.07,14.52,23.73,16,35.46ZM125.31,958l21.39-.78.25,6.65C142.26,962.26,120.6,969.81,125.31,958Zm16.45,28.91c-4.82.35-12.09.17-11.81,6.31C132,1002.17,144.9,994.53,141.76,986.86Z"/><path class="cls-38" d="M226.12,867.49c1,11.85-15.58,9-.92,14.51,16.27,17.58-29.65,32.46-26.85,11.11,18.1,10.37,32.47-11.56,6.47-9.89-2.37-10.08,5.06-4.7,10.35-8.81,7.33-9.19-7.57-12-12.95-6C187.26,855.87,227.3,852.08,226.12,867.49Z"/><path class="cls-38" d="M218.19,977.1c-47.51-4.66,10.22-66.32,13.23-15.71-3,1.71-30.63-3.5-19.24,6.85,4.74,3.94,12.38,1.41,17.54-1.1C231.93,975.55,225.77,977,218.19,977.1Zm-2.34-28.42c-4.24.16-6.1,3.19-6.24,7.37C217.06,957.45,230.54,953,215.85,948.68Z"/><path class="cls-38" d="M295.23,898.85c-7.39-1.88-4.75,4.92-5,9.35-21.57,2.81,6.24-12.84-27.69-8.15-3.62-5.13,15.52-31.38,17.49-35.72l8.58-.31,1,27.77C296.25,890.33,295.05,893.91,295.23,898.85Zm-14.68-6.73c-.49-4.88.06-12.43-.49-16.71C279,884.57,260.58,895.4,280.55,892.12Z"/><path class="cls-38" d="M283.37,983.42c-47.51-4.66,10.23-66.32,13.23-15.7-3,1.71-30.63-3.51-19.24,6.84,4.74,4,12.38,1.41,17.54-1.09C297.12,981.88,291,983.28,283.37,983.42Zm-13.36-44c5.86-.61,25.24-5.73,20.72,5.62C286.25,943.5,265.5,950.72,270,939.37ZM281,955c-4.24.17-6.1,3.2-6.24,7.37C282.24,963.78,295.72,959.3,281,955Z"/><path class="cls-38" d="M358.82,874.66c38.3,4.53-10.94,51.31-14.8,18.94,24.54,9.53,27.09-14.24.44-11.84l.84-22.58c6.41,1.6,27.85-6.68,23.62,7.06l-15.23.56C353.81,871.93,351.18,877.14,358.82,874.66Z"/><path class="cls-38" d="M377.63,976.61c-14.35,4.45-8.24-11.51-9.94-19.4-.74-12.93-15.33-6.45-12.61,4.31-.49,8.24,4.74,18.77-8.64,16.23l-1.72-47c12.51-2.64,9.12,4.51,9.55,14.51C377.51,936.63,377.62,951.43,377.63,976.61Z"/><path class="cls-38" d="M411.68,898.74c-6.51-16,24.4-40.43,26.21-19-9.88-2.4-19.59,3-18.41,13.9C466.78,868.78,425.9,957,411.68,898.74Zm15.79,11.35c7.36-.12,7.23-15.3-.42-14.7C418.57,895.54,419.71,910,427.47,910.09Z"/><path class="cls-38" d="M423.13,948.65c-.91-6,10.51-6.43,10-.37C433.91,954.4,422.69,954.7,423.13,948.65Zm11.17,42.16-9.21.34c2.08-7.48-8.6-39.6,8-34.12Z"/><path class="cls-38" d="M504.72,918.45l14.39-36.84c-6.56-1.27-24.24,6-20.59-7.11,3.33,2.07,36.56-6.93,30.67,4.74C524.67,885.06,518.52,926.12,504.72,918.45Z"/><path class="cls-38" d="M502.85,949c5.26-1.93,25.24-5.73,20.72,5.62C519.09,953.08,498.34,960.3,502.85,949Zm16.36,43.34-9.22.34c2.09-7.49-8.6-39.61,8-34.13Z"/><path class="cls-38" d="M592.28,881.18c13.72-1.53,18.81,16.46,5.59,21.44,11.07,3.82,12.85,19.86.44,23.1-16.3,6.77-30.48-14.65-12.47-22.86C573.66,896.83,578.8,879.78,592.28,881.18Zm-6.26,33c-.45,5.58,7.68,7,10.89,4C603.63,909.46,586.34,901.82,586,914.2Zm6.2-26.19c-6.89.13-5.34,9.14.06,10.71C597.69,897.12,599.16,888,592.22,888Z"/><path class="cls-38" d="M584.45,981.9c5.71-7.39,13.1-18.53,23.89-15.42-18.62,16.78-11.55,16.61.82,33.8-17.47,5.07-15.47-19.55-24.35-10.52.34,9.14,1.35,11.78-9.22,10.52,3.35-5.15-8.68-56.88,9.22-47C585,958.73,584.7,977,584.45,981.9Z"/><path class="cls-38" d="M688.88,911c6.53,16.06-24.42,40.44-26.21,19,9.86,2.5,19.59-3.07,18.41-13.87C633.73,941,674.63,852.75,688.88,911ZM673.1,899.69c-7.43.06-7.25,15.29.41,14.69C682,914.24,680.86,899.82,673.1,899.69Z"/><path class="cls-38" d="M681.69,1002.62c-16.63,5.23-5.43-17.71-10.45-25.24-20.71-10.22,0,32.84-19.82,25.24,1-4.38-4.43-49.79,8.29-29.48,5.19-7,16.77-5.8,21.44,0,21.27-19.06,23.7,15.11,21.62,29.48-14.55,3.93-7.85-11.76-9.26-19.75C685.35,959.87,678.77,993.78,681.69,1002.62Z"/><path class="cls-38" d="M746.47,942.77l-9.33.34c-3-8.58,5.55-46.4-9-26.93-10.62-6.57,5.44-12.37,9.08-17.31C752,889.49,743.42,939,746.47,942.77Z"/><path class="cls-38" d="M787.25,919.15c5.09,29.17-33,30.42-30.28,1.11C751.85,891,789.87,889.77,787.25,919.15Zm-21,.77c-1.57,19.15,14.58,18.58,11.7-.43C779.39,899.51,763.05,902,766.27,919.92Z"/><path class="cls-38" d="M774.68,1016.1c-16.5,5.85-6-17.55-11.44-24.83-22.14-9.95.31,32.65-19.74,26l-1.24-33.79c3.71-.18,8.36-1.21,8.43,4C772,968.19,776.42,1000.46,774.68,1016.1Z"/><path class="cls-39" d="M872.66,938.1c-20.35,8.46.94-45-17-23.89-9.72-5.82,4.77-11.3,8-15.83C877,889.65,869.84,934.7,872.66,938.1Z"/><path class="cls-39" d="M903.59,936.5c-20.35,8.46.93-45-17.05-23.89-9.73-5.82,4.77-11.3,8-15.84C907.9,888.05,900.76,933.1,903.59,936.5Z"/><path class="cls-39" d="M882.74,1005.15c-17.68,6.67-1.51-22.9-14.57-23.86-15.11,1.4,4.56,29.79-13.73,25.32L852.86,976c3.37-.22,7.57-1.21,7.71,3.53C879.66,961.69,884.1,990.93,882.74,1005.15Z"/><path class="cls-39" d="M916.89,1006.14c3.28,14.91-29.42,20.33-26.74,5.35,8.79,3.89,20.84,3.67,18.53-9.26-26.62,23.75-27.47-45.83,0-22.79l.62-3.94C922.51,968.43,914.54,1001.94,916.89,1006.14Zm-14.2-5.85c9.11.67,8.32-19.38-.42-18.45C894.8,980.86,893.86,1001,902.69,1000.29Z"/><path class="cls-38" d="M976.78,945.41l-9.34-.34c-2.37-8.78,8.92-45.88-7-27.52-10.11-7.33,6.32-11.94,10.31-16.6C986.21,892.67,974,941.4,976.78,945.41Z"/><path class="cls-38" d="M1018.3,946.92c-52.35.07-21.64-5.45-9.33-32.68-.34-8-10.35-4.68-14.17-.7-18.58-19.12,55.91-18,5.77,24.87C1007.21,939.92,1022.38,934.51,1018.3,946.92Z"/><path class="cls-38" d="M1000.36,985.08c1.08,23.4-35.36,21.61-32.76-1.19C966.47,960.55,1003,962.4,1000.36,985.08ZM977,984.23c-2.18,13.19,15.19,13.89,13.93.51C993.13,971.66,975.75,971,977,984.23Z"/><path class="cls-38" d="M1088.79,953.72l-9.33-.34c-2.37-8.78,8.92-45.88-7-27.52-10.11-7.33,6.32-11.94,10.32-16.61C1098.22,901,1086,949.71,1088.79,953.72Z"/><path class="cls-38" d="M1129.84,920.87c.18,11.9-16.2,7.87-2,14.4,14.94,18.73-31.95,30.21-27.6,9.12,17.62,11.61,33.2-9.11,7.18-9.39-1.63-10.22,5.39-4.31,11-8,8-8.63-6.67-12.57-12.47-6.91C1091.93,906.44,1132.14,905.59,1129.84,920.87Z"/><path class="cls-38" d="M1115.71,998.56c1.07,23.4-35.36,21.61-32.76-1.2C1081.81,974,1118.3,975.88,1115.71,998.56Zm-25.65-27.9c7.44-.93,25.59-3.87,20.26,7.12C1106,976,1084.73,981.66,1090.06,970.66Zm2.29,27.05c-2.19,13.19,15.18,13.89,13.93.5C1108.48,985.14,1091.1,984.47,1092.35,997.71Z"/><path class="cls-38" d="M1202.7,953.87l-9.32.56c-3.21-8.5,4.44-46.52-9.68-26.71-10.77-6.32,5.14-12.49,8.67-17.52C1207,900.47,1199.56,950.15,1202.7,953.87Z"/><path class="cls-38" d="M1244.29,942.17c-7.44-1.7-4.63,5-4.76,9.47-21.5,3.32,5.93-13-27.87-7.49-3.75-5,14.76-31.74,16.63-36.12l8.57-.52,1.68,27.74C1245.1,933.63,1244,937.24,1244.29,942.17Zm-14.84-6.37c-.6-4.87-.23-12.43-.89-16.7C1227.71,928.28,1209.56,939.55,1229.45,935.8Z"/><path class="cls-38" d="M1220.17,1027.87c-5.88,2.24-11.73-8.75-9.29,1.14l.83,13.67c-17.31,11.18-8.52-43.31-12.15-48,5.38-.48,7.49-1.37,9.47,3.82C1227.73,975.53,1244.67,1025.39,1220.17,1027.87Zm-4.38-27.45c-9.54-.12-7.85,21.45,1.34,20.15C1224.92,1021.3,1225.11,999.36,1215.79,1000.42Z"/><path class="cls-38" d="M1308.36,944.71l-9.33.56c-3.2-8.5,4.45-46.52-9.67-26.71-10.77-6.32,5.14-12.49,8.66-17.52C1312.64,891.3,1305.22,941,1308.36,944.71Z"/><path class="cls-38" d="M1334.09,914.85c38.4,3.61-9.71,51.56-14.34,19.29,24.76,8.94,26.74-14.89.16-11.85l.3-22.59c6.45,1.44,27.68-7.35,23.78,6.49l-15.21.93C1329,912.24,1326.52,917.51,1334.09,914.85Z"/><path class="cls-38" d="M1328.19,983.45c5.29-2.18,2.33,6.58,3,8.76-16-3.15-10.62,17.39-10.5,26.21-15.94,7.12-8.47-26.07-11.25-33.19,5.18-.76,8-.84,8.67,5.17C1320.55,987.45,1323.49,983.38,1328.19,983.45Z"/><path class="cls-40" d="M1422.72,935.12l-8.79.33c-2.83-8.08,5.21-43.72-8.52-25.37-10-6.18,5.11-11.65,8.54-16.31C1427.93,884.93,1419.85,931.55,1422.72,935.12Z"/><path class="cls-40" d="M1433.08,917c-6.14-15.1,23-38.1,24.69-17.91-9.31-2.25-18.46,2.89-17.34,13.1C1485.49,888.91,1445.47,971.94,1433.08,917ZM1448,927.72c6.93-.12,6.8-14.41-.4-13.84C1439.57,914,1440.65,927.59,1448,927.72Z"/><path class="cls-40" d="M1437.46,998.27c15.53-2-2.64,13.67-9.93,4.66-6.36-3.53,1.94-25.54-7.39-23-1.15-5.93,6.16-5.35,6.79-13.56,12.56-2-2.31,9.25,14.71,6.23,1.79,8.17-2.61,6.59-8.67,6.85C1434.16,982.7,1430.64,999.41,1437.46,998.27Z"/><path class="cls-41" d="M1522.65,936c-20.46,8.16,1.6-45-16.69-24.14-9.64-6,4.93-11.23,8.24-15.72C1527.67,887.61,1519.88,932.54,1522.65,936Z"/><path class="cls-41" d="M1536.87,935.46l13-33.45c-6-1.15-22,5.47-18.7-6.45,3,1.88,33.2-6.31,27.85,4.29C1555,905.13,1549.4,942.42,1536.87,935.46Z"/><path class="cls-41" d="M1541.33,1002.82c-.44-7.85-11.52,7.07-19.24-1.64-5-3.95-2.88-22.52-3.8-28.22l8.37-.31c-2.86,27,16.73,31.84,11.58-.43l8.37-.31C1544.48,975.74,1553.89,1008.92,1541.33,1002.82Z"/><path class="cls-42" d="M1619.32,919.43c-20.77,6.82,4.34-44.44-15.06-24.94-9.18-6.5,5.58-10.82,9.13-15.07C1627.26,871.8,1616.79,915.84,1619.32,919.43Z"/><path class="cls-42" d="M1644.18,879.67c12.4-1.07,16.58,15.24,4.57,19.44,13.18,5.18,8.46,23.09-5.58,21.45-13.79,1.43-18.22-16.81-5.27-21.5C1627.06,893.35,1632.07,878.11,1644.18,879.67Zm-6.37,29.61c-.53,5,6.76,6.46,9.72,3.85C1653.78,905.4,1638.37,898.13,1637.81,909.28Zm6.17-23.46c-6.22,0-5,8.11-.19,9.65C1648.7,894.15,1650.23,886,1644,885.82Z"/><path class="cls-42" d="M1634.21,986.79c.29-8-20.58,11.08-21.48-11.14l.49-19.86c13.15-3.21,6.78,10.81,7.87,18,7.08,20.79,14.6-8.73,11.93-17.51l8.31.21C1639,960.16,1646.28,993.6,1634.21,986.79Zm-16-42,18.47.45-.14,5.75C1630.12,951.15,1613.55,954.71,1618.24,944.75Z"/><path class="cls-42" d="M1715,939.77c-20.77,6.82,4.34-44.44-15.06-24.94-9.18-6.5,5.58-10.82,9.13-15.07C1723,892.14,1712.51,936.18,1715,939.77Z"/><path class="cls-42" d="M1752.82,917.85c5,14.81-24.2,35-24.62,15.64,8.72,2.79,17.78-1.68,17.32-11.46C1701.07,941.67,1744.2,864.69,1752.82,917.85Zm-13.57-11c-6.68-.36-7.37,13.35-.44,13.23C1746.45,920.38,1746.22,907.35,1739.25,906.81Z"/><path class="cls-42" d="M1727.74,1007.08c-6.47-35.36-4.38-23.74-11.25-.28-13.39,5.76-13.42-24.43-16.85-30.9,10.33-2.45,9.59,6.71,11.46,13.78,1.61,22,3.77-6.47,7.37-13.31l9.15.23c6.48,24.95,1.62,31.24,10.54.26,17.32-5.9-2.31,24.92-1.37,30.44Z"/><path class="cls-42" d="M1844,928.46c-47.17.61-19.56-4.69-8.76-29.36-.38-7.2-9.37-4.1-12.77-.48-17-17,50.2-16.84,5.47,22.35C1834,922.26,1847.57,917.23,1844,928.46Z"/><path class="cls-42" d="M1875.3,909.3c.51,34.47-37.17,17.91-26.33-9.29C1853.66,878.55,1879.62,890.43,1875.3,909.3Zm-18.91-.47c-2.47,17.14,12.09,17.52,10.55.26C1869.31,891.19,1854.48,892.53,1856.39,908.83Z"/><path class="cls-42" d="M1833.52,995.19c-6.47-35.35-4.37-23.73-11.25-.27-13.39,5.76-13.41-24.43-16.85-30.9,10.34-2.45,9.6,6.7,11.47,13.78,1.6,22,3.77-6.48,7.36-13.31l9.15.22c6.48,25,1.62,31.25,10.55.26,17.31-5.89-2.31,24.93-1.38,30.45Z"/><path class="cls-42" d="M1884.36,996.45c-17.79,5.39,0-23-12.61-24.71-15,.29,2.24,29.81-15.5,24l1-42.39c8.31-.77,9.06.91,8.1,8.85C1861.38,979.53,1890.21,941.66,1884.36,996.45Z"/></g><g id="moss"><path id="fm-moss-3" class="cls-43" d="M336.77,822.12,426.57,882c15.06,5.27,93.61,32.4,110.44,38.19,63.75,22.26,64.55,18.94,130.06,13.42l34.74-27.43,30.29-44.82,66.06-38.19L415.21,798.38Z"/><path id="fm-moss-2" class="cls-43" d="M948.86,978,985,997.6l18.58-4.13L1024.21,947l28.91-26.84s19.61-60.9,19.61-61.93c0-.5,26.84-20.64,26.84-20.64L1016,845.87,833.26,811.8l-12.39,3.1,98.06,78.45Z"/><path id="fm-moss-1" class="cls-43" d="M92.13,852.06c38,40.25,40,40.12,89.81,61.93L216,966.63l43.35,18.58,48.52-11.35,10.32-64c22.65-26.91,71.13-78.6,97-102.19H124.13Z"/></g><g id="moss-static"><path class="cls-43" d="M-75.08,745.5C377.3,773,1007.67,788.57,1461.53,802l-19.73,16.79-42.61,5.65-92.46,21.48-60.85-11.71c-58.83.16-183.08,6.64-238.65,23.73l-181-39.15L734.4,839.6H578.59l-171.1-28.33-102,28.33L185.92,814l-70.79,39.14c-63.06-9.13-208.52-5-272.9-1.59l33-92.77Z"/><path class="cls-20" d="M-63.73,778.71l-1,43.41,53.67-16.27H74.59l55.74-15.61C89.92,785.28-24.71,769.74-63.73,778.71Z"/><path class="cls-20" d="M1209,806.64c15.73-2.26,58.11,1.51,74.32,3.1l44.38-3.1,15.49,6.19-87.74,6.2-26.84-9.29Z"/><path class="cls-20" d="M562.48,794.26c30.67-3,100.95-2.94,131.43,2.06l-78.45,9.29Z"/></g><g id="ants"><path id="fm-ants" class="cls-44" d="M2012.72,1058.53c-268.21-75.42-450.49-18.23-522.64-151.73-147-115.77-580.53-82.75-775-99.15-126.68,11.55-170.14-4.9-223.2-21-84.72-25.77-204.7-20.72-234.16-19.84C143.41,770.2,233,837.38-127.19,835.54"/></g><g id="fallen-tree-front"><path class="cls-20" d="M251.32,771.39C305.58,728.8,420.7,652.2,480.7,618l68.7,24.68L281.7,794.26Z"/><path class="cls-36" d="M521.44,632.63l28,10-54.35,53.21-63.86,91.42-149.49,7C336.7,749,457.23,662.17,521.44,632.63Z"/></g><g id="plants-foreground"><path class="cls-29" d="M890.72,1090.17c19-8.43,40.39,7.12,51.51,30.37-5.89-41.13-33.24-55.31-58.18-41.8,64.1-49.67,58.57,78.24,67.83-26.71,6.4-38-.1,36.74,1.61,48.63,7.92-22.49,29.12-41.38,44.64-31.14-17.38-.81-33.46,16.07-38.23,41.1,11-16.37,34.31-22,44.68-5.47-35.4-23.51-44.92,50.54-60,37.94-14.47-27.44-34.54-58.53-59.74-47.12C874.67,1100.39,887.37,1090.78,890.72,1090.17Z"/><path class="cls-29" d="M1510.39,1074.77c-39-11.6-82.71,9.8-105.48,41.78,12.07-56.57,68.08-76.08,119.15-57.5-131.26-68.31-119.94,107.62-138.91-36.74-13.1-52.31.21,50.54-3.29,66.9-16.22-30.94-59.64-56.93-91.43-42.84,35.6-1.12,68.53,22.11,78.29,56.53-22.58-22.51-70.25-30.29-91.48-7.53,71.91-32.54,92.83,69.9,122.92,52.2,29.64-37.75,70.73-80.51,122.34-64.82C1543.28,1088.83,1517.26,1075.61,1510.39,1074.77Z"/><path class="cls-31" d="M923.38,1077.18c-37-9.86-75.79,14.36-93.61,46.18,13.83-63.24,48.87-79.75,108.43-64.19-44.54-19.87-93.35-12.42-110.54,38.16-4.24-26.21-3.82-59-16.67-80.95,7.48,28.25,6.83,58.08,7.32,87.11-12.15-34.5-45.55-61-81.46-51.55,39-1.29,62.63,22.42,73.23,58.24-18.62-24.87-61-33.61-84.55-14.86,43.46-22.91,82.67,23,97.09,49.59,19.23-23,61.64-86.27,118-60.09C938.33,1080.75,928.65,1079.07,923.38,1077.18Z"/><path class="cls-29" d="M-98.15,1046.39c35.89-11.6,76.17,9.79,97.15,41.77-11.12-56.57-62.71-76.08-109.74-57.5C10.15,962.35-.28,1138.28,17.19,993.93c12.07-52.31-.19,50.53,3,66.89,14.94-30.94,54.93-56.92,84.21-42.84-32.79-1.12-63.11,22.11-72.11,56.53,20.8-22.51,64.7-30.29,84.26-7.52-66.23-32.54-85.5,69.9-113.21,52.19-27.3-37.75-65.14-80.51-112.67-64.82C-128.44,1060.44-104.47,1047.22-98.15,1046.39Z"/></g></g></svg>