<svg xmlns="http://www.w3.org/2000/svg" xmlns:xlink="http://www.w3.org/1999/xlink" viewBox="0 0 1920 1080"><defs><style>.cls-1{fill:#e5dfe1;}.cls-2{fill:#5b6020;}.cls-3{fill:#b0af45;}.cls-4{fill:#787838;}.cls-5{fill:#848040;}.cls-6{fill:#979639;}.cls-7{fill:#867a3e;}.cls-8{fill:#6a783d;}.cls-9{fill:#84802c;}.cls-10{fill:#5c7312;}.cls-11{fill:#4a5e20;}.cls-12{fill:#4a6220;}.cls-13{fill:#4a6020;}.cls-14{fill:url(#linear-gradient);}.cls-15{fill:#80813b;}.cls-16{fill:#696929;}.cls-17,.cls-23,.cls-26,.cls-27,.cls-28,.cls-29,.cls-30,.cls-32,.cls-33,.cls-34,.cls-35,.cls-36,.cls-37,.cls-38,.cls-39,.cls-41,.cls-42,.cls-44{fill:none;stroke-miterlimit:10;}.cls-17,.cls-32{stroke:#556332;}.cls-17,.cls-30,.cls-35{stroke-width:6.13px;}.cls-18{fill:#9a9a3a;}.cls-19{fill:#7a7a2f;}.cls-20{fill:#939339;}.cls-21{fill:#342b1a;}.cls-22{fill:#3c362a;}.cls-23{stroke:#3c362a;stroke-width:20px;}.cls-24{fill:#75752d;}.cls-25{fill:#595922;}.cls-26,.cls-33{stroke:#697a3e;}.cls-26,.cls-32{stroke-width:4.28px;}.cls-27,.cls-28,.cls-34,.cls-38,.cls-44{stroke:#6b8031;}.cls-27{stroke-width:9.58px;}.cls-28,.cls-37{stroke-width:5.59px;}.cls-29,.cls-36,.cls-37,.cls-39{stroke:#82984d;}.cls-29,.cls-34{stroke-width:7.5px;}.cls-30{stroke:#596935;}.cls-31{fill:#4c4c1d;}.cls-33,.cls-36{stroke-width:9.35px;}.cls-35{stroke:#576633;}.cls-38{stroke-width:18.42px;}.cls-39{stroke-width:15.88px;}.cls-40{fill:#6e6e3b;}.cls-41,.cls-42{stroke:#541d16;stroke-linecap:round;stroke-width:3.56px;}.cls-41{stroke-dasharray:3 25 3 45 3 15;}.cls-42{stroke-dasharray:3 95 3 70;}.cls-43{fill:#82984d;}.cls-44{stroke-width:8.9px;}.cls-45{fill:#65892b;}.cls-46{fill:#4f503f;}.cls-47{fill:#3f4032;}</style><linearGradient id="linear-gradient" x1="971" y1="-64" x2="971" y2="838" gradientUnits="userSpaceOnUse"><stop offset="0" stop-opacity="0"/><stop offset="0.6" stop-opacity="0.5"/><stop offset="0.74" stop-color="#1d191a" stop-opacity="0.34"/><stop offset="0.76" stop-color="#1c191a" stop-opacity="0.3"/><stop offset="0.82" stop-color="#111010" stop-opacity="0.19"/><stop offset="1" stop-opacity="0"/></linearGradient></defs><g id="fern-interactive"><g id="background"><rect class="cls-1" x="-50" y="-57" width="2020" height="560"/><rect class="cls-2" x="-50" y="477" width="2020" height="651"/><ellipse class="cls-3" cx="222.23" cy="71" rx="282.85" ry="101"/><rect class="cls-4" x="-50" y="393" width="2020" height="94"/><ellipse class="cls-5" cx="781.02" cy="46" rx="282.85" ry="101"/><ellipse class="cls-6" cx="1014.83" cy="213.5" rx="163.83" ry="54.5"/><ellipse class="cls-3" cx="1450.75" cy="61" rx="282.85" ry="101"/><ellipse class="cls-6" cx="415.11" cy="189.22" rx="163.83" ry="54.5"/><ellipse class="cls-7" cx="3.46" cy="418.8" rx="75.11" ry="63.19"/><ellipse class="cls-5" cx="36.85" cy="383.47" rx="108.85" ry="98.47"/><ellipse class="cls-8" cx="151.19" cy="406.31" rx="58.76" ry="58.19"/><ellipse class="cls-9" cx="194.82" cy="355.26" rx="72.67" ry="63.26"/><ellipse class="cls-7" cx="230.69" cy="427.04" rx="72.67" ry="63.26"/><ellipse class="cls-5" cx="306.6" cy="376.24" rx="73.4" ry="109.24"/><ellipse class="cls-10" cx="372.83" cy="409.85" rx="58.76" ry="58.19"/><ellipse class="cls-9" cx="416.46" cy="358.79" rx="72.67" ry="63.26"/><ellipse class="cls-7" cx="452.33" cy="430.57" rx="72.67" ry="63.26"/><ellipse class="cls-7" cx="516.24" cy="403.08" rx="78.32" ry="50.67"/><ellipse class="cls-5" cx="558.28" cy="354.86" rx="106.28" ry="98.86"/><ellipse class="cls-8" cx="670.28" cy="393.08" rx="61.28" ry="46.66"/><ellipse class="cls-9" cx="715.78" cy="352.14" rx="75.78" ry="50.72"/><ellipse class="cls-7" cx="753.18" cy="409.69" rx="75.78" ry="50.72"/><ellipse class="cls-5" cx="825.75" cy="386.4" rx="69.94" ry="70.15"/><ellipse class="cls-10" cx="901.41" cy="395.91" rx="61.28" ry="46.66"/><ellipse class="cls-9" cx="946.9" cy="354.97" rx="75.78" ry="50.72"/><ellipse class="cls-7" cx="984.3" cy="412.53" rx="75.78" ry="50.72"/><ellipse class="cls-7" cx="1041.79" cy="401.21" rx="75.11" ry="63.19"/><ellipse class="cls-5" cx="1092.51" cy="363.68" rx="91.51" ry="100.68"/><ellipse class="cls-8" cx="1189.51" cy="388.73" rx="58.76" ry="58.19"/><ellipse class="cls-9" cx="1233.14" cy="337.68" rx="72.67" ry="63.26"/><ellipse class="cls-7" cx="1269.01" cy="409.46" rx="72.67" ry="63.26"/><ellipse class="cls-5" cx="1338.6" cy="380.4" rx="67.07" ry="87.49"/><ellipse class="cls-10" cx="1411.15" cy="392.26" rx="58.76" ry="58.19"/><ellipse class="cls-9" cx="1454.78" cy="341.21" rx="72.67" ry="63.26"/><ellipse class="cls-7" cx="1490.65" cy="412.99" rx="72.67" ry="63.26"/><ellipse class="cls-7" cx="1502.21" cy="384.07" rx="70.54" ry="76.78"/><ellipse class="cls-5" cx="1572.81" cy="354.49" rx="62.98" ry="106.31"/><ellipse class="cls-10" cx="1849.09" cy="373.2" rx="55.19" ry="70.71"/><ellipse class="cls-9" cx="1890.07" cy="311.16" rx="68.25" ry="76.87"/><ellipse class="cls-7" cx="1923.75" cy="398.38" rx="68.25" ry="76.87"/><ellipse class="cls-11" cx="1481" cy="596.56" rx="506.75" ry="13.25"/><ellipse class="cls-12" cx="416.13" cy="539.9" rx="474.88" ry="26.9"/><ellipse class="cls-13" cx="1233" cy="649.9" rx="172" ry="14.1"/></g><g id="shade"><rect class="cls-14" x="-56" y="-64" width="2054" height="902"/></g><g id="plants-background"><ellipse class="cls-15" cx="533.5" cy="214" rx="94.5" ry="42"/><ellipse class="cls-16" cx="509.5" cy="406" rx="94.5" ry="42"/><path class="cls-17" d="M407.43,568.41s-1.65-64.86-54-60.61"/><path class="cls-17" d="M346.11,535.39s41.77-22.64,63.1,33"/><path class="cls-17" d="M481.24,513c-74.05-26.42-72,54.16-72,54.16"/><path class="cls-17" d="M407,567.15s28.42-59.74,76-38.44"/><path class="cls-17" d="M409.21,569.88s-.37-65.62-8.39-84.48"/><ellipse class="cls-15" cx="24.5" cy="189" rx="94.5" ry="42"/><ellipse class="cls-18" cx="90" cy="263" rx="90" ry="40"/><ellipse class="cls-19" cx="229" cy="310" rx="81" ry="36"/><ellipse class="cls-20" cx="375.5" cy="218.56" rx="77.5" ry="34.44"/><ellipse class="cls-15" cx="398.02" cy="135.35" rx="64.63" ry="28.73"/><ellipse class="cls-15" cx="458.21" cy="45.75" rx="64.63" ry="28.73"/><ellipse class="cls-15" cx="250.5" cy="197" rx="94.5" ry="42"/><path class="cls-21" d="M430,587c1.6-7.43,2.82-14.85,4-22.28s2.08-14.86,3-22.28c1.71-14.86,3-29.71,4-44.56.44-7.43.89-14.86,1.19-22.29s.57-14.85.77-22.28l1-44.56c.72-29.71,1.22-59.42,1.82-89.12s1-59.42,1.38-89.13q1.19-89.13,1.4-178.25c.14-59.42,0-118.83-1.1-178.25h45.22c-1.07,59.42-1.24,118.83-1.1,178.25s.61,118.83,1.4,178.25c.35,29.71.9,59.42,1.38,89.13s1.1,59.41,1.82,89.12l1,44.56c.2,7.43.4,14.86.77,22.28s.75,14.86,1.19,22.29c1,14.85,2.28,29.7,4,44.56.88,7.42,1.83,14.85,3,22.28s2.36,14.85,4,22.28Z"/><path class="cls-22" d="M565.13,513.26c1.09-6.4,2-12.81,2.76-19.22s1.45-12.82,2.06-19.23c1.2-12.82,2.1-25.64,2.78-38.45s1.09-25.64,1.37-38.46l.71-38.45,1.27-76.91.93-76.91c.37-25.63.46-51.27.67-76.91l.24-38.45L578,51.82c.1-51.28,0-102.55-.76-153.82h31.5C608-50.73,607.89.54,608,51.82l.09,38.45.24,38.45c.21,25.64.3,51.28.67,76.91l.93,76.91,1.27,76.91.71,38.45c.28,12.82.7,25.64,1.37,38.46s1.58,25.63,2.78,38.45c.61,6.41,1.27,12.82,2.06,19.23s1.67,12.82,2.76,19.22Z"/><path class="cls-22" d="M252.13,530.39c1.09-6.41,2-12.82,2.76-19.23s1.45-12.82,2.06-19.23c1.2-12.82,2.1-25.63,2.78-38.45s1.09-25.64,1.37-38.46l.71-38.45,1.27-76.91.93-76.91c.37-25.63.46-51.27.67-76.9l.24-38.46L265,68.94c.1-51.27,0-102.55-.76-153.82h31.5C295-33.61,294.89,17.67,295,68.94l.09,38.45.24,38.46c.21,25.63.3,51.27.67,76.9l.93,76.91,1.27,76.91L298.9,415c.28,12.82.7,25.64,1.37,38.46s1.58,25.63,2.78,38.45c.61,6.41,1.27,12.82,2.06,19.23s1.67,12.82,2.76,19.23Z"/><path class="cls-22" d="M332,643c1.18-7.43,2.13-14.85,3-22.28s1.56-14.86,2.22-22.28c1.29-14.86,2.25-29.71,3-44.56s1.17-29.71,1.47-44.57l.77-44.56,1.36-89.12,1-89.13c.4-29.71.49-59.42.71-89.12l.27-44.57.09-44.56C346,48.83,345.85-10.58,345-70H379c-.81,59.42-.93,118.83-.82,178.25l.09,44.56.27,44.57c.22,29.7.31,59.41.71,89.12l1,89.13,1.36,89.12.77,44.56c.3,14.86.75,29.71,1.47,44.57s1.7,29.7,3,44.56c.66,7.42,1.37,14.85,2.22,22.28s1.79,14.85,3,22.28Z"/><line class="cls-23" x1="473" y1="177" x2="573.5" y2="-28.5"/><ellipse class="cls-15" cx="312.5" cy="42" rx="94.5" ry="42"/><ellipse class="cls-15" cx="593.5" cy="126" rx="94.5" ry="42"/><ellipse class="cls-15" cx="579.75" cy="13.99" rx="80.75" ry="35.89"/><ellipse class="cls-18" cx="204.61" cy="245.93" rx="64.63" ry="28.73"/><ellipse class="cls-18" cx="264.79" cy="121.34" rx="64.63" ry="28.73"/><ellipse class="cls-18" cx="119.08" cy="117.58" rx="94.5" ry="42"/><ellipse class="cls-19" cx="363.61" cy="363.93" rx="64.63" ry="28.73"/><ellipse class="cls-24" cx="423.79" cy="274.34" rx="64.63" ry="28.73"/><ellipse class="cls-16" cx="24.5" cy="364" rx="67.5" ry="30"/><ellipse class="cls-15" cx="563.45" cy="303.41" rx="64.63" ry="28.73"/><path class="cls-21" d="M202.56,558c3.05-25.64,4.54-51.27,5.58-76.91.49-12.82.79-25.63,1-38.45l.48-38.46,1-76.9.69-76.91c.27-25.64.33-51.27.48-76.91l.18-38.45L212,96.55c.07-51.27,0-102.54-.56-153.82h23.1C234-6,233.92,45.28,234,96.55l.07,38.46.18,38.45c.15,25.64.21,51.27.48,76.91l.69,76.91,1,76.9.48,38.46c.21,12.82.52,25.63,1,38.45,1,25.64,2.53,51.27,5.58,76.91Z"/><ellipse class="cls-25" cx="239.5" cy="420" rx="94.5" ry="42"/><path class="cls-22" d="M18.07,521.76c.54-6.41,1-12.82,1.37-19.23l.55-9.61.47-9.62c.33-6.41.55-12.81.79-19.22s.42-12.82.59-19.23c.75-25.64.79-51.27,1-76.91L23.54,291,24,214.12l.33-76.9.17-76.91c.06-25.64,0-51.27-.09-76.91L24.34-55l-.22-38.46H39.88L39.66-55,39.58-16.6c0,25.64-.15,51.27-.09,76.91l.17,76.91.33,76.9L40.46,291l.66,76.91c.25,25.64.29,51.27,1,76.91.17,6.41.33,12.82.59,19.23s.46,12.81.79,19.22l.47,9.62.55,9.61c.39,6.41.83,12.82,1.37,19.23Z"/><ellipse class="cls-18" cx="41.45" cy="42.41" rx="64.63" ry="28.73"/><path class="cls-26" d="M36.63,554S35.49,508.63-.92,511.6"/><path class="cls-26" d="M-6,530.89S23,515.06,37.87,554"/><path class="cls-26" d="M88,515.23c-51.49-18.47-50.09,37.86-50.09,37.86"/><path class="cls-26" d="M36.37,553.09s19.76-41.76,52.81-26.87"/><path class="cls-26" d="M37.87,555s-.25-45.87-5.83-59.06"/><path class="cls-22" d="M40.06,648a205.43,205.43,0,0,0,8.76-22.28q3.7-11.15,6.54-22.28a425.73,425.73,0,0,0,8.82-44.56c4.43-29.71,4.93-59.42,6.63-89.13q2.23-44.56,4-89.12c1.06-29.71,2.26-59.42,3-89.13Q80.49,202.37,81,113.25c0-14.85.13-29.71,0-44.56L81,46.41l-.23-22.28C80.55,9.27,80.32-5.58,80-20.44S79.18-50.15,78.5-65h100c-.68,14.85-1.1,29.71-1.45,44.56s-.6,29.71-.79,44.57L176,46.41l-.1,22.28c-.09,14.85,0,29.71,0,44.56q.41,89.13,3.18,178.25c.79,29.71,2,59.42,3,89.13q1.83,44.55,4,89.12c1.7,29.71,2.2,59.42,6.63,89.13a425.73,425.73,0,0,0,8.82,44.56q2.85,11.13,6.54,22.28A205.43,205.43,0,0,0,216.94,648Z"/><path class="cls-27" d="M167.78,670.68S165.21,569.37,83.42,576"/><path class="cls-27" d="M72,619.1s65.25-35.37,98.57,51.58"/><path class="cls-27" d="M283.09,584.1c-115.67-41.26-112.52,84.61-112.52,84.61"/><path class="cls-27" d="M167.19,668.71s44.39-93.32,118.65-60.05"/><path class="cls-27" d="M170.57,673s-.58-102.5-13.1-132"/><path class="cls-28" d="M503.05,609.38s-1.51-59.17-49.28-55.3"/><path class="cls-28" d="M447.1,579.26s38.11-20.66,57.57,30.12"/><path class="cls-28" d="M570.4,558.82c-67.57-24.1-65.73,49.41-65.73,49.41"/><path class="cls-28" d="M502.7,608.23s25.93-54.51,69.3-35.07"/><path class="cls-28" d="M504.67,610.72s-.33-59.86-7.65-77.08"/><path class="cls-29" d="M80,701.51s-2-79.34-66.07-74.15"/><path class="cls-29" d="M4.93,661.12s51.1-27.7,77.2,40.39"/><path class="cls-29" d="M170.25,633.71C79.66,601.4,82.13,700,82.13,700"/><path class="cls-29" d="M79.48,700s34.77-73.09,92.92-47"/><path class="cls-29" d="M82.13,703.31S81.68,623,71.87,600"/><ellipse class="cls-15" cx="1170.5" cy="225.34" rx="94.5" ry="42"/><ellipse class="cls-25" cx="1146.5" cy="417.34" rx="94.5" ry="42"/><path class="cls-30" d="M1044.43,579.75s-1.65-64.86-54-60.61"/><path class="cls-30" d="M983.11,546.73s41.77-22.64,63.1,33"/><path class="cls-30" d="M1118.24,524.32c-74-26.41-72,54.17-72,54.17"/><path class="cls-30" d="M1044,578.49s28.42-59.75,76-38.44"/><path class="cls-30" d="M1046.21,581.21s-.37-65.61-8.39-84.48"/><ellipse class="cls-15" cx="661.5" cy="200.34" rx="94.5" ry="42"/><ellipse class="cls-18" cx="727" cy="274.34" rx="90" ry="40"/><ellipse class="cls-25" cx="866" cy="321.34" rx="81" ry="36"/><ellipse class="cls-20" cx="1012.5" cy="285.89" rx="77.5" ry="34.44"/><ellipse class="cls-15" cx="1065.02" cy="167.68" rx="64.63" ry="28.73"/><ellipse class="cls-15" cx="1095.21" cy="57.09" rx="64.63" ry="28.73"/><ellipse class="cls-15" cx="889.5" cy="193" rx="94.5" ry="42"/><path class="cls-22" d="M1067,598.34c1.6-7.43,2.82-14.86,4-22.29s2.08-14.85,3-22.28c1.71-14.85,3-29.71,4-44.56.44-7.43.89-14.85,1.19-22.28s.57-14.86.77-22.28l1-44.56c.72-29.71,1.22-59.42,1.82-89.13s1-59.42,1.38-89.12q1.19-89.13,1.4-178.25c.14-59.42,0-118.84-1.1-178.25h45.22c-1.07,59.41-1.24,118.83-1.1,178.25s.61,118.83,1.4,178.25c.35,29.7.9,59.41,1.38,89.12s1.1,59.42,1.82,89.13l1,44.56c.2,7.42.4,14.85.77,22.28s.75,14.85,1.19,22.28c1,14.85,2.28,29.71,4,44.56.88,7.43,1.83,14.86,3,22.28s2.36,14.86,4,22.29Z"/><path class="cls-21" d="M1202.13,524.6c1.09-6.41,2-12.82,2.76-19.23s1.45-12.81,2.06-19.22c1.2-12.82,2.1-25.64,2.78-38.46s1.09-25.63,1.37-38.45l.71-38.46,1.27-76.9L1214,217c.37-25.64.46-51.27.67-76.91l.24-38.45.09-38.46c.1-51.27,0-102.54-.76-153.81h31.5c-.74,51.27-.86,102.54-.76,153.81l.09,38.46.24,38.45c.21,25.64.3,51.27.67,76.91l.93,76.91,1.27,76.9.71,38.46c.28,12.82.7,25.63,1.37,38.45s1.58,25.64,2.78,38.46c.61,6.41,1.27,12.81,2.06,19.22s1.67,12.82,2.76,19.23Z"/><path class="cls-22" d="M889.13,541.72c1.09-6.41,2-12.82,2.76-19.23s1.45-12.81,2.06-19.22c1.2-12.82,2.1-25.64,2.78-38.46s1.09-25.63,1.37-38.45l.71-38.45L900.08,311l.93-76.91c.37-25.64.46-51.27.67-76.91l.24-38.45L902,80.27c.1-51.27,0-102.54-.76-153.81h31.5C932-22.27,931.89,29,932,80.27l.09,38.46.24,38.45c.21,25.64.3,51.27.67,76.91l.93,76.91,1.27,76.91.71,38.45c.28,12.82.7,25.64,1.37,38.45s1.58,25.64,2.78,38.46c.61,6.41,1.27,12.82,2.06,19.22s1.67,12.82,2.76,19.23Z"/><path class="cls-22" d="M969,654.34c1.18-7.43,2.13-14.86,3-22.29s1.56-14.85,2.22-22.28c1.29-14.85,2.25-29.71,3-44.56s1.17-29.71,1.47-44.56l.77-44.56L980.78,387l1-89.12c.4-29.71.49-59.42.71-89.13l.27-44.56.09-44.56C983,60.17,982.85.75,982-58.66H1016c-.81,59.41-.93,118.83-.82,178.25l.09,44.56.27,44.56c.22,29.71.31,59.42.71,89.13l1,89.12,1.36,89.13.77,44.56c.3,14.85.75,29.71,1.47,44.56s1.7,29.71,3,44.56c.66,7.43,1.37,14.86,2.22,22.28s1.79,14.86,3,22.29Z"/><line class="cls-23" x1="1110" y1="188.34" x2="1210.5" y2="-17.16"/><ellipse class="cls-15" cx="949.5" cy="53.34" rx="94.5" ry="42"/><ellipse class="cls-15" cx="1230.5" cy="137.34" rx="94.5" ry="42"/><ellipse class="cls-15" cx="1216.75" cy="25.33" rx="80.75" ry="35.89"/><ellipse class="cls-18" cx="827.61" cy="259.27" rx="64.63" ry="28.73"/><ellipse class="cls-18" cx="901.79" cy="132.67" rx="64.63" ry="28.73"/><ellipse class="cls-18" cx="756.08" cy="128.92" rx="94.5" ry="42"/><ellipse class="cls-24" cx="1000.61" cy="375.27" rx="64.63" ry="28.73"/><ellipse class="cls-24" cx="1060.79" cy="285.67" rx="64.63" ry="28.73"/><ellipse class="cls-19" cx="661.5" cy="375.34" rx="67.5" ry="30"/><ellipse class="cls-19" cx="1200.45" cy="314.75" rx="64.63" ry="28.73"/><path class="cls-22" d="M839.56,569.34c3.05-25.64,4.54-51.28,5.58-76.91.49-12.82.79-25.64,1-38.46l.48-38.45,1-76.91.69-76.91c.27-25.63.33-51.27.48-76.91l.18-38.45.07-38.45c.07-51.28,0-102.55-.56-153.82h23.1C871,5.34,870.92,56.61,871,107.89l.07,38.45.18,38.45c.15,25.64.21,51.28.49,76.91l.68,76.91,1,76.91.48,38.45c.21,12.82.52,25.64,1,38.46,1,25.63,2.53,51.27,5.58,76.91Z"/><ellipse class="cls-31" cx="876.5" cy="431.34" rx="94.5" ry="42"/><path class="cls-22" d="M655.07,533.09c.54-6.41,1-12.82,1.37-19.22l.55-9.62.47-9.61c.33-6.41.55-12.82.79-19.23s.42-12.82.59-19.23c.75-25.63.79-51.27,1-76.9l.66-76.91.47-76.91.33-76.91.17-76.91c.06-25.63,0-51.27-.09-76.9l-.08-38.46-.22-38.45h15.76l-.22,38.45-.08,38.46c-.05,25.63-.15,51.27-.09,76.9l.17,76.91.33,76.91.47,76.91.66,76.91c.25,25.63.29,51.27,1,76.9.17,6.41.33,12.82.59,19.23s.46,12.82.79,19.23l.47,9.61.55,9.62c.39,6.4.83,12.81,1.37,19.22Z"/><ellipse class="cls-18" cx="678.45" cy="53.75" rx="64.63" ry="28.73"/><path class="cls-32" d="M673.63,565.31s-1.14-45.34-37.55-42.37"/><path class="cls-32" d="M631,542.23s29-15.83,43.87,23.08"/><path class="cls-32" d="M725,526.56c-51.49-18.46-50.09,37.87-50.09,37.87"/><path class="cls-32" d="M673.37,564.43s19.76-41.77,52.81-26.88"/><path class="cls-32" d="M674.87,566.34s-.25-45.88-5.83-59.07"/><path class="cls-21" d="M677.06,659.34a205.58,205.58,0,0,0,8.76-22.29q3.7-11.13,6.54-22.28a425.22,425.22,0,0,0,8.82-44.56c4.43-29.71,4.93-59.42,6.63-89.12q2.24-44.56,4-89.13c1.06-29.71,2.26-59.42,3.05-89.12q2.64-89.13,3.18-178.25c0-14.86.13-29.71,0-44.57L718,57.74l-.23-22.28c-.19-14.85-.42-29.71-.79-44.56s-.77-29.71-1.45-44.56h100c-.68,14.85-1.1,29.7-1.45,44.56s-.6,29.71-.79,44.56L813,57.74,812.93,80c-.09,14.86,0,29.71,0,44.57q.4,89.11,3.18,178.25c.79,29.7,2,59.41,3.05,89.12q1.83,44.57,4,89.13c1.7,29.7,2.2,59.41,6.63,89.12a425.22,425.22,0,0,0,8.82,44.56q2.85,11.15,6.54,22.28a205.58,205.58,0,0,0,8.76,22.29Z"/><path class="cls-33" d="M807.58,678.94S805.06,580,725.21,586.5"/><path class="cls-33" d="M714.06,628.59s63.71-34.53,96.24,50.35"/><path class="cls-33" d="M920.16,594.42C807.22,554.13,810.3,677,810.3,677"/><path class="cls-33" d="M807,677s43.35-91.11,115.85-58.62"/><path class="cls-33" d="M810.3,681.18s-.56-100.07-12.79-128.84"/><path class="cls-28" d="M1140.05,620.72s-1.51-59.18-49.28-55.3"/><path class="cls-28" d="M1084.1,590.59s38.11-20.65,57.57,30.13"/><path class="cls-28" d="M1207.4,570.15c-67.57-24.1-65.73,49.42-65.73,49.42"/><path class="cls-28" d="M1139.7,619.57s25.93-54.51,69.3-35.07"/><path class="cls-28" d="M1141.67,622.06s-.33-59.87-7.65-77.08"/><path class="cls-34" d="M393,680.85s-2-79.34-66.07-74.15"/><path class="cls-34" d="M317.93,640.46s51.1-27.7,77.2,40.39"/><path class="cls-34" d="M483.25,613.05c-90.59-32.32-88.12,66.26-88.12,66.26"/><path class="cls-34" d="M392.48,679.31s34.77-73.09,92.92-47"/><path class="cls-34" d="M395.13,682.64s-.45-80.27-10.26-103.35"/><ellipse class="cls-15" cx="1480.5" cy="243.34" rx="94.5" ry="42"/><ellipse class="cls-31" cx="1456.5" cy="435.34" rx="94.5" ry="42"/><path class="cls-35" d="M1354.43,597.75s-1.65-64.86-54-60.61"/><path class="cls-35" d="M1293.11,564.73s41.77-22.64,63.1,33"/><path class="cls-35" d="M1428.24,542.32c-74-26.41-72,54.17-72,54.17"/><path class="cls-35" d="M1354,596.49s28.42-59.75,76-38.44"/><path class="cls-35" d="M1356.21,599.21s-.37-65.61-8.39-84.48"/><ellipse class="cls-15" cx="1852.5" cy="79" rx="94.5" ry="42"/><ellipse class="cls-18" cx="1890" cy="355.34" rx="81" ry="36"/><ellipse class="cls-20" cx="1322.5" cy="247.89" rx="77.5" ry="34.44"/><ellipse class="cls-15" cx="1360.19" cy="188.94" rx="97.81" ry="43.47"/><ellipse class="cls-15" cx="1405.21" cy="75.09" rx="64.63" ry="28.73"/><ellipse class="cls-15" cx="1057.5" cy="111" rx="94.5" ry="42"/><path class="cls-22" d="M1377,616.34c1.6-7.43,2.82-14.86,4-22.29s2.08-14.85,3-22.28c1.71-14.85,3-29.71,4-44.56.44-7.43.89-14.85,1.19-22.28s.57-14.86.77-22.28l1-44.56c.72-29.71,1.22-59.42,1.82-89.13s1-59.42,1.38-89.12q1.19-89.13,1.4-178.25c.14-59.42,0-118.84-1.1-178.25h45.22c-1.07,59.41-1.24,118.83-1.1,178.25s.61,118.83,1.4,178.25c.35,29.7.9,59.41,1.38,89.12s1.1,59.42,1.82,89.13l1,44.56c.2,7.42.4,14.85.77,22.28s.75,14.85,1.19,22.28c1,14.85,2.28,29.71,4,44.56.88,7.43,1.83,14.86,3,22.28s2.36,14.86,4,22.29Z"/><path class="cls-22" d="M1512.13,542.6c1.09-6.41,2-12.82,2.76-19.23s1.45-12.81,2.06-19.22c1.2-12.82,2.1-25.64,2.78-38.46s1.09-25.63,1.37-38.45l.71-38.46,1.27-76.9L1524,235c.37-25.64.46-51.27.67-76.91l.24-38.45.09-38.46c.1-51.27,0-102.54-.76-153.81h31.5c-.74,51.27-.86,102.54-.76,153.81l.09,38.46.24,38.45c.21,25.64.3,51.27.67,76.91l.93,76.91,1.27,76.9.71,38.46c.28,12.82.7,25.63,1.37,38.45s1.58,25.64,2.78,38.46c.61,6.41,1.27,12.81,2.06,19.22s1.67,12.82,2.76,19.23Z"/><path class="cls-22" d="M1279,672.34c1.18-7.43,2.13-14.86,3-22.29s1.56-14.85,2.22-22.28c1.29-14.85,2.25-29.71,3-44.56s1.17-29.71,1.47-44.56l.77-44.56,1.36-89.13,1-89.12c.4-29.71.49-59.42.71-89.13l.27-44.56.09-44.56c.11-59.42,0-118.84-.82-178.25H1326c-.81,59.41-.93,118.83-.82,178.25l.09,44.56.27,44.56c.22,29.71.31,59.42.71,89.13l1,89.12,1.36,89.13.77,44.56c.3,14.85.75,29.71,1.47,44.56s1.7,29.71,3,44.56c.66,7.43,1.37,14.86,2.22,22.28s1.79,14.86,3,22.29Z"/><line class="cls-23" x1="1420" y1="206.34" x2="1520.5" y2="0.84"/><ellipse class="cls-15" cx="1362.5" cy="11" rx="94.5" ry="42"/><ellipse class="cls-15" cx="1540.5" cy="155.34" rx="94.5" ry="42"/><ellipse class="cls-15" cx="1526.75" cy="43.33" rx="80.75" ry="35.89"/><ellipse class="cls-18" cx="1865.61" cy="256.27" rx="64.63" ry="28.73"/><ellipse class="cls-18" cx="1925.79" cy="166.67" rx="64.63" ry="28.73"/><ellipse class="cls-18" cx="1250.5" cy="253" rx="94.5" ry="42"/><ellipse class="cls-16" cx="1310.61" cy="393.27" rx="64.63" ry="28.73"/><ellipse class="cls-24" cx="1370.79" cy="303.67" rx="64.63" ry="28.73"/><ellipse class="cls-25" cx="1510.45" cy="332.75" rx="64.63" ry="28.73"/><path class="cls-21" d="M1863.56,603.34c3-25.64,4.54-51.28,5.58-76.91.49-12.82.79-25.64,1-38.46l.48-38.45,1-76.91.69-76.91c.27-25.63.33-51.27.48-76.91l.18-38.45.07-38.45c.07-51.28,0-102.55-.56-153.82h23.1c-.55,51.27-.63,102.54-.56,153.82l.07,38.45.18,38.45c.15,25.64.21,51.28.49,76.91l.68,76.91,1,76.91.48,38.45c.21,12.82.52,25.64,1,38.46,1,25.63,2.53,51.27,5.58,76.91Z"/><ellipse class="cls-15" cx="1900.5" cy="465.34" rx="94.5" ry="42"/><ellipse class="cls-18" cx="1852.45" cy="167.75" rx="64.63" ry="28.73"/><path class="cls-36" d="M1868.58,755.94s-2.52-98.91-82.37-92.44"/><path class="cls-36" d="M1775.06,705.59s63.71-34.53,96.24,50.35"/><path class="cls-36" d="M1981.16,671.42C1868.22,631.13,1871.3,754,1871.3,754"/><path class="cls-36" d="M1868,754s43.35-91.11,115.85-58.62"/><path class="cls-36" d="M1871.3,758.18s-.56-100.07-12.79-128.84"/><path class="cls-37" d="M1474.05,648.72s-1.51-59.18-49.28-55.3"/><path class="cls-37" d="M1418.1,618.59s38.11-20.65,57.57,30.13"/><path class="cls-37" d="M1541.4,598.15c-67.57-24.1-65.73,49.42-65.73,49.42"/><path class="cls-37" d="M1473.7,647.57s25.93-54.51,69.3-35.07"/><path class="cls-37" d="M1475.67,650.06s-.33-59.87-7.65-77.08"/><path class="cls-34" d="M1485,801.85s-2-79.34-66.07-74.15"/><path class="cls-34" d="M1409.93,761.46s51.1-27.7,77.2,40.39"/><path class="cls-34" d="M1575.25,734.05c-90.59-32.32-88.12,66.26-88.12,66.26"/><path class="cls-34" d="M1484.48,800.31s34.77-73.09,92.92-47"/><path class="cls-34" d="M1487.13,803.64s-.45-80.27-10.26-103.35"/><path class="cls-38" d="M617.14,682.87S614,559.53,514.43,567.61"/><path class="cls-38" d="M500.53,620.08S580,577,620.53,682.87"/><path class="cls-38" d="M757.52,577.47c-140.83-50.23-137,103-137,103"/><path class="cls-38" d="M616.41,680.48s54.05-113.62,144.45-73.11"/><path class="cls-38" d="M620.53,685.66s-.7-124.78-15.95-160.66"/><path class="cls-39" d="M930.64,687.6S927.57,567,830.18,574.86"/><path class="cls-39" d="M816.58,626.19S894.28,584.07,934,687.6"/><path class="cls-39" d="M1068,584.51C930.21,535.38,934,685.26,934,685.26"/><path class="cls-39" d="M929.93,685.26s52.87-111.13,141.29-71.5"/><path class="cls-39" d="M934,690.33s-.68-122.05-15.6-157.15"/><path class="cls-36" d="M1241.8,663s-2.52-98.91-82.37-92.43"/><path class="cls-36" d="M1148.28,612.67s63.7-34.53,96.24,50.35"/><path class="cls-36" d="M1354.38,578.5c-112.94-40.29-109.86,82.61-109.86,82.61"/><path class="cls-36" d="M1241.21,661.11s43.35-91.12,115.85-58.63"/><path class="cls-36" d="M1244.52,665.26s-.56-100.07-12.79-128.84"/><path class="cls-34" d="M1374.17,723.93s-2-79.34-66.07-74.15"/><path class="cls-34" d="M1299.15,683.54s51.1-27.7,77.2,40.39"/><path class="cls-34" d="M1464.47,656.13c-90.59-32.32-88.12,66.26-88.12,66.26"/><path class="cls-34" d="M1373.7,722.39s34.77-73.09,92.92-47"/><path class="cls-34" d="M1376.35,725.72s-.45-80.27-10.26-103.35"/></g><g id="tree"><path class="cls-21" d="M1415.16,948.18c2.73-3.11,5.2-6.21,7.58-9.31l3.48-4.66c1.14-1.55,2.23-3.1,3.33-4.65q6.48-9.31,12.07-18.62a393.09,393.09,0,0,0,19.72-37.24c1.43-3.11,2.87-6.21,4.18-9.31l2-4.66,1.9-4.65c2.58-6.21,4.9-12.42,7.11-18.62,4.4-12.42,8.17-24.83,11.41-37.24a480,480,0,0,0,13.09-74.48l3.51-37.24,1.75-18.62,1.65-18.62,3.27-37.24,3-37.24,1.52-18.62,1.41-18.62L1520,501.3q5.3-74.48,9.35-149c5.23-99.31,8.66-198.61,9.5-297.92.42-49.65.22-99.31-.88-149-.56-24.83-1.31-49.65-2.38-74.48s-2.38-49.65-4.42-74.48h301.76c-2,24.83-3.33,49.65-4.42,74.48s-1.82,49.65-2.37,74.48c-1.11,49.65-1.3,99.31-.89,149,.85,99.31,4.28,198.61,9.5,297.92q4,74.48,9.35,149l2.79,37.24,1.41,18.62,1.52,18.62,3,37.24,3.28,37.24,1.64,18.62,1.76,18.62,3.5,37.24a481.22,481.22,0,0,0,13.1,74.48c3.24,12.41,7,24.82,11.4,37.24,2.21,6.2,4.53,12.41,7.11,18.62l1.9,4.65,2,4.66c1.31,3.1,2.75,6.2,4.18,9.31a390.93,390.93,0,0,0,19.73,37.24q5.6,9.3,12.06,18.62c1.1,1.55,2.19,3.1,3.33,4.65l3.49,4.66c2.37,3.1,4.84,6.2,7.58,9.31Z"/><polygon class="cls-40" points="1743.5 -156.99 1722.42 30.42 1754.05 217.84 1682.05 439.19 1682.05 510.02 1625.41 529.84 1575.85 635.53 1521.03 716.33 1521.03 796.3 1580.66 858.59 1502.17 948.18 1949.11 948.18 1884.81 827.16 1848.75 542.76 1835.32 224.83 1826.8 -128.53 1743.5 -156.99"/></g><g id="ants"><path id="ants-2" class="cls-41" d="M1815.73-35.13s-26.89,38.39-22.14,86.77l4.74,48.37s38.75,201.27,25.31,257.81-16.48,181.63,2.83,231.77,26.43,140.74,22.28,169,42.37,174.21,100.36,189.6"/><path id="ants-1" class="cls-42" d="M1806.24-31.57S1779.35,6.82,1784.1,55.2l4.74,48.37s38.75,201.26,25.31,257.8S1797.67,543,1817,593.15s26.43,140.74,22.28,169,42.37,174.21,100.36,189.6"/></g><g id="plants-foreground"><path class="cls-43" d="M1664.71,1006.5c-5.7-11.83-10.53-23.2-15.45-34.24s-9.65-21.76-14.6-32.15c-2.46-5.19-4.9-10.33-7.26-15.47l-7.06-15.39c-4.69-10.26-10.18-20.27-17.35-29a140.76,140.76,0,0,0-54.46-40.63,169.9,169.9,0,0,0-34.18-10.24l-4.47-.85-4.5-.7c-3-.51-6-.8-9.07-1.16-1.52-.21-3-.34-4.58-.47l-4.59-.39c-3.07-.21-6.15-.34-9.25-.54l-.24-3.51c24.64-4.46,50.65-4.83,76.28,1.12a175.5,175.5,0,0,1,18.93,5.82,162.09,162.09,0,0,1,18.2,8.36,154,154,0,0,1,32.49,24c4.86,4.7,9.61,9.55,14.11,14.64l3.34,3.85,3.24,3.93,3.11,4c1,1.36,2,2.74,3,4.12a120.69,120.69,0,0,1,10.22,17.48,123.62,123.62,0,0,1,7.07,18.8,155.6,155.6,0,0,1,5.95,39.2,141.94,141.94,0,0,1-1,19.76c-.42,3.28-.94,6.55-1.65,9.81a70.59,70.59,0,0,1-2.74,9.74Z"/><path class="cls-43" d="M1445.5,905.2a156,156,0,0,1,32.07-13.81,172.74,172.74,0,0,1,17.1-4.39,166,166,0,0,1,35.67-3.55,160,160,0,0,1,18.23,1.27,154.07,154.07,0,0,1,18.13,3.58,158.62,158.62,0,0,1,17.7,5.84l4.33,1.78,4.31,1.88c1.44.62,2.85,1.29,4.28,2s2.85,1.33,4.25,2.06,2.83,1.39,4.21,2.15l4.16,2.27c1.37.78,2.7,1.62,4.06,2.43s2.7,1.66,4,2.54A99.54,99.54,0,0,1,1632.74,923c1.11,1.11,2.24,2.2,3.31,3.35s2.11,2.31,3.11,3.51c2.08,2.33,3.87,4.88,5.75,7.36a132.85,132.85,0,0,1,16.85,32.63c.54,1.41,1,2.89,1.41,4.34s.9,2.9,1.29,4.36c.8,2.93,1.43,5.91,2.06,8.87s1,6,1.34,9.05a91.38,91.38,0,0,1,.45,9.25l-3.21,1.43c-2.4-2-4.57-4.1-6.65-6.19s-4.21-4.12-6.22-6.18l-3-3.06c-1-1-1.93-2.07-2.94-3.06-2-2-3.86-4-5.82-6-7.66-7.94-15-15.57-22.43-22.79l-2.77-2.69c-.47-.44-.9-.91-1.36-1.36l-1.38-1.32-5.42-5.35c-3.6-3.54-7.09-7.18-10.72-10.7-7.14-7.16-15-13.84-23.94-18.87-17.85-10-38.35-16-59.88-17.74a176.75,176.75,0,0,0-32.75.34q-8.26.79-16.5,2.35a152,152,0,0,0-16.3,3.84Z"/><path class="cls-43" d="M1923.85,840.84l-11.32-2.27c-3.78-.71-7.57-1.34-11.34-2s-7.57-1.16-11.34-1.74-7.57-.92-11.34-1.38a272.56,272.56,0,0,0-45.07-1.34c-3.72.12-7.4.56-11.07.87-1.84.17-3.65.47-5.47.7s-3.64.46-5.43.82l-5.39.94-5.31,1.16c-1.78.35-3.52.83-5.26,1.31s-3.49.87-5.18,1.46l-5.11,1.59-5,1.83c-1.68.56-3.28,1.34-4.91,2l-2.44,1-2.38,1.13a121.62,121.62,0,0,0-18.08,10.38,101.5,101.5,0,0,0-15.59,13.49,131.13,131.13,0,0,0-12.79,16c-3.89,5.62-7.49,11.43-11,17.35s-6.89,12-10.18,18.22a402.3,402.3,0,0,0-17.94,39.55c-5.49,13.84-10.55,28.23-15.89,43.24l-3.52,0a88.29,88.29,0,0,1-2.92-12c-.73-4-1.24-8-1.63-12.09a165.79,165.79,0,0,1-.34-24.42c.27-4.07.6-8.17,1.18-12.23s1.21-8.15,2-12.2a166.59,166.59,0,0,1,6.82-24,135.26,135.26,0,0,1,10.93-22.9A125.8,125.8,0,0,1,1697,864.84a166.19,166.19,0,0,1,40.59-31.46A152.88,152.88,0,0,1,1785,816.59a192.29,192.29,0,0,1,48.68-2.07c32,2.61,62.47,11.28,91.23,23Z"/><path class="cls-43" d="M1664.89,1006.21a61.13,61.13,0,0,1-.62-11c0-1.84.17-3.62.28-5.46s.4-3.61.61-5.43a118.91,118.91,0,0,1,5.19-21.29,129.19,129.19,0,0,1,21.72-38.66c2.48-2.8,4.9-5.69,7.56-8.34,1.33-1.32,2.73-2.57,4.1-3.85.69-.64,1.38-1.28,2.08-1.9s1.43-1.23,2.17-1.8c1.46-1.18,3-2.29,4.47-3.42.74-.57,1.5-1.13,2.26-1.68l1.14-.82,1.19-.75c3.18-2,6.36-4,9.63-5.76l10-4.91L1747,887c1.69-.74,3.45-1.27,5.18-1.86s3.48-1.15,5.2-1.75c3.42-1.27,6.93-2.2,10.42-3.2s6.93-2.07,10.46-2.75,7-1.54,10.52-2.26l10.59-1.54,2.64-.38,1.32-.18,1.32-.12,5.3-.42,5.28-.39,2.64-.19,1.32-.09h1.32l10.53-.12c1.75,0,3.5-.05,5.24,0l5.23.28,10.42.55,1.3.08,1.29.14,2.58.3,5.16.59c3.44.41,6.87.74,10.28,1.23l10.18,1.72,5.07.86c1.69.3,3.38.57,5,1l10,2.29,5,1.15c1.66.39,3.33.72,5,1.22,6.56,1.9,13.11,3.73,19.6,5.68l-.72,3.44c-6.74-.54-13.43-1.19-20.11-1.77-1.66-.19-3.34-.22-5-.32l-5-.25-10-.5c-1.66-.11-3.33-.08-5-.09l-5,0-9.94-.07c-3.31.06-6.61.27-9.91.4l-4.93.23-2.46.11-1.23.06-1.23.12-9.78.94-4.87.47c-1.61.19-3.22.49-4.82.73l-9.61,1.44-1.2.18-1.18.26-2.37.5-4.72,1-4.7,1-1.18.24-1.15.32-2.31.63-9.21,2.51-9,3c-3,.92-5.88,2.21-8.76,3.4a134.82,134.82,0,0,0-31.7,18.73c-1.23.87-2.35,1.9-3.53,2.82s-2.35,1.87-3.55,2.77-2.27,1.94-3.45,2.86-2.28,1.92-3.46,2.82-2.24,2-3.4,2.9-2.25,2-3.43,2.87-2.2,2-3.35,3l-3.4,2.95A274.31,274.31,0,0,0,1692.14,975a370.45,370.45,0,0,0-23.79,31.84Z"/><path class="cls-43" d="M1665,1007c-1.36-2.66-2.5-5.33-3.56-8s-2-5.32-3-8c-1.83-5.31-3.38-10.61-4.79-15.92a281.63,281.63,0,0,1-6.32-31.78q-1.12-8-1.51-15.92c-.24-5.31-.22-10.63,0-16,.47-10.68,1.21-21.4,1-32.05-.36-21.3-.83-42.6-2-63.84-.52-10.64-1.46-21.21-2.74-31.73-.17-1.31-.29-2.65-.49-4L1641,776c-.21-1.3-.37-2.63-.62-3.92l-.74-3.89c-.42-2.63-1.07-5.16-1.67-7.75-.16-.64-.29-1.3-.47-1.93l-.57-1.88-1.13-3.81,3.16-1.56a115.51,115.51,0,0,1,7.78,14.66l1.66,3.81c.54,1.27,1,2.56,1.52,3.84l1.49,3.86c.5,1.29.92,2.59,1.39,3.89.91,2.6,1.86,5.2,2.63,7.82s1.66,5.25,2.4,7.89l2.26,7.91,2.1,8c.7,2.65,1.29,5.31,1.94,8s1.27,5.33,1.86,8c1.2,5.34,2.27,10.69,3.36,16s2,10.72,2.91,16.09,1.75,10.75,2.59,16.13c1.58,10.76,3.88,21.47,5.67,32.24a160.92,160.92,0,0,1,1.84,16.2,152.41,152.41,0,0,1,0,16.28,227.17,227.17,0,0,1-4,32.63c-1.12,5.44-2.38,10.87-4,16.3-.82,2.72-1.68,5.43-2.67,8.14a82.14,82.14,0,0,1-3.36,8.13Z"/><path class="cls-44" d="M1744.06,1066.87s-2.4-94.12-78.38-87.95"/><path class="cls-44" d="M1655.07,1019s60.62-32.86,91.57,47.91"/><path class="cls-44" d="M1851.18,986.44c-107.47-38.33-104.54,78.61-104.54,78.61"/><path class="cls-44" d="M1743.5,1065.05s41.24-86.7,110.22-55.79"/><path class="cls-44" d="M1746.64,1069s-.53-95.22-12.17-122.6"/><path class="cls-45" d="M1509,1040c-3.72-9-7-17.62-10.47-26.06s-6.86-16.62-10.51-24.58-7.23-15.75-11-23.53a102.7,102.7,0,0,0-13.58-21.92,106.3,106.3,0,0,0-41.84-30.45c-16.51-6.77-34.89-9.57-53.48-10.08l-.15-2.25c18.55-3.05,38-3.08,57.1,1.58a129.78,129.78,0,0,1,14.07,4.48,123.61,123.61,0,0,1,13.49,6.36,114.76,114.76,0,0,1,24,18,155.81,155.81,0,0,1,19.65,22.92,94.94,94.94,0,0,1,12.85,27,124.08,124.08,0,0,1,5,29.12,111.11,111.11,0,0,1-.26,14.71c-.23,2.45-.52,4.89-.94,7.32a57,57,0,0,1-1.68,7.27Z"/><path class="cls-45" d="M1343.88,963.89a117.66,117.66,0,0,1,24.18-9.95,134.74,134.74,0,0,1,26-5,121.14,121.14,0,0,1,27,.63,111.48,111.48,0,0,1,26.55,7.28l3.23,1.3c1.06.47,2.1,1,3.15,1.47l3.17,1.46,1.59.74c.53.25,1,.55,1.54.82l6.17,3.35c2,1.21,3.93,2.51,5.91,3.78,1,.67,2,1.27,2.89,2s1.83,1.45,2.73,2.19,1.81,1.48,2.69,2.25a29,29,0,0,1,2.57,2.37c1.63,1.66,3.22,3.36,4.77,5.08a62.16,62.16,0,0,1,4.27,5.46c1.32,1.89,2.75,3.71,3.91,5.69s2.32,3.94,3.42,5.94c.55,1,1.12,2,1.63,3s1,2.07,1.41,3.1c.94,2.07,1.82,4.16,2.67,6.25a28.74,28.74,0,0,1,1.14,3.19c.35,1.08.7,2.15,1,3.23.66,2.16,1.27,4.33,1.84,6.49a102.82,102.82,0,0,1,2,13.45l-2.07.92a128.46,128.46,0,0,1-9.08-9.64c-1.48-1.57-2.94-3.14-4.34-4.72s-2.7-3.2-4.15-4.7-2.83-3-4.18-4.57c-.68-.76-1.37-1.51-2-2.29s-1.41-1.46-2.11-2.19c-1.41-1.44-2.75-2.93-4.12-4.39-.65-.76-1.37-1.43-2.09-2.12l-2.1-2.09-2-2.12-1-1.07-1.07-1q-2.12-2-4.13-4.11c-.66-.72-1.35-1.38-2.07-2s-1.38-1.35-2.07-2-1.36-1.38-2-2.07-1.42-1.31-2.12-2A84.07,84.07,0,0,0,1440,973.2a102.36,102.36,0,0,0-21.87-8.92,118,118,0,0,0-23.85-4,131.72,131.72,0,0,0-24.76.64q-6.23.68-12.41,2a115.39,115.39,0,0,0-12.24,3.1Z"/><path class="cls-45" d="M1703.92,915.09l-8.49-1.84c-2.84-.56-5.69-1.07-8.52-1.6s-5.69-.94-8.53-1.41-5.69-.76-8.53-1.14a205.75,205.75,0,0,0-34-1.38,135,135,0,0,0-32.76,5.17A99.93,99.93,0,0,0,1574,926.34c-1.09.76-2.13,1.57-3.2,2.34s-2.06,1.65-3.09,2.47-2,1.75-3,2.63-1.89,1.82-2.82,2.75a99.07,99.07,0,0,0-10,12.14,231.27,231.27,0,0,0-16.23,27.21,269,269,0,0,0-13.06,30.26c-3.88,10.55-7.36,21.49-10.82,32.84h-2.26a72,72,0,0,1-1.81-9c-.44-3-.73-6-.92-9a133,133,0,0,1,8.19-54.19,104.29,104.29,0,0,1,8.19-17,97.56,97.56,0,0,1,11.38-15.29A122.13,122.13,0,0,1,1564.5,911a116.28,116.28,0,0,1,35.13-12.69,147.79,147.79,0,0,1,36.34-1.85c24,1.72,46.9,8,68.62,16.5Z"/><path class="cls-45" d="M1509.13,1039.78a48.2,48.2,0,0,1-.11-8.14c0-1.36.23-2.68.36-4s.39-2.66.58-4a92.13,92.13,0,0,1,4.3-15.69,100,100,0,0,1,16.56-28.43c1.85-2.06,3.66-4.19,5.64-6.14,1-1,2-1.9,3-2.85s2-1.91,3.15-2.74,2.2-1.7,3.31-2.54c.55-.43,1.11-.84,1.67-1.25s1.13-.81,1.72-1.18c2.35-1.48,4.69-3,7.11-4.32l7.4-3.72,7.59-3.19c1.25-.56,2.55-1,3.84-1.42l3.85-1.35c2.54-1,5.15-1.68,7.73-2.44,5.14-1.68,10.42-2.66,15.62-3.85l7.9-1.21c1.31-.18,2.61-.46,3.94-.54l4-.35c2.63-.19,5.26-.49,7.89-.58l7.87-.16c1.31,0,2.62-.07,3.93,0l3.91.16,7.81.34a279.45,279.45,0,0,1,60.53,11.44l-.46,2.21-15.11-1.54c-5-.43-10.07-.67-15.07-1s-10-.22-15-.34c-2.5,0-5,.15-7.48.21s-5,.11-7.44.31l-7.39.62-3.69.31c-1.22.13-2.44.34-3.66.51l-7.28,1c-2.42.37-4.79.94-7.18,1.4l-3.58.7c-1.2.2-2.35.59-3.53.87l-7,1.83c-4.56,1.53-9.18,2.84-13.53,4.76a105.24,105.24,0,0,0-24.38,13.94c-7.39,5.56-14.35,11.36-21.14,17.58a184.07,184.07,0,0,0-19,20.68,233.78,233.78,0,0,0-16.89,24.59Z"/><path class="cls-45" d="M1509.17,1040.35a151.12,151.12,0,0,1-7.33-24c-1.81-8-3.17-16-4.19-24a150.93,150.93,0,0,1-1.16-24c.23-8,.62-16.11.41-24.14-.43-16-1-32.09-2.09-48.07q-.76-12-2.43-23.87c-.24-2-.57-4-.91-5.92-.17-1-.31-2-.52-2.95l-.61-2.92a92.69,92.69,0,0,0-3.1-11.54l2-1c4.35,7.09,7.36,14.88,10,22.68s4.76,15.79,6.7,23.77,3.58,16,5.06,24.08,2.73,16.15,3.88,24.24,2.67,16.16,3.89,24.26a129.52,129.52,0,0,1,1.41,24.41,197.61,197.61,0,0,1-2.42,24.52c-.69,4.08-1.49,8.17-2.51,12.25a95.85,95.85,0,0,1-3.85,12.23Z"/></g><g id="boulder"><polygon class="cls-46" points="-85.67 639.56 37 578 287 559 452 595.48 733.5 601.5 887.5 632.57 1009 659.22 1077 722.39 1272.5 816.5 1301 903.22 1371 1101.04 1352.39 1212.56 -72 1212.56 -85.67 639.56"/><path class="cls-47" d="M1510.45,1099.67c-16.45,8.33-158.06,112.89-158.06,112.89L1371,1101,1272.5,816.5S1077,722.78,1077,722.39s-68-63.17-68-63.17l150.43,80.45,182.25,64,140.32,200Z"/></g></g></svg>