<svg xmlns="http://www.w3.org/2000/svg" viewBox="0 0 178.16 262.75"><defs><style>.cls-1{fill:#27701b;}.cls-2{fill:#6f5637;}.cls-3{opacity:0.5;}.cls-4{opacity:0.7;}</style></defs><g id="leaves-individual"><g id="leaf-1-back"><path class="cls-1" d="M87.89,216.08c-18.38-3.37-72.24,27-73.95,23.78s31.82-28.23,69.85-38.41Z"/><path class="cls-1" d="M94.41,231.21c-27.38,3.5-74.35,29-76.73,26.26s33.16-31.59,69.66-39.57Z"/><path class="cls-1" d="M79,185.71c-11.43-1-71.44,22.91-74.07,17.42-2.72-5.71,57.51-28.77,69.95-30.27Z"/><path class="cls-1" d="M83.2,200.46c-11.81-.94-70.29,23.48-72.23,20.61-2.31-3.42,54.68-32.38,67.42-34Z"/><path class="cls-1" d="M72.39,158.73C62.13,154,3.87,166.31,2.82,163.5c-2.48-6.62,55.49-17.92,66.3-16.66Z"/><path class="cls-1" d="M75,171.19c-10.21-1.94-69.87,17.38-71.15,11.52s57.26-23.27,68.61-23.49Z"/><path class="cls-1" d="M67.28,134.07c-17-7.22-54.9-2.56-53.92-7.56,1.16-6,36.19-7.7,53.44-3.38Z"/><path class="cls-1" d="M70,146.54c-9.15-2.94-62-1.69-62.48-4.47-.94-6,50.81-8.1,61.19-7Z"/><path class="cls-1" d="M66.08,121.74c-8.14-6.75-47-9-46.47-13.94.45-4,37.54.32,46,1.7Z"/><path class="cls-1" d="M65,94.82C25.33,80,6.39,67.5,63.63,84.13Z"/><path class="cls-1" d="M65.5,107.64C16.68,93.89,3.31,86.31,65.31,96.42Z"/><path class="cls-1" d="M65.21,82.18c-5.83-1.58-31.66-13.5-30.86-20.45C35,55.77,57.42,73.5,64,73.56Z"/><path class="cls-1" d="M65,42.31C63.76,39.66,50.91,25.1,53.48,21.88c1.25-1.57,11.14,7.49,13,10.09Z"/><path class="cls-1" d="M67.78,18.8c-3.87-4.9-11.87-14.9,1-5.09Z"/><path class="cls-1" d="M66.88,31.08c-.89-1.56-9.61-14.5-8.78-16.32C58.75,13.35,67,19,68.23,20.48Z"/><path class="cls-1" d="M64.09,71.76C42.3,54.62,23,36.81,64,61.56Z"/><path class="cls-1" d="M64.39,50.89c-4.3-2-15.31-15.19-14.14-20.15.92-3.89,9.84,11.09,15,11.67Z"/><path class="cls-1" d="M64.73,60.38c-4.26-2.53-22-16.79-19.87-21.34,1.67-3.63,11.88,9.37,19.49,13.13Z"/><path class="cls-1" d="M70.26,14.22C72.61,2,68.94,2.79,66.14,14.08Z"/><path class="cls-1" d="M88.87,216.7c9.25-8.26,83.28-15,83-18.65s-75.65-2.52-87.28,4.08Z"/><path class="cls-1" d="M95.39,231c9.44-8.66,80.92-16.35,80.47-20s-73.55-1.35-85.58,5.79Z"/><path class="cls-1" d="M80.13,185.68c9.62-6.24,75.73-9.55,75.73-15.63,0-3-67.69-1.17-79.37,3.35Z"/><path class="cls-1" d="M84.56,201c9.5-7.07,79.18-14.46,79.3-17.92.15-4.12-70.69-1.37-82.37,4Z"/><path class="cls-1" d="M72.54,159.85c8.31-5.68,62.39-15.31,62.18-18.29-.47-7.06-54,2-64.11,6.11Z"/><path class="cls-1" d="M76.29,172.06c8.51-6,69.9-13.18,69.57-16-.7-6-61.76-.43-72.2,4.06Z"/><path class="cls-1" d="M68.75,134c53.79-22.08,72-34.89-.56-10.94Z"/><path class="cls-1" d="M70.71,146.74c68-22,77.38-31.64-1-11.54Z"/><path class="cls-1" d="M65.88,41.73c1.83-2.3,15.32-14.5,13.51-18.2-.88-1.8-10.28,5.67-12.65,7.8Z"/><path class="cls-1" d="M68.33,18.19c4.84-3.94,14.84-12,.11-5.19Z"/><path class="cls-1" d="M66.53,30.37c4.71-5.33,21.34-22.88,1-10.64Z"/><path class="cls-1" d="M66.79,121.35C114.37,99.87,132,85,66.09,109.12Z"/><path class="cls-1" d="M65.36,94.45c39.77-16.23,54.66-30.36.32-10.77Z"/><path class="cls-1" d="M66,107.26c44.23-19.91,59.2-30.44-.87-11.19Z"/><path class="cls-1" d="M63.92,81.89c5.66-2.12,31.32-12.66,29.86-19.51-1.24-5.87-22.93,10.13-29.42,10.8Z"/><path class="cls-1" d="M63.59,71.68c23.19-13,39.45-29.35.45-9.75Z"/><path class="cls-1" d="M64.64,50.25c4.63-1,16.68-12.82,16.62-17.92-.05-4-10.44,10-15.62,9.45Z"/><path class="cls-1" d="M64.14,60.45c4.71-1.54,21.43-12.68,20.39-17.57C83.7,39,72.64,49.5,64.4,51.5Z"/><path class="cls-2" d="M69.92,11.05C68.46,21.33,67.61,31.76,67,42.17S66.26,63,66.37,73.45A486.45,486.45,0,0,0,71,135.77a407.13,407.13,0,0,0,13.29,60.94c1.42,5,3.18,9.89,4.8,14.83l2.69,7.31,1.35,3.66,1.47,3.6,3,7.21,3.2,7.09,1.61,3.55,1.73,3.48,3.46,7-4.45,2.28-3.42-7.12L98,246l-1.58-3.62-3.16-7.24-2.9-7.35-1.44-3.67-1.32-3.72L85,213c-1.57-5-3.29-10-4.66-15.07a409.94,409.94,0,0,1-12.63-61.68,488,488,0,0,1-3.88-62.76q0-15.73,1.07-31.42c.71-10.46,1.69-20.88,3.3-31.28Z"/></g></g></svg>