<svg xmlns="http://www.w3.org/2000/svg" viewBox="0 0 178.16 262.75"><defs><style>.cls-1{fill:#27701b;}.cls-2{fill:#3a2b26;}</style></defs><g id="leaves-individual"><g id="leaf-2-front"><polygon class="cls-1" points="97.64 235.12 178.16 152.67 97.71 209.9 173.4 116.26 98.38 185.44 166.7 84.39 94.88 156.92 163.36 49.66 91.69 125.16 144.38 27.19 86.15 97.82 127.93 7.71 79.07 69.09 112.75 0 72.3 45.21 90.46 4.38 66.47 28.98 37.89 32.74 71.38 45.05 6.21 56.78 77.19 69.02 6.96 85.02 84.16 97.79 12.24 115.21 89.7 124.87 7.3 136.71 91.62 157.91 2.36 158.21 95.48 186.41 0 186.19 95.07 209.86 1.28 208.22 87.66 242.11 97.64 235.12"/><path class="cls-2" d="M69.22,29.79c6.44,18.58,12,37.35,17,56.34q3.73,14.24,6.87,28.64c2.08,9.6,4,19.24,5.61,29a385.85,385.85,0,0,1,5.71,59.07,211.68,211.68,0,0,1-1.83,30.08,112.21,112.21,0,0,1-8.06,29.87l-11.88-5.5a100,100,0,0,0,8-26.28,199,199,0,0,0,2.74-28.28A376.18,376.18,0,0,0,89.87,145c-1.22-9.61-2.79-19.18-4.5-28.74S81.72,97.21,79.6,87.72c-4.25-19-9.11-37.88-14.81-56.43Z"/></g></g></svg>