<svg xmlns="http://www.w3.org/2000/svg" viewBox="0 0 182.47 262.77"><defs><style>.cls-1{fill:#cfdee3;}.cls-2{fill:#6f5637;}.cls-3{fill:#4a3426;}.cls-4{opacity:0.5;}.cls-5{opacity:0.7;}</style></defs><g id="leaves-individual"><g id="leaf-1-back"><path class="cls-1" d="M86.94,225.27c-17.71-5.94-75.34,16.54-76.57,13.06S45.88,214.89,85,210.21Z"/><path class="cls-1" d="M91.25,241.17c-27.59-.42-77.71,18.19-79.67,15.12s37.3-26.57,74.56-29.3Z"/><path class="cls-1" d="M82.45,193.94c-11.17-2.59-74,12.56-75.79,6.75-1.89-6,61-20.32,73.53-20.05Z"/><path class="cls-1" d="M84.51,209.15C73,206.53,11.61,222.42,10.09,219.3c-1.8-3.7,58.72-24.3,71.57-24.15Z"/><path class="cls-1" d="M79.73,166.3c-9.48-6.17-68.9-2.21-69.54-5.13-1.52-6.91,57.46-9.89,68-7.11Z"/><path class="cls-1" d="M80.54,179c-9.84-3.36-71.62,7.31-72.07,1.33s60-14.93,71.25-13.54Z"/><path class="cls-1" d="M78.17,141.17c-15.85-9.57-54-10.32-52.31-15.14,2-5.75,36.92-2.48,53.38,4.24Z"/><path class="cls-1" d="M79.05,153.89c-8.65-4.21-61.19-10.47-61.23-13.28-.07-6.09,51.45-.82,61.58,1.7Z"/><path class="cls-1" d="M78.73,128.79c-7.1-7.84-45.3-15.55-44-20.39,1-3.87,37.11,5.64,45.3,8.21Z"/><path class="cls-1" d="M81.44,102c-6.85-2.73-35.88-20.69-34.72-23.45,1.73-4.13,26.91,11.73,34.91,12.68Z"/><path class="cls-1" d="M80.16,114.75C73.29,111.35,38.66,96.9,39.68,93c.67-2.54,33.79,9,41.88,10.58Z"/><path class="cls-1" d="M83.48,89.51C77.92,87.12,54,71.65,55.82,64.88,57.35,59.08,77,79.81,83.45,80.79Z"/><path class="cls-1" d="M89,50c-.89-2.8-11.54-19-8.54-21.86,1.46-1.37,10,9,11.43,11.83Z"/><path class="cls-1" d="M95,27.13c-.57-1.24-5.74-9-4.4-10.07.25-.2,5.3,3.94,6.14,5.18Z"/><path class="cls-1" d="M92.37,39.16c-.66-1.67-7.46-15.72-6.37-17.4.83-1.3,8.2,5.43,9.21,7.1Z"/><path class="cls-1" d="M83.84,79C80.18,75.19,61.57,56,63.07,53.37c1.79-3.13,19.1,15.75,22.09,15.55Z"/><path class="cls-1" d="M87.09,58.42c-4-2.6-13-17.21-11.13-22,1.46-3.73,8.16,12.37,13.2,13.68Z"/><path class="cls-1" d="M86.09,67.86c-3.86-3.11-19.35-19.73-16.64-23.94,2.16-3.36,10.43,11,17.43,15.76Z"/><path class="cls-1" d="M98.1,23c.87-2.06,2.46-8.18,1.39-9.12S94.91,20.16,94,22.22Z"/><path class="cls-1" d="M87.83,226c10.33-6.87,81.67-13.78,81.9-17.46S98.1,206.1,85.65,211Z"/><path class="cls-1" d="M92.25,241.12c10.58-7.23,84.09-20.13,84.16-23.78s-74.28,3.66-87.2,9Z"/><path class="cls-1" d="M83.57,194.08c10.41-4.82,75-2.81,75.57-8.86.62-6.3-65.23-6.64-77.43-3.81Z"/><path class="cls-1" d="M85.79,209.84c10.41-5.65,78.53-9.58,79.15-13,.72-4.06-67.89-4.89-80.21-1.25Z"/><path class="cls-1" d="M79.72,167.43c9-4.44,64.21-8.29,64.43-11.27.53-7.06-54.08-3.69-64.61-1.06Z"/><path class="cls-1" d="M81.7,180.05c9.27-4.71,68.79-4.27,68.38-10.26s-58.32-4.91-69.28-1.94Z"/><path class="cls-1" d="M79.63,141.28c8.89-2.8,51.53-14.32,52.2-19.37.33-2.56-41.08,7.46-51.19,8.46Z"/><path class="cls-1" d="M79.77,154.2c9-3.47,58-11.87,58.25-14.67.6-6.05-47.31,1.45-57.61,3.09Z"/><path class="cls-1" d="M89.87,49.56c2.14-2,17.22-12.18,16-16.11-.62-1.9-11,4.16-13.64,5.93Z"/><path class="cls-1" d="M95.63,26.61c1.1-.82,9.39-5.13,8.73-6.69-.13-.31-6.56.88-7.88,1.56Z"/><path class="cls-1" d="M92.12,38.4c1.39-1.14,13.3-10.93,13.17-12.93-.11-1.54-9,1.57-10.67,2.54Z"/><path class="cls-1" d="M79.48,128.5c7.52-3,46.89-13.24,46.55-18.23-.27-4-37,5.06-45.5,6Z"/><path class="cls-1" d="M81.88,101.67c7.25-1.39,38.82-11.09,38.62-14.08-.41-6.07-28.73,4-36.77,3.47Z"/><path class="cls-1" d="M80.73,114.45c7.39-2,42.77-12,42.5-16-.18-2.62-33.53,4.79-41.77,4.82Z"/><path class="cls-1" d="M82.24,89c5.9-1.3,32.8-8.1,32.33-15.08-.41-6-24.14,6.77-30.66,6.52Z"/><path class="cls-1" d="M83.36,78.88c5.06-1.61,26.74-11.64,26.54-14.63-.32-4.83-19.21,5.16-24.71,5Z"/><path class="cls-1" d="M87.44,57.82c4.73-.36,18.33-10.33,19-15.39.52-4-11.76,8.44-16.81,7.15Z"/><path class="cls-1" d="M85.49,67.84c4.88-.85,23-9.51,22.68-14.5-.27-4-12.71,4.87-21.15,5.68Z"/><path class="cls-2" d="M98.21,19.79c-3.07,9.38-5.47,19-7.6,28.72S86.76,68,85.34,77.78s-2.53,19.67-3.28,29.55-1.14,19.79-1.25,29.7.25,19.81.82,29.69c.38,4.93.69,9.87,1.24,14.79s1.12,9.83,1.75,14.73A377.62,377.62,0,0,0,97.4,254.08l-4.78,1.45A381.54,381.54,0,0,1,80.46,196.8c-.57-5-1.19-9.93-1.57-14.92s-.73-10-1-14.95c-.44-10-.65-20-.42-30s.78-19.95,1.66-29.89,2.14-19.85,3.7-29.7S86.22,57.74,88.48,48s4.8-19.35,8-28.84Z"/><circle class="cls-3" cx="97.17" cy="231.55" r="2.93"/><circle class="cls-3" cx="93.81" cy="216.29" r="2.93"/><circle class="cls-3" cx="89" cy="185.71" r="2.93"/><circle class="cls-3" cx="91.6" cy="200.68" r="2.93"/></g></g></svg>