<svg xmlns="http://www.w3.org/2000/svg" viewBox="0 0 195.27 263.43"><defs><style>.cls-1{fill:#27701b;}.cls-2{fill:#6f5637;}.cls-3{opacity:0.5;}.cls-4{opacity:0.7;}</style></defs><g id="leaves-individual"><g id="leaf-1-back"><path class="cls-1" d="M98.42,225.44c20.5-2.8,72.23,19.27,73.76,15.79s-30.8-23.25-70.56-31.1Z"/><path class="cls-1" d="M92.76,241.43c28.36,1.72,67.31,14.55,69.56,11.55s-25.18-20-63.22-25.71Z"/><path class="cls-1" d="M105.47,193.63c11.66-1.79,71.12,15.07,73.44,9.25,2.41-6-57.22-22-70.09-22.73Z"/><path class="cls-1" d="M102.16,209.08c12.07-1.78,70,15.72,71.78,12.64,2.14-3.66-54.56-25.94-67.76-26.78Z"/><path class="cls-1" d="M110.41,165.47c10.2-5.6,70.9,3.09,71.78.14C184.29,158.63,124,151,113,153Z"/><path class="cls-1" d="M108.58,178.44c10.37-2.68,73,13.07,73.89,7s-60.42-20-72.1-19.43Z"/><path class="cls-1" d="M114,139.79c17-8.59,54.92-6.22,54.87-11.47,0-4.21-37.7-5.42-55.12.2Z"/><path class="cls-1" d="M112.07,152.78c9.21-3.65,63.63-6,63.88-8.87.56-6.24-52.75-4.84-63.34-3Z"/><path class="cls-1" d="M114.35,127c13.36-10.25,47.42-10.41,46.49-15.47-.74-4-40.08-.61-46.85,2.87Z"/><path class="cls-1" d="M113.65,99.31c39.7-17.9,58.3-32.07.65-11.07Z"/><path class="cls-1" d="M114,112.51c49.21-17.46,62.42-26.16-.57-11.53Z"/><path class="cls-1" d="M112.53,86.35c5.89-2,31.6-16,30.3-23.13-1.11-6.08-22.89,13.67-29.59,14.18Z"/><path class="cls-1" d="M110,45.38c1.13-2.81,13.33-18.65,10.47-21.78-1.39-1.52-10.93,8.46-12.65,11.25Z"/><path class="cls-1" d="M105.55,21.42c3.64-5.3,11.17-16.13-1.4-5.16Z"/><path class="cls-1" d="M107.31,34c.82-1.67,8.88-15.56,7.9-17.37-.75-1.4-8.84,4.94-10,6.57Z"/><path class="cls-1" d="M113,75.57c21.21-19.1,39.8-38.72-.57-10.49Z"/><path class="cls-1" d="M111.24,54.15c4.27-2.36,14.68-16.65,13.13-21.67-1.21-3.93-9.34,12.07-14.62,13Z"/><path class="cls-1" d="M111.53,63.92c4.2-2.89,21.4-18.75,18.95-23.28-2-3.62-11.56,10.44-19.12,14.82Z"/><path class="cls-1" d="M102.69,16.88c-3.25-12.38.58-11.83,4.22-.43Z"/><path class="cls-1" d="M97.45,226.14C79.92,207.5,20.6,213,20.64,209.19s48.28-10.08,80.22,1.69Z"/><path class="cls-1" d="M91.74,241.3c-24.43-17.55-76.48-12.91-76.27-16.66S68.25,212.42,96,226.38Z"/><path class="cls-1" d="M104.3,193.69c-10.31-5.76-72-11-72.17-17.3-.15-6.51,62.76.59,75.07,4.43Z"/><path class="cls-1" d="M100.8,209.7c-10.25-6.62-72.33-12.25-73.38-16.9-.94-4.14,63.21-2.33,75.58,2.36Z"/><path class="cls-1" d="M110.32,166.63c-8.92-5.26-65.26-13.5-65.26-16.58,0-7.28,55.8.42,66.42,3.94Z"/><path class="cls-1" d="M107.31,179.43c-9.15-5.56-70.28-9.74-69.4-15.85s60.26-.5,71.28,3.4Z"/><path class="cls-1" d="M112.45,139.79c-56.11-20.76-77.06-33.87-.18-11.28Z"/><path class="cls-1" d="M111.31,153c-69.91-19.76-82-30,.24-11.93Z"/><path class="cls-1" d="M109.07,44.84C107,42.6,92.34,31,94,27.07c.78-1.91,11,5.12,13.53,7.14Z"/><path class="cls-1" d="M105,20.83c-5.25-3.72-16.07-11.27-.48-5.33Z"/><path class="cls-1" d="M107.63,33.21c-1.34-1.28-12.8-12.26-12.51-14.3.23-1.57,9.1,2.32,10.76,3.44Z"/><path class="cls-1" d="M113.6,126.69c-50.35-18.8-69.48-32.9-.13-12.61Z"/><path class="cls-1" d="M113.22,99c-42-13.95-58.23-27.44-1.07-11Z"/><path class="cls-1" d="M113.41,112.16c-46.8-17.42-62.89-27.21.12-11.55Z"/><path class="cls-1" d="M113.84,86c-6-1.79-33-10.86-32-18,.87-6.12,24.25,8.83,31,9.07Z"/><path class="cls-1" d="M113.48,75.44C88.77,63.74,71,48,112.35,65.47Z"/><path class="cls-1" d="M110.93,53.5c-4.83-.73-18-12-18.3-17.26-.23-4.11,11.42,9.57,16.7,8.64Z"/><path class="cls-1" d="M112.15,64C107.21,62.69,89.26,52.4,90,47.3c.58-4.08,12.66,6,21.26,7.48Z"/><path class="cls-2" d="M104.57,13.16c2.59,10,4.43,20.07,6,30.22s2.72,20.35,3.56,30.59,1.34,20.49,1.48,30.76-.09,20.55-.63,30.82-1.53,20.5-2.76,30.71c-.71,5.09-1.35,10.2-2.25,15.26s-1.79,10.13-2.77,15.18a392.91,392.91,0,0,1-17,59.34l-4.66-1.8a388.85,388.85,0,0,0,17.61-58.4c1-5,2.1-10,2.94-15s1.65-10.06,2.42-15.09c1.35-10.1,2.47-20.24,3.14-30.42s1-20.38,1-30.58-.38-20.41-1.07-30.6-1.72-20.35-3.14-30.46-3.15-20.21-5.58-30.08Z"/></g></g></svg>