<svg xmlns="http://www.w3.org/2000/svg" viewBox="0 0 178.64 263.01"><defs><style>.cls-1{fill:#27701b;}.cls-2{fill:#3a2b26;}</style></defs><g id="leaves-individual"><g id="leaf-1-front"><polygon class="cls-1" points="96.39 234.42 178.64 153.91 97.02 209.24 174.71 117.45 98.24 184.83 168.73 85.47 95.39 156.28 166.18 50.73 92.93 124.5 147.73 27.86 88 97.07 131.75 8.04 81.59 68.22 116.76 0 75.36 44.23 94.41 3.88 69.91 27.89 41.28 31.01 74.44 44.05 9.11 54.29 79.71 68.11 9.22 82.51 86.02 96.99 13.82 112.77 90.95 124.16 8.4 134.13 92.11 157.19 2.98 155.49 95.33 185.74 0 183.37 94.39 209.14 0.78 205.39 86.26 241.17 96.39 234.42"/><path class="cls-2" d="M72.86,28.75c5.5,18.89,10.21,37.91,14.44,57.09s7.82,38.52,10.53,58,4.55,39.23,4.47,59.18a209.39,209.39,0,0,1-2.17,30.08c-1.6,10-4.09,20.19-9,29.87L79.9,257c4.25-7.67,6.9-16.65,8.67-25.84a198,198,0,0,0,3-28.33c.75-19.18-.39-38.59-2.36-57.9s-4.92-38.6-8.41-57.78S73.27,48.84,68.49,30Z"/></g></g></svg>