<svg xmlns="http://www.w3.org/2000/svg" viewBox="0 0 178.16 262.75"><defs><style>.cls-1{fill:#cfdee3;}.cls-2{fill:#3a2b26;}</style></defs><g id="leaves-individual"><g id="leaf-2-back-no-dots"><polygon class="cls-1" points="97.64 27.63 178.16 110.08 97.71 52.85 173.4 146.49 98.38 77.32 166.7 178.37 94.88 105.83 163.36 213.09 91.69 137.59 144.38 235.56 86.15 164.94 127.93 255.04 79.07 193.67 112.75 262.75 72.3 217.55 90.46 258.37 66.47 233.78 37.89 230.01 71.38 217.71 6.21 205.98 77.19 193.73 6.96 177.73 84.16 164.97 12.24 147.54 89.7 137.89 7.3 126.04 91.62 104.85 2.36 104.54 95.48 76.34 0 76.56 95.07 52.9 1.28 54.53 87.66 20.64 97.64 27.63"/><path class="cls-2" d="M64.74,233.75c4.86-17.69,9-35.67,12.58-53.69s6.56-36.16,8.74-54.35c1-9.1,1.9-18.21,2.5-27.31s.81-18.21.72-27.28a233.44,233.44,0,0,0-1.84-26.93,132.38,132.38,0,0,0-5.71-25.75l12.47-4a144.82,144.82,0,0,1,5.21,28.44,246.53,246.53,0,0,1,.86,28.33c-.26,9.39-.89,18.73-1.81,28s-2.18,18.52-3.6,27.71c-2.92,18.37-6.61,36.57-10.92,54.59S74.8,217.4,69.2,235.11Z"/></g></g></svg>