<svg xmlns="http://www.w3.org/2000/svg" viewBox="0 0 178.16 262.75"><defs><style>.cls-1{fill:#27701b;}.cls-2{fill:#3a2b26;}</style></defs><g id="leaves-individual"><g id="leaf-2-front"><polygon class="cls-1" points="97.64 27.63 176.16 88.08 97.71 52.85 171.4 124.49 98.38 77.32 164.7 156.37 94.88 105.83 161.36 191.09 91.69 137.59 142.38 213.56 86.15 164.94 125.93 233.04 79.07 193.67 110.75 240.75 72.3 217.55 84.65 243.14 66.47 233.78 37.89 230.01 71.38 217.71 6.21 205.98 77.19 193.73 6.96 177.73 84.16 164.97 12.24 147.54 89.7 137.89 7.3 126.04 91.62 104.85 2.36 104.54 95.48 76.34 0 76.56 95.07 52.9 1.28 54.53 87.66 20.64 97.64 27.63"/><path class="cls-2" d="M64.77,231.54c5.11-18.67,9.4-37.67,13.09-56.7q2.76-14.29,5-28.66c1.43-9.57,2.75-19.16,3.71-28.78a389.9,389.9,0,0,0,2.14-57.59,208.74,208.74,0,0,0-3.22-28.19A105,105,0,0,0,77.21,5.4L89.1-.11a117.53,117.53,0,0,1,8.22,29.67,220.84,220.84,0,0,1,2.34,29.93,400.77,400.77,0,0,1-4.31,59c-1.33,9.73-3,19.39-4.82,29s-3.84,19.21-6,28.74c-4.42,19.07-9.39,37.94-15.25,56.65Z"/></g></g></svg>