<svg xmlns="http://www.w3.org/2000/svg" viewBox="0 0 182.47 262.77"><defs><style>.cls-1{fill:#27701b;}.cls-2{fill:#3a2b26;}</style></defs><g id="leaves-individual"><g id="leaf-4-front"><polygon class="cls-1" points="84.91 25.34 169.58 45.61 89.82 50.28 169.28 83.01 95.23 74.1 169.08 116.27 97.36 103.35 172.53 151.69 100.39 135.77 152.27 180.04 100.42 164.26 150.78 223.88 99.3 194.45 138.26 234.7 97.54 219.72 117.58 245.61 95.22 237.15 68.21 239.21 96.73 220.07 34.53 221.62 97.58 194.9 29.93 193.21 98.59 164.7 29.13 161.93 98.62 136.47 20.54 141.43 94.18 103.03 11.96 120.92 92.39 73.72 4.54 93.41 87.61 50.34 1.58 71.11 84.58 25.61 84.91 25.34"/><path class="cls-2" d="M92.92,236.55c2.15-19.39,3.48-39,4.25-58.49q.57-14.66.59-29.31c0-9.76-.13-19.52-.59-29.25A410,410,0,0,0,91,61.71,216.92,216.92,0,0,0,83.88,34,105.42,105.42,0,0,0,72.07,8.85L82.71,2A117.14,117.14,0,0,1,95,30.42a227.59,227.59,0,0,1,6.48,29.49,422,422,0,0,1,4.31,59.37c.11,9.89-.09,19.76-.43,29.62s-.89,19.7-1.62,29.52c-1.47,19.66-3.47,39.21-6.33,58.75Z"/></g></g></svg>