<svg xmlns="http://www.w3.org/2000/svg" viewBox="0 0 178.16 262.75"><defs><style>.cls-1{fill:#cfdee3;}.cls-2{fill:#6f5637;}.cls-3{opacity:0.5;}.cls-4{opacity:0.7;}</style></defs><g id="leaves-individual"><g id="leaf-1-back"><path class="cls-1" d="M90.53,216.15c18.37-3.37,72.24,27,73.94,23.78s-31.82-28.23-69.84-38.41Z"/><path class="cls-1" d="M84,231.28c27.38,3.5,74.34,29,76.72,26.26S127.57,226,91.07,218Z"/><path class="cls-1" d="M99.42,185.78c11.42-1,71.44,22.91,74.06,17.42,2.73-5.71-57.51-28.77-69.94-30.27Z"/><path class="cls-1" d="M95.22,200.53c11.81-.94,70.29,23.48,72.23,20.61,2.31-3.42-54.69-32.38-67.43-34Z"/><path class="cls-1" d="M106,158.8c10.25-4.77,68.51,7.58,69.56,4.77,2.48-6.62-55.48-17.92-66.29-16.66Z"/><path class="cls-1" d="M103.42,171.26c10.22-1.94,69.87,17.38,71.16,11.52S117.32,159.51,106,159.29Z"/><path class="cls-1" d="M111.14,134.14c17-7.22,54.89-2.56,53.92-7.56-1.17-6-36.2-7.7-53.44-3.38Z"/><path class="cls-1" d="M108.46,146.61c9.16-2.94,62.05-1.69,62.49-4.47.94-6-50.81-8.1-61.19-7Z"/><path class="cls-1" d="M112.33,121.81c8.15-6.76,47.05-9,46.48-13.94-.46-4-37.54.32-46,1.7Z"/><path class="cls-1" d="M113.45,94.89c7.17-1.73,38.45-15.4,37.69-18.3-1.12-4.33-28.29,7.8-36.35,7.61Z"/><path class="cls-1" d="M112.91,107.71c7.28-2.39,43.61-11.79,43.15-15.76-.3-2.61-34.72,4.11-43,4.54Z"/><path class="cls-1" d="M113.2,82.25c5.84-1.58,31.67-13.5,30.87-20.45-.69-6-23.08,11.77-29.6,11.83Z"/><path class="cls-1" d="M113.38,42.38c1.28-2.65,14.13-17.21,11.55-20.43-1.25-1.57-11.13,7.49-13,10.09Z"/><path class="cls-1" d="M110.63,18.87c.74-1.15,7-8.12,5.79-9.34-.22-.24-5.81,3.15-6.81,4.25Z"/><path class="cls-1" d="M111.53,31.15c.9-1.56,9.61-14.5,8.78-16.32-.64-1.41-8.89,4.21-10.13,5.72Z"/><path class="cls-1" d="M114.33,71.83c4.16-3.29,25.31-19.67,24.2-22.46-1.34-3.35-21.14,12.89-24.08,12.26Z"/><path class="cls-1" d="M114,51c4.3-2,15.3-15.19,14.13-20.15-.92-3.89-9.83,11.09-15,11.67Z"/><path class="cls-1" d="M113.68,60.45c4.26-2.53,21.95-16.79,19.87-21.34-1.66-3.63-11.88,9.37-19.49,13.13Z"/><path class="cls-1" d="M108.16,14.29c-.56-2.16-1.27-8.45-.09-9.22s3.65,6.91,4.21,9.08Z"/><path class="cls-1" d="M89.54,216.77c-9.24-8.26-83.27-15-83-18.65s75.64-2.52,87.28,4.07Z"/><path class="cls-1" d="M83,231.09c-9.45-8.66-80.92-16.35-80.47-20s73.54-1.35,85.57,5.79Z"/><path class="cls-1" d="M98.28,185.75c-9.61-6.24-75.72-9.55-75.72-15.63,0-3,67.69-1.17,79.37,3.35Z"/><path class="cls-1" d="M93.86,201c-9.51-7.07-79.18-14.46-79.3-17.92-.15-4.12,70.68-1.37,82.36,4Z"/><path class="cls-1" d="M105.87,159.92c-8.31-5.68-62.38-15.31-62.18-18.29.48-7.06,54.06,2,64.11,6.11Z"/><path class="cls-1" d="M102.12,172.13c-8.51-6-69.9-13.18-69.56-16,.7-6,61.76-.43,72.19,4.06Z"/><path class="cls-1" d="M109.67,134c-8.4-4-49-19.47-48.92-24.57,0-2.58,39.6,11.21,49.47,13.63Z"/><path class="cls-1" d="M107.7,146.81c-8.39-4.7-55.71-18-55.58-20.77.26-6.08,46.63,6.14,56.59,9.23Z"/><path class="cls-1" d="M112.53,41.8C110.71,39.5,97.21,27.3,99,23.6c.88-1.8,10.28,5.67,12.66,7.8Z"/><path class="cls-1" d="M110.09,18.26c-1-1-8.57-6.4-7.69-7.86.16-.28,6.36,1.81,7.57,2.67Z"/><path class="cls-1" d="M111.89,30.44c-1.22-1.33-11.62-12.71-11.2-14.67.32-1.51,8.66,2.83,10.2,4Z"/><path class="cls-1" d="M111.63,121.42c-7-4-44.54-19.76-43.5-24.65C69,92.86,104,107,112.32,109.19Z"/><path class="cls-1" d="M113.06,94.52c-7-2.4-36.86-16.48-36.23-19.41,1.26-6,27.86,8.07,35.9,8.64Z"/><path class="cls-1" d="M112.38,107.33c-7-3.06-40.63-18-39.79-21.88.54-2.57,32.5,9.49,40.66,10.69Z"/><path class="cls-1" d="M114.5,82c-5.66-2.12-31.33-12.66-29.87-19.51,1.25-5.87,22.93,10.13,29.42,10.8Z"/><path class="cls-1" d="M114.83,71.75C110.05,69.44,90,56.44,90.62,53.5c1-4.73,18.29,7.83,23.75,8.5Z"/><path class="cls-1" d="M113.77,50.32c-4.63-1-16.68-12.82-16.62-17.92,0-4,10.45,10,15.63,9.45Z"/><path class="cls-1" d="M114.28,60.52C109.57,59,92.85,47.84,93.89,43c.83-3.91,11.88,6.62,20.13,8.62Z"/><path class="cls-2" d="M110.25,10.83c1.62,10.4,2.6,20.82,3.3,31.28s1.06,20.93,1.08,31.42a488,488,0,0,1-3.89,62.76A411.16,411.16,0,0,1,98.12,198C96.74,203,95,208,93.46,213l-2.63,7.44L89.5,224.2l-1.44,3.67-2.9,7.35L82,242.46l-1.58,3.62-1.71,3.56-3.43,7.12-4.45-2.28,3.46-7L76,244l1.6-3.55,3.2-7.09,3-7.21,1.48-3.6,1.35-3.66,2.69-7.31c1.61-4.94,3.37-9.83,4.79-14.83a405.89,405.89,0,0,0,13.29-60.94A484.65,484.65,0,0,0,112,73.52q.17-15.64-.67-31.28c-.56-10.41-1.41-20.84-2.88-31.12Z"/></g></g></svg>