<svg xmlns="http://www.w3.org/2000/svg" viewBox="0 0 182.47 262.77"><defs><style>.cls-1{fill:#cfdee3;}.cls-2{fill:#3a2b26;}</style></defs><g id="leaves-individual"><g id="leaf-4-back-no-dots"><polygon class="cls-1" points="84.41 23.82 14.94 63.93 83.59 49.31 3.94 106.93 82.03 73.8 13.94 144.93 84.95 102.99 14.94 193.93 87.46 135.48 31.43 234.28 92.49 163.52 47.77 254.54 99.06 193.01 63.09 262.77 105.43 217.55 85.94 258.8 111 234.25 140.26 231.06 106.36 217.73 143.94 211.93 100.98 193.13 146.94 178.93 94.53 163.6 155.94 150.93 89.49 135.83 173.88 125.63 88.29 102.06 170.94 103.93 85.01 72.87 167.94 81.93 85.97 48.95 181.67 52.78 94.73 16.86 84.41 23.82"/><path class="cls-2" d="M109.17,236.07c-5.49-18.75-10.19-37.63-14.38-56.69s-7.72-38.26-10.36-57.66-4.36-39-4.14-58.83A208.32,208.32,0,0,1,82.64,33c1.64-10,4.18-20,9-29.64l11.69,6.12C99.1,17.16,96.41,26,94.59,35.15a194.49,194.49,0,0,0-3.23,28.07c-.91,19,.1,38.28,2,57.46S98.05,159,101.48,178s7.46,38,12.22,56.75Z"/></g></g></svg>