<svg xmlns="http://www.w3.org/2000/svg" viewBox="0 0 178.64 263.01"><defs><style>.cls-1{fill:#cfdee3;}.cls-2{fill:#3a2b26;}</style></defs><g id="leaves-individual"><g id="leaf-1-back-no-dots"><polygon class="cls-1" points="82.26 234.42 0 153.91 81.62 209.24 3.93 117.45 80.4 184.83 9.91 85.47 83.26 156.28 12.47 50.73 85.72 124.5 30.91 27.86 90.64 97.07 46.9 8.04 97.06 68.22 61.88 0 103.29 44.23 84.23 3.88 108.74 27.89 137.36 31.01 104.2 44.05 169.54 54.29 98.94 68.11 169.42 82.51 92.63 96.99 164.82 112.77 87.7 124.16 170.24 134.13 86.53 157.19 175.66 155.49 83.32 185.74 178.64 183.37 84.25 209.14 177.87 205.39 92.38 241.17 82.26 234.42"/><path class="cls-2" d="M110.16,30c-4.78,18.86-8.83,38-12.36,57.16s-6.4,38.45-8.4,57.78-3.11,38.72-2.36,57.9a198,198,0,0,0,3,28.33c1.77,9.19,4.42,18.17,8.67,25.84L87.5,263c-4.9-9.68-7.38-19.84-9-29.87a209.41,209.41,0,0,1-2.18-30.08c-.07-19.95,1.79-39.66,4.47-59.18s6.34-38.85,10.53-58,9-38.2,14.44-57.09Z"/></g></g></svg>