<svg xmlns="http://www.w3.org/2000/svg" viewBox="0 0 177.18 262.95"><defs><style>.cls-1{fill:#cfdee3;}.cls-2{fill:#6f5637;}.cls-3{fill:#4a3426;}.cls-4{opacity:0.5;}.cls-5{opacity:0.7;}</style></defs><g id="leaves-individual"><g id="leaf-1-back"><path class="cls-1" d="M83,226.21C65.74,219.1,6.73,237.65,5.74,234.1s37-21,76.3-23Z"/><path class="cls-1" d="M86.24,242.37c-27.5-2.27-78.75,12.93-80.5,9.73s39-24,76.36-24.22Z"/><path class="cls-1" d="M80.63,194.65c-11-3.34-74.64,7.56-76.07,1.65-1.48-6.15,62.24-16.18,74.71-15.07Z"/><path class="cls-1" d="M81.67,210C70.32,206.58,8,218.31,6.74,215.1c-1.56-3.82,60.22-20.31,73-19.29Z"/><path class="cls-1" d="M79.77,166.89c-9-6.79-68.59-6.83-69-9.79-1.05-7,58-6,68.31-2.52Z"/><path class="cls-1" d="M79.73,179.62c-9.59-4-71.95,2.48-72-3.52s60.84-10.86,72-8.72Z"/><path class="cls-1" d="M79.91,141.71C64.74,131.1,28,128.14,28.74,123.1c.62-4,37,0,53,7.81Z"/><path class="cls-1" d="M79.93,154.46c-8.35-4.78-60.35-14.56-60.19-17.36.33-6.08,51.38,2.64,61.31,5.83Z"/><path class="cls-1" d="M81.3,129.4c-10.68-9.79-44.16-16.56-42.56-21.3,1.27-3.79,38.62,5,44.65,9.23Z"/><path class="cls-1" d="M85.8,102.83c-35.69-22.7-51.61-38.89.91-10.73Z"/><path class="cls-1" d="M83.66,115.48c-44.89-23.59-56.4-33.79,2.15-11Z"/><path class="cls-1" d="M88.67,90.52C83.29,87.77,60.51,70.73,62.74,64.1c1.91-5.69,20.12,16.31,26.49,17.72Z"/><path class="cls-1" d="M96.79,51.49c-.7-2.86-10.24-19.78-7.05-22.39,1.54-1.27,9.33,9.64,10.6,12.57Z"/><path class="cls-1" d="M104.36,29.06c-2.76-5.6-8.51-17,2.06-4.77Z"/><path class="cls-1" d="M100.93,40.88c-.55-1.71-6.39-16.18-5.19-17.78.92-1.24,7.82,6,8.71,7.7Z"/><path class="cls-1" d="M89.74,80.1c-17.75-21.3-32.92-42.73,2-10Z"/><path class="cls-1" d="M94.37,59.74c-3.79-2.85-11.81-18-9.63-22.64C86.45,33.48,92.05,50,97,51.64Z"/><path class="cls-1" d="M92.74,69.1c-3.64-3.36-18-21-15-25C80.12,40.89,87.41,55.73,94.07,61Z"/><path class="cls-1" d="M107.74,25.1c4.84-11.46,1.08-11.46-4-1Z"/><path class="cls-1" d="M83.85,227c10.76-6.16,77.4-8.27,77.89-11.92s-66.31-7.26-79.06-3.23Z"/><path class="cls-1" d="M87.24,242.38c11-6.5,80.25-14.44,80.56-18.07S98.45,223,85.2,227.45Z"/><path class="cls-1" d="M81.74,194.87c10.71-4.11,70,2.23,71-3.77,1-6.24-59.64-11-72-9Z"/><path class="cls-1" d="M82.89,210.74c10.77-4.94,74-4.28,74.85-7.64,1-4-62.4-9.44-74.94-6.64Z"/><path class="cls-1" d="M79.69,168c9.31-3.83,59.62-4,60.05-6.92,1-7-48.72-7.31-59.4-5.4Z"/><path class="cls-1" d="M80.82,180.74c9.57-4.08,63.92.36,63.92-5.64s-52.87-8.81-64-6.59Z"/><path class="cls-1" d="M81.36,141.92c54.86-11.22,76.06-20.55,1.73-10.82Z"/><path class="cls-1" d="M80.63,154.82c63.73-9.23,76.6-17.57,1.41-11.51Z"/><path class="cls-1" d="M97.74,51.1c2.26-1.88,18-11,17-15-.49-1.94-11.24,3.41-14,5Z"/><path class="cls-1" d="M105,28.58c5.56-2.85,17-8.61,1.2-5.06Z"/><path class="cls-1" d="M100.73,40.12c5.71-4.23,25.64-17.95,3.19-10.2Z"/><path class="cls-1" d="M82.07,129.16c49-10,68-20.59,1.86-12.1Z"/><path class="cls-1" d="M86.27,102.55c40.38-6.59,56.39-16.89,2.55-10.46Z"/><path class="cls-1" d="M84.26,115.22c45.38-9.22,61.06-16.08,1.48-11.12Z"/><path class="cls-1" d="M87.47,90c6-.9,32.27-4.87,32.27-11.87,0-6-23.54,4.13-30,3.44Z"/><path class="cls-1" d="M89.27,79.91c24.78-7.11,42.88-18.89,2.47-9.44Z"/><path class="cls-1" d="M94.76,59.17c4.74,0,19-9.07,20-14.07.78-3.93-12.3,7.62-17.25,6Z"/><path class="cls-1" d="M92.14,69c4.92-.52,23.6-7.94,23.6-12.94,0-4-13,4-21.49,4.25Z"/><path class="cls-2" d="M108.05,22c-3.69,9.15-6.73,18.64-9.51,28.14S93.4,69.25,91.32,79s-3.84,19.45-5.26,29.26-2.47,19.67-3.24,29.55-1.08,19.78-1.18,29.67c0,4.95,0,9.9.25,14.85s.45,9.88.76,14.82a377.72,377.72,0,0,0,8.86,58.56l-4.87,1.12a381.89,381.89,0,0,1-8.18-59.41c-.24-5-.52-10-.56-15s-.07-10-.05-15c.23-10,.69-20,1.59-29.91s2.12-19.85,3.67-29.71,3.47-19.66,5.68-29.38S93.54,59,96.45,49.47s6.09-19,10-28.23Z"/><path class="cls-3" d="M95.07,235c2.43-2.93-2.21-6.67-4.56-3.68S92.73,238,95.07,235Z"/><path class="cls-3" d="M91.61,220c2.43-2.92-2.22-6.67-4.56-3.67S89.27,223,91.61,220Z"/><path class="cls-3" d="M90.61,204.31c2.43-2.93-2.22-6.67-4.56-3.68S88.27,207.3,90.61,204.31Z"/><path class="cls-3" d="M89.61,189c2.43-2.92-2.22-6.67-4.56-3.67S87.27,192,89.61,189Z"/><path class="cls-3" d="M88.61,175.31c2.43-2.93-2.22-6.67-4.56-3.68S86.27,178.3,88.61,175.31Z"/><path class="cls-3" d="M89.61,162.31c2.43-2.93-2.22-6.67-4.56-3.68S87.27,165.3,89.61,162.31Z"/><path class="cls-3" d="M89.61,150.31c2.43-2.93-2.22-6.67-4.56-3.68S87.27,153.3,89.61,150.31Z"/><path class="cls-3" d="M90.13,138.07c2.41-2.89-2.19-6.6-4.51-3.64S87.82,141,90.13,138.07Z"/></g></g></svg>