<svg xmlns="http://www.w3.org/2000/svg" viewBox="0 0 178.64 263.01"><defs><style>.cls-1{fill:#27701b;}.cls-2{fill:#6f5637;}</style></defs><g id="leaves-individual"><g id="leaf-1-back"><path class="cls-1" d="M88.31,225.7c20.5-2.8,72.23,19.26,73.76,15.79s-30.8-23.25-70.56-31.1Z"/><path class="cls-1" d="M82.65,241.69c28.36,1.72,67.31,14.55,69.56,11.55S127,233.23,89,227.53Z"/><path class="cls-1" d="M95.36,193.89C107,192.1,166.48,209,168.8,203.14c2.41-6-57.22-22-70.09-22.73Z"/><path class="cls-1" d="M92.05,209.34c12.07-1.78,70,15.72,71.78,12.64C166,218.32,109.27,196,96.07,195.2Z"/><path class="cls-1" d="M100.3,165.73c10.2-5.6,70.9,3.09,71.78.14,2.1-7-58.22-14.62-69.24-12.58Z"/><path class="cls-1" d="M98.47,178.7c10.37-2.68,73,13.07,73.89,7s-60.42-20-72.1-19.43Z"/><path class="cls-1" d="M103.85,140.05c17-8.59,54.92-6.22,54.87-11.47,0-4.21-37.7-5.42-55.12.2Z"/><path class="cls-1" d="M102,153c9.21-3.65,63.63-6,63.88-8.87.56-6.24-52.75-4.84-63.34-3Z"/><path class="cls-1" d="M104.24,127.3c13.36-10.26,47.42-10.41,46.49-15.47-.74-4-40.08-.61-46.85,2.86Z"/><path class="cls-1" d="M103.54,99.57C110.79,97.3,142,81.12,141,78.19c-1.45-4.37-28.53,10-36.82,10.31Z"/><path class="cls-1" d="M103.87,112.77c7.31-3,44-15.09,43.24-19.14-.49-2.66-35.38,6.6-43.81,7.6Z"/><path class="cls-1" d="M102.42,86.61c5.89-2,31.6-16,30.3-23.13-1.11-6.08-22.89,13.67-29.59,14.18Z"/><path class="cls-1" d="M99.87,45.64C101,42.83,113.2,27,110.34,23.86,109,22.34,99.41,32.32,97.69,35.11Z"/><path class="cls-1" d="M95.44,21.68c.68-1.23,6.6-8.82,5.31-10-.25-.23-5.76,3.64-6.71,4.84Z"/><path class="cls-1" d="M97.2,34.23c.82-1.67,8.88-15.56,7.9-17.37-.75-1.4-8.84,4.94-10,6.57Z"/><path class="cls-1" d="M102.87,75.83c4-3.67,24.64-21.95,23.31-24.73-1.6-3.35-20.83,14.68-23.89,14.24Z"/><path class="cls-1" d="M101.13,54.41c4.27-2.36,14.68-16.65,13.13-21.67-1.21-3.93-9.34,12.06-14.62,13Z"/><path class="cls-1" d="M101.42,64.18c4.2-2.89,21.4-18.75,19-23.28-2-3.62-11.56,10.44-19.12,14.82Z"/><path class="cls-1" d="M92.58,17.14c-.72-2.18-1.88-8.59-.72-9.46s4.22,6.85,5,9Z"/><path class="cls-1" d="M87.34,226.4c-17.52-18.64-76.85-13.15-76.81-17s48.28-10.08,80.22,1.69Z"/><path class="cls-1" d="M81.63,241.56C57.2,224,5.15,228.65,5.36,224.9s52.78-12.23,80.54,1.74Z"/><path class="cls-1" d="M94.19,194c-10.31-5.76-72-11-72.17-17.3-.15-6.51,62.76.58,75.07,4.43Z"/><path class="cls-1" d="M90.69,210c-10.25-6.62-72.33-12.25-73.38-16.9-.94-4.14,63.21-2.33,75.58,2.36Z"/><path class="cls-1" d="M100.21,166.89C91.29,161.62,35,153.39,35,150.31c0-7.28,55.8.42,66.42,3.94Z"/><path class="cls-1" d="M97.2,179.69c-9.15-5.56-70.28-9.74-69.4-15.85s60.26-.5,71.28,3.4Z"/><path class="cls-1" d="M102.34,140.05c-8.9-3.56-51.78-18.7-52.07-23.94-.15-2.66,41.58,10.85,51.89,12.66Z"/><path class="cls-1" d="M101.2,153.3c-9-4.25-58.6-16.69-58.66-19.58-.14-6.26,48.46,5.16,58.9,7.65Z"/><path class="cls-1" d="M99,45.1c-2-2.24-16.73-13.84-15.12-17.77.78-1.91,11,5.12,13.53,7.14Z"/><path class="cls-1" d="M94.84,21.09c-1.07-.92-9.24-6-8.44-7.55.15-.3,6.66,1.42,8,2.22Z"/><path class="cls-1" d="M97.52,33.47C96.18,32.19,84.72,21.21,85,19.17c.23-1.57,9.1,2.32,10.76,3.44Z"/><path class="cls-1" d="M103.49,127c-7.49-3.66-47.1-17.24-46.37-22.34.59-4.08,37.56,8.07,46.24,9.73Z"/><path class="cls-1" d="M103.11,99.21c-7.33-2-39-14.39-38.54-17.45.89-6.2,29.18,6.38,37.47,6.42Z"/><path class="cls-1" d="M103.3,112.42c-7.42-2.66-43-15.67-42.38-19.74.38-2.68,34,7.51,42.5,8.19Z"/><path class="cls-1" d="M103.73,86.22c-6-1.79-33-10.86-32-18,.87-6.12,24.25,8.83,31,9.07Z"/><path class="cls-1" d="M103.37,75.7c-5.07-2-26.55-14-26.11-17.08.71-4.93,19.32,6.79,25,7.1Z"/><path class="cls-1" d="M100.82,53.76c-4.83-.73-18-12-18.3-17.26-.23-4.11,11.42,9.57,16.7,8.64Z"/><path class="cls-1" d="M102,64.21C97.1,63,79.16,52.65,79.89,47.56c.58-4.08,12.66,6,21.26,7.48Z"/><path class="cls-2" d="M94.46,13.42c2.59,10,4.43,20.07,6,30.22S103.2,64,104,74.23s1.34,20.49,1.48,30.76-.09,20.55-.63,30.81-1.53,20.51-2.76,30.72c-.71,5.09-1.35,10.19-2.25,15.26S98.09,191.91,97.11,197a393.25,393.25,0,0,1-17,59.34l-4.66-1.8A388.85,388.85,0,0,0,93,196.1c1-5,2.1-10,2.94-15S97.6,171.05,98.37,166c1.35-10.1,2.47-20.24,3.14-30.42s1-20.38,1-30.58-.38-20.42-1.07-30.6S99.74,54.07,98.32,44s-3.15-20.21-5.58-30.08Z"/></g></g></svg>