<svg xmlns="http://www.w3.org/2000/svg" viewBox="0 0 177.18 262.95"><defs><style>.cls-1{fill:#27701b;}.cls-2{fill:#6f5637;}.cls-3{opacity:0.5;}.cls-4{opacity:0.7;}</style></defs><g id="leaves-individual"><g id="leaf-1-back"><path class="cls-1" d="M91.74,220.56C109,213.45,168,232,169,228.45s-37-21-76.31-23Z"/><path class="cls-1" d="M88.51,236.72c27.51-2.27,78.76,12.93,80.51,9.73s-39-24-76.37-24.22Z"/><path class="cls-1" d="M94.12,189c11-3.34,74.64,7.55,76.07,1.64,1.48-6.15-62.24-16.18-74.71-15.07Z"/><path class="cls-1" d="M93.08,204.31c11.36-3.38,73.63,8.35,74.94,5.14,1.55-3.82-60.22-20.3-73-19.29Z"/><path class="cls-1" d="M95,161.24c9-6.79,68.59-6.83,69-9.79,1-7-58-6-68.32-2.52Z"/><path class="cls-1" d="M95,174c9.59-4,72,2.48,72-3.52s-60.85-10.86-72-8.71Z"/><path class="cls-1" d="M94.85,136.06C110,125.45,146.79,122.49,146,117.45c-.62-4-37,0-53,7.81Z"/><path class="cls-1" d="M94.82,148.82c8.35-4.79,60.35-14.56,60.2-17.37-.33-6.07-51.39,2.65-61.32,5.83Z"/><path class="cls-1" d="M93.45,123.75c10.68-9.79,44.16-16.56,42.57-21.3-1.28-3.79-38.62,5-44.65,9.23Z"/><path class="cls-1" d="M89,97.19C95.6,94,123.36,74.13,122,71.45c-2-4-26.06,13.52-34,15Z"/><path class="cls-1" d="M91.09,109.84c6.62-3.85,40.2-20.6,38.93-24.39C129.18,83,96.91,96.69,88.94,98.82Z"/><path class="cls-1" d="M86.08,84.88c5.38-2.76,28.17-19.79,25.94-26.43-1.91-5.69-20.13,16.31-26.49,17.73Z"/><path class="cls-1" d="M78,45.84C78.66,43,88.2,26.07,85,23.45,83.47,22.18,75.68,33.1,74.41,36Z"/><path class="cls-1" d="M70.39,23.42c.49-1.28,5.12-9.39,3.72-10.35-.27-.18-5,4.29-5.78,5.58Z"/><path class="cls-1" d="M73.82,35.24c.55-1.71,6.39-16.18,5.2-17.79-.92-1.24-7.82,6-8.72,7.7Z"/><path class="cls-1" d="M85,74.45c3.38-4.08,20.66-24.5,19-27-2-3-18,17-21,17Z"/><path class="cls-1" d="M80.38,54.1c3.79-2.86,11.82-18,9.64-22.65C88.31,27.83,82.71,44.34,77.76,46Z"/><path class="cls-1" d="M82,63.45c3.64-3.36,18-21,15-25-2.39-3.21-9.67,11.63-16.33,16.89Z"/><path class="cls-1" d="M67,19.45c-1-2-3-8-2-9s5,6,6,8Z"/><path class="cls-1" d="M90.91,221.37C80.14,215.22,13.5,213.11,13,209.45s66.3-7.26,79.06-3.22Z"/><path class="cls-1" d="M87.51,236.73c-11-6.5-80.25-14.43-80.56-18.07s69.35-1.34,82.61,3.14Z"/><path class="cls-1" d="M93,189.22c-10.71-4.11-70,2.23-71-3.77-1-6.24,59.63-11,72-9Z"/><path class="cls-1" d="M91.86,205.1c-10.77-4.95-74-4.29-74.84-7.65-1-4,62.4-9.44,74.94-6.63Z"/><path class="cls-1" d="M95.06,162.38c-9.31-3.84-59.62-4-60-6.93-1-7,48.71-7.31,59.4-5.39Z"/><path class="cls-1" d="M93.93,175.1C84.37,171,30,175.45,30,169.45s52.86-8.81,64-6.59Z"/><path class="cls-1" d="M93.39,136.27c-9-2.19-50.37-9.82-51.37-14.82-.51-2.53,39.48,3.69,49.64,4Z"/><path class="cls-1" d="M94.13,149.17c-9.19-2.85-53.65-7.95-54.11-10.72-1-6,42.3-1.73,52.69-.78Z"/><path class="cls-1" d="M77,45.45c-2.27-1.88-18-11-17-15,.48-1.94,11.23,3.41,14,5Z"/><path class="cls-1" d="M69.73,22.93c-1.15-.73-9.71-4.48-9.16-6.08.11-.31,6.6.44,8,1Z"/><path class="cls-1" d="M74,34.47c-1.46-1-14-10-14-12,0-1.54,9.06,1,10.82,1.82Z"/><path class="cls-1" d="M92.69,123.52C85,121,47,114.45,47,109.45c0-4,35.23,1.57,43.8,2Z"/><path class="cls-1" d="M88.49,96.91C81.17,96,51,89.45,51,86.45c0-6.08,26.93,1.1,34.91,0Z"/><path class="cls-1" d="M90.49,109.58C83,108,49,101.45,49,97.45c0-2.62,31.77,1.52,40,1Z"/><path class="cls-1" d="M87.29,84.32c-6-.9-32.27-4.87-32.27-11.87,0-6,23.54,4.14,30,3.45Z"/><path class="cls-1" d="M85.49,74.26C80.33,73,59,65.45,59,62.45c0-4.84,18.51,2.86,24,2.38Z"/><path class="cls-1" d="M80,53.52c-4.74,0-19-9.07-20-14.07-.79-3.92,12.3,7.62,17.25,6Z"/><path class="cls-1" d="M82.62,63.4C77.69,62.87,59,55.45,59,50.45c0-4,13,4,21.48,4.25Z"/><path class="cls-2" d="M68.34,15.6c3.87,9.25,7,18.69,10,28.23S83.74,63,86,72.74s4.13,19.52,5.68,29.38,2.76,19.77,3.67,29.71,1.36,19.93,1.59,29.92c0,5,.12,10,0,15s-.33,10-.57,15a382,382,0,0,1-8.18,59.42L83.24,250a378,378,0,0,0,8.87-58.57c.3-4.94.65-9.87.76-14.82s.19-9.89.24-14.84c-.09-9.9-.42-19.8-1.18-29.68s-1.84-19.73-3.24-29.54S85.51,83,83.44,73.3,79,54,76.21,44.45s-5.82-19-9.51-28.15Z"/></g></g></svg>