<svg xmlns="http://www.w3.org/2000/svg" viewBox="0 0 200 600"><defs><style>.cls-1{fill:#637d3d;}.cls-2{fill:#63873d;}.cls-3{opacity:0.5;}.cls-4{opacity:0.7;}</style></defs><g id="plains-components"><g id="plains-bushes-right"><path class="cls-1" d="M241.11,494.46C277.21,599.91,112,657.26,75,552.13,38.89,446.69,204.12,389.34,241.11,494.46Z"/><path class="cls-1" d="M133.82,451.32c25.74,75.21-92.12,116.12-118.5,41.13C-10.43,417.24,107.44,376.34,133.82,451.32Z"/><path class="cls-1" d="M155.16,551.38c22.66,66.2-81.08,102.21-104.3,36.2C28.2,521.39,131.94,485.38,155.16,551.38Z"/><path class="cls-2" d="M234.6,569.38c23.49,68.61-84,105.93-108.09,37.52C103,538.3,210.54,501,234.6,569.38Z"/><path class="cls-1" d="M184.73,455.7c-131.42,45-202.9-161-71.87-207C244.27,203.66,315.75,409.6,184.73,455.7Z"/><path class="cls-1" d="M179.57,209.13C67,247.66,5.81,71.29,118,31.81,230.56-6.71,291.77,169.66,179.57,209.13Z"/><path class="cls-1" d="M160,311C42.26,351.26-21.77,166.79,95.6,125.5,213.31,85.21,277.34,269.68,160,311Z"/><path class="cls-1" d="M179.26,123.85C67.83,162,7.22-12.63,118.32-51.72,229.75-89.86,290.36,84.76,179.26,123.85Z"/><path class="cls-1" d="M147.65,89.86C173.4,165.07,55.53,206,29.15,131,3.41,55.78,121.27,14.88,147.65,89.86Z"/><path class="cls-2" d="M217.73,320.45c25.93,75.76-92.79,117-119.36,41.43C72.43,286.13,191.15,244.92,217.73,320.45Z"/><path class="cls-2" d="M241.82,240.53c-57.46,88.75-197.13-.82-140.43-90.06C158.84,61.72,298.52,151.29,241.82,240.53Z"/><path class="cls-2" d="M201.85,309.22c-46.78,72.26-160.48-.66-114.32-73.31C134.3,163.66,248,236.58,201.85,309.22Z"/><path class="cls-2" d="M259.46,57.92c34.28,100.16-122.67,154.63-157.8,54.77C67.37,12.54,224.32-41.94,259.46,57.92Z"/><path class="cls-2" d="M220.05,500.86c26.94,78.71-96.4,121.52-124,43C69.1,465.2,192.44,422.39,220.05,500.86Z"/></g></g></svg>