<svg xmlns="http://www.w3.org/2000/svg" viewBox="0 0 800 200"><defs><style>.cls-1{opacity:0.68;}.cls-2{fill:#382f1c;}.cls-10,.cls-11,.cls-12,.cls-3,.cls-7,.cls-8,.cls-9{fill:none;stroke:#826938;stroke-miterlimit:10;}.cls-3{stroke-width:5.53px;}.cls-4{fill:#826938;}.cls-5{fill:#54482b;}.cls-6{fill:#4d4026;}.cls-7{stroke-width:6.04px;}.cls-8{stroke-width:5.36px;}.cls-9{stroke-width:5.95px;}.cls-10{stroke-width:5.43px;}.cls-11{stroke-width:4.69px;}.cls-12{stroke-width:4.95px;}.cls-13{opacity:0.5;}.cls-14{opacity:0.7;}</style></defs><g id="plains-components"><g id="plains-instruction-stack"><g class="cls-1"><path class="cls-2" d="M10.19,163.06l81.12,33.18L96,175.79l12-20.32c1.7-10.48,6.7-31.76,9.54-42.07L36.25,83.63,30.72,109C23.53,121.4,13.79,149.14,10.19,163.06Z"/><line class="cls-3" x1="96.32" y1="152.54" x2="39.35" y2="131.08"/><polygon class="cls-4" points="64.45 116.38 66.55 121.5 41.33 131.82 53.47 156.22 48.52 158.68 33.74 128.96 64.45 116.38"/><path class="cls-5" d="M75.2,116.06l8.6,2.88,8.57,3c2.86,1,5.76,1.86,8.55,3a78.76,78.76,0,0,1,8.21,3.89l0,.15a78.83,78.83,0,0,1-8.75-2.49c-2.87-1-5.62-2.22-8.42-3.35l-8.4-3.43-8.36-3.51Z"/><path class="cls-5" d="M41.53,96.73l10.07,3.44,10,3.51c3.34,1.18,6.73,2.23,10,3.6s6.53,2.77,9.69,4.44l-.06.16c-3.48-.82-6.86-1.91-10.22-3s-6.6-2.59-9.89-3.91l-9.87-4-9.83-4.06Z"/><path class="cls-5" d="M51.73,170.39l-8.6-2.88-8.57-3c-2.85-1-5.75-1.86-8.54-3a79,79,0,0,1-8.22-3.9l.06-.15a78.87,78.87,0,0,1,8.75,2.5c2.87.95,5.62,2.21,8.42,3.35l8.4,3.42,8.36,3.51Z"/><path class="cls-6" d="M510.2,41.07l31.21,90.5,20.19-10.85L586.94,116c9.84-6.15,30.9-17.38,41.42-22.48L594.18,5.24,569.35,19C554,22,524.22,34,510.2,41.07Z"/><path class="cls-2" d="M510.2,41.07l31.21,90.5,20.19-10.85L586.94,116c9.84-6.15,30.9-17.38,41.42-22.48L594.18,5.24,569.35,19C554,22,524.22,34,510.2,41.07Z"/><path class="cls-5" d="M536.6,39.87l6,14.84,5.89,14.88c2,5,4,9.88,5.81,14.91.88,2.52,1.75,5,2.56,7.58s1.62,5.09,2.31,7.68l-.17.07c-1.18-2.41-2.26-4.85-3.32-7.3s-2.08-4.92-3.08-7.39c-2-5-3.68-10-5.47-15L541.73,55l-5.3-15.1Z"/><path class="cls-5" d="M612.87,96,609,86.83l-3.74-9.17c-1.24-3.06-2.62-6.07-3.66-9.2a88.41,88.41,0,0,1-2.73-9.55l.17-.07a87.4,87.4,0,0,1,4.25,9c1.29,3,2.23,6.21,3.32,9.33l3.24,9.36L613,95.9Z"/><polyline class="cls-7" points="580.98 71.17 595.58 41.79 565.15 29.12"/><path class="cls-7" d="M592.9,42.68c-42.22,11.37-52.43,38-40.77,69"/><path class="cls-6" d="M620.75,25.91l-26.42,92,22.76,2.71,23.48,10.65c11.59.62,35.28,3.52,46.82,5.39l22.69-91.86-28.22-3C667.56,35.46,636.29,28.17,620.75,25.91Z"/><path class="cls-2" d="M620.75,25.91l-26.42,92,22.76,2.71,23.48,10.65c11.59.62,35.28,3.52,46.82,5.39l22.69-91.86-28.22-3C667.56,35.46,636.29,28.17,620.75,25.91Z"/><path class="cls-5" d="M643.05,40.09l-3.63,15.58L635.7,71.24c-1.23,5.19-2.36,10.4-3.81,15.54-.72,2.56-1.45,5.13-2.25,7.68s-1.6,5.09-2.52,7.61l-.17,0c.41-2.65.93-5.27,1.46-7.89s1.13-5.21,1.73-7.81c1.21-5.2,2.74-10.31,4.16-15.45l4.24-15.43L642.88,40Z"/><path class="cls-5" d="M673.27,129.81l2.12-9.68,2.2-9.65c.74-3.22,1.34-6.47,2.29-9.64a88.94,88.94,0,0,1,3.25-9.38l.18,0a86.82,86.82,0,0,1-1.68,9.8c-.69,3.23-1.74,6.36-2.64,9.54l-2.72,9.52-2.82,9.5Z"/><polyline class="cls-7" points="661.41 91.2 690.23 75.53 672.6 47.68"/><path class="cls-7" d="M687.53,74.72c-41.09-14.94-64.75,1-73,33"/><path class="cls-6" d="M484.15,11.37,446.78,87.69l19.47,5.9,18.87,13c10,2.33,30.29,8.55,40.08,12l34.09-76.77-24.2-7C523.58,27,497.39,15.76,484.15,11.37Z"/><path class="cls-2" d="M484.15,11.37,446.78,87.69l19.47,5.9,18.87,13c10,2.33,30.29,8.55,40.08,12l34.09-76.77-24.2-7C523.58,27,497.39,15.76,484.15,11.37Z"/><polyline class="cls-8" points="495.62 68.4 484.44 41.51 512.15 32.1"/><path class="cls-5" d="M537.46,36.07l-5.6,13.06-5.67,13c-1.88,4.34-3.68,8.73-5.74,13s-4.18,8.5-6.54,12.63l-.15-.07c1.56-4.49,3.37-8.87,5.23-13.23s4-8.58,6-12.85l6.11-12.83L537.31,36Z"/><path class="cls-5" d="M495.83,100.85l3.35-8.13,3.42-8.1c1.15-2.69,2.18-5.44,3.5-8.06a78.58,78.58,0,0,1,4.3-7.7l.15.07a76.4,76.4,0,0,1-3,8.29c-1.11,2.72-2.51,5.3-3.79,7.94l-3.86,7.89L496,100.92Z"/><path class="cls-5" d="M461.68,77.93,465,69.8l3.43-8.09c1.15-2.7,2.18-5.45,3.49-8.07a78.68,78.68,0,0,1,4.31-7.7l.14.07a78.7,78.7,0,0,1-3,8.3c-1.11,2.71-2.51,5.29-3.79,7.93l-3.86,7.9L461.83,78Z"/><path class="cls-8" d="M486.76,42.45c36.72,12.59,44.17,36.79,32,63.52"/><path class="cls-2" d="M69.56,9.14,47.21,100.78l22.52,1.76,23.54,9.55c11.44.14,34.88,2.06,46.31,3.43l18.67-91.34-27.9-1.83C116,16.68,85,10.75,69.56,9.14Z"/><line class="cls-9" x1="94.52" y1="99.12" x2="108.25" y2="35.05"/><polygon class="cls-4" points="127.91 59.42 122.8 62.48 107.78 37.29 83.75 54.11 80.34 49.23 109.61 28.75 127.91 59.42"/><path class="cls-5" d="M130,70.82l-1.7,9.61L126.49,90c-.61,3.2-1.06,6.43-1.87,9.58a87.59,87.59,0,0,1-2.83,9.37l-.17,0a85.08,85.08,0,0,1,1.26-9.71c.55-3.2,1.46-6.33,2.21-9.5l2.31-9.48,2.39-9.46Z"/><path class="cls-5" d="M145.16,31.89l-2,11.27L141,54.41c-.72,3.75-1.3,7.52-2.22,11.23s-1.91,7.39-3.19,11l-.17,0c.32-3.83.93-7.6,1.61-11.36s1.7-7.44,2.58-11.15L142.24,43,145,31.85Z"/><path class="cls-5" d="M68.39,54.52l1.7-9.61,1.78-9.59c.6-3.2,1.06-6.43,1.87-9.58a85.36,85.36,0,0,1,2.83-9.37l.17,0a84.62,84.62,0,0,1-1.26,9.7c-.55,3.21-1.46,6.34-2.22,9.51L71,45.1l-2.4,9.46Z"/><path class="cls-6" d="M265.38,26.88l18.84,82.87,18.86-7.63,22.82-1.77c9.28-4.48,29-12.37,38.72-15.85L342.94,3.35l-23.23,9.74C305.88,14.28,278.44,22,265.38,26.88Z"/><path class="cls-2" d="M265.38,26.88l18.84,82.87,18.86-7.63,22.82-1.77c9.28-4.48,29-12.37,38.72-15.85L342.94,3.35l-23.23,9.74C305.88,14.28,278.44,22,265.38,26.88Z"/><polyline class="cls-8" points="310.12 64.07 284.54 50.16 300.19 25.43"/><path class="cls-5" d="M322.38,12.64l3.85,13.67L330,40c1.26,4.56,2.61,9.11,3.69,13.72s2.08,9.24,2.83,13.93l-.15,0c-1.61-4.47-2.95-9-4.24-13.57s-2.28-9.19-3.38-13.8l-3.3-13.82-3.22-13.83Z"/><path class="cls-5" d="M330.67,89.19l-2.5-8.43-2.42-8.45c-.8-2.82-1.73-5.61-2.35-8.48a78.42,78.42,0,0,1-1.48-8.69l.15,0A76.73,76.73,0,0,1,325,63.43c.84,2.81,1.37,5.7,2,8.56l2,8.57,1.87,8.59Z"/><path class="cls-5" d="M289.7,92.8l-2.5-8.43-2.42-8.46c-.8-2.82-1.72-5.6-2.34-8.47A76.17,76.17,0,0,1,281,58.75l.16,0A78.87,78.87,0,0,1,284,67c.84,2.81,1.38,5.7,2,8.55l2,8.58,1.88,8.59Z"/><path class="cls-8" d="M286.94,49.44c36.47-13.26,57.47.89,64.78,29.33"/><path class="cls-6" d="M688.33,29.91l10.08,85.45,19.81-5.66,23.17.67c9.82-3.52,30.47-9.35,40.68-11.81L769,14.53l-24.44,7.31C730.46,21.56,702,26.38,688.33,29.91Z"/><path class="cls-2" d="M688.33,29.91l10.08,85.45,19.81-5.66,23.17.67c9.82-3.52,30.47-9.35,40.68-11.81L769,14.53l-24.44,7.31C730.46,21.56,702,26.38,688.33,29.91Z"/><path class="cls-5" d="M711.75,33.91l2.41,14.18,2.32,14.2c.78,4.73,1.66,9.44,2.25,14.2s1.1,9.53,1.36,14.34l-.16,0c-1.14-4.68-2-9.39-2.81-14.12s-1.32-9.5-1.93-14.25l-1.84-14.27-1.76-14.28Z"/><path class="cls-5" d="M768,97.78,766.37,89l-1.53-8.77c-.5-2.93-1.13-5.83-1.45-8.78a78,78,0,0,1-.56-8.92l.16,0a77.65,77.65,0,0,1,2,8.7c.55,2.92.77,5.88,1.13,8.83l1,8.84,1,8.85Z"/><polyline class="cls-10" points="744.73 69.9 763.18 46.89 738.88 29.94"/><path class="cls-10" d="M760.65,47.16c-39.25,1.9-53.32,23.33-49,52.75"/><path class="cls-2" d="M173.39,3.23,150.72,94.79l22.51,1.84,23.51,9.63c11.43.19,34.87,2.19,46.29,3.61l19-91.28-27.9-1.93C219.83,10.94,188.78,4.89,173.39,3.23Z"/><line class="cls-9" x1="198.03" y1="93.3" x2="211.99" y2="29.28"/><polygon class="cls-4" points="231.56 53.72 226.44 56.76 211.51 31.52 187.42 48.25 184.03 43.36 213.37 22.98 231.56 53.72"/><path class="cls-5" d="M233.58,65.12l-1.73,9.61L230,84.32c-.61,3.19-1.08,6.42-1.9,9.57a86.91,86.91,0,0,1-2.86,9.36l-.18,0a84.68,84.68,0,0,1,1.3-9.7c.56-3.21,1.48-6.34,2.25-9.5L231,74.54l2.43-9.45Z"/><path class="cls-5" d="M248.91,26.26l-2.09,11.26-2.18,11.24c-.73,3.74-1.32,7.52-2.26,11.22s-1.93,7.39-3.23,11L239,71c.33-3.83,1-7.6,1.65-11.35s1.73-7.44,2.62-11.15L246,37.32l2.79-11.1Z"/><path class="cls-5" d="M172.06,48.61,173.79,39l1.82-9.59c.62-3.19,1.08-6.42,1.9-9.56a84.12,84.12,0,0,1,2.87-9.36l.17,0a87.12,87.12,0,0,1-1.29,9.71c-.57,3.2-1.49,6.33-2.26,9.49l-2.34,9.47-2.42,9.46Z"/><path class="cls-2" d="M92.51,107.6l30.75,89.17,19.89-10.69,25-4.7c9.7-6.06,30.45-17.12,40.81-22.14L175.25,72.3,150.79,85.84C135.67,88.82,106.32,100.63,92.51,107.6Z"/><line class="cls-9" x1="162.16" y1="169.8" x2="139.07" y2="108.48"/><polygon class="cls-4" points="168.78 118.36 166.13 123.69 139.88 110.62 128.76 137.76 123.25 135.5 136.8 102.44 168.78 118.36"/><path class="cls-5" d="M176.67,126.82l3.77,9,3.69,9c1.22,3,2.58,6,3.61,9.07a85.17,85.17,0,0,1,2.68,9.41l-.16.06a85.83,85.83,0,0,1-4.19-8.84c-1.27-3-2.2-6.12-3.27-9.19l-3.19-9.23-3.1-9.25Z"/><path class="cls-5" d="M168.41,85.87l4.36,10.58,4.29,10.62c1.42,3.54,3,7,4.2,10.65s2.4,7.25,3.28,11l-.17.06c-1.8-3.4-3.32-6.9-4.78-10.43s-2.6-7.18-3.87-10.78l-3.78-10.8-3.7-10.84Z"/><path class="cls-5" d="M116.06,146.41l-3.77-9-3.69-9c-1.21-3-2.58-6-3.6-9.07a88.78,88.78,0,0,1-2.69-9.41l.17-.07a86,86,0,0,1,4.19,8.85c1.27,3,2.2,6.12,3.27,9.19l3.19,9.23,3.1,9.25Z"/><path class="cls-2" d="M236.39,75.7,184.06,146l18.63,9.67,16.68,16.7c9.73,4.27,29.1,14.4,38.38,19.72l49.08-71.39L283.62,109C273.42,99,249,82.65,236.39,75.7Z"/><line class="cls-3" x1="225.14" y1="161.74" x2="260.1" y2="111.9"/><polygon class="cls-4" points="268.09 139.87 262.61 140.63 258.89 113.64 232.24 119.32 231.09 113.91 263.55 106.99 268.09 139.87"/><path class="cls-5" d="M265.73,150.36,260.79,158l-5,7.56c-1.68,2.51-3.24,5.11-5.07,7.51a80.56,80.56,0,0,1-5.82,7l-.13-.1a81.7,81.7,0,0,1,4.59-7.85c1.64-2.54,3.55-4.89,5.34-7.32l5.41-7.28,5.48-7.23Z"/><path class="cls-5" d="M292.83,122.57,287,131.46l-5.9,8.85c-2,2.95-3.84,6-6,8.81s-4.3,5.63-6.71,8.27l-.14-.09c1.66-3.17,3.55-6.17,5.5-9.14s4.15-5.75,6.24-8.61l6.31-8.56,6.38-8.52Z"/><path class="cls-5" d="M218.94,114.11l4.94-7.61,5-7.56c1.68-2.52,3.23-5.12,5.07-7.52a78.67,78.67,0,0,1,5.82-7l.13.09a80.5,80.5,0,0,1-4.59,7.85c-1.64,2.55-3.55,4.89-5.35,7.33l-5.4,7.27-5.48,7.23Z"/><path class="cls-6" d="M322.11,97.21l-27.87,80.28,20,3.5,20.3,10.58c10.25,1.11,31.11,4.83,41.24,7l24.56-80.33-24.87-4C363.14,107.94,335.78,100,322.11,97.21Z"/><path class="cls-2" d="M322.11,97.21l-27.87,80.28,20,3.5,20.3,10.58c10.25,1.11,31.11,4.83,41.24,7l24.56-80.33-24.87-4C363.14,107.94,335.78,100,322.11,97.21Z"/><polyline class="cls-8" points="340.39 152.44 326.05 127.09 352.41 114.4"/><path class="cls-5" d="M378,115.29l-4,13.64L370,142.54c-1.35,4.54-2.6,9.11-4.13,13.59s-3.12,9-5,13.33l-.15-.05c1-4.65,2.27-9.21,3.59-13.76s2.92-9,4.43-13.5l4.51-13.47,4.59-13.44Z"/><path class="cls-5" d="M344.53,184.62l2.34-8.47,2.42-8.46c.81-2.81,1.5-5.67,2.49-8.42a79.09,79.09,0,0,1,3.34-8.17l.16.05a80,80,0,0,1-2,8.6c-.78,2.83-1.85,5.56-2.8,8.33l-2.88,8.31-3,8.28Z"/><path class="cls-5" d="M307.86,166l2.34-8.48,2.42-8.45c.82-2.82,1.5-5.67,2.5-8.43a77.57,77.57,0,0,1,3.33-8.16l.16,0a77.14,77.14,0,0,1-2,8.6c-.77,2.83-1.85,5.56-2.8,8.33L311,157.77l-3,8.28Z"/><path class="cls-8" d="M328.46,127.75c38,8.05,48.3,31.17,39.45,59.18"/><path class="cls-6" d="M392.45,133.81l56.95,63.08L462.12,181l19.05-12.7c5.9-8.45,19.2-24.94,26-32.76L448.6,75.36,433.09,95.22C421.62,103,401.45,123.16,392.45,133.81Z"/><path class="cls-2" d="M392.45,133.81l56.95,63.08L462.12,181l19.05-12.7c5.9-8.45,19.2-24.94,26-32.76L448.6,75.36,433.09,95.22C421.62,103,401.45,123.16,392.45,133.81Z"/><polyline class="cls-8" points="449.66 144.38 420.54 144.75 422.11 115.53"/><path class="cls-5" d="M435.21,93.52l10,10,10,10.1c3.34,3.37,6.74,6.67,9.93,10.16s6.33,7,9.29,10.77l-.12.11c-3.59-3.12-7-6.42-10.33-9.77s-6.49-6.89-9.7-10.38l-9.63-10.44-9.58-10.49Z"/><path class="cls-5" d="M479.86,156.25l-6.3-6.14-6.24-6.19c-2.08-2.07-4.25-4-6.19-6.24a77,77,0,0,1-5.55-6.86l.12-.11a78.29,78.29,0,0,1,6.59,5.86c2.11,2,4,4.3,6,6.47l5.89,6.52,5.84,6.57Z"/><path class="cls-5" d="M445.89,179.42l-6.3-6.13-6.24-6.19c-2.08-2.07-4.25-4-6.19-6.24a79.93,79.93,0,0,1-5.55-6.86l.12-.11a76.57,76.57,0,0,1,6.59,5.86c2.11,2,4,4.29,6,6.46l5.89,6.52,5.84,6.58Z"/><path class="cls-8" d="M422.28,143c25.34-29.4,50.57-27.33,70.86-6.09"/><path class="cls-6" d="M377.58,13.76,345.41,92.42,365.23,97l19.7,11.66c10.17,1.66,30.8,6.5,40.8,9.26L454.59,39,430,33.67C418,26.7,391.08,17.26,377.58,13.76Z"/><path class="cls-2" d="M377.58,13.76,345.41,92.42,365.23,97l19.7,11.66c10.17,1.66,30.8,6.5,40.8,9.26L454.59,39,430,33.67C418,26.7,391.08,17.26,377.58,13.76Z"/><polyline class="cls-8" points="392.85 69.9 379.89 43.81 406.91 32.57"/><path class="cls-5" d="M432.42,34.83l-4.71,13.41-4.78,13.38c-1.58,4.46-3.08,8.95-4.85,13.34s-3.6,8.77-5.68,13l-.15-.06c1.25-4.58,2.76-9.07,4.32-13.54s3.41-8.84,5.16-13.24L427,48l5.31-13.18Z"/><path class="cls-5" d="M395.24,102.26,398,93.92l2.88-8.31c1-2.76,1.8-5.58,2.94-8.28a79.32,79.32,0,0,1,3.78-8l.15.06a78.37,78.37,0,0,1-2.42,8.48c-.93,2.78-2.15,5.45-3.25,8.17l-3.32,8.14-3.4,8.11Z"/><path class="cls-5" d="M359.63,81.69l2.8-8.34L365.3,65c1-2.77,1.81-5.58,2.95-8.28a75.2,75.2,0,0,1,3.77-8l.15.06a79,79,0,0,1-2.42,8.48c-.92,2.78-2.15,5.45-3.25,8.16l-3.32,8.14-3.4,8.11Z"/><path class="cls-8" d="M382.27,44.6c37.48,10.1,46.54,33.74,36.19,61.22"/><path class="cls-6" d="M542.74,142l49.78,55.15,11.12-13.88,16.66-11.1c5.16-7.39,16.79-21.8,22.75-28.64L591.84,90.9l-13.56,17.36C568.24,115.07,550.61,132.69,542.74,142Z"/><path class="cls-2" d="M542.74,142l49.78,55.15,11.12-13.88,16.66-11.1c5.16-7.39,16.79-21.8,22.75-28.64L591.84,90.9l-13.56,17.36C568.24,115.07,550.61,132.69,542.74,142Z"/><path class="cls-5" d="M561.23,133.12l8.78,8.79,8.73,8.83c2.91,2.94,5.88,5.83,8.68,8.89s5.55,6.14,8.11,9.42l-.1.09c-3.15-2.71-6.08-5.64-9-8.54s-5.67-6-8.47-9.08l-8.43-9.13-8.37-9.17Z"/><path class="cls-5" d="M632.75,150l-5.51-5.36-5.46-5.42c-1.81-1.81-3.71-3.54-5.41-5.46a67.1,67.1,0,0,1-4.85-6l.1-.1a68.7,68.7,0,0,1,5.77,5.12c1.84,1.79,3.48,3.76,5.2,5.66l5.16,5.7,5.1,5.75Z"/><polyline class="cls-11" points="602.44 142 603.94 116.57 578.36 116.77"/><path class="cls-11" d="M602.3,118c-26.7,21-25.91,43.07-8.17,61.64"/><path class="cls-6" d="M701.1,89.4l-50.18,60.44,16.21,9.53,14.14,15.75c8.51,4.28,25.36,14.27,33.41,19.47L762,133l-20.21-11.56C733.13,112,712,96.22,701.1,89.4Z"/><path class="cls-2" d="M701.1,89.4l-50.18,60.44,16.21,9.53,14.14,15.75c8.51,4.28,25.36,14.27,33.41,19.47L762,133l-20.21-11.56C733.13,112,712,96.22,701.1,89.4Z"/><path class="cls-5" d="M713.19,107.4l-7.86,10.52-7.93,10.47c-2.64,3.49-5.21,7-8,10.42s-5.61,6.73-8.63,9.92l-.12-.09c2.38-3.69,5-7.24,7.58-10.74s5.45-6.85,8.21-10.24l8.28-10.2,8.33-10.15Z"/><path class="cls-5" d="M706.33,184.79l4.78-6.58,4.84-6.53c1.62-2.17,3.13-4.42,4.89-6.48a72.64,72.64,0,0,1,5.54-6l.12.09a74.12,74.12,0,0,1-4.49,6.81c-1.58,2.19-3.41,4.21-5.13,6.3l-5.19,6.25-5.24,6.21Z"/><polyline class="cls-12" points="710.14 151.87 736.97 149.59 732.89 122.85"/><path class="cls-12" d="M735.2,148.09c-26-24.77-49-20.59-65.73.78"/></g></g></g></svg>