<svg xmlns="http://www.w3.org/2000/svg" viewBox="0 0 200 200"><defs><style>.cls-1{fill:#4d4026;}.cls-2{fill:#382f1c;}.cls-3{fill:none;stroke:#826938;stroke-miterlimit:10;stroke-width:10px;}.cls-4{fill:#54482b;}.cls-5{opacity:0.5;}.cls-6{opacity:0.7;}</style></defs><g id="plains-components"><g id="plains-instruction-turn-left"><polygon class="cls-1" points="25.93 22.82 21.48 181.33 59.11 176.3 101.19 183.7 136.15 177.78 178.52 173.04 177.04 16.3 130.52 23.11 84.59 19.26 25.93 22.82"/><polygon class="cls-2" points="25.93 22.82 21.48 181.33 59.11 176.3 101.19 183.7 136.15 177.78 178.52 173.04 177.04 16.3 130.52 23.11 84.59 19.26 25.93 22.82"/><polyline class="cls-3" points="89.51 110.81 49.73 73.77 89.51 36.37"/><path class="cls-4" d="M135.56,23.54l.6,26.51.45,26.5c.13,8.84.52,17.67.3,26.51s-.53,17.67-1.35,26.5h-.3c-.83-8.83-1.15-17.67-1.35-26.5s.17-17.67.3-26.51l.45-26.5.6-26.51Z"/><path class="cls-4" d="M115,165.75c-.24-5.47-.4-10.94-.6-16.4l-.45-16.4c-.13-5.47-.52-10.94-.3-16.4a143.69,143.69,0,0,1,1.35-16.4h.3a143.69,143.69,0,0,1,1.35,16.4c.22,5.46-.17,10.93-.3,16.4l-.45,16.4c-.2,5.46-.36,10.93-.6,16.4Z"/><path class="cls-4" d="M39.26,153.24c-.24-5.47-.4-10.93-.6-16.4l-.45-16.4c-.13-5.47-.52-10.93-.3-16.4a143.87,143.87,0,0,1,1.35-16.4h.3A143.87,143.87,0,0,1,40.91,104c.22,5.47-.17,10.93-.3,16.4l-.45,16.4c-.2,5.47-.36,10.93-.6,16.4Z"/><path class="cls-3" d="M54.41,73.59c72.08-7,103.46,28.31,103.46,83.11"/></g></g></svg>