<svg xmlns="http://www.w3.org/2000/svg" viewBox="0 0 200 200"><defs><style>.cls-1{fill:#637d3d;}.cls-2{fill:#63873d;}.cls-3{opacity:0.5;}.cls-4{opacity:0.7;}</style></defs><g id="plains-components"><g id="plains-grid-obstacle-g"><path class="cls-1" d="M139.76,190.66C48.66,207.86,14.2,26.8,105.25,9.34,196.34-7.86,230.81,173.2,139.76,190.66Z"/><path class="cls-1" d="M116.74,187.25c-52.54,18-81.11-64.34-28.73-82.77C140.54,86.5,169.11,168.82,116.74,187.25Z"/><path class="cls-1" d="M75.13,188.84C12.67,210.22-21.29,112.35,41,90.44,103.43,69.06,137.4,166.93,75.13,188.84Z"/><path class="cls-1" d="M75.77,117.18C11,139.37-24.28,37.82,40.33,15.08,105.13-7.1,140.38,94.45,75.77,117.18Z"/><path class="cls-2" d="M146.45,166.17C98.2,200.69,9.66,75.47,58.29,41.49,106.54,7,195.08,132.2,146.45,166.17Z"/><path class="cls-2" d="M79.77,169.67c-44.71,15.31-69-54.75-24.45-70.44C100,83.93,124.34,154,79.77,169.67Z"/><path class="cls-2" d="M149.4,106.29c-37.5,13-64.28-64.18-26.8-77.22S186.88,93.26,149.4,106.29Z"/></g></g></svg>