<svg xmlns="http://www.w3.org/2000/svg" viewBox="0 0 200 200"><defs><style>.cls-1{fill:#4d4026;}.cls-2{fill:#382f1c;}.cls-3{fill:#54482b;}.cls-4{fill:none;stroke:#826938;stroke-miterlimit:10;stroke-width:10px;}.cls-5{opacity:0.5;}.cls-6{opacity:0.7;}</style></defs><g id="plains-components"><g id="plains-instruction-turn-right"><polygon class="cls-1" points="24.15 22.82 19.7 181.33 57.33 176.3 99.41 183.7 134.37 177.78 176.74 173.04 175.26 16.3 128.74 23.11 82.81 19.26 24.15 22.82"/><polygon class="cls-2" points="24.15 22.82 19.7 181.33 57.33 176.3 99.41 183.7 134.37 177.78 176.74 173.04 175.26 16.3 128.74 23.11 82.81 19.26 24.15 22.82"/><path class="cls-3" d="M65.78,36.37l.6,26.5.45,26.5c.13,8.84.52,17.67.3,26.51s-.52,17.67-1.35,26.5h-.3c-.83-8.83-1.15-17.67-1.35-26.5s.17-17.67.3-26.51l.45-26.5.6-26.5Z"/><path class="cls-3" d="M151.27,167.86c-.24-5.47-.4-10.93-.6-16.4l-.45-16.4c-.13-5.47-.52-10.93-.3-16.4a143.87,143.87,0,0,1,1.35-16.4h.3a143.87,143.87,0,0,1,1.35,16.4c.22,5.47-.17,10.93-.3,16.4l-.45,16.4c-.2,5.47-.36,10.93-.6,16.4Z"/><polyline class="cls-4" points="116.31 110.81 156.09 73.77 116.31 36.37"/><path class="cls-4" d="M151.42,73.59C79.33,66.56,48,101.9,48,156.7"/></g></g></svg>