<svg xmlns="http://www.w3.org/2000/svg" viewBox="0 0 200 200"><defs><style>.cls-1{fill:#382f1c;}.cls-2{fill:none;stroke:#826938;stroke-miterlimit:10;stroke-width:10px;}.cls-3{fill:#826938;}.cls-4{fill:#54482b;}.cls-5{opacity:0.5;}.cls-6{opacity:0.7;}</style></defs><g id="plains-components"><g id="plains-instruction-forward"><path class="cls-1" d="M27.26,19.89,22.81,178.41l37.63-5,42.08,7.41c18.85-3.8,58.06-8.91,77.33-10.67L178.37,13.37l-46.52,6.82C106.31,15.91,53.13,17.11,27.26,19.89Z"/><line class="cls-2" x1="100" y1="159.02" x2="100" y2="48.86"/><polygon class="cls-3" points="140.9 82 133.57 88.82 100.01 52.7 66.44 88.82 59.11 82 100.01 38.02 140.9 82"/><path class="cls-4" d="M148.3,100c.24,5.47.4,10.93.6,16.4l.45,16.4c.13,5.47.52,10.93.3,16.4a143.69,143.69,0,0,1-1.35,16.4H148a143.69,143.69,0,0,1-1.35-16.4c-.22-5.47.17-10.93.3-16.4l.45-16.4c.2-5.47.36-10.93.6-16.4Z"/><path class="cls-4" d="M159.56,30.66l.6,19.25.45,19.24c.13,6.42.52,12.83.3,19.24s-.52,12.83-1.35,19.25h-.3c-.83-6.42-1.15-12.83-1.35-19.25s.17-12.82.3-19.24l.45-19.24.6-19.25Z"/><path class="cls-4" d="M41.33,94.91c-.24-5.46-.4-10.93-.6-16.4l-.45-16.4c-.13-5.47-.52-10.93-.3-16.4a143.87,143.87,0,0,1,1.35-16.4h.3A143.87,143.87,0,0,1,43,45.71c.22,5.47-.17,10.93-.3,16.4l-.45,16.4c-.2,5.47-.36,10.94-.6,16.4Z"/></g></g></svg>