<svg xmlns="http://www.w3.org/2000/svg" viewBox="0 0 200 200"><defs><style>.cls-1{fill:#828282;}.cls-2{fill:#666;}.cls-3{fill:#637d3d;}.cls-4{fill:#63873d;}.cls-5{opacity:0.5;}.cls-6{opacity:0.7;}</style></defs><g id="plains-components"><g id="plains-grid-obstacle-e"><polygon class="cls-1" points="25.51 50.8 40.42 29.68 28.4 11.38 9.33 14.04 25.51 50.8"/><path class="cls-2" d="M26.07,20.71C30.21,36.46,29,35.5,25.51,50.8l-9.11-11L9.33,14Z"/><path class="cls-1" d="M169.7,195c12.87-4.84,11.5-5.94,19.65-16.06l-6.07-14.72Z"/><path class="cls-2" d="M181.09,178.78l-5.67,3.78L169.7,195c-3.23-22.68-3.61-12.78,13.58-30.78Z"/><path class="cls-3" d="M53.48,33.41c80.15-30.73,128.93,94.85,49,126.26C22.37,190.41-26.4,64.83,53.48,33.41Z"/><path class="cls-3" d="M35.08,99.4c57.52-22.06,92.52,68,35.19,90.59C12.76,212.05-22.24,121.94,35.08,99.4Z"/><path class="cls-3" d="M120.78,8.83c68.37-26.22,110,80.91,41.83,107.71C94.24,142.76,52.63,35.63,120.78,8.83Z"/><path class="cls-3" d="M115,96.15c57.51-22.05,92.51,68.06,35.19,90.6C92.67,208.81,57.68,118.69,115,96.15Z"/><path class="cls-4" d="M63.71,54.81c57.38-22,92.29,67.89,35.11,90.38C41.44,167.2,6.52,77.3,63.71,54.81Z"/><path class="cls-4" d="M112.69,32.2c48.95-18.77,78.73,57.92,29.95,77.11C93.69,128.08,63.91,51.39,112.69,32.2Z"/><path class="cls-4" d="M109.21,105c41.17-15.79,66.23,48.72,25.19,64.86C93.23,185.68,68.17,121.17,109.21,105Z"/></g></g></svg>