<svg xmlns="http://www.w3.org/2000/svg" viewBox="0 0 200 200"><defs><style>.cls-1{fill:#637d3d;}.cls-2{fill:#63873d;}.cls-3{opacity:0.5;}.cls-4{opacity:0.7;}</style></defs><g id="plains-components"><g id="plains-grid-obstacle-f"><path class="cls-1" d="M12.12,153.34c-26.71-78,95.57-120.47,122.94-42.67C161.77,188.7,39.49,231.14,12.12,153.34Z"/><path class="cls-1" d="M82.78,161C60,94.57,164.19,58.41,187.51,124.69,210.27,191.16,106.09,227.32,82.78,161Z"/><path class="cls-1" d="M5.68,83.46C-18.54,12.69,92.35-25.8,117.18,44.76,141.4,115.53,30.5,154,5.68,83.46Z"/><path class="cls-1" d="M123.68,54.07C109.25,11.92,175.29-11,190.08,31,204.5,73.16,138.46,96.08,123.68,54.07Z"/><path class="cls-2" d="M25.93,146.54C6.22,89,96.44,57.66,116.64,115.06,136.34,172.63,46.12,203.94,25.93,146.54Z"/><path class="cls-2" d="M142.82,47.42C135.23,25.26,170,13.2,177.74,35.3,185.33,57.47,150.59,69.52,142.82,47.42Z"/><path class="cls-2" d="M29.69,86.7C14.34,41.85,84.61,17.46,100.34,62.17,115.69,107,45.42,131.4,29.69,86.7Z"/><path class="cls-2" d="M92.8,149.75c-15.35-44.84,54.92-69.23,70.65-24.52C178.8,170.07,108.53,194.46,92.8,149.75Z"/></g></g></svg>