<svg xmlns="http://www.w3.org/2000/svg" viewBox="0 0 1920 1080"><defs><style>.cls-1{fill:#607e80;}.cls-2{fill:#68898a;}.cls-3{fill:#858270;}.cls-4{fill:#a19f93;}.cls-5{fill:#87867c;}.cls-6{fill:#9c9d9e;}.cls-7{fill:#838485;}.cls-8{fill:#774600;}.cls-9{fill:#6e7a34;}</style></defs><g id="river-crossing"><g id="water"><rect id="base" class="cls-1" x="281.42" y="-50" width="1600" height="1180"/><g id="water-middle"><polygon class="cls-2" points="1060.14 65.35 1029.71 241.66 1053.84 399.19 1081.12 167.51 1060.14 65.35"/><polygon class="cls-2" points="1297.52 759.71 1275.22 847.87 1292.91 926.63 1312.91 873.08 1297.52 759.71"/><polygon class="cls-2" points="1461.14 663.17 1488.24 517.76 1466.75 387.83 1442.45 578.91 1461.14 663.17"/><polygon class="cls-2" points="860.39 263.36 838.08 189.74 855.77 123.95 875.77 168.68 860.39 263.36"/><polygon class="cls-2" points="823.02 378.27 842.52 513.46 816.9 632.31 801.93 455.15 823.02 378.27"/><polygon class="cls-2" points="1306.56 168.54 1284.25 94.92 1301.94 29.13 1321.94 73.86 1306.56 168.54"/><polygon class="cls-2" points="1593.2 162.66 1612.7 297.84 1587.08 416.69 1572.11 239.53 1593.2 162.66"/><polygon class="cls-2" points="1556.73 1115.25 1534.42 1041.62 1552.11 975.84 1572.11 1020.57 1556.73 1115.25"/><polygon class="cls-2" points="943.8 812.96 967.55 919.12 991.31 658.54 967.55 492.86 943.8 812.96"/><polygon class="cls-2" points="1217.2 309.5 1235.06 523.86 1208.83 725.31 1187.72 519.67 1204.29 421.16 1190.8 296.05 1217.28 106.76 1217.2 309.5"/></g></g><g id="ground"><path class="cls-3" d="M-50-50H649.21L631.43,74.88,664.12,187l9,143.29S626.42,414.05,623.43,426s-17.18,167.7-17.18,167.7l16.08,132.13L579.05,888.51l62.68,111.94L601.43,1130H-50Z"/><polygon class="cls-3" points="1970 -50 1970 1130 1756.27 1130 1745.82 1018.36 1714.48 924.33 1727.91 816.87 1689.1 727.31 1702.54 481.05 1775.67 392.99 1854.78 252.69 1842.84 109.4 1829.55 -50 1970 -50"/></g><g id="rocks"><path class="cls-4" d="M580.54,846.51l59.32,75-6.59,79.89-78.68,11S530.36,903.18,528,900.18,580.54,846.51,580.54,846.51Z"/><path class="cls-4" d="M726.32,120.13S737.25,98.42,736.52,95,702,62.14,702,62.14l-15.2,44.46,30.63,28.93Z"/><polygon class="cls-4" points="1721.67 109.07 1691.31 193.78 1706.49 257.64 1695.39 323.24 1753.92 332.37 1796.11 261.56 1807.45 188.57 1782.95 116.89 1767.82 89.09 1743.93 81.7 1721.67 109.07"/><polygon class="cls-5" points="1747.19 186.4 1721.67 109.07 1691.31 193.78 1706.49 257.64 1695.39 323.24 1736.22 249.82 1734.86 215.05 1747.19 186.4"/><path class="cls-4" d="M685.92,138.75l.82,25.23,20.19,6.17s3.4-22.76,2-23-19-18.13-19-18.13Z"/><polygon class="cls-4" points="1804.56 867.38 1789.74 901.15 1818.48 939.38 1839.82 913.3 1817 858.19 1804.56 867.38"/><polygon class="cls-4" points="1687.66 852.02 1671.56 911.03 1706.97 972.72 1760.08 988.28 1776.17 958.24 1779.93 871.34 1747.2 817.69 1687.66 852.02"/><polygon class="cls-5" points="1714.08 900.84 1687.66 852.02 1671.56 911.03 1706.97 972.72 1714.08 900.84"/><polygon class="cls-5" points="586.2 920.45 554.59 1012.44 525.76 895.07 580.54 846.51 586.2 920.45"/><polygon class="cls-4" points="684.61 343.31 667.57 353.51 668.26 379.26 685.76 374.47 692.94 343.16 684.61 343.31"/><polygon class="cls-4" points="692.94 237.91 664.8 260.98 660.71 303.09 681.1 328.94 699.26 319.92 716.55 275.98 721.58 250.79 692.94 237.91"/><polygon class="cls-5" points="697.59 254.64 692.94 237.91 664.8 260.98 660.71 303.09 697.59 254.64"/><path class="cls-4" d="M1836.36,314l47,24.1,15,41.63-37,23.52s-37.17-49.32-39.07-50.27S1836.36,314,1836.36,314Z"/><polygon class="cls-5" points="1849.65 326.61 1861.29 403.25 1819.95 350.91 1836.36 314 1849.65 326.61"/><polygon class="cls-6" points="640.83 170.38 615.07 210.11 631.1 249.39 665.81 209.09 665.81 170.38 640.83 170.38"/><polygon class="cls-6" points="711.07 971.38 701.97 1078.9 620.47 1098.25 580.18 1015.76 668.02 954.71 711.07 971.38"/><polygon class="cls-7" points="668.02 954.71 670.99 1012.44 620.47 1098.25 580.18 1015.76 668.02 954.71"/><polygon class="cls-6" points="1828.91 959.95 1834.11 1067.73 1755.88 1097.69 1705.04 1021.25 1784.04 949.12 1828.91 959.95"/><polygon class="cls-7" points="1784.04 949.12 1794.61 1005.95 1755.88 1097.69 1705.04 1021.25 1784.04 949.12"/><polygon class="cls-6" points="1891.29 215.53 1912.68 250.63 1883.46 314 1826.87 278.51 1857.68 207.03 1891.29 215.53"/><polygon class="cls-7" points="1857.68 207.03 1853.89 259.21 1883.46 314 1826.87 278.51 1857.68 207.03"/><polygon class="cls-6" points="640.44 -13.8 662.62 113.31 604.69 175.24 537.83 112.4 581.1 0.22 640.44 -13.8"/><polygon class="cls-7" points="581.1 0.22 626.47 87.73 604.69 175.24 537.83 112.4 581.1 0.22"/></g><g id="posts"><circle class="cls-8" cx="1749.38" cy="732.92" r="26.93"/><circle class="cls-8" cx="1749.38" cy="519.77" r="26.93"/><circle class="cls-8" cx="1734.93" cy="626.34" r="12.49"/><circle class="cls-8" cx="555.88" cy="732.92" r="26.93"/><circle class="cls-8" cx="555.88" cy="519.77" r="26.93"/><circle class="cls-8" cx="570.32" cy="626.34" r="12.49"/></g><g id="ground-detail"><polygon class="cls-9" points="14.48 644.65 48.77 713.32 44.33 765.32 33.21 785.99 24.32 815.32 1.44 857.99 -5.99 812.19 -21.91 776.04 2.4 635.76 14.48 644.65"/><polygon class="cls-9" points="-15.96 849.7 25.35 886.99 36.11 922.4 44.23 974.09 58.47 980.48 104.37 1037.97 211.81 1102.13 -11.86 1113.49 -15.96 849.7"/></g></g></svg>