<svg xmlns="http://www.w3.org/2000/svg" viewBox="0 0 1920 3240"><defs><style>.cls-1{fill:#607e80;}.cls-2{opacity:0.3;}.cls-3{fill:none;stroke:#4d443d;stroke-linecap:round;stroke-width:10px;}.cls-4{opacity:0.5;}.cls-5{fill:#648485;}.cls-6{opacity:0.7;}.cls-7{fill:#68898a;}.cls-8{fill:#858270;}.cls-9{fill:#a19f93;}.cls-10{fill:#87867c;}.cls-11{fill:#9c9d9e;}.cls-12{fill:#838485;}.cls-13{fill:#774600;}.cls-14{fill:#6e7a34;}</style></defs><g id="river-crossing"><g id="water"><rect id="base" class="cls-1" x="281.42" y="-50" width="1600" height="1180"/><g id="eels"><g id="rc-eel" class="cls-2"><path class="cls-3" d="M1675.21,0c0,32.4-62,32.4-62,64.8s62,32.4,62,64.8-62,32.4-62,64.8,62,32.39,62,64.79-62,32.4-62,64.8,62,32.39,62,64.79-62,32.4-62,64.8,62,32.4,62,64.79-62,32.4-62,64.8,62,32.4,62,64.8-62,32.4-62,64.79,62,32.4,62,64.8-62,32.4-62,64.8,62,32.4,62,64.8-62,32.4-62,64.8,62,32.4,62,64.79-62,32.4-62,64.8,62,32.4,62,64.8-62,32.4-62,64.8,62,32.4,62,64.8-62,32.4-62,64.8,62,32.4,62,64.8-62,32.4-62,64.8,62,32.4,62,64.8-62,32.4-62,64.8,62,32.4,62,64.8-62,32.4-62,64.8,62,32.4,62,64.8-62,32.4-62,64.8,62,32.4,62,64.8-62,32.4-62,64.8,62,32.4,62,64.8-62,32.4-62,64.8,62,32.4,62,64.8-62,32.4-62,64.8,62,32.4,62,64.8-62,32.4-62,64.8,62,32.4,62,64.8-62,32.4-62,64.8,62,32.4,62,64.8-62,32.4-62,64.8,62,32.4,62,64.81-62,32.4-62,64.8,62,32.4,62,64.8-62,32.41-62,64.81,62,32.4,62,64.8-62,32.4-62,64.8,62,32.41,62,64.81-62,32.41-62,64.81,62,32.4,62,64.81"/></g></g><g id="water-middle" class="cls-4"><path class="cls-5" d="M918.89,62.14,826.33,368c16.87,234.07,9.31,238.64,121,449.71l154.55-258.37-84.24-465Z"/><path class="cls-5" d="M1412.49,524.66l-34.14,317.71L1445,1080l95-235L1526.6,659.65C1506.79,627.16,1438.87,553.32,1412.49,524.66Z"/><path class="cls-5" d="M1558.31,0c-94.15,268.46-76.79,216,14.69,474.67l30.45-248.19Z"/><polygon class="cls-5" points="1160.56 673.04 1054.9 879.32 1117.89 1046.43 1210.92 817.69 1160.56 673.04"/><path class="cls-5" d="M709.27,630.47,665.81,778l25.34,232.7s74.17-54,72.68-61.57S809,746.88,809,746.88L786.4,392.21l-49-69Z"/><path class="cls-5" d="M1265.44,49.1c-65.84,261.61-55.2,278.17-16,538.67l83.06-83.56,71.4-243.7L1375.55,10Z"/><path class="cls-5" d="M918.89,2222.14,826.33,2528c16.87,234.07,9.31,238.64,121,449.71l154.55-258.37-84.24-465Z"/><path class="cls-5" d="M1412.49,2684.66l-34.14,317.71L1445,3240l95-235-13.35-185.36C1506.79,2787.16,1438.87,2713.32,1412.49,2684.66Z"/><path class="cls-5" d="M1558.31,2160c-94.15,268.46-76.79,216,14.69,474.67l30.45-248.19Z"/><polygon class="cls-5" points="1160.56 2833.04 1054.9 3039.32 1117.89 3206.43 1210.92 2977.69 1160.56 2833.04"/><path class="cls-5" d="M709.27,2790.47,665.81,2938l25.34,232.7s74.17-54,72.68-61.57S809,2906.88,809,2906.88L786.4,2552.21l-49-69Z"/><path class="cls-5" d="M1265.44,2209.1c-65.84,261.61-55.2,278.17-16,538.67l83.06-83.56,71.4-243.7L1375.55,2170Z"/><path class="cls-5" d="M879.67,1130l-79.82,202.65C852,1481.21,911.59,1690.1,947.34,1842.88l40.77-28.46,44.45-152.88c41.15-281,45.41-286.77-28.45-563.29Z"/><path class="cls-5" d="M724.35,1570c-42.83,162.45-30.83,134.6,12.21,290.66l-90.94,160.72L679.15,2130l211.29-28.61,28.45-211.92-136.63-418.9Z"/><path class="cls-5" d="M1132.91,1660.65c2.39-143.22,41.84-333,50.94-461.33l213-25,27,186.59s-104.48,270.23-125.66,287.67-58.92,240.91-58.92,240.91Z"/><polygon class="cls-5" points="1034.69 1842.88 964.11 2032.82 994.61 2101.39 1132.91 2129.99 1183.85 1961.99 1101.89 1743.32 1034.69 1842.88"/><path class="cls-5" d="M1432.24,1546.92c-51.48,305.88-92.22,255.9,44.76,554.46L1667.24,1994l-46.88-232-73-184-45.11-217.11Z"/><path class="cls-5" d="M1620.36,1174.29l-77.88,138.62,100.45,203.74c17.69,78.2,62.12,253.22,92,326.23L1789.74,1714V1465.38l-67.3-266.06Z"/></g><g id="water-top" class="cls-6"><path class="cls-7" d="M1031.05,2196c-36.08,165.8-44.84,162.34-7.54,332l32.67-230.38Z"/><path class="cls-7" d="M1315.35,2886.46c-27.47,92.73-33.86,70.79-5.53,166l24-53.26Z"/><path class="cls-7" d="M1511.31,2790.47c32.4-140.21,40.18-130.25,6.71-273.79l-29.09,190Z"/><path class="cls-7" d="M791.82,2392.91c-27.84-80.57-34.26-55.77-5.53-138.62l24,44.47Z"/><path class="cls-7" d="M747.07,2507.18c23.76,131.93,31.25,121-7.33,252.6l-17.93-176.16Z"/><path class="cls-7" d="M1326.18,2298.63c-27.85-80.57-34.27-55.78-5.53-138.63l23.95,44.48Z"/><path class="cls-7" d="M1669.47,2292.77c23.76,131.93,31.25,121-7.34,252.61l-17.92-176.17Z"/><path class="cls-7" d="M1625.79,3240c-27.85-80.57-34.27-55.78-5.53-138.63l24,44.48Z"/><polygon class="cls-7" points="891.72 2939.42 920.17 3044.97 948.62 2785.86 920.17 2621.11 891.72 2939.42"/><polygon class="cls-7" points="1219.16 2438.79 1240.54 2651.94 1209.13 2852.26 1183.85 2647.77 1203.69 2549.82 1187.54 2425.41 1219.25 2237.19 1219.16 2438.79"/><path class="cls-7" d="M1029.77,36c-36.08,165.8-44.84,162.34-7.54,332L1054.9,137.6Z"/><path class="cls-7" d="M1314.07,726.46c-27.47,92.73-33.86,70.79-5.53,166l24-53.26Z"/><path class="cls-7" d="M1510,630.47c32.4-140.21,40.18-130.25,6.71-273.79l-29.09,190Z"/><path class="cls-7" d="M790.54,232.91C762.7,152.34,756.28,177.14,785,94.29l24,44.47Z"/><path class="cls-7" d="M745.79,347.18c23.76,131.93,31.25,121-7.33,252.6L720.53,423.62Z"/><path class="cls-7" d="M1324.9,138.63c-27.85-80.57-34.27-55.78-5.53-138.63l24,44.48Z"/><path class="cls-7" d="M1668.19,132.77c23.76,131.93,31.25,121-7.34,252.61l-17.92-176.17Z"/><path class="cls-7" d="M1624.51,1080c-27.85-80.57-34.27-55.78-5.53-138.63l24,44.48Z"/><polygon class="cls-7" points="890.44 779.42 918.89 884.97 947.34 625.86 918.89 461.12 890.44 779.42"/><polygon class="cls-7" points="1217.88 278.79 1239.26 491.94 1207.85 692.26 1182.57 487.77 1202.41 389.82 1186.26 265.41 1217.97 77.19 1217.88 278.79"/><path class="cls-7" d="M989,1299.4c36.08,165.8,44.83,162.34,7.54,332L963.82,1401Z"/><path class="cls-7" d="M1707.53,1360.88c27.47,92.73,33.87,70.79,5.53,166l-24-53.26Z"/><path class="cls-7" d="M832.3,1814.42c-32.4-140.2-40.18-130.24-6.71-273.79l29.09,190Z"/><path class="cls-7" d="M1576.74,1312.91c27.84-80.57,34.26-55.77,5.52-138.62l-24,44.47Z"/><path class="cls-7" d="M1045.57,1780.21c-23.75,131.93-31.24,121,7.34,252.61l17.92-176.17Z"/><path class="cls-7" d="M1042.38,1218.63c27.85-80.57,34.27-55.78,5.53-138.63l-24,44.48Z"/><path class="cls-7" d="M699.09,1212.77c-23.76,131.93-31.25,121,7.34,252.61l17.92-176.17Z"/><path class="cls-7" d="M742.77,2160c27.85-80.57,34.27-55.78,5.53-138.63l-23.95,44.48Z"/><polygon class="cls-7" points="1268.99 1995.83 1240.54 2101.39 1212.09 1842.27 1240.54 1677.53 1268.99 1995.83"/><polygon class="cls-7" points="1396.93 1337.94 1375.55 1551.09 1406.96 1751.41 1432.24 1546.92 1412.4 1448.97 1428.55 1324.56 1396.84 1136.34 1396.93 1337.94"/><path class="cls-7" d="M1536,1648.55c21.85,168.45,30.47,165.65-21.09,331.47l-12.72-232Z"/></g></g><g id="ground-2" data-name="ground"><path class="cls-8" d="M-50-50H649.21L631.43,74.88,664.12,187l9,143.29S626.42,414.05,623.43,426s-17.18,167.7-17.18,167.7C631.54,744,616,748.05,579,888.51c79.89,140.84,67.78,88.14,22.39,241.49H-50Z"/><path class="cls-8" d="M1970-50V1130H1756.27l-10.45-111.64-31.34-94,13.43-107.46-38.81-89.56L1702.54,481,1775.67,393l79.11-140.3c-6.25-75-19-227.4-25.23-302.69Z"/></g><g id="rocks"><path class="cls-9" d="M580.54,846.51c62.68,85.29,63.65,46.51,52.73,154.93l-78.68,11S530.36,903.18,528,900.18,580.54,846.51,580.54,846.51Z"/><path class="cls-9" d="M726.32,120.13S737.25,98.42,736.52,95,702,62.14,702,62.14l-15.2,44.46,30.63,28.93Z"/><path class="cls-9" d="M1721.67,109.07l-30.37,84.71c17.36,66.48,16.77,62.25,4.09,129.46l58.53,9.13c40.84-66.94,43.88-64.44,53.53-143.8L1783,116.89l-15.13-27.8-23.89-7.39Z"/><path class="cls-10" d="M1747.2,186.4l-25.53-77.33-30.37,84.71c17.36,66.48,16.77,62.25,4.09,129.46l40.83-73.41C1734.71,215.21,1732.17,218.58,1747.2,186.4Z"/><path class="cls-9" d="M685.92,138.75l.82,25.23,20.19,6.17c4.94-31.19,2.34-19.35-17-41.17Z"/><path class="cls-9" d="M1804.56,867.37c-21.25,48.16-17.4,25.51,13.92,72l21.33-26.07L1817,858.19Z"/><polygon class="cls-9" points="1687.66 852.02 1671.56 911.03 1706.97 972.72 1760.08 988.28 1776.17 958.24 1779.93 871.34 1747.2 817.69 1687.66 852.02"/><path class="cls-10" d="M1714.08,900.84,1687.66,852c-23,79.32-18.08,50.1,19.31,120.7Z"/><polygon class="cls-10" points="586.2 920.45 554.59 1012.44 525.76 895.07 580.54 846.51 586.2 920.45"/><path class="cls-9" d="M684.61,343.31c-24.34,14.51-15.59,5.77-16.34,35.95l17.49-4.79,7.18-31.31Z"/><path class="cls-9" d="M692.94,237.92,664.8,261l-4.09,42.11,20.39,25.85,18.16-9c6.55-15.46,21.19-52.51,22.32-69.13Z"/><path class="cls-10" d="M697.59,254.64l-4.65-16.72c-38.46,30.54-26,18.06-32.23,65.17Z"/><path class="cls-9" d="M1836.36,314c51,28.48,42.6,8.79,61.92,65.73l-37,23.52s-37.17-49.32-39.07-50.27S1836.36,314,1836.36,314Z"/><polygon class="cls-10" points="1849.65 326.61 1861.29 403.25 1819.95 350.91 1836.36 314 1849.65 326.61"/><path class="cls-11" d="M640.83,170.38c-28.64,48-31.6,26-9.73,79l34.71-40.3V170.38Z"/><polygon class="cls-11" points="711.07 971.38 701.97 1078.9 620.47 1098.25 580.18 1015.76 668.02 954.71 711.07 971.38"/><polygon class="cls-12" points="668.02 954.71 670.99 1012.44 620.47 1098.25 580.18 1015.76 668.02 954.71"/><polygon class="cls-11" points="1828.91 959.95 1834.11 1067.73 1755.88 1097.69 1705.04 1021.25 1784.04 949.12 1828.91 959.95"/><polygon class="cls-12" points="1784.04 949.12 1794.61 1005.95 1755.88 1097.69 1705.04 1021.25 1784.04 949.12"/><polygon class="cls-11" points="1891.29 215.53 1912.68 250.63 1883.46 314 1826.87 278.51 1857.68 207.03 1891.29 215.53"/><path class="cls-12" d="M1857.68,207c-6.8,66.08-3.51,50.35,25.78,107l-56.59-35.49Z"/><polygon class="cls-11" points="640.44 -13.8 662.62 113.31 604.69 175.24 537.83 112.4 581.1 0.22 640.44 -13.8"/><path class="cls-12" d="M581.1.22c49.94,99.88,52.73,64.7,23.59,175L537.82,112.4Z"/></g><g id="posts"><path class="cls-13" d="M1776.31,732.92c-.16,35.23-53.71,35.22-53.87,0C1722.6,697.7,1776.16,697.7,1776.31,732.92Z"/><path class="cls-13" d="M1776.31,519.77c-.16,35.22-53.71,35.22-53.87,0C1722.6,484.54,1776.16,484.54,1776.31,519.77Z"/><path class="cls-13" d="M1747.42,626.34c.24,16.21-25.21,16.21-25,0C1722.21,610.14,1747.66,610.14,1747.42,626.34Z"/><path class="cls-13" d="M582.81,732.92c-.16,35.23-53.71,35.22-53.87,0C529.1,697.7,582.66,697.7,582.81,732.92Z"/><path class="cls-13" d="M582.81,519.77c-.16,35.22-53.71,35.22-53.87,0C529.1,484.54,582.66,484.54,582.81,519.77Z"/><path class="cls-13" d="M582.81,626.34c.24,16.21-25.22,16.21-25,0C557.6,610.14,583.05,610.14,582.81,626.34Z"/></g><g id="ground-detail"><polygon class="cls-14" points="14.48 644.65 48.77 713.32 44.33 765.32 33.21 785.99 24.32 815.32 1.44 857.99 -5.99 812.19 -21.91 776.04 2.4 635.76 14.48 644.65"/><path class="cls-14" d="M-16,849.7,25.35,887c8,20,16.34,65.51,18.88,87.1l14.24,6.38,45.9,57.5,107.44,64.17L-11.86,1113.5Z"/></g></g></svg>