<svg xmlns="http://www.w3.org/2000/svg" viewBox="0 0 1920 1080"><defs><style>.cls-1{opacity:0.5;}.cls-2{opacity:0.7;}.cls-3{fill:#607e80;}.cls-4{fill:#648485;}.cls-5{fill:#68898a;}.cls-6{fill:#858270;}.cls-12,.cls-13,.cls-7,.cls-9{fill:none;stroke-miterlimit:10;}.cls-7{stroke:#858257;stroke-width:182.75px;}.cls-8{fill:#774600;}.cls-9{stroke:#c96;stroke-width:3px;}.cls-10{fill:#65892b;}.cls-11{fill:#708b40;}.cls-12,.cls-13{stroke:#cdcfde;}.cls-12{stroke-width:70px;}.cls-13{stroke-width:48px;}.cls-14{fill:#5f8b40;}.cls-15{fill:#779c32;}.cls-16{fill:#7f8f1e;}.cls-17{fill:#779c22;}.cls-18{fill:#4f503f;}.cls-19{fill:#3f4032;}.cls-20{fill:#82984d;}.cls-21{fill:#6b8031;}</style></defs><g id="before-river"><g id="water-2" data-name="water"><rect id="base" class="cls-3" x="-197" y="359.22" width="2265.12" height="592.09"/><polygon class="cls-4" points="-70.47 705.18 309.25 741.75 614.53 733.32 867.61 693.94 546.82 632.87 -30.56 666.15 -70.47 705.18"/><polygon class="cls-4" points="1298.18 665.44 1692.64 678.93 1987.68 652.6 1695.92 615.07 1465.78 620.35 1406.92 634.11 1298.18 665.44"/><polygon class="cls-4" points="115.97 530.19 431.33 551.74 784.77 536.52 681.03 503.7 378.46 475.49 67.41 486.69 115.97 530.19"/><polygon class="cls-5" points="615.07 601.79 876.63 618.94 1110.34 605.34 951.44 589.96 615.07 601.79"/><polygon class="cls-5" points="1314.64 729.43 1445.7 718.19 1123.99 706.94 919.44 718.19 1314.64 729.43"/><polygon class="cls-5" points="1272.35 507.08 1537.35 481.02 1785.88 502.9 1531.6 532.18 1410.12 517.46 1255.41 535.97 1021.91 513.43 1272.35 507.08"/></g><g id="ground-3" data-name="ground"><polygon class="cls-6" points="-186.78 -62.11 2057.9 -50 2057.9 433.32 1845.53 437.24 1666.66 449.02 1462.23 443.97 1291.88 458.55 823.41 453.5 655.9 426.03 389.01 396.31 116.45 400.79 -186.78 405.79 -186.78 -62.11"/><path class="cls-6" d="M-50,1138.05V770l213.77,9.35,192-17.2L601,757.44S744.38,782,764.82,783.58s287.09,9,287.09,9l226.19-8.46,278.5,22.78,191.62-33L1970,795.15v342.9Z"/><path class="cls-7" d="M1051.91,792.62c0,91.26,120.9,203,81,358.71"/><path class="cls-7" d="M993.33-99.44c0,91.25,18,394.2,14,550.18"/></g><g id="bridge"><path class="cls-8" d="M889.46,245.05a144.75,144.75,0,0,1,12.15,11.89l1.4,1.5,1.32,1.5,2.65,3c1.67,2,3.37,4,5,6.05a2.61,2.61,0,0,1,.46,1.58,13.39,13.39,0,0,1-.24,1.65,5.93,5.93,0,0,0,0,1.63l.15,1.61.59,6.45,1.18,12.89,4.7,51.59,9.42,103.16-39.83,3.64L879,350l-4.71-51.58-1.18-12.9-.58-6.45-.15-1.61a6,6,0,0,0-.3-1.6,15.25,15.25,0,0,1-.53-1.57,2.62,2.62,0,0,1,.17-1.64c1.21-2.28,2.51-4.57,3.79-6.85l2.06-3.44,1-1.72,1.1-1.72A146.84,146.84,0,0,1,889.46,245.05Z"/><path class="cls-8" d="M1139.71,244.71a146.84,146.84,0,0,1,9.8,13.9l1.1,1.73,1,1.72,2.06,3.44c1.28,2.28,2.58,4.57,3.79,6.84a2.62,2.62,0,0,1,.17,1.64,14.65,14.65,0,0,1-.53,1.58,6,6,0,0,0-.3,1.6l-.14,1.61-.59,6.45-1.18,12.9-4.71,51.58-9.42,103.17L1101,449.23l9.42-103.17,4.71-51.58,1.17-12.9.59-6.44.15-1.62a5.86,5.86,0,0,0,0-1.62,13.67,13.67,0,0,1-.24-1.65,2.61,2.61,0,0,1,.46-1.58c1.6-2,3.3-4,5-6.05l2.65-3,1.32-1.5,1.4-1.5A144.82,144.82,0,0,1,1139.71,244.71Z"/><path class="cls-8" d="M1015,397.55a197.05,197.05,0,0,1,20.23,6.78c.32.14.4.29.34.43a2.17,2.17,0,0,1-.39.43.47.47,0,0,0-.14.43v5.59l.07,13.75.12,27.5-40,.18-.12-27.5L995,411.39V405.8a.52.52,0,0,0-.15-.43c-.13-.14-.33-.28-.39-.42s0-.29.33-.44A200.11,200.11,0,0,1,1015,397.55Z"/><path class="cls-8" d="M874.33,522.89a213.89,213.89,0,0,1,17.8,17.42c5.38,5.86,10.53,11.74,15.14,17.66a3.91,3.91,0,0,1,.68,2.32,22.21,22.21,0,0,1-.35,2.41,8.25,8.25,0,0,0,0,2.38l.21,2.37.87,9.44,1.72,18.89,6.89,75.54,13.8,151.09-58.34,5.33L859,676.65l-6.9-75.55-1.72-18.89-.87-9.44-.21-2.36a8.25,8.25,0,0,0-.43-2.34,20.25,20.25,0,0,1-.78-2.31,3.87,3.87,0,0,1,.24-2.4c3.47-6.67,7.46-13.38,11.69-20.11A214,214,0,0,1,874.33,522.89Z"/><path class="cls-8" d="M1240.83,522.4a212.4,212.4,0,0,1,14.36,20.36c4.22,6.73,8.22,13.44,11.69,20.11a3.87,3.87,0,0,1,.24,2.4,22.41,22.41,0,0,1-.78,2.31,8.25,8.25,0,0,0-.43,2.34l-.22,2.36-.86,9.45-1.72,18.88-6.9,75.55-13.79,151.09-58.34-5.33,13.79-151.09,6.9-75.54,1.72-18.89.87-9.44.21-2.36a8.62,8.62,0,0,0,0-2.38,22.76,22.76,0,0,1-.35-2.42,3.84,3.84,0,0,1,.68-2.32c4.61-5.92,9.76-11.8,15.14-17.66A213.72,213.72,0,0,1,1240.83,522.4Z"/><path class="cls-8" d="M1058.13,746.23l2.28.62,2.09.62,4.19,1.24,7.56,2.48,1.89.63,1.73.62,3.47,1.24,3.26,1.24c1.06.42,2.21.83,3.19,1.25.41.21.58.41.47.63a3.61,3.61,0,0,1-.57.63.74.74,0,0,0-.21.63v3.14l0,5,.09,20.14.18,40.27-58.58.27-.18-40.28-.1-20.14,0-5v-3.15a.72.72,0,0,0-.22-.62,3.69,3.69,0,0,1-.58-.63c-.1-.21.06-.42.47-.63,1-.43,2.12-.85,3.18-1.28l3.25-1.27,3.45-1.27,1.73-.64,1.88-.64,7.54-2.55,4.18-1.28,2.09-.64Z"/><path class="cls-9" d="M1134,307.7s12.72,179.51,81.36,196.18,120.74,9.33,170.19,20"/><line class="cls-9" x1="1112.46" y1="308.05" x2="1154.46" y2="310.05"/><line class="cls-9" x1="995.46" y1="414.05" x2="1035.46" y2="416.05"/><line class="cls-9" x1="874.46" y1="304.05" x2="914.46" y2="298.05"/><path class="cls-9" d="M884,301.05s-9.5,60,5.5,82"/><path class="cls-9" d="M1027,436.33s4.5-11.06,0-22.67"/><line class="cls-9" x1="849.83" y1="587.78" x2="909.83" y2="594.78"/><line class="cls-9" x1="1026.87" y1="774.78" x2="1088.83" y2="774.78"/><line class="cls-9" x1="1202.83" y1="594.78" x2="1262.83" y2="590.78"/><path class="cls-9" d="M1263.33,610.28s-.33,106.34,40.84,111.17"/><path class="cls-9" d="M1087.27,774.78s-7.84,36.47,36.06,40"/></g><g id="plants"><path class="cls-10" d="M1594.91,878.51l-7.81-.34-3.92-.16c-1.3,0-2.61,0-3.92,0l-7.88.16c-2.62.09-5.25.39-7.89.58l-4,.35c-1.32.09-2.62.37-3.94.54l-7.89,1.21c-5.2,1.19-10.48,2.18-15.62,3.85-2.59.76-5.19,1.48-7.73,2.45l-3.85,1.34c-1.29.46-2.6.86-3.84,1.43l-7.59,3.18-7.4,3.72c-2.42,1.35-4.76,2.85-7.11,4.33a20,20,0,0,0-1.72,1.17l-1.67,1.25c-1.11.84-2.23,1.67-3.31,2.54s-2.12,1.8-3.15,2.74l-1.86,1.72a221.59,221.59,0,0,1,14.3-23.53,99.73,99.73,0,0,1,10-12.13c.93-.93,1.83-1.89,2.82-2.76s1.9-1.83,2.94-2.63,2-1.69,3.09-2.46,2.12-1.59,3.2-2.34a99.61,99.61,0,0,1,29.08-13.45,134.92,134.92,0,0,1,32.76-5.18,205.63,205.63,0,0,1,34,1.38c2.84.39,5.7.72,8.54,1.14s5.69.9,8.53,1.41,5.68,1,8.52,1.61l8.49,1.83.67-2.16c-21.73-8.49-44.65-14.78-68.63-16.5a148.33,148.33,0,0,0-36.34,1.85,116.22,116.22,0,0,0-35.13,12.7A122,122,0,0,0,1479.82,873a98.09,98.09,0,0,0-11.39,15.29,101.9,101.9,0,0,0-5.47,10.52c-1-5.9-2-11.79-2.85-17.69q-1.72-12.14-3.87-24.23t-5.07-24.09c-1.93-8-4.08-15.94-6.7-23.77s-5.66-15.59-10-22.68l-2,1a93.87,93.87,0,0,1,3.11,11.53l.61,2.92c.2,1,.34,2,.52,3,.33,2,.67,3.93.91,5.92q1.64,11.86,2.43,23.87c1.11,16,1.66,32,2.09,48.08.09,3.7.05,7.4,0,11.11-.18-.27-.35-.55-.54-.82A156.85,156.85,0,0,0,1421.89,870a115.24,115.24,0,0,0-24-18,120.83,120.83,0,0,0-13.49-6.36,132.81,132.81,0,0,0-14.07-4.49c-19.07-4.66-38.55-4.63-57.11-1.57l.16,2.25c18.58.51,37,3.3,53.48,10.07a106.37,106.37,0,0,1,41.83,30.45,102.35,102.35,0,0,1,13.59,21.92q2.94,6.16,5.79,12.36c-.67-.68-1.39-1.31-2.12-1.93-.88-.77-1.8-1.5-2.69-2.25s-1.82-1.46-2.73-2.19-1.93-1.34-2.89-2c-2-1.27-3.92-2.58-5.91-3.79l-6.17-3.34c-.52-.28-1-.57-1.54-.83l-1.59-.73-3.17-1.47c-1.06-.49-2.1-1-3.16-1.47l-3.23-1.29a111.42,111.42,0,0,0-26.54-7.29,121.16,121.16,0,0,0-27-.63,134.84,134.84,0,0,0-26,5,119,119,0,0,0-24.18,9.95l1,2.05a110.57,110.57,0,0,1,12.23-3.1c4.12-.86,8.27-1.52,12.42-2a133.43,133.43,0,0,1,24.76-.64,118,118,0,0,1,23.85,4.05,103.4,103.4,0,0,1,21.87,8.92,84.07,84.07,0,0,1,18.56,14.08c.7.67,1.45,1.26,2.11,2s1.35,1.4,2,2.08,1.37,1.36,2.08,2,1.41,1.32,2.07,2c1.34,1.41,2.71,2.78,4.13,4.12l1.07,1,1,1.06,2,2.12,2.1,2.09c.71.69,1.44,1.37,2.09,2.13,1.37,1.45,2.7,2.94,4.12,4.39.7.72,1.43,1.43,2.11,2.18s1.34,1.53,2,2.3c1.34,1.53,2.75,3.05,4.18,4.56s2.72,3.15,4.15,4.71,2.85,3.14,4.34,4.71a128.83,128.83,0,0,0,8.94,9.51.36.36,0,0,1,0,.09h.06l0,0,.08,0h2.08c.1-.24.18-.49.27-.73a233.93,233.93,0,0,1,16.54-24,184,184,0,0,1,19-20.68c6.79-6.21,13.75-12,21.14-17.58A105.81,105.81,0,0,1,1538,901.81c4.36-1.92,9-3.23,13.53-4.76l7-1.83c1.17-.28,2.33-.67,3.52-.87l3.58-.7c2.39-.45,4.77-1,7.19-1.39l7.28-1c1.22-.16,2.43-.37,3.66-.5l3.68-.31,7.4-.63c2.47-.19,5-.19,7.44-.3s5-.2,7.47-.22c5,.12,10,.15,15,.34s10,.58,15.08,1l15.1,1.55.47-2.21A279.46,279.46,0,0,0,1594.91,878.51Z"/><ellipse class="cls-11" cx="1212.8" cy="137.86" rx="205.5" ry="184.73"/><ellipse class="cls-11" cx="1472.03" cy="16.19" rx="205.5" ry="184.73"/><line class="cls-12" x1="1595.2" y1="-115.26" x2="1728.2" y2="959.74"/><line class="cls-13" x1="1636.2" y1="213.74" x2="1902.2" y2="83.74"/><line class="cls-13" x1="1684.2" y1="606.74" x2="1386.2" y2="385.74"/><ellipse class="cls-14" cx="1916.76" cy="87.91" rx="116.5" ry="68.83"/><ellipse class="cls-14" cx="1355.76" cy="390.91" rx="116.5" ry="59.83"/><ellipse class="cls-15" cx="461.25" cy="-2.12" rx="267.62" ry="202.81"/><line class="cls-12" x1="338.57" y1="-108.38" x2="205.57" y2="966.62"/><line class="cls-13" x1="297.57" y1="220.62" x2="31.57" y2="90.62"/><line class="cls-13" x1="249.57" y1="613.62" x2="547.57" y2="392.62"/><ellipse class="cls-14" cx="17.01" cy="94.78" rx="116.5" ry="68.83"/><ellipse class="cls-14" cx="578.01" cy="397.78" rx="116.5" ry="59.83"/><ellipse class="cls-16" cx="64.71" cy="33.36" rx="266.97" ry="202.81"/><ellipse class="cls-17" cx="851.29" cy="26.65" rx="209.67" ry="202.81"/><ellipse class="cls-15" cx="1791.52" cy="81.46" rx="205.5" ry="172.06"/><ellipse class="cls-11" cx="2000.01" cy="159.86" rx="205.5" ry="184.73"/><ellipse class="cls-16" cx="426.09" cy="261.59" rx="267.62" ry="202.81"/><ellipse class="cls-16" cx="686.81" cy="116.32" rx="205.5" ry="184.73"/><ellipse class="cls-16" cx="1963.52" cy="284.97" rx="205.5" ry="184.73"/><ellipse class="cls-15" cx="64.71" cy="359.22" rx="185.58" ry="202.81"/><ellipse class="cls-15" cx="1610.52" cy="273.61" rx="205.5" ry="184.73"/><ellipse class="cls-11" cx="118.75" cy="209.81" rx="151.72" ry="162.06"/><polygon class="cls-18" points="1391.29 969.78 1510.87 913.48 1621.65 883.89 1759.92 891.72 1877.25 955.22 1948.53 1097.77 1643.92 1125.22 1389.25 1075.24 1391.29 969.78"/><polygon class="cls-19" points="2049.25 1075.24 1948.53 1097.77 1868.63 958.96 1759.92 891.72 1944.75 961.36 2049.25 1075.24"/><path class="cls-20" d="M474.82,907.13c-65.4-19.3-141.48-21.38-200.7,16.54,23.48-45.63,72.43-69.94,122.76-69.62,30.06-1,60.81,4.18,90.15,11.13-68.51-48.12-202-41.07-247.61,45.23-4.21-25.89-16.59-134.16-38-140.9,10.62,43.75,7.38,89.58,7.43,134.28C173,849.17,104.8,822.12,41.49,834.27c-1.14,5.76,5.62,3.25,9.38,4.29,57.24,3.93,114,36.66,133.23,92.32-50-38.88-121.48-44.21-177-14,112.7-9.25,129.06,11,204.28,95,5.07,4.07,32.16-9.16,40.42-18.73,31.44-33.39,67.68-65,113.8-74.21,22-5.15,45.25-6.84,67.85-6.82C448.45,910.85,529.24,923.61,474.82,907.13Z"/><path class="cls-21" d="M476.92,988.42c-34.08-9.1-66.62-1.72-81.67,28.37,22-44,40.19-61.72,95-44.14l.3-.83c-38.77-18.77-88.18-10.11-101.89,35.17-3.33-25.16-4.48-51.36-14.55-75l-.82.35c6.75,25.46,6.3,52.36,6.74,78.54-11.84-30.57-40.76-51.54-74.16-45.65l.07.89c35.08-1.93,58.92,22.05,67.74,54.32C356,995.8,320,988.58,294.12,1004.36l.42.78c23-9.77,52.08-4.9,67.51,15.64a233.14,233.14,0,0,1,15.05,19.75c3,5,3.35,4.73,11,4.42,27-33.72,57.55-68.11,104.69-49.49l.36-.81A78.11,78.11,0,0,0,476.92,988.42Z"/></g></g></svg>