<svg xmlns="http://www.w3.org/2000/svg" viewBox="0 0 1920 1080"><defs><style>.cls-1{fill:#8a8553;}.cls-10,.cls-11,.cls-13,.cls-14,.cls-15,.cls-16,.cls-17,.cls-18,.cls-2,.cls-20,.cls-21,.cls-23,.cls-3,.cls-4,.cls-5,.cls-6,.cls-8{fill:none;}.cls-2{stroke:#7d794b;stroke-width:50px;}.cls-10,.cls-11,.cls-13,.cls-14,.cls-15,.cls-16,.cls-17,.cls-18,.cls-19,.cls-2,.cls-20,.cls-21,.cls-23,.cls-3,.cls-4,.cls-5,.cls-6,.cls-8,.cls-9{stroke-miterlimit:10;}.cls-10,.cls-11,.cls-14,.cls-15,.cls-16,.cls-17,.cls-18,.cls-19,.cls-20,.cls-21,.cls-3,.cls-4,.cls-5,.cls-6,.cls-8,.cls-9{stroke:#d69d43;}.cls-3{stroke-width:6.72px;}.cls-4{stroke-width:3.96px;}.cls-5{stroke-width:2.9px;}.cls-6{stroke-width:5.48px;}.cls-7{fill:#3e391e;}.cls-8{stroke-width:11.7px;}.cls-19,.cls-9{fill:#231f20;}.cls-10,.cls-9{stroke-width:9.9px;}.cls-11{stroke-width:10.92px;}.cls-12{fill:#918c57;}.cls-13{stroke:#878250;stroke-width:100px;}.cls-14{stroke-width:11.56px;}.cls-15{stroke-width:6.81px;}.cls-16{stroke-width:4.98px;}.cls-17{stroke-width:9.43px;}.cls-18{stroke-width:20.13px;}.cls-19,.cls-20{stroke-width:17.02px;}.cls-21{stroke-width:18.78px;}.cls-22{fill:#9b944e;}.cls-23{stroke:#948e4b;stroke-width:150px;}.cls-24{opacity:0.5;}.cls-25{opacity:0.7;}</style></defs><g id="before-plains"><g id="plain-3"><polygon class="cls-1" points="1967.83 378.56 -62.84 332.43 -62.84 -50.71 1957.16 -43.77 1967.83 378.56"/><path class="cls-2" d="M1277.56-117c31,183.46-873.38,308.26-891.15,502.59"/><line class="cls-3" x1="642.51" y1="102.51" x2="624.6" y2="134.83"/><line class="cls-3" x1="633.98" y1="81.46" x2="622.91" y2="135.49"/><line class="cls-3" x1="647.59" y1="115.56" x2="625.87" y2="135.59"/><line class="cls-3" x1="618.78" y1="133.2" x2="619.53" y2="90.99"/><line class="cls-3" x1="618.78" y1="133.2" x2="604.91" y2="72.6"/><line class="cls-3" x1="618.78" y1="133.2" x2="602.83" y2="104.74"/><line class="cls-3" x1="618.78" y1="133.2" x2="598.01" y2="118.18"/><line class="cls-4" x1="268.97" y1="20.81" x2="279.51" y2="39.84"/><line class="cls-4" x1="273.98" y1="8.41" x2="280.51" y2="40.23"/><line class="cls-4" x1="265.97" y1="28.5" x2="278.76" y2="40.29"/><line class="cls-4" x1="282.94" y1="38.88" x2="282.5" y2="14.02"/><line class="cls-4" x1="282.94" y1="38.88" x2="291.11" y2="3.19"/><line class="cls-4" x1="282.94" y1="38.88" x2="292.33" y2="22.12"/><line class="cls-4" x1="282.94" y1="38.88" x2="295.17" y2="30.04"/><line class="cls-4" x1="450.53" y1="47.11" x2="461.08" y2="66.15"/><line class="cls-4" x1="455.55" y1="34.71" x2="462.07" y2="66.54"/><line class="cls-4" x1="447.54" y1="54.8" x2="460.33" y2="66.6"/><line class="cls-4" x1="464.51" y1="65.19" x2="464.07" y2="40.33"/><line class="cls-4" x1="464.51" y1="65.19" x2="472.68" y2="29.49"/><line class="cls-4" x1="464.51" y1="65.19" x2="473.9" y2="48.43"/><line class="cls-4" x1="464.51" y1="65.19" x2="476.74" y2="56.34"/><line class="cls-3" x1="131.92" y1="93.34" x2="114.01" y2="125.66"/><line class="cls-3" x1="123.39" y1="72.29" x2="112.32" y2="126.32"/><line class="cls-3" x1="137" y1="106.4" x2="115.28" y2="126.42"/><line class="cls-3" x1="108.19" y1="124.03" x2="108.94" y2="81.82"/><line class="cls-3" x1="108.19" y1="124.03" x2="94.32" y2="63.43"/><line class="cls-3" x1="108.19" y1="124.03" x2="92.24" y2="95.57"/><line class="cls-3" x1="108.19" y1="124.03" x2="87.42" y2="109.01"/><line class="cls-4" x1="183.93" y1="47.29" x2="173.39" y2="66.33"/><line class="cls-4" x1="178.92" y1="34.9" x2="172.39" y2="66.72"/><line class="cls-4" x1="186.93" y1="54.99" x2="174.14" y2="66.78"/><line class="cls-4" x1="169.96" y1="65.37" x2="170.4" y2="40.51"/><line class="cls-4" x1="169.96" y1="65.37" x2="161.79" y2="29.68"/><line class="cls-4" x1="169.96" y1="65.37" x2="160.57" y2="48.61"/><line class="cls-4" x1="169.96" y1="65.37" x2="157.73" y2="56.52"/><line class="cls-5" x1="366.59" y1="83.8" x2="374.3" y2="97.72"/><line class="cls-5" x1="370.26" y1="74.73" x2="375.03" y2="98.01"/><line class="cls-5" x1="364.4" y1="89.42" x2="373.76" y2="98.05"/><line class="cls-5" x1="376.81" y1="97.02" x2="376.49" y2="78.84"/><line class="cls-5" x1="376.81" y1="97.02" x2="382.79" y2="70.91"/><line class="cls-5" x1="376.81" y1="97.02" x2="383.68" y2="84.76"/><line class="cls-5" x1="376.81" y1="97.02" x2="385.76" y2="90.55"/><line class="cls-3" x1="1083.76" y1="128.82" x2="1065.85" y2="161.14"/><line class="cls-3" x1="1075.23" y1="107.77" x2="1064.16" y2="161.8"/><line class="cls-3" x1="1088.84" y1="141.87" x2="1067.12" y2="161.9"/><line class="cls-3" x1="1060.03" y1="159.51" x2="1060.78" y2="117.3"/><line class="cls-3" x1="1060.03" y1="159.51" x2="1046.16" y2="98.91"/><line class="cls-3" x1="1060.03" y1="159.51" x2="1044.08" y2="131.05"/><line class="cls-3" x1="1060.03" y1="159.51" x2="1039.26" y2="144.49"/><line class="cls-6" x1="843.26" y1="103.77" x2="857.86" y2="130.14"/><line class="cls-6" x1="850.21" y1="86.6" x2="859.24" y2="130.67"/><line class="cls-6" x1="839.11" y1="114.42" x2="856.82" y2="130.75"/><line class="cls-6" x1="862.61" y1="128.81" x2="861.99" y2="94.38"/><line class="cls-6" x1="862.61" y1="128.81" x2="873.92" y2="79.38"/><line class="cls-6" x1="862.61" y1="128.81" x2="875.62" y2="105.59"/><line class="cls-6" x1="862.61" y1="128.81" x2="879.55" y2="116.55"/><line class="cls-5" x1="1073.84" y1="70.76" x2="1081.55" y2="84.68"/><line class="cls-5" x1="1077.51" y1="61.69" x2="1082.28" y2="84.97"/><line class="cls-5" x1="1071.65" y1="76.38" x2="1081" y2="85.01"/><line class="cls-5" x1="1084.06" y1="83.98" x2="1083.73" y2="65.8"/><line class="cls-5" x1="1084.06" y1="83.98" x2="1090.03" y2="57.87"/><line class="cls-5" x1="1084.06" y1="83.98" x2="1090.93" y2="71.72"/><line class="cls-5" x1="1084.06" y1="83.98" x2="1093" y2="77.51"/><line class="cls-3" x1="1018.69" y1="244.12" x2="1036.59" y2="276.44"/><line class="cls-3" x1="1027.21" y1="223.07" x2="1038.28" y2="277.1"/><line class="cls-3" x1="1013.6" y1="257.18" x2="1035.32" y2="277.2"/><line class="cls-3" x1="1042.41" y1="274.81" x2="1041.66" y2="232.6"/><line class="cls-3" x1="1042.41" y1="274.81" x2="1056.28" y2="214.21"/><line class="cls-3" x1="1042.41" y1="274.81" x2="1058.36" y2="246.35"/><line class="cls-3" x1="1042.41" y1="274.81" x2="1063.18" y2="259.79"/><line class="cls-5" x1="935.38" y1="49.6" x2="943.09" y2="63.52"/><line class="cls-5" x1="939.05" y1="40.53" x2="943.82" y2="63.81"/><line class="cls-5" x1="933.19" y1="55.22" x2="942.55" y2="63.85"/><line class="cls-5" x1="945.6" y1="62.82" x2="945.28" y2="44.64"/><line class="cls-5" x1="945.6" y1="62.82" x2="951.58" y2="36.71"/><line class="cls-5" x1="945.6" y1="62.82" x2="952.47" y2="50.56"/><line class="cls-5" x1="945.6" y1="62.82" x2="954.55" y2="56.35"/><ellipse class="cls-7" cx="472.34" cy="193.25" rx="18.89" ry="10.32" transform="translate(-3.93 9.9) rotate(-1.2)"/><ellipse class="cls-7" cx="487.33" cy="191.05" rx="23.54" ry="14.11" transform="matrix(1, -0.02, 0.02, 1, -3.12, 8.17)"/><ellipse class="cls-7" cx="166.51" cy="129.78" rx="18.89" ry="10.32" transform="translate(-2.67 3.5) rotate(-1.2)"/><ellipse class="cls-7" cx="181.5" cy="127.58" rx="23.54" ry="14.11" transform="matrix(1, -0.02, 0.02, 1, -2.11, 3.05)"/><ellipse class="cls-7" cx="1213.9" cy="73.81" rx="18.89" ry="10.32" transform="translate(-1.28 25.34) rotate(-1.2)"/><ellipse class="cls-7" cx="1194.02" cy="72.79" rx="23.54" ry="14.11" transform="translate(-1.05 19.96) rotate(-0.96)"/><ellipse class="cls-7" cx="855.2" cy="215.25" rx="18.89" ry="10.32" transform="translate(-4.3 17.89) rotate(-1.2)"/><ellipse class="cls-7" cx="970.98" cy="76.6" rx="18.89" ry="10.32" transform="translate(-1.39 20.27) rotate(-1.2)"/><ellipse class="cls-7" cx="985.97" cy="74.4" rx="23.54" ry="14.11" transform="translate(-1.11 16.48) rotate(-0.96)"/><line class="cls-5" x1="995.05" y1="76.85" x2="1002.76" y2="90.78"/><line class="cls-5" x1="998.72" y1="67.78" x2="1003.49" y2="91.06"/><line class="cls-5" x1="992.86" y1="82.48" x2="1002.21" y2="91.1"/><line class="cls-5" x1="1005.27" y1="90.07" x2="1004.94" y2="71.89"/><line class="cls-5" x1="1005.27" y1="90.07" x2="1011.24" y2="63.97"/><line class="cls-5" x1="1005.27" y1="90.07" x2="1012.14" y2="77.81"/><line class="cls-5" x1="1005.27" y1="90.07" x2="1014.22" y2="83.6"/><line class="cls-8" x1="294.07" y1="268.04" x2="324.05" y2="322.17"/><line class="cls-8" x1="308.34" y1="232.79" x2="326.88" y2="323.28"/><line class="cls-8" x1="285.56" y1="289.91" x2="321.93" y2="323.45"/><line class="cls-8" x1="333.81" y1="319.45" x2="332.54" y2="248.75"/><line class="cls-8" x1="333.81" y1="319.45" x2="357.03" y2="217.95"/><line class="cls-8" x1="333.81" y1="319.45" x2="360.51" y2="271.78"/><line class="cls-8" x1="333.81" y1="319.45" x2="368.59" y2="294.29"/><line class="cls-4" x1="1348.87" y1="151.09" x2="1338.32" y2="170.13"/><line class="cls-4" x1="1343.85" y1="138.69" x2="1337.33" y2="170.52"/><line class="cls-4" x1="1351.86" y1="158.78" x2="1339.07" y2="170.58"/><line class="cls-4" x1="1334.89" y1="169.17" x2="1335.34" y2="144.31"/><line class="cls-4" x1="1334.89" y1="169.17" x2="1326.72" y2="133.47"/><line class="cls-4" x1="1334.89" y1="169.17" x2="1325.5" y2="152.41"/><line class="cls-4" x1="1334.89" y1="169.17" x2="1322.66" y2="160.32"/><line class="cls-4" x1="1507.41" y1="177.4" x2="1517.95" y2="196.44"/><line class="cls-4" x1="1512.43" y1="165" x2="1518.95" y2="196.83"/><line class="cls-4" x1="1504.41" y1="185.09" x2="1517.21" y2="196.89"/><line class="cls-4" x1="1521.38" y1="195.48" x2="1520.94" y2="170.61"/><line class="cls-4" x1="1521.38" y1="195.48" x2="1529.55" y2="159.78"/><line class="cls-4" x1="1521.38" y1="195.48" x2="1530.78" y2="178.71"/><line class="cls-4" x1="1521.38" y1="195.48" x2="1533.62" y2="186.63"/><line class="cls-3" x1="1149.7" y1="223.63" x2="1167.6" y2="255.95"/><line class="cls-3" x1="1158.22" y1="202.58" x2="1169.29" y2="256.61"/><line class="cls-3" x1="1144.61" y1="236.68" x2="1166.33" y2="256.71"/><line class="cls-3" x1="1173.42" y1="254.32" x2="1172.67" y2="212.11"/><line class="cls-3" x1="1173.42" y1="254.32" x2="1187.29" y2="193.72"/><line class="cls-3" x1="1173.42" y1="254.32" x2="1189.37" y2="225.86"/><line class="cls-3" x1="1173.42" y1="254.32" x2="1194.19" y2="239.3"/><line class="cls-4" x1="1454.69" y1="52.01" x2="1465.24" y2="71.05"/><line class="cls-4" x1="1459.71" y1="39.61" x2="1466.23" y2="71.43"/><line class="cls-4" x1="1451.7" y1="59.7" x2="1464.49" y2="71.49"/><line class="cls-4" x1="1468.67" y1="70.09" x2="1468.23" y2="45.22"/><line class="cls-4" x1="1468.67" y1="70.09" x2="1476.84" y2="34.39"/><line class="cls-4" x1="1468.67" y1="70.09" x2="1478.06" y2="53.32"/><line class="cls-4" x1="1468.67" y1="70.09" x2="1480.9" y2="61.24"/><line class="cls-5" x1="1425.9" y1="111.95" x2="1433.61" y2="125.88"/><line class="cls-5" x1="1429.57" y1="102.89" x2="1434.34" y2="126.16"/><line class="cls-5" x1="1423.71" y1="117.58" x2="1433.07" y2="126.21"/><line class="cls-5" x1="1436.12" y1="125.18" x2="1435.8" y2="106.99"/><line class="cls-5" x1="1436.12" y1="125.18" x2="1442.1" y2="99.07"/><line class="cls-5" x1="1436.12" y1="125.18" x2="1442.99" y2="112.92"/><line class="cls-5" x1="1436.12" y1="125.18" x2="1445.07" y2="118.71"/><ellipse class="cls-7" cx="1300.69" cy="204.31" rx="18.89" ry="10.32" transform="translate(-3.98 27.18) rotate(-1.2)"/><ellipse class="cls-7" cx="1315.68" cy="202.12" rx="23.54" ry="14.11" transform="translate(-3.19 22.01) rotate(-0.96)"/><ellipse class="cls-7" cx="1300.6" cy="238.64" rx="18.89" ry="10.32" transform="translate(-4.7 27.18) rotate(-1.2)"/><ellipse class="cls-7" cx="1315.59" cy="236.45" rx="23.54" ry="14.11" transform="translate(-3.77 22.01) rotate(-0.96)"/><line class="cls-3" x1="641.08" y1="240.55" x2="660.98" y2="276.49"/><line class="cls-3" x1="650.55" y1="217.15" x2="662.86" y2="277.22"/><line class="cls-3" x1="635.42" y1="255.07" x2="659.57" y2="277.33"/><line class="cls-3" x1="667.45" y1="274.68" x2="666.62" y2="227.75"/><line class="cls-3" x1="667.45" y1="274.68" x2="682.87" y2="207.3"/><line class="cls-3" x1="667.45" y1="274.68" x2="685.18" y2="243.04"/><line class="cls-3" x1="667.45" y1="274.68" x2="690.54" y2="257.98"/><line class="cls-9" x1="777.66" y1="121.72" x2="747.87" y2="175.51"/><line class="cls-9" x1="763.48" y1="86.69" x2="745.06" y2="176.61"/><line class="cls-9" x1="786.12" y1="143.45" x2="749.98" y2="176.78"/><line class="cls-9" x1="738.17" y1="172.8" x2="739.43" y2="102.55"/><line class="cls-9" x1="738.17" y1="172.8" x2="715.09" y2="71.94"/><line class="cls-9" x1="738.17" y1="172.8" x2="711.63" y2="125.44"/><line class="cls-9" x1="738.17" y1="172.8" x2="703.61" y2="147.8"/><line class="cls-10" x1="126.64" y1="235.89" x2="152" y2="281.67"/><line class="cls-10" x1="138.71" y1="206.08" x2="154.39" y2="282.61"/><line class="cls-10" x1="119.44" y1="254.39" x2="150.2" y2="282.75"/><line class="cls-10" x1="160.25" y1="279.37" x2="159.18" y2="219.58"/><line class="cls-10" x1="160.25" y1="279.37" x2="179.89" y2="193.53"/><line class="cls-10" x1="160.25" y1="279.37" x2="182.83" y2="239.06"/><line class="cls-10" x1="160.25" y1="279.37" x2="189.66" y2="258.09"/><line class="cls-11" x1="1579.12" y1="304.1" x2="1608.2" y2="356.61"/><line class="cls-11" x1="1592.96" y1="269.91" x2="1610.95" y2="357.68"/><line class="cls-11" x1="1570.86" y1="325.32" x2="1606.14" y2="357.85"/><line class="cls-11" x1="1617.66" y1="353.97" x2="1616.44" y2="285.39"/><line class="cls-11" x1="1617.66" y1="353.97" x2="1640.19" y2="255.51"/><line class="cls-11" x1="1617.66" y1="353.97" x2="1643.57" y2="307.73"/><line class="cls-11" x1="1617.66" y1="353.97" x2="1651.41" y2="329.56"/><ellipse class="cls-7" cx="1766.44" cy="136.75" rx="33.73" ry="18.43" transform="translate(-2.47 36.88) rotate(-1.2)"/><ellipse class="cls-7" cx="1793.21" cy="132.83" rx="42.03" ry="25.2" transform="translate(-1.97 29.97) rotate(-0.96)"/></g><g id="plain-2"><polygon class="cls-12" points="-50 714.36 1970 779.02 1970 55.41 -50 326.06 -50 714.36"/><path class="cls-13" d="M809.26,210.93c31,183.47,651.91,426.32,634.14,620.65"/><line class="cls-14" x1="1564.07" y1="388.14" x2="1594.86" y2="443.73"/><line class="cls-14" x1="1578.73" y1="351.94" x2="1597.77" y2="444.86"/><line class="cls-14" x1="1555.33" y1="410.6" x2="1592.68" y2="445.03"/><line class="cls-14" x1="1604.88" y1="440.93" x2="1603.58" y2="368.33"/><line class="cls-14" x1="1604.88" y1="440.93" x2="1628.73" y2="336.7"/><line class="cls-14" x1="1604.88" y1="440.93" x2="1632.3" y2="391.98"/><line class="cls-14" x1="1604.88" y1="440.93" x2="1640.59" y2="415.09"/><line class="cls-15" x1="1644.02" y1="165.44" x2="1625.88" y2="198.18"/><line class="cls-15" x1="1635.39" y1="144.12" x2="1624.17" y2="198.85"/><line class="cls-15" x1="1649.17" y1="178.67" x2="1627.17" y2="198.95"/><line class="cls-15" x1="1619.98" y1="196.53" x2="1620.75" y2="153.77"/><line class="cls-15" x1="1619.98" y1="196.53" x2="1605.93" y2="135.14"/><line class="cls-15" x1="1619.98" y1="196.53" x2="1603.83" y2="167.7"/><line class="cls-15" x1="1619.98" y1="196.53" x2="1598.94" y2="181.31"/><line class="cls-15" x1="1331.75" y1="210.68" x2="1313.62" y2="243.43"/><line class="cls-15" x1="1323.12" y1="189.36" x2="1311.91" y2="244.09"/><line class="cls-15" x1="1336.91" y1="223.91" x2="1314.9" y2="244.2"/><line class="cls-15" x1="1307.72" y1="241.78" x2="1308.48" y2="199.01"/><line class="cls-15" x1="1307.72" y1="241.78" x2="1293.67" y2="180.38"/><line class="cls-15" x1="1307.72" y1="241.78" x2="1291.56" y2="212.94"/><line class="cls-15" x1="1307.72" y1="241.78" x2="1286.68" y2="226.56"/><line class="cls-14" x1="1879.72" y1="290.19" x2="1910.51" y2="345.77"/><line class="cls-14" x1="1894.37" y1="253.99" x2="1913.41" y2="346.91"/><line class="cls-14" x1="1870.98" y1="312.64" x2="1908.33" y2="347.08"/><line class="cls-14" x1="1920.52" y1="342.97" x2="1919.23" y2="270.38"/><line class="cls-14" x1="1920.52" y1="342.97" x2="1944.37" y2="238.75"/><line class="cls-14" x1="1920.52" y1="342.97" x2="1947.95" y2="294.03"/><line class="cls-14" x1="1920.52" y1="342.97" x2="1956.24" y2="317.14"/><line class="cls-15" x1="1784.75" y1="101.33" x2="1802.89" y2="134.07"/><line class="cls-15" x1="1793.39" y1="80.01" x2="1804.6" y2="134.74"/><line class="cls-15" x1="1779.6" y1="114.56" x2="1801.6" y2="134.84"/><line class="cls-15" x1="1808.79" y1="132.42" x2="1808.02" y2="89.66"/><line class="cls-15" x1="1808.79" y1="132.42" x2="1822.84" y2="71.03"/><line class="cls-15" x1="1808.79" y1="132.42" x2="1824.94" y2="103.59"/><line class="cls-15" x1="1808.79" y1="132.42" x2="1829.83" y2="117.2"/><line class="cls-16" x1="1476.12" y1="273.78" x2="1462.86" y2="297.72"/><line class="cls-16" x1="1469.81" y1="258.18" x2="1461.6" y2="298.21"/><line class="cls-16" x1="1479.89" y1="283.45" x2="1463.8" y2="298.29"/><line class="cls-16" x1="1458.54" y1="296.52" x2="1459.1" y2="265.24"/><line class="cls-16" x1="1458.54" y1="296.52" x2="1448.27" y2="251.61"/><line class="cls-16" x1="1458.54" y1="296.52" x2="1446.73" y2="275.43"/><line class="cls-16" x1="1458.54" y1="296.52" x2="1443.15" y2="285.39"/><line class="cls-14" x1="747.16" y1="346.88" x2="777.95" y2="402.47"/><line class="cls-14" x1="761.82" y1="310.68" x2="780.86" y2="403.6"/><line class="cls-14" x1="738.42" y1="369.34" x2="775.77" y2="403.78"/><line class="cls-14" x1="787.97" y1="399.67" x2="786.67" y2="327.08"/><line class="cls-14" x1="787.97" y1="399.67" x2="811.82" y2="295.44"/><line class="cls-14" x1="787.97" y1="399.67" x2="815.39" y2="350.72"/><line class="cls-14" x1="787.97" y1="399.67" x2="823.68" y2="373.83"/><line class="cls-17" x1="1160.78" y1="303.81" x2="1135.67" y2="349.15"/><line class="cls-17" x1="1148.82" y1="274.29" x2="1133.3" y2="350.08"/><line class="cls-17" x1="1167.91" y1="322.13" x2="1137.44" y2="350.22"/><line class="cls-17" x1="1127.5" y1="346.87" x2="1128.55" y2="287.66"/><line class="cls-17" x1="1127.5" y1="346.87" x2="1108.04" y2="261.86"/><line class="cls-17" x1="1127.5" y1="346.87" x2="1105.13" y2="306.94"/><line class="cls-17" x1="1127.5" y1="346.87" x2="1098.36" y2="325.79"/><line class="cls-16" x1="764.22" y1="247.03" x2="750.96" y2="270.98"/><line class="cls-16" x1="757.91" y1="231.44" x2="749.71" y2="271.47"/><line class="cls-16" x1="767.99" y1="256.71" x2="751.9" y2="271.54"/><line class="cls-16" x1="746.64" y1="269.77" x2="747.2" y2="238.5"/><line class="cls-16" x1="746.64" y1="269.77" x2="736.37" y2="224.87"/><line class="cls-16" x1="746.64" y1="269.77" x2="734.83" y2="248.69"/><line class="cls-16" x1="746.64" y1="269.77" x2="731.26" y2="258.64"/><line class="cls-14" x1="859.07" y1="545.18" x2="828.28" y2="600.77"/><line class="cls-14" x1="844.42" y1="508.98" x2="825.38" y2="601.9"/><line class="cls-14" x1="867.82" y1="567.64" x2="830.47" y2="602.07"/><line class="cls-14" x1="818.27" y1="597.97" x2="819.56" y2="525.37"/><line class="cls-14" x1="818.27" y1="597.97" x2="794.42" y2="493.74"/><line class="cls-14" x1="818.27" y1="597.97" x2="790.84" y2="549.02"/><line class="cls-14" x1="818.27" y1="597.97" x2="782.55" y2="572.13"/><line class="cls-16" x1="1002.34" y1="210.64" x2="989.07" y2="234.59"/><line class="cls-16" x1="996.03" y1="195.05" x2="987.82" y2="235.08"/><line class="cls-16" x1="1006.11" y1="220.32" x2="990.01" y2="235.15"/><line class="cls-16" x1="984.76" y1="233.38" x2="985.32" y2="202.11"/><line class="cls-16" x1="984.76" y1="233.38" x2="974.48" y2="188.48"/><line class="cls-16" x1="984.76" y1="233.38" x2="972.94" y2="212.3"/><line class="cls-16" x1="984.76" y1="233.38" x2="969.37" y2="222.25"/><ellipse class="cls-7" cx="1687.27" cy="256.97" rx="17.75" ry="32.49" transform="translate(1395.16 1938.51) rotate(-88.8)"/><ellipse class="cls-7" cx="1661.49" cy="253.19" rx="24.27" ry="40.49" transform="translate(1380.58 1910.22) rotate(-89.04)"/><ellipse class="cls-7" cx="1820.22" cy="352.85" rx="17.75" ry="32.49" transform="translate(1429.47 2165.32) rotate(-88.8)"/><ellipse class="cls-7" cx="1794.44" cy="349.08" rx="24.27" ry="40.49" transform="translate(1415.43 2137.43) rotate(-89.04)"/><ellipse class="cls-7" cx="839.03" cy="468.8" rx="17.75" ry="32.49" transform="translate(352.83 1297.87) rotate(-88.8)"/><ellipse class="cls-7" cx="873.21" cy="467.04" rx="24.27" ry="40.49" transform="translate(391.65 1332.32) rotate(-89.04)"/><ellipse class="cls-7" cx="1241.99" cy="419.44" rx="17.75" ry="32.49" transform="translate(796.74 1652.41) rotate(-88.8)"/><ellipse class="cls-7" cx="941.12" cy="257.08" rx="17.75" ry="32.49" transform="translate(664.46 1192.63) rotate(-88.8)"/><ellipse class="cls-7" cx="915.33" cy="253.3" rx="24.27" ry="40.49" transform="translate(646.77 1164.28) rotate(-89.04)"/><line class="cls-16" x1="1011.31" y1="284.8" x2="998.05" y2="308.75"/><line class="cls-16" x1="1005" y1="269.2" x2="996.8" y2="309.23"/><line class="cls-16" x1="1015.08" y1="294.47" x2="998.99" y2="309.31"/><line class="cls-16" x1="993.74" y1="307.54" x2="994.29" y2="276.27"/><line class="cls-16" x1="993.74" y1="307.54" x2="983.46" y2="262.64"/><line class="cls-16" x1="993.74" y1="307.54" x2="981.92" y2="286.45"/><line class="cls-16" x1="993.74" y1="307.54" x2="978.35" y2="296.41"/><line class="cls-18" x1="1600.84" y1="590.64" x2="1549.28" y2="683.74"/><line class="cls-18" x1="1576.3" y1="530.02" x2="1544.41" y2="685.64"/><line class="cls-18" x1="1615.49" y1="628.25" x2="1552.93" y2="685.93"/><line class="cls-18" x1="1532.51" y1="679.05" x2="1534.68" y2="557.47"/><line class="cls-18" x1="1532.51" y1="679.05" x2="1492.56" y2="504.49"/><line class="cls-18" x1="1532.51" y1="679.05" x2="1486.57" y2="597.07"/><line class="cls-18" x1="1532.51" y1="679.05" x2="1472.68" y2="635.78"/><line class="cls-15" x1="291.21" y1="385.19" x2="309.35" y2="417.94"/><line class="cls-15" x1="299.85" y1="363.87" x2="311.06" y2="418.6"/><line class="cls-15" x1="286.06" y1="398.42" x2="308.06" y2="418.71"/><line class="cls-15" x1="315.25" y1="416.29" x2="314.49" y2="373.53"/><line class="cls-15" x1="315.25" y1="416.29" x2="329.3" y2="354.89"/><line class="cls-15" x1="315.25" y1="416.29" x2="331.4" y2="387.46"/><line class="cls-15" x1="315.25" y1="416.29" x2="336.29" y2="401.07"/><line class="cls-15" x1="18.55" y1="430.44" x2="0.42" y2="463.18"/><line class="cls-15" x1="9.92" y1="409.11" x2="-1.29" y2="463.85"/><line class="cls-15" x1="23.71" y1="443.66" x2="1.7" y2="463.95"/><line class="cls-14" x1="633.75" y1="509.94" x2="602.97" y2="565.53"/><line class="cls-14" x1="619.1" y1="473.74" x2="600.06" y2="566.66"/><line class="cls-14" x1="642.5" y1="532.4" x2="605.15" y2="566.83"/><line class="cls-14" x1="592.95" y1="562.72" x2="594.25" y2="490.13"/><line class="cls-14" x1="592.95" y1="562.72" x2="569.1" y2="458.5"/><line class="cls-14" x1="592.95" y1="562.72" x2="565.53" y2="513.78"/><line class="cls-14" x1="592.95" y1="562.72" x2="557.23" y2="536.89"/><line class="cls-15" x1="511.16" y1="321.08" x2="493.02" y2="353.83"/><line class="cls-15" x1="502.53" y1="299.76" x2="491.31" y2="354.49"/><line class="cls-15" x1="516.31" y1="334.31" x2="494.31" y2="354.6"/><line class="cls-15" x1="487.12" y1="352.18" x2="487.89" y2="309.41"/><line class="cls-15" x1="487.12" y1="352.18" x2="473.07" y2="290.78"/><line class="cls-15" x1="487.12" y1="352.18" x2="470.97" y2="323.34"/><line class="cls-15" x1="487.12" y1="352.18" x2="466.08" y2="336.96"/><line class="cls-16" x1="158.73" y1="317.88" x2="145.47" y2="341.83"/><line class="cls-16" x1="152.42" y1="302.29" x2="144.22" y2="342.32"/><line class="cls-16" x1="162.5" y1="327.56" x2="146.41" y2="342.39"/><line class="cls-16" x1="141.16" y1="340.63" x2="141.71" y2="309.35"/><line class="cls-16" x1="141.16" y1="340.63" x2="130.88" y2="295.72"/><line class="cls-16" x1="141.16" y1="340.63" x2="129.34" y2="319.54"/><line class="cls-16" x1="141.16" y1="340.63" x2="125.77" y2="329.49"/><ellipse class="cls-7" cx="374.07" cy="476.72" rx="17.75" ry="32.49" transform="translate(-110.35 840.77) rotate(-88.8)"/><ellipse class="cls-7" cx="348.29" cy="472.95" rx="24.27" ry="40.49" transform="translate(-130.41 813.28) rotate(-89.04)"/><ellipse class="cls-7" cx="507.02" cy="572.61" rx="17.75" ry="32.49" transform="translate(-76.04 1067.58) rotate(-88.8)"/><ellipse class="cls-7" cx="481.24" cy="568.83" rx="24.27" ry="40.49" transform="translate(-95.55 1040.5) rotate(-89.04)"/><line class="cls-14" x1="1377.23" y1="460.83" x2="1343" y2="522.64"/><line class="cls-14" x1="1360.94" y1="420.59" x2="1339.77" y2="523.89"/><line class="cls-14" x1="1386.95" y1="485.8" x2="1345.43" y2="524.09"/><line class="cls-14" x1="1331.87" y1="519.52" x2="1333.31" y2="438.81"/><line class="cls-14" x1="1331.87" y1="519.52" x2="1305.35" y2="403.65"/><line class="cls-14" x1="1331.87" y1="519.52" x2="1301.38" y2="465.1"/><line class="cls-14" x1="1331.87" y1="519.52" x2="1292.16" y2="490.8"/><line class="cls-19" x1="992.95" y1="592.92" x2="1044.18" y2="685.43"/><line class="cls-19" x1="1017.33" y1="532.67" x2="1049.02" y2="687.31"/><line class="cls-19" x1="978.39" y1="630.29" x2="1040.55" y2="687.6"/><line class="cls-19" x1="1060.85" y1="680.77" x2="1058.7" y2="559.95"/><line class="cls-19" x1="1060.85" y1="680.77" x2="1100.55" y2="507.31"/><line class="cls-19" x1="1060.85" y1="680.77" x2="1106.5" y2="599.31"/><line class="cls-19" x1="1060.85" y1="680.77" x2="1120.3" y2="637.77"/><line class="cls-20" x1="1888.79" y1="535.35" x2="1845.18" y2="614.09"/><line class="cls-20" x1="1868.03" y1="484.08" x2="1841.07" y2="615.69"/><line class="cls-20" x1="1901.18" y1="567.16" x2="1848.27" y2="615.93"/><line class="cls-20" x1="1831" y1="610.12" x2="1832.83" y2="507.3"/><line class="cls-20" x1="1831" y1="610.12" x2="1797.22" y2="462.49"/><line class="cls-20" x1="1831" y1="610.12" x2="1792.15" y2="540.79"/><line class="cls-20" x1="1831" y1="610.12" x2="1780.41" y2="573.52"/><line class="cls-21" x1="494.36" y1="648.15" x2="444.35" y2="738.46"/><line class="cls-21" x1="470.56" y1="589.33" x2="439.62" y2="740.3"/><line class="cls-21" x1="508.57" y1="684.63" x2="447.89" y2="740.58"/><line class="cls-21" x1="428.07" y1="733.91" x2="430.18" y2="615.97"/><line class="cls-21" x1="428.07" y1="733.91" x2="389.32" y2="564.58"/><line class="cls-21" x1="428.07" y1="733.91" x2="383.52" y2="654.39"/><line class="cls-21" x1="428.07" y1="733.91" x2="370.04" y2="691.93"/><ellipse class="cls-7" cx="247.31" cy="629.47" rx="31.7" ry="58.01" transform="translate(-387.18 863.6) rotate(-88.8)"/><ellipse class="cls-7" cx="201.28" cy="622.73" rx="43.34" ry="72.29" transform="translate(-424.72 813.57) rotate(-89.04)"/></g><g id="plain-1"><polygon class="cls-22" points="1970 1130 -50 1130 -50 471.06 1970 741.7 1970 1130"/><path class="cls-23" d="M1101.08,625.28c-17.18,185.27-226.63,349.07-138.4,525.16"/><line class="cls-14" x1="355.93" y1="803.79" x2="325.14" y2="859.37"/><line class="cls-14" x1="341.27" y1="767.59" x2="322.23" y2="860.5"/><line class="cls-14" x1="364.67" y1="826.24" x2="327.32" y2="860.68"/><line class="cls-14" x1="315.12" y1="856.57" x2="316.42" y2="783.98"/><line class="cls-14" x1="315.12" y1="856.57" x2="291.27" y2="752.35"/><line class="cls-14" x1="315.12" y1="856.57" x2="287.7" y2="807.63"/><line class="cls-14" x1="315.12" y1="856.57" x2="279.41" y2="830.74"/><line class="cls-15" x1="275.98" y1="581.08" x2="294.12" y2="613.83"/><line class="cls-15" x1="284.61" y1="559.76" x2="295.83" y2="614.49"/><line class="cls-15" x1="270.83" y1="594.31" x2="292.83" y2="614.6"/><line class="cls-15" x1="300.02" y1="612.18" x2="299.25" y2="569.42"/><line class="cls-15" x1="300.02" y1="612.18" x2="314.07" y2="550.78"/><line class="cls-15" x1="300.02" y1="612.18" x2="316.17" y2="583.35"/><line class="cls-15" x1="300.02" y1="612.18" x2="321.06" y2="596.96"/><line class="cls-15" x1="588.25" y1="626.33" x2="606.38" y2="659.07"/><line class="cls-15" x1="596.88" y1="605" x2="608.09" y2="659.74"/><line class="cls-15" x1="583.09" y1="639.56" x2="605.1" y2="659.84"/><line class="cls-15" x1="612.28" y1="657.42" x2="611.52" y2="614.66"/><line class="cls-15" x1="612.28" y1="657.42" x2="626.33" y2="596.03"/><line class="cls-15" x1="612.28" y1="657.42" x2="628.44" y2="628.59"/><line class="cls-15" x1="612.28" y1="657.42" x2="633.32" y2="642.2"/><line class="cls-14" x1="40.28" y1="705.83" x2="9.49" y2="761.42"/><line class="cls-14" x1="25.63" y1="669.63" x2="6.59" y2="762.55"/><line class="cls-14" x1="49.02" y1="728.29" x2="11.67" y2="762.72"/><line class="cls-14" x1="-0.52" y1="758.62" x2="0.77" y2="686.02"/><line class="cls-14" x1="-0.52" y1="758.62" x2="-24.37" y2="654.39"/><line class="cls-14" x1="-0.52" y1="758.62" x2="-27.95" y2="709.67"/><line class="cls-14" x1="-0.52" y1="758.62" x2="-36.24" y2="732.78"/><line class="cls-15" x1="135.25" y1="516.97" x2="117.11" y2="549.72"/><line class="cls-15" x1="126.61" y1="495.65" x2="115.4" y2="550.38"/><line class="cls-15" x1="140.4" y1="530.2" x2="118.4" y2="550.49"/><line class="cls-15" x1="111.21" y1="548.07" x2="111.98" y2="505.31"/><line class="cls-15" x1="111.21" y1="548.07" x2="97.16" y2="486.67"/><line class="cls-15" x1="111.21" y1="548.07" x2="95.06" y2="519.24"/><line class="cls-15" x1="111.21" y1="548.07" x2="90.17" y2="532.85"/><line class="cls-16" x1="443.88" y1="689.42" x2="457.14" y2="713.37"/><line class="cls-16" x1="450.19" y1="673.82" x2="458.4" y2="713.86"/><line class="cls-16" x1="440.11" y1="699.1" x2="456.2" y2="713.93"/><line class="cls-16" x1="461.46" y1="712.16" x2="460.9" y2="680.89"/><line class="cls-16" x1="461.46" y1="712.16" x2="471.73" y2="667.26"/><line class="cls-16" x1="461.46" y1="712.16" x2="473.27" y2="691.07"/><line class="cls-16" x1="461.46" y1="712.16" x2="476.85" y2="701.03"/><line class="cls-14" x1="1172.84" y1="762.53" x2="1142.05" y2="818.11"/><line class="cls-14" x1="1158.18" y1="726.33" x2="1139.14" y2="819.25"/><line class="cls-14" x1="1181.58" y1="784.98" x2="1144.23" y2="819.42"/><line class="cls-14" x1="1132.03" y1="815.31" x2="1133.33" y2="742.72"/><line class="cls-14" x1="1132.03" y1="815.31" x2="1108.18" y2="711.09"/><line class="cls-14" x1="1132.03" y1="815.31" x2="1104.61" y2="766.37"/><line class="cls-14" x1="1132.03" y1="815.31" x2="1096.32" y2="789.48"/><line class="cls-17" x1="759.22" y1="719.46" x2="784.33" y2="764.8"/><line class="cls-17" x1="771.18" y1="689.93" x2="786.7" y2="765.72"/><line class="cls-17" x1="752.09" y1="737.77" x2="782.56" y2="765.86"/><line class="cls-17" x1="792.5" y1="762.51" x2="791.45" y2="703.3"/><line class="cls-17" x1="792.5" y1="762.51" x2="811.96" y2="677.5"/><line class="cls-17" x1="792.5" y1="762.51" x2="814.87" y2="722.59"/><line class="cls-17" x1="792.5" y1="762.51" x2="821.64" y2="741.44"/><line class="cls-14" x1="1060.93" y1="960.83" x2="1091.72" y2="1016.41"/><line class="cls-14" x1="1075.58" y1="924.63" x2="1094.62" y2="1017.55"/><line class="cls-14" x1="1052.18" y1="983.28" x2="1089.53" y2="1017.72"/><line class="cls-14" x1="1101.73" y1="1013.61" x2="1100.44" y2="941.02"/><line class="cls-14" x1="1101.73" y1="1013.61" x2="1125.58" y2="909.39"/><line class="cls-14" x1="1101.73" y1="1013.61" x2="1129.16" y2="964.67"/><line class="cls-14" x1="1101.73" y1="1013.61" x2="1137.45" y2="987.78"/><ellipse class="cls-7" cx="232.73" cy="672.61" rx="32.49" ry="17.75" transform="translate(-13.98 5) rotate(-1.2)"/><ellipse class="cls-7" cx="258.51" cy="668.84" rx="40.49" ry="24.27" transform="translate(-11.14 4.41) rotate(-0.96)"/><ellipse class="cls-7" cx="99.78" cy="768.5" rx="32.49" ry="17.75" transform="translate(-16.01 2.25) rotate(-1.2)"/><ellipse class="cls-7" cx="125.56" cy="764.72" rx="40.49" ry="24.27" transform="translate(-12.76 2.2) rotate(-0.96)"/><ellipse class="cls-7" cx="965.85" cy="804.17" rx="32.49" ry="17.75" transform="translate(-16.56 20.32) rotate(-1.2)"/><ellipse class="cls-7" cx="931.67" cy="802.4" rx="40.49" ry="24.27" transform="translate(-13.27 15.68) rotate(-0.96)"/><ellipse class="cls-7" cx="779.76" cy="911.18" rx="32.49" ry="17.75" transform="translate(-18.84 16.46) rotate(-1.2)"/><ellipse class="cls-7" cx="978.88" cy="672.72" rx="32.49" ry="17.75" transform="translate(-13.82 20.57) rotate(-1.2)"/><ellipse class="cls-7" cx="1004.67" cy="668.95" rx="40.49" ry="24.27" transform="translate(-11.03 16.88) rotate(-0.96)"/><line class="cls-18" x1="319.16" y1="1006.29" x2="370.72" y2="1099.38"/><line class="cls-18" x1="343.7" y1="945.66" x2="375.59" y2="1101.28"/><line class="cls-18" x1="304.51" y1="1043.9" x2="367.07" y2="1101.57"/><line class="cls-18" x1="387.49" y1="1094.69" x2="385.32" y2="973.11"/><line class="cls-18" x1="387.49" y1="1094.69" x2="427.44" y2="920.14"/><line class="cls-18" x1="387.49" y1="1094.69" x2="433.43" y2="1012.72"/><line class="cls-18" x1="387.49" y1="1094.69" x2="447.32" y2="1051.42"/><line class="cls-15" x1="1628.79" y1="800.84" x2="1610.65" y2="833.58"/><line class="cls-15" x1="1620.15" y1="779.51" x2="1608.94" y2="834.25"/><line class="cls-15" x1="1633.94" y1="814.07" x2="1611.94" y2="834.35"/><line class="cls-15" x1="1604.75" y1="831.93" x2="1605.51" y2="789.17"/><line class="cls-15" x1="1604.75" y1="831.93" x2="1590.7" y2="770.54"/><line class="cls-15" x1="1604.75" y1="831.93" x2="1588.6" y2="803.1"/><line class="cls-15" x1="1604.75" y1="831.93" x2="1583.71" y2="816.71"/><line class="cls-15" x1="1901.45" y1="846.08" x2="1919.58" y2="878.82"/><line class="cls-15" x1="1910.08" y1="824.76" x2="1921.29" y2="879.49"/><line class="cls-15" x1="1896.29" y1="859.31" x2="1918.3" y2="879.59"/><line class="cls-14" x1="1286.25" y1="925.58" x2="1317.03" y2="981.17"/><line class="cls-14" x1="1300.9" y1="889.38" x2="1319.94" y2="982.3"/><line class="cls-14" x1="1277.5" y1="948.04" x2="1314.85" y2="982.48"/><line class="cls-14" x1="1327.05" y1="978.37" x2="1325.75" y2="905.78"/><line class="cls-14" x1="1327.05" y1="978.37" x2="1350.9" y2="874.15"/><line class="cls-14" x1="1327.05" y1="978.37" x2="1354.47" y2="929.42"/><line class="cls-14" x1="1327.05" y1="978.37" x2="1362.77" y2="952.53"/><line class="cls-15" x1="1408.84" y1="736.73" x2="1426.98" y2="769.47"/><line class="cls-15" x1="1417.47" y1="715.4" x2="1428.69" y2="770.14"/><line class="cls-15" x1="1403.69" y1="749.96" x2="1425.69" y2="770.24"/><line class="cls-15" x1="1432.88" y1="767.82" x2="1432.11" y2="725.06"/><line class="cls-15" x1="1432.88" y1="767.82" x2="1446.93" y2="706.43"/><line class="cls-15" x1="1432.88" y1="767.82" x2="1449.03" y2="738.99"/><line class="cls-15" x1="1432.88" y1="767.82" x2="1453.92" y2="752.6"/><line class="cls-16" x1="1761.27" y1="733.53" x2="1774.53" y2="757.48"/><line class="cls-16" x1="1767.58" y1="717.93" x2="1775.78" y2="757.96"/><line class="cls-16" x1="1757.5" y1="743.2" x2="1773.59" y2="758.04"/><line class="cls-16" x1="1778.84" y1="756.27" x2="1778.29" y2="724.99"/><line class="cls-16" x1="1778.84" y1="756.27" x2="1789.12" y2="711.37"/><line class="cls-16" x1="1778.84" y1="756.27" x2="1790.66" y2="735.18"/><line class="cls-16" x1="1778.84" y1="756.27" x2="1794.23" y2="745.14"/><ellipse class="cls-7" cx="1545.93" cy="892.37" rx="32.49" ry="17.75" transform="translate(-18.28 32.44) rotate(-1.2)"/><ellipse class="cls-7" cx="1571.71" cy="888.59" rx="40.49" ry="24.27" transform="translate(-14.62 26.38) rotate(-0.96)"/><ellipse class="cls-7" cx="1412.98" cy="988.25" rx="32.49" ry="17.75" transform="matrix(1, -0.02, 0.02, 1, -20.31, 29.69)"/><ellipse class="cls-7" cx="1438.76" cy="984.48" rx="40.49" ry="24.27" transform="translate(-16.24 24.17) rotate(-0.96)"/><line class="cls-14" x1="542.77" y1="876.48" x2="577" y2="938.28"/><line class="cls-14" x1="559.06" y1="836.23" x2="580.23" y2="939.54"/><line class="cls-14" x1="533.05" y1="901.45" x2="574.57" y2="939.73"/><line class="cls-14" x1="588.13" y1="935.16" x2="586.69" y2="854.46"/><line class="cls-14" x1="588.13" y1="935.16" x2="614.65" y2="819.29"/><line class="cls-14" x1="588.13" y1="935.16" x2="618.62" y2="880.75"/><line class="cls-14" x1="588.13" y1="935.16" x2="627.84" y2="906.44"/><line class="cls-19" x1="972.5" y1="1028.65" x2="921.26" y2="1121.16"/><line class="cls-19" x1="948.11" y1="968.4" x2="916.43" y2="1123.05"/><line class="cls-19" x1="987.05" y1="1066.02" x2="924.89" y2="1123.33"/><line class="cls-19" x1="904.59" y1="1116.5" x2="906.75" y2="995.68"/><line class="cls-19" x1="904.59" y1="1116.5" x2="864.9" y2="943.04"/><line class="cls-19" x1="904.59" y1="1116.5" x2="858.95" y2="1035.04"/><line class="cls-19" x1="904.59" y1="1116.5" x2="845.15" y2="1073.5"/><line class="cls-20" x1="31.21" y1="951" x2="74.82" y2="1029.73"/><line class="cls-20" x1="51.97" y1="899.72" x2="78.93" y2="1031.33"/><line class="cls-20" x1="18.82" y1="982.81" x2="71.73" y2="1031.58"/><line class="cls-20" x1="89" y1="1025.76" x2="87.17" y2="922.94"/><line class="cls-20" x1="89" y1="1025.76" x2="122.78" y2="878.14"/><line class="cls-20" x1="89" y1="1025.76" x2="127.85" y2="956.44"/><line class="cls-20" x1="89" y1="1025.76" x2="139.59" y2="989.17"/><line class="cls-21" x1="1425.64" y1="1063.79" x2="1475.65" y2="1154.1"/><line class="cls-21" x1="1449.44" y1="1004.98" x2="1480.38" y2="1155.94"/><line class="cls-21" x1="1491.93" y1="1149.55" x2="1489.82" y2="1031.61"/><line class="cls-21" x1="1491.93" y1="1149.55" x2="1530.68" y2="980.22"/><line class="cls-21" x1="1491.93" y1="1149.55" x2="1536.48" y2="1070.03"/><ellipse class="cls-7" cx="1672.69" cy="1045.11" rx="58.01" ry="31.7" transform="matrix(1, -0.02, 0.02, 1, -21.44, 35.12)"/><ellipse class="cls-7" cx="1718.72" cy="1038.37" rx="72.29" ry="43.34" transform="translate(-17.11 28.86) rotate(-0.96)"/><line class="cls-14" x1="768.57" y1="629.64" x2="737.78" y2="685.23"/><line class="cls-14" x1="753.92" y1="593.44" x2="734.88" y2="686.36"/><line class="cls-14" x1="777.32" y1="652.1" x2="739.97" y2="686.54"/><line class="cls-14" x1="727.77" y1="682.43" x2="729.06" y2="609.84"/><line class="cls-14" x1="727.77" y1="682.43" x2="703.92" y2="578.21"/><line class="cls-14" x1="727.77" y1="682.43" x2="700.34" y2="633.48"/><line class="cls-14" x1="727.77" y1="682.43" x2="692.05" y2="656.59"/><line class="cls-14" x1="1334.82" y1="662.09" x2="1365.61" y2="717.68"/><line class="cls-14" x1="1349.48" y1="625.89" x2="1368.51" y2="718.81"/><line class="cls-14" x1="1326.08" y1="684.55" x2="1363.43" y2="718.98"/><line class="cls-14" x1="1375.62" y1="714.87" x2="1374.33" y2="642.28"/><line class="cls-14" x1="1375.62" y1="714.87" x2="1399.48" y2="610.65"/><line class="cls-14" x1="1375.62" y1="714.87" x2="1403.05" y2="665.93"/><line class="cls-14" x1="1375.62" y1="714.87" x2="1411.34" y2="689.04"/></g></g></svg>