<svg xmlns="http://www.w3.org/2000/svg" xmlns:xlink="http://www.w3.org/1999/xlink" viewBox="0 0 5760 1080"><defs><style>.cls-1,.cls-13,.cls-14,.cls-15,.cls-20,.cls-25,.cls-36,.cls-41{fill:none;}.cls-2{fill:#b58b59;}.cls-3{fill:#c7a571;}.cls-4{opacity:0.5;}.cls-5{opacity:0.7;}.cls-6{fill:#607e80;}.cls-7{fill:#648485;}.cls-8{fill:#68898a;}.cls-9{fill:#858270;}.cls-10{fill:#948f51;}.cls-11{fill:#8c876a;}.cls-12{fill:#774600;}.cls-13{stroke:#6a803d;}.cls-13,.cls-14,.cls-15,.cls-20,.cls-41{stroke-linecap:round;}.cls-13,.cls-14,.cls-15,.cls-20,.cls-25,.cls-36,.cls-41{stroke-miterlimit:10;}.cls-13,.cls-14{stroke-width:6.4px;}.cls-14{stroke:#5c6e35;}.cls-15{stroke:#829c4c;stroke-width:3.2px;}.cls-16{fill:#a19f93;}.cls-17{fill:#87867c;}.cls-18{fill:#9c9d9e;}.cls-19{fill:#838485;}.cls-20,.cls-41{stroke-width:7px;}.cls-20{stroke:url(#New_Pattern_Swatch_13);}.cls-21{fill:#637d3d;}.cls-22{fill:#63873d;}.cls-23{fill:#879e50;}.cls-24{fill:#9bb55c;}.cls-25,.cls-36{stroke:#3c362a;}.cls-25{stroke-width:30px;}.cls-26{fill:#6e7a34;}.cls-27{fill:#6a783d;}.cls-28{fill:#84802c;}.cls-29{fill:#595922;}.cls-30{fill:#342b1a;}.cls-31{fill:#3c362a;}.cls-32{fill:#747535;}.cls-33{fill:#80813b;}.cls-34{fill:#939339;}.cls-35{fill:#9a9a3a;}.cls-36{stroke-width:40px;}.cls-37{fill:#75752d;}.cls-38{fill:#696929;}.cls-39{fill:#4c4c1d;}.cls-40{fill:#7a7a2f;}.cls-41{stroke:url(#New_Pattern_Swatch_13-3);}</style><pattern id="New_Pattern_Swatch_13" data-name="New Pattern Swatch 13" width="180" height="60" patternTransform="translate(-2315.01 -0.45) scale(1.18 0.59)" patternUnits="userSpaceOnUse" viewBox="0 0 180 60"><rect class="cls-1" width="180" height="60"/><rect class="cls-2" width="180" height="60"/><polygon class="cls-3" points="0 0 0 60 90 60 0 0"/><polyline class="cls-3" points="180 60 180 0 90 0"/></pattern><pattern id="New_Pattern_Swatch_13-3" data-name="New Pattern Swatch 13" width="180" height="60" patternTransform="translate(-1992.89 44.42) scale(1.09 0.55)" patternUnits="userSpaceOnUse" viewBox="0 0 180 60"><rect class="cls-1" width="180" height="60"/><rect class="cls-2" width="180" height="60"/><polygon class="cls-3" points="0 0 0 60 90 60 0 0"/><polyline class="cls-3" points="180 60 180 0 90 0"/></pattern></defs><g id="before-river"><g id="water-2" data-name="water"><rect id="base" class="cls-6" x="-197" y="231.22" width="2265.12" height="720.09"/><g id="br-water-middle"><path class="cls-7" d="M110.47,681.11l543.72,38.5c416.12-7,424.25-3.87,799.48-50.33L994.35,605,167.62,640Z"/><path class="cls-7" d="M932.73,475.78,1497.54,490,1920,462.27l-417.77-39.51-329.52,5.55C1115,436.56,983.68,464.81,932.73,475.78Z"/><path class="cls-7" d="M0,415.12c477.26,39.17,383.92,31.95,843.85-6.11L402.64,396.35Z"/><polygon class="cls-7" points="1196.52 580.58 1563.24 624.53 1860.32 598.33 1453.67 559.63 1196.52 580.58"/><path class="cls-7" d="M1120.83,768.31l262.26,18.08,413.68-10.54s-96-30.86-109.44-30.24-359.55-18.77-359.55-18.77l-630.52,9.38-122.6,20.39Z"/><path class="cls-7" d="M87.29,537c465.09,27.39,494.52,23,957.63,6.66L896.37,509.06l-433.23-29.7L17.76,491.15Z"/><path class="cls-7" d="M3950.47,681.11l543.72,38.5c416.12-7,424.25-3.87,799.48-50.33L4834.35,605l-826.73,35Z"/><path class="cls-7" d="M4772.73,475.78,5337.54,490,5760,462.27l-417.77-39.51-329.52,5.55C4955,436.56,4823.68,464.81,4772.73,475.78Z"/><path class="cls-7" d="M3840,415.12c477.26,39.17,383.92,31.95,843.85-6.11l-441.21-12.66Z"/><polygon class="cls-7" points="5036.52 580.58 5403.24 624.53 5700.32 598.33 5293.67 559.63 5036.52 580.58"/><path class="cls-7" d="M4960.83,768.31l262.26,18.08,413.68-10.54s-96-30.86-109.44-30.24-359.55-18.77-359.55-18.77l-630.52,9.38-122.6,20.39Z"/><path class="cls-7" d="M3927.29,537c465.09,27.39,494.52,23,957.63,6.66l-148.55-34.55-433.23-29.7-445.38,11.79Z"/><path class="cls-7" d="M2008.89,697.43l360.27,33.2c264.09-21.69,635.47-46.48,907.06-61.35l-50.58-17-271.79-18.49c-499.54-17.12-509.82-18.89-1001.4,11.83Z"/><path class="cls-7" d="M2791.09,762c288.8,17.81,239.29,12.82,516.74-5.09l285.72,37.83,193.09-13.94L3735.79,693,3359,681.11,2614.34,738Z"/><path class="cls-7" d="M2952.27,592.08c-254.62-1-592-17.4-820.14-21.19l-44.51-88.6,331.73-11.23s480.4,43.46,511.4,52.27S3359,547.84,3359,547.84Z"/><polygon class="cls-7" points="3276.22 632.94 3613.89 662.3 3735.8 649.61 3786.64 592.08 3487.98 570.89 3099.24 604.99 3276.22 632.94"/><path class="cls-7" d="M2750.08,467.57C3293.86,489,3205,505.93,3735.79,449l-190.92-79.14-412.45,19.5L2805.31,419.7l-386,18.77Z"/><path class="cls-7" d="M2087.62,389.31l246.45,32.4,362.2-41.79c139-7.35,450.17-25.84,579.95-38.27l-229.13-22.79h-442l-473,28Z"/></g><g id="br-water-top"><path class="cls-8" d="M3904,646.6c294.77,14.19,288.61,17.64,590.16,3l-409.57-12.86Z"/><path class="cls-8" d="M5131.49,534.76c164.84,10.81,125.85,13.33,295.08,2.18l-94.67-9.42Z"/><path class="cls-8" d="M4960.83,457.68c-249.25-12.74-231.55-15.81-486.74-2.64l337.8,11.45Z"/><path class="cls-8" d="M4254.07,740.7c-143.24,11-99.16,13.48-246.45,2.18l79.07-9.42Z"/><path class="cls-8" d="M4457.2,758.31c234.55-9.35,215.13-12.29,449.08,2.88l-313.18,7Z"/><path class="cls-8" d="M4086.45,530.51c-143.24,11-99.16,13.48-246.45,2.17l79.07-9.42Z"/><path class="cls-8" d="M4076,395.47c234.54-9.35,215.13-12.29,449.08,2.88l-313.19,7Z"/><path class="cls-8" d="M5760,412.65c-143.24,11-99.16,13.48-246.45,2.17l79.07-9.42Z"/><polygon class="cls-8" points="5225.63 701.41 5413.28 690.22 4952.64 679.02 4659.76 690.22 5225.63 701.41"/><polygon class="cls-8" points="4335.63 572.6 4714.56 564.19 5070.69 576.55 4707.15 586.49 4533.02 578.69 4311.85 585.04 3977.22 572.57 4335.63 572.6"/><path class="cls-8" d="M64,647.1c294.77,14.2,288.61,17.64,590.16,3L244.62,637.22Z"/><path class="cls-8" d="M1291.49,535.27c164.84,10.8,125.85,13.32,295.08,2.17L1491.9,528Z"/><path class="cls-8" d="M1120.83,458.18c-249.25-12.74-231.55-15.8-486.74-2.64L971.89,467Z"/><path class="cls-8" d="M414.07,741.21c-143.24,10.95-99.16,13.48-246.45,2.17L246.69,734Z"/><path class="cls-8" d="M617.2,758.81c234.55-9.35,215.13-12.29,449.08,2.89l-313.18,7Z"/><path class="cls-8" d="M246.45,531C103.21,542,147.29,544.49,0,533.18l79.07-9.42Z"/><path class="cls-8" d="M236,396c234.54-9.35,215.13-12.29,449.08,2.89l-313.19,7.05Z"/><path class="cls-8" d="M1920,413.15c-143.24,11-99.16,13.48-246.45,2.18l79.07-9.42Z"/><polygon class="cls-8" points="1385.63 701.91 1573.28 690.72 1112.64 679.53 819.76 690.72 1385.63 701.91"/><polygon class="cls-8" points="495.63 573.11 874.56 564.7 1230.69 577.05 867.15 587 693.02 579.19 471.85 585.55 137.22 573.07 495.63 573.11"/><path class="cls-8" d="M2310,663.16c294.77-14.19,288.61-17.64,590.16-3l-409.57,12.86Z"/><path class="cls-8" d="M2419.35,380.49c164.84-10.8,125.84-13.32,295.08-2.17l-94.68,9.42Z"/><path class="cls-8" d="M3225.64,724.78c-249.25,12.75-231.55,15.81-486.74,2.64L3076.69,716Z"/><path class="cls-8" d="M2334.07,431.94c-143.24-10.95-99.16-13.47-246.45-2.17l79.07,9.42Z"/><path class="cls-8" d="M3164.82,640.89c234.54,9.34,215.13,12.29,449.07-2.89l-313.18-7Z"/><path class="cls-8" d="M2166.45,642.14c-143.24-10.95-99.16-13.48-246.45-2.17l79.07,9.42Z"/><path class="cls-8" d="M2156,777.18c234.54,9.35,215.13,12.29,449.08-2.88l-313.19-7Z"/><path class="cls-8" d="M3840,760c-143.24-11-99.16-13.48-246.45-2.18l79.07,9.43Z"/><polygon class="cls-8" points="3548.14 553 3735.8 564.19 3275.15 575.38 2982.27 564.19 3548.14 553"/><polygon class="cls-8" points="2378.57 502.67 2757.49 511.08 3113.62 498.73 2750.08 488.79 2575.95 496.59 2354.78 490.24 2020.16 502.71 2378.57 502.67"/><path class="cls-8" d="M2930.75,448c299.48-8.6,294.49-12,589.29,8.29l-412.48,5Z"/></g></g><g id="ground-4" data-name="ground"><path class="cls-9" d="M-144.57-86.54,2100.12-75.87V349.61c-177.39-.4-418.49,19.61-595.67,9.38-112.13,18.1-518.84,9.49-638.82,8.39-310.46-60.22-694.25-49.6-1010.2-42Z"/><path class="cls-10" d="M1970-50H-54l5.82,287.22c177.39-.3,763.75-67.14,940.93-74.87,112.13,13.68,247,37,367,36.12C1570.19,153,1641.06,104.59,1957,110.33Z"/><path class="cls-9" d="M-50,1138.05V770l213.77,9.35C269.51,765.5,493.34,757,601,757.45c84.39,25.27,367.81,35.57,450.89,35.16,124.37-12.9,379.93-1,504.69,14.34l191.62-33L1970,795.15v342.9Z"/><polygon class="cls-11" points="491.37 871.22 693.07 860.28 986.92 906.4 709.96 939.22 414.2 917.16 491.37 871.22"/><polygon class="cls-11" points="916.46 951.31 1266.85 929.89 1460.66 951.31 1266.85 1000.26 859.98 1029.89 718.33 986.85 916.46 951.31"/></g><g id="bridge"><path class="cls-2" d="M1254.37,616.79q3.64-6.7,7.53-13.14c-.13-2.76-.24-5.52-.3-8.28a4.09,4.09,0,0,0-1-2.65c-2.42,3.68-4.76,7.49-7,11.35Q1253.83,610.43,1254.37,616.79Z"/><path class="cls-3" d="M1254.37,616.79l8.37-.71q-.52-6.21-.84-12.43Q1258,610.09,1254.37,616.79Z"/><path class="cls-3" d="M1253.2,595.56c.07,2.85.18,5.68.31,8.51,2.29-3.86,4.63-7.67,7-11.35a4.26,4.26,0,0,0-3.22-1.45A4.16,4.16,0,0,0,1253.2,595.56Z"/><path class="cls-2" d="M1257.54,642.14c-1.43-8.42-2.45-16.88-3.17-25.35l8.37-.71c.7,8.27,1.7,16.5,3.08,24.65Z"/><path class="cls-3" d="M1262.74,616.08l-8.37.71c.36,4.23.79,8.47,1.32,12.69Q1259.07,622.63,1262.74,616.08Z"/><path class="cls-3" d="M1257.54,642.14l8.28-1.41q-1-6.11-1.79-12.28"/><path class="cls-2" d="M1263.42,667.21a191.39,191.39,0,0,1-5.88-25.07l8.28-1.41a183,183,0,0,0,5.61,24Z"/><path class="cls-3" d="M1265.82,640.73l-8.28,1.41c.72,4.21,1.54,8.41,2.51,12.59C1261.81,649.92,1263.76,645.27,1265.82,640.73Z"/><path class="cls-3" d="M1263.42,667.21l8-2.52c-1.23-3.88-2.27-7.84-3.19-11.84"/><path class="cls-2" d="M1274.5,691.16a71.58,71.58,0,0,1-6.49-11.7,112.65,112.65,0,0,1-4.59-12.25l8-2.52c2.45,7.74,5.56,15.29,10,21.66Z"/><path class="cls-3" d="M1271.43,664.69l-8,2.52a112.65,112.65,0,0,0,4.59,12.25A100.71,100.71,0,0,1,1271.43,664.69Z"/><path class="cls-3" d="M1274.5,691.16l6.88-4.81a63.51,63.51,0,0,1-5.7-10.32"/><path class="cls-2" d="M1281.38,686.35a34.83,34.83,0,0,0,2.76,14.88,29.72,29.72,0,0,0,8.72,4.36,4.3,4.3,0,0,0,1.73.18,3.83,3.83,0,0,0,1.55-.41,22.55,22.55,0,0,1-7.09-10.94A33.8,33.8,0,0,1,1281.38,686.35Z"/><path class="cls-3" d="M1281.38,686.35l-6.88,4.81a41.76,41.76,0,0,0,9.64,10.07A34.83,34.83,0,0,1,1281.38,686.35Z"/><path class="cls-3" d="M1295.29,697.55a21.39,21.39,0,0,1-6.24-3.13,22.55,22.55,0,0,0,7.09,10.94,3.72,3.72,0,0,0,2-2.93,5,5,0,0,0-.72-3.12,5.3,5.3,0,0,0-1-1.1A3.53,3.53,0,0,0,1295.29,697.55Z"/><path class="cls-12" d="M930.18,148.35A144.07,144.07,0,0,1,941.36,161l1.27,1.58,1.21,1.58,2.4,3.16c1.51,2.11,3,4.22,4.48,6.33a2.6,2.6,0,0,1,.33,1.59,15.92,15.92,0,0,1-.36,1.6,5.35,5.35,0,0,0-.13,1.59l0,1.6.08,6.38.16,12.76.64,51,1.27,102.08-40,.5-1.27-102.08-.64-51-.16-12.76-.08-6.38,0-1.6a5.39,5.39,0,0,0-.17-1.59,15.48,15.48,0,0,1-.41-1.59,2.64,2.64,0,0,1,.3-1.6c1.38-2.14,2.87-4.29,4.32-6.43l2.32-3.22,1.16-1.61,1.24-1.61A142.45,142.45,0,0,1,930.18,148.35Z"/><path class="cls-12" d="M1164.15,145.84a146.84,146.84,0,0,1,9.8,13.9l1.1,1.72,1,1.72,2.06,3.44c1.28,2.29,2.58,4.57,3.79,6.85a2.62,2.62,0,0,1,.17,1.64,16.28,16.28,0,0,1-.53,1.58,5.87,5.87,0,0,0-.3,1.6l-.15,1.61-.58,6.45-1.18,12.89-4.71,51.59L1165.23,354l-39.83-3.63,9.42-103.17,4.7-51.58,1.18-12.9.59-6.45.15-1.61a5.86,5.86,0,0,0,0-1.62,13.67,13.67,0,0,1-.24-1.65,2.59,2.59,0,0,1,.46-1.58c1.6-2,3.3-4,5-6.05l2.65-3,1.32-1.51,1.4-1.49A144.82,144.82,0,0,1,1164.15,145.84Z"/><path class="cls-12" d="M1039.4,298.67a197.68,197.68,0,0,1,20.23,6.79c.32.14.4.28.34.43s-.26.28-.39.43a.47.47,0,0,0-.14.43v5.58l.06,13.75.13,27.5-40,.19-.12-27.5-.07-13.75v-5.59a.51.51,0,0,0-.15-.43,2.27,2.27,0,0,1-.4-.43c-.06-.14,0-.28.34-.43A197.45,197.45,0,0,1,1039.4,298.67Z"/><path class="cls-12" d="M891.22,522.89A212.42,212.42,0,0,1,908,541.21c5,6.12,9.86,12.26,14.13,18.41a3.79,3.79,0,0,1,.55,2.34,20.11,20.11,0,0,1-.49,2.38,9,9,0,0,0-.13,2.37l.09,2.36.33,9.45.67,18.88L925.84,673,931.19,824l-58.55,2.07L867.3,675l-2.68-75.55L864,580.59l-.34-9.45-.08-2.36a8.61,8.61,0,0,0-.3-2.35,22.76,22.76,0,0,1-.66-2.34,4,4,0,0,1,.38-2.38c3.84-6.44,8.2-12.89,12.8-19.36A214.16,214.16,0,0,1,891.22,522.89Z"/><path class="cls-12" d="M1240.83,522.4a213.65,213.65,0,0,1,14.36,20.36c4.22,6.73,8.22,13.44,11.69,20.11a3.87,3.87,0,0,1,.24,2.4,22.41,22.41,0,0,1-.78,2.31,8.25,8.25,0,0,0-.43,2.34l-.22,2.36-.86,9.45-1.72,18.88-6.9,75.55-13.79,151.09-58.34-5.33,13.79-151.09,6.9-75.54,1.72-18.89.86-9.44.22-2.36a8.62,8.62,0,0,0,0-2.38,22.76,22.76,0,0,1-.35-2.42,3.84,3.84,0,0,1,.68-2.32c4.61-5.92,9.76-11.8,15.14-17.66A213.72,213.72,0,0,1,1240.83,522.4Z"/><path class="cls-12" d="M1058.13,746.23l2.28.62,2.09.62,4.19,1.24,7.56,2.48,1.89.63,1.73.62,3.47,1.24,3.26,1.24c1.06.42,2.21.83,3.19,1.25.41.21.58.41.47.63a3.61,3.61,0,0,1-.57.63.74.74,0,0,0-.21.63v3.14l0,5,.09,20.14.18,40.27-58.58.27-.18-40.28-.1-20.14,0-5v-3.15a.72.72,0,0,0-.22-.62,3.69,3.69,0,0,1-.58-.63c-.1-.21.06-.42.47-.63,1-.43,2.12-.85,3.18-1.28l3.25-1.27,3.45-1.27,1.73-.64,1.88-.64,7.54-2.55,4.18-1.28,2.09-.64Z"/><path class="cls-2" d="M1157.46,227.23c.91-1.54,1.79-3.11,2.69-4.71s1.68-3.23,2.52-4.9l-.39-3.12c-.12-1-.26-2.09-.46-3.12a3.24,3.24,0,0,0-1-1.89c-.63,1.52-1.21,3-1.89,4.46s-1.37,2.89-2.08,4.29l.39,4.48Z"/><path class="cls-3" d="M1157.46,227.23l5.87-.23-.25-4.69-.41-4.69c-.84,1.67-1.66,3.3-2.52,4.9S1158.37,225.69,1157.46,227.23Z"/><path class="cls-3" d="M1156,212.32c.18,1,.32,2,.43,3l.37,3c.71-1.4,1.39-2.83,2.08-4.29s1.26-2.94,1.89-4.46a2.75,2.75,0,0,0-2.39-.66A3,3,0,0,0,1156,212.32Z"/><path class="cls-2" d="M1157.33,245.4c.26-6.08.36-12.15.13-18.17l5.87-.23c.24,6.25.14,12.47-.12,18.65Z"/><path class="cls-3" d="M1163.33,227l-5.87.23.11,4.53v4.53l2.93-4.57C1161.46,230.17,1162.39,228.6,1163.33,227Z"/><polyline class="cls-3" points="1157.33 245.4 1163.21 245.65 1163.37 241.01 1163.46 236.35"/><path class="cls-2" d="M1156.27,263.72c.4-6.13.81-12.23,1.06-18.32l5.88.25c-.26,6.18-.68,12.33-1.07,18.45Z"/><path class="cls-3" d="M1163.21,245.65l-5.88-.25c-.13,3-.29,6.09-.48,9.14C1159,251.61,1161.11,248.66,1163.21,245.65Z"/><polyline class="cls-3" points="1156.27 263.72 1162.14 264.1 1162.72 254.9"/><path class="cls-2" d="M1155.33,282.23c.15-6.22.54-12.38.94-18.51l5.87.38c-.4,6.12-.79,12.22-.93,18.27Z"/><path class="cls-3" d="M1162.14,264.1l-5.87-.38-.56,9.22Q1158.9,268.49,1162.14,264.1Z"/><path class="cls-3" d="M1155.33,282.23l5.88.14c.08-3,.21-6.07.37-9.11"/><path class="cls-2" d="M1156.09,301.07a127,127,0,0,1-.76-18.84l5.88.14a121.13,121.13,0,0,0,.71,17.93Z"/><path class="cls-3" d="M1161.21,282.37l-5.88-.14c-.06,3.11-.09,6.23,0,9.38C1157.2,288.4,1159.19,285.35,1161.21,282.37Z"/><path class="cls-3" d="M1156.09,301.07l5.83-.77c-.17-1.46-.37-2.93-.45-4.42l-.15-2.22-.09-2.25"/><path class="cls-2" d="M1162.14,319.64a36.23,36.23,0,0,1-4.07-9.1c-.54-1.56-.82-3.15-1.21-4.72s-.59-3.17-.77-4.75l5.83-.77c.16,1.47.45,2.9.7,4.34s.6,2.84,1.08,4.19a30.05,30.05,0,0,0,3.4,7.66Z"/><path class="cls-3" d="M1161.92,300.3l-5.83.77c.18,1.58.49,3.16.77,4.75s.67,3.16,1.21,4.72a47.69,47.69,0,0,1,1.67-5.31C1160.44,303.52,1161.11,301.89,1161.92,300.3Z"/><path class="cls-3" d="M1162.14,319.64l5-3.15a30.05,30.05,0,0,1-3.4-7.66"/><path class="cls-2" d="M1167.1,316.49a23.35,23.35,0,0,0,1.91,10.67l1.39,1,.7.49c.24.15.49.28.74.42,1,.52,2,1.13,3,1.56a3.56,3.56,0,0,0,2.26.16c-.52-.68-1-1.34-1.49-2a22.08,22.08,0,0,1-1.24-2.09,20.17,20.17,0,0,1-1-2.08c-.28-.73-.54-1.45-.77-2.14A22.33,22.33,0,0,1,1167.1,316.49Z"/><path class="cls-3" d="M1167.1,316.49l-5,3.15a28,28,0,0,0,6.87,7.52A23.35,23.35,0,0,1,1167.1,316.49Z"/><path class="cls-3" d="M1177.26,325.27c-.85-.36-1.62-.86-2.44-1.27l-.6-.33-.55-.4-1.11-.79c.23.69.49,1.41.77,2.14a20.17,20.17,0,0,0,1,2.08,22.08,22.08,0,0,0,1.24,2.09c.47.66,1,1.32,1.49,2a2.62,2.62,0,0,0,1.8-1.7A3.1,3.1,0,0,0,1177.26,325.27Z"/><path class="cls-2" d="M1149.57,212.72l-7.91-6.26-5.46-.26a2.63,2.63,0,0,0-1.8.61l7,5.52Z"/><polygon class="cls-3" points="1149.57 212.72 1149.85 206.85 1141.66 206.46 1149.57 212.72"/><path class="cls-3" d="M1135.92,212.07l5.46.26-7-5.52a3,3,0,0,0-1.07,2.2A2.83,2.83,0,0,0,1135.92,212.07Z"/><rect class="cls-2" x="1154.96" y="201.98" width="5.88" height="16.4" transform="translate(892.87 1356.77) rotate(-87.27)"/><polygon class="cls-3" points="1149.85 206.85 1149.57 212.72 1157.76 213.11 1149.85 206.85"/><polyline class="cls-3" points="1165.95 213.5 1166.23 207.63 1158.04 207.24"/><path class="cls-2" d="M1166.23,207.63l7.91,6.26,5.46.26a2.58,2.58,0,0,0,1.8-.61l-7-5.52Z"/><polygon class="cls-3" points="1166.23 207.63 1165.95 213.5 1174.14 213.89 1166.23 207.63"/><path class="cls-3" d="M1179.88,208.28l-5.46-.26,7,5.52a3,3,0,0,0,1.07-2.19A2.84,2.84,0,0,0,1179.88,208.28Z"/><path class="cls-2" d="M914.19,211.77c2.5-2.34,5-4.62,7.59-6.83q.66-2.69,1.36-5.34a2.68,2.68,0,0,0-.2-1.89c-2.32,1.88-4.6,3.84-6.87,5.84C915.41,206.28,914.77,209,914.19,211.77Z"/><path class="cls-3" d="M914.19,211.77l5.75,1.23c.57-2.69,1.19-5.38,1.84-8.06C919.23,207.15,916.69,209.43,914.19,211.77Z"/><path class="cls-3" d="M917.46,198.09c-.48,1.82-.94,3.63-1.39,5.46,2.27-2,4.55-4,6.87-5.84a3.1,3.1,0,0,0-1.9-1.55A2.85,2.85,0,0,0,917.46,198.09Z"/><path class="cls-2" d="M911.12,228.37c.85-5.57,1.89-11.11,3.07-16.6l5.75,1.23c-1.16,5.39-2.18,10.81-3,16.25Z"/><path class="cls-3" d="M919.94,213l-5.75-1.23c-.59,2.75-1.15,5.5-1.66,8.27Q916.19,216.43,919.94,213Z"/><path class="cls-3" d="M911.12,228.37l5.82.88q.62-4.08,1.37-8.14"/><path class="cls-2" d="M909.24,245.22c.38-5.66,1-11.28,1.88-16.85l5.82.88c-.82,5.44-1.47,10.9-1.83,16.35Z"/><path class="cls-3" d="M916.94,229.25l-5.82-.88c-.41,2.79-.81,5.58-1.11,8.39C912.26,234.17,914.6,231.68,916.94,229.25Z"/><path class="cls-3" d="M909.24,245.22l5.87.38c.19-2.73.43-5.46.74-8.18"/><path class="cls-2" d="M909.31,262.36a116.79,116.79,0,0,1-.07-17.14l5.87.38a110,110,0,0,0,.06,16.24Z"/><path class="cls-3" d="M915.11,245.6l-5.87-.38c-.16,2.83-.29,5.67-.28,8.53C910.91,250.9,913,248.2,915.11,245.6Z"/><path class="cls-3" d="M909.31,262.36l5.86-.52c-.22-2.68-.35-5.37-.33-8.08"/><path class="cls-2" d="M915.17,261.84a56.38,56.38,0,0,0-4.52,9.18c.22,1,.52,1.91.77,2.87s.66,1.9,1,2.85a2.88,2.88,0,0,0,1.43,1.52,32.1,32.1,0,0,1,2.54-8.58A59.52,59.52,0,0,1,915.17,261.84Z"/><path class="cls-3" d="M915.17,261.84l-5.86.52a66.75,66.75,0,0,0,1.34,8.66,56.38,56.38,0,0,1,4.52-9.18Z"/><path class="cls-3" d="M917.88,274.59c-.27-.81-.59-1.59-.83-2.41s-.48-1.65-.67-2.5a32.1,32.1,0,0,0-2.54,8.58,2.69,2.69,0,0,0,2.44-.05A3,3,0,0,0,917.88,274.59Z"/><path class="cls-2" d="M1056.33,326.14a34,34,0,0,1-6.36,5.23c-.21,1.16-.46,2.31-.78,3.43a1.45,1.45,0,0,0,.32,1.28,31.13,31.13,0,0,0,6.26-3.71A38.18,38.18,0,0,0,1056.33,326.14Z"/><path class="cls-3" d="M1056.33,326.14l-5.88-.05a32.39,32.39,0,0,1-.48,5.28A34,34,0,0,0,1056.33,326.14Z"/><path class="cls-3" d="M1054.83,336.45a39.4,39.4,0,0,0,.94-4.08,31.13,31.13,0,0,1-6.26,3.71,4.46,4.46,0,0,0,1.89,1.37C1052.9,338.08,1054.51,337.58,1054.83,336.45Z"/><path class="cls-2" d="M1050.45,326.09a33.6,33.6,0,0,0,2.85-2.87,31.44,31.44,0,0,0,2.52-3.37,32.91,32.91,0,0,0-1-4.12,1.78,1.78,0,0,0-1.1-1.06A26.12,26.12,0,0,1,1052,318c-.31.51-.63,1-1,1.49s-.71,1-1.07,1.41c.19.85.23,1.73.35,2.59S1050.48,325.21,1050.45,326.09Z"/><path class="cls-3" d="M1050.45,326.09l5.88.05c0-1.05-.06-2.1-.1-3.15s-.19-2.1-.41-3.14a31.44,31.44,0,0,1-2.52,3.37A33.6,33.6,0,0,1,1050.45,326.09Z"/><path class="cls-3" d="M1049.22,317.49a27.09,27.09,0,0,1,.8,3.37c.36-.45.72-.92,1.07-1.41s.64-1,1-1.49a26.12,26.12,0,0,0,1.69-3.29,3.33,3.33,0,0,0-2.33.12C1049.89,315.39,1048.91,316.6,1049.22,317.49Z"/><path class="cls-2" d="M883.25,590.83l-11.76-8.16-7.74.16a3.67,3.67,0,0,0-2.47,1l10.38,7.2Z"/><polygon class="cls-3" points="883.25 590.83 883.08 582.43 871.49 582.67 883.25 590.83"/><path class="cls-3" d="M863.93,591.22l7.73-.15-10.38-7.2a4.34,4.34,0,0,0-1.3,3.23A4,4,0,0,0,863.93,591.22Z"/><rect class="cls-2" x="883.16" y="582.19" width="23.19" height="8.4" transform="translate(-11.81 18.42) rotate(-1.17)"/><polygon class="cls-3" points="883.08 582.43 883.25 590.83 894.85 590.59 883.08 582.43"/><polyline class="cls-3" points="906.44 590.36 906.27 581.96 894.67 582.19"/><path class="cls-2" d="M906.27,582,918,590.12l7.73-.16a3.67,3.67,0,0,0,2.47-1l-10.38-7.2Z"/><polygon class="cls-3" points="906.27 581.96 906.44 590.36 918.04 590.12 906.27 581.96"/><path class="cls-3" d="M925.59,581.56l-7.73.16,10.38,7.2a4.35,4.35,0,0,0,1.3-3.24A4,4,0,0,0,925.59,581.56Z"/><path class="cls-2" d="M1221.78,597.73l-11.9-7.63-7.56.51a3.55,3.55,0,0,0-2.37,1.15l10.49,6.73Z"/><polygon class="cls-3" points="1221.78 597.73 1221.22 589.35 1209.88 590.1 1221.78 597.73"/><path class="cls-3" d="M1202.88,599l7.56-.5L1200,591.76a4.41,4.41,0,0,0-1.13,3.29A4,4,0,0,0,1202.88,599Z"/><rect class="cls-2" x="1221.47" y="588.58" width="22.72" height="8.4" transform="translate(-36.7 83.31) rotate(-3.81)"/><polygon class="cls-3" points="1221.22 589.35 1221.78 597.73 1233.11 596.97 1221.22 589.35"/><polyline class="cls-3" points="1244.45 596.22 1243.89 587.84 1232.56 588.59"/><path class="cls-2" d="M1243.89,587.84l11.9,7.62,7.56-.5a3.55,3.55,0,0,0,2.37-1.15l-10.49-6.73Z"/><polygon class="cls-3" points="1243.89 587.84 1244.45 596.22 1255.79 595.46 1243.89 587.84"/><path class="cls-3" d="M1262.79,586.58l-7.56.5,10.49,6.73a4.42,4.42,0,0,0,1.13-3.29A4,4,0,0,0,1262.79,586.58Z"/><path class="cls-2" d="M1079,796.71a31.31,31.31,0,0,1,5.49-12.07,35.86,35.86,0,0,1-.09-6.13,2.81,2.81,0,0,0-.77-2.07,35.39,35.39,0,0,0-7.5,9.06A38.65,38.65,0,0,0,1079,796.71Z"/><path class="cls-3" d="M1079,796.71l7.71-3.35a29.67,29.67,0,0,1-2.22-8.72A31.31,31.31,0,0,0,1079,796.71Z"/><path class="cls-3" d="M1076,777.88a43.11,43.11,0,0,0,.1,7.62,35.39,35.39,0,0,1,7.5-9.06,5.58,5.58,0,0,0-3-1.66A3.69,3.69,0,0,0,1076,777.88Z"/><path class="cls-2" d="M1094.88,813.38a35.28,35.28,0,0,1-9.39-6.88,33.32,33.32,0,0,1-6.54-9.79l7.71-3.35a25.32,25.32,0,0,0,12.06,12.55Z"/><path class="cls-3" d="M1086.66,793.36l-7.71,3.35a33.32,33.32,0,0,0,6.54,9.79A26.63,26.63,0,0,1,1086.66,793.36Z"/><path class="cls-3" d="M1094.88,813.38l3.84-7.47a26.67,26.67,0,0,1-7.19-5.26"/><path class="cls-2" d="M1098.72,805.91a41.05,41.05,0,0,0,6.76,11.34,67.43,67.43,0,0,0,7.23,1.33,3.28,3.28,0,0,0,2.43-.74,59,59,0,0,1-4.12-4.26c-.64-.74-1.27-1.44-1.86-2.21s-1.14-1.52-1.68-2.28A41.35,41.35,0,0,1,1098.72,805.91Z"/><path class="cls-3" d="M1098.72,805.91l-3.84,7.47a49.5,49.5,0,0,0,10.6,3.87A41.05,41.05,0,0,1,1098.72,805.91Z"/><path class="cls-3" d="M1113.78,810.25a59.3,59.3,0,0,1-6.3-1.16q.81,1.14,1.68,2.28c.59.77,1.22,1.47,1.86,2.21a59,59,0,0,0,4.12,4.26,4.3,4.3,0,0,0,1.53-3.06C1116.83,812.47,1115.54,810.44,1113.78,810.25Z"/><path class="cls-2" d="M922.2,200l-7.82-5.69-5.12.12a2.33,2.33,0,0,0-1.63.73l6.89,5Z"/><polygon class="cls-3" points="922.2 200.04 922.06 194.16 914.38 194.35 922.2 200.04"/><path class="cls-3" d="M909.4,200.35l5.12-.13-6.89-5a3.12,3.12,0,0,0-.86,2.27A2.78,2.78,0,0,0,909.4,200.35Z"/><rect class="cls-2" x="922.13" y="193.98" width="15.36" height="5.88" transform="translate(-4.45 22.32) rotate(-1.37)"/><polygon class="cls-3" points="922.06 194.16 922.2 200.04 929.88 199.86 922.06 194.16"/><polyline class="cls-3" points="937.56 199.67 937.42 193.79 929.74 193.98"/><path class="cls-2" d="M937.42,193.79l7.82,5.7,5.12-.12a2.38,2.38,0,0,0,1.63-.74l-6.89-5Z"/><polygon class="cls-3" points="937.42 193.79 937.56 199.67 945.24 199.49 937.42 193.79"/><path class="cls-3" d="M950.22,193.49l-5.12.12,6.89,5a3.08,3.08,0,0,0,.86-2.26A2.77,2.77,0,0,0,950.22,193.49Z"/><path class="cls-2" d="M1031.77,318.71l-7.69-6.27-5.32-.27a2.52,2.52,0,0,0-1.75.61l6.78,5.53Z"/><polygon class="cls-3" points="1031.77 318.71 1032.07 312.84 1024.08 312.44 1031.77 318.71"/><path class="cls-3" d="M1018.47,318.05l5.32.26-6.78-5.53A3.11,3.11,0,0,0,1016,315,2.82,2.82,0,0,0,1018.47,318.05Z"/><rect class="cls-2" x="1036.96" y="308.18" width="5.88" height="15.98" transform="translate(672.18 1338.99) rotate(-87.14)"/><polygon class="cls-3" points="1032.07 312.84 1031.77 318.71 1039.75 319.11 1032.07 312.84"/><polyline class="cls-3" points="1047.73 319.51 1048.03 313.64 1040.05 313.24"/><path class="cls-2" d="M1048,313.64l7.69,6.27,5.32.27a2.52,2.52,0,0,0,1.75-.61L1056,314Z"/><polygon class="cls-3" points="1048.03 313.64 1047.73 319.51 1055.72 319.91 1048.03 313.64"/><path class="cls-3" d="M1061.33,314.3,1056,314l6.78,5.53a3.11,3.11,0,0,0,1.06-2.2A2.82,2.82,0,0,0,1061.33,314.3Z"/><path class="cls-2" d="M1046.73,779l-11.12-8.4h-7.42a3.44,3.44,0,0,0-2.39,1l9.81,7.4Z"/><polygon class="cls-3" points="1046.73 778.98 1046.73 770.58 1035.61 770.58 1046.73 778.98"/><path class="cls-3" d="M1028.19,779h7.42l-9.81-7.4a4.41,4.41,0,0,0-1.32,3.2A4,4,0,0,0,1028.19,779Z"/><rect class="cls-2" x="1046.73" y="770.58" width="22.25" height="8.4"/><polygon class="cls-3" points="1046.73 770.58 1046.73 778.98 1057.85 778.98 1046.73 770.58"/><polyline class="cls-3" points="1068.98 778.98 1068.98 770.58 1057.85 770.58"/><path class="cls-2" d="M1069,770.58l11.12,8.4h7.42a3.44,3.44,0,0,0,2.39-1l-9.81-7.41Z"/><polygon class="cls-3" points="1068.98 770.58 1068.98 778.98 1080.1 778.98 1068.98 770.58"/><path class="cls-3" d="M1087.51,770.58h-7.41l9.81,7.41a4.45,4.45,0,0,0,1.31-3.21A4,4,0,0,0,1087.51,770.58Z"/></g><g id="reeds"><g id="br-reeds-1"><path class="cls-13" d="M1565,773.18s-.42-70.7-7.64-90.44"/><path class="cls-14" d="M1558.31,773.18c0-49.47-8.4-82.32-16.81-89.51"/><path class="cls-14" d="M1570.55,773.18s-4-70.55,11.09-99.68"/><path class="cls-15" d="M1554,773.18c0-2.37-6.41-66.11-16.81-85.27"/><path class="cls-13" d="M1575,773.18s5.23-58.55-8.51-85.94"/><path class="cls-15" d="M1579.63,773.18s-2.39-70.63,6.74-90.23"/></g></g><g id="rocks-2" data-name="rocks"><path class="cls-16" d="M314.88,669.49s-32.52-15-37.65-14S228,702.82,228,702.82l66.61,20.84,43.35-42Z"/><path class="cls-16" d="M342.78,724.89l37.81-1.14,9.24-27.67c-46.72-6.77-29-3.22-61.68,23.29Z"/><path class="cls-16" d="M1623.84,276.07c72.16,13.51,38.21,11.06,107.88-8.86l-39.07-13.57-82.58,14.51Z"/><polygon class="cls-16" points="1561.55 372.47 1649.96 382.7 1742.4 360.19 1765.71 326.41 1720.7 316.17 1590.48 313.78 1510.1 334.6 1561.55 372.47"/><path class="cls-17" d="M1634.69,355.66l-73.14,16.81c118.84,14.6,75.06,11.5,180.85-12.28Z"/><path class="cls-16" d="M649.29,726.67c21.75,33.38,8.65,21.38,53.86,22.42l-7.17-24-46.91-9.84Z"/><path class="cls-16" d="M491.37,715.26l34.56,38.57,63.1,5.61,38.72-28L614.24,706.6c-23.16-9-78.68-29.06-103.57-30.61Z"/><path class="cls-17" d="M516.44,708.88l-25.07,6.38C537.14,768,518.43,750.94,589,759.44Z"/><path class="cls-18" d="M390.17,786.69C462.07,826,429.15,830,508.56,800l-60.38-47.59h-58Z"/><polygon class="cls-18" points="1723.26 282.63 1884.75 279.32 1929.64 329.08 1815.1 361.42 1707.03 311.17 1723.26 282.63"/><polygon class="cls-19" points="1707.03 311.17 1792.18 304.44 1929.64 329.08 1815.1 361.42 1707.03 311.17"/><polygon class="cls-18" points="94.65 761.25 285.11 737.48 377.9 799.57 283.75 871.22 115.67 824.84 94.65 761.25"/><path class="cls-19" d="M115.67,824.84c149.65-53.51,96.94-56.5,262.23-25.28l-94.15,71.66Z"/><polygon class="cls-18" points="1639.05 761.57 1846.16 735.63 1895.51 803.55 1743.75 866.41 1613.67 806 1639.05 761.57"/><polygon class="cls-19" points="1613.67 806 1723.68 784.93 1895.51 803.55 1743.75 866.41 1613.67 806"/><path class="cls-16" d="M1406.83,845c127.79-85.94,69.68-87.26,232.14-72.3l16.48,107.87s-163.71,33.22-168.21,36.53S1406.83,845,1406.83,845Z"/><polygon class="cls-17" points="1517.62 837.18 1655.45 880.52 1479.58 920.05 1406.83 844.95 1517.62 837.18"/></g><g id="plants"><path class="cls-20" d="M368.63,577.15c.53,56.18-4.12,126.66-4.12,126.66"/><path class="cls-2" d="M208.2,915.14q-5.76-4.75-11.63-9.46l-8.28-.66a4.12,4.12,0,0,0-2.75.79q5.22,4.1,10.34,8.24Z"/><path class="cls-3" d="M208.2,915.14l.78-8.36-12.41-1.1Q202.44,910.39,208.2,915.14Z"/><path class="cls-3" d="M187.65,913.4l8.23.65q-5.13-4.14-10.34-8.24a4.22,4.22,0,0,0,2.11,7.59Z"/><path class="cls-2" d="M232.78,917.75c-8.17-1-16.37-1.84-24.58-2.61l.78-8.36c8.27.77,16.54,1.63,24.81,2.63Z"/><path class="cls-3" d="M209,906.78l-.78,8.36q6.17.58,12.31,1.22Q214.8,911.55,209,906.78Z"/><path class="cls-3" d="M232.78,917.75l1-8.34q-6.21-.75-12.4-1.4"/><path class="cls-2" d="M257.09,921.31c-8-1.47-16.15-2.57-24.31-3.56l1-8.34c8.27,1,16.53,2.12,24.82,3.64Z"/><path class="cls-3" d="M233.79,909.41l-1,8.34q6.12.74,12.22,1.6C241.34,916,237.58,912.69,233.79,909.41Z"/><path class="cls-3" d="M257.09,921.31l1.52-8.26c-4.15-.77-8.28-1.42-12.42-2"/><path class="cls-2" d="M269.4,924.18l-.67-.21a114.42,114.42,0,0,0-11.64-2.66l1.52-8.26a119.5,119.5,0,0,1,12.55,2.88l.89.28c.47.16.9.29,1.38.47a28.3,28.3,0,0,1,2.8,1.17,14.09,14.09,0,0,1,2.36,1.44,8.92,8.92,0,0,1,1.63,1.7,6.21,6.21,0,0,1,.86,2,5.66,5.66,0,0,1,.05,2.32,6.33,6.33,0,0,1-2.34,3.7Z"/><path class="cls-3" d="M258.61,913.05l-1.52,8.26A114.42,114.42,0,0,1,268.73,924,104,104,0,0,0,258.61,913.05Z"/><path class="cls-3" d="M269.4,924.18l9.39,4.78a6.33,6.33,0,0,0,2.34-3.7,5.66,5.66,0,0,0-.05-2.32,6.21,6.21,0,0,0-.86-2,8.92,8.92,0,0,0-1.63-1.7,14.09,14.09,0,0,0-2.36-1.44,28.3,28.3,0,0,0-2.8-1.17c-.48-.18-.91-.31-1.38-.47l-.89-.28"/><path class="cls-2" d="M249.63,928.13c4.15-.68,8.13-1.28,12.09-2.09,2-.39,3.91-.83,5.79-1.32l1.89-.54,9.39,4.78a16.86,16.86,0,0,1-5.06,2.63c-2.3.79-2.89.92-4.05,1.24-2.12.56-4.22,1-6.31,1.45-4.16.85-8.36,1.48-12.37,2.14Z"/><path class="cls-3" d="M278.79,929l-9.39-4.78-1.89.54c-1.88.49-3.82.93-5.79,1.32,2.24,1,4.52,1.91,6.88,2.73.58.2,1.18.41,1.79.59a8.23,8.23,0,0,0,2.26.38A16.37,16.37,0,0,0,278.79,929Z"/><path class="cls-3" d="M249.63,928.13l1.37,8.29c4-.66,8.21-1.29,12.37-2.14"/><path class="cls-2" d="M225.06,932.65q12.24-2.49,24.57-4.52l1.37,8.29q-12.18,2-24.27,4.46Z"/><path class="cls-3" d="M251,936.42l-1.37-8.29q-6.16,1-12.31,2.15Q244.22,933.28,251,936.42Z"/><path class="cls-3" d="M225.06,932.65l1.67,8.23q6-1.23,12.11-2.34"/><path class="cls-2" d="M200.66,938.12q12.15-3,24.4-5.47l1.67,8.23q-12.09,2.46-24.06,5.39Z"/><path class="cls-3" d="M226.73,940.88l-1.67-8.23c-4.08.83-8.16,1.69-12.23,2.61C217.51,937.07,222.14,939,226.73,940.88Z"/><path class="cls-3" d="M200.66,938.12l2,8.15q6-1.47,12-2.82"/><path class="cls-2" d="M176.47,944.9c8-2.57,16.08-4.77,24.19-6.78l2,8.15c-8,2-15.87,4.14-23.62,6.62Z"/><path class="cls-3" d="M202.67,946.27l-2-8.15q-6.09,1.5-12.13,3.18Q195.7,943.67,202.67,946.27Z"/><path class="cls-3" d="M176.47,944.9l2.58,8c3.87-1.24,7.79-2.4,11.73-3.5"/><path class="cls-2" d="M152.67,954.88a55.51,55.51,0,0,1,5.9-3.16c2-.94,4-1.77,5.94-2.57,4-1.58,8-3,12-4.25l2.58,8c-3.88,1.25-7.71,2.58-11.43,4.06-1.85.75-3.7,1.52-5.46,2.36a49.87,49.87,0,0,0-5,2.69Z"/><path class="cls-3" d="M179.05,952.89l-2.58-8c-4,1.29-8,2.67-12,4.25C169.51,950.18,174.31,951.48,179.05,952.89Z"/><path class="cls-3" d="M152.67,954.88l4.45,7.12a49.87,49.87,0,0,1,5-2.69c1.76-.84,3.61-1.61,5.46-2.36"/><path class="cls-2" d="M160.17,977.19a52.6,52.6,0,0,1-6.41-2.1,15.71,15.71,0,0,1-1.65-.73,18.1,18.1,0,0,1-1.67-.88,13.24,13.24,0,0,1-1.71-1.13l-.87-.68c-.33-.32-.65-.65-1-1-.16-.18-.31-.33-.46-.53l-.42-.64a6.78,6.78,0,0,1-.71-1.36,9.77,9.77,0,0,1-.44-1.46c-.07-.51-.11-1-.13-1.53s.11-1,.19-1.51a10.08,10.08,0,0,1,.48-1.47,6.15,6.15,0,0,1,.66-1.28l.37-.59.19-.29.18-.22a22.92,22.92,0,0,1,5.85-4.92l4.45,7.12a15.78,15.78,0,0,0-3.67,3l-.09.11,0,.07-.06.08h0l.06.06.12.12.36.27a5.6,5.6,0,0,0,.88.57,8.87,8.87,0,0,0,1.07.56c.36.19.78.36,1.2.53a44.46,44.46,0,0,0,5.37,1.75Z"/><path class="cls-3" d="M157.12,962l-4.45-7.12a22.92,22.92,0,0,0-5.85,4.92l-.18.22-.19.29-.37.59a6.15,6.15,0,0,0-.66,1.28,10.08,10.08,0,0,0-.48,1.47c-.08.5-.15,1-.19,1.51s.06,1,.13,1.53a9.77,9.77,0,0,0,.44,1.46,6.78,6.78,0,0,0,.71,1.36l.42.64c.15.2.3.35.46.53-.09-.23-.17-.44-.24-.68s-.13-.51-.19-.76a5.65,5.65,0,0,1-.17-1.46,6.78,6.78,0,0,1,.12-1.37,11.81,11.81,0,0,1,.41-1.23c.22-.38.45-.73.68-1a5.76,5.76,0,0,1,.83-.81,3.59,3.59,0,0,1,.9-.57,5.24,5.24,0,0,1,.89-.37A18.4,18.4,0,0,1,157.12,962Z"/><path class="cls-3" d="M160.17,977.19l2.15-8.12a44.46,44.46,0,0,1-5.37-1.75c-.42-.17-.84-.34-1.2-.53a8.87,8.87,0,0,1-1.07-.56,5.6,5.6,0,0,1-.88-.57l-.36-.27-.12-.12"/><path class="cls-2" d="M185.29,981.31a178.12,178.12,0,0,1-25.12-4.12l2.15-8.12A171.46,171.46,0,0,0,186.17,973Z"/><path class="cls-3" d="M162.32,969.07l-2.15,8.12c4.23,1.1,8.42,1.87,12.6,2.53A111.33,111.33,0,0,1,162.32,969.07Z"/><path class="cls-3" d="M185.29,981.31l.88-8.35c-4.06-.44-8.11-.94-12.11-1.54"/><path class="cls-2" d="M210.26,983.22c-8.31-.46-16.63-1-25-1.91l.88-8.35c8.13.84,16.33,1.42,24.55,1.87Z"/><path class="cls-3" d="M186.17,973l-.88,8.35q6.26.65,12.49,1.11Q191.86,977.77,186.17,973Z"/><path class="cls-3" d="M210.26,983.22l.46-8.39q-6.16-.33-12.31-.79"/><path class="cls-2" d="M210.72,974.83q5.92,4.54,12,9l8.31.29a4.15,4.15,0,0,0,2.71-.91c-3.59-2.58-7.15-5.16-10.69-7.78C218.94,975.24,214.82,975.06,210.72,974.83Z"/><path class="cls-3" d="M210.72,974.83l-.46,8.39c4.16.23,8.31.41,12.46.58Q216.66,979.36,210.72,974.83Z"/><path class="cls-3" d="M231.29,975.69l-8.24-.29c3.54,2.62,7.1,5.2,10.69,7.78A4.24,4.24,0,0,0,235.3,980,4.18,4.18,0,0,0,231.29,975.69Z"/><path class="cls-2" d="M1748.81,913.76l-11.37-10-8.35-1a4.19,4.19,0,0,0-2.81.65l10.09,8.73Z"/><polygon class="cls-3" points="1748.81 913.76 1749.94 905.44 1737.44 903.79 1748.81 913.76 1748.81 913.76"/><path class="cls-3" d="M1728.07,911.08l8.3,1-10.09-8.73a4.21,4.21,0,0,0,1.79,7.69Z"/><path class="cls-2" d="M1773.62,917.37c-8.24-1.3-16.52-2.48-24.81-3.61l1.13-8.32c8.34,1.13,16.67,2.32,25,3.64Z"/><path class="cls-3" d="M1749.94,905.44l-1.13,8.32,12.43,1.74Q1755.63,910.45,1749.94,905.44Z"/><path class="cls-3" d="M1773.62,917.37l1.32-8.29q-6.26-1-12.5-1.89"/><path class="cls-2" d="M1788.9,920l-3-.55c-4.08-.73-8.19-1.41-12.32-2.07l1.32-8.29c4.16.66,8.32,1.34,12.49,2.1l3.3.61,3,.58,3,.64a66.4,66.4,0,0,1,10.69,3Z"/><path class="cls-3" d="M1774.94,909.08l-1.32,8.29c4.13.66,8.24,1.34,12.32,2.07C1782.35,916,1778.66,912.5,1774.94,909.08Z"/><path class="cls-3" d="M1788.9,920l18.59-4a66.4,66.4,0,0,0-10.69-3l-3-.64-3-.58-3.3-.61"/><path class="cls-2" d="M1788.9,920l18.59-4c2.67,1.16,3.48,2.32,4,3.37a5.64,5.64,0,0,1,.28.85,4.19,4.19,0,0,1,.12,1.22,4.83,4.83,0,0,1-.25,1.37,3.66,3.66,0,0,1-.36.8,5,5,0,0,1-1.21,1.42,7.4,7.4,0,0,1-2.69,1.33,31.12,31.12,0,0,1-5,.94c-2,.22-4,.4-6.08.57Z"/><path class="cls-3" d="M1807.49,916l-18.59,4c1.35.22,2.83.41,4.43.55.8.06,1.63.12,2.48.14a17.82,17.82,0,0,0,2.47-.1,47.7,47.7,0,0,0,6.78-1c.08-.4.55-.82,1.12-1.39A3.89,3.89,0,0,0,1807.49,916Z"/><path class="cls-3" d="M1788.9,920l7.42,7.88c2.06-.17,4.12-.35,6.08-.57a31.12,31.12,0,0,0,5-.94,7.4,7.4,0,0,0,2.69-1.33,5,5,0,0,0,1.21-1.42"/><polygon class="cls-2" points="1767.25 921.31 1788.9 919.99 1796.32 927.87 1790.1 928.32 1786.61 928.56 1780.32 928.95 1767.75 929.7 1767.25 921.31"/><path class="cls-3" d="M1796.32,927.87,1788.9,920l-9.09.58,6.53,3.8,1.64.94.82.47.41.24.58.22A41.92,41.92,0,0,0,1796.32,927.87Z"/><polyline class="cls-3" points="1767.25 921.31 1767.75 929.7 1780.32 928.95"/><path class="cls-2" d="M1742.09,922.9c8.4-.59,16.79-1.1,25.16-1.59l.5,8.38c-8.37.5-16.73,1-25.07,1.59Z"/><polygon class="cls-3" points="1767.75 929.7 1767.25 921.31 1754.68 922.07 1767.75 929.7"/><polyline class="cls-3" points="1742.09 922.9 1742.68 931.28 1755.2 930.45"/><path class="cls-2" d="M1716.86,925.08c8.43-.92,16.83-1.59,25.23-2.18l.59,8.38c-8.34.59-16.66,1.25-24.91,2.15Z"/><path class="cls-3" d="M1742.68,931.28l-.59-8.38q-6.3.44-12.6,1C1733.93,926.3,1738.31,928.78,1742.68,931.28Z"/><path class="cls-3" d="M1716.86,925.08l.91,8.35q6.2-.67,12.42-1.19"/><path class="cls-2" d="M1689.23,930.9a17.73,17.73,0,0,1,2.75-1.26c1-.37,1.9-.65,2.47-.81,1.11-.32,2.2-.59,3.29-.84,2.16-.49,4.3-.88,6.42-1.23,4.26-.69,8.48-1.22,12.7-1.68l.91,8.35c-4.12.45-8.22,1-12.25,1.62-2,.33-4,.7-5.93,1.13-1,.22-1.91.46-2.81.72l-.52.15Z"/><path class="cls-3" d="M1717.77,933.43l-.91-8.35c-4.22.46-8.44,1-12.7,1.68C1708.86,928.83,1713.34,931.1,1717.77,933.43Z"/><path class="cls-3" d="M1689.23,930.9l7,6.15.52-.15c.9-.26,1.85-.5,2.81-.72,1.93-.43,3.92-.8,5.93-1.13"/><path class="cls-2" d="M1706.66,949.16a110.76,110.76,0,0,1-12.52-3.89c-.5-.2-1.13-.45-1.89-.81a25.38,25.38,0,0,1-2.74-1.45,9.32,9.32,0,0,1-3.68-3.78,5.74,5.74,0,0,1-.56-2.32,5.59,5.59,0,0,1,.46-2.4,7.77,7.77,0,0,1,3.5-3.61l7,6.15,1,.42a101,101,0,0,0,11.5,3.55Z"/><path class="cls-3" d="M1696.26,937.05l-7-6.15a7.77,7.77,0,0,0-3.5,3.61,5.59,5.59,0,0,0-.46,2.4,5.74,5.74,0,0,0,.56,2.32,9.32,9.32,0,0,0,3.68,3.78,25.38,25.38,0,0,0,2.74,1.45c.76.36,1.39.61,1.89.81-.37-.52-.86-1.11-1.39-1.74a11.81,11.81,0,0,1-1.58-2,6,6,0,0,1-.92-3.23,2.49,2.49,0,0,1,.92-1.32,3.91,3.91,0,0,1,2-.69A4.31,4.31,0,0,1,1696.26,937.05Z"/><path class="cls-3" d="M1706.66,949.16l2.1-8.14a101,101,0,0,1-11.5-3.55"/><path class="cls-2" d="M1731.21,954.92c-4-1-8.1-1.94-12.17-2.86s-8.25-1.83-12.38-2.9l2.1-8.14c4,1,8,1.92,12.12,2.84s8.23,1.89,12.33,2.9Z"/><path class="cls-3" d="M1708.76,941l-2.1,8.14c4.13,1.07,8.34,2,12.38,2.9C1715.58,948.42,1712,944.77,1708.76,941Z"/><path class="cls-3" d="M1731.21,954.92l2-8.16q-6.15-1.51-12.33-2.9"/><path class="cls-2" d="M1755.36,961.35q-12-3.47-24.15-6.43l2-8.16q12.3,3,24.49,6.53Z"/><path class="cls-3" d="M1733.21,946.76l-2,8.16q6.07,1.49,12.11,3.09Q1738.37,952.34,1733.21,946.76Z"/><path class="cls-3" d="M1755.36,961.35l2.34-8.06q-6.1-1.77-12.22-3.4"/><path class="cls-2" d="M1779.1,968.92c-7.81-2.75-15.75-5.24-23.74-7.57l2.34-8.06c8.11,2.36,16.19,4.89,24.19,7.71Z"/><path class="cls-3" d="M1757.7,953.29l-2.34,8.06c4,1.17,8,2.37,11.93,3.63C1764.18,961.05,1761,957.16,1757.7,953.29Z"/><path class="cls-3" d="M1779.1,968.92l2.79-7.92q-6-2.12-12.05-4"/><path class="cls-2" d="M1802,978.18a239.34,239.34,0,0,0-22.91-9.26l2.79-7.92a246,246,0,0,1,23.74,9.6Z"/><path class="cls-3" d="M1781.89,961l-2.79,7.92c3.91,1.38,7.79,2.82,11.62,4.35C1787.93,969.14,1785,965.05,1781.89,961Z"/><path class="cls-3" d="M1802,978.18l3.62-7.58c-3.89-1.86-7.83-3.54-11.79-5.12"/><path class="cls-2" d="M1820.25,990.89a13.91,13.91,0,0,0-3.11-3.56,37.83,37.83,0,0,0-4.57-3.38,92.83,92.83,0,0,0-10.56-5.77l3.62-7.58a101.15,101.15,0,0,1,11.5,6.3,46.23,46.23,0,0,1,5.54,4.1,21.8,21.8,0,0,1,5,6Z"/><path class="cls-3" d="M1805.63,970.6l-3.62,7.58a92.83,92.83,0,0,1,10.56,5.77A89,89,0,0,0,1805.63,970.6Z"/><path class="cls-3" d="M1820.25,990.89l7.42-3.93a21.8,21.8,0,0,0-5-6,46.23,46.23,0,0,0-5.54-4.1"/><path class="cls-2" d="M1806.82,999.55c1-.26,1.93-.51,2.86-.81l1.41-.44,1.37-.49a28.54,28.54,0,0,0,5-2.28,8.5,8.5,0,0,0,3-2.59c.14-.36.26-.52.2-.81,0,0,0-.06,0-.1a.65.65,0,0,1,0-.13c0-.09,0-.17-.06-.28a4.94,4.94,0,0,0-.33-.73l7.42-3.93a12.66,12.66,0,0,1,.93,2.14c.12.4.2.84.29,1.26l.12.63c0,.22,0,.46,0,.68a12.71,12.71,0,0,1,0,1.38c-.06.46-.14.92-.23,1.37a7,7,0,0,1-.41,1.3,7.29,7.29,0,0,1-.54,1.2,11.1,11.1,0,0,1-1.38,2c-.24.29-.5.59-.75.85l-.79.71a11.92,11.92,0,0,1-1.59,1.25,14.49,14.49,0,0,1-1.6,1,37.3,37.3,0,0,1-6.42,2.94l-1.6.57-1.59.5c-1.06.34-2.12.61-3.18.9Z"/><path class="cls-3" d="M1827.67,987l-7.42,3.93a4.94,4.94,0,0,1,.33.73c0,.11,0,.19.06.28a.65.65,0,0,0,0,.13s0,.07,0,.1c.06.29-.06.45-.2.81a8.5,8.5,0,0,1-3,2.59c.56.09,1.12.17,1.64.2a11.69,11.69,0,0,0,1.67,0l.86-.06c.28,0,.54-.09.83-.15a6.55,6.55,0,0,0,1.7-.61,6.17,6.17,0,0,0,2.79-3.14,5.7,5.7,0,0,0,.39-1.14,12.16,12.16,0,0,0,.24-1.23A13.5,13.5,0,0,0,1827.67,987Z"/><path class="cls-3" d="M1806.82,999.55l2.15,8.12c1.06-.29,2.12-.56,3.18-.9l1.59-.5,1.6-.57a37.3,37.3,0,0,0,6.42-2.94"/><path class="cls-2" d="M1782.64,1003.71a179.48,179.48,0,0,0,24.18-4.16l2.15,8.12a186.89,186.89,0,0,1-25.39,4.39Z"/><path class="cls-3" d="M1809,1007.67l-2.15-8.12c-3.87,1-7.89,1.8-11.93,2.48A124.09,124.09,0,0,0,1809,1007.67Z"/><path class="cls-3" d="M1782.64,1003.71l.94,8.35c4.23-.51,8.45-1,12.68-1.74"/><path class="cls-2" d="M1757.79,1005.73c8.32-.47,16.62-1.1,24.85-2l.94,8.35c-8.44.94-16.88,1.58-25.31,2.06Z"/><path class="cls-3" d="M1783.58,1012.06l-.94-8.35c-4.12.45-8.24.86-12.39,1.18C1774.62,1007.36,1779.05,1009.73,1783.58,1012.06Z"/><path class="cls-3" d="M1757.79,1005.73l.48,8.39c4.22-.24,8.43-.51,12.65-.86"/><path class="cls-2" d="M1732.74,1006.82c8.37-.31,16.75-.62,25-1.09l.48,8.39c-8.44.47-16.83.79-25.23,1.1Z"/><path class="cls-3" d="M1758.27,1014.12l-.48-8.39c-4.16.25-8.31.43-12.5.6C1749.59,1009,1753.89,1011.57,1758.27,1014.12Z"/><polyline class="cls-3" points="1732.74 1006.82 1733.04 1015.22 1745.64 1014.73"/><path class="cls-2" d="M1707.63,1007.6q12.55-.33,25.11-.78l.3,8.4q-12.58.45-25.19.78Z"/><polygon class="cls-3" points="1733.04 1015.22 1732.74 1006.82 1720.18 1007.24 1733.04 1015.22"/><polyline class="cls-3" points="1707.63 1007.6 1707.85 1016 1720.45 1015.64"/><path class="cls-2" d="M1682.51,1008.12q12.57-.2,25.12-.52l.22,8.4q-12.6.32-25.21.52Z"/><polygon class="cls-3" points="1707.85 1016 1707.63 1007.6 1695.07 1007.89 1707.85 1016"/><polyline class="cls-3" points="1682.51 1008.12 1682.64 1016.52 1695.25 1016.29"/><path class="cls-2" d="M1657.39,1008.38q12.57-.06,25.12-.26l.13,8.4q-12.6.19-25.21.26Z"/><polygon class="cls-3" points="1682.64 1016.52 1682.51 1008.12 1669.95 1008.28 1682.64 1016.52"/><polyline class="cls-3" points="1657.39 1008.38 1657.43 1016.78 1670.04 1016.68"/><path class="cls-2" d="M1632.28,1008.35q12.56.09,25.11,0l0,8.4q-12.6.06-25.21,0Z"/><polygon class="cls-3" points="1657.43 1016.78 1657.39 1008.38 1644.84 1008.4 1657.43 1016.78"/><polyline class="cls-3" points="1632.28 1008.35 1632.22 1016.75 1644.83 1016.8"/><path class="cls-2" d="M1607.17,1008q12.55.25,25.11.35l-.06,8.4q-12.62-.09-25.23-.36Z"/><polygon class="cls-3" points="1632.22 1016.75 1632.28 1008.35 1619.72 1008.22 1632.22 1016.75"/><polyline class="cls-3" points="1607.17 1008 1606.99 1016.39 1619.61 1016.62"/><path class="cls-2" d="M1582.1,1007.24q12.53.5,25.07.76l-.18,8.39q-12.6-.27-25.23-.75Z"/><path class="cls-3" d="M1607,1016.39l.18-8.39-12.54-.32Q1600.78,1012.06,1607,1016.39Z"/><polyline class="cls-3" points="1582.1 1007.24 1581.76 1015.63 1594.38 1016.07"/><path class="cls-2" d="M1557.08,1005.93c8.32.56,16.67,1,25,1.31l-.34,8.4c-8.41-.34-16.82-.76-25.24-1.33Z"/><path class="cls-3" d="M1581.76,1015.64l.34-8.4q-6.27-.24-12.52-.57Q1575.61,1011.19,1581.76,1015.64Z"/><path class="cls-3" d="M1557.08,1005.93l-.56,8.38q6.32.42,12.62.75"/><path class="cls-2" d="M1532.26,1003.66c8.2,1,16.51,1.7,24.82,2.27l-.56,8.38c-8.42-.57-16.85-1.27-25.3-2.31Z"/><path class="cls-3" d="M1556.52,1014.31l.56-8.38q-6.24-.42-12.45-1C1548.52,1008.12,1552.5,1011.23,1556.52,1014.31Z"/><path class="cls-3" d="M1532.26,1003.66l-1,8.34c4.23.52,8.45,1,12.66,1.33"/><path class="cls-2" d="M1512.06,999.67l.35.13.6.2c.43.15.89.29,1.35.42,1.83.53,3.79,1,5.76,1.36,4,.78,8,1.37,12.14,1.88l-1,8.34c-4.22-.53-8.45-1.14-12.72-2-2.14-.42-4.28-.9-6.48-1.53l-1.66-.51c-.29-.1-.52-.17-.88-.31l-.51-.19-.25-.09-.36-.15a13.71,13.71,0,0,1-4.95-3.17Z"/><path class="cls-3" d="M1531.22,1012l1-8.34c-4.1-.51-8.17-1.1-12.14-1.88C1523.55,1005.31,1527.35,1008.69,1531.22,1012Z"/><path class="cls-3" d="M1512.06,999.67l-8.65,4.4a13.71,13.71,0,0,0,4.95,3.17l.36.15.25.09.51.19c.36.14.59.21.88.31l1.66.51c2.2.63,4.34,1.11,6.48,1.53"/><path class="cls-2" d="M1503.41,1004.07a6.62,6.62,0,0,1-.26-2.43,4.68,4.68,0,0,1,.73-2.27,6,6,0,0,1,4.15-2.23,7.47,7.47,0,0,1,2,0c.27.05.55.11.81.18l.36.11.45.08c1.18.23,2.34.51,3.5.83,2.42-.91,5-1.69,7.63-2.4a4.12,4.12,0,0,0,2.3-1.64,96,96,0,0,0-12.88-3.83c-1,.4-2.11.82-3.2,1.32l-.4.19-.62.32c-.4.2-.81.41-1.27.69a13.6,13.6,0,0,0-1.29.83l-.62.45-.54.48a7,7,0,0,0-2.51,4.53,6,6,0,0,0,.33,2.57A6.7,6.7,0,0,0,1503.41,1004.07Z"/><path class="cls-3" d="M1503.41,1004.07l8.65-4.4.49-.23c.82-.38,1.7-.74,2.62-1.08-1.16-.32-2.32-.6-3.5-.83l-.45-.08-.36-.11c-.26-.07-.54-.13-.81-.18a7.47,7.47,0,0,0-2,0,6,6,0,0,0-4.15,2.23,4.68,4.68,0,0,0-.73,2.27A6.62,6.62,0,0,0,1503.41,1004.07Z"/><path class="cls-3" d="M1520.58,987.85c-2.77.77-5.55,1.6-8.36,2.64a96,96,0,0,1,12.88,3.83,4.25,4.25,0,0,0,.65-3.47A4.16,4.16,0,0,0,1520.58,987.85Z"/><ellipse class="cls-21" cx="627.89" cy="59.35" rx="112.3" ry="55.74" transform="translate(-2.26 33.38) rotate(-3.04)"/><ellipse class="cls-21" cx="708.31" cy="-1.27" rx="80.1" ry="39.76" transform="translate(1.06 37.56) rotate(-3.04)"/><ellipse class="cls-21" cx="519.91" cy="51.45" rx="97.52" ry="48.41" transform="translate(-2 27.64) rotate(-3.04)"/><ellipse class="cls-21" cx="601.23" cy="12.28" rx="70.5" ry="35" transform="translate(0.19 31.9) rotate(-3.04)"/><ellipse class="cls-22" cx="546.26" cy="56.36" rx="73.07" ry="36.27" transform="translate(-2.22 29.04) rotate(-3.04)"/><ellipse class="cls-21" cx="818.39" cy="41.96" rx="143.15" ry="67.93" transform="translate(-0.73 65.75) rotate(-4.6)"/><ellipse class="cls-22" cx="819.16" cy="49.57" rx="80.68" ry="40.05" transform="translate(-1.48 43.5) rotate(-3.04)"/><ellipse class="cls-22" cx="674.66" cy="32.76" rx="83.82" ry="41.61" transform="translate(-0.79 35.82) rotate(-3.04)"/><ellipse class="cls-21" cx="986.92" cy="32.2" rx="122.59" ry="58.17" transform="translate(0.6 79.23) rotate(-4.6)"/><ellipse class="cls-22" cx="966.14" cy="25.19" rx="106.9" ry="26.84" transform="translate(1.86 90.26) rotate(-5.35)"/><ellipse class="cls-21" cx="1315.67" cy="64.7" rx="85.09" ry="59.44" transform="translate(-1.33 38.32) rotate(-1.67)"/><ellipse class="cls-21" cx="1375.32" cy="2.02" rx="60.7" ry="42.39" transform="translate(0.52 40.03) rotate(-1.67)"/><ellipse class="cls-21" cx="1233.51" cy="53.79" rx="73.9" ry="51.61" transform="matrix(1, -0.03, 0.03, 1, -1.04, 35.93)"/><ellipse class="cls-21" cx="1294.34" cy="13.96" rx="53.42" ry="37.32" transform="translate(0.14 37.68) rotate(-1.67)"/><ellipse class="cls-22" cx="1253.62" cy="59.63" rx="55.37" ry="38.67" transform="translate(-1.2 36.51) rotate(-1.67)"/><ellipse class="cls-21" cx="1459.9" cy="50.6" rx="108.44" ry="72.45" transform="translate(0.98 124.16) rotate(-4.87)"/><ellipse class="cls-22" cx="1460.66" cy="58.73" rx="61.14" ry="42.7" transform="translate(-1.09 42.54) rotate(-1.67)"/><ellipse class="cls-22" cx="1350.57" cy="37.48" rx="63.52" ry="44.37" transform="translate(-0.52 39.33) rotate(-1.67)"/><ellipse class="cls-21" cx="1587.63" cy="44.12" rx="92.86" ry="62.05" transform="translate(1.99 134.98) rotate(-4.87)"/><ellipse class="cls-22" cx="1571.69" cy="36.18" rx="80.99" ry="28.63" transform="translate(4.56 161.18) rotate(-5.88)"/><path class="cls-23" d="M1251.85,255.17c23.13-7,45.21-1.32,55.42,21.77-14.93-33.76-27.26-47.36-64.48-33.87l-.2-.64c26.31-14.41,59.84-7.76,69.14,27,2.26-19.3,3-39.41,9.87-57.53l.56.26c-4.58,19.54-4.28,40.19-4.57,60.28,8-23.46,27.65-39.56,50.32-35l-.05.68c-23.8-1.48-40,16.92-46,41.69,12-18.93,36.42-24.48,54-12.37l-.29.6c-23.27-11.94-45.07,4.8-56,27.17-26.24,4.38-29.84-56.38-78.51-34.6l-.25-.62A49.36,49.36,0,0,1,1251.85,255.17Z"/><path class="cls-23" d="M1525.41,287.91c-26.72-13.73-57.81-15.22-82,11.78,15.32-52,51.12-57.89,87-41.64-28-34.25-82.53-29.24-101.18,32.2-1.72-18.43-6.78-95.5-15.52-100.3,4.34,31.14,3,63.76,3,95.59-14.67-38.89-42.53-58.14-68.4-49.49-.47,4.1,2.29,2.31,3.83,3,23.39,2.8,46.58,26.1,54.44,65.72-20.41-27.67-49.64-31.47-72.31-10,81.62-21.46,54.22,70.24,100,54.33,16.32-16,27.65-46.25,46.5-52.83C1500.71,284.38,1551.92,302,1525.41,287.91Z"/><path class="cls-24" d="M1269.55,91.31c23.35-8,45.65-1.52,56,25.06-15.07-38.87-27.53-54.52-65.1-39l-.21-.74c26.57-16.58,60.42-8.93,69.81,31.08,2.28-22.23,3.07-45.38,10-66.24l.56.31c-4.62,22.5-4.32,46.26-4.61,69.39,8.1-27,27.92-45.54,50.8-40.33l0,.79c-24-1.71-40.37,19.48-46.4,48,12.15-21.8,36.77-28.18,54.52-14.24l-.29.69c-25.65-14.51-46.57,8.29-56.56,31.27-26.9,5.24-29.11-64.58-79.26-39.82l-.25-.72A47.19,47.19,0,0,1,1269.55,91.31Z"/><path class="cls-24" d="M873,198.44c-30.41-10.46-59.44-2-72.86,32.64,19.63-50.62,35.85-71,84.77-50.77l.27-1c-34.59-21.59-78.66-11.63-90.89,40.46-3-28.93-4-59.08-13-86.24l-.74.4c6,29.29,5.63,60.24,6,90.35-10.55-35.17-36.35-59.29-66.15-52.51l.07,1c31.29-2.22,52.56,25.37,60.42,62.49-15.83-28.37-47.88-36.68-71-18.54l.38.9c33.4-18.89,60.64,10.8,73.65,40.72,35,6.82,37.91-84.09,103.21-51.85l.32-.94C882.9,202.73,878.13,200,873,198.44Z"/><line class="cls-25" x1="1742.4" y1="382.7" x2="1829.55" y2="545.89"/><line class="cls-25" x1="1535.66" y1="138.29" x2="1637.91" y2="382.7"/><path class="cls-24" d="M288.3,820.68c20.59-8.59,44.54-9.52,63.19,7.36-11.92-33-40.39-35.92-67-26,21.57-21.41,63.59-18.27,78,20.12,1.33-11.51,5.23-59.69,12-62.69C371,778.91,372,799.3,372,819.19c11.3-24.3,32.77-36.34,52.7-30.93.36,2.56-1.77,1.44-3,1.91-18,1.75-35.89,16.31-41.95,41.07,15.73-17.29,38.25-19.67,55.71-6.25-35.48-4.11-37.17-3.53-60.85,33.84C344,869.3,347.55,819.38,301.31,822.9,296.6,822.33,271.16,828,288.3,820.68Z"/><path class="cls-23" d="M431.18,765.19c25.72-11.69,55.63-13,78.92,10C495.35,731,460.91,726,426.38,739.79c26.94-29.15,79.41-24.88,97.36,27.39,1.66-15.68,6.53-81.25,14.93-85.34-4.17,26.5-2.9,54.25-2.92,81.33,14.11-33.08,40.92-49.47,65.82-42.11.45,3.5-2.21,2-3.69,2.61-22.51,2.37-44.82,22.19-52.38,55.9,19.64-23.54,47.76-26.77,69.57-8.5-78.53-18.26-52.17,59.76-96.21,46.22-15.71-13.64-26.61-39.34-44.74-44.94C455,762.19,405.68,777.14,431.18,765.19Z"/><path class="cls-26" d="M998,1093.9l147.62-19.5c74.07-3.66,238.84-7.21,316.52-8.23l27.87-6.78,221.09-21.51,267.21-51-41,107.65Z"/><path class="cls-27" d="M809.19,285.48c-1.56,116-543.57,116-545.09,0C265.67,169.46,807.68,169.47,809.19,285.48Z"/><path class="cls-28" d="M281.48,605.73c.55,134.34-334.29,134.32-333.7,0C-52.77,471.39,282.07,471.41,281.48,605.73Z"/><path class="cls-29" d="M397,426.1c5,97-343.32,97-338.27,0C53.71,329,402,329,397,426.1Z"/><path class="cls-30" d="M187.29,1174.53c-14.51-92.5-15.81-190.39-17.32-284-4.73-283.79-7.8-568.4-4.36-852.16H109.22c3.44,283.75.37,568.38-4.36,852.16-1.51,93.69-2.8,191.49-17.32,284Z"/><rect class="cls-31" x="-36.13" y="300.99" width="409.43" height="35.8" transform="translate(-191.95 330.24) rotate(-63.94)"/><path class="cls-32" d="M595.48,162.35c5,97.06-343.31,97.06-338.27,0C252.2,65.3,600.52,65.3,595.48,162.35Z"/><path class="cls-33" d="M235.06,378C239.34,461-58.3,461-54,378-58.28,295.09,239.37,295.09,235.06,378Z"/><path class="cls-34" d="M229.24,523.66c4.11,79.59-281.55,79.59-277.41,0C-52.29,444.06,233.38,444.06,229.24,523.66Z"/><path class="cls-33" d="M397,302.4c5.63,108.94-385.34,108.94-379.68,0C11.68,193.46,402.65,193.46,397,302.4Z"/><path class="cls-33" d="M326.8,188.07c.93,76.87-232.33,76.85-231.36,0C94.5,111.21,327.76,111.22,326.8,188.07Z"/><polygon class="cls-31" points="343.14 351.2 535.67 228.07 519.32 207.22 326.8 330.35 343.14 351.2"/><path class="cls-31" d="M77.16,709.1c14.57-19.29,35.63-36.07,53.25-52.59,30.65-27.61,62-55.61,93.59-82.08l-9-10.3c-30.58,27.58-62.67,54.79-94.25,81.32C102,660.62,82.48,679.12,61.32,690.89Z"/><path class="cls-31" d="M386.64,1189.58c-23.41-116.66-22.84-240.31-25.76-358.91C354.79,525.14,350.66,219,355.53-86.54H274.58c4.87,305.53.74,611.69-5.35,917.21-2.93,118.64-2.35,242.19-25.77,358.91Z"/><path class="cls-31" d="M120.06,1374.06c-15.65-111.45-17-229.09-18.64-341.71C96.38,692.37,93,347,96.72,7.21H36c3.72,339.67.34,685.22-4.7,1025.14-1.63,112.66-3,230.19-18.64,341.71Z"/><path class="cls-35" d="M249.2,212.69c5,97.06-343.31,97.06-338.27,0C-94.08,115.64,254.24,115.64,249.2,212.69Z"/><path class="cls-33" d="M-177.49,76.16c-20.92,192.72,1133.77,192.72,1112.77,0C956.19-116.57-198.5-116.57-177.49,76.16Z"/><path class="cls-35" d="M809.1,188.07C816.5,280,371.55,280,379,188.06,371.58,96.14,816.54,96.14,809.1,188.07Z"/><line class="cls-36" x1="459.22" y1="417" x2="337.96" y2="591.48"/><path class="cls-37" d="M685.7,385.47c5.25,101.65-359.56,101.65-354.28,0C326.17,283.82,691,283.82,685.7,385.47Z"/><path class="cls-37" d="M336,554.77c3.43,66.38-234.81,66.38-231.36,0C101.16,488.39,339.4,488.39,336,554.77Z"/><path class="cls-38" d="M1995.73,59.44c-1.88,119.34-633.49,119.33-635.31,0C1362.3-59.9,1993.9-59.89,1995.73,59.44Z"/><path class="cls-38" d="M2072.69,235.14c5.94,114.94-406.54,114.94-400.57,0C1666.18,120.21,2078.66,120.21,2072.69,235.14Z"/><path class="cls-39" d="M1791.43,188.08c7.29,141.08-499,141.08-491.71,0C1292.43,47,1798.76,47,1791.43,188.08Z"/><path class="cls-31" d="M1611.87,1000.26c20.64-342.81,11.14-691.33,12.69-1034.37h33c1.55,343-8,691.59,12.69,1034.37Z"/><path class="cls-31" d="M1786.7,1148.21c12.48-98.32,13.64-201.76,14.81-300.91,4.09-298.3,6.77-604.85,3.82-902.74h48.45c-3,297.78-.27,604.54,3.82,902.73,1.16,99.17,2.33,202.53,14.8,300.92Z"/><path class="cls-33" d="M1707,147.31c6,117.15-414.4,117.15-408.31,0C1292.61,30.16,1713.05,30.16,1707,147.31Z"/><path class="cls-40" d="M1667.59,96.62c4.35,84.12-297.58,84.12-293.21,0C1370,12.49,1672,12.49,1667.59,96.62Z"/><path class="cls-33" d="M1889.57,389.19c4,77.46-274,77.46-270,0C1615.61,311.74,1893.59,311.74,1889.57,389.19Z"/><path class="cls-35" d="M2066.77,96.62c7.35,142.28-503.3,142.28-495.91,0C1563.51-45.67,2074.16-45.67,2066.77,96.62Z"/><path class="cls-37" d="M414.13,96.62c6,116.5-412.08,116.5-406,0C2.08-19.88,420.18-19.88,414.13,96.62Z"/><path class="cls-41" d="M377.9,676s-36-170.08-16.18-159.58a7.91,7.91,0,0,1,2.62,2.15"/><rect class="cls-31" x="361.57" y="515.87" width="13.27" height="7.89" transform="translate(-268.78 525.52) rotate(-55.2)"/></g></g></svg>