<svg xmlns="http://www.w3.org/2000/svg" viewBox="0 0 1920 1080"><defs><style>.cls-1{fill:#8a8553;}.cls-12,.cls-13,.cls-15,.cls-16,.cls-19,.cls-2,.cls-5,.cls-8{fill:none;stroke-miterlimit:10;}.cls-2{stroke:#7d794b;stroke-width:34px;}.cls-3{fill:#637d3d;}.cls-4{fill:#63873d;}.cls-12,.cls-15,.cls-16,.cls-19,.cls-5,.cls-8{stroke:#57482b;}.cls-5{stroke-width:18.62px;}.cls-6{fill:#848568;}.cls-7{fill:#62634e;}.cls-8{stroke-width:17.38px;}.cls-9{fill:#757d36;}.cls-10{fill:#7f873b;}.cls-11{fill:#918c57;}.cls-12{stroke-width:32.96px;}.cls-13{stroke:#878250;stroke-width:84px;}.cls-14{fill:#6c9442;}.cls-15{stroke-width:32.57px;}.cls-16{stroke-width:55.85px;}.cls-17{fill:#9b944e;}.cls-18{fill:#948e4b;}.cls-19{stroke-width:80.34px;}.cls-20{opacity:0.5;}.cls-21{opacity:0.7;}</style></defs><g id="before-plains"><g id="bp-plains-3"><polygon class="cls-1" points="1967.83 378.56 -62.84 332.43 -62.84 -50.71 1957.16 -43.77 1967.83 378.56"/><path class="cls-2" d="M1027.33-52c214.58,190.67-272.45,96.21-290.22,290.54"/><ellipse class="cls-3" cx="863.69" cy="51.39" rx="81.68" ry="34.46" transform="translate(-0.65 12.52) rotate(-0.83)"/><ellipse class="cls-3" cx="763.35" cy="30.81" rx="58.26" ry="24.58" transform="translate(-0.37 11.07) rotate(-0.83)"/><ellipse class="cls-3" cx="953.38" cy="34.3" rx="70.94" ry="29.93" transform="translate(-0.4 13.82) rotate(-0.83)"/><ellipse class="cls-3" cx="885.3" cy="21.67" rx="51.28" ry="21.64" transform="translate(-0.22 12.83) rotate(-0.83)"/><ellipse class="cls-3" cx="732.97" cy="74.1" rx="81.68" ry="34.46" transform="translate(-1 10.63) rotate(-0.83)"/><ellipse class="cls-3" cx="677.07" cy="38.56" rx="58.26" ry="24.58" transform="translate(-0.49 9.82) rotate(-0.83)"/><ellipse class="cls-3" cx="812.11" cy="66.66" rx="70.94" ry="29.93" transform="translate(-0.88 11.78) rotate(-0.83)"/><ellipse class="cls-3" cx="754.58" cy="44.39" rx="51.28" ry="21.64" transform="translate(-0.56 10.94) rotate(-0.83)"/><ellipse class="cls-4" cx="792.66" cy="70.32" rx="53.15" ry="22.42" transform="matrix(1, -0.01, 0.01, 1, -0.94, 11.49)"/><ellipse class="cls-3" cx="594.78" cy="67.88" rx="42.12" ry="103.82" transform="translate(521.19 661.98) rotate(-89.45)"/><ellipse class="cls-4" cx="593.87" cy="72.61" rx="58.69" ry="24.76" transform="translate(-0.99 8.61) rotate(-0.83)"/><ellipse class="cls-4" cx="700.06" cy="58.79" rx="60.97" ry="25.73" transform="translate(-0.78 10.15) rotate(-0.83)"/><ellipse class="cls-3" cx="472.27" cy="65.86" rx="36.07" ry="88.91" transform="translate(401.88 537.47) rotate(-89.45)"/><ellipse class="cls-4" cx="487.75" cy="61.04" rx="16.69" ry="77.32" transform="translate(407.07 545.93) rotate(-87.68)"/><ellipse class="cls-4" cx="893.08" cy="38.56" rx="60.97" ry="14.97" transform="translate(-0.47 12.95) rotate(-0.83)"/><ellipse class="cls-3" cx="1837.3" cy="109.51" rx="45.59" ry="33.87" transform="translate(-3.11 86.22) rotate(-2.69)"/><ellipse class="cls-3" cx="1806.12" cy="74.57" rx="32.52" ry="24.16" transform="translate(-1.51 84.72) rotate(-2.69)"/><ellipse class="cls-3" cx="1881.45" cy="102.19" rx="39.59" ry="29.41" transform="translate(-2.72 88.28) rotate(-2.69)"/><ellipse class="cls-3" cx="1849.36" cy="80.3" rx="28.62" ry="21.26" transform="translate(-1.73 86.75) rotate(-2.69)"/><ellipse class="cls-4" cx="1870.6" cy="105.79" rx="29.66" ry="22.04" transform="translate(-2.9 87.78) rotate(-2.69)"/><ellipse class="cls-3" cx="1760.21" cy="103.4" rx="41.4" ry="57.93" transform="translate(1605.98 1859.88) rotate(-88.34)"/><ellipse class="cls-4" cx="1759.7" cy="108.04" rx="32.75" ry="24.33" transform="translate(-3.13 82.58) rotate(-2.69)"/><ellipse class="cls-4" cx="1818.94" cy="94.45" rx="34.03" ry="25.28" transform="translate(-2.43 85.34) rotate(-2.69)"/><ellipse class="cls-3" cx="1691.87" cy="101.4" rx="35.45" ry="49.61" transform="translate(1541.61 1789.64) rotate(-88.34)"/><ellipse class="cls-4" cx="1700.51" cy="96.66" rx="16.38" ry="43.21" transform="translate(1469.57 1784.19) rotate(-85.46)"/><line class="cls-5" x1="34.62" y1="-23.24" x2="45.66" y2="128.78"/><ellipse class="cls-3" cx="35.12" cy="-16.35" rx="66.34" ry="42.15"/><ellipse class="cls-3" cx="294.66" cy="113.22" rx="81.68" ry="34.46" transform="translate(-1.61 4.28) rotate(-0.83)"/><ellipse class="cls-3" cx="238.77" cy="77.67" rx="58.26" ry="24.58" transform="translate(-1.1 3.47) rotate(-0.83)"/><ellipse class="cls-3" cx="373.8" cy="105.77" rx="70.94" ry="29.93" transform="translate(-1.49 5.43) rotate(-0.83)"/><ellipse class="cls-3" cx="316.27" cy="83.5" rx="51.28" ry="21.64" transform="translate(-1.18 4.59) rotate(-0.83)"/><ellipse class="cls-4" cx="354.35" cy="109.44" rx="53.15" ry="22.42" transform="translate(-1.55 5.15) rotate(-0.83)"/><ellipse class="cls-3" cx="156.47" cy="107" rx="42.12" ry="103.82" transform="translate(47.98 262.43) rotate(-89.45)"/><ellipse class="cls-4" cx="155.56" cy="111.72" rx="58.69" ry="24.76" transform="translate(-1.6 2.27) rotate(-0.83)"/><ellipse class="cls-4" cx="261.76" cy="97.9" rx="60.97" ry="25.73" transform="translate(-1.39 3.8) rotate(-0.83)"/><ellipse class="cls-3" cx="33.96" cy="104.97" rx="36.07" ry="88.91" transform="translate(-71.33 137.92) rotate(-89.45)"/><ellipse class="cls-4" cx="49.45" cy="100.15" rx="16.69" ry="77.32" transform="translate(-52.62 145.51) rotate(-87.68)"/><polygon class="cls-6" points="8.67 101.98 46 96.41 81.26 121.28 86.34 146.04 35.05 155.07 -7.82 138.62 8.67 101.98"/><polygon class="cls-7" points="103.29 138.62 86.34 146.04 47.02 96.53 75.16 116.48 103.29 138.62"/><line class="cls-5" x1="1126.03" y1="-17.9" x2="1137.08" y2="134.12"/><ellipse class="cls-3" cx="1126.53" cy="-11.01" rx="66.34" ry="42.15"/><polygon class="cls-6" points="340.61 197.01 359.95 184.62 377.87 178.11 400.23 179.83 419.21 193.81 430.75 225.18 381.47 231.22 340.27 220.22 340.61 197.01"/><polygon class="cls-7" points="447.04 220.22 430.75 225.18 417.82 194.63 400.23 179.83 430.13 195.16 447.04 220.22"/><polygon class="cls-6" points="838.67 178.64 865.02 161.76 889.43 152.9 919.89 155.24 945.74 174.27 961.45 217 894.33 225.23 838.22 210.25 838.67 178.64"/><polygon class="cls-7" points="983.64 210.25 961.45 217 943.84 175.4 919.89 155.24 960.61 176.12 983.64 210.25"/><line class="cls-8" x1="559.5" y1="-19.06" x2="549.19" y2="122.84"/><ellipse class="cls-3" cx="465.66" cy="176.39" rx="52.7" ry="35.5"/><ellipse class="cls-9" cx="572.81" cy="130.88" rx="53.97" ry="29.78"/><ellipse class="cls-3" cx="559.03" cy="-12.63" rx="61.93" ry="39.35"/><ellipse class="cls-4" cx="551.61" cy="174.27" rx="47.37" ry="31.91"/><ellipse class="cls-3" cx="1161.13" cy="127.29" rx="46.2" ry="36.76" transform="translate(-5.62 71.52) rotate(-3.52)"/><ellipse class="cls-3" cx="1129.54" cy="89.35" rx="32.95" ry="26.22" transform="translate(-3.35 69.51) rotate(-3.52)"/><ellipse class="cls-3" cx="1205.87" cy="119.35" rx="40.12" ry="31.93" transform="translate(-5.05 74.25) rotate(-3.52)"/><ellipse class="cls-3" cx="1173.35" cy="95.58" rx="29" ry="23.08" transform="translate(-3.65 72.21) rotate(-3.52)"/><ellipse class="cls-4" cx="1194.87" cy="123.26" rx="30.06" ry="23.92" transform="translate(-5.31 73.58) rotate(-3.52)"/><ellipse class="cls-3" cx="1083.03" cy="120.65" rx="44.95" ry="58.7" transform="matrix(0.04, -1, 1, 0.04, 922.77, 1198.53)"/><ellipse class="cls-4" cx="1082.51" cy="125.7" rx="33.19" ry="26.41" transform="translate(-5.67 66.69) rotate(-3.52)"/><ellipse class="cls-4" cx="1142.53" cy="110.94" rx="34.48" ry="27.44" transform="translate(-4.66 70.34) rotate(-3.52)"/><ellipse class="cls-3" cx="1013.78" cy="118.49" rx="38.49" ry="50.27" transform="translate(858.23 1127.25) rotate(-87.9)"/><ellipse class="cls-4" cx="1022.53" cy="113.34" rx="17.77" ry="43.81" transform="translate(820.75 1122.16) rotate(-85.01)"/><ellipse class="cls-3" cx="347.32" cy="264.46" rx="56.77" ry="74.4" transform="translate(68.94 600.73) rotate(-87.67)"/><ellipse class="cls-3" cx="401.69" cy="207.54" rx="40.5" ry="53.07" transform="matrix(0.04, -1, 1, 0.04, 177.97, 600.44)"/><ellipse class="cls-3" cx="275.96" cy="250.07" rx="49.3" ry="64.61" transform="translate(14.87 515.63) rotate(-87.67)"/><ellipse class="cls-3" cx="330.53" cy="215.01" rx="35.64" ry="46.71" transform="translate(102.24 536.51) rotate(-87.67)"/><ellipse class="cls-4" cx="293.32" cy="256.62" rx="36.94" ry="48.41" transform="translate(24.97 539.25) rotate(-87.67)"/><ellipse class="cls-3" cx="473.78" cy="258" rx="94.75" ry="69.25" transform="translate(-8.72 16.71) rotate(-2)"/><ellipse class="cls-4" cx="474.15" cy="265.79" rx="40.79" ry="53.45" transform="translate(189.28 728.73) rotate(-87.67)"/><ellipse class="cls-4" cx="378.78" cy="240.17" rx="42.38" ry="55.53" transform="matrix(0.04, -1, 1, 0.04, 123.39, 608.86)"/><ellipse class="cls-3" cx="585.56" cy="258" rx="81.15" ry="59.3" transform="translate(-8.65 20.61) rotate(-2)"/><ellipse class="cls-4" cx="571.93" cy="249.65" rx="70.77" ry="27.36" transform="translate(-13.28 32.95) rotate(-3.26)"/><ellipse class="cls-4" cx="1376.79" cy="-10.7" rx="48.44" ry="30.01"/><line class="cls-5" x1="1365.47" y1="-12.08" x2="1358.81" y2="152"/><ellipse class="cls-4" cx="1351.56" cy="-17.53" rx="58.26" ry="53.52"/><ellipse class="cls-3" cx="1425.91" cy="114.29" rx="52.96" ry="39.34" transform="translate(-3.79 66.95) rotate(-2.69)"/><ellipse class="cls-3" cx="1389.68" cy="73.7" rx="37.77" ry="28.06" transform="translate(-1.93 65.21) rotate(-2.69)"/><ellipse class="cls-3" cx="1477.19" cy="105.79" rx="45.99" ry="34.17" transform="translate(-3.33 69.34) rotate(-2.69)"/><ellipse class="cls-3" cx="1439.91" cy="80.36" rx="33.25" ry="24.7" transform="translate(-2.18 67.57) rotate(-2.69)"/><ellipse class="cls-4" cx="1464.59" cy="109.97" rx="34.46" ry="25.6" transform="translate(-3.54 68.76) rotate(-2.69)"/><ellipse class="cls-3" cx="1336.35" cy="107.19" rx="48.09" ry="67.29" transform="translate(1190.58 1439.89) rotate(-88.34)"/><ellipse class="cls-4" cx="1335.76" cy="112.58" rx="38.05" ry="28.27" transform="translate(-3.81 62.72) rotate(-2.69)"/><ellipse class="cls-4" cx="1404.58" cy="96.8" rx="39.53" ry="29.37" transform="translate(-2.99 65.93) rotate(-2.69)"/><ellipse class="cls-3" cx="1256.96" cy="104.87" rx="41.19" ry="57.63" transform="translate(1115.8 1358.28) rotate(-88.34)"/><ellipse class="cls-4" cx="1267" cy="99.37" rx="19.03" ry="50.2" transform="translate(1067.67 1354.53) rotate(-85.46)"/><line class="cls-5" x1="1241.02" y1="9.09" x2="1234.35" y2="173.17"/><ellipse class="cls-9" cx="1223.54" cy="3.35" rx="58.26" ry="53.52"/><ellipse class="cls-10" cx="1252.34" cy="10.47" rx="48.44" ry="30.01"/><ellipse class="cls-3" cx="260.43" cy="169.15" rx="75.05" ry="31.67" transform="translate(-2.42 3.79) rotate(-0.83)"/><ellipse class="cls-3" cx="209.07" cy="136.49" rx="53.54" ry="22.59" transform="translate(-1.96 3.04) rotate(-0.83)"/><ellipse class="cls-3" cx="333.15" cy="162.31" rx="65.18" ry="27.5" transform="translate(-2.32 4.85) rotate(-0.83)"/><ellipse class="cls-3" cx="280.29" cy="141.84" rx="47.12" ry="19.88" transform="translate(-2.03 4.08) rotate(-0.83)"/><ellipse class="cls-4" cx="315.28" cy="165.67" rx="48.83" ry="20.6" transform="translate(-2.37 4.59) rotate(-0.83)"/><ellipse class="cls-3" cx="133.46" cy="163.43" rx="38.7" ry="95.4" transform="translate(-31.25 295.31) rotate(-89.45)"/><ellipse class="cls-4" cx="132.62" cy="167.77" rx="53.92" ry="22.75" transform="translate(-2.42 1.94) rotate(-0.83)"/><ellipse class="cls-4" cx="230.2" cy="155.07" rx="56.02" ry="23.64" transform="translate(-2.22 3.35) rotate(-0.83)"/><ellipse class="cls-3" cx="20.89" cy="161.57" rx="33.14" ry="81.7" transform="translate(-140.87 180.91) rotate(-89.45)"/><ellipse class="cls-4" cx="35.12" cy="157.14" rx="15.34" ry="71.04" transform="translate(-123.31 185.88) rotate(-87.68)"/><polygon class="cls-6" points="54.55 236.26 108.61 228.2 166.1 235.04 167.02 300.06 92.75 313.14 30.67 289.32 54.55 236.26"/><polygon class="cls-7" points="191.57 289.32 167.02 300.06 110.09 228.38 166.1 235.04 191.57 289.32"/><ellipse class="cls-4" cx="348.06" cy="-26.15" rx="48.44" ry="30.01"/><line class="cls-5" x1="336.74" y1="-27.53" x2="330.07" y2="136.55"/><ellipse class="cls-4" cx="322.82" cy="-32.98" rx="58.26" ry="53.52"/><line class="cls-5" x1="198.22" y1="-20.62" x2="191.56" y2="143.46"/><ellipse class="cls-9" cx="180.74" cy="-26.36" rx="58.26" ry="53.52"/><ellipse class="cls-10" cx="209.54" cy="-19.24" rx="48.44" ry="30.01"/><line class="cls-5" x1="1439.41" y1="-20.16" x2="1450.45" y2="131.86"/><ellipse class="cls-3" cx="1439.91" cy="-13.27" rx="66.34" ry="42.15"/><ellipse class="cls-4" cx="1800.98" cy="13.07" rx="48.44" ry="30.01"/><line class="cls-5" x1="1789.66" y1="11.69" x2="1782.99" y2="175.77"/><ellipse class="cls-4" cx="1775.74" cy="6.24" rx="58.26" ry="53.52"/><line class="cls-5" x1="1683.96" y1="21.62" x2="1677.29" y2="185.69"/><ellipse class="cls-9" cx="1666.48" cy="15.87" rx="58.26" ry="53.52"/><ellipse class="cls-10" cx="1695.27" cy="23" rx="48.44" ry="30.01"/><ellipse class="cls-3" cx="1470.93" cy="359.11" rx="88.7" ry="65.9" transform="translate(-15.21 69.33) rotate(-2.69)"/><ellipse class="cls-3" cx="1410.25" cy="291.11" rx="63.27" ry="47.01" transform="translate(-12.09 66.41) rotate(-2.69)"/><ellipse class="cls-3" cx="1556.83" cy="344.87" rx="77.03" ry="57.23" transform="translate(-14.45 73.34) rotate(-2.69)"/><ellipse class="cls-3" cx="1494.38" cy="302.26" rx="55.69" ry="41.37" transform="translate(-12.52 70.36) rotate(-2.69)"/><ellipse class="cls-4" cx="1535.72" cy="351.87" rx="57.72" ry="42.88" transform="translate(-14.8 72.35) rotate(-2.69)"/><ellipse class="cls-3" cx="1320.92" cy="347.21" rx="80.56" ry="112.72" transform="translate(935.68 1657.54) rotate(-88.34)"/><ellipse class="cls-4" cx="1319.93" cy="356.24" rx="63.73" ry="47.35" transform="translate(-15.24 62.25) rotate(-2.69)"/><ellipse class="cls-4" cx="1435.21" cy="329.81" rx="66.21" ry="49.19" transform="translate(-13.88 67.62) rotate(-2.69)"/><ellipse class="cls-3" cx="1187.94" cy="343.33" rx="68.99" ry="96.53" transform="translate(810.42 1520.84) rotate(-88.34)"/><ellipse class="cls-4" cx="1204.75" cy="334.1" rx="31.87" ry="84.09" transform="translate(776.35 1508.63) rotate(-85.46)"/></g><g id="bp-plains-2"><polygon class="cls-11" points="-50 714.36 1970 779.02 1970 55.41 -50 326.06 -50 714.36"/><ellipse class="cls-9" cx="498.04" cy="363.09" rx="102.32" ry="102.15"/><ellipse class="cls-10" cx="292.4" cy="368.72" rx="170.7" ry="72.46"/><ellipse class="cls-3" cx="1832.8" cy="201.38" rx="88.7" ry="65.9" transform="translate(-7.42 86.11) rotate(-2.69)"/><ellipse class="cls-3" cx="1772.13" cy="133.38" rx="63.27" ry="47.01" transform="translate(-4.3 83.19) rotate(-2.69)"/><ellipse class="cls-3" cx="1918.71" cy="187.14" rx="77.03" ry="57.23" transform="translate(-6.66 90.12) rotate(-2.69)"/><ellipse class="cls-3" cx="1856.26" cy="144.54" rx="55.69" ry="41.37" transform="translate(-4.73 87.15) rotate(-2.69)"/><ellipse class="cls-4" cx="1897.6" cy="194.15" rx="57.72" ry="42.88" transform="translate(-7.01 89.14) rotate(-2.69)"/><ellipse class="cls-3" cx="1682.8" cy="189.48" rx="80.56" ry="112.72" transform="translate(1444.76 1866.09) rotate(-88.34)"/><ellipse class="cls-4" cx="1681.81" cy="198.52" rx="63.73" ry="47.35" transform="translate(-7.46 79.03) rotate(-2.69)"/><ellipse class="cls-4" cx="1797.08" cy="172.08" rx="66.21" ry="49.19" transform="translate(-6.09 84.41) rotate(-2.69)"/><ellipse class="cls-3" cx="1549.81" cy="185.6" rx="68.99" ry="96.53" transform="translate(1319.49 1729.4) rotate(-88.34)"/><ellipse class="cls-4" cx="1566.62" cy="176.38" rx="31.87" ry="84.09" transform="translate(1266.82 1724.13) rotate(-85.46)"/><line class="cls-12" x1="429.72" y1="132.31" x2="441.52" y2="422.7"/><ellipse class="cls-9" cx="460.66" cy="122.15" rx="103.12" ry="94.72"/><ellipse class="cls-10" cx="409.7" cy="134.75" rx="85.73" ry="53.11"/><path class="cls-13" d="M639.91,233.62c27.45,195.93,821.26,403.63,803.49,598"/><polygon class="cls-6" points="1459.04 486.41 1492.78 464.8 1524.04 453.44 1563.05 456.45 1596.16 480.82 1616.27 535.54 1530.32 546.08 1458.46 526.89 1459.04 486.41"/><polygon class="cls-7" points="1644.69 526.89 1616.27 535.54 1593.72 482.26 1563.05 456.45 1615.2 483.18 1644.69 526.89"/><ellipse class="cls-14" cx="168.76" cy="127.48" rx="81.24" ry="67.03"/><line class="cls-12" x1="204.04" y1="111.45" x2="215.84" y2="401.84"/><line class="cls-12" x1="676.48" y1="122.86" x2="656.93" y2="391.9"/><ellipse class="cls-3" cx="537.59" cy="407.15" rx="102.32" ry="102.15"/><ellipse class="cls-4" cx="364.93" cy="418.67" rx="106.34" ry="90.57"/><ellipse class="cls-4" cx="1279.61" cy="287.97" rx="85.67" ry="62.65"/><ellipse class="cls-9" cx="39.48" cy="375.33" rx="102.32" ry="135.11"/><ellipse class="cls-9" cx="357.3" cy="483.63" rx="128.18" ry="73.46"/><ellipse class="cls-3" cx="191.55" cy="466.1" rx="117.36" ry="119.54"/><ellipse class="cls-3" cx="498.56" cy="493.43" rx="99.92" ry="67.3"/><ellipse class="cls-9" cx="701.72" cy="407.15" rx="102.32" ry="56.45"/><ellipse class="cls-3" cx="1062.72" cy="331.48" rx="85.67" ry="57.7"/><ellipse class="cls-9" cx="1394.41" cy="296.26" rx="85.67" ry="59.39"/><ellipse class="cls-4" cx="1281.8" cy="432.36" rx="85.67" ry="74.08"/><ellipse class="cls-3" cx="1394.41" cy="355.65" rx="64.02" ry="53.19"/><ellipse class="cls-9" cx="1744.38" cy="351.13" rx="113.49" ry="79.17"/><ellipse class="cls-3" cx="675.59" cy="135.06" rx="117.42" ry="74.6"/><ellipse class="cls-14" cx="228.67" cy="130.88" rx="103.12" ry="94.72"/><ellipse class="cls-4" cx="661.52" cy="489.42" rx="89.81" ry="60.49"/><ellipse class="cls-3" cx="1590.31" cy="58.11" rx="57.31" ry="52.49"/><line class="cls-15" x1="1527.29" y1="131.24" x2="1535.3" y2="328.39"/><ellipse class="cls-3" cx="1531.48" cy="93.6" rx="95.78" ry="87.98"/><ellipse class="cls-3" cx="1389.34" cy="429.89" rx="83.93" ry="66.81"/><ellipse class="cls-4" cx="1508.42" cy="350.61" rx="121.13" ry="84.51"/><ellipse class="cls-3" cx="841.17" cy="581.27" rx="62.1" ry="76.2" transform="translate(215.26 1389.77) rotate(-86.9)"/><ellipse class="cls-3" cx="896.85" cy="518.99" rx="44.29" ry="54.35" transform="translate(330.11 1386.46) rotate(-86.9)"/><ellipse class="cls-3" cx="768.09" cy="565.52" rx="53.93" ry="66.17" transform="translate(161.86 1301.91) rotate(-86.9)"/><ellipse class="cls-3" cx="823.97" cy="527.17" rx="38.99" ry="47.84" transform="translate(253.01 1321.43) rotate(-86.9)"/><ellipse class="cls-4" cx="785.87" cy="572.69" rx="40.41" ry="49.58" transform="translate(171.51 1326.44) rotate(-86.9)"/><ellipse class="cls-3" cx="970.68" cy="574.19" rx="97.05" ry="75.74" transform="translate(-24.58 43.75) rotate(-2.55)"/><ellipse class="cls-4" cx="971.06" cy="582.72" rx="44.62" ry="54.75" transform="translate(336.67 1520.85) rotate(-86.9)"/><ellipse class="cls-4" cx="873.39" cy="554.7" rx="46.35" ry="56.88" transform="translate(272.27 1396.81) rotate(-86.9)"/><ellipse class="cls-3" cx="1085.15" cy="574.19" rx="83.11" ry="64.87" transform="translate(-24.47 48.85) rotate(-2.55)"/><ellipse class="cls-4" cx="1071.19" cy="565.06" rx="72.49" ry="29.92" transform="translate(-33.13 67.85) rotate(-3.57)"/><ellipse class="cls-3" cx="1053.86" cy="377.35" rx="60.55" ry="81.5" transform="translate(627.54 1412.38) rotate(-87.31)"/><ellipse class="cls-3" cx="1109.61" cy="314.88" rx="43.19" ry="58.14" transform="translate(743.08 1408.52) rotate(-87.31)"/><ellipse class="cls-3" cx="974.93" cy="364.27" rx="52.59" ry="70.78" transform="translate(565.37 1321.06) rotate(-87.31)"/><ellipse class="cls-3" cx="1032.31" cy="325.13" rx="38.02" ry="51.17" transform="translate(659.17 1341.07) rotate(-87.31)"/><ellipse class="cls-4" cx="994.33" cy="370.71" rx="39.4" ry="53.03" transform="translate(577.43 1346.57) rotate(-87.31)"/><ellipse class="cls-3" cx="954.29" cy="265.23" rx="74.02" ry="103.57" transform="translate(661.59 1211.46) rotate(-88.34)"/><ellipse class="cls-4" cx="953.38" cy="273.54" rx="58.56" ry="43.51" transform="translate(-11.77 44.98) rotate(-2.69)"/><ellipse class="cls-4" cx="1086.68" cy="350.43" rx="45.2" ry="60.84" transform="translate(685.71 1419.5) rotate(-87.31)"/><ellipse class="cls-3" cx="832.1" cy="261.67" rx="63.39" ry="88.7" transform="translate(546.49 1085.86) rotate(-88.34)"/><ellipse class="cls-4" cx="847.55" cy="253.19" rx="29.28" ry="77.26" transform="translate(528.07 1078.04) rotate(-85.46)"/><ellipse class="cls-3" cx="1778.1" cy="466.1" rx="159.51" ry="124.9" transform="translate(-19.21 80.64) rotate(-2.58)"/><ellipse class="cls-3" cx="1662.66" cy="666.41" rx="119.57" ry="146.25" transform="translate(905.88 2289.94) rotate(-86.85)"/><ellipse class="cls-3" cx="1769.52" cy="546.5" rx="85.29" ry="104.32" transform="translate(1126.6 2283.32) rotate(-86.85)"/><ellipse class="cls-3" cx="1522.41" cy="636.09" rx="103.84" ry="127.01" transform="translate(803.61 2121.24) rotate(-86.85)"/><ellipse class="cls-3" cx="1629.66" cy="562.25" rx="75.07" ry="91.82" transform="translate(978.7 2158.55) rotate(-86.85)"/><ellipse class="cls-4" cx="1556.52" cy="649.89" rx="77.8" ry="95.16" transform="translate(822.07 2168.35) rotate(-86.85)"/><ellipse class="cls-3" cx="1911.24" cy="652.79" rx="186.26" ry="145.84" transform="translate(-27.49 86.83) rotate(-2.58)"/><ellipse class="cls-4" cx="1911.97" cy="669.21" rx="85.91" ry="105.08" transform="translate(1138.7 2541.51) rotate(-86.85)"/><ellipse class="cls-4" cx="1724.5" cy="615.25" rx="89.25" ry="109.17" transform="translate(1015.41 2303.33) rotate(-86.85)"/><ellipse class="cls-4" cx="1763.65" cy="429.89" rx="139.14" ry="57.62" transform="translate(-23.45 111.24) rotate(-3.59)"/><line class="cls-16" x1="1771.23" y1="374.4" x2="1784.97" y2="712.45"/><ellipse class="cls-3" cx="1778.42" cy="309.87" rx="164.23" ry="150.86"/><ellipse class="cls-4" cx="1739.39" cy="286" rx="98.26" ry="90"/></g><g id="bp-plains-1"><polygon class="cls-17" points="1970 1130 -50 1130 -50 471.06 1970 741.7 1970 1130"/><ellipse class="cls-3" cx="858.25" cy="653.36" rx="88.7" ry="65.9" transform="translate(-29.68 40.94) rotate(-2.69)"/><ellipse class="cls-3" cx="797.57" cy="585.37" rx="63.27" ry="47.01" transform="translate(-26.56 38.02) rotate(-2.69)"/><ellipse class="cls-3" cx="944.15" cy="639.12" rx="77.03" ry="57.23" transform="translate(-28.91 44.95) rotate(-2.69)"/><ellipse class="cls-3" cx="881.7" cy="596.52" rx="55.69" ry="41.37" transform="translate(-26.99 41.97) rotate(-2.69)"/><ellipse class="cls-4" cx="923.04" cy="646.13" rx="57.72" ry="42.88" transform="translate(-29.27 43.97) rotate(-2.69)"/><ellipse class="cls-3" cx="708.24" cy="641.46" rx="80.56" ry="112.72" transform="translate(46.58 1330.87) rotate(-88.34)"/><ellipse class="cls-4" cx="707.25" cy="650.5" rx="63.73" ry="47.35" transform="translate(-29.71 33.86) rotate(-2.69)"/><ellipse class="cls-4" cx="822.53" cy="624.06" rx="66.21" ry="49.19" transform="translate(-28.34 39.23) rotate(-2.69)"/><ellipse class="cls-3" cx="575.26" cy="637.58" rx="68.99" ry="96.53" transform="translate(-78.69 1194.17) rotate(-88.34)"/><ellipse class="cls-4" cx="592.07" cy="628.36" rx="31.87" ry="84.09" transform="translate(-81.18 1168.84) rotate(-85.46)"/><ellipse class="cls-3" cx="1645.06" cy="813.6" rx="116.12" ry="142.49" transform="translate(743.68 2412.25) rotate(-86.9)"/><ellipse class="cls-3" cx="1749.17" cy="697.15" rx="82.83" ry="101.63" transform="translate(958.44 2406.05) rotate(-86.9)"/><ellipse class="cls-3" cx="1508.42" cy="784.15" rx="100.84" ry="123.74" transform="translate(643.83 2247.95) rotate(-86.9)"/><ellipse class="cls-3" cx="1612.91" cy="712.44" rx="72.9" ry="89.46" transform="matrix(0.05, -1, 1, 0.05, 814.28, 2284.46)"/><ellipse class="cls-4" cx="1541.66" cy="797.56" rx="75.55" ry="92.71" transform="translate(661.89 2293.82) rotate(-86.9)"/><ellipse class="cls-3" cx="1887.23" cy="800.37" rx="181.47" ry="141.63" transform="translate(-33.74 84.75) rotate(-2.55)"/><ellipse class="cls-4" cx="1887.94" cy="816.31" rx="83.43" ry="102.37" transform="translate(970.72 2657.34) rotate(-86.9)"/><ellipse class="cls-4" cx="1705.31" cy="763.91" rx="86.68" ry="106.36" transform="translate(850.28 2425.41) rotate(-86.9)"/><ellipse class="cls-3" cx="1835.58" cy="959.61" rx="191.22" ry="149.24" transform="translate(-40.87 82.61) rotate(-2.55)"/><ellipse class="cls-4" cx="1803.46" cy="938.59" rx="166.79" ry="68.85" transform="translate(-54.98 114.2) rotate(-3.57)"/><ellipse class="cls-3" cx="381.73" cy="663.55" rx="81.5" ry="60.55" transform="translate(-30.68 18.62) rotate(-2.69)"/><ellipse class="cls-3" cx="325.98" cy="601.07" rx="58.14" ry="43.19" transform="translate(-27.81 15.94) rotate(-2.69)"/><ellipse class="cls-3" cx="460.66" cy="650.46" rx="70.78" ry="52.59" transform="translate(-29.98 22.3) rotate(-2.69)"/><ellipse class="cls-3" cx="403.28" cy="611.32" rx="51.17" ry="38.02" transform="translate(-28.2 19.57) rotate(-2.69)"/><ellipse class="cls-4" cx="441.26" cy="656.9" rx="53.03" ry="39.4" transform="matrix(1, -0.05, 0.05, 1, -30.3, 21.4)"/><ellipse class="cls-3" cx="243.9" cy="652.61" rx="74.02" ry="103.57" transform="translate(-415.49 877.54) rotate(-88.34)"/><ellipse class="cls-4" cx="242.99" cy="660.92" rx="58.56" ry="43.51" transform="translate(-30.71 12.11) rotate(-2.69)"/><ellipse class="cls-4" cx="348.91" cy="636.62" rx="60.84" ry="45.2" transform="translate(-29.45 17.05) rotate(-2.69)"/><ellipse class="cls-3" cx="121.71" cy="649.05" rx="63.39" ry="88.7" transform="translate(-530.59 751.94) rotate(-88.34)"/><ellipse class="cls-4" cx="137.15" cy="640.57" rx="29.28" ry="77.26" transform="translate(-512.27 726.6) rotate(-85.46)"/><path class="cls-18" d="M1171.73,635.55a218.22,218.22,0,0,1-9,50.68,238.93,238.93,0,0,1-8.65,24c-.82,1.93-1.69,3.81-2.54,5.72s-1.7,3.84-2.63,5.67l-2.75,5.52-1.39,2.76-1.45,2.67a353.15,353.15,0,0,1-25.11,39.64c-8.83,12.13-17.87,23.32-26.76,33.9-17.8,21.13-35,39.89-49.56,57.7-7.3,8.89-13.94,17.51-19.71,25.85a192,192,0,0,0-14.35,24,116.32,116.32,0,0,0-8.32,21.63,84.42,84.42,0,0,0-2.83,19.48A100.73,100.73,0,0,0,998,974.09a151,151,0,0,0,5.11,21.1c4.79,14.86,12.15,31.19,21.6,48a514.45,514.45,0,0,0,33.6,51.31L867,1206.38a710.14,710.14,0,0,1-34.31-83.54l-.94-2.76-.88-2.84-1.76-5.67c-1.15-3.8-2.36-7.5-3.39-11.44l-3.17-11.66c-1-4-1.92-8-2.85-12a402.71,402.71,0,0,1-8.25-50.21,326.89,326.89,0,0,1-.74-54.14,279.64,279.64,0,0,1,9.61-55.64,264.9,264.9,0,0,1,20.74-52.15,295.62,295.62,0,0,1,28.67-44.13,363.8,363.8,0,0,1,31.94-35.63c10.81-10.63,21.6-20.2,32.13-29.1,21.07-17.78,41.13-33,58.83-47.56,8.86-7.29,17.14-14.41,24.64-21.46a236.11,236.11,0,0,0,19.88-21l1.11-1.3,1-1.31,2-2.61c.71-.87,1.26-1.74,1.91-2.61s1.29-1.74,1.89-2.62a120.91,120.91,0,0,0,6.5-10.58,102.24,102.24,0,0,0,9.1-22.48Z"/><ellipse class="cls-3" cx="1202.17" cy="864.91" rx="126.4" ry="98.66" transform="translate(-37.29 54.34) rotate(-2.55)"/><ellipse class="cls-3" cx="1426.58" cy="864.91" rx="193.7" ry="93.39" transform="translate(-37.07 64.32) rotate(-2.55)"/><ellipse class="cls-3" cx="1362.96" cy="806.26" rx="76.26" ry="96.59" transform="translate(484.17 2123.62) rotate(-86.9)"/><ellipse class="cls-4" cx="1211.01" cy="864.52" rx="110.03" ry="74.25" transform="translate(-98.61 158.23) rotate(-7.18)"/><ellipse class="cls-4" cx="1409.12" cy="842.64" rx="47.86" ry="105.25" transform="translate(491.5 2204.13) rotate(-86.9)"/><line class="cls-19" x1="1253.39" y1="302.47" x2="1282.16" y2="1010.39"/><ellipse class="cls-9" cx="1136.96" cy="279.84" rx="209" ry="129.47"/><ellipse class="cls-9" cx="1267.77" cy="273.78" rx="251.38" ry="173.32"/><ellipse class="cls-10" cx="1211.01" cy="273.78" rx="171.12" ry="84.71"/><polygon class="cls-6" points="617.83 688.28 705.94 675.15 799.65 686.3 801.15 792.27 680.11 813.6 578.92 774.77 617.83 688.28"/><polygon class="cls-7" points="841.17 774.77 801.15 792.27 708.37 675.44 799.65 686.3 841.17 774.77"/><ellipse class="cls-3" cx="212.41" cy="927.4" rx="119.57" ry="146.25" transform="translate(-725.26 1088.52) rotate(-86.85)"/><ellipse class="cls-3" cx="319.27" cy="807.49" rx="85.29" ry="104.32" transform="translate(-504.54 1081.9) rotate(-86.85)"/><ellipse class="cls-3" cx="72.15" cy="897.08" rx="103.84" ry="127.01" transform="translate(-827.53 919.83) rotate(-86.85)"/><ellipse class="cls-3" cx="179.41" cy="823.23" rx="75.07" ry="91.82" transform="translate(-652.44 957.13) rotate(-86.85)"/><ellipse class="cls-4" cx="106.27" cy="910.88" rx="77.8" ry="95.16" transform="translate(-809.07 966.93) rotate(-86.85)"/><ellipse class="cls-3" cx="460.99" cy="913.77" rx="186.26" ry="145.84" transform="translate(-40.73 21.71) rotate(-2.58)"/><ellipse class="cls-4" cx="461.71" cy="930.19" rx="85.91" ry="105.08" transform="translate(-492.45 1340.09) rotate(-86.85)"/><ellipse class="cls-4" cx="274.25" cy="876.23" rx="89.25" ry="109.17" transform="translate(-615.73 1101.91) rotate(-86.85)"/><ellipse class="cls-3" cx="680.69" cy="913.77" rx="159.51" ry="124.9" transform="translate(-40.5 31.62) rotate(-2.58)"/><ellipse class="cls-4" cx="653.89" cy="896.19" rx="139.14" ry="57.62" transform="translate(-54.81 42.69) rotate(-3.59)"/><polygon class="cls-6" points="1087.4 967.07 1183.94 905.23 1273.38 872.73 1385.02 881.33 1479.75 951.07 1537.3 1107.65 1291.36 1137.8 1085.75 1082.9 1087.4 967.07"/><polygon class="cls-7" points="1618.62 1082.9 1537.3 1107.65 1472.79 955.18 1385.02 881.33 1534.25 957.82 1618.62 1082.9"/><line class="cls-19" x1="101.9" y1="497.63" x2="73.13" y2="1205.55"/><ellipse class="cls-9" cx="218.33" cy="474.99" rx="209" ry="129.47"/><ellipse class="cls-9" cx="87.52" cy="468.94" rx="251.38" ry="173.32"/><ellipse class="cls-10" cx="144.28" cy="468.94" rx="171.12" ry="84.71"/></g></g></svg>