<svg xmlns="http://www.w3.org/2000/svg" xmlns:xlink="http://www.w3.org/1999/xlink" viewBox="0 0 1920 1080"><defs><style>.cls-1{fill:#24344c;}.cls-2{fill:url(#radial-gradient);}.cls-3{fill:#565969;}.cls-4{fill:#4c4e5c;}.cls-5{fill:#545937;}.cls-28,.cls-29,.cls-32,.cls-33,.cls-34,.cls-35,.cls-39,.cls-40,.cls-41,.cls-48,.cls-53,.cls-57,.cls-6,.cls-60{fill:none;stroke-miterlimit:10;}.cls-53,.cls-6{stroke:#4a3d25;}.cls-6{stroke-width:4.35px;}.cls-7{fill:#5c613c;}.cls-8{fill:#525436;}.cls-9{fill:#434a00;}.cls-10{fill:#4d5233;}.cls-11{fill:#3e422a;}.cls-12{fill:#3a4000;}.cls-13{fill:#575332;}.cls-14{fill:#4f4b2d;}.cls-15{fill:#453b2d;}.cls-16{fill:#545454;}.cls-17{fill:#666;}.cls-18{fill:#696969;}.cls-19{fill:#5e5a36;}.cls-20{fill:#423823;}.cls-21{fill:#5e512b;}.cls-22{fill:#52452c;}.cls-23{fill:#403522;}.cls-24{fill:#2b261d;}.cls-25{fill:#6b5c30;}.cls-26{fill:#695a38;}.cls-27{fill:#332d22;}.cls-28,.cls-29{stroke:#5e240e;}.cls-28{stroke-width:5.21px;}.cls-29{stroke-width:3.81px;}.cls-30{fill:#524e2f;}.cls-31{fill:#262626;}.cls-32,.cls-33,.cls-34,.cls-35{stroke:#fff;stroke-linecap:round;opacity:0.2;}.cls-32{stroke-width:0.43px;stroke-dasharray:13.04 6.52 4.35 10.86 5.43 8.69;}.cls-33{stroke-width:0.87px;stroke-dasharray:14.12 3.26 4.35 6.52 10.86 19.56;}.cls-34{stroke-width:0.65px;stroke-dasharray:13.65 6.83 4.55 11.38 5.69 9.1;}.cls-35{stroke-width:1.09px;stroke-dasharray:14.79 3.41 4.55 6.83 11.38 20.48;}.cls-36{fill:url(#radial-gradient-2);}.cls-37{fill:url(#radial-gradient-3);}.cls-38{fill:#523000;}.cls-39,.cls-40{stroke:#523000;}.cls-39,.cls-41{stroke-width:15.21px;}.cls-40{stroke-width:8.69px;}.cls-41{stroke:#452900;}.cls-42{fill:#627332;}.cls-43{fill:#667838;}.cls-44{fill:#7f8064;}.cls-45{fill:#72735a;}.cls-46{fill:#5d753a;}.cls-47{fill:#5b7d39;}.cls-48{stroke:#524329;stroke-width:25px;}.cls-49{fill:#6a6b54;}.cls-50{fill:#62634e;}.cls-51{fill:#5b7339;}.cls-52{fill:#5e823b;}.cls-53{stroke-width:40px;}.cls-54{fill:#617d43;}.cls-55{fill:#7d7a59;}.cls-56{fill:#737051;}.cls-57{stroke:#524429;stroke-width:30px;}.cls-58{fill:#524429;}.cls-59{fill:#473b24;}.cls-60{stroke:#57482b;stroke-width:50px;}.cls-61{fill:#57482b;}.cls-62{fill:#757d36;}.cls-63{fill:#717831;}.cls-64{fill:#7f873b;}.cls-65{fill:#403521;}.cls-66{fill:#737a3a;}.cls-67{fill:#6c7337;}.cls-68{fill:#7a823d;}.cls-69{opacity:0.5;}.cls-70{opacity:0.7;}</style><radialGradient id="radial-gradient" cx="1085.56" cy="155.98" r="581.34" gradientUnits="userSpaceOnUse"><stop offset="0.01" stop-color="#fffde5"/><stop offset="0.02" stop-color="#fff3bb"/><stop offset="0.02" stop-color="#ffe786"/><stop offset="0.03" stop-color="#ffe065"/><stop offset="0.03" stop-color="#ffdd59"/><stop offset="0.2" stop-color="#e9ba94" stop-opacity="0.9"/><stop offset="0.27" stop-color="#d9b497" stop-opacity="0.81"/><stop offset="0.52" stop-color="#9f9ea3" stop-opacity="0.5"/><stop offset="0.64" stop-color="#888a93" stop-opacity="0.41"/><stop offset="0.87" stop-color="#4b5668" stop-opacity="0.16"/><stop offset="1" stop-color="#24344c" stop-opacity="0"/></radialGradient><radialGradient id="radial-gradient-2" cx="691.25" cy="177.31" fy="204.80721259357907" r="40.56" gradientTransform="translate(-267.62 171.17) scale(1.61 0.48)" gradientUnits="userSpaceOnUse"><stop offset="0" stop-color="#f7b113" stop-opacity="0.5"/><stop offset="0" stop-color="#f6b014" stop-opacity="0.49"/><stop offset="0" stop-color="#f6b014" stop-opacity="0.48"/><stop offset="0.01" stop-color="#f6b014" stop-opacity="0.47"/><stop offset="0.23" stop-color="#eba61b" stop-opacity="0.31"/><stop offset="0.44" stop-color="#e39f20" stop-opacity="0.17"/><stop offset="0.65" stop-color="#dd9923" stop-opacity="0.08"/><stop offset="0.84" stop-color="#d99625" stop-opacity="0.02"/><stop offset="1" stop-color="#d89526" stop-opacity="0"/></radialGradient><radialGradient id="radial-gradient-3" cx="837.61" cy="169.1" fy="184.41284222924716" r="22.59" gradientTransform="translate(-267.62 167.22) scale(1.61 0.48)" xlink:href="#radial-gradient-2"/></defs><g id="before-pa"><g id="sky-2" data-name="sky"><rect class="cls-1" x="-50" y="-49.86" width="2014.69" height="421.19"/><rect class="cls-2" x="-50" y="-49.86" width="2020" height="315.46"/></g><g id="mountains-2" data-name="mountains"><path class="cls-3" d="M739.36,167.69c16.23-4.51,36.07-11.52,36.07-11.52l26.29,21.73,41.93-27.16,48,18.25,71.05-15.86,20.43,7L1014,147.7l81.21,30.2,27-20.21,36.06,7.39,18-12.38V371.33H739.36Z"/><polygon class="cls-4" points="775.42 156.17 782.6 185.29 801.72 177.9 775.42 156.17"/><polygon class="cls-4" points="843.65 150.74 865.46 242 887.13 243.91 891.67 168.99 843.65 150.74"/><polygon class="cls-4" points="962.72 153.13 990.32 213.97 983.15 160.09 962.72 153.13"/><polygon class="cls-4" points="1158.28 165.08 1151.32 186.59 1122.21 157.69 1158.28 165.08"/><polygon class="cls-4" points="1014 147.7 1063.32 185.72 1095.26 177.9 1014 147.7"/></g><g id="bushes-2" data-name="bushes"><path class="cls-5" d="M1013.79,242.33c.15,10.34-32.42,10.34-32.27,0C981.38,232,1013.94,232,1013.79,242.33Z"/><line class="cls-6" x1="782.84" y1="210.42" x2="784.7" y2="242.44"/><path class="cls-7" d="M793.2,210.69c.4,7.56-27.45,7.56-27,0C765.75,203.13,793.61,203.13,793.2,210.69Z"/><line class="cls-6" x1="874.96" y1="214.08" x2="871.87" y2="243.74"/><path class="cls-8" d="M1139.68,243.27c0,13.39-32.31,13.39-32.26,0S1139.73,229.89,1139.68,243.27Z"/><path class="cls-9" d="M856.88,239.56c0,14.69-32.28,14.69-32.27,0S856.9,224.87,856.88,239.56Z"/><path class="cls-8" d="M909,240.83c.09,12.31-33.64,12.31-33.54,0C875.41,228.52,909.14,228.52,909,240.83Z"/><path class="cls-5" d="M830.29,240.83c.07,13-33.61,13-33.54,0S830.37,227.82,830.29,240.83Z"/><path class="cls-10" d="M1038.16,240.69c0,14.37-32.29,14.37-32.27,0S1038.18,226.32,1038.16,240.69Z"/><path class="cls-11" d="M773,239.51c-.07,19.48-32.19,19.48-32.27,0C740.83,220,773,220,773,239.51Z"/><path class="cls-8" d="M814.92,244.72c.5,8.34-32.78,8.34-32.27,0C782.14,236.38,815.42,236.38,814.92,244.72Z"/><path class="cls-9" d="M792.69,243.18c0,13.73-29.55,13.72-29.55,0S792.69,229.45,792.69,243.18Z"/><path class="cls-9" d="M838.68,245.12c.13,7.7-25.29,7.7-25.16,0C813.39,237.42,838.81,237.43,838.68,245.12Z"/><path class="cls-11" d="M895.07,245.43c.52,8-32.79,8-32.27,0C862.29,237.4,895.59,237.4,895.07,245.43Z"/><path class="cls-9" d="M942.43,243.49c.17,9.87-32.44,9.87-32.27,0C910,233.61,942.6,233.61,942.43,243.49Z"/><path class="cls-5" d="M868.65,244.13c.13,10.68-32.41,10.67-32.27,0C836.24,233.46,868.78,233.46,868.65,244.13Z"/><path class="cls-5" d="M1047.59,245.79c.16,9.88-32.44,9.88-32.27,0C1015.15,235.91,1047.75,235.91,1047.59,245.79Z"/><path class="cls-8" d="M1072.52,241.82c0,13.62-32.31,13.62-32.27,0S1072.56,228.2,1072.52,241.82Z"/><path class="cls-5" d="M1099.05,242.42c.07,12.71-32.33,12.71-32.27,0S1099.12,229.7,1099.05,242.42Z"/><path class="cls-9" d="M1018.89,244.84c.06,9.12-24.18,9.12-24.12,0S1019,235.72,1018.89,244.84Z"/><path class="cls-9" d="M1119.54,244.65c.13,8.78-27.82,8.78-27.68,0C1091.73,235.87,1119.67,235.87,1119.54,244.65Z"/><path class="cls-9" d="M893.33,215.43c.55,10.62-37.58,10.62-37,0C855.75,204.81,893.88,204.81,893.33,215.43Z"/><path class="cls-7" d="M803,209.36c0,12.79-30.6,12.79-30.56,0S803,196.56,803,209.36Z"/><path class="cls-5" d="M919.44,245.72c.1,6.37-20.91,6.37-20.8,0C898.54,239.36,919.55,239.36,919.44,245.72Z"/><line class="cls-6" x1="1147.18" y1="225.28" x2="1148.46" y2="247.28"/><path class="cls-12" d="M1166.38,217.12c0,7.64-18.31,7.64-18.29,0S1166.41,209.49,1166.38,217.12Z"/><path class="cls-9" d="M1163.13,221.08c0,12.8-30.6,12.8-30.56,0S1163.17,208.29,1163.13,221.08Z"/><path class="cls-9" d="M1149.47,246.47c.06,7.42-20.53,7.42-20.47,0S1149.54,239.06,1149.47,246.47Z"/><path class="cls-8" d="M1175.08,244.19c.13,9.37-29.69,9.37-29.55,0C1145.39,234.82,1175.22,234.82,1175.08,244.19Z"/></g><g id="ground-2" data-name="ground"><rect class="cls-13" x="-50" y="249.26" width="2014.69" height="880.74"/><polygon class="cls-14" points="906.71 289.38 228.67 289.38 228.67 387.87 906.71 289.38"/><polygon class="cls-14" points="1011.01 289.37 1586 289.37 1586 387.87 1011.01 289.37"/><ellipse class="cls-15" cx="1080.48" cy="255.9" rx="3.7" ry="0.51"/><ellipse class="cls-16" cx="1077.28" cy="255.73" rx="0.59" ry="0.25" transform="translate(-25.57 353.99) rotate(-18.45)"/><ellipse class="cls-17" cx="1083.47" cy="256.12" rx="0.59" ry="0.25" transform="translate(-22.82 131.1) rotate(-6.85)"/><ellipse class="cls-17" cx="1081.5" cy="255.19" rx="0.25" ry="0.59" transform="translate(716.63 1304.78) rotate(-84.11)"/><ellipse class="cls-17" cx="1077.23" cy="256.05" rx="0.25" ry="0.59" transform="translate(599.12 1254.75) rotate(-77.79)"/><ellipse class="cls-18" cx="1083.53" cy="255.6" rx="0.25" ry="0.59" transform="translate(700.47 1300.89) rotate(-83.15)"/><ellipse class="cls-18" cx="1079.05" cy="256.38" rx="0.25" ry="0.59" transform="translate(713.25 1303.41) rotate(-84.11)"/><ellipse class="cls-18" cx="1079.54" cy="255.24" rx="0.59" ry="0.25" transform="translate(-20.5 112.18) rotate(-5.89)"/><ellipse class="cls-18" cx="1081.17" cy="256.38" rx="0.59" ry="0.25" transform="translate(-10.46 49.03) rotate(-2.59)"/><ellipse class="cls-16" cx="1082.5" cy="256.28" rx="0.59" ry="0.25" transform="translate(-22.85 130.99) rotate(-6.85)"/><ellipse class="cls-16" cx="1080.47" cy="255.27" rx="0.59" ry="0.25" transform="translate(-20.5 112.28) rotate(-5.89)"/><ellipse class="cls-16" cx="1082.48" cy="255.33" rx="0.23" ry="0.46" transform="translate(699.1 1299.35) rotate(-83.11)"/><ellipse class="cls-16" cx="1078.31" cy="256.3" rx="0.25" ry="0.59" transform="translate(599.72 1256) rotate(-77.79)"/><ellipse class="cls-16" cx="1078.38" cy="255.35" rx="0.59" ry="0.25" transform="translate(-20.52 112.06) rotate(-5.89)"/><ellipse class="cls-16" cx="1080.41" cy="256.38" rx="0.59" ry="0.25" transform="translate(-10.47 49) rotate(-2.59)"/><ellipse class="cls-15" cx="844.85" cy="269.58" rx="9.57" ry="1.32"/><ellipse class="cls-16" cx="836.57" cy="269.13" rx="1.52" ry="0.65" transform="translate(-42.17 278.52) rotate(-18.45)"/><ellipse class="cls-17" cx="852.57" cy="270.14" rx="1.52" ry="0.65" transform="translate(-26.14 103.65) rotate(-6.85)"/><ellipse class="cls-17" cx="847.48" cy="267.74" rx="0.65" ry="1.52" transform="translate(494.15 1083.26) rotate(-84.11)"/><ellipse class="cls-17" cx="836.46" cy="269.96" rx="0.65" ry="1.53" transform="translate(395.67 1030.39) rotate(-77.79)"/><ellipse class="cls-18" cx="852.71" cy="268.8" rx="0.65" ry="1.52" transform="translate(484.09 1083.34) rotate(-83.15)"/><ellipse class="cls-18" cx="841.16" cy="270.81" rx="0.65" ry="1.52" transform="translate(485.42 1079.72) rotate(-84.11)"/><ellipse class="cls-18" cx="842.41" cy="267.86" rx="1.52" ry="0.65" transform="translate(-23.05 87.9) rotate(-5.89)"/><ellipse class="cls-18" cx="846.63" cy="270.81" rx="1.52" ry="0.65" transform="translate(-11.35 38.47) rotate(-2.59)"/><ellipse class="cls-16" cx="850.06" cy="270.57" rx="1.52" ry="0.65" transform="translate(-26.21 103.36) rotate(-6.85)"/><ellipse class="cls-16" cx="844.82" cy="267.94" rx="1.52" ry="0.65" transform="translate(-23.04 88.15) rotate(-5.89)"/><ellipse class="cls-16" cx="850" cy="268.11" rx="0.6" ry="1.19" transform="translate(481.84 1079.8) rotate(-83.11)"/><ellipse class="cls-16" cx="839.24" cy="270.61" rx="0.65" ry="1.53" transform="translate(397.24 1033.63) rotate(-77.79)"/><ellipse class="cls-16" cx="839.43" cy="268.15" rx="1.52" ry="0.65" transform="translate(-23.09 87.6) rotate(-5.89)"/><ellipse class="cls-16" cx="844.67" cy="270.81" rx="1.52" ry="0.65" transform="translate(-11.36 38.38) rotate(-2.59)"/><polygon class="cls-19" points="1007.7 784.73 1085.9 894.59 1023.78 1000.24 1096.72 1091.63 849.11 1088.21 821.93 1009.13 943.02 889.6 929.22 786.44 1007.7 784.73"/></g><g id="buildings-2" data-name="buildings"><polygon class="cls-20" points="865.46 255.16 830.23 263.08 850.37 244.79 865.46 255.16"/><polygon class="cls-21" points="830.46 264.42 851.94 241.62 811.48 235.15 789.91 253.24 830.46 264.42"/><path class="cls-22" d="M851.94,241.62l18.35,13.72c-.3,1.81-18-12.34-18.35-12.22-.88.55-20.26,22.83-21.48,21.3Z"/><polygon class="cls-23" points="869.27 255.6 865.46 255.16 850.37 244.79 851.94 243.12 869.27 255.6"/><polygon class="cls-24" points="853.24 249.79 857.41 256.97 847.85 259.12 849.61 250.33 853.24 249.79"/><path class="cls-25" d="M845.85,242.31c-1.31,1.68-2.74,3.24-4.17,4.81s-3,3-4.49,4.5q-4.5,4.49-9.06,8.92l-.06-.05q4.3-4.68,8.66-9.32c1.45-1.55,2.86-3.13,4.37-4.61s3-2.95,4.69-4.31Z"/><path class="cls-25" d="M830.47,248.06c-.59.76-1.24,1.47-1.89,2.17s-1.36,1.35-2.05,2l-4.14,4,0,0L826.3,252c.66-.7,1.3-1.41,2-2.07s1.4-1.32,2.15-1.92Z"/><path class="cls-25" d="M827.34,242.29a23.45,23.45,0,0,1-1.62,1.81c-.57.58-1.18,1.11-1.78,1.65L820.36,249l0,0,3.39-3.46c.57-.57,1.12-1.17,1.72-1.71s1.21-1.07,1.87-1.55Z"/><path class="cls-25" d="M817.27,242a39.58,39.58,0,0,1-2.92,3.14c-1,1-2.14,1.88-3.22,2.81-2.16,1.85-4.33,3.7-6.51,5.52l-.06-.06c2-2,4.08-4,6.14-5.94,1-1,2-2,3.11-2.93a37.69,37.69,0,0,1,3.4-2.6Z"/><path class="cls-25" d="M812.18,238.51c-.52.55-1.09,1-1.65,1.52s-1.18.9-1.78,1.34L805.14,244l0,0,3.44-2.86c.57-.47,1.13-1,1.73-1.4s1.22-.86,1.87-1.23Z"/><path class="cls-25" d="M815.94,249.8a13.7,13.7,0,0,1-1.21,1.31c-.42.41-.9.76-1.35,1.13-.91.75-1.83,1.5-2.75,2.23l0,0,2.56-2.44c.43-.4.85-.83,1.31-1.2a13.84,13.84,0,0,1,1.44-1Z"/><polygon class="cls-20" points="1119.68 260.04 1147.7 266.34 1131.68 251.78 1119.68 260.04"/><polygon class="cls-21" points="1147.52 267.41 1130.43 249.27 1162.62 244.12 1179.79 258.5 1147.52 267.41"/><path class="cls-22" d="M1130.43,249.27l-14.6,10.91c.22,1.4,14.31-9.8,14.6-9.72.71.44,16.12,18.16,17.09,17Z"/><polygon class="cls-23" points="1116.64 260.39 1119.68 260.04 1131.68 251.78 1130.43 250.46 1116.64 260.39"/><polygon class="cls-24" points="1129.4 255.76 1126.08 261.48 1133.69 263.19 1132.28 256.19 1129.4 255.76"/><path class="cls-25" d="M1135.33,249.76c1.35,1,2.57,2.2,3.81,3.35s2.32,2.45,3.46,3.69q3.44,3.7,6.83,7.47l-.06.06q-3.66-3.49-7.27-7.05c-1.21-1.17-2.45-2.31-3.59-3.56a50.35,50.35,0,0,1-3.24-3.9Z"/><path class="cls-25" d="M1147.54,254.36c.62.46,1.18,1,1.75,1.49s1.06,1.1,1.57,1.66q1.58,1.67,3.11,3.35l0,0q-1.67-1.54-3.32-3.14c-.56-.52-1.13-1-1.64-1.59a20.9,20.9,0,0,1-1.47-1.77Z"/><path class="cls-25" d="M1150,249.77a15,15,0,0,1,1.53,1.2c.48.42.91.9,1.36,1.37.89.91,1.79,1.84,2.67,2.78l0,0-2.89-2.56c-.48-.43-1-.84-1.41-1.31a13.85,13.85,0,0,1-1.26-1.48Z"/><path class="cls-25" d="M1158.07,249.53a22.29,22.29,0,0,1,2.78,2c.88.71,1.64,1.55,2.46,2.34q2.43,2.37,4.83,4.79l-.06.07q-2.64-2.14-5.24-4.34c-.86-.74-1.78-1.41-2.57-2.22a21.42,21.42,0,0,1-2.26-2.57Z"/><path class="cls-25" d="M1162.09,246.76a13.78,13.78,0,0,1,1.52.94c.49.34.92.74,1.38,1.12q1.37,1.14,2.7,2.31l0,0c-1-.68-1.94-1.36-2.9-2.06-.48-.35-1-.67-1.43-1.06a11.59,11.59,0,0,1-1.28-1.25Z"/><path class="cls-25" d="M1159.1,255.75a7.87,7.87,0,0,1,1.19.78,11.58,11.58,0,0,1,1,1c.68.65,1.35,1.3,2,2l0,0q-1.12-.86-2.22-1.74a11.44,11.44,0,0,1-1.08-.9,7.36,7.36,0,0,1-.93-1.07Z"/><polygon class="cls-26" points="959.99 224.7 930.94 240.69 930.94 252.52 989.03 252.52 989.03 235.9 959.99 224.7"/><rect class="cls-27" x="965.87" y="237.2" width="11.64" height="6.9"/><line class="cls-28" x1="962.1" y1="220.91" x2="921.62" y2="244.1"/><line class="cls-28" x1="958.62" y1="220.86" x2="999.11" y2="244.05"/><line class="cls-29" x1="929.05" y1="237.84" x2="929.05" y2="252.52"/><line class="cls-29" x1="960.23" y1="216.2" x2="960.23" y2="252.39"/><line class="cls-29" x1="990.92" y1="237.84" x2="990.92" y2="252.52"/><rect class="cls-27" x="943.78" y="236.75" width="9.21" height="15.77"/><polygon class="cls-20" points="1076.59 251 1100.13 256.29 1086.67 244.07 1076.59 251"/><polygon class="cls-21" points="1099.98 257.19 1085.63 241.95 1112.66 237.63 1127.08 249.71 1099.98 257.19"/><path class="cls-22" d="M1085.62,242l-12.26,9.17.68.17,11.58-8.34c.6.37,13.54,15.26,14.36,14.24Z"/><polygon class="cls-23" points="1074.04 251.29 1076.59 251 1086.67 244.07 1085.63 242.95 1074.04 251.29"/><polygon class="cls-24" points="1084.76 247.41 1081.97 252.21 1088.36 253.65 1087.18 247.77 1084.76 247.41"/><path class="cls-25" d="M1089.74,242.37a40.8,40.8,0,0,1,3.19,2.81c1,1,2,2.06,2.91,3.1q2.9,3.12,5.74,6.27l0,0c-2-1.95-4.09-3.93-6.11-5.91-1-1-2.06-1.95-3-3a40.63,40.63,0,0,1-2.72-3.27Z"/><path class="cls-25" d="M1100,246.23a17.91,17.91,0,0,1,1.47,1.25c.47.44.89.93,1.33,1.39l2.61,2.82,0,0-2.79-2.64c-.47-.44-.95-.87-1.38-1.34a15.82,15.82,0,0,1-1.23-1.48Z"/><path class="cls-25" d="M1102.09,242.38a13.75,13.75,0,0,1,1.28,1c.4.36.76.76,1.14,1.15.75.77,1.5,1.55,2.24,2.34l0,0c-.82-.71-1.62-1.42-2.42-2.15-.41-.36-.82-.7-1.2-1.09a14.16,14.16,0,0,1-1-1.25Z"/><path class="cls-25" d="M1108.84,242.18a18.58,18.58,0,0,1,2.33,1.67c.74.61,1.39,1.3,2.07,2q2,2,4,4l0,.05c-1.48-1.2-2.94-2.41-4.4-3.64-.73-.61-1.49-1.19-2.16-1.87a17.83,17.83,0,0,1-1.89-2.16Z"/><path class="cls-25" d="M1112.21,239.85a9.77,9.77,0,0,1,1.28.79,14.73,14.73,0,0,1,1.15.94c.77.64,1.53,1.28,2.28,1.94l0,0c-.82-.57-1.63-1.15-2.44-1.74a14.73,14.73,0,0,1-1.19-.89,9.63,9.63,0,0,1-1.08-1Z"/><path class="cls-25" d="M1109.7,247.4a6.87,6.87,0,0,1,1,.65,9.37,9.37,0,0,1,.86.81c.57.54,1.13,1.09,1.69,1.65l0,0c-.63-.48-1.25-1-1.86-1.46-.31-.25-.63-.48-.91-.75a6.15,6.15,0,0,1-.78-.91Z"/><path class="cls-30" d="M942.26,252.66H909.91A54.17,54.17,0,0,1,942.26,252.66Z"/><path class="cls-30" d="M1008.76,252.66H976.41A54.17,54.17,0,0,1,1008.76,252.66Z"/></g><g id="people-2" data-name="people"><path class="cls-31" d="M958.87,240.24h-.41c0-.06,0-.11,0-.17v0a1.56,1.56,0,0,0,.62-1.41c0-2.07-2.28-2.07-2.26,0a1.54,1.54,0,0,0,.62,1.41v.19H957c-2.32,0-2.32,10.46-2.32,10.46l1.72,1.9v3.56h.71l.08-3.42.73,0,.72,0,.08,3.42h.72V252.6l1.71-1.9S961.19,240.24,958.87,240.24Z"/><path class="cls-31" d="M942.77,241.76h-.41a.92.92,0,0,0,0-.16v0a1.54,1.54,0,0,0,.62-1.41c0-2.07-2.28-2.07-2.26,0a1.54,1.54,0,0,0,.62,1.41v0a.92.92,0,0,0,0,.16h-.42c-2.32,0-2.32,10.46-2.32,10.46l1.72,1.91v3.55h.72l.07-3.42.73.05.73-.05.07,3.42h.72v-3.55l1.72-1.91S945.1,241.76,942.77,241.76Z"/><path class="cls-31" d="M965.62,242.74h-.35v-.17a1.26,1.26,0,0,0,.53-1.18c0-1.75-1.93-1.75-1.91,0a1.27,1.27,0,0,0,.52,1.18v0a.66.66,0,0,0,0,.14h-.35c-2,0-2,8.86-2,8.86l1.46,1.61v3h.6l.07-2.9.61,0,.62,0,.06,2.9h.61v-3l1.45-1.61S967.58,242.74,965.62,242.74Z"/><path class="cls-31" d="M1077.33,247.24h-.16v-.08a.58.58,0,0,0,.24-.55c0-.82-.9-.82-.89,0a.59.59,0,0,0,.25.55v0s0,0,0,.06h-.16c-.66,0-.64,3.93-.64,3.93l.4.57v1.8h.28l0-1.62.29,0,.28,0,0,1.62h.29v-1.8l.39-.57S1078,247.24,1077.33,247.24Z"/><path class="cls-31" d="M1131.64,258.51h-.21v-.1a.8.8,0,0,0,.32-.72c0-1.06-1.17-1.06-1.16,0a.8.8,0,0,0,.32.72v.1h-.21c-.85,0-.82,5.09-.82,5.09l.51.75v2.33h.37l0-2.1.37,0,.37,0,0,2.1h.37v-2.33l.51-.75S1132.49,258.51,1131.64,258.51Z"/><path class="cls-31" d="M857.22,250h-.41v-.17a1.24,1.24,0,0,0,.63-1.2,1.16,1.16,0,1,0-2.29,0,1.24,1.24,0,0,0,.63,1.2V250h-.41c-1.69,0-1.62,8.5-1.62,8.5l1,1.25v3.88h.73l.08-3.5.74,0,.73,0,.08,3.5h.73v-3.88l1-1.25S858.91,250,857.22,250Z"/><path class="cls-31" d="M827.49,249.86h-.62a1.47,1.47,0,0,0,0-.21v-.05a1.94,1.94,0,0,0,1-1.84c0-2.71-3.47-2.71-3.44,0a1.94,1.94,0,0,0,1,1.84v0a1.55,1.55,0,0,0,0,.22h-.63c-2.52,0-2.42,13-2.42,13l1.5,1.92v6h1.09l.12-5.38,1.1.07,1.1-.07.12,5.38h1.09v-6l1.51-1.92S830,249.86,827.49,249.86Z"/></g><g id="bp-smoke"><path id="bp-smoke-right-slow" class="cls-32" d="M1080.08,255.73s-3.53-15.43-3.32-26.75c.26-14,9.54-30.9,11.94-35.38a91.16,91.16,0,0,0,10.39-40.21c.59-35.83,9.72-59.85,27-75.79,30.87-28.52,125.71-66.73,144.82-85.39"/><path id="bp-smoke-right-fast" class="cls-33" d="M1080.5,255.71s-6-10.17-6.52-19.63c-.63-11.67,11-32.2,14-37.59s12.52-23.56,11.54-40.47c-1.75-29.88,16.56-72,32-81.53,18.51-11.39,67.23-88.88,108.71-91.84"/><path id="bp-smoke-left-slow" class="cls-34" d="M844.68,269s2.83-16.33,7.62-27.18c5.9-13.38,21.72-26,25.85-29.34a95.22,95.22,0,0,0,26.31-34.63c15.07-34.37,45.11-59.44,56.74-62.28,31.39-7.68,124.42-93.57,140.36-130.9"/><path id="bp-smoke-left-fast" class="cls-35" d="M845.09,269.13s-1.68-12.25,1.66-21.6c4.1-11.53,23.67-26.64,28.75-30.63s21.63-17.69,27.52-34.42c10.41-29.57,46.1-59.23,63.88-65.8,54.67-20.21,164.38-77.51,192.19-132"/></g><g id="fire-glow-2" data-name="fire-glow"><ellipse id="bp-fire-glow-2" class="cls-36" cx="844.85" cy="256.38" rx="84.38" ry="22.36"/><ellipse id="bp-fire-glow-1" class="cls-37" cx="1080.41" cy="248.48" rx="47" ry="12.46"/></g><g id="people-front-2" data-name="people-front"><path class="cls-31" d="M1077.29,257.06l-.58.05c-.08-1.23-.35-3.19-1.21-3.19h-.22s0-.06,0-.09v0a.81.81,0,0,0,.33-.74c0-1.11-1.22-1.11-1.21,0a.8.8,0,0,0,.33.75v.11h-.22c-1.24,0-1.24,4.15-1.24,4.15a3.34,3.34,0,0,0,1.73.42,4.51,4.51,0,0,0,1.28-.19v0l1-.49S1077.69,257,1077.29,257.06Z"/><path class="cls-31" d="M1087.72,258.07s0-4.15-1.25-4.15h-.22s0-.06,0-.09v0a.8.8,0,0,0,.34-.75c0-1.1-1.22-1.1-1.21,0a.79.79,0,0,0,.33.74v.11h-.22c-.85,0-1.12,2-1.2,3.19l-.58-.05c-.4,0,0,.77,0,.77l1,.49,0,0a4.5,4.5,0,0,0,1.27.19A3.37,3.37,0,0,0,1087.72,258.07Z"/><path class="cls-31" d="M866.25,274.76S866.25,264,863,264h-.57c0-.08,0-.15,0-.23v0a2.15,2.15,0,0,0,.86-1.95c0-2.88-3.17-2.88-3.14,0a2.15,2.15,0,0,0,.86,1.95v0c0,.08,0,.15,0,.23h-.57c-2.22,0-2.91,5.08-3.13,8.26l-1.5-.12c-1-.07,0,2,0,2l2.53,1.27,0-.06a12.43,12.43,0,0,0,3.31.5C863.13,275.78,865.1,275.61,866.25,274.76Z"/></g><g id="fence-2" data-name="fence"><path class="cls-38" d="M880.92,209.15c.34.84.63,1.68,1,2.51l.84,2.51c.55,1.67,1,3.34,1.5,5-.07,3.34,0,6.69,0,10v60.16h-6.51V229.21c0-3.34,0-6.69,0-10,.46-1.67,1-3.34,1.5-5l.84-2.51C880.28,210.83,880.57,210,880.92,209.15Z"/><path class="cls-38" d="M836,209.15c.35.84.63,1.68,1,2.51l.84,2.51c.55,1.67,1,3.34,1.5,5-.06,3.34,0,6.69,0,10v60.16h-6.52V229.21c0-3.34,0-6.69,0-10,.46-1.67.94-3.34,1.5-5l.84-2.51C835.4,210.83,835.68,210,836,209.15Z"/><path class="cls-38" d="M851,209.15c.35.84.63,1.68,1,2.51l.84,2.51c.55,1.67,1,3.34,1.5,5-.06,3.34,0,6.69,0,10v60.16h-6.52V229.21c0-3.34,0-6.69,0-10,.46-1.67.95-3.34,1.5-5l.84-2.51C850.36,210.83,850.64,210,851,209.15Z"/><path class="cls-38" d="M866,209.15c.35.84.64,1.68.95,2.51l.84,2.51c.56,1.67,1,3.34,1.5,5-.06,3.34,0,6.69,0,10v60.16h-6.52V229.21c0-3.34,0-6.69,0-10,.46-1.67,1-3.34,1.5-5l.84-2.51C865.32,210.83,865.6,210,866,209.15Z"/><path class="cls-38" d="M791.14,209.15c.35.84.63,1.68,1,2.51l.84,2.51c.56,1.67,1,3.34,1.5,5-.06,3.34,0,6.69,0,10v60.16h-6.52V229.21c0-3.34,0-6.69,0-10,.46-1.67.95-3.34,1.5-5l.84-2.51C790.51,210.83,790.79,210,791.14,209.15Z"/><path class="cls-38" d="M806.1,209.15c.35.84.64,1.68.95,2.51l.84,2.51c.56,1.67,1.05,3.34,1.51,5-.07,3.34,0,6.69,0,10v60.16h-6.52V229.21c0-3.34,0-6.69,0-10,.46-1.67,1-3.34,1.5-5l.84-2.51C805.47,210.83,805.75,210,806.1,209.15Z"/><path class="cls-38" d="M821.07,209.15c.35.84.63,1.68.95,2.51l.84,2.51c.55,1.67,1,3.34,1.5,5-.07,3.34,0,6.69,0,10v60.16h-6.51V229.21c0-3.34,0-6.69,0-10,.46-1.67,1-3.34,1.51-5l.84-2.51C820.43,210.83,820.72,210,821.07,209.15Z"/><path class="cls-38" d="M746.25,209.15c.35.84.64,1.68,1,2.51l.85,2.51c.55,1.67,1,3.34,1.5,5-.07,3.34,0,6.69,0,10v60.16H743V229.21c0-3.34,0-6.69,0-10,.46-1.67.95-3.34,1.5-5l.84-2.51C745.62,210.83,745.9,210,746.25,209.15Z"/><path class="cls-38" d="M761.22,209.15c.35.84.63,1.68.95,2.51l.84,2.51c.55,1.67,1,3.34,1.5,5-.07,3.34,0,6.69,0,10v60.16H758V229.21c0-3.34,0-6.69,0-10,.46-1.67,1-3.34,1.51-5l.84-2.51C760.58,210.83,760.87,210,761.22,209.15Z"/><path class="cls-38" d="M776.18,209.15c.35.84.63,1.68,1,2.51l.84,2.51c.55,1.67,1,3.34,1.5,5-.06,3.34,0,6.69,0,10v60.16h-6.52V229.21c0-3.34,0-6.69,0-10,.46-1.67,1-3.34,1.5-5l.84-2.51C775.55,210.83,775.83,210,776.18,209.15Z"/><path class="cls-38" d="M1066.51,209.15c.35.84.63,1.68,1,2.51l.84,2.51c.56,1.67,1,3.34,1.5,5-.06,3.34,0,6.69,0,10v60.16h-6.52V229.21c0-3.34,0-6.69,0-10,.46-1.67,1-3.34,1.5-5l.84-2.51C1065.88,210.83,1066.16,210,1066.51,209.15Z"/><path class="cls-38" d="M1081.47,209.15c.35.84.64,1.68,1,2.51l.85,2.51c.55,1.67,1,3.34,1.5,5-.07,3.34,0,6.69,0,10v60.16h-6.51V229.21c0-3.34,0-6.69,0-10,.46-1.67,1-3.34,1.5-5l.84-2.51C1080.84,210.83,1081.12,210,1081.47,209.15Z"/><path class="cls-38" d="M1096.44,209.15c.35.84.63,1.68,1,2.51l.84,2.51c.55,1.67,1,3.34,1.5,5-.07,3.34,0,6.69,0,10v60.16h-6.52V229.21c0-3.34,0-6.69,0-10,.45-1.67.94-3.34,1.5-5l.84-2.51C1095.8,210.83,1096.09,210,1096.44,209.15Z"/><path class="cls-38" d="M1036.59,209.15c.35.84.63,1.68,1,2.51l.84,2.51c.55,1.67,1,3.34,1.5,5-.07,3.34,0,6.69,0,10v60.16h-6.52V229.21c0-3.34,0-6.69,0-10,.45-1.67.94-3.34,1.5-5l.84-2.51C1036,210.83,1036.24,210,1036.59,209.15Z"/><path class="cls-38" d="M1051.55,209.15c.35.84.63,1.68,1,2.51l.84,2.51c.55,1.67,1,3.34,1.5,5-.06,3.34,0,6.69,0,10v60.16h-6.52V229.21c0-3.34,0-6.69,0-10,.46-1.67,1-3.34,1.5-5l.84-2.51C1050.92,210.83,1051.2,210,1051.55,209.15Z"/><path class="cls-38" d="M1156.29,209.15c.35.84.63,1.68,1,2.51l.84,2.51c.55,1.67,1,3.34,1.5,5-.07,3.34,0,6.69,0,10v60.16H1153V229.21c0-3.34,0-6.69,0-10,.46-1.67,1-3.34,1.51-5l.84-2.51C1155.65,210.83,1155.94,210,1156.29,209.15Z"/><path class="cls-38" d="M1171.25,209.15c.35.84.63,1.68,1,2.51l.84,2.51c.55,1.67,1,3.34,1.5,5-.06,3.34,0,6.69,0,10v60.16H1168V229.21c0-3.34,0-6.69,0-10,.46-1.67.94-3.34,1.5-5l.84-2.51C1170.62,210.83,1170.9,210,1171.25,209.15Z"/><path class="cls-38" d="M1111.4,209.15c.35.84.63,1.68.95,2.51l.84,2.51c.55,1.67,1,3.34,1.5,5-.06,3.34,0,6.69,0,10v60.16h-6.52V229.21c0-3.34,0-6.69,0-10,.46-1.67,1-3.34,1.5-5l.84-2.51C1110.77,210.83,1111.05,210,1111.4,209.15Z"/><path class="cls-38" d="M1126.36,209.15c.35.84.63,1.68,1,2.51l.84,2.51c.56,1.67,1,3.34,1.5,5-.06,3.34,0,6.69,0,10v60.16h-6.52V229.21c0-3.34,0-6.69,0-10,.46-1.67,1-3.34,1.5-5l.84-2.51C1125.73,210.83,1126,210,1126.36,209.15Z"/><path class="cls-38" d="M1141.32,209.15c.35.84.64,1.68,1,2.51l.84,2.51c.56,1.67,1.05,3.34,1.51,5-.07,3.34,0,6.69,0,10v60.16h-6.52V229.21c0-3.34,0-6.69,0-10,.46-1.67,1-3.34,1.5-5l.84-2.51C1140.69,210.83,1141,210,1141.32,209.15Z"/><line class="cls-39" x1="898.87" y1="289.37" x2="898.87" y2="172.14"/><line class="cls-39" x1="1018.56" y1="289.37" x2="1018.56" y2="172.14"/><line class="cls-40" x1="1021.13" y1="232.62" x2="1185.4" y2="232.62"/><line class="cls-40" x1="1021.13" y1="265.36" x2="1185.4" y2="265.36"/><line class="cls-40" x1="734.6" y1="232.62" x2="898.87" y2="232.62"/><line class="cls-40" x1="734.6" y1="265.36" x2="898.87" y2="265.36"/><line class="cls-41" x1="876.54" y1="198.1" x2="960.57" y2="159.47"/><line class="cls-41" x1="1041.12" y1="198.1" x2="957.09" y2="159.47"/><line class="cls-41" x1="958.85" y1="166.71" x2="958.85" y2="139.93"/></g><g id="forest-back"><ellipse class="cls-42" cx="1626.41" cy="832.42" rx="95.72" ry="199.88" transform="translate(735.45 2427.51) rotate(-87.92)"/><ellipse class="cls-42" cx="1821.49" cy="803.56" rx="112.54" ry="221.31" transform="translate(952.28 2594.65) rotate(-87.92)"/><ellipse class="cls-43" cx="1797.01" cy="821.9" rx="69.2" ry="144.5" transform="translate(910.36 2587.86) rotate(-87.92)"/><polygon class="cls-44" points="1184.44 796.09 1262.24 756.23 1333.74 736.03 1421.87 744.02 1495.22 792.95 1537.17 899.78 1341.9 915.33 1180.48 874.26 1184.44 796.09"/><polygon class="cls-45" points="1602.08 884.66 1537.17 899.78 1489.63 795.59 1421.87 744.02 1538.19 798.57 1602.08 884.66"/><ellipse class="cls-46" cx="499.07" cy="422.84" rx="47.76" ry="148.99" transform="translate(67.35 914.25) rotate(-88.97)"/><ellipse class="cls-46" cx="674.83" cy="427.14" rx="40.9" ry="127.59" transform="translate(235.67 1094.21) rotate(-88.97)"/><ellipse class="cls-47" cx="632.64" cy="420.73" rx="115.24" ry="22.18" transform="translate(-2.6 3.93) rotate(-0.36)"/><ellipse class="cls-47" cx="500.47" cy="417.5" rx="84.22" ry="28.08"/><line class="cls-48" x1="287.74" y1="342.46" x2="287.74" y2="669.42"/><polygon class="cls-49" points="526.05 457.78 614.76 448.72 706.82 551.27 581.56 557.54 479.33 551.27 526.05 457.78"/><polygon class="cls-50" points="720.67 540 706.82 551.27 614.76 448.72 682.39 490.95 720.67 540"/><ellipse class="cls-51" cx="55.97" cy="621.41" rx="209.01" ry="61.29"/><ellipse class="cls-51" cx="278.46" cy="634.38" rx="211.03" ry="58.31" transform="translate(-9.64 4.32) rotate(-0.87)"/><ellipse class="cls-52" cx="306.36" cy="632.98" rx="133.87" ry="39.26"/><ellipse class="cls-52" cx="135.83" cy="613.65" rx="139.08" ry="40.78"/><line class="cls-53" x1="205.56" y1="387.87" x2="205.56" y2="901.74"/><ellipse class="cls-46" cx="1287.69" cy="1000.24" rx="205.68" ry="98.5"/><ellipse class="cls-46" cx="1391.28" cy="911.55" rx="178.62" ry="85.54"/><ellipse class="cls-46" cx="1605.08" cy="893.18" rx="171.92" ry="82.33"/><ellipse class="cls-46" cx="1767.61" cy="1068.23" rx="267.11" ry="113.58"/><ellipse class="cls-46" cx="1826.12" cy="958.11" rx="197.77" ry="100.57"/><ellipse class="cls-46" cx="1506.67" cy="1035.11" rx="178.62" ry="85.54"/><ellipse class="cls-54" cx="1470.82" cy="911.55" rx="129.13" ry="61.84"/><ellipse class="cls-54" cx="1539.57" cy="1008.05" rx="150.02" ry="71.84"/><ellipse class="cls-54" cx="1720.51" cy="1031.65" rx="153.53" ry="73.52"/><ellipse class="cls-54" cx="1301.91" cy="969.12" rx="153.53" ry="42.78"/><ellipse class="cls-46" cx="1244.08" cy="414.07" rx="77.26" ry="28.84"/><ellipse class="cls-46" cx="1410.11" cy="424.9" rx="100.26" ry="33.28" transform="translate(-18.25 66.08) rotate(-2.67)"/><ellipse class="cls-46" cx="1311.49" cy="423" rx="67.05" ry="25.06" transform="translate(-17.81 59.82) rotate(-2.6)"/><ellipse class="cls-54" cx="1299.74" cy="420.57" rx="44.01" ry="16.44" transform="translate(-12.6 41.14) rotate(-1.8)"/><ellipse class="cls-54" cx="1386.24" cy="419.21" rx="55.73" ry="17.72"/><ellipse class="cls-54" cx="1245.96" cy="406.15" rx="12.53" ry="57.67" transform="translate(830.91 1649.18) rotate(-89.59)"/><ellipse class="cls-46" cx="1592.23" cy="605.62" rx="141.99" ry="68" transform="matrix(1, 0, 0, 1, -2.92, 7.72)"/><ellipse class="cls-46" cx="1853.14" cy="579.06" rx="136.67" ry="65.45" transform="translate(-2.78 8.98) rotate(-0.28)"/><ellipse class="cls-46" cx="1729.85" cy="579.44" rx="157.22" ry="79.95" transform="translate(-2.79 8.39) rotate(-0.28)"/><ellipse class="cls-54" cx="1627.22" cy="590.86" rx="102.66" ry="49.16" transform="translate(-2.84 7.89) rotate(-0.28)"/><ellipse class="cls-54" cx="1807.43" cy="579.06" rx="117.96" ry="42.63" transform="translate(-2.78 8.76) rotate(-0.28)"/><polygon class="cls-55" points="1253.25 655.3 1277.25 627.07 1304.24 623.92 1345.7 649.3 1360.9 700.46 1286.81 694.18 1221.92 694.63 1253.25 655.3"/><polygon class="cls-56" points="1392.79 693.03 1360.9 700.46 1314.44 659.96 1304.24 623.92 1361.4 650.73 1392.79 693.03"/></g><g id="forest-front"><path class="cls-57" d="M1499.78,483c-18.67-48.89-43-144.4-43-144.4"/><path class="cls-58" d="M1597.14,714.43a191.64,191.64,0,0,0-6-24.49l-2-6.26c-.71-2.1-1.51-4.2-2.25-6.3l-1.13-3.14c-.4-1-.84-2.09-1.25-3.14l-2.52-6.28c-.87-2.09-1.84-4.17-2.72-6.26s-1.76-4.19-2.76-6.26c-2-4.15-3.81-8.33-5.94-12.43l-3.1-6.19-3.25-6.13c-1.09-2-2.13-4.11-3.25-6.15l-3.41-6.08a680.88,680.88,0,0,0-63.63-92.69c-5.83-7.41-12.24-14.32-18-21.82-2.93-3.7-5.66-7.62-8.39-11.55l-8.24-11.81c-2.86-3.85-5.83-7.62-8.93-11.26s-6.49-7-9.78-10.44-6.71-6.77-10.11-10.13l-5.11-5c-1.74-1.64-3.48-3.27-5.25-4.88-7-6.52-14.23-12.73-21.5-19l-11.18-9c-1.85-1.53-3.8-2.91-5.69-4.37l-5.73-4.31A452.56,452.56,0,0,0,1327.76,368l13.37-24.54a773.72,773.72,0,0,1,101.51,65.28l6,4.56,5.94,4.7c3.95,3.14,7.95,6.24,11.79,9.51,7.76,6.49,15.49,13,23.81,19l12.28,9.28c4.07,3.14,7.92,6.51,11.67,10,1.9,1.72,3.7,3.53,5.44,5.39s3.47,3.73,5.18,5.62c3.46,3.74,6.77,7.62,10.1,11.48q20,23.16,37.7,48.26c2.92,4.21,5.91,8.36,8.68,12.67s5.69,8.52,8.36,12.91,5.43,8.71,8,13.19,5.21,8.87,7.65,13.42l3.71,6.79c1.23,2.28,2.39,4.6,3.58,6.89s2.35,4.61,3.49,6.94l3.32,7.06c4.42,9.41,8.52,19.06,12.23,28.93,7.22,19.88,13.37,40.53,15.26,63.76Z"/><path class="cls-58" d="M1747.4,420.42c-.44,16.67-.55,33.33-.52,50s.19,33.34.48,50c.61,33.34,1.51,66.67,2.89,100,2.57,66.67,6.53,133.34,11.36,200q3.62,50,8,100c3,33.34,5.7,66.67,9.9,100s9.5,66.67,16.32,100c3.42,16.67,7.22,33.34,11.53,50s9.06,33.34,15,50h-300c6-16.66,10.68-33.33,15-50s8.11-33.33,11.53-50c6.82-33.33,12.15-66.66,16.31-100s7-66.66,9.91-100,5.59-66.66,8-100c4.83-66.66,8.79-133.33,11.36-200,1.38-33.33,2.28-66.66,2.89-100q.43-25,.48-50c0-16.67-.08-33.33-.53-50Z"/><path class="cls-59" d="M1714.44,496.65q1.38,23.76,2.17,47.53c.31,7.93.5,15.85.75,23.78l.58,23.77.42,23.78c.09,7.93.23,15.85.25,23.78q.21,23.79-.17,47.58-1.37-23.76-2.17-47.53c-.3-7.92-.5-15.85-.75-23.77l-.57-23.78-.42-23.78c-.09-7.92-.22-15.85-.25-23.78Q1714.07,520.45,1714.44,496.65Z"/><ellipse class="cls-46" cx="497.77" cy="856.03" rx="205.68" ry="98.5"/><ellipse class="cls-46" cx="245.78" cy="793.14" rx="146.71" ry="70.26"/><ellipse class="cls-46" cx="724.13" cy="810.84" rx="178.62" ry="85.54"/><ellipse class="cls-46" cx="553.11" cy="771.99" rx="129.13" ry="61.84"/><ellipse class="cls-46" cx="106.47" cy="930.68" rx="267.11" ry="113.58"/><ellipse class="cls-46" cx="47.96" cy="820.57" rx="197.77" ry="100.57"/><ellipse class="cls-46" cx="367.4" cy="897.57" rx="178.62" ry="85.54"/><ellipse class="cls-52" cx="223.25" cy="831.58" rx="129.13" ry="61.84"/><ellipse class="cls-52" cx="334.51" cy="870.51" rx="150.02" ry="71.84"/><ellipse class="cls-52" cx="153.56" cy="894.11" rx="153.53" ry="73.52"/><ellipse class="cls-52" cx="572.17" cy="820.57" rx="153.53" ry="42.78"/><path class="cls-58" d="M145.33,530.43c-.5,33.33-.42,66.67,0,100s1,66.67,1.93,100q2.64,100,7.61,200l1.2,25,1.35,25,1.34,25,.68,12.5.74,12.5,3,50q1.53,25,3.6,50c2.78,33.33,6.33,66.67,10.88,100,2.33,16.67,4.79,33.33,7.69,50s6,33.33,10,50h-200c4-16.67,7.12-33.33,10-50s5.35-33.33,7.69-50c4.55-33.33,8.1-66.67,10.88-100q2.07-25,3.6-50l3-50,.75-12.5.67-12.5,1.35-25,1.34-25,1.21-25q4.86-100,7.61-200,1.38-50,1.92-100c.39-33.33.47-66.67,0-100Z"/><line class="cls-60" x1="586" y1="278.74" x2="383.05" y2="624.65"/><path class="cls-61" d="M423.24,241.45c-.41,41.24-.52,82.49-.55,123.73l.07,61.87c0,20.62.18,41.24.27,61.86l.32,61.87.59,61.86.58,61.87.81,61.86L427.1,860.1l1,61.86,1.18,61.87.59,30.93.75,30.93c.63,20.62,1.4,41.25,2.46,61.87s2.37,41.24,4,61.86,3.51,41.24,6.2,61.86l-119.56.1c2.65-20.63,4.48-41.25,6.1-61.87s2.85-41.25,3.89-61.87,1.77-41.25,2.37-61.87l.69-30.93.55-30.94L338.44,922l.95-61.87L341,736.44l.71-61.87.48-61.86.48-61.87.23-61.86c.05-20.63.2-41.25.17-61.87l0-61.87c-.11-41.24-.28-82.48-.76-123.73Z"/><ellipse class="cls-62" cx="488.57" cy="183.55" rx="210.06" ry="334.14" transform="translate(304.23 671.83) rotate(-89.91)"/><ellipse class="cls-63" cx="153.71" cy="108.31" rx="180.7" ry="334.14" transform="translate(45.15 261.85) rotate(-89.91)"/><ellipse class="cls-62" cx="328.03" cy="205.02" rx="185.79" ry="77.62" transform="translate(-1.93 3.12) rotate(-0.54)"/><ellipse class="cls-62" cx="135.83" cy="330.1" rx="210.06" ry="334.14" transform="translate(-194.5 465.39) rotate(-89.91)"/><ellipse class="cls-64" cx="598.5" cy="152.45" rx="185.79" ry="77.62" transform="translate(-1.42 5.68) rotate(-0.54)"/><ellipse class="cls-64" cx="53.55" cy="366.52" rx="185.79" ry="77.62" transform="translate(-3.47 0.52) rotate(-0.54)"/><path class="cls-65" d="M106.47,884.21c2.92,21,4.84,42.1,6.47,63.19s2.78,42.19,3.63,63.3,1.37,42.25,1.49,63.4-.14,42.3-1.37,63.5c-2.93-21-4.86-42.1-6.48-63.19s-2.78-42.19-3.62-63.3-1.36-42.25-1.48-63.4S105.25,905.41,106.47,884.21Z"/><path class="cls-59" d="M372.18,537.07c.62,7.25.95,14.5,1.17,21.75.13,3.63.16,7.26.25,10.88l.08,10.88-.08,10.88c-.08,3.62-.11,7.25-.25,10.87-.22,7.26-.55,14.51-1.17,21.76-.63-7.25-.95-14.5-1.17-21.76-.14-3.62-.17-7.25-.25-10.87l-.08-10.88.08-10.88c.08-3.62.12-7.25.25-10.88C371.23,551.57,371.56,544.32,372.18,537.07Z"/><ellipse class="cls-64" cx="214" cy="265.6" rx="185.79" ry="77.62" transform="translate(-2.51 2.04) rotate(-0.54)"/><path class="cls-59" d="M408.22,937.14c.83,7.25,1.26,14.5,1.56,21.76.18,3.62.22,7.25.33,10.87l.11,10.88-.1,10.88c-.12,3.62-.15,7.25-.34,10.88-.29,7.25-.73,14.5-1.56,21.75-.83-7.25-1.27-14.5-1.56-21.75-.18-3.63-.22-7.26-.33-10.88l-.11-10.88.11-10.88c.11-3.62.15-7.25.34-10.87C407,951.64,407.39,944.39,408.22,937.14Z"/><ellipse class="cls-66" cx="1419.3" cy="186.59" rx="334.14" ry="210.06" transform="translate(-0.3 2.31) rotate(-0.09)"/><ellipse class="cls-67" cx="1765.79" cy="139.93" rx="334.14" ry="180.7" transform="translate(-0.23 2.87) rotate(-0.09)"/><ellipse class="cls-66" cx="1495.89" cy="172.14" rx="101.63" ry="243.24" transform="translate(1309.57 1666.34) rotate(-89.46)"/><ellipse class="cls-66" cx="1797.01" cy="317.93" rx="334.14" ry="210.06" transform="translate(-0.51 2.92) rotate(-0.09)"/><ellipse class="cls-68" cx="1309.37" cy="155.49" rx="77.62" ry="185.79" transform="translate(1141.48 1463.33) rotate(-89.46)"/><ellipse class="cls-68" cx="1863.29" cy="363.97" rx="77.62" ry="185.79" transform="translate(1481.67 2223.72) rotate(-89.46)"/><path class="cls-65" d="M1719.33,886.43c4.62,22.66,8.24,45.43,11.56,68.23s6.18,45.66,8.74,68.55,4.78,45.81,6.61,68.78,3.27,46,3.76,69.11c-4.62-22.66-8.25-45.43-11.57-68.23s-6.18-45.66-8.73-68.55-4.77-45.82-6.59-68.79S1719.83,909.55,1719.33,886.43Z"/><ellipse class="cls-68" cx="1409.42" cy="231.07" rx="77.62" ry="185.79" transform="translate(1164.99 1638.23) rotate(-89.46)"/><path class="cls-59" d="M1631.33,780.94c.5,7.49.6,15,.56,22.44,0,3.74-.11,7.47-.17,11.2l-.39,11.19-.6,11.18c-.28,3.73-.49,7.46-.84,11.18-.62,7.44-1.39,14.88-2.56,22.3-.49-7.5-.6-15-.56-22.44,0-3.74.12-7.47.17-11.2l.4-11.2.61-11.18c.27-3.72.48-7.45.83-11.17C1629.41,795.8,1630.17,788.36,1631.33,780.94Z"/></g></g></svg>