<svg xmlns="http://www.w3.org/2000/svg" xmlns:xlink="http://www.w3.org/1999/xlink" viewBox="0 0 1920 1080"><defs><style>.cls-1{fill:#e5dfe1;}.cls-2{fill:#5b6020;}.cls-3{fill:#b0af45;}.cls-4{fill:#787838;}.cls-5{fill:#848040;}.cls-6{fill:#979639;}.cls-7{fill:#867a3e;}.cls-8{fill:#6a783d;}.cls-9{fill:#84802c;}.cls-10{fill:#5c7312;}.cls-11,.cls-17,.cls-21,.cls-22,.cls-23,.cls-24,.cls-25,.cls-26,.cls-27,.cls-28,.cls-29,.cls-30,.cls-31,.cls-41,.cls-42{fill:none;stroke-miterlimit:10;}.cls-11{stroke:#94942a;stroke-width:300px;}.cls-12{fill:#4a6020;}.cls-13{fill:#4a5e20;}.cls-14{fill:#4a5a20;}.cls-15{fill:#80813b;}.cls-16{fill:#939339;}.cls-17,.cls-22,.cls-25,.cls-26,.cls-28,.cls-30,.cls-31{stroke:#82984d;}.cls-17{stroke-width:6.13px;}.cls-18{fill:#9a9a3a;}.cls-19{fill:#342b1a;}.cls-20{fill:#3c362a;}.cls-21{stroke:#3c362a;stroke-width:20px;}.cls-22{stroke-width:4.28px;}.cls-23,.cls-24,.cls-27,.cls-29{stroke:#6b8031;}.cls-23{stroke-width:9.58px;}.cls-24,.cls-28{stroke-width:5.59px;}.cls-25,.cls-27{stroke-width:7.5px;}.cls-26{stroke-width:9.35px;}.cls-29{stroke-width:27.8px;}.cls-30{stroke-width:14.36px;}.cls-31{stroke-width:15.88px;}.cls-32{fill:url(#linear-gradient);}.cls-33{fill:#626235;}.cls-34{fill:#3a2b26;}.cls-35{fill:#45332d;}.cls-36{fill:#3d302b;}.cls-37{fill:#332824;}.cls-38{fill:#27701b;}.cls-39{fill:#cfdee3;}.cls-40{fill:#4a3426;}.cls-41,.cls-42{stroke:#541d16;stroke-linecap:round;stroke-width:3px;}.cls-41{stroke-dasharray:3 20 3 25 3 10;}.cls-42{stroke-dasharray:3 80 3 60;}</style><linearGradient id="linear-gradient" x1="971" y1="-64" x2="971" y2="838" gradientUnits="userSpaceOnUse"><stop offset="0" stop-opacity="0"/><stop offset="0.6" stop-opacity="0.7"/><stop offset="0.76" stop-color="#1c191a" stop-opacity="0.3"/><stop offset="0.82" stop-color="#111010" stop-opacity="0.19"/><stop offset="1" stop-opacity="0"/></linearGradient></defs><g id="fern-interactive"><g id="background"><rect class="cls-1" x="-50" y="-57" width="2020" height="560"/><rect class="cls-2" x="-50" y="477" width="2020" height="651"/><ellipse class="cls-3" cx="222.23" cy="71" rx="282.85" ry="101"/><rect class="cls-4" x="-50" y="393" width="2020" height="94"/><ellipse class="cls-5" cx="781.02" cy="46" rx="282.85" ry="101"/><ellipse class="cls-6" cx="1014.83" cy="213.5" rx="163.83" ry="54.5"/><ellipse class="cls-3" cx="1450.75" cy="61" rx="282.85" ry="101"/><ellipse class="cls-6" cx="415.11" cy="189.22" rx="163.83" ry="54.5"/><ellipse class="cls-7" cx="3.46" cy="418.8" rx="75.11" ry="63.19"/><ellipse class="cls-5" cx="36.85" cy="383.47" rx="108.85" ry="98.47"/><ellipse class="cls-8" cx="151.19" cy="406.31" rx="58.76" ry="58.19"/><ellipse class="cls-9" cx="194.82" cy="355.26" rx="72.67" ry="63.26"/><ellipse class="cls-7" cx="230.69" cy="427.04" rx="72.67" ry="63.26"/><ellipse class="cls-5" cx="306.6" cy="376.24" rx="73.4" ry="109.24"/><ellipse class="cls-10" cx="372.83" cy="409.85" rx="58.76" ry="58.19"/><ellipse class="cls-9" cx="416.46" cy="358.79" rx="72.67" ry="63.26"/><ellipse class="cls-7" cx="452.33" cy="430.57" rx="72.67" ry="63.26"/><ellipse class="cls-7" cx="516.24" cy="403.08" rx="78.32" ry="50.67"/><ellipse class="cls-5" cx="558.28" cy="354.86" rx="106.28" ry="98.86"/><ellipse class="cls-8" cx="670.28" cy="393.08" rx="61.28" ry="46.66"/><ellipse class="cls-9" cx="715.78" cy="352.14" rx="75.78" ry="50.72"/><ellipse class="cls-7" cx="753.18" cy="409.69" rx="75.78" ry="50.72"/><ellipse class="cls-5" cx="825.75" cy="386.4" rx="69.94" ry="70.15"/><ellipse class="cls-10" cx="901.41" cy="395.91" rx="61.28" ry="46.66"/><ellipse class="cls-9" cx="946.9" cy="354.97" rx="75.78" ry="50.72"/><ellipse class="cls-7" cx="984.3" cy="412.53" rx="75.78" ry="50.72"/><ellipse class="cls-7" cx="1041.79" cy="401.21" rx="75.11" ry="63.19"/><ellipse class="cls-5" cx="1092.51" cy="363.68" rx="91.51" ry="100.68"/><ellipse class="cls-8" cx="1189.51" cy="388.73" rx="58.76" ry="58.19"/><ellipse class="cls-9" cx="1233.14" cy="337.68" rx="72.67" ry="63.26"/><ellipse class="cls-7" cx="1269.01" cy="409.46" rx="72.67" ry="63.26"/><ellipse class="cls-5" cx="1338.6" cy="380.4" rx="67.07" ry="87.49"/><ellipse class="cls-10" cx="1411.15" cy="392.26" rx="58.76" ry="58.19"/><ellipse class="cls-9" cx="1454.78" cy="341.21" rx="72.67" ry="63.26"/><ellipse class="cls-7" cx="1490.65" cy="412.99" rx="72.67" ry="63.26"/><ellipse class="cls-7" cx="1502.21" cy="384.07" rx="70.54" ry="76.78"/><ellipse class="cls-5" cx="1572.81" cy="354.49" rx="62.98" ry="106.31"/><ellipse class="cls-10" cx="1849.09" cy="373.2" rx="55.19" ry="70.71"/><ellipse class="cls-9" cx="1890.07" cy="311.16" rx="68.25" ry="76.87"/><ellipse class="cls-7" cx="1923.75" cy="398.38" rx="68.25" ry="76.87"/><line class="cls-11" x1="-80" y1="1060" x2="1107" y2="1239"/><ellipse class="cls-12" cx="314" cy="755.25" rx="265" ry="11.75"/><ellipse class="cls-13" cx="1071" cy="843.56" rx="506.75" ry="13.25"/><ellipse class="cls-14" cx="1079.13" cy="956.9" rx="474.88" ry="26.9"/><ellipse class="cls-12" cx="943" cy="740.9" rx="172" ry="14.1"/></g><g id="plants-background"><ellipse class="cls-15" cx="533.5" cy="214" rx="94.5" ry="42"/><ellipse class="cls-16" cx="509.5" cy="406" rx="94.5" ry="42"/><path class="cls-17" d="M407.43,568.41s-1.65-64.86-54-60.61"/><path class="cls-17" d="M346.11,535.39s41.77-22.64,63.1,33"/><path class="cls-17" d="M481.24,513c-74.05-26.42-72,54.16-72,54.16"/><path class="cls-17" d="M407,567.15s28.42-59.74,76-38.44"/><path class="cls-17" d="M409.21,569.88s-.37-65.62-8.39-84.48"/><ellipse class="cls-15" cx="24.5" cy="189" rx="94.5" ry="42"/><ellipse class="cls-18" cx="90" cy="263" rx="90" ry="40"/><ellipse class="cls-18" cx="229" cy="310" rx="81" ry="36"/><ellipse class="cls-16" cx="375.5" cy="218.56" rx="77.5" ry="34.44"/><ellipse class="cls-15" cx="398.02" cy="135.35" rx="64.63" ry="28.73"/><ellipse class="cls-15" cx="458.21" cy="45.75" rx="64.63" ry="28.73"/><ellipse class="cls-15" cx="250.5" cy="164" rx="94.5" ry="42"/><path class="cls-19" d="M430,587c1.6-7.43,2.82-14.85,4-22.28s2.08-14.86,3-22.28c1.71-14.86,3-29.71,4-44.56.44-7.43.89-14.86,1.19-22.29s.57-14.85.77-22.28l1-44.56c.72-29.71,1.22-59.42,1.82-89.12s1-59.42,1.38-89.13q1.19-89.13,1.4-178.25c.14-59.42,0-118.83-1.1-178.25h45.22c-1.07,59.42-1.24,118.83-1.1,178.25s.61,118.83,1.4,178.25c.35,29.71.9,59.42,1.38,89.13s1.1,59.41,1.82,89.12l1,44.56c.2,7.43.4,14.86.77,22.28s.75,14.86,1.19,22.29c1,14.85,2.28,29.7,4,44.56.88,7.42,1.83,14.85,3,22.28s2.36,14.85,4,22.28Z"/><path class="cls-20" d="M565.13,513.26c1.09-6.4,2-12.81,2.76-19.22s1.45-12.82,2.06-19.23c1.2-12.82,2.1-25.64,2.78-38.45s1.09-25.64,1.37-38.46l.71-38.45,1.27-76.91.93-76.91c.37-25.63.46-51.27.67-76.91l.24-38.45L578,51.82c.1-51.28,0-102.55-.76-153.82h31.5C608-50.73,607.89.54,608,51.82l.09,38.45.24,38.45c.21,25.64.3,51.28.67,76.91l.93,76.91,1.27,76.91.71,38.45c.28,12.82.7,25.64,1.37,38.46s1.58,25.63,2.78,38.45c.61,6.41,1.27,12.82,2.06,19.23s1.67,12.82,2.76,19.22Z"/><path class="cls-20" d="M252.13,530.39c1.09-6.41,2-12.82,2.76-19.23s1.45-12.82,2.06-19.23c1.2-12.82,2.1-25.63,2.78-38.45s1.09-25.64,1.37-38.46l.71-38.45,1.27-76.91.93-76.91c.37-25.63.46-51.27.67-76.9l.24-38.46L265,68.94c.1-51.27,0-102.55-.76-153.82h31.5C295-33.61,294.89,17.67,295,68.94l.09,38.45.24,38.46c.21,25.63.3,51.27.67,76.9l.93,76.91,1.27,76.91L298.9,415c.28,12.82.7,25.64,1.37,38.46s1.58,25.63,2.78,38.45c.61,6.41,1.27,12.82,2.06,19.23s1.67,12.82,2.76,19.23Z"/><path class="cls-20" d="M332,643c1.18-7.43,2.13-14.85,3-22.28s1.56-14.86,2.22-22.28c1.29-14.86,2.25-29.71,3-44.56s1.17-29.71,1.47-44.57l.77-44.56,1.36-89.12,1-89.13c.4-29.71.49-59.42.71-89.12l.27-44.57.09-44.56C346,48.83,345.85-10.58,345-70H379c-.81,59.42-.93,118.83-.82,178.25l.09,44.56.27,44.57c.22,29.7.31,59.41.71,89.12l1,89.13,1.36,89.12.77,44.56c.3,14.86.75,29.71,1.47,44.57s1.7,29.7,3,44.56c.66,7.42,1.37,14.85,2.22,22.28s1.79,14.85,3,22.28Z"/><line class="cls-21" x1="473" y1="177" x2="573.5" y2="-28.5"/><ellipse class="cls-15" cx="312.5" cy="42" rx="94.5" ry="42"/><ellipse class="cls-15" cx="593.5" cy="126" rx="94.5" ry="42"/><ellipse class="cls-15" cx="579.75" cy="13.99" rx="80.75" ry="35.89"/><ellipse class="cls-18" cx="204.61" cy="210.93" rx="64.63" ry="28.73"/><ellipse class="cls-18" cx="264.79" cy="121.34" rx="64.63" ry="28.73"/><ellipse class="cls-18" cx="119.08" cy="117.58" rx="94.5" ry="42"/><ellipse class="cls-16" cx="363.61" cy="363.93" rx="64.63" ry="28.73"/><ellipse class="cls-16" cx="423.79" cy="274.34" rx="64.63" ry="28.73"/><ellipse class="cls-16" cx="24.5" cy="364" rx="67.5" ry="30"/><ellipse class="cls-16" cx="563.45" cy="303.41" rx="64.63" ry="28.73"/><path class="cls-19" d="M202.56,558c3.05-25.64,4.54-51.27,5.58-76.91.49-12.82.79-25.63,1-38.45l.48-38.46,1-76.9.69-76.91c.27-25.64.33-51.27.48-76.91l.18-38.45L212,96.55c.07-51.27,0-102.54-.56-153.82h23.1C234-6,233.92,45.28,234,96.55l.07,38.46.18,38.45c.15,25.64.21,51.27.48,76.91l.69,76.91,1,76.9.48,38.46c.21,12.82.52,25.63,1,38.45,1,25.64,2.53,51.27,5.58,76.91Z"/><ellipse class="cls-15" cx="239.5" cy="420" rx="94.5" ry="42"/><path class="cls-20" d="M18.07,521.76c.54-6.41,1-12.82,1.37-19.23l.55-9.61.47-9.62c.33-6.41.55-12.81.79-19.22s.42-12.82.59-19.23c.75-25.64.79-51.27,1-76.91L23.54,291,24,214.12l.33-76.9.17-76.91c.06-25.64,0-51.27-.09-76.91L24.34-55l-.22-38.46H39.88L39.66-55,39.58-16.6c0,25.64-.15,51.27-.09,76.91l.17,76.91.33,76.9L40.46,291l.66,76.91c.25,25.64.29,51.27,1,76.91.17,6.41.33,12.82.59,19.23s.46,12.81.79,19.22l.47,9.62.55,9.61c.39,6.41.83,12.82,1.37,19.23Z"/><ellipse class="cls-18" cx="41.45" cy="42.41" rx="64.63" ry="28.73"/><path class="cls-22" d="M36.63,554S35.49,508.63-.92,511.6"/><path class="cls-22" d="M-6,530.89S23,515.06,37.87,554"/><path class="cls-22" d="M88,515.23c-51.49-18.47-50.09,37.86-50.09,37.86"/><path class="cls-22" d="M36.37,553.09s19.76-41.76,52.81-26.87"/><path class="cls-22" d="M37.87,555s-.25-45.87-5.83-59.06"/><path class="cls-20" d="M40.06,648a205.43,205.43,0,0,0,8.76-22.28q3.7-11.15,6.54-22.28a425.73,425.73,0,0,0,8.82-44.56c4.43-29.71,4.93-59.42,6.63-89.13q2.23-44.56,4-89.12c1.06-29.71,2.26-59.42,3-89.13Q80.49,202.37,81,113.25c0-14.85.13-29.71,0-44.56L81,46.41l-.23-22.28C80.55,9.27,80.32-5.58,80-20.44S79.18-50.15,78.5-65h100c-.68,14.85-1.1,29.71-1.45,44.56s-.6,29.71-.79,44.57L176,46.41l-.1,22.28c-.09,14.85,0,29.71,0,44.56q.41,89.13,3.18,178.25c.79,29.71,2,59.42,3,89.13q1.83,44.55,4,89.12c1.7,29.71,2.2,59.42,6.63,89.13a425.73,425.73,0,0,0,8.82,44.56q2.85,11.13,6.54,22.28A205.43,205.43,0,0,0,216.94,648Z"/><path class="cls-23" d="M167.78,670.68S165.21,569.37,83.42,576"/><path class="cls-23" d="M72,619.1s65.25-35.37,98.57,51.58"/><path class="cls-23" d="M283.09,584.1c-115.67-41.26-112.52,84.61-112.52,84.61"/><path class="cls-23" d="M167.19,668.71s44.39-93.32,118.65-60.05"/><path class="cls-23" d="M170.57,673s-.58-102.5-13.1-132"/><path class="cls-24" d="M503.05,609.38s-1.51-59.17-49.28-55.3"/><path class="cls-24" d="M447.1,579.26s38.11-20.66,57.57,30.12"/><path class="cls-24" d="M570.4,558.82c-67.57-24.1-65.73,49.41-65.73,49.41"/><path class="cls-24" d="M502.7,608.23s25.93-54.51,69.3-35.07"/><path class="cls-24" d="M504.67,610.72s-.33-59.86-7.65-77.08"/><path class="cls-25" d="M80,701.51s-2-79.34-66.07-74.15"/><path class="cls-25" d="M4.93,661.12s51.1-27.7,77.2,40.39"/><path class="cls-25" d="M170.25,633.71C79.66,601.4,82.13,700,82.13,700"/><path class="cls-25" d="M79.48,700s34.77-73.09,92.92-47"/><path class="cls-25" d="M82.13,703.31S81.68,623,71.87,600"/><ellipse class="cls-15" cx="1170.5" cy="225.34" rx="94.5" ry="42"/><ellipse class="cls-16" cx="1146.5" cy="417.34" rx="94.5" ry="42"/><path class="cls-17" d="M1044.43,579.75s-1.65-64.86-54-60.61"/><path class="cls-17" d="M983.11,546.73s41.77-22.64,63.1,33"/><path class="cls-17" d="M1118.24,524.32c-74-26.41-72,54.17-72,54.17"/><path class="cls-17" d="M1044,578.49s28.42-59.75,76-38.44"/><path class="cls-17" d="M1046.21,581.21s-.37-65.61-8.39-84.48"/><ellipse class="cls-15" cx="661.5" cy="200.34" rx="94.5" ry="42"/><ellipse class="cls-18" cx="727" cy="274.34" rx="90" ry="40"/><ellipse class="cls-18" cx="866" cy="321.34" rx="81" ry="36"/><ellipse class="cls-16" cx="1012.5" cy="285.89" rx="77.5" ry="34.44"/><ellipse class="cls-15" cx="1065.02" cy="167.68" rx="64.63" ry="28.73"/><ellipse class="cls-15" cx="1095.21" cy="57.09" rx="64.63" ry="28.73"/><ellipse class="cls-15" cx="887.5" cy="175.34" rx="94.5" ry="42"/><path class="cls-20" d="M1067,598.34c1.6-7.43,2.82-14.86,4-22.29s2.08-14.85,3-22.28c1.71-14.85,3-29.71,4-44.56.44-7.43.89-14.85,1.19-22.28s.57-14.86.77-22.28l1-44.56c.72-29.71,1.22-59.42,1.82-89.13s1-59.42,1.38-89.12q1.19-89.13,1.4-178.25c.14-59.42,0-118.84-1.1-178.25h45.22c-1.07,59.41-1.24,118.83-1.1,178.25s.61,118.83,1.4,178.25c.35,29.7.9,59.41,1.38,89.12s1.1,59.42,1.82,89.13l1,44.56c.2,7.42.4,14.85.77,22.28s.75,14.85,1.19,22.28c1,14.85,2.28,29.71,4,44.56.88,7.43,1.83,14.86,3,22.28s2.36,14.86,4,22.29Z"/><path class="cls-19" d="M1202.13,524.6c1.09-6.41,2-12.82,2.76-19.23s1.45-12.81,2.06-19.22c1.2-12.82,2.1-25.64,2.78-38.46s1.09-25.63,1.37-38.45l.71-38.46,1.27-76.9L1214,217c.37-25.64.46-51.27.67-76.91l.24-38.45.09-38.46c.1-51.27,0-102.54-.76-153.81h31.5c-.74,51.27-.86,102.54-.76,153.81l.09,38.46.24,38.45c.21,25.64.3,51.27.67,76.91l.93,76.91,1.27,76.9.71,38.46c.28,12.82.7,25.63,1.37,38.45s1.58,25.64,2.78,38.46c.61,6.41,1.27,12.81,2.06,19.22s1.67,12.82,2.76,19.23Z"/><path class="cls-20" d="M889.13,541.72c1.09-6.41,2-12.82,2.76-19.23s1.45-12.81,2.06-19.22c1.2-12.82,2.1-25.64,2.78-38.46s1.09-25.63,1.37-38.45l.71-38.45L900.08,311l.93-76.91c.37-25.64.46-51.27.67-76.91l.24-38.45L902,80.27c.1-51.27,0-102.54-.76-153.81h31.5C932-22.27,931.89,29,932,80.27l.09,38.46.24,38.45c.21,25.64.3,51.27.67,76.91l.93,76.91,1.27,76.91.71,38.45c.28,12.82.7,25.64,1.37,38.45s1.58,25.64,2.78,38.46c.61,6.41,1.27,12.82,2.06,19.22s1.67,12.82,2.76,19.23Z"/><path class="cls-20" d="M969,654.34c1.18-7.43,2.13-14.86,3-22.29s1.56-14.85,2.22-22.28c1.29-14.85,2.25-29.71,3-44.56s1.17-29.71,1.47-44.56l.77-44.56L980.78,387l1-89.12c.4-29.71.49-59.42.71-89.13l.27-44.56.09-44.56C983,60.17,982.85.75,982-58.66H1016c-.81,59.41-.93,118.83-.82,178.25l.09,44.56.27,44.56c.22,29.71.31,59.42.71,89.13l1,89.12,1.36,89.13.77,44.56c.3,14.85.75,29.71,1.47,44.56s1.7,29.71,3,44.56c.66,7.43,1.37,14.86,2.22,22.28s1.79,14.86,3,22.29Z"/><line class="cls-21" x1="1110" y1="188.34" x2="1210.5" y2="-17.16"/><ellipse class="cls-15" cx="949.5" cy="53.34" rx="94.5" ry="42"/><ellipse class="cls-15" cx="1230.5" cy="137.34" rx="94.5" ry="42"/><ellipse class="cls-15" cx="1216.75" cy="25.33" rx="80.75" ry="35.89"/><ellipse class="cls-18" cx="841.61" cy="222.27" rx="64.63" ry="28.73"/><ellipse class="cls-18" cx="901.79" cy="132.67" rx="64.63" ry="28.73"/><ellipse class="cls-18" cx="756.08" cy="128.92" rx="94.5" ry="42"/><ellipse class="cls-16" cx="1000.61" cy="375.27" rx="64.63" ry="28.73"/><ellipse class="cls-16" cx="1060.79" cy="285.67" rx="64.63" ry="28.73"/><ellipse class="cls-16" cx="661.5" cy="375.34" rx="67.5" ry="30"/><ellipse class="cls-16" cx="1200.45" cy="314.75" rx="64.63" ry="28.73"/><path class="cls-20" d="M839.56,569.34c3.05-25.64,4.54-51.28,5.58-76.91.49-12.82.79-25.64,1-38.46l.48-38.45,1-76.91.69-76.91c.27-25.63.33-51.27.48-76.91l.18-38.45.07-38.45c.07-51.28,0-102.55-.56-153.82h23.1C871,5.34,870.92,56.61,871,107.89l.07,38.45.18,38.45c.15,25.64.21,51.28.49,76.91l.68,76.91,1,76.91.48,38.45c.21,12.82.52,25.64,1,38.46,1,25.63,2.53,51.27,5.58,76.91Z"/><ellipse class="cls-15" cx="876.5" cy="431.34" rx="94.5" ry="42"/><path class="cls-20" d="M655.07,533.09c.54-6.41,1-12.82,1.37-19.22l.55-9.62.47-9.61c.33-6.41.55-12.82.79-19.23s.42-12.82.59-19.23c.75-25.63.79-51.27,1-76.9l.66-76.91.47-76.91.33-76.91.17-76.91c.06-25.63,0-51.27-.09-76.9l-.08-38.46-.22-38.45h15.76l-.22,38.45-.08,38.46c-.05,25.63-.15,51.27-.09,76.9l.17,76.91.33,76.91.47,76.91.66,76.91c.25,25.63.29,51.27,1,76.9.17,6.41.33,12.82.59,19.23s.46,12.82.79,19.23l.47,9.61.55,9.62c.39,6.4.83,12.81,1.37,19.22Z"/><ellipse class="cls-18" cx="678.45" cy="53.75" rx="64.63" ry="28.73"/><path class="cls-22" d="M673.63,565.31s-1.14-45.34-37.55-42.37"/><path class="cls-22" d="M631,542.23s29-15.83,43.87,23.08"/><path class="cls-22" d="M725,526.56c-51.49-18.46-50.09,37.87-50.09,37.87"/><path class="cls-22" d="M673.37,564.43s19.76-41.77,52.81-26.88"/><path class="cls-22" d="M674.87,566.34s-.25-45.88-5.83-59.07"/><path class="cls-19" d="M677.06,659.34a205.58,205.58,0,0,0,8.76-22.29q3.7-11.13,6.54-22.28a425.22,425.22,0,0,0,8.82-44.56c4.43-29.71,4.93-59.42,6.63-89.12q2.24-44.56,4-89.13c1.06-29.71,2.26-59.42,3.05-89.12q2.64-89.13,3.18-178.25c0-14.86.13-29.71,0-44.57L718,57.74l-.23-22.28c-.19-14.85-.42-29.71-.79-44.56s-.77-29.71-1.45-44.56h100c-.68,14.85-1.1,29.7-1.45,44.56s-.6,29.71-.79,44.56L813,57.74,812.93,80c-.09,14.86,0,29.71,0,44.57q.4,89.11,3.18,178.25c.79,29.7,2,59.41,3.05,89.12q1.83,44.57,4,89.13c1.7,29.7,2.2,59.41,6.63,89.12a425.22,425.22,0,0,0,8.82,44.56q2.85,11.15,6.54,22.28a205.58,205.58,0,0,0,8.76,22.29Z"/><path class="cls-26" d="M807.58,678.94S805.06,580,725.21,586.5"/><path class="cls-26" d="M714.06,628.59s63.71-34.53,96.24,50.35"/><path class="cls-26" d="M920.16,594.42C807.22,554.13,810.3,677,810.3,677"/><path class="cls-26" d="M807,677s43.35-91.11,115.85-58.62"/><path class="cls-26" d="M810.3,681.18s-.56-100.07-12.79-128.84"/><path class="cls-24" d="M1140.05,620.72s-1.51-59.18-49.28-55.3"/><path class="cls-24" d="M1084.1,590.59s38.11-20.65,57.57,30.13"/><path class="cls-24" d="M1207.4,570.15c-67.57-24.1-65.73,49.42-65.73,49.42"/><path class="cls-24" d="M1139.7,619.57s25.93-54.51,69.3-35.07"/><path class="cls-24" d="M1141.67,622.06s-.33-59.87-7.65-77.08"/><path class="cls-27" d="M707,736.85s-2-79.34-66.07-74.15"/><path class="cls-27" d="M631.93,696.46s51.1-27.7,77.2,40.39"/><path class="cls-27" d="M797.25,669.05c-90.59-32.32-88.12,66.26-88.12,66.26"/><path class="cls-27" d="M706.48,735.31s34.77-73.09,92.92-47"/><path class="cls-27" d="M709.13,738.64s-.45-80.27-10.26-103.35"/><ellipse class="cls-15" cx="1480.5" cy="243.34" rx="94.5" ry="42"/><ellipse class="cls-16" cx="1456.5" cy="435.34" rx="94.5" ry="42"/><path class="cls-17" d="M1354.43,597.75s-1.65-64.86-54-60.61"/><path class="cls-17" d="M1293.11,564.73s41.77-22.64,63.1,33"/><path class="cls-17" d="M1428.24,542.32c-74-26.41-72,54.17-72,54.17"/><path class="cls-17" d="M1354,596.49s28.42-59.75,76-38.44"/><path class="cls-17" d="M1356.21,599.21s-.37-65.61-8.39-84.48"/><ellipse class="cls-15" cx="1852.5" cy="79" rx="94.5" ry="42"/><ellipse class="cls-18" cx="1890" cy="355.34" rx="81" ry="36"/><ellipse class="cls-16" cx="1322.5" cy="247.89" rx="77.5" ry="34.44"/><ellipse class="cls-15" cx="1345.02" cy="164.68" rx="64.63" ry="28.73"/><ellipse class="cls-15" cx="1405.21" cy="75.09" rx="64.63" ry="28.73"/><ellipse class="cls-15" cx="1057.5" cy="111" rx="94.5" ry="42"/><path class="cls-20" d="M1377,616.34c1.6-7.43,2.82-14.86,4-22.29s2.08-14.85,3-22.28c1.71-14.85,3-29.71,4-44.56.44-7.43.89-14.85,1.19-22.28s.57-14.86.77-22.28l1-44.56c.72-29.71,1.22-59.42,1.82-89.13s1-59.42,1.38-89.12q1.19-89.13,1.4-178.25c.14-59.42,0-118.84-1.1-178.25h45.22c-1.07,59.41-1.24,118.83-1.1,178.25s.61,118.83,1.4,178.25c.35,29.7.9,59.41,1.38,89.12s1.1,59.42,1.82,89.13l1,44.56c.2,7.42.4,14.85.77,22.28s.75,14.85,1.19,22.28c1,14.85,2.28,29.71,4,44.56.88,7.43,1.83,14.86,3,22.28s2.36,14.86,4,22.29Z"/><path class="cls-20" d="M1512.13,542.6c1.09-6.41,2-12.82,2.76-19.23s1.45-12.81,2.06-19.22c1.2-12.82,2.1-25.64,2.78-38.46s1.09-25.63,1.37-38.45l.71-38.46,1.27-76.9L1524,235c.37-25.64.46-51.27.67-76.91l.24-38.45.09-38.46c.1-51.27,0-102.54-.76-153.81h31.5c-.74,51.27-.86,102.54-.76,153.81l.09,38.46.24,38.45c.21,25.64.3,51.27.67,76.91l.93,76.91,1.27,76.9.71,38.46c.28,12.82.7,25.63,1.37,38.45s1.58,25.64,2.78,38.46c.61,6.41,1.27,12.81,2.06,19.22s1.67,12.82,2.76,19.23Z"/><path class="cls-20" d="M1279,672.34c1.18-7.43,2.13-14.86,3-22.29s1.56-14.85,2.22-22.28c1.29-14.85,2.25-29.71,3-44.56s1.17-29.71,1.47-44.56l.77-44.56,1.36-89.13,1-89.12c.4-29.71.49-59.42.71-89.13l.27-44.56.09-44.56c.11-59.42,0-118.84-.82-178.25H1326c-.81,59.41-.93,118.83-.82,178.25l.09,44.56.27,44.56c.22,29.71.31,59.42.71,89.13l1,89.12,1.36,89.13.77,44.56c.3,14.85.75,29.71,1.47,44.56s1.7,29.71,3,44.56c.66,7.43,1.37,14.86,2.22,22.28s1.79,14.86,3,22.29Z"/><line class="cls-21" x1="1420" y1="206.34" x2="1520.5" y2="0.84"/><ellipse class="cls-15" cx="1362.5" cy="11" rx="94.5" ry="42"/><ellipse class="cls-15" cx="1540.5" cy="155.34" rx="94.5" ry="42"/><ellipse class="cls-15" cx="1526.75" cy="43.33" rx="80.75" ry="35.89"/><ellipse class="cls-18" cx="1865.61" cy="256.27" rx="64.63" ry="28.73"/><ellipse class="cls-18" cx="1925.79" cy="166.67" rx="64.63" ry="28.73"/><ellipse class="cls-18" cx="1258.5" cy="195" rx="94.5" ry="42"/><ellipse class="cls-16" cx="1310.61" cy="393.27" rx="64.63" ry="28.73"/><ellipse class="cls-16" cx="1370.79" cy="303.67" rx="64.63" ry="28.73"/><ellipse class="cls-16" cx="1510.45" cy="332.75" rx="64.63" ry="28.73"/><path class="cls-19" d="M1863.56,603.34c3-25.64,4.54-51.28,5.58-76.91.49-12.82.79-25.64,1-38.46l.48-38.45,1-76.91.69-76.91c.27-25.63.33-51.27.48-76.91l.18-38.45.07-38.45c.07-51.28,0-102.55-.56-153.82h23.1c-.55,51.27-.63,102.54-.56,153.82l.07,38.45.18,38.45c.15,25.64.21,51.28.49,76.91l.68,76.91,1,76.91.48,38.45c.21,12.82.52,25.64,1,38.46,1,25.63,2.53,51.27,5.58,76.91Z"/><ellipse class="cls-15" cx="1900.5" cy="465.34" rx="94.5" ry="42"/><ellipse class="cls-18" cx="1852.45" cy="167.75" rx="64.63" ry="28.73"/><path class="cls-26" d="M1889.58,678.94s-2.52-98.91-82.37-92.44"/><path class="cls-26" d="M1796.06,628.59s63.71-34.53,96.24,50.35"/><path class="cls-26" d="M2002.16,594.42C1889.22,554.13,1892.3,677,1892.3,677"/><path class="cls-26" d="M1889,677s43.35-91.11,115.85-58.62"/><path class="cls-26" d="M1892.3,681.18s-.56-100.07-12.79-128.84"/><path class="cls-28" d="M1450.05,638.72s-1.51-59.18-49.28-55.3"/><path class="cls-28" d="M1394.1,608.59s38.11-20.65,57.57,30.13"/><path class="cls-28" d="M1517.4,588.15c-67.57-24.1-65.73,49.42-65.73,49.42"/><path class="cls-28" d="M1449.7,637.57s25.93-54.51,69.3-35.07"/><path class="cls-28" d="M1451.67,640.06s-.33-59.87-7.65-77.08"/><path class="cls-27" d="M1494,716.85s-2-79.34-66.07-74.15"/><path class="cls-27" d="M1418.93,676.46s51.1-27.7,77.2,40.39"/><path class="cls-27" d="M1584.25,649.05c-90.59-32.32-88.12,66.26-88.12,66.26"/><path class="cls-27" d="M1493.48,715.31s34.77-73.09,92.92-47"/><path class="cls-27" d="M1496.13,718.64s-.45-80.27-10.26-103.35"/><path class="cls-29" d="M590.17,660.18s-3.92-154-128.28-144"/><path class="cls-29" d="M444.53,581.75S543.74,528,594.4,660.18"/><path class="cls-29" d="M765.5,528.54C589.61,465.8,594.4,657.19,594.4,657.19"/><path class="cls-29" d="M589.26,657.19s67.51-141.91,180.41-91.31"/><path class="cls-29" d="M594.4,663.66S593.53,507.81,574.48,463"/><path class="cls-30" d="M303.75,770.31s-3.87-151.9-126.5-142"/><path class="cls-30" d="M160.13,693S258,640,307.92,770.31"/><path class="cls-30" d="M476.64,640.5C303.2,578.63,307.92,767.36,307.92,767.36"/><path class="cls-30" d="M302.85,767.36s66.57-139.93,177.9-90"/><path class="cls-30" d="M307.92,773.75s-.86-153.69-19.64-197.88"/><path class="cls-31" d="M930.64,687.6S927.57,567,830.18,574.86"/><path class="cls-31" d="M816.58,626.19S894.28,584.07,934,687.6"/><path class="cls-31" d="M1068,584.51C930.21,535.38,934,685.26,934,685.26"/><path class="cls-31" d="M929.93,685.26s52.87-111.13,141.29-71.5"/><path class="cls-31" d="M934,690.33s-.68-122.05-15.6-157.15"/><path class="cls-26" d="M1241.8,663s-2.52-98.91-82.37-92.43"/><path class="cls-26" d="M1148.28,612.67s63.7-34.53,96.24,50.35"/><path class="cls-26" d="M1354.38,578.5c-112.94-40.29-109.86,82.61-109.86,82.61"/><path class="cls-26" d="M1241.21,661.11s43.35-91.12,115.85-58.63"/><path class="cls-26" d="M1244.52,665.26s-.56-100.07-12.79-128.84"/><path class="cls-27" d="M1170.17,752.93s-2-79.34-66.07-74.15"/><path class="cls-27" d="M1095.15,712.54s51.1-27.7,77.2,40.39"/><path class="cls-27" d="M1260.47,685.13c-90.59-32.32-88.12,66.26-88.12,66.26"/><path class="cls-27" d="M1169.7,751.39s34.77-73.09,92.92-47"/><path class="cls-27" d="M1172.35,754.72s-.45-80.27-10.26-103.35"/><path class="cls-25" d="M69.5,900.93s-2-79.34-66.07-74.15"/><path class="cls-25" d="M-5.51,860.54s51.1-27.7,77.19,40.39"/><path class="cls-25" d="M159.81,833.13c-90.6-32.32-88.13,66.26-88.13,66.26"/><path class="cls-25" d="M69,899.39s34.77-73.09,92.92-47"/><path class="cls-25" d="M71.68,902.72s-.45-80.27-10.26-103.35"/><path class="cls-26" d="M452.13,861.36s-2.52-98.91-82.37-92.44"/><path class="cls-26" d="M358.61,811s63.71-34.53,96.24,50.36"/><path class="cls-26" d="M564.71,776.83c-112.94-40.28-109.86,82.61-109.86,82.61"/><path class="cls-26" d="M451.55,859.44s43.34-91.12,115.84-58.63"/><path class="cls-26" d="M454.85,863.6s-.56-100.08-12.79-128.85"/><path class="cls-27" d="M307.5,929.26s-2-79.34-66.07-74.15"/><path class="cls-27" d="M232.49,888.87s51.1-27.7,77.19,40.39"/><path class="cls-27" d="M397.81,861.46c-90.6-32.31-88.13,66.26-88.13,66.26"/><path class="cls-27" d="M307,927.72s34.77-73.09,92.92-47"/><path class="cls-27" d="M309.68,931.06s-.45-80.27-10.26-103.36"/></g><g id="shade"><rect class="cls-32" x="-56" y="-64" width="2054" height="902"/></g><g id="plants-foreground"><path class="cls-19" d="M1490,817c2.31-2.9,4.39-5.8,6.39-8.69l2.94-4.35c1-1.45,1.88-2.9,2.81-4.35q5.46-8.68,10.17-17.38a381.36,381.36,0,0,0,16.63-34.77c4.86-11.58,9.06-23.17,12.82-34.76s6.88-23.18,9.62-34.77a492.58,492.58,0,0,0,11-69.53l3-34.77,1.48-17.38,1.39-17.38,2.75-34.77,2.58-34.77,1.28-17.38L1576,434.6l2.35-34.77q4.46-69.54,7.88-139.07c4.41-92.71,7.3-185.42,8-278.13.35-46.35.19-92.71-.75-139.06q-.69-34.77-2-69.54c-1-23.17-2-46.35-3.73-69.53h254.4c-1.73,23.18-2.77,46.36-3.73,69.53s-1.53,46.36-2,69.54c-.93,46.35-1.1,92.71-.75,139.06.72,92.71,3.61,185.42,8,278.13q3.39,69.54,7.87,139.07l2.36,34.77,1.19,17.38,1.28,17.38,2.57,34.77,2.76,34.77,1.39,17.38,1.47,17.38,3,34.77a492.61,492.61,0,0,0,11,69.53q4.1,17.38,9.61,34.77c3.77,11.59,8,23.18,12.83,34.76a378.74,378.74,0,0,0,16.63,34.77q4.71,8.7,10.17,17.38c.92,1.45,1.84,2.9,2.8,4.35l2.94,4.35c2,2.89,4.09,5.79,6.39,8.69Z"/><polygon class="cls-33" points="1766.78 -114.67 1749 43.33 1775.67 201.34 1714.97 387.94 1714.97 447.65 1667.22 464.36 1625.44 553.46 1579.22 621.58 1579.22 688.99 1629.5 741.5 1563.32 817.03 1940.11 817.03 1885.9 715.01 1855.5 475.25 1844.18 207.22 1837 -90.67 1766.78 -114.67"/><path class="cls-30" d="M1597.41,829.79s-3.86-151.9-126.49-142"/><path class="cls-30" d="M1453.8,752.46s97.83-53,147.79,77.33"/><path class="cls-30" d="M1770.31,700c-173.45-61.86-168.72,126.87-168.72,126.87"/><path class="cls-30" d="M1596.52,826.85s66.57-139.94,177.9-90"/><path class="cls-30" d="M1601.59,833.23s-.86-153.68-19.64-197.87"/><path class="cls-26" d="M1745.8,920.84s-2.52-98.91-82.37-92.44"/><path class="cls-26" d="M1652.28,870.49s63.7-34.53,96.24,50.35"/><path class="cls-26" d="M1858.38,836.32c-112.94-40.29-109.86,82.6-109.86,82.6"/><path class="cls-26" d="M1745.21,918.92s43.35-91.11,115.85-58.62"/><path class="cls-26" d="M1748.52,923.08S1748,823,1735.73,794.23"/><path class="cls-27" d="M1601.17,988.75s-2-79.35-66.07-74.15"/><path class="cls-27" d="M1526.15,948.35s51.1-27.69,77.2,40.4"/><path class="cls-27" d="M1691.47,921c-90.59-32.32-88.12,66.26-88.12,66.26"/><path class="cls-27" d="M1600.7,987.21s34.77-73.09,92.92-47"/><path class="cls-27" d="M1603.35,990.54s-.45-80.27-10.26-103.35"/></g><g id="fern"><path class="cls-34" d="M1295.19,531.06l-1.33-.93-1.5-1c-1-.69-2.07-1.38-3.1-2.07-2.07-1.39-4.25-2.74-6.38-4.11s-4.34-2.7-6.52-4-4.37-2.68-6.61-4l-6.67-3.89c-2.23-1.3-4.51-2.52-6.76-3.79l-6.77-3.77-6.87-3.64-6.87-3.64-7-3.51c-4.65-2.31-9.25-4.72-14-6.91l-14.09-6.71-14.24-6.42c-4.73-2.18-9.54-4.18-14.34-6.22s-9.59-4.1-14.42-6.07l-14.56-5.77L1136,451.7l-7.34-2.73c-9.81-3.62-19.57-7.34-29.49-10.64l-14.84-5.1c-5-1.69-10-3.19-14.94-4.79C1029.48,415.73,988.93,405,948,395.9l-30.81-6.47c-10.3-2-20.64-3.8-31-5.72s-20.7-3.47-31.07-5.12S834.39,375.25,824,374l-31.27-4-31.37-3.23c-5.23-.51-10.45-1.11-15.69-1.56L729.9,364c-10.49-.77-21-1.64-31.47-2.32l-31.53-1.52-15.78-.75-15.78-.33-31.58-.68c-2.63-.09-5.27,0-7.9,0l-7.9,0-15.8.09a2116.56,2116.56,0,0,0-252.31,17.2l-1.45-10.41a2130.23,2130.23,0,0,1,253.46-23l15.93-.45,8-.23c2.65-.06,5.31-.19,8-.16l31.88,0,15.94,0,15.94.39,31.89.82c10.62.44,21.24,1.08,31.86,1.62l15.94.83c5.31.34,10.61.82,15.91,1.22l31.83,2.55,31.76,3.37c10.61,1,21.15,2.53,31.71,3.92s21.14,2.68,31.65,4.48,21.06,3.31,31.57,5.1l31.45,5.85c41.85,8.3,83.41,18.31,124.44,30.36,5.13,1.53,10.28,2.95,15.38,4.56l15.29,4.86c10.23,3.15,20.32,6.74,30.45,10.21l7.59,2.64,7.53,2.79,15.07,5.59c5,1.91,10,3.94,15,5.9s10,3.93,14.91,6.07l14.84,6.28,14.71,6.6c4.93,2.16,9.76,4.55,14.63,6.84l7.29,3.48,7.24,3.62,7.23,3.63,7.18,3.78c2.39,1.27,4.8,2.5,7.17,3.81l7.12,3.94c2.39,1.29,4.74,2.67,7.1,4s4.73,2.71,7.07,4.15,4.7,2.82,7.06,4.33c1.18.75,2.34,1.46,3.55,2.25l1.79,1.18.93.61,1,.69Z"/><polygon class="cls-35" points="1272.34 581.22 1247.37 476.12 1277.77 504.08 1324.59 466.2 1347.63 503.5 1398.72 460.5 1382.41 580.77 1272.34 581.22"/><polygon class="cls-36" points="1269.75 643.86 1243.76 534.48 1275.4 563.58 1324.13 524.16 1348.1 562.98 1401.27 518.23 1384.3 643.39 1269.75 643.86"/><polygon class="cls-34" points="1268.75 696.04 1242.67 586.26 1274.42 615.47 1323.34 575.9 1347.4 614.86 1400.77 569.95 1383.74 695.58 1268.75 696.04"/><polygon class="cls-37" points="1269.52 758.66 1243.44 648.88 1275.19 678.09 1324.11 638.52 1348.17 677.48 1401.54 632.57 1384.51 758.2 1269.52 758.66"/><polygon class="cls-34" points="1265.68 828.27 1237.94 711.55 1271.71 742.6 1323.71 700.53 1349.29 741.96 1406.04 694.21 1387.93 827.78 1265.68 828.27"/><polygon class="cls-37" points="1264.92 885.68 1237.19 768.95 1270.96 800.01 1322.96 757.94 1348.54 799.36 1405.29 751.61 1387.18 885.18 1264.92 885.68"/><polygon class="cls-34" points="1257.97 957.03 1228.19 831.7 1264.45 865.05 1320.29 819.88 1347.76 864.35 1408.69 813.08 1389.24 956.5 1257.97 957.03"/><polygon class="cls-37" points="1252.05 1035.36 1219.75 899.39 1259.08 935.56 1319.65 886.56 1349.45 934.81 1415.56 879.19 1394.46 1034.78 1252.05 1035.36"/><g id="leaf-16"><polygon class="cls-38" points="310.94 372.03 220.49 380.73 298.07 387.19 204.83 405.08 285.22 401.59 192.66 427.7 272.82 420.55 177 450.31 258.58 441.29 177 473.5 248.01 460.58 177 493.6 237.65 481.49 182.22 505.97 229.59 499.32 197.87 514.67 224.84 512.06 243.97 524.34 230.06 499.89 275.28 525.98 238.75 482.49 289.2 508.58 249.19 461.62 301.37 487.71 259.63 442.48 315.29 477.27 275.28 421.61 329.21 466.83 287.46 402.47 344.86 451.18 299.63 388.56 355.3 437.26 320.51 372.9 310.94 372.03"/><polygon class="cls-39" points="310.94 372.03 220.49 380.73 298.07 387.19 204.83 405.08 285.22 401.59 192.66 427.7 272.82 420.55 177 450.31 258.58 441.29 177 473.5 248.01 460.58 177 493.6 237.65 481.49 182.22 505.97 229.59 499.32 197.87 514.67 224.84 512.06 243.97 524.34 230.06 499.89 275.28 525.98 238.75 482.49 289.2 508.58 249.19 461.62 301.37 487.71 259.63 442.48 315.29 477.27 275.28 421.61 329.21 466.83 287.46 402.47 344.86 451.18 299.63 388.56 355.3 437.26 320.51 372.9 310.94 372.03"/><circle class="cls-40" cx="319.74" cy="384.66" r="3.28"/><circle class="cls-40" cx="310.55" cy="389.91" r="3.28"/><circle class="cls-40" cx="298.74" cy="401.72" r="3.28"/><circle class="cls-40" cx="324.99" cy="392.53" r="3.28"/><circle class="cls-40" cx="315.8" cy="396.47" r="3.28"/><circle class="cls-40" cx="305.3" cy="406.97" r="3.28"/><circle class="cls-40" cx="288.24" cy="412.22" r="3.28"/><circle class="cls-40" cx="292.18" cy="420.09" r="3.28"/><circle class="cls-40" cx="282.99" cy="420.09" r="3.28"/><circle class="cls-40" cx="251.5" cy="472.58" r="3.28"/><circle class="cls-40" cx="267.25" cy="460.77" r="3.28"/><circle class="cls-40" cx="260.69" cy="455.52" r="3.28"/><circle class="cls-40" cx="276.43" cy="445.02" r="3.28"/><circle class="cls-40" cx="281.68" cy="438.46" r="3.28"/><circle class="cls-40" cx="271.18" cy="439.78" r="3.28"/><circle class="cls-40" cx="276.43" cy="430.59" r="3.28"/></g><g id="leaf-8"><polygon class="cls-38" points="484.89 366.94 388.98 384 472.51 384 374.48 411.53 460.1 400.42 363.53 436.83 448.58 421.83 348.87 462.44 435.26 445.31 350.99 487.23 425.72 466.91 352.84 508.72 416.57 490.21 359.55 521.47 409.58 510.02 377.09 529.33 405.67 524.07 427.25 535.44 410.13 510.57 460.88 534.32 417.84 491.18 474.16 514.45 427.08 467.91 485.27 491.02 436.49 446.49 499.19 478.58 451.31 422.74 513.11 466.15 462.57 401.17 528.41 447.97 474.31 385.17 538.29 432.14 495.19 366.94 484.89 366.94"/><polygon class="cls-39" points="484.89 366.94 388.98 384 472.51 384 374.48 411.53 460.1 400.42 363.53 436.83 448.58 421.83 348.87 462.44 435.26 445.31 350.99 487.23 425.72 466.91 352.84 508.72 416.57 490.21 359.55 521.47 409.58 510.02 377.09 529.33 405.67 524.07 427.25 535.44 410.13 510.57 460.88 534.32 417.84 491.18 474.16 514.45 427.08 467.91 485.27 491.02 436.49 446.49 499.19 478.58 451.31 422.74 513.11 466.15 462.57 401.17 528.41 447.97 474.31 385.17 538.29 432.14 495.19 366.94 484.89 366.94"/><circle class="cls-40" cx="494.93" cy="378.75" r="3.94"/><circle class="cls-40" cx="487.05" cy="385.32" r="3.94"/><circle class="cls-40" cx="473.93" cy="399.75" r="3.94"/><circle class="cls-40" cx="501.49" cy="387.94" r="3.94"/><circle class="cls-40" cx="492.3" cy="391.88" r="3.94"/><circle class="cls-40" cx="483.12" cy="403.69" r="3.94"/><circle class="cls-40" cx="464.74" cy="411.56" r="3.94"/><circle class="cls-40" cx="468.68" cy="420.75" r="3.94"/></g><g id="leaf-4"><polygon class="cls-38" points="671.01 366.94 568.14 385.32 657.74 385.32 552.59 414.5 644.42 402.59 540.85 441.63 632.07 425.55 525.12 469.1 617.78 450.74 527.4 495.7 607.55 473.9 529.38 518.75 597.74 498.89 536.58 532.42 590.24 520.13 555.39 540.85 586.05 535.21 609.2 547.4 590.83 520.73 645.26 546.2 599.1 499.93 659.51 524.89 609.01 474.97 671.42 499.75 619.1 452 686.35 486.42 635 426.52 701.28 473.08 647.08 403.38 717.69 453.59 659.67 386.23 728.29 436.61 682.06 366.94 671.01 366.94"/><polygon class="cls-39" points="671.01 366.94 568.14 385.32 657.74 385.32 552.59 414.5 644.42 402.59 540.85 441.63 632.07 425.55 525.12 469.1 617.78 450.74 527.4 495.7 607.55 473.9 529.38 518.75 597.74 498.89 536.58 532.42 590.24 520.13 555.39 540.85 586.05 535.21 609.2 547.4 590.83 520.73 645.26 546.2 599.1 499.93 659.51 524.89 609.01 474.97 671.42 499.75 619.1 452 686.35 486.42 635 426.52 701.28 473.08 647.08 403.38 717.69 453.59 659.67 386.23 728.29 436.61 682.06 366.94 671.01 366.94"/><circle class="cls-40" cx="682.58" cy="378.75" r="3.94"/><circle class="cls-40" cx="672.08" cy="386.63" r="3.94"/><circle class="cls-40" cx="689.14" cy="389.25" r="3.94"/><circle class="cls-40" cx="679.96" cy="393.19" r="3.94"/></g><g id="leaf-2"><polygon class="cls-38" points="890.86 384.21 782.9 406.54 877.32 404.17 767.21 437.95 863.71 423.22 755.48 466.82 851.23 447.71 739.56 496.14 836.77 474.59 742.6 524.12 826.54 499.24 745.23 548.36 816.79 525.81 753.14 562.6 809.4 548.38 773.16 571.04 805.34 564.36 830.02 576.66 810.04 548.99 868 574.54 818.25 526.88 882.51 551.74 828.11 500.33 894.46 524.97 838.19 475.89 909.88 510.56 854.34 448.67 925.29 496.15 866.52 423.99 942.13 475.22 879.39 405.62 952.89 457.07 902.51 384 890.86 384.21"/><polygon class="cls-39" points="890.86 384.21 782.9 406.54 877.32 404.17 767.21 437.95 863.71 423.22 755.48 466.82 851.23 447.71 739.56 496.14 836.77 474.59 742.6 524.12 826.54 499.24 745.23 548.36 816.79 525.81 753.14 562.6 809.4 548.38 773.16 571.04 805.34 564.36 830.02 576.66 810.04 548.99 868 574.54 818.25 526.88 882.51 551.74 828.11 500.33 894.46 524.97 838.19 475.89 909.88 510.56 854.34 448.67 925.29 496.15 866.52 423.99 942.13 475.22 879.39 405.62 952.89 457.07 902.51 384 890.86 384.21"/><circle class="cls-40" cx="903.04" cy="397.13" r="3.94"/><circle class="cls-40" cx="892.54" cy="405" r="3.94"/></g><g id="leaf-1"><polygon class="cls-38" points="1071.8 433.81 957 454.87 1056.98 454.62 939.64 487.75 1042.12 474.45 926.54 518.02 1028.34 500.07 908.99 548.68 1012.39 528.18 911.53 578.36 1000.98 554.03 913.74 604.08 990.02 581.92 921.77 619.34 981.66 605.63 942.76 628.75 976.98 622.45 1002.81 636.06 982.32 606.3 1043.06 634.72 991.54 583.08 1058.96 610.94 1002.61 555.23 1072.25 582.89 1013.86 529.59 1088.91 568 1031.61 501.16 1105.58 553.12 1045.09 475.34 1123.89 531.37 1059.14 456.19 1135.72 512.41 1084.13 433.87 1071.8 433.81"/><polygon class="cls-39" points="1071.8 433.81 957 454.87 1056.98 454.62 939.64 487.75 1042.12 474.45 926.54 518.02 1028.34 500.07 908.99 548.68 1012.39 528.18 911.53 578.36 1000.98 554.03 913.74 604.08 990.02 581.92 921.77 619.34 981.66 605.63 942.76 628.75 976.98 622.45 1002.81 636.06 982.32 606.3 1043.06 634.72 991.54 583.08 1058.96 610.94 1002.61 555.23 1072.25 582.89 1013.86 529.59 1088.91 568 1031.61 501.16 1105.58 553.12 1045.09 475.34 1123.89 531.37 1059.14 456.19 1135.72 512.41 1084.13 433.87 1071.8 433.81"/><circle class="cls-40" cx="1083.48" cy="447.65" r="4.59"/></g><path class="cls-34" d="M975,620.06c6.09-19,12.9-37.66,20.22-56.19s15.27-36.81,24-54.76,18.42-35.56,29.8-52.29a210.26,210.26,0,0,1,18.88-24.05c7-7.53,14.88-14.66,24.48-20l6,11.43c-7.92,4-15.24,10.09-21.94,16.81a198.75,198.75,0,0,0-18.61,22.1c-11.51,15.7-21.55,32.66-30.84,50s-17.75,35.24-25.68,53.34-15.35,36.49-22,55.06Z"/><path class="cls-34" d="M803.6,562.25c4.82-18.18,10.46-36,16.67-53.76q4.65-13.28,9.86-26.38c3.49-8.72,7.11-17.41,11-26a367.27,367.27,0,0,1,27.06-49.89,201.45,201.45,0,0,1,17.53-22.88A107.58,107.58,0,0,1,908.14,364l6.48,10.73a95.62,95.62,0,0,0-20.44,16.53,190.88,190.88,0,0,0-17.28,21,358.06,358.06,0,0,0-28,47.59c-4.18,8.27-8.05,16.71-11.81,25.2s-7.31,17.09-10.7,25.75c-6.77,17.32-13,34.92-18.44,52.68Z"/><path class="cls-34" d="M584.2,534.45c4.49-17,9.75-33.75,15.52-50.35q4.35-12.44,9.2-24.71c3.25-8.18,6.63-16.32,10.3-24.34a345.62,345.62,0,0,1,25.24-46.76,189.24,189.24,0,0,1,16.38-21.45,100.68,100.68,0,0,1,20.91-18.18l6.08,10a89.7,89.7,0,0,0-19.1,15.51,177,177,0,0,0-16.15,19.66,336.9,336.9,0,0,0-26.18,44.61c-3.89,7.75-7.51,15.65-11,23.61s-6.81,16-10,24.13c-6.31,16.22-12.15,32.7-17.19,49.34Z"/><path class="cls-34" d="M399.48,525.39c2.49-8.31,5.23-16.46,8.11-24.6s5.93-16.2,9.14-24.21c6.41-16,13.51-31.81,21.44-47.22q6-11.53,12.72-22.74c4.54-7.43,9.38-14.7,14.6-21.75a182,182,0,0,1,17.24-20.11,114.39,114.39,0,0,1,21.06-17l5.86,10a104.08,104.08,0,0,0-19.51,14.62,173.25,173.25,0,0,0-16.94,18.39c-5.25,6.57-10.19,13.43-14.86,20.5s-9,14.37-13.24,21.77c-8.34,14.85-15.92,30.18-22.83,45.81s-13.3,31.57-18.84,47.7Z"/><path class="cls-34" d="M222.34,512.2c5.23-13.82,11.06-27.33,17.3-40.69q4.7-10,9.79-19.85c3.41-6.56,6.92-13.06,10.66-19.45a292.07,292.07,0,0,1,25-36.93,158.61,158.61,0,0,1,15.46-16.56,82,82,0,0,1,19-13.41l4.17,8.88a73.3,73.3,0,0,0-17.25,11.31,149.55,149.55,0,0,0-15.12,15.09,283.77,283.77,0,0,0-25.6,35.07c-3.9,6.15-7.6,12.44-11.2,18.79s-7.05,12.79-10.39,19.29c-6.66,13-12.95,26.27-18.6,39.73Z"/></g><g id="ants"><path id="ants-2" class="cls-41" d="M1827.67-11.93S1805,20.43,1809,61.22l4,40.78s32.67,169.67,21.33,217.34-13.88,153.12,2.39,195.39S1859,633.38,1855.5,657.19s35.72,146.87,84.61,159.84"/><path id="ants-1" class="cls-42" d="M1819.67-8.93S1797,23.43,1801,64.22l4,40.78s32.67,169.67,21.33,217.34-13.88,153.12,2.39,195.39S1851,636.38,1847.5,660.19s35.72,146.87,84.61,159.84"/></g></g></svg>