<svg xmlns="http://www.w3.org/2000/svg" xmlns:xlink="http://www.w3.org/1999/xlink" viewBox="0 0 1920 1080"><defs><style>.cls-1{opacity:0.5;}.cls-2{opacity:0.7;}.cls-3{fill:#e5dfe1;}.cls-4{fill:#5b6020;}.cls-5{fill:#b0af45;}.cls-6{fill:#787838;}.cls-7{fill:#848040;}.cls-8{fill:#979639;}.cls-9{fill:#867a3e;}.cls-10{fill:#6a783d;}.cls-11{fill:#84802c;}.cls-12{fill:#5c7312;}.cls-13{fill:#4a5e20;}.cls-14{fill:#4a6220;}.cls-15{fill:#4a6020;}.cls-16{fill:url(#linear-gradient);}.cls-17{fill:#80813b;}.cls-18{fill:#696929;}.cls-19,.cls-25,.cls-28,.cls-29,.cls-30,.cls-31,.cls-32,.cls-34,.cls-35,.cls-36,.cls-37,.cls-38,.cls-39,.cls-40,.cls-41,.cls-43,.cls-44,.cls-45,.cls-46{fill:none;stroke-miterlimit:10;}.cls-19,.cls-34{stroke:#556332;}.cls-19,.cls-32,.cls-37{stroke-width:6.13px;}.cls-20{fill:#9a9a3a;}.cls-21{fill:#7a7a2f;}.cls-22{fill:#939339;}.cls-23{fill:#342b1a;}.cls-24{fill:#3c362a;}.cls-25{stroke:#3c362a;stroke-width:20px;}.cls-26{fill:#75752d;}.cls-27{fill:#595922;}.cls-28,.cls-35{stroke:#697a3e;}.cls-28,.cls-34{stroke-width:4.28px;}.cls-29,.cls-30,.cls-36,.cls-40{stroke:#6b8031;}.cls-29{stroke-width:9.58px;}.cls-30,.cls-39{stroke-width:5.59px;}.cls-31,.cls-38,.cls-39,.cls-41{stroke:#82984d;}.cls-31,.cls-36{stroke-width:7.5px;}.cls-32{stroke:#596935;}.cls-33{fill:#4c4c1d;}.cls-35,.cls-38{stroke-width:9.35px;}.cls-37{stroke:#576633;}.cls-40{stroke-width:18.42px;}.cls-41{stroke-width:15.88px;}.cls-42{fill:#6e6e3b;}.cls-43,.cls-44,.cls-45,.cls-46{stroke:#541d16;stroke-linecap:round;stroke-width:4px;}.cls-43{stroke-dasharray:3 25 3 45 3 15;}.cls-44{stroke-dasharray:3 95 3 70;}.cls-45{stroke-dasharray:3 15 3 10;}.cls-46{stroke-dasharray:3 10 3 15;}.cls-47{fill:#4f503f;}.cls-48{fill:#3f4032;}.cls-49{fill:#6b8031;}.cls-50{fill:#65892b;}.cls-51{fill:#82984d;}</style><linearGradient id="linear-gradient" x1="971" y1="-64" x2="971" y2="838" gradientUnits="userSpaceOnUse"><stop offset="0" stop-opacity="0"/><stop offset="0.6" stop-opacity="0.5"/><stop offset="0.74" stop-color="#1d191a" stop-opacity="0.34"/><stop offset="0.76" stop-color="#1c191a" stop-opacity="0.3"/><stop offset="0.82" stop-color="#111010" stop-opacity="0.19"/><stop offset="1" stop-opacity="0"/></linearGradient></defs><g id="fern-interactive"><g id="background-2" data-name="background"><rect class="cls-3" x="-50" y="-57" width="2020" height="560"/><rect class="cls-4" x="-50" y="477" width="2020" height="651"/><ellipse class="cls-5" cx="222.23" cy="71" rx="282.85" ry="101"/><rect class="cls-6" x="-50" y="393" width="2020" height="94"/><ellipse class="cls-7" cx="781.02" cy="46" rx="282.85" ry="101"/><ellipse class="cls-8" cx="1014.83" cy="213.5" rx="163.83" ry="54.5"/><ellipse class="cls-5" cx="1450.75" cy="61" rx="282.85" ry="101"/><ellipse class="cls-8" cx="415.11" cy="189.22" rx="163.83" ry="54.5"/><ellipse class="cls-9" cx="3.46" cy="418.8" rx="75.11" ry="63.19"/><ellipse class="cls-7" cx="36.85" cy="383.47" rx="108.85" ry="98.47"/><ellipse class="cls-10" cx="151.19" cy="406.31" rx="58.76" ry="58.19"/><ellipse class="cls-11" cx="194.82" cy="355.26" rx="72.67" ry="63.26"/><ellipse class="cls-9" cx="230.69" cy="427.04" rx="72.67" ry="63.26"/><ellipse class="cls-7" cx="306.6" cy="376.24" rx="73.4" ry="109.24"/><ellipse class="cls-12" cx="372.83" cy="409.85" rx="58.76" ry="58.19"/><ellipse class="cls-11" cx="416.46" cy="358.79" rx="72.67" ry="63.26"/><ellipse class="cls-9" cx="452.33" cy="430.57" rx="72.67" ry="63.26"/><ellipse class="cls-9" cx="516.24" cy="403.08" rx="78.32" ry="50.67"/><ellipse class="cls-7" cx="558.28" cy="354.86" rx="106.28" ry="98.86"/><ellipse class="cls-10" cx="670.28" cy="393.08" rx="61.28" ry="46.66"/><ellipse class="cls-11" cx="715.78" cy="352.14" rx="75.78" ry="50.72"/><ellipse class="cls-9" cx="753.18" cy="409.69" rx="75.78" ry="50.72"/><ellipse class="cls-7" cx="825.75" cy="386.4" rx="69.94" ry="70.15"/><ellipse class="cls-12" cx="901.41" cy="395.91" rx="61.28" ry="46.66"/><ellipse class="cls-11" cx="946.9" cy="354.97" rx="75.78" ry="50.72"/><ellipse class="cls-9" cx="984.3" cy="412.53" rx="75.78" ry="50.72"/><ellipse class="cls-9" cx="1041.79" cy="401.21" rx="75.11" ry="63.19"/><ellipse class="cls-7" cx="1092.51" cy="363.68" rx="91.51" ry="100.68"/><ellipse class="cls-10" cx="1189.51" cy="388.73" rx="58.76" ry="58.19"/><ellipse class="cls-11" cx="1233.14" cy="337.68" rx="72.67" ry="63.26"/><ellipse class="cls-9" cx="1269.01" cy="409.46" rx="72.67" ry="63.26"/><ellipse class="cls-7" cx="1338.6" cy="380.4" rx="67.07" ry="87.49"/><ellipse class="cls-12" cx="1411.15" cy="392.26" rx="58.76" ry="58.19"/><ellipse class="cls-11" cx="1454.78" cy="341.21" rx="72.67" ry="63.26"/><ellipse class="cls-9" cx="1490.65" cy="412.99" rx="72.67" ry="63.26"/><ellipse class="cls-9" cx="1502.21" cy="384.07" rx="70.54" ry="76.78"/><ellipse class="cls-7" cx="1572.81" cy="354.49" rx="62.98" ry="106.31"/><ellipse class="cls-12" cx="1849.09" cy="373.2" rx="55.19" ry="70.71"/><ellipse class="cls-11" cx="1890.07" cy="311.16" rx="68.25" ry="76.87"/><ellipse class="cls-9" cx="1923.75" cy="398.38" rx="68.25" ry="76.87"/><ellipse class="cls-13" cx="1481" cy="596.56" rx="506.75" ry="13.25"/><ellipse class="cls-14" cx="416.13" cy="539.9" rx="474.88" ry="26.9"/><ellipse class="cls-15" cx="1233" cy="649.9" rx="172" ry="14.1"/></g><g id="shade-2" data-name="shade"><rect class="cls-16" x="-56" y="-64" width="2054" height="902"/></g><g id="plants-background-2" data-name="plants-background"><ellipse class="cls-17" cx="533.5" cy="214" rx="94.5" ry="42"/><ellipse class="cls-18" cx="509.5" cy="406" rx="94.5" ry="42"/><path class="cls-19" d="M407.43,568.41s-1.65-64.86-54-60.61"/><path class="cls-19" d="M346.11,535.39s41.77-22.64,63.1,33"/><path class="cls-19" d="M481.24,513c-74.05-26.42-72,54.16-72,54.16"/><path class="cls-19" d="M407,567.15s28.42-59.74,76-38.44"/><path class="cls-19" d="M409.21,569.88s-.37-65.62-8.39-84.48"/><ellipse class="cls-17" cx="24.5" cy="189" rx="94.5" ry="42"/><ellipse class="cls-20" cx="90" cy="263" rx="90" ry="40"/><ellipse class="cls-21" cx="229" cy="310" rx="81" ry="36"/><ellipse class="cls-22" cx="375.5" cy="218.56" rx="77.5" ry="34.44"/><ellipse class="cls-17" cx="398.02" cy="135.35" rx="64.63" ry="28.73"/><ellipse class="cls-17" cx="458.21" cy="45.75" rx="64.63" ry="28.73"/><ellipse class="cls-17" cx="250.5" cy="197" rx="94.5" ry="42"/><path class="cls-23" d="M430,587c1.6-7.43,2.82-14.85,4-22.28s2.08-14.86,3-22.28c1.71-14.86,3-29.71,4-44.56.44-7.43.89-14.86,1.19-22.29s.57-14.85.77-22.28l1-44.56c.72-29.71,1.22-59.42,1.82-89.12s1-59.42,1.38-89.13q1.19-89.13,1.4-178.25c.14-59.42,0-118.83-1.1-178.25h45.22c-1.07,59.42-1.24,118.83-1.1,178.25s.61,118.83,1.4,178.25c.35,29.71.9,59.42,1.38,89.13s1.1,59.41,1.82,89.12l1,44.56c.2,7.43.4,14.86.77,22.28s.75,14.86,1.19,22.29c1,14.85,2.28,29.7,4,44.56.88,7.42,1.83,14.85,3,22.28s2.36,14.85,4,22.28Z"/><path class="cls-24" d="M565.13,513.26c1.09-6.4,2-12.81,2.76-19.22s1.45-12.82,2.06-19.23c1.2-12.82,2.1-25.64,2.78-38.45s1.09-25.64,1.37-38.46l.71-38.45,1.27-76.91.93-76.91c.37-25.63.46-51.27.67-76.91l.24-38.45L578,51.82c.1-51.28,0-102.55-.76-153.82h31.5C608-50.73,607.89.54,608,51.82l.09,38.45.24,38.45c.21,25.64.3,51.28.67,76.91l.93,76.91,1.27,76.91.71,38.45c.28,12.82.7,25.64,1.37,38.46s1.58,25.63,2.78,38.45c.61,6.41,1.27,12.82,2.06,19.23s1.67,12.82,2.76,19.22Z"/><path class="cls-24" d="M252.13,530.39c1.09-6.41,2-12.82,2.76-19.23s1.45-12.82,2.06-19.23c1.2-12.82,2.1-25.63,2.78-38.45s1.09-25.64,1.37-38.46l.71-38.45,1.27-76.91.93-76.91c.37-25.63.46-51.27.67-76.9l.24-38.46L265,68.94c.1-51.27,0-102.55-.76-153.82h31.5C295-33.61,294.89,17.67,295,68.94l.09,38.45.24,38.46c.21,25.63.3,51.27.67,76.9l.93,76.91,1.27,76.91L298.9,415c.28,12.82.7,25.64,1.37,38.46s1.58,25.63,2.78,38.45c.61,6.41,1.27,12.82,2.06,19.23s1.67,12.82,2.76,19.23Z"/><path class="cls-24" d="M332,643c1.18-7.43,2.13-14.85,3-22.28s1.56-14.86,2.22-22.28c1.29-14.86,2.25-29.71,3-44.56s1.17-29.71,1.47-44.57l.77-44.56,1.36-89.12,1-89.13c.4-29.71.49-59.42.71-89.12l.27-44.57.09-44.56C346,48.83,345.85-10.58,345-70H379c-.81,59.42-.93,118.83-.82,178.25l.09,44.56.27,44.57c.22,29.7.31,59.41.71,89.12l1,89.13,1.36,89.12.77,44.56c.3,14.86.75,29.71,1.47,44.57s1.7,29.7,3,44.56c.66,7.42,1.37,14.85,2.22,22.28s1.79,14.85,3,22.28Z"/><line class="cls-25" x1="473" y1="177" x2="573.5" y2="-28.5"/><ellipse class="cls-17" cx="312.5" cy="42" rx="94.5" ry="42"/><ellipse class="cls-17" cx="593.5" cy="126" rx="94.5" ry="42"/><ellipse class="cls-17" cx="579.75" cy="13.99" rx="80.75" ry="35.89"/><ellipse class="cls-20" cx="204.61" cy="245.93" rx="64.63" ry="28.73"/><ellipse class="cls-20" cx="264.79" cy="121.34" rx="64.63" ry="28.73"/><ellipse class="cls-20" cx="119.08" cy="117.58" rx="94.5" ry="42"/><ellipse class="cls-21" cx="363.61" cy="363.93" rx="64.63" ry="28.73"/><ellipse class="cls-26" cx="423.79" cy="274.34" rx="64.63" ry="28.73"/><ellipse class="cls-18" cx="24.5" cy="364" rx="67.5" ry="30"/><ellipse class="cls-17" cx="563.45" cy="303.41" rx="64.63" ry="28.73"/><path class="cls-23" d="M202.56,558c3.05-25.64,4.54-51.27,5.58-76.91.49-12.82.79-25.63,1-38.45l.48-38.46,1-76.9.69-76.91c.27-25.64.33-51.27.48-76.91l.18-38.45L212,96.55c.07-51.27,0-102.54-.56-153.82h23.1C234-6,233.92,45.28,234,96.55l.07,38.46.18,38.45c.15,25.64.21,51.27.48,76.91l.69,76.91,1,76.9.48,38.46c.21,12.82.52,25.63,1,38.45,1,25.64,2.53,51.27,5.58,76.91Z"/><ellipse class="cls-27" cx="239.5" cy="420" rx="94.5" ry="42"/><path class="cls-24" d="M18.07,521.76c.54-6.41,1-12.82,1.37-19.23l.55-9.61.47-9.62c.33-6.41.55-12.81.79-19.22s.42-12.82.59-19.23c.75-25.64.79-51.27,1-76.91L23.54,291,24,214.12l.33-76.9.17-76.91c.06-25.64,0-51.27-.09-76.91L24.34-55l-.22-38.46H39.88L39.66-55,39.58-16.6c0,25.64-.15,51.27-.09,76.91l.17,76.91.33,76.9L40.46,291l.66,76.91c.25,25.64.29,51.27,1,76.91.17,6.41.33,12.82.59,19.23s.46,12.81.79,19.22l.47,9.62.55,9.61c.39,6.41.83,12.82,1.37,19.23Z"/><ellipse class="cls-20" cx="41.45" cy="42.41" rx="64.63" ry="28.73"/><path class="cls-28" d="M36.63,554S35.49,508.63-.92,511.6"/><path class="cls-28" d="M-6,530.89S23,515.06,37.87,554"/><path class="cls-28" d="M88,515.23c-51.49-18.47-50.09,37.86-50.09,37.86"/><path class="cls-28" d="M36.37,553.09s19.76-41.76,52.81-26.87"/><path class="cls-28" d="M37.87,555s-.25-45.87-5.83-59.06"/><path class="cls-24" d="M40.06,648a205.43,205.43,0,0,0,8.76-22.28q3.7-11.15,6.54-22.28a425.73,425.73,0,0,0,8.82-44.56c4.43-29.71,4.93-59.42,6.63-89.13q2.23-44.56,4-89.12c1.06-29.71,2.26-59.42,3-89.13Q80.49,202.37,81,113.25c0-14.85.13-29.71,0-44.56L81,46.41l-.23-22.28C80.55,9.27,80.32-5.58,80-20.44S79.18-50.15,78.5-65h100c-.68,14.85-1.1,29.71-1.45,44.56s-.6,29.71-.79,44.57L176,46.41l-.1,22.28c-.09,14.85,0,29.71,0,44.56q.41,89.13,3.18,178.25c.79,29.71,2,59.42,3,89.13q1.83,44.55,4,89.12c1.7,29.71,2.2,59.42,6.63,89.13a425.73,425.73,0,0,0,8.82,44.56q2.85,11.13,6.54,22.28A205.43,205.43,0,0,0,216.94,648Z"/><path class="cls-29" d="M167.78,670.68S165.21,569.37,83.42,576"/><path class="cls-29" d="M72,619.1s65.25-35.37,98.57,51.58"/><path class="cls-29" d="M283.09,584.1c-115.67-41.26-112.52,84.61-112.52,84.61"/><path class="cls-29" d="M167.19,668.71s44.39-93.32,118.65-60.05"/><path class="cls-29" d="M170.57,673s-.58-102.5-13.1-132"/><path class="cls-30" d="M503.05,609.38s-1.51-59.17-49.28-55.3"/><path class="cls-30" d="M447.1,579.26s38.11-20.66,57.57,30.12"/><path class="cls-30" d="M570.4,558.82c-67.57-24.1-65.73,49.41-65.73,49.41"/><path class="cls-30" d="M502.7,608.23s25.93-54.51,69.3-35.07"/><path class="cls-30" d="M504.67,610.72s-.33-59.86-7.65-77.08"/><path class="cls-31" d="M80,701.51s-2-79.34-66.07-74.15"/><path class="cls-31" d="M4.93,661.12s51.1-27.7,77.2,40.39"/><path class="cls-31" d="M170.25,633.71C79.66,601.4,82.13,700,82.13,700"/><path class="cls-31" d="M79.48,700s34.77-73.09,92.92-47"/><path class="cls-31" d="M82.13,703.31S81.68,623,71.87,600"/><ellipse class="cls-17" cx="1170.5" cy="225.34" rx="94.5" ry="42"/><ellipse class="cls-27" cx="1146.5" cy="417.34" rx="94.5" ry="42"/><path class="cls-32" d="M1044.43,579.75s-1.65-64.86-54-60.61"/><path class="cls-32" d="M983.11,546.73s41.77-22.64,63.1,33"/><path class="cls-32" d="M1118.24,524.32c-74-26.41-72,54.17-72,54.17"/><path class="cls-32" d="M1044,578.49s28.42-59.75,76-38.44"/><path class="cls-32" d="M1046.21,581.21s-.37-65.61-8.39-84.48"/><ellipse class="cls-17" cx="661.5" cy="200.34" rx="94.5" ry="42"/><ellipse class="cls-20" cx="727" cy="274.34" rx="90" ry="40"/><ellipse class="cls-27" cx="866" cy="321.34" rx="81" ry="36"/><ellipse class="cls-22" cx="1012.5" cy="285.89" rx="77.5" ry="34.44"/><ellipse class="cls-17" cx="1065.02" cy="167.68" rx="64.63" ry="28.73"/><ellipse class="cls-17" cx="1095.21" cy="57.09" rx="64.63" ry="28.73"/><ellipse class="cls-17" cx="889.5" cy="193" rx="94.5" ry="42"/><path class="cls-24" d="M1067,598.34c1.6-7.43,2.82-14.86,4-22.29s2.08-14.85,3-22.28c1.71-14.85,3-29.71,4-44.56.44-7.43.89-14.85,1.19-22.28s.57-14.86.77-22.28l1-44.56c.72-29.71,1.22-59.42,1.82-89.13s1-59.42,1.38-89.12q1.19-89.13,1.4-178.25c.14-59.42,0-118.84-1.1-178.25h45.22c-1.07,59.41-1.24,118.83-1.1,178.25s.61,118.83,1.4,178.25c.35,29.7.9,59.41,1.38,89.12s1.1,59.42,1.82,89.13l1,44.56c.2,7.42.4,14.85.77,22.28s.75,14.85,1.19,22.28c1,14.85,2.28,29.71,4,44.56.88,7.43,1.83,14.86,3,22.28s2.36,14.86,4,22.29Z"/><path class="cls-23" d="M1202.13,524.6c1.09-6.41,2-12.82,2.76-19.23s1.45-12.81,2.06-19.22c1.2-12.82,2.1-25.64,2.78-38.46s1.09-25.63,1.37-38.45l.71-38.46,1.27-76.9L1214,217c.37-25.64.46-51.27.67-76.91l.24-38.45.09-38.46c.1-51.27,0-102.54-.76-153.81h31.5c-.74,51.27-.86,102.54-.76,153.81l.09,38.46.24,38.45c.21,25.64.3,51.27.67,76.91l.93,76.91,1.27,76.9.71,38.46c.28,12.82.7,25.63,1.37,38.45s1.58,25.64,2.78,38.46c.61,6.41,1.27,12.81,2.06,19.22s1.67,12.82,2.76,19.23Z"/><path class="cls-24" d="M889.13,541.72c1.09-6.41,2-12.82,2.76-19.23s1.45-12.81,2.06-19.22c1.2-12.82,2.1-25.64,2.78-38.46s1.09-25.63,1.37-38.45l.71-38.45L900.08,311l.93-76.91c.37-25.64.46-51.27.67-76.91l.24-38.45L902,80.27c.1-51.27,0-102.54-.76-153.81h31.5C932-22.27,931.89,29,932,80.27l.09,38.46.24,38.45c.21,25.64.3,51.27.67,76.91l.93,76.91,1.27,76.91.71,38.45c.28,12.82.7,25.64,1.37,38.45s1.58,25.64,2.78,38.46c.61,6.41,1.27,12.82,2.06,19.22s1.67,12.82,2.76,19.23Z"/><path class="cls-24" d="M969,654.34c1.18-7.43,2.13-14.86,3-22.29s1.56-14.85,2.22-22.28c1.29-14.85,2.25-29.71,3-44.56s1.17-29.71,1.47-44.56l.77-44.56L980.78,387l1-89.12c.4-29.71.49-59.42.71-89.13l.27-44.56.09-44.56C983,60.17,982.85.75,982-58.66H1016c-.81,59.41-.93,118.83-.82,178.25l.09,44.56.27,44.56c.22,29.71.31,59.42.71,89.13l1,89.12,1.36,89.13.77,44.56c.3,14.85.75,29.71,1.47,44.56s1.7,29.71,3,44.56c.66,7.43,1.37,14.86,2.22,22.28s1.79,14.86,3,22.29Z"/><line class="cls-25" x1="1110" y1="188.34" x2="1210.5" y2="-17.16"/><ellipse class="cls-17" cx="949.5" cy="53.34" rx="94.5" ry="42"/><ellipse class="cls-17" cx="1230.5" cy="137.34" rx="94.5" ry="42"/><ellipse class="cls-17" cx="1216.75" cy="25.33" rx="80.75" ry="35.89"/><ellipse class="cls-20" cx="827.61" cy="259.27" rx="64.63" ry="28.73"/><ellipse class="cls-20" cx="901.79" cy="132.67" rx="64.63" ry="28.73"/><ellipse class="cls-20" cx="756.08" cy="128.92" rx="94.5" ry="42"/><ellipse class="cls-26" cx="1000.61" cy="375.27" rx="64.63" ry="28.73"/><ellipse class="cls-26" cx="1060.79" cy="285.67" rx="64.63" ry="28.73"/><ellipse class="cls-21" cx="661.5" cy="375.34" rx="67.5" ry="30"/><ellipse class="cls-21" cx="1200.45" cy="314.75" rx="64.63" ry="28.73"/><path class="cls-24" d="M839.56,569.34c3.05-25.64,4.54-51.28,5.58-76.91.49-12.82.79-25.64,1-38.46l.48-38.45,1-76.91.69-76.91c.27-25.63.33-51.27.48-76.91l.18-38.45.07-38.45c.07-51.28,0-102.55-.56-153.82h23.1C871,5.34,870.92,56.61,871,107.89l.07,38.45.18,38.45c.15,25.64.21,51.28.49,76.91l.68,76.91,1,76.91.48,38.45c.21,12.82.52,25.64,1,38.46,1,25.63,2.53,51.27,5.58,76.91Z"/><ellipse class="cls-33" cx="876.5" cy="431.34" rx="94.5" ry="42"/><path class="cls-24" d="M655.07,533.09c.54-6.41,1-12.82,1.37-19.22l.55-9.62.47-9.61c.33-6.41.55-12.82.79-19.23s.42-12.82.59-19.23c.75-25.63.79-51.27,1-76.9l.66-76.91.47-76.91.33-76.91.17-76.91c.06-25.63,0-51.27-.09-76.9l-.08-38.46-.22-38.45h15.76l-.22,38.45-.08,38.46c-.05,25.63-.15,51.27-.09,76.9l.17,76.91.33,76.91.47,76.91.66,76.91c.25,25.63.29,51.27,1,76.9.17,6.41.33,12.82.59,19.23s.46,12.82.79,19.23l.47,9.61.55,9.62c.39,6.4.83,12.81,1.37,19.22Z"/><ellipse class="cls-20" cx="678.45" cy="53.75" rx="64.63" ry="28.73"/><path class="cls-34" d="M673.63,565.31s-1.14-45.34-37.55-42.37"/><path class="cls-34" d="M631,542.23s29-15.83,43.87,23.08"/><path class="cls-34" d="M725,526.56c-51.49-18.46-50.09,37.87-50.09,37.87"/><path class="cls-34" d="M673.37,564.43s19.76-41.77,52.81-26.88"/><path class="cls-34" d="M674.87,566.34s-.25-45.88-5.83-59.07"/><path class="cls-23" d="M677.06,659.34a205.58,205.58,0,0,0,8.76-22.29q3.7-11.13,6.54-22.28a425.22,425.22,0,0,0,8.82-44.56c4.43-29.71,4.93-59.42,6.63-89.12q2.24-44.56,4-89.13c1.06-29.71,2.26-59.42,3.05-89.12q2.64-89.13,3.18-178.25c0-14.86.13-29.71,0-44.57L718,57.74l-.23-22.28c-.19-14.85-.42-29.71-.79-44.56s-.77-29.71-1.45-44.56h100c-.68,14.85-1.1,29.7-1.45,44.56s-.6,29.71-.79,44.56L813,57.74,812.93,80c-.09,14.86,0,29.71,0,44.57q.4,89.11,3.18,178.25c.79,29.7,2,59.41,3.05,89.12q1.83,44.57,4,89.13c1.7,29.7,2.2,59.41,6.63,89.12a425.22,425.22,0,0,0,8.82,44.56q2.85,11.15,6.54,22.28a205.58,205.58,0,0,0,8.76,22.29Z"/><path class="cls-35" d="M807.58,678.94S805.06,580,725.21,586.5"/><path class="cls-35" d="M714.06,628.59s63.71-34.53,96.24,50.35"/><path class="cls-35" d="M920.16,594.42C807.22,554.13,810.3,677,810.3,677"/><path class="cls-35" d="M807,677s43.35-91.11,115.85-58.62"/><path class="cls-35" d="M810.3,681.18s-.56-100.07-12.79-128.84"/><path class="cls-30" d="M1140.05,620.72s-1.51-59.18-49.28-55.3"/><path class="cls-30" d="M1084.1,590.59s38.11-20.65,57.57,30.13"/><path class="cls-30" d="M1207.4,570.15c-67.57-24.1-65.73,49.42-65.73,49.42"/><path class="cls-30" d="M1139.7,619.57s25.93-54.51,69.3-35.07"/><path class="cls-30" d="M1141.67,622.06s-.33-59.87-7.65-77.08"/><path class="cls-36" d="M393,680.85s-2-79.34-66.07-74.15"/><path class="cls-36" d="M317.93,640.46s51.1-27.7,77.2,40.39"/><path class="cls-36" d="M483.25,613.05c-90.59-32.32-88.12,66.26-88.12,66.26"/><path class="cls-36" d="M392.48,679.31s34.77-73.09,92.92-47"/><path class="cls-36" d="M395.13,682.64s-.45-80.27-10.26-103.35"/><ellipse class="cls-17" cx="1480.5" cy="243.34" rx="94.5" ry="42"/><ellipse class="cls-33" cx="1456.5" cy="435.34" rx="94.5" ry="42"/><path class="cls-37" d="M1354.43,597.75s-1.65-64.86-54-60.61"/><path class="cls-37" d="M1293.11,564.73s41.77-22.64,63.1,33"/><path class="cls-37" d="M1428.24,542.32c-74-26.41-72,54.17-72,54.17"/><path class="cls-37" d="M1354,596.49s28.42-59.75,76-38.44"/><path class="cls-37" d="M1356.21,599.21s-.37-65.61-8.39-84.48"/><ellipse class="cls-17" cx="1852.5" cy="79" rx="94.5" ry="42"/><ellipse class="cls-20" cx="1890" cy="355.34" rx="81" ry="36"/><ellipse class="cls-22" cx="1322.5" cy="247.89" rx="77.5" ry="34.44"/><ellipse class="cls-17" cx="1360.19" cy="188.94" rx="97.81" ry="43.47"/><ellipse class="cls-17" cx="1405.21" cy="75.09" rx="64.63" ry="28.73"/><ellipse class="cls-17" cx="1057.5" cy="111" rx="94.5" ry="42"/><path class="cls-24" d="M1377,616.34c1.6-7.43,2.82-14.86,4-22.29s2.08-14.85,3-22.28c1.71-14.85,3-29.71,4-44.56.44-7.43.89-14.85,1.19-22.28s.57-14.86.77-22.28l1-44.56c.72-29.71,1.22-59.42,1.82-89.13s1-59.42,1.38-89.12q1.19-89.13,1.4-178.25c.14-59.42,0-118.84-1.1-178.25h45.22c-1.07,59.41-1.24,118.83-1.1,178.25s.61,118.83,1.4,178.25c.35,29.7.9,59.41,1.38,89.12s1.1,59.42,1.82,89.13l1,44.56c.2,7.42.4,14.85.77,22.28s.75,14.85,1.19,22.28c1,14.85,2.28,29.71,4,44.56.88,7.43,1.83,14.86,3,22.28s2.36,14.86,4,22.29Z"/><path class="cls-24" d="M1512.13,542.6c1.09-6.41,2-12.82,2.76-19.23s1.45-12.81,2.06-19.22c1.2-12.82,2.1-25.64,2.78-38.46s1.09-25.63,1.37-38.45l.71-38.46,1.27-76.9L1524,235c.37-25.64.46-51.27.67-76.91l.24-38.45.09-38.46c.1-51.27,0-102.54-.76-153.81h31.5c-.74,51.27-.86,102.54-.76,153.81l.09,38.46.24,38.45c.21,25.64.3,51.27.67,76.91l.93,76.91,1.27,76.9.71,38.46c.28,12.82.7,25.63,1.37,38.45s1.58,25.64,2.78,38.46c.61,6.41,1.27,12.81,2.06,19.22s1.67,12.82,2.76,19.23Z"/><path class="cls-24" d="M1279,672.34c1.18-7.43,2.13-14.86,3-22.29s1.56-14.85,2.22-22.28c1.29-14.85,2.25-29.71,3-44.56s1.17-29.71,1.47-44.56l.77-44.56,1.36-89.13,1-89.12c.4-29.71.49-59.42.71-89.13l.27-44.56.09-44.56c.11-59.42,0-118.84-.82-178.25H1326c-.81,59.41-.93,118.83-.82,178.25l.09,44.56.27,44.56c.22,29.71.31,59.42.71,89.13l1,89.12,1.36,89.13.77,44.56c.3,14.85.75,29.71,1.47,44.56s1.7,29.71,3,44.56c.66,7.43,1.37,14.86,2.22,22.28s1.79,14.86,3,22.29Z"/><line class="cls-25" x1="1420" y1="206.34" x2="1520.5" y2="0.84"/><ellipse class="cls-17" cx="1362.5" cy="11" rx="94.5" ry="42"/><ellipse class="cls-17" cx="1540.5" cy="155.34" rx="94.5" ry="42"/><ellipse class="cls-17" cx="1526.75" cy="43.33" rx="80.75" ry="35.89"/><ellipse class="cls-20" cx="1865.61" cy="256.27" rx="64.63" ry="28.73"/><ellipse class="cls-20" cx="1925.79" cy="166.67" rx="64.63" ry="28.73"/><ellipse class="cls-20" cx="1250.5" cy="253" rx="94.5" ry="42"/><ellipse class="cls-18" cx="1310.61" cy="393.27" rx="64.63" ry="28.73"/><ellipse class="cls-26" cx="1370.79" cy="303.67" rx="64.63" ry="28.73"/><ellipse class="cls-27" cx="1510.45" cy="332.75" rx="64.63" ry="28.73"/><path class="cls-23" d="M1863.56,603.34c3-25.64,4.54-51.28,5.58-76.91.49-12.82.79-25.64,1-38.46l.48-38.45,1-76.91.69-76.91c.27-25.63.33-51.27.48-76.91l.18-38.45.07-38.45c.07-51.28,0-102.55-.56-153.82h23.1c-.55,51.27-.63,102.54-.56,153.82l.07,38.45.18,38.45c.15,25.64.21,51.28.49,76.91l.68,76.91,1,76.91.48,38.45c.21,12.82.52,25.64,1,38.46,1,25.63,2.53,51.27,5.58,76.91Z"/><ellipse class="cls-17" cx="1900.5" cy="465.34" rx="94.5" ry="42"/><ellipse class="cls-20" cx="1852.45" cy="167.75" rx="64.63" ry="28.73"/><path class="cls-38" d="M1868.58,755.94s-2.52-98.91-82.37-92.44"/><path class="cls-38" d="M1775.06,705.59s63.71-34.53,96.24,50.35"/><path class="cls-38" d="M1981.16,671.42C1868.22,631.13,1871.3,754,1871.3,754"/><path class="cls-38" d="M1868,754s43.35-91.11,115.85-58.62"/><path class="cls-38" d="M1871.3,758.18s-.56-100.07-12.79-128.84"/><path class="cls-39" d="M1474.05,648.72s-1.51-59.18-49.28-55.3"/><path class="cls-39" d="M1418.1,618.59s38.11-20.65,57.57,30.13"/><path class="cls-39" d="M1541.4,598.15c-67.57-24.1-65.73,49.42-65.73,49.42"/><path class="cls-39" d="M1473.7,647.57s25.93-54.51,69.3-35.07"/><path class="cls-39" d="M1475.67,650.06s-.33-59.87-7.65-77.08"/><path class="cls-36" d="M1485,801.85s-2-79.34-66.07-74.15"/><path class="cls-36" d="M1409.93,761.46s51.1-27.7,77.2,40.39"/><path class="cls-36" d="M1575.25,734.05c-90.59-32.32-88.12,66.26-88.12,66.26"/><path class="cls-36" d="M1484.48,800.31s34.77-73.09,92.92-47"/><path class="cls-36" d="M1487.13,803.64s-.45-80.27-10.26-103.35"/><path class="cls-40" d="M617.14,682.87S614,559.53,514.43,567.61"/><path class="cls-40" d="M500.53,620.08S580,577,620.53,682.87"/><path class="cls-40" d="M757.52,577.47c-140.83-50.23-137,103-137,103"/><path class="cls-40" d="M616.41,680.48s54.05-113.62,144.45-73.11"/><path class="cls-40" d="M620.53,685.66s-.7-124.78-15.95-160.66"/><path class="cls-41" d="M930.64,687.6S927.57,567,830.18,574.86"/><path class="cls-41" d="M816.58,626.19S894.28,584.07,934,687.6"/><path class="cls-41" d="M1068,584.51C930.21,535.38,934,685.26,934,685.26"/><path class="cls-41" d="M929.93,685.26s52.87-111.13,141.29-71.5"/><path class="cls-41" d="M934,690.33s-.68-122.05-15.6-157.15"/><path class="cls-38" d="M1241.8,663s-2.52-98.91-82.37-92.43"/><path class="cls-38" d="M1148.28,612.67s63.7-34.53,96.24,50.35"/><path class="cls-38" d="M1354.38,578.5c-112.94-40.29-109.86,82.61-109.86,82.61"/><path class="cls-38" d="M1241.21,661.11s43.35-91.12,115.85-58.63"/><path class="cls-38" d="M1244.52,665.26s-.56-100.07-12.79-128.84"/><path class="cls-36" d="M1374.17,723.93s-2-79.34-66.07-74.15"/><path class="cls-36" d="M1299.15,683.54s51.1-27.7,77.2,40.39"/><path class="cls-36" d="M1464.47,656.13c-90.59-32.32-88.12,66.26-88.12,66.26"/><path class="cls-36" d="M1373.7,722.39s34.77-73.09,92.92-47"/><path class="cls-36" d="M1376.35,725.72s-.45-80.27-10.26-103.35"/></g><g id="tree-2" data-name="tree"><path class="cls-23" d="M1415.16,948.18c2.73-3.11,5.2-6.21,7.58-9.31l3.48-4.66c1.14-1.55,2.23-3.1,3.33-4.65q6.48-9.31,12.07-18.62a393.09,393.09,0,0,0,19.72-37.24c1.43-3.11,2.87-6.21,4.18-9.31l2-4.66,1.9-4.65c2.58-6.21,4.9-12.42,7.11-18.62,4.4-12.42,8.17-24.83,11.41-37.24a480,480,0,0,0,13.09-74.48l3.51-37.24,1.75-18.62,1.65-18.62,3.27-37.24,3-37.24,1.52-18.62,1.41-18.62L1520,501.3q5.3-74.48,9.35-149c5.23-99.31,8.66-198.61,9.5-297.92.42-49.65.22-99.31-.88-149-.56-24.83-1.31-49.65-2.38-74.48s-2.38-49.65-4.42-74.48h301.76c-2,24.83-3.33,49.65-4.42,74.48s-1.82,49.65-2.37,74.48c-1.11,49.65-1.3,99.31-.89,149,.85,99.31,4.28,198.61,9.5,297.92q4,74.48,9.35,149l2.79,37.24,1.41,18.62,1.52,18.62,3,37.24,3.28,37.24,1.64,18.62,1.76,18.62,3.5,37.24a481.22,481.22,0,0,0,13.1,74.48c3.24,12.41,7,24.82,11.4,37.24,2.21,6.2,4.53,12.41,7.11,18.62l1.9,4.65,2,4.66c1.31,3.1,2.75,6.2,4.18,9.31a390.93,390.93,0,0,0,19.73,37.24q5.6,9.3,12.06,18.62c1.1,1.55,2.19,3.1,3.33,4.65l3.49,4.66c2.37,3.1,4.84,6.2,7.58,9.31Z"/><polygon class="cls-42" points="1743.5 -156.99 1722.42 30.42 1754.05 217.84 1682.05 439.19 1682.05 510.02 1625.41 529.84 1575.85 635.53 1521.03 716.33 1521.03 796.3 1580.66 858.59 1502.17 948.18 1949.11 948.18 1884.81 827.16 1848.75 542.76 1835.32 224.83 1826.8 -128.53 1743.5 -156.99"/></g><g id="ants-2" data-name="ants"><path id="ants-2-2" data-name="ants-2" class="cls-43" d="M1815.73-35.13s-26.89,38.39-22.14,86.77l4.74,48.37s38.75,201.27,25.31,257.81-16.48,181.63,2.83,231.77,26.43,140.74,22.28,169,42.37,174.21,100.36,189.6"/><path id="ants-1" class="cls-44" d="M1806.24-31.57S1779.35,6.82,1784.1,55.2l4.74,48.37s38.75,201.26,25.31,257.8S1797.67,543,1817,593.15s26.43,140.74,22.28,169,42.37,174.21,100.36,189.6"/><path id="ants-1-digit" class="cls-45" d="M1678,833c1.19,6,.09,1.74.14,7.82.12,13.95,56.16,10.65,74.75,8.18,14-1.86-6.32-5.55-4.89-16,1.58-11.51,18.09-10.48,3.16-14-17.05-4-68.69-9.3-71.4,3.76C1678.6,828.36,1676.89,827.39,1678,833Z"/><path id="ants-10-digit" class="cls-46" d="M1587.58,829c1.28,6-12.38,1.28-12.33,7.36.13,14,60.39,10.65,80.39,8.18,15-1.85-6.51-6.09-5-16.54,1.7-11.51,19.16-9.94,3.11-13.46-18.33-4-73.87-9.3-76.78,3.77C1575.75,823.91,1586.39,823.39,1587.58,829Z"/></g><g id="plants-foreground-2" data-name="plants-foreground"><polygon class="cls-47" points="1355.04 856.57 1474.62 800.26 1585.4 770.68 1723.67 778.5 1841 842 1912.28 984.55 1607.67 1012 1353 962.02 1355.04 856.57"/><polygon class="cls-48" points="2013 962.02 1912.28 984.55 1832.38 845.74 1723.67 778.5 1908.5 848.15 2013 962.02"/><path class="cls-49" d="M1915.67,963.63c-34.09-9.1-66.63-1.72-81.67,28.37,22-44,40.18-61.72,95-44.14l.3-.83c-38.78-18.77-88.19-10.12-101.89,35.17-3.34-25.16-4.48-51.36-14.56-75l-.82.35c6.76,25.46,6.31,52.36,6.74,78.54-11.83-30.57-40.75-51.55-74.15-45.65l.07.89c35.08-1.93,58.92,22,67.73,54.32-17.74-24.67-53.68-31.89-79.59-16.11l.43.78c23-9.77,52.07-4.9,67.51,15.64a235.26,235.26,0,0,1,15,19.75c3,5,3.34,4.73,11,4.42,27-33.72,57.56-68.11,104.69-49.49l.37-.82A79.08,79.08,0,0,0,1915.67,963.63Z"/><path class="cls-50" d="M1612.7,914.1l-7.81-.34-3.91-.16c-1.31,0-2.62,0-3.93,0l-7.87.16c-2.63.09-5.26.39-7.89.58l-4,.35c-1.33.08-2.63.36-3.94.54l-7.9,1.21c-5.2,1.19-10.48,2.17-15.62,3.85-2.58.76-5.19,1.47-7.73,2.44l-3.85,1.35c-1.29.45-2.59.86-3.84,1.42l-7.59,3.19-7.4,3.72c-2.42,1.35-4.76,2.84-7.11,4.32-.59.37-1.17.76-1.72,1.18s-1.12.82-1.67,1.25c-1.11.84-2.22,1.67-3.31,2.54s-2.12,1.8-3.15,2.74l-1.86,1.72a221.24,221.24,0,0,1,14.3-23.53,99.07,99.07,0,0,1,10-12.14c.93-.93,1.84-1.89,2.82-2.75s1.9-1.84,3-2.63,2-1.7,3.09-2.47,2.11-1.58,3.2-2.34a99.93,99.93,0,0,1,29.07-13.45,135,135,0,0,1,32.76-5.17,205.75,205.75,0,0,1,34,1.38c2.84.38,5.69.71,8.53,1.14s5.69.9,8.53,1.41,5.68,1,8.52,1.6l8.49,1.84.67-2.16c-21.72-8.5-44.65-14.78-68.62-16.5a147.79,147.79,0,0,0-36.34,1.85A116.28,116.28,0,0,0,1527.5,885a122.13,122.13,0,0,0-29.89,23.58,97.56,97.56,0,0,0-11.38,15.29,99.91,99.91,0,0,0-5.48,10.51c-1-5.89-2-11.78-2.84-17.68q-1.73-12.13-3.88-24.24T1469,868.35c-1.94-8-4.09-15.94-6.7-23.77s-5.66-15.59-10-22.68l-2,1a92.69,92.69,0,0,1,3.1,11.54l.61,2.92c.21,1,.35,2,.52,2.95.34,2,.67,3.92.91,5.92q1.65,11.87,2.43,23.87c1.11,16,1.66,32,2.09,48.07.1,3.7.06,7.41,0,11.12-.18-.27-.35-.55-.54-.82a155.81,155.81,0,0,0-19.65-22.92,114.76,114.76,0,0,0-24-18,123.61,123.61,0,0,0-13.49-6.36,129.78,129.78,0,0,0-14.07-4.48C1369,872,1349.56,872,1331,875.09l.15,2.25c18.59.51,37,3.31,53.48,10.08a106.3,106.3,0,0,1,41.84,30.45,102.7,102.7,0,0,1,13.58,21.92q2.94,6.15,5.79,12.36c-.67-.68-1.39-1.31-2.12-1.94-.88-.77-1.79-1.5-2.69-2.25s-1.82-1.46-2.73-2.19-1.93-1.33-2.89-2c-2-1.27-3.91-2.57-5.91-3.78l-6.17-3.35c-.51-.27-1-.57-1.54-.82l-1.59-.74-3.17-1.46c-1-.49-2.09-1-3.15-1.47l-3.23-1.3a111.48,111.48,0,0,0-26.55-7.28,121.14,121.14,0,0,0-27-.63,134.74,134.74,0,0,0-26,5,117.66,117.66,0,0,0-24.18,9.95l.95,2a115.39,115.39,0,0,1,12.24-3.1q6.18-1.27,12.41-2a131.72,131.72,0,0,1,24.76-.64,118,118,0,0,1,23.85,4A102.36,102.36,0,0,1,1403,947.2a84.07,84.07,0,0,1,18.56,14.08c.7.67,1.45,1.26,2.12,2s1.34,1.39,2,2.07,1.36,1.37,2.07,2,1.41,1.31,2.07,2q2,2.11,4.13,4.11l1.07,1,1,1.07,2,2.12,2.1,2.09c.72.69,1.44,1.36,2.09,2.12,1.37,1.46,2.71,3,4.12,4.39.7.73,1.43,1.44,2.11,2.19s1.34,1.53,2,2.29c1.35,1.54,2.75,3,4.18,4.57s2.72,3.15,4.15,4.7,2.86,3.15,4.34,4.72a126.94,126.94,0,0,0,9,9.5l0,.1h.07l0,0,.08,0h2.08c.1-.25.18-.49.28-.73a234.37,234.37,0,0,1,16.53-24,184.07,184.07,0,0,1,19-20.68c6.79-6.22,13.75-12,21.14-17.58a105.24,105.24,0,0,1,24.38-13.94c4.35-1.92,9-3.23,13.53-4.76l7-1.83c1.18-.28,2.33-.67,3.53-.87l3.58-.7c2.39-.46,4.76-1,7.18-1.4l7.28-1c1.22-.17,2.44-.38,3.66-.51l3.69-.31,7.39-.62c2.47-.2,5-.2,7.44-.31s5-.19,7.48-.21c5,.12,10,.15,15,.34s10,.57,15.07,1l15.11,1.54.46-2.21A279.45,279.45,0,0,0,1612.7,914.1Z"/><path class="cls-51" d="M1902.59,1013c-65.4-19.3-141.48-21.38-200.71,16.54,23.49-45.64,72.44-69.95,122.76-69.62,30.07-1,60.81,4.18,90.15,11.13-68.5-48.12-202-41.07-247.6,45.23-4.22-25.89-16.6-134.16-38-140.9,10.63,43.74,7.38,89.57,7.44,134.28-35.89-54.62-104.09-81.67-167.4-69.52-1.14,5.76,5.62,3.25,9.38,4.29,57.24,3.93,114,36.66,133.23,92.31-50-38.87-121.48-44.2-177-14,112.71-9.25,129.06,11,204.28,95,5.07,4.08,32.16-9.16,40.43-18.72,31.44-33.39,67.68-65,113.79-74.21,22-5.15,45.26-6.84,67.86-6.82C1876.21,1016.75,1957,1029.51,1902.59,1013Z"/></g><g id="boulder"><polygon class="cls-47" points="-85.67 639.56 37 578 287 559 452 595.48 733.5 601.5 887.5 632.57 1009 659.22 1077 722.39 1272.5 816.5 1301 903.22 1371 1101.04 1352.39 1212.56 -72 1212.56 -85.67 639.56"/><path class="cls-48" d="M1510.45,1099.67c-16.45,8.33-158.06,112.89-158.06,112.89L1371,1101,1272.5,816.5S1077,722.78,1077,722.39s-68-63.17-68-63.17l150.43,80.45,182.25,64,140.32,200Z"/></g></g></svg>