<svg xmlns="http://www.w3.org/2000/svg" xmlns:xlink="http://www.w3.org/1999/xlink" viewBox="0 0 1920 1080"><defs><style>.cls-1{opacity:0.5;}.cls-2{opacity:0.7;}.cls-3{fill:#e5dfe1;}.cls-4{fill:#5b6020;}.cls-5{fill:#b0af45;}.cls-6{fill:#787838;}.cls-7{fill:#848040;}.cls-8{fill:#979639;}.cls-9{fill:#867a3e;}.cls-10{fill:#6a783d;}.cls-11{fill:#84802c;}.cls-12{fill:#5c7312;}.cls-13{fill:#4a5e20;}.cls-14{fill:#4a6220;}.cls-15{fill:#4a6020;}.cls-16{fill:url(#linear-gradient);}.cls-17{fill:#80813b;}.cls-18{fill:#696929;}.cls-19,.cls-25,.cls-28,.cls-29,.cls-30,.cls-31,.cls-32,.cls-34,.cls-35,.cls-36,.cls-37,.cls-38,.cls-39,.cls-40,.cls-41,.cls-43,.cls-44,.cls-45,.cls-46{fill:none;stroke-miterlimit:10;}.cls-19,.cls-34{stroke:#556332;}.cls-19,.cls-32,.cls-37{stroke-width:6.13px;}.cls-20{fill:#9a9a3a;}.cls-21{fill:#7a7a2f;}.cls-22{fill:#939339;}.cls-23{fill:#342b1a;}.cls-24{fill:#3c362a;}.cls-25{stroke:#3c362a;stroke-width:20px;}.cls-26{fill:#75752d;}.cls-27{fill:#595922;}.cls-28,.cls-35{stroke:#697a3e;}.cls-28,.cls-34{stroke-width:4.28px;}.cls-29,.cls-30,.cls-36,.cls-40{stroke:#6b8031;}.cls-29{stroke-width:9.58px;}.cls-30,.cls-39{stroke-width:5.59px;}.cls-31,.cls-38,.cls-39,.cls-41{stroke:#82984d;}.cls-31,.cls-36{stroke-width:7.5px;}.cls-32{stroke:#596935;}.cls-33{fill:#4c4c1d;}.cls-35,.cls-38{stroke-width:9.35px;}.cls-37{stroke:#576633;}.cls-40{stroke-width:18.42px;}.cls-41{stroke-width:15.88px;}.cls-42{fill:#878741;}.cls-43,.cls-44,.cls-45,.cls-46{stroke:#541d16;stroke-linecap:round;stroke-width:4px;}.cls-43{stroke-dasharray:3 25 3 45 3 15;}.cls-44{stroke-dasharray:3 95 3 70;}.cls-45{stroke-dasharray:3 15 3 10;}.cls-46{stroke-dasharray:3 10 3 15;}.cls-47{fill:#676952;}.cls-48{fill:#5d5e4a;}.cls-49{fill:#6b8031;}.cls-50{fill:#65892b;}.cls-51{fill:#82984d;}.cls-52{fill:#6a6b54;}.cls-53{fill:#5b5c48;}</style><linearGradient id="linear-gradient" x1="971" y1="-64" x2="971" y2="838" gradientUnits="userSpaceOnUse"><stop offset="0" stop-opacity="0"/><stop offset="0.6" stop-opacity="0.5"/><stop offset="0.74" stop-color="#1d191a" stop-opacity="0.34"/><stop offset="0.76" stop-color="#1c191a" stop-opacity="0.3"/><stop offset="0.82" stop-color="#111010" stop-opacity="0.19"/><stop offset="1" stop-opacity="0"/></linearGradient></defs><g id="fern-interactive"><g id="background-2" data-name="background"><rect class="cls-3" x="-50" y="-57" width="2020" height="560"/><rect class="cls-4" x="-50" y="477" width="2020" height="651"/><path class="cls-5" d="M505.08,71c9.41,130.18-575.15,130.19-565.7,0C-70-59.18,514.53-59.19,505.08,71Z"/><rect class="cls-6" x="-50" y="393" width="2020" height="94"/><path class="cls-7" d="M1063.87,46c9.41,130.18-575.15,130.19-565.7,0C488.76-84.18,1073.32-84.19,1063.87,46Z"/><path class="cls-8" d="M1178.65,213.5c5.63,70.21-333.31,70.21-327.65,0C845.37,143.29,1184.31,143.29,1178.65,213.5Z"/><path class="cls-5" d="M1733.61,61c9.4,130.18-575.16,130.19-565.71,0C1158.5-69.18,1743.05-69.19,1733.61,61Z"/><path class="cls-8" d="M578.94,189.22c5.63,70.21-333.31,70.21-327.66,0C245.65,119,584.6,119,578.94,189.22Z"/><path class="cls-9" d="M78.57,418.8c-.24,82.55-150,82.54-150.22,0C-71.4,336.24,78.35,336.25,78.57,418.8Z"/><path class="cls-7" d="M145.7,383.47c-.48,128.71-217.24,128.7-217.7,0C-71.52,254.76,145.24,254.77,145.7,383.47Z"/><path class="cls-10" d="M210,406.31c-.33,76.1-117.2,76.1-117.52,0C92.77,330.22,209.63,330.22,210,406.31Z"/><path class="cls-11" d="M267.49,355.26c-.27,82.67-145.08,82.66-145.35,0C122.42,272.59,267.23,272.6,267.49,355.26Z"/><path class="cls-9" d="M303.36,427c-.28,82.67-145.09,82.66-145.35,0C158.29,344.37,303.1,344.38,303.36,427Z"/><path class="cls-7" d="M380,376.24c-.62,143-146.18,143-146.79,0C233.83,233.22,379.39,233.23,380,376.24Z"/><path class="cls-12" d="M431.59,409.85c-.33,76.1-117.2,76.09-117.52,0C314.4,333.75,431.27,333.76,431.59,409.85Z"/><path class="cls-11" d="M489.13,358.79c-.27,82.67-145.08,82.66-145.35,0C344.06,276.13,488.87,276.13,489.13,358.79Z"/><path class="cls-9" d="M525,430.57c-.28,82.67-145.09,82.66-145.35,0C379.93,347.91,524.74,347.92,525,430.57Z"/><path class="cls-9" d="M594.56,403.08c.17,66.07-156.84,66.06-156.64,0C437.74,337,594.75,337,594.56,403.08Z"/><path class="cls-7" d="M664.56,354.86C664,484.09,452.5,484.08,452,354.85,452.52,225.62,664.06,225.63,664.56,354.86Z"/><path class="cls-10" d="M731.56,393.08C731.48,454,609.08,454,609,393.07,609.09,332.16,731.49,332.16,731.56,393.08Z"/><path class="cls-11" d="M791.56,352.14c.11,66.16-151.69,66.15-151.57,0C639.89,286,791.69,286,791.56,352.14Z"/><path class="cls-9" d="M829,409.69c.11,66.16-151.69,66.15-151.56,0C677.29,343.54,829.09,343.55,829,409.69Z"/><path class="cls-7" d="M895.68,386.4c-.41,91.74-139.47,91.73-139.87,0C756.22,294.66,895.28,294.67,895.68,386.4Z"/><path class="cls-12" d="M962.68,395.91c-.08,60.92-122.48,60.91-122.55,0C840.21,335,962.61,335,962.68,395.91Z"/><path class="cls-11" d="M1022.68,355c.11,66.16-151.69,66.15-151.56,0C871,288.82,1022.81,288.82,1022.68,355Z"/><path class="cls-9" d="M1060.09,412.53c.1,66.15-151.7,66.15-151.57,0C908.41,346.37,1060.21,346.38,1060.09,412.53Z"/><path class="cls-9" d="M1116.9,401.21c-.25,82.56-150,82.55-150.22,0C966.92,318.65,1116.67,318.66,1116.9,401.21Z"/><path class="cls-7" d="M1184,363.68c-.63,131.72-182.4,131.71-183,0C1001.64,232,1183.4,232,1184,363.68Z"/><path class="cls-10" d="M1248.28,388.73c-.34,76.1-117.2,76.09-117.53,0C1131.09,312.63,1248,312.64,1248.28,388.73Z"/><path class="cls-11" d="M1305.81,337.68c-.27,82.66-145.08,82.65-145.34,0C1160.74,255,1305.55,255,1305.81,337.68Z"/><path class="cls-9" d="M1341.68,409.46c-.27,82.66-145.08,82.66-145.35,0C1196.61,326.79,1341.42,326.8,1341.68,409.46Z"/><path class="cls-7" d="M1405.66,380.4c-.54,114.52-133.59,114.51-134.13,0C1272.08,265.88,1405.13,265.89,1405.66,380.4Z"/><path class="cls-12" d="M1469.92,392.26c-.34,76.1-117.2,76.1-117.53,0C1352.73,316.17,1469.59,316.17,1469.92,392.26Z"/><path class="cls-11" d="M1527.45,341.21c-.27,82.67-145.08,82.66-145.34,0C1382.38,258.54,1527.19,258.55,1527.45,341.21Z"/><path class="cls-9" d="M1563.32,413c-.27,82.67-145.08,82.66-145.35,0C1418.25,330.32,1563.06,330.33,1563.32,413Z"/><path class="cls-9" d="M1572.75,384.07c-.48,100.45-140.6,100.45-141.07,0C1432.16,283.62,1572.28,283.63,1572.75,384.07Z"/><path class="cls-7" d="M1635.79,354.49c-.51,139.18-125.46,139.17-126,0C1510.33,215.32,1635.29,215.32,1635.79,354.49Z"/><path class="cls-12" d="M1904.28,373.2c-.45,92.55-109.93,92.55-110.37,0C1794.36,280.64,1903.84,280.65,1904.28,373.2Z"/><path class="cls-11" d="M1958.32,311.16c-.5,100.58-136,100.57-136.5,0C1822.31,210.58,1957.84,210.59,1958.32,311.16Z"/><path class="cls-9" d="M1992,398.38c-.49,100.58-136,100.57-136.5,0C1856,297.81,1991.52,297.81,1992,398.38Z"/><path class="cls-13" d="M1987.75,596.56c27.4,16.84-1041,16.84-1013.5,0C946.85,579.71,2015.22,579.71,1987.75,596.56Z"/><path class="cls-14" d="M891,539.9c24.92,34.24-974.74,34.24-949.75,0C-83.67,505.67,916,505.67,891,539.9Z"/><path class="cls-15" d="M1405,649.9c8.59,18-352.61,18-344,0C1052.41,631.92,1413.61,631.92,1405,649.9Z"/></g><g id="shade-2" data-name="shade"><rect class="cls-16" x="-56" y="-64" width="2054" height="902"/></g><g id="plants-background-2" data-name="plants-background"><path class="cls-17" d="M628,214c2.8,54.23-191.82,54.23-189,0C436.2,159.77,630.82,159.77,628,214Z"/><path class="cls-18" d="M604,406c2.8,54.23-191.82,54.23-189,0C412.2,351.77,606.82,351.77,604,406Z"/><path class="cls-19" d="M407.43,568.41s-1.65-64.86-54-60.61"/><path class="cls-19" d="M346.11,535.39s41.77-22.64,63.1,33"/><path class="cls-19" d="M481.24,513c-74.05-26.42-72,54.16-72,54.16"/><path class="cls-19" d="M407,567.15s28.42-59.74,76-38.44"/><path class="cls-19" d="M409.21,569.88s-.37-65.62-8.39-84.48"/><path class="cls-17" d="M119,189c2.8,54.23-191.82,54.23-189,0C-72.8,134.77,121.82,134.77,119,189Z"/><path class="cls-20" d="M180,263c2.67,51.65-182.68,51.65-180,0C-2.67,211.35,182.68,211.35,180,263Z"/><path class="cls-21" d="M310,310c2.4,46.48-164.41,46.48-162,0C145.6,263.52,312.41,263.52,310,310Z"/><path class="cls-22" d="M453,218.56c2.3,44.47-157.31,44.47-155,0C295.7,174.08,455.31,174.08,453,218.56Z"/><path class="cls-17" d="M462.66,135.35c1.91,37.09-131.2,37.09-129.27,0C331.47,98.26,464.58,98.26,462.66,135.35Z"/><path class="cls-17" d="M522.84,45.75c1.92,37.09-131.19,37.09-129.26,0C391.66,8.66,524.77,8.66,522.84,45.75Z"/><path class="cls-17" d="M345,197c2.8,54.23-191.82,54.23-189,0C153.2,142.77,347.82,142.77,345,197Z"/><path class="cls-23" d="M430,587c1.6-7.43,2.82-14.85,4-22.28s2.08-14.86,3-22.28c1.71-14.86,3-29.71,4-44.56.44-7.43.89-14.86,1.19-22.29s.57-14.85.77-22.28l1-44.56c.72-29.71,1.22-59.42,1.82-89.12s1-59.42,1.38-89.13q1.19-89.13,1.4-178.25c.14-59.42,0-118.83-1.1-178.25h45.22c-1.07,59.42-1.24,118.83-1.1,178.25s.61,118.83,1.4,178.25c.35,29.71.9,59.42,1.38,89.13s1.1,59.41,1.82,89.12l1,44.56c.2,7.43.4,14.86.77,22.28s.75,14.86,1.19,22.29c1,14.85,2.28,29.7,4,44.56.88,7.42,1.83,14.85,3,22.28s2.36,14.85,4,22.28Z"/><path class="cls-24" d="M565.13,513.26c1.09-6.4,2-12.81,2.76-19.22s1.45-12.82,2.06-19.23c1.2-12.82,2.1-25.64,2.78-38.45s1.09-25.64,1.37-38.46l.71-38.45,1.27-76.91.93-76.91c.37-25.63.46-51.27.67-76.91l.24-38.45L578,51.82c.1-51.28,0-102.55-.76-153.82h31.5C608-50.73,607.89.54,608,51.82l.09,38.45.24,38.45c.21,25.64.3,51.28.67,76.91l.93,76.91,1.27,76.91.71,38.45c.28,12.82.7,25.64,1.37,38.46s1.58,25.63,2.78,38.45c.61,6.41,1.27,12.82,2.06,19.23s1.67,12.82,2.76,19.22Z"/><path class="cls-24" d="M252.13,530.39c1.09-6.41,2-12.82,2.76-19.23s1.45-12.82,2.06-19.23c1.2-12.82,2.1-25.63,2.78-38.45s1.09-25.64,1.37-38.46l.71-38.45,1.27-76.91.93-76.91c.37-25.63.46-51.27.67-76.9l.24-38.46L265,68.94c.1-51.27,0-102.55-.76-153.82h31.5C295-33.61,294.89,17.67,295,68.94l.09,38.45.24,38.46c.21,25.63.3,51.27.67,76.9l.93,76.91,1.27,76.91L298.9,415c.28,12.82.7,25.64,1.37,38.46s1.58,25.63,2.78,38.45c.61,6.41,1.27,12.82,2.06,19.23s1.67,12.82,2.76,19.23Z"/><path class="cls-24" d="M332,643c1.18-7.43,2.13-14.85,3-22.28s1.56-14.86,2.22-22.28c1.29-14.86,2.25-29.71,3-44.56s1.17-29.71,1.47-44.57l.77-44.56,1.36-89.12,1-89.13c.4-29.71.49-59.42.71-89.12l.27-44.57.09-44.56C346,48.83,345.85-10.58,345-70H379c-.81,59.42-.93,118.83-.82,178.25l.09,44.56.27,44.57c.22,29.7.31,59.41.71,89.12l1,89.13,1.36,89.12.77,44.56c.3,14.86.75,29.71,1.47,44.57s1.7,29.7,3,44.56c.66,7.42,1.37,14.85,2.22,22.28s1.79,14.85,3,22.28Z"/><line class="cls-25" x1="473" y1="177" x2="573.5" y2="-28.5"/><path class="cls-17" d="M407,42c2.8,54.23-191.82,54.23-189,0C215.2-12.23,409.82-12.23,407,42Z"/><path class="cls-17" d="M688,126c2.8,54.23-191.82,54.23-189,0C496.2,71.77,690.82,71.77,688,126Z"/><path class="cls-17" d="M660.5,14c2.39,46.34-163.91,46.34-161.5,0C496.61-32.34,662.91-32.35,660.5,14Z"/><path class="cls-20" d="M269.24,245.93C271.15,283,138.05,283,140,245.93,138.06,208.84,271.17,208.84,269.24,245.93Z"/><path class="cls-20" d="M329.43,121.34c1.91,37.08-131.2,37.09-129.27,0C198.24,84.25,331.35,84.25,329.43,121.34Z"/><path class="cls-20" d="M213.58,117.58c2.81,54.23-191.81,54.23-189,0C21.78,63.36,216.4,63.36,213.58,117.58Z"/><path class="cls-21" d="M428.24,363.93C430.15,401,297.05,401,299,363.93,297.06,326.84,430.17,326.84,428.24,363.93Z"/><path class="cls-26" d="M488.43,274.34c1.91,37.08-131.2,37.09-129.27,0C357.24,237.25,490.35,237.25,488.43,274.34Z"/><path class="cls-18" d="M92,364c2,38.73-137,38.73-135,0C-45,325.27,94,325.27,92,364Z"/><path class="cls-17" d="M628.08,303.41c1.92,37.09-131.19,37.09-129.26,0C496.9,266.32,630,266.32,628.08,303.41Z"/><path class="cls-23" d="M202.56,558c3.05-25.64,4.54-51.27,5.58-76.91.49-12.82.79-25.63,1-38.45l.48-38.46,1-76.9.69-76.91c.27-25.64.33-51.27.48-76.91l.18-38.45L212,96.55c.07-51.27,0-102.54-.56-153.82h23.1C234-6,233.92,45.28,234,96.55l.07,38.46.18,38.45c.15,25.64.21,51.27.48,76.91l.69,76.91,1,76.9.48,38.46c.21,12.82.52,25.63,1,38.45,1,25.64,2.53,51.27,5.58,76.91Z"/><path class="cls-27" d="M334,420c2.8,54.23-191.82,54.23-189,0C142.2,365.77,336.82,365.77,334,420Z"/><path class="cls-24" d="M18.07,521.76c.54-6.41,1-12.82,1.37-19.23l.55-9.61.47-9.62c.33-6.41.55-12.81.79-19.22s.42-12.82.59-19.23c.75-25.64.79-51.27,1-76.91L23.54,291,24,214.12l.33-76.9.17-76.91c.06-25.64,0-51.27-.09-76.91L24.34-55l-.22-38.46H39.88L39.66-55,39.58-16.6c0,25.64-.15,51.27-.09,76.91l.17,76.91.33,76.9L40.46,291l.66,76.91c.25,25.64.29,51.27,1,76.91.17,6.41.33,12.82.59,19.23s.46,12.81.79,19.22l.47,9.62.55,9.61c.39,6.41.83,12.82,1.37,19.23Z"/><path class="cls-20" d="M106.08,42.41C108,79.5-25.11,79.5-23.18,42.41-25.1,5.32,108,5.32,106.08,42.41Z"/><path class="cls-28" d="M36.63,554S35.49,508.63-.92,511.6"/><path class="cls-28" d="M-6,530.89S23,515.06,37.87,554"/><path class="cls-28" d="M88,515.23c-51.49-18.47-50.09,37.86-50.09,37.86"/><path class="cls-28" d="M36.37,553.09s19.76-41.76,52.81-26.87"/><path class="cls-28" d="M37.87,555s-.25-45.87-5.83-59.06"/><path class="cls-24" d="M40.06,648a205.43,205.43,0,0,0,8.76-22.28q3.7-11.15,6.54-22.28a425.73,425.73,0,0,0,8.82-44.56c4.43-29.71,4.93-59.42,6.63-89.13q2.23-44.56,4-89.12c1.06-29.71,2.26-59.42,3-89.13Q80.49,202.37,81,113.25c0-14.85.13-29.71,0-44.56L81,46.41l-.23-22.28C80.55,9.27,80.32-5.58,80-20.44S79.18-50.15,78.5-65h100c-.68,14.85-1.1,29.71-1.45,44.56s-.6,29.71-.79,44.57L176,46.41l-.1,22.28c-.09,14.85,0,29.71,0,44.56q.41,89.13,3.18,178.25c.79,29.71,2,59.42,3,89.13q1.83,44.55,4,89.12c1.7,29.71,2.2,59.42,6.63,89.13a425.73,425.73,0,0,0,8.82,44.56q2.85,11.13,6.54,22.28A205.43,205.43,0,0,0,216.94,648Z"/><path class="cls-29" d="M167.78,670.68S165.21,569.37,83.42,576"/><path class="cls-29" d="M72,619.1s65.25-35.37,98.57,51.58"/><path class="cls-29" d="M283.09,584.1c-115.67-41.26-112.52,84.61-112.52,84.61"/><path class="cls-29" d="M167.19,668.71s44.39-93.32,118.65-60.05"/><path class="cls-29" d="M170.57,673s-.58-102.5-13.1-132"/><path class="cls-30" d="M503.05,609.38s-1.51-59.17-49.28-55.3"/><path class="cls-30" d="M447.1,579.26s38.11-20.66,57.57,30.12"/><path class="cls-30" d="M570.4,558.82c-67.57-24.1-65.73,49.41-65.73,49.41"/><path class="cls-30" d="M502.7,608.23s25.93-54.51,69.3-35.07"/><path class="cls-30" d="M504.67,610.72s-.33-59.86-7.65-77.08"/><path class="cls-31" d="M80,701.51s-2-79.34-66.07-74.15"/><path class="cls-31" d="M4.93,661.12s51.1-27.7,77.2,40.39"/><path class="cls-31" d="M170.25,633.71C79.66,601.4,82.13,700,82.13,700"/><path class="cls-31" d="M79.48,700s34.77-73.09,92.92-47"/><path class="cls-31" d="M82.13,703.31S81.68,623,71.87,600"/><path class="cls-17" d="M1265,225.34c2.8,54.22-191.82,54.22-189,0C1073.2,171.11,1267.82,171.11,1265,225.34Z"/><path class="cls-27" d="M1241,417.34c2.8,54.22-191.82,54.22-189,0C1049.2,363.11,1243.82,363.11,1241,417.34Z"/><path class="cls-32" d="M1044.43,579.75s-1.65-64.86-54-60.61"/><path class="cls-32" d="M983.11,546.73s41.77-22.64,63.1,33"/><path class="cls-32" d="M1118.24,524.32c-74-26.41-72,54.17-72,54.17"/><path class="cls-32" d="M1044,578.49s28.42-59.75,76-38.44"/><path class="cls-32" d="M1046.21,581.21s-.37-65.61-8.39-84.48"/><path class="cls-17" d="M756,200.34c2.8,54.22-191.82,54.22-189,0C564.2,146.11,758.82,146.11,756,200.34Z"/><path class="cls-20" d="M817,274.34c2.67,51.64-182.68,51.64-180,0C634.33,222.69,819.68,222.69,817,274.34Z"/><path class="cls-27" d="M947,321.34c2.4,46.48-164.41,46.48-162,0C782.6,274.85,949.41,274.85,947,321.34Z"/><path class="cls-22" d="M1090,285.89c2.3,44.47-157.31,44.47-155,0C932.7,241.42,1092.31,241.42,1090,285.89Z"/><path class="cls-17" d="M1129.66,167.68c1.91,37.09-131.2,37.09-129.27,0C998.47,130.6,1131.58,130.6,1129.66,167.68Z"/><path class="cls-17" d="M1159.84,57.09c1.92,37.09-131.19,37.09-129.26,0C1028.66,20,1161.77,20,1159.84,57.09Z"/><path class="cls-17" d="M984,193c2.8,54.23-191.82,54.23-189,0C792.2,138.77,986.82,138.77,984,193Z"/><path class="cls-24" d="M1067,598.34c1.6-7.43,2.82-14.86,4-22.29s2.08-14.85,3-22.28c1.71-14.85,3-29.71,4-44.56.44-7.43.89-14.85,1.19-22.28s.57-14.86.77-22.28l1-44.56c.72-29.71,1.22-59.42,1.82-89.13s1-59.42,1.38-89.12q1.19-89.13,1.4-178.25c.14-59.42,0-118.84-1.1-178.25h45.22c-1.07,59.41-1.24,118.83-1.1,178.25s.61,118.83,1.4,178.25c.35,29.7.9,59.41,1.38,89.12s1.1,59.42,1.82,89.13l1,44.56c.2,7.42.4,14.85.77,22.28s.75,14.85,1.19,22.28c1,14.85,2.28,29.71,4,44.56.88,7.43,1.83,14.86,3,22.28s2.36,14.86,4,22.29Z"/><path class="cls-23" d="M1202.13,524.6c1.09-6.41,2-12.82,2.76-19.23s1.45-12.81,2.06-19.22c1.2-12.82,2.1-25.64,2.78-38.46s1.09-25.63,1.37-38.45l.71-38.46,1.27-76.9L1214,217c.37-25.64.46-51.27.67-76.91l.24-38.45.09-38.46c.1-51.27,0-102.54-.76-153.81h31.5c-.74,51.27-.86,102.54-.76,153.81l.09,38.46.24,38.45c.21,25.64.3,51.27.67,76.91l.93,76.91,1.27,76.9.71,38.46c.28,12.82.7,25.63,1.37,38.45s1.58,25.64,2.78,38.46c.61,6.41,1.27,12.81,2.06,19.22s1.67,12.82,2.76,19.23Z"/><path class="cls-24" d="M889.13,541.72c1.09-6.41,2-12.82,2.76-19.23s1.45-12.81,2.06-19.22c1.2-12.82,2.1-25.64,2.78-38.46s1.09-25.63,1.37-38.45l.71-38.45L900.08,311l.93-76.91c.37-25.64.46-51.27.67-76.91l.24-38.45L902,80.27c.1-51.27,0-102.54-.76-153.81h31.5C932-22.27,931.89,29,932,80.27l.09,38.46.24,38.45c.21,25.64.3,51.27.67,76.91l.93,76.91,1.27,76.91.71,38.45c.28,12.82.7,25.64,1.37,38.45s1.58,25.64,2.78,38.46c.61,6.41,1.27,12.82,2.06,19.22s1.67,12.82,2.76,19.23Z"/><path class="cls-24" d="M969,654.34c1.18-7.43,2.13-14.86,3-22.29s1.56-14.85,2.22-22.28c1.29-14.85,2.25-29.71,3-44.56s1.17-29.71,1.47-44.56l.77-44.56L980.78,387l1-89.12c.4-29.71.49-59.42.71-89.13l.27-44.56.09-44.56C983,60.17,982.85.75,982-58.66H1016c-.81,59.41-.93,118.83-.82,178.25l.09,44.56.27,44.56c.22,29.71.31,59.42.71,89.13l1,89.12,1.36,89.13.77,44.56c.3,14.85.75,29.71,1.47,44.56s1.7,29.71,3,44.56c.66,7.43,1.37,14.86,2.22,22.28s1.79,14.86,3,22.29Z"/><line class="cls-25" x1="1110" y1="188.34" x2="1210.5" y2="-17.16"/><path class="cls-17" d="M1044,53.34c2.8,54.22-191.82,54.22-189,0C852.2-.89,1046.82-.89,1044,53.34Z"/><path class="cls-17" d="M1325,137.34c2.8,54.22-191.82,54.22-189,0C1133.2,83.11,1327.82,83.11,1325,137.34Z"/><path class="cls-17" d="M1297.5,25.33c2.39,46.34-163.91,46.34-161.5,0C1133.61-21,1299.91-21,1297.5,25.33Z"/><path class="cls-20" d="M892.24,259.27c1.91,37.09-131.19,37.09-129.27,0C761.06,222.18,894.17,222.18,892.24,259.27Z"/><path class="cls-20" d="M966.43,132.67c1.91,37.09-131.2,37.09-129.27,0C835.24,95.58,968.35,95.58,966.43,132.67Z"/><path class="cls-20" d="M850.58,128.92c2.81,54.23-191.81,54.23-189,0C658.78,74.69,853.4,74.69,850.58,128.92Z"/><path class="cls-26" d="M1065.24,375.27c1.91,37.09-131.19,37.09-129.27,0C934.06,338.18,1067.17,338.18,1065.24,375.27Z"/><path class="cls-26" d="M1125.43,285.67c1.91,37.09-131.2,37.09-129.27,0C994.24,248.58,1127.35,248.58,1125.43,285.67Z"/><path class="cls-21" d="M729,375.34c2,38.73-137,38.73-135,0C592,336.6,731,336.6,729,375.34Z"/><path class="cls-21" d="M1265.08,314.75c1.92,37.09-131.19,37.09-129.26,0C1133.9,277.66,1267,277.66,1265.08,314.75Z"/><path class="cls-24" d="M839.56,569.34c3.05-25.64,4.54-51.28,5.58-76.91.49-12.82.79-25.64,1-38.46l.48-38.45,1-76.91.69-76.91c.27-25.63.33-51.27.48-76.91l.18-38.45.07-38.45c.07-51.28,0-102.55-.56-153.82h23.1C871,5.34,870.92,56.61,871,107.89l.07,38.45.18,38.45c.15,25.64.21,51.28.49,76.91l.68,76.91,1,76.91.48,38.45c.21,12.82.52,25.64,1,38.46,1,25.63,2.53,51.27,5.58,76.91Z"/><path class="cls-33" d="M971,431.34c2.8,54.22-191.82,54.22-189,0C779.2,377.11,973.82,377.11,971,431.34Z"/><path class="cls-24" d="M655.07,533.09c.54-6.41,1-12.82,1.37-19.22l.55-9.62.47-9.61c.33-6.41.55-12.82.79-19.23s.42-12.82.59-19.23c.75-25.63.79-51.27,1-76.9l.66-76.91.47-76.91.33-76.91.17-76.91c.06-25.63,0-51.27-.09-76.9l-.08-38.46-.22-38.45h15.76l-.22,38.45-.08,38.46c-.05,25.63-.15,51.27-.09,76.9l.17,76.91.33,76.91.47,76.91.66,76.91c.25,25.63.29,51.27,1,76.9.17,6.41.33,12.82.59,19.23s.46,12.82.79,19.23l.47,9.61.55,9.62c.39,6.4.83,12.81,1.37,19.22Z"/><path class="cls-20" d="M743.08,53.75c1.92,37.09-131.19,37.09-129.26,0C611.9,16.66,745,16.66,743.08,53.75Z"/><path class="cls-34" d="M673.63,565.31s-1.14-45.34-37.55-42.37"/><path class="cls-34" d="M631,542.23s29-15.83,43.87,23.08"/><path class="cls-34" d="M725,526.56c-51.49-18.46-50.09,37.87-50.09,37.87"/><path class="cls-34" d="M673.37,564.43s19.76-41.77,52.81-26.88"/><path class="cls-34" d="M674.87,566.34s-.25-45.88-5.83-59.07"/><path class="cls-23" d="M677.06,659.34a205.58,205.58,0,0,0,8.76-22.29q3.7-11.13,6.54-22.28a425.22,425.22,0,0,0,8.82-44.56c4.43-29.71,4.93-59.42,6.63-89.12q2.24-44.56,4-89.13c1.06-29.71,2.26-59.42,3.05-89.12q2.64-89.13,3.18-178.25c0-14.86.13-29.71,0-44.57L718,57.74l-.23-22.28c-.19-14.85-.42-29.71-.79-44.56s-.77-29.71-1.45-44.56h100c-.68,14.85-1.1,29.7-1.45,44.56s-.6,29.71-.79,44.56L813,57.74,812.93,80c-.09,14.86,0,29.71,0,44.57q.4,89.11,3.18,178.25c.79,29.7,2,59.41,3.05,89.12q1.83,44.57,4,89.13c1.7,29.7,2.2,59.41,6.63,89.12a425.22,425.22,0,0,0,8.82,44.56q2.85,11.15,6.54,22.28a205.58,205.58,0,0,0,8.76,22.29Z"/><path class="cls-35" d="M807.58,678.94S805.06,580,725.21,586.5"/><path class="cls-35" d="M714.06,628.59s63.71-34.53,96.24,50.35"/><path class="cls-35" d="M920.16,594.42C807.22,554.13,810.3,677,810.3,677"/><path class="cls-35" d="M807,677s43.35-91.11,115.85-58.62"/><path class="cls-35" d="M810.3,681.18s-.56-100.07-12.79-128.84"/><path class="cls-30" d="M1140.05,620.72s-1.51-59.18-49.28-55.3"/><path class="cls-30" d="M1084.1,590.59s38.11-20.65,57.57,30.13"/><path class="cls-30" d="M1207.4,570.15c-67.57-24.1-65.73,49.42-65.73,49.42"/><path class="cls-30" d="M1139.7,619.57s25.93-54.51,69.3-35.07"/><path class="cls-30" d="M1141.67,622.06s-.33-59.87-7.65-77.08"/><path class="cls-36" d="M393,680.85s-2-79.34-66.07-74.15"/><path class="cls-36" d="M317.93,640.46s51.1-27.7,77.2,40.39"/><path class="cls-36" d="M483.25,613.05c-90.59-32.32-88.12,66.26-88.12,66.26"/><path class="cls-36" d="M392.48,679.31s34.77-73.09,92.92-47"/><path class="cls-36" d="M395.13,682.64s-.45-80.27-10.26-103.35"/><path class="cls-17" d="M1575,243.34c2.8,54.22-191.82,54.22-189,0C1383.2,189.11,1577.82,189.11,1575,243.34Z"/><path class="cls-33" d="M1551,435.34c2.8,54.22-191.82,54.22-189,0C1359.2,381.11,1553.82,381.11,1551,435.34Z"/><path class="cls-37" d="M1354.43,597.75s-1.65-64.86-54-60.61"/><path class="cls-37" d="M1293.11,564.73s41.77-22.64,63.1,33"/><path class="cls-37" d="M1428.24,542.32c-74-26.41-72,54.17-72,54.17"/><path class="cls-37" d="M1354,596.49s28.42-59.75,76-38.44"/><path class="cls-37" d="M1356.21,599.21s-.37-65.61-8.39-84.48"/><path class="cls-17" d="M1947,79c2.8,54.23-191.82,54.23-189,0C1755.2,24.77,1949.82,24.77,1947,79Z"/><path class="cls-20" d="M1971,355.34c2.4,46.48-164.41,46.48-162,0C1806.6,308.85,1973.41,308.85,1971,355.34Z"/><path class="cls-22" d="M1400,247.89c2.3,44.47-157.31,44.47-155,0C1242.7,203.42,1402.31,203.42,1400,247.89Z"/><path class="cls-17" d="M1458,188.94c2.9,56.13-198.53,56.13-195.61,0C1259.49,132.82,1460.92,132.82,1458,188.94Z"/><path class="cls-17" d="M1469.84,75.09c1.92,37.09-131.19,37.09-129.26,0C1338.66,38,1471.77,38,1469.84,75.09Z"/><path class="cls-17" d="M1152,111c2.8,54.23-191.82,54.23-189,0C960.2,56.77,1154.82,56.77,1152,111Z"/><path class="cls-24" d="M1377,616.34c1.6-7.43,2.82-14.86,4-22.29s2.08-14.85,3-22.28c1.71-14.85,3-29.71,4-44.56.44-7.43.89-14.85,1.19-22.28s.57-14.86.77-22.28l1-44.56c.72-29.71,1.22-59.42,1.82-89.13s1-59.42,1.38-89.12q1.19-89.13,1.4-178.25c.14-59.42,0-118.84-1.1-178.25h45.22c-1.07,59.41-1.24,118.83-1.1,178.25s.61,118.83,1.4,178.25c.35,29.7.9,59.41,1.38,89.12s1.1,59.42,1.82,89.13l1,44.56c.2,7.42.4,14.85.77,22.28s.75,14.85,1.19,22.28c1,14.85,2.28,29.71,4,44.56.88,7.43,1.83,14.86,3,22.28s2.36,14.86,4,22.29Z"/><path class="cls-24" d="M1512.13,542.6c1.09-6.41,2-12.82,2.76-19.23s1.45-12.81,2.06-19.22c1.2-12.82,2.1-25.64,2.78-38.46s1.09-25.63,1.37-38.45l.71-38.46,1.27-76.9L1524,235c.37-25.64.46-51.27.67-76.91l.24-38.45.09-38.46c.1-51.27,0-102.54-.76-153.81h31.5c-.74,51.27-.86,102.54-.76,153.81l.09,38.46.24,38.45c.21,25.64.3,51.27.67,76.91l.93,76.91,1.27,76.9.71,38.46c.28,12.82.7,25.63,1.37,38.45s1.58,25.64,2.78,38.46c.61,6.41,1.27,12.81,2.06,19.22s1.67,12.82,2.76,19.23Z"/><path class="cls-24" d="M1279,672.34c1.18-7.43,2.13-14.86,3-22.29s1.56-14.85,2.22-22.28c1.29-14.85,2.25-29.71,3-44.56s1.17-29.71,1.47-44.56l.77-44.56,1.36-89.13,1-89.12c.4-29.71.49-59.42.71-89.13l.27-44.56.09-44.56c.11-59.42,0-118.84-.82-178.25H1326c-.81,59.41-.93,118.83-.82,178.25l.09,44.56.27,44.56c.22,29.71.31,59.42.71,89.13l1,89.12,1.36,89.13.77,44.56c.3,14.85.75,29.71,1.47,44.56s1.7,29.71,3,44.56c.66,7.43,1.37,14.86,2.22,22.28s1.79,14.86,3,22.29Z"/><line class="cls-25" x1="1420" y1="206.34" x2="1520.5" y2="0.84"/><path class="cls-17" d="M1457,11c2.8,54.23-191.82,54.23-189,0C1265.2-43.23,1459.82-43.23,1457,11Z"/><path class="cls-17" d="M1635,155.34c2.8,54.22-191.82,54.22-189,0C1443.2,101.11,1637.82,101.11,1635,155.34Z"/><path class="cls-17" d="M1607.5,43.33c2.39,46.34-163.91,46.34-161.5,0C1443.61-3,1609.91-3,1607.5,43.33Z"/><path class="cls-20" d="M1930.24,256.27c1.91,37.09-131.19,37.09-129.27,0C1799.06,219.18,1932.17,219.18,1930.24,256.27Z"/><path class="cls-20" d="M1990.43,166.67c1.91,37.09-131.2,37.09-129.27,0C1859.24,129.58,1992.35,129.58,1990.43,166.67Z"/><path class="cls-20" d="M1345,253c2.8,54.23-191.82,54.23-189,0C1153.2,198.77,1347.82,198.77,1345,253Z"/><path class="cls-18" d="M1375.24,393.27c1.91,37.09-131.19,37.09-129.27,0C1244.06,356.18,1377.17,356.18,1375.24,393.27Z"/><path class="cls-26" d="M1435.43,303.67c1.91,37.09-131.2,37.09-129.27,0C1304.24,266.58,1437.35,266.58,1435.43,303.67Z"/><path class="cls-27" d="M1575.08,332.75c1.92,37.09-131.19,37.09-129.26,0C1443.9,295.66,1577,295.66,1575.08,332.75Z"/><path class="cls-23" d="M1863.56,603.34c3-25.64,4.54-51.28,5.58-76.91.49-12.82.79-25.64,1-38.46l.48-38.45,1-76.91.69-76.91c.27-25.63.33-51.27.48-76.91l.18-38.45.07-38.45c.07-51.28,0-102.55-.56-153.82h23.1c-.55,51.27-.63,102.54-.56,153.82l.07,38.45.18,38.45c.15,25.64.21,51.28.49,76.91l.68,76.91,1,76.91.48,38.45c.21,12.82.52,25.64,1,38.46,1,25.63,2.53,51.27,5.58,76.91Z"/><path class="cls-17" d="M1995,465.34c2.8,54.22-191.82,54.22-189,0C1803.2,411.11,1997.82,411.11,1995,465.34Z"/><path class="cls-20" d="M1917.08,167.75c1.92,37.09-131.19,37.09-129.26,0C1785.9,130.66,1919,130.66,1917.08,167.75Z"/><path class="cls-38" d="M1868.58,755.94s-2.52-98.91-82.37-92.44"/><path class="cls-38" d="M1775.06,705.59s63.71-34.53,96.24,50.35"/><path class="cls-38" d="M1981.16,671.42C1868.22,631.13,1871.3,754,1871.3,754"/><path class="cls-38" d="M1868,754s43.35-91.11,115.85-58.62"/><path class="cls-38" d="M1871.3,758.18s-.56-100.07-12.79-128.84"/><path class="cls-39" d="M1474.05,648.72s-1.51-59.18-49.28-55.3"/><path class="cls-39" d="M1418.1,618.59s38.11-20.65,57.57,30.13"/><path class="cls-39" d="M1541.4,598.15c-67.57-24.1-65.73,49.42-65.73,49.42"/><path class="cls-39" d="M1473.7,647.57s25.93-54.51,69.3-35.07"/><path class="cls-39" d="M1475.67,650.06s-.33-59.87-7.65-77.08"/><path class="cls-36" d="M1485,801.85s-2-79.34-66.07-74.15"/><path class="cls-36" d="M1409.93,761.46s51.1-27.7,77.2,40.39"/><path class="cls-36" d="M1575.25,734.05c-90.59-32.32-88.12,66.26-88.12,66.26"/><path class="cls-36" d="M1484.48,800.31s34.77-73.09,92.92-47"/><path class="cls-36" d="M1487.13,803.64s-.45-80.27-10.26-103.35"/><path class="cls-40" d="M617.14,682.87S614,559.53,514.43,567.61"/><path class="cls-40" d="M500.53,620.08S580,577,620.53,682.87"/><path class="cls-40" d="M757.52,577.47c-140.83-50.23-137,103-137,103"/><path class="cls-40" d="M616.41,680.48s54.05-113.62,144.45-73.11"/><path class="cls-40" d="M620.53,685.66s-.7-124.78-15.95-160.66"/><path class="cls-41" d="M930.64,687.6S927.57,567,830.18,574.86"/><path class="cls-41" d="M816.58,626.19S894.28,584.07,934,687.6"/><path class="cls-41" d="M1068,584.51C930.21,535.38,934,685.26,934,685.26"/><path class="cls-41" d="M929.93,685.26s52.87-111.13,141.29-71.5"/><path class="cls-41" d="M934,690.33s-.68-122.05-15.6-157.15"/><path class="cls-38" d="M1241.8,663s-2.52-98.91-82.37-92.43"/><path class="cls-38" d="M1148.28,612.67s63.7-34.53,96.24,50.35"/><path class="cls-38" d="M1354.38,578.5c-112.94-40.29-109.86,82.61-109.86,82.61"/><path class="cls-38" d="M1241.21,661.11s43.35-91.12,115.85-58.63"/><path class="cls-38" d="M1244.52,665.26s-.56-100.07-12.79-128.84"/><path class="cls-36" d="M1374.17,723.93s-2-79.34-66.07-74.15"/><path class="cls-36" d="M1299.15,683.54s51.1-27.7,77.2,40.39"/><path class="cls-36" d="M1464.47,656.13c-90.59-32.32-88.12,66.26-88.12,66.26"/><path class="cls-36" d="M1373.7,722.39s34.77-73.09,92.92-47"/><path class="cls-36" d="M1376.35,725.72s-.45-80.27-10.26-103.35"/></g><g id="tree-2" data-name="tree"><path class="cls-23" d="M1415.16,948.18c2.73-3.11,5.2-6.21,7.58-9.31l3.48-4.66c1.14-1.55,2.23-3.1,3.33-4.65q6.48-9.31,12.07-18.62a393.09,393.09,0,0,0,19.72-37.24c1.43-3.11,2.87-6.21,4.18-9.31l2-4.66,1.9-4.65c2.58-6.21,4.9-12.42,7.11-18.62,4.4-12.42,8.17-24.83,11.41-37.24a480,480,0,0,0,13.09-74.48l3.51-37.24,1.75-18.62,1.65-18.62,3.27-37.24,3-37.24,1.52-18.62,1.41-18.62L1520,501.3q5.3-74.48,9.35-149c5.23-99.31,8.66-198.61,9.5-297.92.42-49.65.22-99.31-.88-149-.56-24.83-1.31-49.65-2.38-74.48s-2.38-49.65-4.42-74.48h301.76c-2,24.83-3.33,49.65-4.42,74.48s-1.82,49.65-2.37,74.48c-1.11,49.65-1.3,99.31-.89,149,.85,99.31,4.28,198.61,9.5,297.92q4,74.48,9.35,149l2.79,37.24,1.41,18.62,1.52,18.62,3,37.24,3.28,37.24,1.64,18.62,1.76,18.62,3.5,37.24a481.22,481.22,0,0,0,13.1,74.48c3.24,12.41,7,24.82,11.4,37.24,2.21,6.2,4.53,12.41,7.11,18.62l1.9,4.65,2,4.66c1.31,3.1,2.75,6.2,4.18,9.31a390.93,390.93,0,0,0,19.73,37.24q5.6,9.3,12.06,18.62c1.1,1.55,2.19,3.1,3.33,4.65l3.49,4.66c2.37,3.1,4.84,6.2,7.58,9.31Z"/><path class="cls-42" d="M1743.5-157,1722.42,30.42l31.63,187.42-72,221.36V510l-56.64,19.82-49.56,105.69C1521.51,720,1518,691.74,1521,796.3l59.64,62.29-78.5,89.59h446.94l-64.3-121c-46.83-280.37-52-671.66-58-955.69Z"/></g><g id="ants-2" data-name="ants"><path id="fi-ants-2" class="cls-43" d="M1815.73-35.13c-24.55,28.33-25,95.21-17.4,135.14,0,0,38.75,201.27,25.31,257.81s-16.48,181.63,2.83,231.77c46.6,130.77-12.51,270.91,122.64,358.59"/><path id="fi-ants-1" class="cls-44" d="M1806.24-31.57c-24.55,28.33-25,95.2-17.4,135.14,0,0,38.75,201.26,25.31,257.8S1797.67,543,1817,593.15c46.6,130.77-12.51,270.91,122.64,358.59"/><path id="fi-ants-1-digit" class="cls-45" d="M1678,833c1.19,6,.09,1.74.14,7.82.12,13.95,56.16,10.65,74.75,8.18,14-1.86-6.32-5.55-4.89-16,1.58-11.51,18.09-10.48,3.16-14C1729.16,815.49,1672.7,805,1678,833Z"/><path id="fi-ants-10-digit" class="cls-46" d="M1587.58,829c1.28,6-12.38,1.28-12.33,7.36.13,14,60.39,10.65,80.39,8.18,15-1.85-6.51-6.09-5-16.54,1.7-11.51,19.16-9.94,3.11-13.46-18.33-4-73.87-9.3-76.78,3.77C1575.75,823.91,1586.39,823.39,1587.58,829Z"/></g><g id="plants-foreground-2" data-name="plants-foreground"><path class="cls-47" d="M1355,856.56l119.58-56.3,110.78-29.58,138.27,7.82c154.73,78.46,110.5,58.34,188.61,206L1607.67,1012,1353,962Z"/><path class="cls-48" d="M2013,962l-100.72,22.53c-78.65-131.63-49.22-126.91-188.61-206C1894.19,845.79,1888.9,815.25,2013,962Z"/><path class="cls-49" d="M1915.67,963.63c-34.09-9.1-66.63-1.72-81.67,28.37,22-44,40.18-61.72,95-44.14l.3-.83c-38.78-18.77-88.19-10.12-101.89,35.17-3.34-25.16-4.48-51.36-14.56-75l-.82.35c6.76,25.46,6.31,52.36,6.74,78.54-11.83-30.57-40.75-51.55-74.15-45.65l.07.89c35.08-1.93,58.92,22,67.73,54.32-17.74-24.67-53.68-31.89-79.59-16.11l.43.78c33.65-15.45,66.13,5.83,82.56,35.4,16,24.23,47.45-76,115.69-45.08l.37-.82A79.08,79.08,0,0,0,1915.67,963.63Z"/><path class="cls-50" d="M1612.7,914.1c-39-2.35-82.23,5.22-112,32.1,29.61-68.6,102-73,166.27-57.11l.67-2.16c-64.2-28.28-153.84-24.58-186.84,47.42-6.64-37.94-9.81-78-28.49-112.45l-2,1c9.76,34.37,8.81,70.91,9.63,106.39-26.93-42.92-79.82-64.25-128.86-54.19l.15,2.25c50.32-.86,98.08,26.54,114.69,74.81-37.26-33.9-95.48-38.49-139-14.26l.95,2c84.5-22.52,113,18.38,164.34,74.42,0,0,.08,0,.1,0s2.08,0,2.16,0c47.23-79.23,110.38-98,198.34-86.59l.46-2.21A279.45,279.45,0,0,0,1612.7,914.1Z"/><path class="cls-51" d="M1902.59,1013c-65.4-19.3-141.48-21.38-200.71,16.54,39.67-78.56,138.39-78.52,212.91-58.49-68.5-48.12-202-41.07-247.6,45.23-4.22-25.89-16.6-134.16-38-140.9,10.63,43.74,7.38,89.57,7.44,134.28-35.89-54.62-104.09-81.67-167.4-69.52-1.14,5.76,5.62,3.25,9.38,4.29,57.24,3.93,114,36.66,133.23,92.31-50-38.87-121.48-44.2-177-14,112.71-9.25,129.06,11,204.28,95,44.92-.26,83.13-84.35,154.22-92.92,22-5.16,45.26-6.85,67.86-6.83C1876.21,1016.75,1957,1029.51,1902.59,1013Z"/></g><g id="boulder"><path class="cls-52" d="M-85.67,639.56,37,578l250-19,165,36.48c102.5-.65,339.25,4.59,435.5,37.1L1009,659.22l68,63.17,195.5,94.11c19,57.47,76.59,225.6,98.5,284.54l-18.61,111.52H-72Z"/><path class="cls-53" d="M1510.45,1099.67c-16.45,8.33-158.06,112.89-158.06,112.89L1371,1101,1272.5,816.5S1077,722.78,1077,722.39s-68-63.17-68-63.17c77.6,49.5,244.11,119,332.69,144.41,0,0,140.31,200,140.31,200Z"/></g></g></svg>