<svg xmlns="http://www.w3.org/2000/svg" xmlns:xlink="http://www.w3.org/1999/xlink" viewBox="0 0 1920 1080"><defs><style>.cls-1{opacity:0.5;}.cls-2{opacity:0.7;}.cls-3{fill:#e5dfe1;}.cls-4{fill:#5b6020;}.cls-5{fill:#b0af45;}.cls-6{fill:#787838;}.cls-7{fill:#848040;}.cls-8{fill:#979639;}.cls-9{fill:#867a3e;}.cls-10{fill:#6a783d;}.cls-11{fill:#84802c;}.cls-12{fill:#5c7312;}.cls-13{fill:#4a5e20;}.cls-14{fill:#4a6220;}.cls-15{fill:#4a6020;}.cls-16{fill:url(#linear-gradient);}.cls-17{fill:#80813b;}.cls-18{fill:#4c4c1d;}.cls-19{fill:#342b1a;}.cls-20{fill:#595922;}.cls-21{fill:#696929;}.cls-22,.cls-27,.cls-29,.cls-30,.cls-31,.cls-32,.cls-33,.cls-34,.cls-35,.cls-36,.cls-37,.cls-38,.cls-39,.cls-53{fill:none;}.cls-22,.cls-34{stroke:#556332;}.cls-22,.cls-27,.cls-29,.cls-30,.cls-31,.cls-32,.cls-33,.cls-34,.cls-35,.cls-36,.cls-37,.cls-38,.cls-39,.cls-45,.cls-46,.cls-47,.cls-48,.cls-49,.cls-50,.cls-53{stroke-miterlimit:10;}.cls-22,.cls-33{stroke-width:6.13px;}.cls-23{fill:#9a9a3a;}.cls-24{fill:#7a7a2f;}.cls-25{fill:#939339;}.cls-26{fill:#3c362a;}.cls-27{stroke:#3c362a;stroke-width:20px;}.cls-28{fill:#75752d;}.cls-29,.cls-35{stroke:#697a3e;}.cls-29,.cls-34{stroke-width:4.28px;}.cls-30,.cls-31,.cls-36,.cls-37,.cls-39{stroke:#6b8031;}.cls-30{stroke-width:9.58px;}.cls-31{stroke-width:5.59px;}.cls-32,.cls-38{stroke:#82984d;}.cls-32,.cls-36{stroke-width:7.5px;}.cls-33{stroke:#596935;}.cls-35{stroke-width:5.32px;}.cls-37{stroke-width:18.42px;}.cls-38{stroke-width:15.88px;}.cls-39{stroke-width:7.34px;}.cls-40{fill:#382f1c;}.cls-41{fill:#2e2718;}.cls-42{fill:#332b1b;}.cls-43{fill:#2e2617;}.cls-44{fill:#292214;}.cls-45,.cls-46,.cls-47,.cls-48,.cls-49,.cls-50{fill:#875837;stroke:#262113;}.cls-45{stroke-width:2.09px;}.cls-46{stroke-width:2px;}.cls-47{stroke-width:1.82px;}.cls-48{stroke-width:1.88px;}.cls-49{stroke-width:1.82px;}.cls-50{stroke-width:1.8px;}.cls-51{fill:#82823d;}.cls-52{fill:#757532;}.cls-53{stroke:#541d16;stroke-linecap:round;stroke-width:4px;stroke-dasharray:3 25 3 45 3 12;}.cls-54{fill:#6b8031;}.cls-55{fill:#82984d;}</style><linearGradient id="linear-gradient" x1="973" y1="-34" x2="973" y2="868" gradientUnits="userSpaceOnUse"><stop offset="0" stop-opacity="0"/><stop offset="0.6" stop-opacity="0.5"/><stop offset="0.74" stop-color="#1d191a" stop-opacity="0.34"/><stop offset="0.76" stop-color="#1c191a" stop-opacity="0.3"/><stop offset="0.82" stop-color="#111010" stop-opacity="0.19"/><stop offset="1" stop-opacity="0"/></linearGradient></defs><g id="fern-message"><g id="background"><rect class="cls-3" x="-47.33" y="-49.83" width="2020" height="560"/><rect class="cls-4" x="-47.33" y="484.17" width="2020" height="651"/><ellipse class="cls-5" cx="469.9" cy="119.17" rx="282.85" ry="101"/><rect class="cls-6" x="-47.33" y="400.17" width="2020" height="94"/><ellipse class="cls-7" cx="1680.46" cy="153" rx="282.85" ry="101"/><ellipse class="cls-8" cx="1429.49" cy="257.67" rx="163.83" ry="54.5"/><ellipse class="cls-8" cx="160.78" cy="230.39" rx="163.83" ry="54.5"/><ellipse class="cls-9" cx="6.13" cy="425.96" rx="75.11" ry="63.19"/><ellipse class="cls-7" cx="39.52" cy="390.64" rx="108.85" ry="98.47"/><ellipse class="cls-10" cx="153.86" cy="413.48" rx="58.76" ry="58.19"/><ellipse class="cls-11" cx="197.48" cy="362.43" rx="72.67" ry="63.26"/><ellipse class="cls-9" cx="233.35" cy="434.21" rx="72.67" ry="63.26"/><ellipse class="cls-7" cx="309.27" cy="383.4" rx="73.4" ry="109.24"/><ellipse class="cls-12" cx="375.5" cy="417.01" rx="58.76" ry="58.19"/><ellipse class="cls-11" cx="419.12" cy="365.96" rx="72.67" ry="63.26"/><ellipse class="cls-9" cx="454.99" cy="437.74" rx="72.67" ry="63.26"/><ellipse class="cls-9" cx="518.9" cy="410.25" rx="78.32" ry="50.67"/><ellipse class="cls-7" cx="560.95" cy="362.02" rx="106.28" ry="98.86"/><ellipse class="cls-10" cx="672.95" cy="400.24" rx="61.28" ry="46.66"/><ellipse class="cls-11" cx="718.44" cy="359.31" rx="75.78" ry="50.72"/><ellipse class="cls-9" cx="755.85" cy="416.86" rx="75.78" ry="50.72"/><ellipse class="cls-7" cx="1531.41" cy="360.56" rx="69.94" ry="70.15"/><ellipse class="cls-12" cx="1612.07" cy="300.08" rx="61.28" ry="46.66"/><ellipse class="cls-11" cx="1819.57" cy="325.14" rx="75.78" ry="50.72"/><ellipse class="cls-9" cx="1882.59" cy="377.21" rx="101.41" ry="56.21"/><ellipse class="cls-9" cx="1883.45" cy="241.38" rx="75.11" ry="63.19"/><ellipse class="cls-7" cx="1715.18" cy="333.84" rx="91.51" ry="100.68"/><ellipse class="cls-10" cx="1359.18" cy="391.9" rx="58.76" ry="58.19"/><ellipse class="cls-11" cx="1402.81" cy="340.84" rx="72.67" ry="63.26"/><ellipse class="cls-9" cx="1438.68" cy="412.62" rx="72.67" ry="63.26"/><ellipse class="cls-13" cx="642.71" cy="996.24" rx="696.71" ry="19.02" transform="translate(-36.07 24.22) rotate(-2.1)"/><ellipse class="cls-14" cx="699.79" cy="560.07" rx="474.88" ry="26.9"/><ellipse class="cls-15" cx="1235.67" cy="657.07" rx="172" ry="14.1"/></g><g id="shade"><rect class="cls-16" x="-54" y="-34" width="2054" height="902"/></g><g id="plants-background"><ellipse class="cls-17" cx="1678.5" cy="171" rx="94.5" ry="42"/><ellipse class="cls-18" cx="1645.5" cy="398" rx="94.5" ry="42"/><path class="cls-19" d="M1594.47,535.74c1.09-6.41,2-12.81,2.75-19.22s1.45-12.82,2.06-19.23c1.2-12.82,2.1-25.64,2.79-38.45s1.08-25.64,1.36-38.46l.71-38.45,1.27-76.91.93-76.91c.38-25.63.46-51.27.67-76.91l.24-38.45.09-38.46c.11-51.27,0-102.54-.76-153.81h31.51c-.75,51.27-.87,102.54-.77,153.81l.09,38.46.25,38.45c.21,25.64.29,51.28.66,76.91l.94,76.91,1.26,76.91.71,38.45c.29,12.82.71,25.64,1.37,38.46s1.59,25.63,2.78,38.45c.61,6.41,1.27,12.82,2.07,19.23s1.66,12.81,2.75,19.22Z"/><ellipse class="cls-20" cx="1480.5" cy="294" rx="94.5" ry="42"/><ellipse class="cls-17" cx="1410.54" cy="192.22" rx="94.5" ry="42"/><ellipse class="cls-17" cx="496.28" cy="244.43" rx="94.5" ry="42"/><ellipse class="cls-21" cx="498.78" cy="395.72" rx="94.5" ry="42"/><path class="cls-22" d="M396.7,558.13s-1.65-64.85-54-60.61"/><path class="cls-22" d="M335.39,525.12s41.77-22.64,63.1,33"/><path class="cls-22" d="M470.52,502.71c-74-26.41-72,54.17-72,54.17"/><path class="cls-22" d="M396.32,556.88s28.42-59.75,76-38.45"/><path class="cls-22" d="M398.49,559.6s-.37-65.61-8.39-84.48"/><ellipse class="cls-17" cx="13.78" cy="178.72" rx="94.5" ry="42"/><ellipse class="cls-23" cx="79.28" cy="252.72" rx="90" ry="40"/><ellipse class="cls-24" cx="218.28" cy="299.72" rx="81" ry="36"/><ellipse class="cls-25" cx="364.78" cy="208.28" rx="77.5" ry="34.44"/><ellipse class="cls-17" cx="387.3" cy="125.07" rx="64.63" ry="28.73"/><ellipse class="cls-17" cx="447.49" cy="35.48" rx="64.63" ry="28.73"/><ellipse class="cls-17" cx="239.78" cy="186.72" rx="94.5" ry="42"/><path class="cls-26" d="M429.28,576.72c1.17-7.42,2.13-14.85,3-22.28s1.57-14.85,2.23-22.28c1.28-14.85,2.25-29.71,3-44.56s1.17-29.71,1.47-44.56l.76-44.57,1.37-89.12,1-89.13c.4-29.71.49-59.41.71-89.12L443,86.54l.1-44.57c.11-59.41,0-118.83-.82-178.25h33.92c-.81,59.42-.94,118.84-.83,178.25l.1,44.57.26,44.56c.23,29.71.32,59.41.72,89.12l1,89.13,1.37,89.12.76,44.57c.31,14.85.76,29.7,1.48,44.56s1.7,29.71,3,44.56c.66,7.43,1.37,14.85,2.22,22.28s1.79,14.86,3,22.28Z"/><path class="cls-26" d="M554.41,503c1.09-6.41,2-12.82,2.76-19.23s1.45-12.82,2.06-19.23c1.2-12.81,2.09-25.63,2.78-38.45s1.08-25.64,1.37-38.45l.71-38.46,1.27-76.91.93-76.9c.37-25.64.45-51.28.66-76.91L567.2,80l.09-38.45c.1-51.27,0-102.54-.77-153.82H598c-.75,51.28-.86,102.55-.76,153.82L597.36,80l.24,38.46c.21,25.63.3,51.27.67,76.91l.93,76.9,1.27,76.91.71,38.46c.28,12.81.7,25.63,1.37,38.45s1.58,25.64,2.78,38.45c.61,6.41,1.27,12.82,2.06,19.23s1.66,12.82,2.76,19.23Z"/><path class="cls-26" d="M241.41,520.11c1.09-6.41,2-12.82,2.76-19.23s1.45-12.82,2.06-19.22c1.2-12.82,2.09-25.64,2.78-38.46s1.08-25.63,1.37-38.45l.71-38.46,1.27-76.9.93-76.91c.37-25.64.45-51.28.66-76.91l.25-38.46.09-38.45c.1-51.27,0-102.54-.77-153.82H285c-.75,51.28-.86,102.55-.76,153.82l.09,38.45.24,38.46c.21,25.63.3,51.27.67,76.91l.93,76.91,1.27,76.9.71,38.46c.28,12.82.7,25.63,1.37,38.45s1.58,25.64,2.78,38.46c.61,6.4,1.27,12.81,2.06,19.22s1.66,12.82,2.76,19.23Z"/><path class="cls-26" d="M321.28,632.72c1.17-7.42,2.13-14.85,3-22.28s1.57-14.85,2.23-22.28c1.28-14.85,2.25-29.71,3-44.56s1.17-29.71,1.47-44.56l.76-44.57,1.37-89.12,1-89.13c.4-29.71.49-59.41.71-89.12l.26-44.56.1-44.57c.11-59.41,0-118.83-.82-178.25h33.92c-.81,59.42-.94,118.84-.83,178.25l.1,44.57.26,44.56c.23,29.71.32,59.41.72,89.12l1,89.13,1.37,89.12.76,44.57c.31,14.85.76,29.7,1.48,44.56s1.7,29.71,3,44.56c.66,7.43,1.37,14.85,2.22,22.28s1.79,14.86,3,22.28Z"/><line class="cls-27" x1="462.28" y1="166.72" x2="562.78" y2="-38.78"/><ellipse class="cls-17" cx="222.21" cy="40.97" rx="94.5" ry="42"/><ellipse class="cls-17" cx="582.78" cy="115.72" rx="94.5" ry="42"/><ellipse class="cls-17" cx="569.03" cy="3.72" rx="80.75" ry="35.89"/><ellipse class="cls-23" cx="193.88" cy="235.66" rx="64.63" ry="28.73"/><ellipse class="cls-23" cx="254.07" cy="111.06" rx="64.63" ry="28.73"/><ellipse class="cls-23" cx="108.36" cy="107.31" rx="94.5" ry="42"/><ellipse class="cls-24" cx="352.88" cy="353.66" rx="64.63" ry="28.73"/><ellipse class="cls-28" cx="413.07" cy="264.06" rx="64.63" ry="28.73"/><ellipse class="cls-21" cx="13.78" cy="353.72" rx="67.5" ry="30"/><ellipse class="cls-17" cx="625.36" cy="250.89" rx="64.63" ry="28.73"/><path class="cls-19" d="M191.84,547.72c3-25.63,4.53-51.27,5.57-76.9.49-12.82.8-25.64,1-38.46l.48-38.45,1-76.91.68-76.91c.27-25.64.34-51.27.49-76.91l.18-38.45.07-38.46c.07-51.27,0-102.54-.57-153.81h23.11c-.55,51.27-.63,102.54-.56,153.81l.07,38.46.17,38.45c.16,25.64.22,51.27.49,76.91l.69,76.91,1,76.91.49,38.45c.21,12.82.51,25.64,1,38.46,1,25.63,2.53,51.27,5.57,76.9Z"/><ellipse class="cls-20" cx="228.78" cy="409.72" rx="94.5" ry="42"/><path class="cls-26" d="M7.34,511.48c.55-6.41,1-12.82,1.37-19.23l.56-9.61L9.74,473c.33-6.41.55-12.82.78-19.23s.43-12.82.59-19.23c.76-25.63.8-51.27,1.05-76.91l.66-76.9.46-76.91.34-76.91L13.78,50c.07-25.63,0-51.27-.08-76.91l-.08-38.45-.22-38.45H29.16l-.22,38.45-.09,38.45c0,25.64-.15,51.28-.08,76.91l.17,76.91.33,76.91.47,76.91.66,76.9c.25,25.64.29,51.28,1,76.91.16,6.41.33,12.82.59,19.23s.46,12.82.79,19.23l.46,9.61.56,9.61c.39,6.41.83,12.82,1.37,19.23Z"/><ellipse class="cls-23" cx="30.73" cy="32.14" rx="64.63" ry="28.73"/><path class="cls-29" d="M25.91,543.7s-1.15-45.34-37.55-42.38"/><path class="cls-29" d="M-16.72,520.61s29-15.82,43.87,23.09"/><path class="cls-29" d="M77.24,505c-51.49-18.47-50.09,37.87-50.09,37.87"/><path class="cls-29" d="M25.65,542.82s19.76-41.77,52.81-26.88"/><path class="cls-29" d="M27.15,544.72s-.25-45.87-5.83-59.06"/><path class="cls-26" d="M29.33,637.72a204.72,204.72,0,0,0,8.77-22.28q3.7-11.15,6.54-22.28a425.22,425.22,0,0,0,8.82-44.56c4.43-29.71,4.93-59.42,6.63-89.13q2.23-44.57,4-89.12c1.06-29.71,2.26-59.42,3-89.13Q69.76,192.11,70.31,103c0-14.85.13-29.71,0-44.56l-.09-22.28L70,13.85C69.83-1,69.6-15.86,69.23-30.71s-.78-29.71-1.45-44.57h100c-.68,14.86-1.1,29.71-1.46,44.57s-.59,29.7-.79,44.56l-.22,22.28-.1,22.28c-.09,14.85,0,29.71,0,44.56q.41,89.13,3.18,178.25c.79,29.71,2,59.42,3,89.13q1.83,44.56,4,89.12c1.69,29.71,2.2,59.42,6.63,89.13a422.67,422.67,0,0,0,8.82,44.56q2.85,11.15,6.53,22.28a206.78,206.78,0,0,0,8.77,22.28Z"/><path class="cls-30" d="M157.06,660.4s-2.58-101.31-84.36-94.68"/><path class="cls-30" d="M61.28,608.82s65.25-35.36,98.57,51.58"/><path class="cls-30" d="M272.37,573.83c-115.68-41.26-112.52,84.61-112.52,84.61"/><path class="cls-30" d="M156.46,658.44s44.4-93.33,118.65-60.05"/><path class="cls-30" d="M159.85,662.69s-.58-102.49-13.1-132"/><path class="cls-31" d="M492.33,599.11s-1.51-59.18-49.28-55.3"/><path class="cls-31" d="M436.38,569s38.11-20.66,57.57,30.13"/><path class="cls-31" d="M559.68,548.54C492.11,524.44,494,598,494,598"/><path class="cls-31" d="M492,598s25.93-54.51,69.3-35.08"/><path class="cls-31" d="M494,600.44s-.33-59.86-7.65-77.08"/><path class="cls-32" d="M69.23,691.24s-2-79.35-66.08-74.15"/><path class="cls-32" d="M-5.79,650.84s51.1-27.69,77.19,40.4"/><path class="cls-32" d="M159.53,623.43C68.94,591.12,71.4,689.7,71.4,689.7"/><path class="cls-32" d="M68.76,689.7s34.77-73.09,92.92-47"/><path class="cls-32" d="M71.4,693S71,612.76,61.15,589.68"/><path class="cls-33" d="M1852.7,566.47s-1.65-64.86-54-60.61"/><path class="cls-33" d="M1791.39,533.45s41.77-22.64,63.1,33"/><path class="cls-33" d="M1926.52,511.05c-74-26.42-72,54.16-72,54.16"/><path class="cls-33" d="M1852.32,565.21s28.42-59.74,76-38.44"/><path class="cls-33" d="M1854.49,567.94s-.37-65.62-8.39-84.49"/><ellipse class="cls-17" cx="650.78" cy="190.06" rx="94.5" ry="42"/><ellipse class="cls-20" cx="1674.28" cy="308.06" rx="81" ry="36"/><ellipse class="cls-25" cx="1820.78" cy="272.61" rx="77.5" ry="34.44"/><ellipse class="cls-17" cx="1873.3" cy="154.41" rx="64.63" ry="28.73"/><ellipse class="cls-17" cx="1903.49" cy="43.81" rx="64.63" ry="28.73"/><path class="cls-26" d="M1875.28,585.06c1.6-7.43,2.82-14.86,4-22.28s2.09-14.86,3-22.28c1.72-14.86,3-29.71,4-44.57.44-7.42.89-14.85,1.18-22.28s.58-14.85.78-22.28l1-44.56c.72-29.71,1.22-59.42,1.82-89.13s1-59.41,1.38-89.12q1.19-89.13,1.39-178.25c.15-59.42,0-118.83-1.1-178.25h45.23c-1.08,59.42-1.24,118.83-1.1,178.25s.61,118.83,1.39,178.25c.36,29.71.9,59.42,1.39,89.12s1.1,59.42,1.82,89.13l1,44.56c.2,7.43.4,14.86.77,22.28s.75,14.86,1.19,22.28c1,14.86,2.27,29.71,4,44.57.88,7.42,1.83,14.85,3,22.28s2.36,14.85,4,22.28Z"/><path class="cls-26" d="M1697.41,528.44c1.09-6.4,2-12.81,2.76-19.22s1.45-12.82,2.06-19.23c1.2-12.82,2.09-25.64,2.78-38.45s1.08-25.64,1.37-38.46l.71-38.45,1.27-76.91.93-76.91c.37-25.63.45-51.27.66-76.91l.25-38.45.09-38.45c.1-51.28,0-102.55-.77-153.82H1741c-.75,51.27-.86,102.54-.76,153.82l.09,38.45.24,38.45c.21,25.64.3,51.28.67,76.91l.93,76.91,1.27,76.91.71,38.45c.28,12.82.7,25.64,1.37,38.46s1.58,25.63,2.78,38.45c.61,6.41,1.27,12.82,2.06,19.23s1.66,12.82,2.76,19.22Z"/><path class="cls-26" d="M1777.28,641.06c1.17-7.43,2.13-14.86,3-22.28s1.57-14.86,2.23-22.28c1.28-14.86,2.25-29.71,3-44.57s1.17-29.7,1.47-44.56l.76-44.56,1.37-89.13,1-89.12c.4-29.71.49-59.42.71-89.13l.26-44.56.1-44.56c.11-59.42,0-118.83-.82-178.25h33.92c-.81,59.42-.94,118.83-.83,178.25l.1,44.56.26,44.56c.23,29.71.32,59.42.72,89.13l1,89.12,1.37,89.13.76,44.56c.31,14.86.76,29.71,1.48,44.56s1.7,29.71,3,44.57c.66,7.42,1.37,14.85,2.22,22.28s1.79,14.85,3,22.28Z"/><line class="cls-27" x1="1918.28" y1="175.06" x2="2018.78" y2="-30.44"/><ellipse class="cls-17" cx="1781.19" cy="27.77" rx="94.5" ry="42"/><ellipse class="cls-23" cx="1635.88" cy="245.99" rx="64.63" ry="28.73"/><ellipse class="cls-23" cx="1710.07" cy="119.39" rx="64.63" ry="28.73"/><ellipse class="cls-28" cx="1808.88" cy="361.99" rx="64.63" ry="28.73"/><ellipse class="cls-28" cx="1915.28" cy="299" rx="64.63" ry="28.73"/><ellipse class="cls-24" cx="650.78" cy="365.06" rx="67.5" ry="30"/><path class="cls-26" d="M1365.84,541.06c3-25.64,4.53-51.27,5.58-76.91.48-12.82.79-25.64,1-38.45l.48-38.46,1-76.91.68-76.9c.27-25.64.34-51.28.49-76.91l.18-38.46.07-38.45c.07-51.27,0-102.54-.57-153.82h23.11c-.55,51.28-.63,102.55-.56,153.82l.07,38.45.17,38.46c.16,25.63.22,51.27.49,76.91l.69,76.9,1,76.91.49,38.46c.21,12.81.51,25.63,1,38.45,1,25.64,2.53,51.27,5.57,76.91Z"/><path class="cls-26" d="M644.34,522.82c.55-6.41,1-12.82,1.37-19.23l.56-9.62.47-9.61c.33-6.41.55-12.82.78-19.23s.43-12.81.59-19.22c.76-25.64.8-51.27,1-76.91l.66-76.91.46-76.91.34-76.91.16-76.9c.07-25.64,0-51.28-.08-76.91L650.62-54l-.22-38.45h15.76L665.94-54l-.09,38.46c0,25.63-.15,51.27-.08,76.91l.17,76.9.33,76.91.47,76.91L667.4,369c.25,25.64.29,51.27,1,76.91.16,6.41.33,12.82.59,19.22s.46,12.82.79,19.23l.46,9.61.56,9.62c.39,6.41.83,12.82,1.37,19.23Z"/><ellipse class="cls-23" cx="667.73" cy="43.47" rx="64.63" ry="28.73"/><path class="cls-34" d="M662.91,555s-1.15-45.34-37.55-42.37"/><path class="cls-34" d="M620.28,532s29-15.83,43.87,23.08"/><path class="cls-34" d="M714.24,516.29c-51.49-18.47-50.09,37.86-50.09,37.86"/><path class="cls-34" d="M662.65,554.15s19.76-41.77,52.81-26.87"/><path class="cls-34" d="M664.15,556.06s-.25-45.87-5.83-59.07"/><path class="cls-35" d="M1597.49,628.63s-1.43-56.22-46.81-52.54"/><path class="cls-35" d="M1544.34,600s36.21-19.62,54.7,28.62"/><path class="cls-35" d="M1661.48,580.59c-64.19-22.9-62.44,46.95-62.44,46.95"/><path class="cls-35" d="M1597.16,627.54s24.64-51.79,65.84-33.32"/><path class="cls-35" d="M1599,629.9s-.32-56.87-7.27-73.23"/><path class="cls-31" d="M1948.33,607.44s-1.51-59.17-49.28-55.3"/><path class="cls-31" d="M1892.38,577.32s38.11-20.66,57.57,30.12"/><path class="cls-36" d="M382.23,670.57s-2-79.34-66.08-74.15"/><path class="cls-36" d="M307.21,630.18s51.1-27.7,77.19,40.39"/><path class="cls-36" d="M472.53,602.77C381.94,570.46,384.4,669,384.4,669"/><path class="cls-36" d="M381.76,669s34.77-73.09,92.92-47"/><path class="cls-36" d="M384.4,672.37S384,592.09,374.15,569"/><ellipse class="cls-17" cx="1873.52" cy="160.11" rx="94.5" ry="42"/><path class="cls-37" d="M588.41,705.59s-3.14-123.33-102.7-115.26"/><path class="cls-37" d="M471.8,642.8s79.44-43,120,62.79"/><path class="cls-37" d="M728.79,600.2c-140.82-50.23-137,103-137,103"/><path class="cls-37" d="M587.69,703.2s54-113.62,144.44-73.1"/><path class="cls-37" d="M591.8,708.39s-.69-124.79-15.94-160.67"/><path class="cls-38" d="M1738.92,674.33s-3.07-120.64-100.46-112.75"/><path class="cls-38" d="M1624.86,612.91s77.7-42.12,117.38,61.42"/><path class="cls-38" d="M1876.23,571.23c-137.75-49.13-134,100.76-134,100.76"/><path class="cls-38" d="M1738.21,672s52.87-111.14,141.29-71.51"/><path class="cls-38" d="M1742.24,677.06s-.69-122.06-15.6-157.15"/><ellipse class="cls-17" cx="1712.5" cy="257" rx="94.5" ry="42"/><ellipse class="cls-21" cx="1697.5" cy="437" rx="94.5" ry="42"/><path class="cls-22" d="M1542.47,549.63s-1.65-64.86-54-60.61"/><path class="cls-22" d="M1481.15,516.61s41.77-22.64,63.1,33"/><path class="cls-22" d="M1616.29,494.21c-74.06-26.42-72,54.16-72,54.16"/><path class="cls-22" d="M1542.08,548.37s28.43-59.74,76-38.44"/><path class="cls-22" d="M1544.25,551.1s-.37-65.62-8.39-84.49"/><ellipse class="cls-25" cx="1535.54" cy="213.77" rx="77.5" ry="34.44"/><ellipse class="cls-17" cx="1558.06" cy="130.57" rx="64.63" ry="28.73"/><ellipse class="cls-17" cx="1633.18" cy="40.27" rx="93.45" ry="41.54"/><path class="cls-26" d="M1412.17,525.6c1.1-6.4,2-12.81,2.76-19.22s1.45-12.82,2.06-19.23c1.2-12.82,2.1-25.64,2.78-38.45s1.09-25.64,1.37-38.46l.71-38.45,1.27-76.91.93-76.91c.37-25.63.46-51.27.67-76.91l.24-38.45.09-38.45c.1-51.28,0-102.55-.76-153.82h31.51c-.75,51.27-.87,102.54-.77,153.82l.09,38.45.24,38.45c.22,25.64.3,51.28.67,76.91l.93,76.91,1.27,76.91.71,38.45c.29,12.82.7,25.64,1.37,38.46s1.58,25.63,2.78,38.45c.61,6.41,1.27,12.82,2.06,19.23s1.67,12.82,2.76,19.22Z"/><path class="cls-26" d="M1492,638.22c1.18-7.43,2.13-14.86,3-22.28s1.56-14.86,2.22-22.28c1.29-14.86,2.25-29.71,3-44.57s1.17-29.71,1.48-44.56l.76-44.56,1.37-89.13,1-89.12c.4-29.71.49-59.42.72-89.13l.26-44.56.1-44.56c.11-59.42,0-118.84-.83-178.25H1539c-.81,59.41-.93,118.83-.82,178.25l.09,44.56.27,44.56c.22,29.71.31,59.42.71,89.13l1,89.12,1.36,89.13.77,44.56c.3,14.85.75,29.71,1.47,44.56s1.71,29.71,3,44.57c.66,7.42,1.37,14.85,2.22,22.28s1.8,14.85,3,22.28Z"/><ellipse class="cls-17" cx="1472.54" cy="37.22" rx="94.5" ry="42"/><ellipse class="cls-23" cx="1368.65" cy="273.15" rx="64.63" ry="28.73"/><ellipse class="cls-23" cx="1424.83" cy="116.55" rx="64.63" ry="28.73"/><ellipse class="cls-24" cx="1523.65" cy="359.15" rx="64.63" ry="28.73"/><ellipse class="cls-28" cx="1583.83" cy="269.55" rx="64.63" ry="28.73"/><path class="cls-19" d="M1326.6,571.22c3.05-25.64,4.54-51.27,5.58-76.91.49-12.82.79-25.64,1-38.45l.49-38.46,1-76.91.69-76.9c.27-25.64.33-51.28.48-76.91l.18-38.46.07-38.45c.07-51.27,0-102.54-.56-153.82h23.1c-.54,51.28-.63,102.55-.56,153.82l.07,38.45.18,38.46c.15,25.63.21,51.27.49,76.91l.68,76.9,1,76.91.48,38.46c.21,12.81.52,25.63,1,38.45,1,25.64,2.54,51.27,5.58,76.91Z"/><path class="cls-39" d="M1389.48,622.43s-2-77.68-64.68-72.59"/><path class="cls-39" d="M1316,582.88s50-27.11,75.58,39.55"/><path class="cls-39" d="M1477.9,556.05c-88.7-31.64-86.28,64.87-86.28,64.87"/><path class="cls-39" d="M1389,620.92s34-71.55,91-46"/><path class="cls-39" d="M1391.62,624.19s-.44-78.59-10-101.19"/></g><g id="tree"><path class="cls-40" d="M535.89,858.39c1.88-2.52,3.62-5,5.3-7.58s3.28-5.06,4.92-7.59q4.8-7.58,9.07-15.17c5.77-10.11,11-20.22,15.91-30.34s9.39-20.22,13.6-30.34c2.14-5,4.09-10.11,6.1-15.17s3.86-10.11,5.62-15.17c.89-2.53,1.81-5,2.68-7.58l2.55-7.59c1.72-5.05,3.28-10.11,4.85-15.17q4.63-15.16,8.55-30.34,7.83-30.35,13-60.68c1.74-10.11,3.25-20.23,4.6-30.34L636.76,555c1.39-10.11,2.62-20.23,3.93-30.34l1.95-15.17,1.83-15.17q7.44-60.69,13.22-121.36c7.78-80.91,13.51-161.82,16.43-242.73l.53-15.17.43-15.17c.32-10.11.46-20.22.69-30.34.31-20.22.5-40.45.4-60.68s-.43-40.45-1.09-60.68-1.61-40.45-3.3-60.68H1400c-1.69,20.23-2.65,40.45-3.31,60.68s-1,40.45-1.08,60.68.09,40.46.4,60.68c.22,10.12.37,20.23.69,30.34l.42,15.17.54,15.17c2.92,80.91,8.64,161.82,16.43,242.73q5.84,60.68,13.22,121.36l1.83,15.17,1.94,15.17c1.32,10.11,2.55,20.23,3.93,30.34l4.13,30.34c1.35,10.11,2.86,20.23,4.6,30.34q5.21,30.35,13,60.68,3.93,15.18,8.55,30.34c1.57,5.06,3.13,10.12,4.85,15.17l2.55,7.59c.86,2.53,1.79,5,2.68,7.58,1.76,5.06,3.74,10.12,5.62,15.17s4,10.12,6.1,15.17c4.21,10.12,8.69,20.23,13.6,30.34s10.14,20.23,15.91,30.34q4.29,7.59,9.07,15.17c1.64,2.53,3.17,5.06,4.91,7.59s3.43,5.06,5.31,7.58Z"/><path class="cls-41" d="M1352.8,774.77a277.42,277.42,0,0,1-14.87-25.86q-6.77-13.18-12.68-26.71t-10.55-27.52c-3.07-9.35-6-18.74-9.3-28l-9.68-27.86-9.47-27.95c-6.22-18.66-12.47-37.32-18.45-56.08l1.4-.54c8.19,17.91,16.11,35.92,24,53.92L1305,635.2l11.57,27.14c3.84,9,7.94,18,12,27s7.57,18.15,10.7,27.48,6,18.75,8.57,28.29a280,280,0,0,1,6.38,29.14Z"/><path class="cls-41" d="M829,799.34c-1.45-7.52-2.3-15-3-22.44s-1.12-14.86-1.41-22.26c-.53-14.81-.42-29.54.25-44.22.35-7.33.89-14.65,1.69-21.94s1.86-14.55,3.09-21.79c2.49-14.48,5.32-28.93,7.46-43.45l6.64-43.54,7.08-43.49c4.91-29,9.78-58,15.22-86.87l3,.32c-.72,29.41-2,58.77-3.28,88.13l-2.17,44-2.61,44c-.95,14.65-1.2,29.37-1.79,44-.31,7.34-.79,14.66-1.54,22s-1.74,14.56-2.93,21.81c-2.42,14.49-5.39,28.92-9,43.28-1.83,7.18-3.81,14.35-6,21.49S835,792.6,832,799.66Z"/><path class="cls-41" d="M1133,758.55a129.27,129.27,0,0,1-4.52-16q-1.79-8-3-16.11a142.76,142.76,0,0,1-1.45-16.25c-.16-5.45-.27-10.91-.55-16.34l-.83-16.31-.68-16.33c-.39-10.89-.79-21.78-1-32.68l1-.1c1.78,10.76,3.38,21.54,5,32.32l2.32,16.17,2.17,16.19c.72,5.4,1.61,10.78,2.45,16.16a142.93,142.93,0,0,1,1.55,16.25q.32,8.16,0,16.39a129.07,129.07,0,0,1-1.52,16.52Z"/></g><g id="fallen-tree"><path class="cls-42" d="M-47.5,665.5q31.52,3.11,63,5.48c21,1.65,42,3.11,63,4.5q63,4.13,126.07,7.11t126.06,5.1l126.06,4.18L708.88,700,961,707.71q126.06,3.85,252.13,7.24l126.06,3.52,126.06,3.3q252.12,6.56,504.25,11.6V997.63q-252.12,4.75-504.25,11.6l-126.06,3.3-126.06,3.52q-126.08,3.6-252.13,7.24L708.88,1031l-252.13,8.14-126.06,4.18q-63,2.19-126.06,5.1t-126.07,7.11c-21,1.39-42,2.85-63,4.5s-42,3.41-63,5.48Z"/><path class="cls-43" d="M81.51,743.75c2.84-1.31,5.67-2.38,8.5-3.38s5.66-1.89,8.49-2.74c5.66-1.68,11.31-3,17-4.26a278.86,278.86,0,0,1,33.91-4.87c5.65-.46,11.3-.69,16.94-.61s11.29.46,16.93,1c11.29,1.2,22.57,2.79,33.85,3.57L234,733.75,251,735.11l16.93,1.52,16.92,1.62c22.57,2.31,45.14,4.57,67.7,7.5l0,3.5c-22.61,2.6-45.21,4.52-67.8,6.5l-16.95,1.37-17,1.27-16.95,1.11-16.94,1c-11.3.61-22.6,2-33.9,3.07-5.65.5-11.3.8-16.95.79s-11.29-.32-16.93-.86a279.29,279.29,0,0,1-33.84-5.37c-5.63-1.31-11.27-2.75-16.9-4.51-2.82-.89-5.63-1.81-8.45-2.87s-5.63-2.15-8.44-3.5Z"/><path class="cls-41" d="M-78.56,986.75c3.07-1.44,6.16-2.65,9.24-3.78s6.18-2.17,9.28-3.15c6.18-2,12.38-3.57,18.59-5.06a337.57,337.57,0,0,1,37.31-6.5c6.23-.73,12.47-1.23,18.72-1.42s12.52-.08,18.79.22c12.54.66,25.09,1.71,37.62,2l18.79.44,18.79.55,18.8.7,18.81.81c25.08,1.22,50.15,2.39,75.26,4.24l.12,3.5c-24.89,3.68-49.82,6.68-74.74,9.74l-18.69,2.19-18.7,2.07-18.71,1.92L72,997c-12.47,1.15-24.92,3.12-37.38,4.7-6.23.76-12.46,1.34-18.71,1.59s-12.51.23-18.78,0a337.49,337.49,0,0,1-37.69-3.75c-6.29-1-12.59-2.2-18.91-3.68-3.15-.76-6.31-1.55-9.47-2.47s-6.33-1.88-9.51-3.09Z"/><path class="cls-41" d="M679.5,788.5c15.13-2.87,30.25-4.64,45.38-6.07s30.25-2.34,45.37-2.93,30.25-.54,45.38.1,30.25,1.47,45.37,1.9l45.38,1.35,45.37,1.65c30.25,1.23,60.5,2.42,90.75,4v2c-30.25,1.58-60.5,2.77-90.75,4l-45.37,1.65L861,797.5c-15.12.43-30.25,1.22-45.37,1.9s-30.25.7-45.38.1S740,798,724.88,796.57s-30.25-3.2-45.38-6.07Z"/><path class="cls-41" d="M1169.52,788.5a108.56,108.56,0,0,1,20.4-5.57,176.59,176.59,0,0,1,20.33-2.43,110.42,110.42,0,0,1,20.24.6c6.74.81,13.47,1.84,20.21,2.4l20.21,1.85,20.21,2.15c13.47,1.56,26.94,3.09,40.4,5l0,2c-13.54,1.25-27.07,2.11-40.6,3l-20.29,1.15-20.29.85c-6.76.23-13.53.92-20.29,1.4a111.48,111.48,0,0,1-20.26-.4,176.31,176.31,0,0,1-20.17-3.43,107.92,107.92,0,0,1-20.1-6.57Z"/><path class="cls-41" d="M1268,971a138.38,138.38,0,0,1,23.25-6.07A230.77,230.77,0,0,1,1314.5,962a145.55,145.55,0,0,1,23.25.1c7.75.64,15.5,1.5,23.25,1.9l23.25,1.35L1407.5,967c15.5,1.23,31,2.42,46.5,4v2c-15.5,1.58-31,2.77-46.5,4l-23.25,1.65L1361,980c-7.75.4-15.5,1.26-23.25,1.9a145.55,145.55,0,0,1-23.25.1,230.77,230.77,0,0,1-23.25-2.93A138.38,138.38,0,0,1,1268,973Z"/><polygon class="cls-19" points="928 1015 1071 1061 1232.69 1086.86 1307.67 1061.88 997.34 992.43 928 1015"/><polygon class="cls-44" points="1277.15 1072.05 1307.67 1061.88 1205 1033 1152 1009 1085 1011 1154.42 1044.69 1277.15 1072.05"/><polygon class="cls-19" points="1673.19 732.54 1736.68 710.88 1805.81 691.87 1842.9 704.59 1689.15 742.38 1673.19 732.54"/><polygon class="cls-44" points="1827.81 699.41 1842.9 704.59 1810.85 720.18 1768 741 1689.15 742.38 1765 723 1827.81 699.41"/></g><g id="legend"><path class="cls-45" d="M80.24,846.09l-9.45.35c-3-8.68,5.61-46.94-9.13-27.24-10.75-6.65,5.49-12.51,9.18-17.51C85.85,792.2,77.15,842.26,80.24,846.09Z"/><path class="cls-45" d="M80.44,909.31c-1.87-6.88-3.11-2.38-6.91-.28-22.89,6.19-25.81-19.9,3.32-22.39-.57-8-9.48-4.81-15-2.18-6.9-8,2.34-9.06,9.65-9.75,19.62-3,14.07,23,15.49,34.36Zm-3.33-15.73c-4.67.34-11.71.17-11.44,6.11C67.62,908.41,80.15,901,77.11,893.58Z"/><path class="cls-45" d="M168.43,839.92c-33.07,1.62-40.2,4.75-14-24.89,7.48-10.68-5.13-16.29-12.16-7-10.26-7,1.09-12.28,9.41-12.84,26.17,1.29,9.53,27.91-1.75,37.5C156.73,833.67,171.64,827.1,168.43,839.92Z"/><path class="cls-45" d="M163.4,915.33c-1.87-6.88-3.1-2.38-6.91-.29-22.89,6.2-25.8-19.89,3.33-22.38-.57-8-9.49-4.81-15-2.18-6.89-8,2.34-9.06,9.65-9.75,19.62-3,14.08,23,15.5,34.36Zm-19.26-43.74,20.72-.76.24,6.45C160.56,875.76,139.58,883.07,144.14,871.59Zm15.93,28c-4.67.35-11.7.17-11.43,6.12C150.58,914.42,163.12,907,160.07,899.59Z"/><path class="cls-46" d="M241.81,784c1,11.48-15.1,8.75-.89,14,15.76,17-28.73,31.45-26,10.77,5.35,2.38,13.22,4,18.16.39,6.32-8.19-5.15-11.4-11.89-10-2.3-9.77,4.9-4.55,10-8.54,7.11-8.9-7.33-11.67-12.54-5.8C204.16,772.69,243,769,241.81,784Z"/><path class="cls-46" d="M234.12,890.14c-46-4.52,9.91-64.25,12.82-15.22-2.91,1.66-29.68-3.39-18.64,6.63,4.59,3.83,12,1.37,17-1.06C247.44,888.64,241.47,890,234.12,890.14Zm-2.27-27.54c-4.1.16-5.9,3.1-6,7.14C233,871.11,246.08,866.77,231.85,862.6Z"/><path class="cls-46" d="M308.76,814.33c-7.17-1.82-4.6,4.77-4.83,9.06C283,826.11,310,811,277.11,815.49c-3.51-5,15-30.4,16.94-34.6l8.31-.31,1,26.91C309.74,806.08,308.58,809.55,308.76,814.33Zm-14.22-6.52c-.47-4.72.06-12-.48-16.19C293,800.49,275.19,811,294.54,807.81Z"/><path class="cls-46" d="M297.27,896.27c-46-4.52,9.91-64.25,12.81-15.22-2.9,1.66-29.67-3.39-18.64,6.63,4.6,3.83,12,1.37,17-1.06C310.59,894.77,304.61,896.13,297.27,896.27Zm-12.94-42.68C290,853,308.78,848,304.4,859,300.06,857.59,280,864.59,284.33,853.59ZM295,868.73c-4.11.16-5.91,3.1-6,7.14C296.17,877.24,309.23,872.9,295,868.73Z"/><path class="cls-46" d="M370.37,790.9c37.1,4.38-10.6,49.71-14.35,18.35,23.78,9.23,26.25-13.8.44-11.47l.81-21.88c6.21,1.55,27-6.48,22.88,6.84l-14.75.54C365.51,788.25,363,793.3,370.37,790.9Z"/><path class="cls-46" d="M388.59,889.66c-13.91,4.32-8-11.14-9.63-18.79-.72-12.53-14.85-6.25-12.22,4.17-.47,8,4.6,18.19-8.36,15.73l-1.67-45.56c12.11-2.55,8.83,4.37,9.25,14.06C388.48,850.93,388.58,865.28,388.59,889.66Z"/><path class="cls-46" d="M421.58,814.23c-6.32-15.53,23.63-39.18,25.39-18.41-9.57-2.32-19,3-17.83,13.47C475,785.2,435.35,870.66,421.58,814.23Zm15.29,11c7.13-.12,7-14.82-.4-14.24C428.25,811.13,429.35,825.09,436.87,825.22Z"/><path class="cls-46" d="M432.67,862.57c-.88-5.82,10.18-6.22,9.72-.35C443.11,868.14,432.24,868.44,432.67,862.57Zm10.82,40.86-8.93.32c2-7.25-8.32-38.36,7.73-33Z"/><path class="cls-46" d="M511.72,833.32l13.93-35.69c-6.35-1.23-23.48,5.83-19.95-6.89,3.23,2,35.42-6.71,29.72,4.59C531,801,525.09,840.75,511.72,833.32Z"/><path class="cls-46" d="M509.9,862.87c5.1-1.87,24.45-5.55,20.08,5.44C525.63,866.87,505.53,873.87,509.9,862.87Zm15.85,42-8.93.33c2-7.25-8.33-38.36,7.73-33.06Z"/><path class="cls-46" d="M596.54,797.21c13.29-1.48,18.22,15.95,5.42,20.77,10.73,3.7,12.45,19.24.43,22.39-15.8,6.55-29.54-14.2-12.09-22.15C578.51,812.37,583.48,795.86,596.54,797.21Zm-6.06,32c-.44,5.41,7.44,6.77,10.54,3.88C607.54,824.61,590.79,817.21,590.48,829.2Zm6-25.37c-6.67.13-5.17,8.85.06,10.37C601.78,812.66,603.2,803.85,596.48,803.83Z"/><path class="cls-46" d="M589,894.79c5.54-7.16,12.69-17.95,23.15-14.94-18,16.26-11.19,16.09.79,32.75-16.92,4.91-15-18.94-23.59-10.2.33,8.86,1.31,11.41-8.93,10.2,3.25-5-8.4-55.11,8.93-45.58C589.45,872.34,589.2,890,589,894.79Z"/><path class="cls-46" d="M690.13,826.11c6.33,15.55-23.66,39.17-25.39,18.4,9.55,2.42,19-3,17.83-13.44C636.7,855.18,676.32,769.67,690.13,826.11Zm-15.29-11c-7.19.06-7,14.81.4,14.23C683.46,829.24,682.36,815.27,674.84,815.15Z"/><path class="cls-46" d="M683.16,914.87c-16.11,5.06-5.25-17.16-10.12-24.45-20.06-9.91,0,31.81-19.2,24.44,1-4.24-4.29-48.23,8-28.56,5-6.81,16.26-5.62,20.78,0,20.6-18.46,23,14.64,20.94,28.57-14.09,3.8-7.6-11.4-9-19.14C686.71,873.45,680.34,906.3,683.16,914.87Z"/><path class="cls-46" d="M745.93,856.88l-9,.33c-2.91-8.31,5.37-45-8.75-26.09-10.29-6.37,5.26-12,8.79-16.77C751.3,805.26,743,853.21,745.93,856.88Z"/><path class="cls-46" d="M785.43,834c4.93,28.26-31.92,29.47-29.34,1.08C751.13,806.71,788,805.54,785.43,834Zm-20.32.75c-1.53,18.55,14.12,18,11.33-.42C777.81,815,762,817.38,765.11,834.75Z"/><path class="cls-46" d="M773.25,927.93c-16,5.67-5.77-17-11.08-24.06-21.45-9.64.3,31.63-19.13,25.16l-1.2-32.73c3.6-.17,8.1-1.17,8.17,3.9C770.66,881.51,774.94,912.77,773.25,927.93Z"/><path class="cls-47" d="M868.17,852.36c-19.71,8.19.91-43.57-16.51-23.14-9.43-5.64,4.62-11,7.75-15.35C872.35,805.42,865.44,849.06,868.17,852.36Z"/><path class="cls-47" d="M898.14,850.81c-19.71,8.19.9-43.57-16.52-23.14-9.42-5.64,4.62-10.95,7.76-15.35C902.31,803.87,895.4,847.51,898.14,850.81Z"/><path class="cls-47" d="M877.94,917.31c-17.13,6.46-1.46-22.18-14.11-23.11-14.65,1.35,4.41,28.86-13.3,24.53L849,889c3.26-.2,7.34-1.17,7.47,3.43C875,875.21,879.26,903.53,877.94,917.31Z"/><path class="cls-47" d="M911,918.27c3.17,14.45-28.51,19.7-25.92,5.19,8.53,3.76,20.2,3.55,18-9-25.79,23-26.61-44.4,0-22.08l.61-3.81C916.47,881.74,908.75,914.21,911,918.27Zm-13.76-5.67c8.83.66,8.06-18.77-.41-17.87C889.63,893.78,888.71,913.26,897.27,912.6Z"/><path class="cls-46" d="M969,859.44l-9-.33c-2.3-8.5,8.64-44.45-6.82-26.66-9.8-7.1,6.12-11.57,10-16.09C978.18,808.35,966.37,855.56,969,859.44Z"/><path class="cls-46" d="M1009.27,860.91c-50.71.06-21-5.29-9-31.67-.33-7.74-10-4.53-13.73-.68-9.31-7.38,1.9-11.65,9.89-11.6,24.91,3.06,7.15,27.32-4.29,35.69C998.53,854.12,1013.23,848.88,1009.27,860.91Z"/><path class="cls-46" d="M991.89,897.87c1,22.67-34.26,20.94-31.74-1.15C959.05,874.1,994.41,875.9,991.89,897.87Zm-22.63-.82c-2.11,12.78,14.71,13.46,13.5.49C984.89,884.87,968.05,884.23,969.26,897.05Z"/><path class="cls-46" d="M1077.56,867.49l-9-.33c-2.3-8.5,8.64-44.45-6.82-26.66-9.8-7.11,6.12-11.57,10-16.09C1086.7,816.4,1074.88,863.61,1077.56,867.49Z"/><path class="cls-46" d="M1117.33,835.66c.18,11.53-15.7,7.63-1.91,14,14.48,18.14-31,29.26-26.74,8.83,5.17,2.77,12.9,4.95,18.09,1.72,6.9-7.7-4.31-11.75-11.13-10.81-1.58-9.91,5.22-4.18,10.62-7.78,7.73-8.36-6.46-12.18-12.09-6.7C1080.61,821.69,1119.56,820.86,1117.33,835.66Z"/><path class="cls-46" d="M1103.64,910.93c1,22.67-34.26,20.93-31.74-1.16C1070.8,887.16,1106.15,889,1103.64,910.93Zm-24.85-27c7.21-.9,24.79-3.75,19.63,6.9C1094.19,889,1073.63,894.56,1078.79,883.9Zm2.22,26.2c-2.12,12.78,14.71,13.46,13.49.5C1096.63,897.93,1079.8,897.28,1081,910.1Z"/><path class="cls-46" d="M1187.92,867.63l-9,.55c-3.1-8.24,4.31-45.07-9.37-25.88-10.43-6.12,5-12.1,8.39-17C1192.07,815.9,1184.88,864,1187.92,867.63Z"/><path class="cls-46" d="M1228.21,856.3c-7.21-1.65-4.49,4.88-4.61,9.17-20.83,3.22,5.74-12.58-27-7.25-3.63-4.89,14.3-30.75,16.1-35l8.31-.5,1.63,26.87C1229,848,1227.92,851.53,1228.21,856.3Zm-14.38-6.17c-.58-4.72-.22-12-.86-16.18C1212.15,842.85,1194.57,853.76,1213.83,850.13Z"/><path class="cls-46" d="M1204.85,939.33c-5.71,2.17-11.37-8.48-9,1.1l.81,13.25c-16.77,10.82-8.26-42-11.78-46.55,5.22-.46,7.26-1.33,9.18,3.71C1212.16,888.62,1228.57,936.92,1204.85,939.33Zm-4.26-26.6c-9.23-.11-7.6,20.78,1.3,19.53C1209.44,933,1209.63,911.71,1200.59,912.73Z"/><path class="cls-46" d="M1290.28,858.76l-9,.54c-3.11-8.24,4.3-45.07-9.37-25.87-10.44-6.12,5-12.11,8.39-17C1294.43,807,1287.24,855.15,1290.28,858.76Z"/><path class="cls-46" d="M1315.21,829.84c37.2,3.49-9.41,49.94-13.9,18.68,24,8.66,25.91-14.42.16-11.48l.29-21.89c6.25,1.4,26.81-7.11,23,6.3l-14.74.89C1310.3,827.31,1307.87,832.41,1315.21,829.84Z"/><path class="cls-46" d="M1309.49,896.3c5.13-2.12,2.26,6.37,2.86,8.48-15.46-3.06-10.29,16.84-10.17,25.39-15.45,6.9-8.21-25.25-10.9-32.16,5-.73,7.76-.81,8.4,5C1302.09,900.16,1304.94,896.22,1309.49,896.3Z"/><path class="cls-48" d="M1401.08,849.47l-8.52.32c-2.75-7.83,5-42.35-8.26-24.58-9.69-6,5-11.28,8.28-15.8C1406.12,800.85,1398.29,846,1401.08,849.47Z"/><path class="cls-48" d="M1411.11,832c-5.95-14.63,22.25-36.91,23.91-17.34-9-2.19-17.87,2.79-16.79,12.69C1461.88,804.7,1423.11,885.14,1411.11,832Zm14.42,10.35c6.71-.11,6.59-14-.39-13.41C1417.4,829,1418.44,842.18,1425.53,842.3Z"/><path class="cls-48" d="M1415.36,910.65c15-1.92-2.57,13.25-9.62,4.51-6.16-3.41,1.87-24.73-7.17-22.28-1.11-5.75,6-5.18,6.58-13.14,12.17-1.94-2.23,9,14.26,6,1.73,7.91-2.54,6.39-8.4,6.64C1412.16,895.57,1408.74,911.75,1415.36,910.65Z"/><path class="cls-49" d="M1497.89,850.31c-19.83,7.9,1.55-43.55-16.17-23.38-9.35-5.78,4.77-10.88,8-15.23C1502.75,803.44,1495.2,847,1497.89,850.31Z"/><path class="cls-49" d="M1511.66,849.8l12.64-32.41c-5.77-1.12-21.32,5.3-18.12-6.25,2.93,1.82,32.16-6.11,27,4.16C1529.19,820.42,1523.8,856.54,1511.66,849.8Z"/><path class="cls-49" d="M1516,915.06c-.42-7.61-11.16,6.85-18.64-1.59-4.83-3.82-2.79-21.82-3.67-27.34l8.1-.3C1499,912,1518,916.68,1513,885.41l8.11-.3C1519,888.82,1528.15,921,1516,915.06Z"/><path class="cls-50" d="M1591.54,834.27c-20.13,6.61,4.2-43.06-14.59-24.16-8.9-6.3,5.4-10.49,8.84-14.6C1599.23,788.13,1589.09,830.8,1591.54,834.27Z"/><path class="cls-50" d="M1615.63,795.75c12-1,16.06,14.77,4.42,18.83,12.77,5,8.19,22.37-5.4,20.78-13.37,1.39-17.66-16.28-5.11-20.83C1599,809,1603.89,794.24,1615.63,795.75Zm-6.18,28.68c-.51,4.87,6.55,6.26,9.42,3.74C1624.92,820.68,1610,813.63,1609.45,824.43Zm6-22.72c-6,0-4.86,7.86-.18,9.34C1620,809.78,1621.48,801.88,1615.43,801.71Z"/><path class="cls-50" d="M1606,899.53c.28-7.8-19.93,10.73-20.81-10.79l.48-19.24c12.74-3.12,6.57,10.46,7.62,17.43,6.86,20.14,14.15-8.45,11.56-17l8.06.2C1610.59,873.72,1617.66,906.12,1606,899.53Zm-15.47-40.73,17.9.44-.14,5.57C1602,865,1586,868.45,1590.49,858.8Z"/><path class="cls-50" d="M1684.28,854c-20.13,6.62,4.2-43.05-14.59-24.16-8.9-6.29,5.4-10.48,8.83-14.59C1692,807.83,1681.82,850.5,1684.28,854Z"/><path class="cls-50" d="M1720.88,832.74c4.83,14.34-23.45,33.93-23.86,15.16,8.45,2.7,17.23-1.64,16.78-11.11C1670.74,855.81,1712.53,781.24,1720.88,832.74ZM1707.72,822c-6.47-.34-7.13,12.94-.42,12.82C1714.7,835.19,1714.48,822.57,1707.72,822Z"/><path class="cls-50" d="M1696.57,919.18c-6.26-34.25-4.23-23-10.9-.27-13,5.58-13-23.66-16.32-29.93,10-2.38,9.3,6.5,11.11,13.35,1.55,21.33,3.65-6.27,7.13-12.9l8.87.22c.68,3.51,3.47,15,3.78,18.52.09,11.85,4.31-14.94,6.43-18.27,16.78-5.71-2.23,24.15-1.33,29.5Z"/><path class="cls-50" d="M1809.23,843c-45.7.59-19-4.55-8.48-28.45-.38-7-9.08-4-12.38-.46-8.47-6.55,1.59-10.52,8.79-10.56,22.47,2.49,6.73,24.55-3.49,32.21C1799.48,837,1812.67,832.14,1809.23,843Z"/><path class="cls-50" d="M1839.53,824.46c.49,33.39-36,17.35-25.51-9C1818.57,794.66,1843.72,806.18,1839.53,824.46Zm-18.31-.45c-2.4,16.6,11.71,17,10.21.25C1833.73,806.91,1819.36,808.21,1821.22,824Z"/><path class="cls-50" d="M1799.06,907.67c-6.27-34.25-4.24-23-10.9-.27-13,5.58-13-23.66-16.33-29.93,10-2.38,9.3,6.49,11.11,13.35,1.56,21.32,3.65-6.27,7.14-12.9l8.86.22c.69,3.51,3.47,15,3.78,18.52.1,11.85,4.31-14.94,6.44-18.27,16.77-5.71-2.24,24.15-1.34,29.5Z"/><path class="cls-50" d="M1848.31,908.89c-17.23,5.22,0-22.32-12.22-23.94-14.58.28,2.17,28.88-15,23.26l1-41.07c8.05-.74,8.77.89,7.84,8.57C1826.05,892.5,1854,855.8,1848.31,908.89Z"/></g><g id="moss"><polygon id="fm-moss-3" class="cls-51" points="349 740 436 798 459 806 543 835 601 853 669 848 702.65 821.42 732 778 796 741 425 717 349 740"/><path id="fm-moss-2" class="cls-51" d="M942,891l35,19,18-4,20-45,28-26s19-59,19-60c0-.48,26-20,26-20l-81,8L830,730l-12,3,95,76Z"/><polygon id="fm-moss-1" class="cls-51" points="112 769 149 806 199 829 232 880 274 898 321 887 331 825 379 771 425 726 143 726 112 769"/></g><g id="moss-static"><polygon class="cls-52" points="-50 665.76 364.78 687.36 909.77 705.06 1438.67 720.47 1419.56 736.73 1378.28 742.21 1288.7 763.01 1229.75 751.67 1087.86 756.93 998.54 774.65 823.2 736.73 734.23 756.93 583.28 756.93 417.52 729.48 318.7 756.93 202.86 732.14 134.28 770.07 36.19 763.01 -130.11 768.53 -98.11 678.65 -50 665.76"/><polygon class="cls-19" points="-39 697.94 -40 740 12 724.23 95 724.23 149 709.11 17 694 -39 697.94"/><polygon class="cls-19" points="1194 725 1218 724 1266 728 1309 725 1324 731 1239 737 1213 728 1194 725"/><path class="cls-19" d="M567.67,713S634,710,636,710s59,5,59,5l-76,9Z"/></g><g id="ants"><path id="fm-ants" class="cls-53" d="M1972.67,969c-259.85-73.07-436.44-17.67-506.34-147-35.86-66.36-354.29-85.31-456.39-85-73.8.2-236.6-16.27-294.48-11-122.73,11.17-164.83-4.77-216.24-20.41-82.07-25-198.31-20.07-226.85-19.22C161.68,689.7,248.49,754.78-100.48,753"/></g><g id="fallen-tree-front"><polygon class="cls-19" points="266.22 690.85 372.19 613.75 488.44 542.24 555 566.15 295.65 713 266.22 690.85"/><polygon class="cls-44" points="527.91 556.42 555 566.15 502.35 617.71 440.47 706.27 295.65 713 425.32 614.34 527.91 556.42"/></g><g id="plants-foreground"><path class="cls-54" d="M885.67,999.68c18.44-8.17,39.13,6.9,49.91,29.43-5.72-39.85-32.21-53.59-56.37-40.5,62.1-48.12,56.74,75.8,65.71-25.88,6.2-36.84-.09,35.6,1.56,47.12,7.67-21.79,28.21-40.09,43.25-30.17-16.84-.79-32.41,15.57-37,39.81,10.68-15.85,33.23-21.33,43.27-5.3-22.65-15-37.16,13.26-49.54,36.25-1.55,2.89-7.21,3.16-8.61.51-14-26.58-33.46-56.7-57.87-45.65C870.12,1009.58,882.43,1000.27,885.67,999.68Z"/><path class="cls-54" d="M819.8,994.65c-37.75-11.24-80.13,9.48-102.2,40.46,11.7-54.8,66-73.7,115.44-55.7-127.17-66.18-116.2,104.26-134.58-35.59-12.69-50.68.21,49-3.18,64.81-15.72-30-57.78-55.15-88.58-41.5,34.49-1.09,66.39,21.41,75.85,54.76-21.88-21.8-68.06-29.34-88.63-7.29,46.39-20.65,76.1,18.24,101.45,49.86,3.19,4,14.78,4.35,17.64.71,28.71-36.57,68.52-78,118.52-62.8C851.66,1008.26,826.45,995.46,819.8,994.65Z"/><path class="cls-36" d="M106.41,1095.27s-2-79.34-66.07-74.15"/><path class="cls-36" d="M31.39,1054.88s51.1-27.7,77.2,40.39"/><path class="cls-36" d="M196.71,1027.47c-90.59-32.31-88.12,66.26-88.12,66.26"/><path class="cls-36" d="M105.94,1093.73s34.77-73.09,92.92-47"/><path class="cls-36" d="M108.59,1097.07s-.45-80.28-10.26-103.36"/><path class="cls-31" d="M254.51,1065.78s-1.5-59.17-49.27-55.3"/><path class="cls-31" d="M198.57,1035.66s38.11-20.66,57.57,30.12"/><path class="cls-31" d="M321.86,1015.21c-67.56-24.1-65.72,49.42-65.72,49.42"/><path class="cls-31" d="M254.16,1064.63s25.93-54.51,69.3-35.07"/><path class="cls-31" d="M256.14,1067.12s-.34-59.87-7.65-77.08"/><path class="cls-55" d="M858.79,1110.1c-3.17-11.42-6.23-22.44-10-33.09-1.9-5.31-3.84-10.55-5.94-15.73a79,79,0,0,0-7.68-14.84,67.92,67.92,0,0,0-10.94-12.5l-1.57-1.38a15.72,15.72,0,0,0-1.62-1.31l-3.37-2.47a62.25,62.25,0,0,0-7.32-4.09l-1.9-.93c-.64-.3-1.31-.51-2-.77-1.32-.49-2.63-1-4-1.47a72.73,72.73,0,0,0-8.3-2,89.15,89.15,0,0,0-17.25-1.4l-.07-.93,4.39-.44a40.51,40.51,0,0,1,4.41-.33l4.45,0a15,15,0,0,1,2.22.08l2.23.16a69.08,69.08,0,0,1,8.89,1.23c1.47.32,2.92.76,4.38,1.14.73.2,1.47.36,2.18.62l2.13.79a68.11,68.11,0,0,1,8.33,3.73l3.92,2.37a19.21,19.21,0,0,1,1.9,1.29l1.86,1.36a74.92,74.92,0,0,1,13,12.88,106.6,106.6,0,0,1,10,15.33,75.38,75.38,0,0,1,6.51,17,98.2,98.2,0,0,1,2.8,17.82,74.92,74.92,0,0,1-.79,17.94Z"/><path class="cls-55" d="M765.52,1059.32a64.17,64.17,0,0,1,14.55-6.17,66.91,66.91,0,0,1,15.78-2.68,59,59,0,0,1,31.58,7.29,79.57,79.57,0,0,1,13.57,9.48l3,2.85a18.14,18.14,0,0,1,1.4,1.51l1.34,1.57a56.59,56.59,0,0,1,4.82,6.63c1.48,2.29,2.67,4.73,3.94,7.11s2.18,4.93,3.13,7.44,1.67,5.09,2.34,7.68,1.11,5.23,1.45,7.89l-.88.33c-1.64-2.14-3.06-4.33-4.48-6.5s-2.94-4.27-4.32-6.41-2.93-4.15-4.35-6.22l-2.25-3c-.74-1-1.43-2-2.25-3-1.57-1.92-3-3.91-4.63-5.74-.8-.92-1.51-1.94-2.34-2.83l-2.41-2.74a58,58,0,0,0-10.92-9.66,54.54,54.54,0,0,0-13.18-6.3,55.78,55.78,0,0,0-14.58-2.73,65.58,65.58,0,0,0-15.1.85,68.91,68.91,0,0,0-7.48,1.66,57.24,57.24,0,0,0-7.28,2.48Z"/><path class="cls-55" d="M971.69,1026l-5.1-1.45-5.13-1.3-5.15-1.15c-1.73-.32-3.45-.67-5.18-1a101.84,101.84,0,0,0-20.79-1.35c-13.76.47-27.16,5-37,14a57.12,57.12,0,0,0-12.13,15.67,139.51,139.51,0,0,0-8.25,18.37,196,196,0,0,0-6.05,19.71q-2.5,10.13-4.44,20.66l-.94,0a86.5,86.5,0,0,1-1.12-21.68,100.82,100.82,0,0,1,3.66-21.62,73.64,73.64,0,0,1,9.23-20.28,72.22,72.22,0,0,1,15.24-16.6,59.12,59.12,0,0,1,19.92-10.3,68.46,68.46,0,0,1,10.9-2.16,84.13,84.13,0,0,1,11-.42,106.14,106.14,0,0,1,21.39,3.21c1.74.43,3.46.94,5.18,1.41l5.12,1.6,5,1.82,5,2Z"/><path class="cls-55" d="M858.26,1108a79.47,79.47,0,0,1,6.8-17.22,106.28,106.28,0,0,1,10-15.64,82.14,82.14,0,0,1,13-13.44A118.41,118.41,0,0,1,903.51,1051a86.43,86.43,0,0,1,17.21-7.61,67.53,67.53,0,0,1,18.52-3l2.34,0h1.16l1.17.09,4.64.36c1.54.2,3.06.5,4.59.74.76.14,1.52.24,2.27.41l2.24.6c6,1.38,11.61,3.92,17.06,6.54l-.38.86-4.27-1.43-2.12-.71c-.7-.25-1.45-.38-2.17-.57l-4.32-1.08c-1.45-.32-2.93-.49-4.39-.74l-2.18-.34c-.73-.1-1.47-.12-2.2-.18-1.47-.1-2.93-.24-4.4-.3l-4.39.08-1.09,0-1.09.12-2.17.23a62.36,62.36,0,0,0-16.79,4.18,79.93,79.93,0,0,0-15.27,8.07,87.29,87.29,0,0,0-13.22,11.22c-4.09,4.1-8.07,8.31-12,12.59-8,8.58-15.4,17.76-23.11,27.24Z"/><path class="cls-55" d="M861.51,1112.33a162.53,162.53,0,0,1-3.12-16.16q-1.17-8.07-1.88-16.14c-.49-5.37-.71-10.76-.69-16.15s.07-10.8-.11-16.19-.41-10.78-.71-16.16-.61-10.75-1.06-16.12-1-10.72-1.76-16c-.17-1.33-.39-2.66-.63-4s-.47-2.64-.75-3.95a65.44,65.44,0,0,0-2-7.78l.86-.36a85.23,85.23,0,0,1,5.43,15.49c1.39,5.29,2.52,10.64,3.52,16s1.84,10.75,2.62,16.15,1.38,10.8,2,16.21,1.29,10.82,1.9,16.23a136.48,136.48,0,0,1,.79,16.29q-.11,8.17-.86,16.33a122.36,122.36,0,0,1-2.55,16.32Z"/></g></g></svg>