<svg xmlns="http://www.w3.org/2000/svg" xmlns:xlink="http://www.w3.org/1999/xlink" viewBox="0 0 1920 1080"><defs><style>.cls-1{fill:#e5dfe1;}.cls-2{fill:#5b6020;}.cls-3{fill:#b0af45;}.cls-4{fill:#787838;}.cls-5{fill:#848040;}.cls-6{fill:#979639;}.cls-7{fill:#867a3e;}.cls-8{fill:#6a783d;}.cls-9{fill:#84802c;}.cls-10{fill:#5c7312;}.cls-11{fill:#4a5e20;}.cls-12{fill:#4a6220;}.cls-13{fill:#4a6020;}.cls-14{fill:url(#linear-gradient);}.cls-15{fill:#80813b;}.cls-16{fill:#4c4c1d;}.cls-17{fill:#342b1a;}.cls-18{fill:#595922;}.cls-19{fill:#696929;}.cls-20,.cls-25,.cls-27,.cls-28,.cls-29,.cls-30,.cls-31,.cls-32,.cls-33,.cls-34,.cls-35,.cls-36,.cls-37,.cls-50,.cls-51{fill:none;}.cls-20,.cls-32{stroke:#556332;}.cls-20,.cls-25,.cls-27,.cls-28,.cls-29,.cls-30,.cls-31,.cls-32,.cls-33,.cls-34,.cls-35,.cls-36,.cls-37,.cls-44,.cls-45,.cls-46,.cls-47,.cls-48,.cls-49,.cls-50,.cls-51{stroke-miterlimit:10;}.cls-20,.cls-31{stroke-width:6.13px;}.cls-21{fill:#9a9a3a;}.cls-22{fill:#7a7a2f;}.cls-23{fill:#939339;}.cls-24{fill:#3c362a;}.cls-25{stroke:#3c362a;stroke-width:20px;}.cls-26{fill:#75752d;}.cls-27,.cls-33{stroke:#697a3e;}.cls-27,.cls-32{stroke-width:4.28px;}.cls-28,.cls-29,.cls-34,.cls-35,.cls-37,.cls-50{stroke:#6b8031;}.cls-28{stroke-width:9.58px;}.cls-29{stroke-width:5.59px;}.cls-30,.cls-36,.cls-51{stroke:#82984d;}.cls-30,.cls-34{stroke-width:7.5px;}.cls-31{stroke:#596935;}.cls-33{stroke-width:5.32px;}.cls-35{stroke-width:18.42px;}.cls-36{stroke-width:15.88px;}.cls-37{stroke-width:7.34px;}.cls-38{fill:#382f1c;}.cls-39{fill:#2e2718;}.cls-40{fill:#332b1b;}.cls-41{fill:#2e2617;}.cls-42{fill:#5e5e22;}.cls-43{fill:#292214;}.cls-44,.cls-45,.cls-46,.cls-47,.cls-48,.cls-49{fill:#875837;stroke:#262113;}.cls-44{stroke-width:2.09px;}.cls-45{stroke-width:2px;}.cls-46{stroke-width:1.82px;}.cls-47{stroke-width:1.88px;}.cls-48{stroke-width:1.82px;}.cls-49{stroke-width:1.8px;}.cls-50{stroke-width:17.4px;}.cls-51{stroke-width:9.35px;}.cls-52{fill:#696926;}</style><linearGradient id="linear-gradient" x1="973" y1="-34" x2="973" y2="868" gradientUnits="userSpaceOnUse"><stop offset="0" stop-opacity="0"/><stop offset="0.6" stop-opacity="0.5"/><stop offset="0.74" stop-color="#1d191a" stop-opacity="0.34"/><stop offset="0.76" stop-color="#1c191a" stop-opacity="0.3"/><stop offset="0.82" stop-color="#111010" stop-opacity="0.19"/><stop offset="1" stop-opacity="0"/></linearGradient></defs><g id="fern-message"><g id="background-2" data-name="background"><rect class="cls-1" x="-47.33" y="-49.83" width="2020" height="560"/><rect class="cls-2" x="-47.33" y="484.17" width="2020" height="651"/><ellipse class="cls-3" cx="469.9" cy="119.17" rx="282.85" ry="101"/><rect class="cls-4" x="-47.33" y="400.17" width="2020" height="94"/><ellipse class="cls-5" cx="1680.46" cy="153" rx="282.85" ry="101"/><ellipse class="cls-6" cx="1429.49" cy="257.67" rx="163.83" ry="54.5"/><ellipse class="cls-6" cx="160.78" cy="230.39" rx="163.83" ry="54.5"/><ellipse class="cls-7" cx="6.13" cy="425.96" rx="75.11" ry="63.19"/><ellipse class="cls-5" cx="39.52" cy="390.64" rx="108.85" ry="98.47"/><ellipse class="cls-8" cx="153.86" cy="413.48" rx="58.76" ry="58.19"/><ellipse class="cls-9" cx="197.48" cy="362.43" rx="72.67" ry="63.26"/><ellipse class="cls-7" cx="233.35" cy="434.21" rx="72.67" ry="63.26"/><ellipse class="cls-5" cx="309.27" cy="383.4" rx="73.4" ry="109.24"/><ellipse class="cls-10" cx="375.5" cy="417.01" rx="58.76" ry="58.19"/><ellipse class="cls-9" cx="419.12" cy="365.96" rx="72.67" ry="63.26"/><ellipse class="cls-7" cx="454.99" cy="437.74" rx="72.67" ry="63.26"/><ellipse class="cls-7" cx="518.9" cy="410.25" rx="78.32" ry="50.67"/><ellipse class="cls-5" cx="560.95" cy="362.02" rx="106.28" ry="98.86"/><ellipse class="cls-8" cx="672.95" cy="400.24" rx="61.28" ry="46.66"/><ellipse class="cls-9" cx="718.44" cy="359.31" rx="75.78" ry="50.72"/><ellipse class="cls-7" cx="755.85" cy="416.86" rx="75.78" ry="50.72"/><ellipse class="cls-5" cx="1531.41" cy="360.56" rx="69.94" ry="70.15"/><ellipse class="cls-10" cx="1612.07" cy="300.08" rx="61.28" ry="46.66"/><ellipse class="cls-9" cx="1819.57" cy="325.14" rx="75.78" ry="50.72"/><ellipse class="cls-7" cx="1882.59" cy="377.21" rx="101.41" ry="56.21"/><ellipse class="cls-7" cx="1883.45" cy="241.38" rx="75.11" ry="63.19"/><ellipse class="cls-5" cx="1715.18" cy="333.84" rx="91.51" ry="100.68"/><ellipse class="cls-8" cx="1359.18" cy="391.9" rx="58.76" ry="58.19"/><ellipse class="cls-9" cx="1402.81" cy="340.84" rx="72.67" ry="63.26"/><ellipse class="cls-7" cx="1438.68" cy="412.62" rx="72.67" ry="63.26"/><ellipse class="cls-11" cx="642.71" cy="996.24" rx="696.71" ry="19.02" transform="translate(-36.07 24.22) rotate(-2.1)"/><ellipse class="cls-12" cx="699.79" cy="560.07" rx="474.88" ry="26.9"/><ellipse class="cls-13" cx="1235.67" cy="657.07" rx="172" ry="14.1"/></g><g id="shade-2" data-name="shade"><rect class="cls-14" x="-54" y="-34" width="2054" height="902"/></g><g id="plants-background-2" data-name="plants-background"><ellipse class="cls-15" cx="1678.5" cy="171" rx="94.5" ry="42"/><ellipse class="cls-16" cx="1645.5" cy="398" rx="94.5" ry="42"/><path class="cls-17" d="M1594.47,535.74c1.09-6.41,2-12.81,2.75-19.22s1.45-12.82,2.06-19.23c1.2-12.82,2.1-25.64,2.79-38.45s1.08-25.64,1.36-38.46l.71-38.45,1.27-76.91.93-76.91c.38-25.63.46-51.27.67-76.91l.24-38.45.09-38.46c.11-51.27,0-102.54-.76-153.81h31.51c-.75,51.27-.87,102.54-.77,153.81l.09,38.46.25,38.45c.21,25.64.29,51.28.66,76.91l.94,76.91,1.26,76.91.71,38.45c.29,12.82.71,25.64,1.37,38.46s1.59,25.63,2.78,38.45c.61,6.41,1.27,12.82,2.07,19.23s1.66,12.81,2.75,19.22Z"/><ellipse class="cls-18" cx="1480.5" cy="294" rx="94.5" ry="42"/><ellipse class="cls-15" cx="1410.54" cy="192.22" rx="94.5" ry="42"/><ellipse class="cls-15" cx="522.78" cy="203.72" rx="94.5" ry="42"/><ellipse class="cls-19" cx="498.78" cy="395.72" rx="94.5" ry="42"/><path class="cls-20" d="M396.7,558.13s-1.65-64.85-54-60.61"/><path class="cls-20" d="M335.39,525.12s41.77-22.64,63.1,33"/><path class="cls-20" d="M470.52,502.71c-74-26.41-72,54.17-72,54.17"/><path class="cls-20" d="M396.32,556.88s28.42-59.75,76-38.45"/><path class="cls-20" d="M398.49,559.6s-.37-65.61-8.39-84.48"/><ellipse class="cls-15" cx="13.78" cy="178.72" rx="94.5" ry="42"/><ellipse class="cls-21" cx="79.28" cy="252.72" rx="90" ry="40"/><ellipse class="cls-22" cx="218.28" cy="299.72" rx="81" ry="36"/><ellipse class="cls-23" cx="364.78" cy="208.28" rx="77.5" ry="34.44"/><ellipse class="cls-15" cx="387.3" cy="125.07" rx="64.63" ry="28.73"/><ellipse class="cls-15" cx="447.49" cy="35.48" rx="64.63" ry="28.73"/><ellipse class="cls-15" cx="239.78" cy="186.72" rx="94.5" ry="42"/><path class="cls-24" d="M429.28,576.72c1.17-7.42,2.13-14.85,3-22.28s1.57-14.85,2.23-22.28c1.28-14.85,2.25-29.71,3-44.56s1.17-29.71,1.47-44.56l.76-44.57,1.37-89.12,1-89.13c.4-29.71.49-59.41.71-89.12L443,86.54l.1-44.57c.11-59.41,0-118.83-.82-178.25h33.92c-.81,59.42-.94,118.84-.83,178.25l.1,44.57.26,44.56c.23,29.71.32,59.41.72,89.12l1,89.13,1.37,89.12.76,44.57c.31,14.85.76,29.7,1.48,44.56s1.7,29.71,3,44.56c.66,7.43,1.37,14.85,2.22,22.28s1.79,14.86,3,22.28Z"/><path class="cls-24" d="M554.41,503c1.09-6.41,2-12.82,2.76-19.23s1.45-12.82,2.06-19.23c1.2-12.81,2.09-25.63,2.78-38.45s1.08-25.64,1.37-38.45l.71-38.46,1.27-76.91.93-76.9c.37-25.64.45-51.28.66-76.91L567.2,80l.09-38.45c.1-51.27,0-102.54-.77-153.82H598c-.75,51.28-.86,102.55-.76,153.82L597.36,80l.24,38.46c.21,25.63.3,51.27.67,76.91l.93,76.9,1.27,76.91.71,38.46c.28,12.81.7,25.63,1.37,38.45s1.58,25.64,2.78,38.45c.61,6.41,1.27,12.82,2.06,19.23s1.66,12.82,2.76,19.23Z"/><path class="cls-24" d="M241.41,520.11c1.09-6.41,2-12.82,2.76-19.23s1.45-12.82,2.06-19.22c1.2-12.82,2.09-25.64,2.78-38.46s1.08-25.63,1.37-38.45l.71-38.46,1.27-76.9.93-76.91c.37-25.64.45-51.28.66-76.91l.25-38.46.09-38.45c.1-51.27,0-102.54-.77-153.82H285c-.75,51.28-.86,102.55-.76,153.82l.09,38.45.24,38.46c.21,25.63.3,51.27.67,76.91l.93,76.91,1.27,76.9.71,38.46c.28,12.82.7,25.63,1.37,38.45s1.58,25.64,2.78,38.46c.61,6.4,1.27,12.81,2.06,19.22s1.66,12.82,2.76,19.23Z"/><path class="cls-24" d="M321.28,632.72c1.17-7.42,2.13-14.85,3-22.28s1.57-14.85,2.23-22.28c1.28-14.85,2.25-29.71,3-44.56s1.17-29.71,1.47-44.56l.76-44.57,1.37-89.12,1-89.13c.4-29.71.49-59.41.71-89.12l.26-44.56.1-44.57c.11-59.41,0-118.83-.82-178.25h33.92c-.81,59.42-.94,118.84-.83,178.25l.1,44.57.26,44.56c.23,29.71.32,59.41.72,89.12l1,89.13,1.37,89.12.76,44.57c.31,14.85.76,29.7,1.48,44.56s1.7,29.71,3,44.56c.66,7.43,1.37,14.85,2.22,22.28s1.79,14.86,3,22.28Z"/><line class="cls-25" x1="462.28" y1="166.72" x2="562.78" y2="-38.78"/><ellipse class="cls-15" cx="301.78" cy="31.72" rx="94.5" ry="42"/><ellipse class="cls-15" cx="582.78" cy="115.72" rx="94.5" ry="42"/><ellipse class="cls-15" cx="569.03" cy="3.72" rx="80.75" ry="35.89"/><ellipse class="cls-21" cx="193.88" cy="235.66" rx="64.63" ry="28.73"/><ellipse class="cls-21" cx="254.07" cy="111.06" rx="64.63" ry="28.73"/><ellipse class="cls-21" cx="108.36" cy="107.31" rx="94.5" ry="42"/><ellipse class="cls-22" cx="352.88" cy="353.66" rx="64.63" ry="28.73"/><ellipse class="cls-26" cx="413.07" cy="264.06" rx="64.63" ry="28.73"/><ellipse class="cls-19" cx="13.78" cy="353.72" rx="67.5" ry="30"/><ellipse class="cls-15" cx="552.73" cy="293.14" rx="64.63" ry="28.73"/><path class="cls-17" d="M191.84,547.72c3-25.63,4.53-51.27,5.57-76.9.49-12.82.8-25.64,1-38.46l.48-38.45,1-76.91.68-76.91c.27-25.64.34-51.27.49-76.91l.18-38.45.07-38.46c.07-51.27,0-102.54-.57-153.81h23.11c-.55,51.27-.63,102.54-.56,153.81l.07,38.46.17,38.45c.16,25.64.22,51.27.49,76.91l.69,76.91,1,76.91.49,38.45c.21,12.82.51,25.64,1,38.46,1,25.63,2.53,51.27,5.57,76.9Z"/><ellipse class="cls-18" cx="228.78" cy="409.72" rx="94.5" ry="42"/><path class="cls-24" d="M7.34,511.48c.55-6.41,1-12.82,1.37-19.23l.56-9.61L9.74,473c.33-6.41.55-12.82.78-19.23s.43-12.82.59-19.23c.76-25.63.8-51.27,1.05-76.91l.66-76.9.46-76.91.34-76.91L13.78,50c.07-25.63,0-51.27-.08-76.91l-.08-38.45-.22-38.45H29.16l-.22,38.45-.09,38.45c0,25.64-.15,51.28-.08,76.91l.17,76.91.33,76.91.47,76.91.66,76.9c.25,25.64.29,51.28,1,76.91.16,6.41.33,12.82.59,19.23s.46,12.82.79,19.23l.46,9.61.56,9.61c.39,6.41.83,12.82,1.37,19.23Z"/><ellipse class="cls-21" cx="30.73" cy="32.14" rx="64.63" ry="28.73"/><path class="cls-27" d="M25.91,543.7s-1.15-45.34-37.55-42.38"/><path class="cls-27" d="M-16.72,520.61s29-15.82,43.87,23.09"/><path class="cls-27" d="M77.24,505c-51.49-18.47-50.09,37.87-50.09,37.87"/><path class="cls-27" d="M25.65,542.82s19.76-41.77,52.81-26.88"/><path class="cls-27" d="M27.15,544.72s-.25-45.87-5.83-59.06"/><path class="cls-24" d="M29.33,637.72a204.72,204.72,0,0,0,8.77-22.28q3.7-11.15,6.54-22.28a425.22,425.22,0,0,0,8.82-44.56c4.43-29.71,4.93-59.42,6.63-89.13q2.23-44.57,4-89.12c1.06-29.71,2.26-59.42,3-89.13Q69.76,192.11,70.31,103c0-14.85.13-29.71,0-44.56l-.09-22.28L70,13.85C69.83-1,69.6-15.86,69.23-30.71s-.78-29.71-1.45-44.57h100c-.68,14.86-1.1,29.71-1.46,44.57s-.59,29.7-.79,44.56l-.22,22.28-.1,22.28c-.09,14.85,0,29.71,0,44.56q.41,89.13,3.18,178.25c.79,29.71,2,59.42,3,89.13q1.83,44.56,4,89.12c1.69,29.71,2.2,59.42,6.63,89.13a422.67,422.67,0,0,0,8.82,44.56q2.85,11.15,6.53,22.28a206.78,206.78,0,0,0,8.77,22.28Z"/><path class="cls-28" d="M157.06,660.4s-2.58-101.31-84.36-94.68"/><path class="cls-28" d="M61.28,608.82s65.25-35.36,98.57,51.58"/><path class="cls-28" d="M272.37,573.83c-115.68-41.26-112.52,84.61-112.52,84.61"/><path class="cls-28" d="M156.46,658.44s44.4-93.33,118.65-60.05"/><path class="cls-28" d="M159.85,662.69s-.58-102.49-13.1-132"/><path class="cls-29" d="M492.33,599.11s-1.51-59.18-49.28-55.3"/><path class="cls-29" d="M436.38,569s38.11-20.66,57.57,30.13"/><path class="cls-29" d="M559.68,548.54C492.11,524.44,494,598,494,598"/><path class="cls-29" d="M492,598s25.93-54.51,69.3-35.08"/><path class="cls-29" d="M494,600.44s-.33-59.86-7.65-77.08"/><path class="cls-30" d="M69.23,691.24s-2-79.35-66.08-74.15"/><path class="cls-30" d="M-5.79,650.84s51.1-27.69,77.19,40.4"/><path class="cls-30" d="M159.53,623.43C68.94,591.12,71.4,689.7,71.4,689.7"/><path class="cls-30" d="M68.76,689.7s34.77-73.09,92.92-47"/><path class="cls-30" d="M71.4,693S71,612.76,61.15,589.68"/><path class="cls-31" d="M1852.7,566.47s-1.65-64.86-54-60.61"/><path class="cls-31" d="M1791.39,533.45s41.77-22.64,63.1,33"/><path class="cls-31" d="M1926.52,511.05c-74-26.42-72,54.16-72,54.16"/><path class="cls-31" d="M1852.32,565.21s28.42-59.74,76-38.44"/><path class="cls-31" d="M1854.49,567.94s-.37-65.62-8.39-84.49"/><ellipse class="cls-15" cx="650.78" cy="190.06" rx="94.5" ry="42"/><ellipse class="cls-18" cx="1674.28" cy="308.06" rx="81" ry="36"/><ellipse class="cls-23" cx="1820.78" cy="272.61" rx="77.5" ry="34.44"/><ellipse class="cls-15" cx="1873.3" cy="154.41" rx="64.63" ry="28.73"/><ellipse class="cls-15" cx="1903.49" cy="43.81" rx="64.63" ry="28.73"/><path class="cls-24" d="M1875.28,585.06c1.6-7.43,2.82-14.86,4-22.28s2.09-14.86,3-22.28c1.72-14.86,3-29.71,4-44.57.44-7.42.89-14.85,1.18-22.28s.58-14.85.78-22.28l1-44.56c.72-29.71,1.22-59.42,1.82-89.13s1-59.41,1.38-89.12q1.19-89.13,1.39-178.25c.15-59.42,0-118.83-1.1-178.25h45.23c-1.08,59.42-1.24,118.83-1.1,178.25s.61,118.83,1.39,178.25c.36,29.71.9,59.42,1.39,89.12s1.1,59.42,1.82,89.13l1,44.56c.2,7.43.4,14.86.77,22.28s.75,14.86,1.19,22.28c1,14.86,2.27,29.71,4,44.57.88,7.42,1.83,14.85,3,22.28s2.36,14.85,4,22.28Z"/><path class="cls-24" d="M1697.41,528.44c1.09-6.4,2-12.81,2.76-19.22s1.45-12.82,2.06-19.23c1.2-12.82,2.09-25.64,2.78-38.45s1.08-25.64,1.37-38.46l.71-38.45,1.27-76.91.93-76.91c.37-25.63.45-51.27.66-76.91l.25-38.45.09-38.45c.1-51.28,0-102.55-.77-153.82H1741c-.75,51.27-.86,102.54-.76,153.82l.09,38.45.24,38.45c.21,25.64.3,51.28.67,76.91l.93,76.91,1.27,76.91.71,38.45c.28,12.82.7,25.64,1.37,38.46s1.58,25.63,2.78,38.45c.61,6.41,1.27,12.82,2.06,19.23s1.66,12.82,2.76,19.22Z"/><path class="cls-24" d="M1777.28,641.06c1.17-7.43,2.13-14.86,3-22.28s1.57-14.86,2.23-22.28c1.28-14.86,2.25-29.71,3-44.57s1.17-29.7,1.47-44.56l.76-44.56,1.37-89.13,1-89.12c.4-29.71.49-59.42.71-89.13l.26-44.56.1-44.56c.11-59.42,0-118.83-.82-178.25h33.92c-.81,59.42-.94,118.83-.83,178.25l.1,44.56.26,44.56c.23,29.71.32,59.42.72,89.13l1,89.12,1.37,89.13.76,44.56c.31,14.86.76,29.71,1.48,44.56s1.7,29.71,3,44.57c.66,7.42,1.37,14.85,2.22,22.28s1.79,14.85,3,22.28Z"/><line class="cls-25" x1="1918.28" y1="175.06" x2="2018.78" y2="-30.44"/><ellipse class="cls-15" cx="1757.78" cy="40.06" rx="94.5" ry="42"/><ellipse class="cls-21" cx="1635.88" cy="245.99" rx="64.63" ry="28.73"/><ellipse class="cls-21" cx="1710.07" cy="119.39" rx="64.63" ry="28.73"/><ellipse class="cls-26" cx="1808.88" cy="361.99" rx="64.63" ry="28.73"/><ellipse class="cls-26" cx="1869.07" cy="272.39" rx="64.63" ry="28.73"/><ellipse class="cls-22" cx="650.78" cy="365.06" rx="67.5" ry="30"/><path class="cls-24" d="M1365.84,541.06c3-25.64,4.53-51.27,5.58-76.91.48-12.82.79-25.64,1-38.45l.48-38.46,1-76.91.68-76.9c.27-25.64.34-51.28.49-76.91l.18-38.46.07-38.45c.07-51.27,0-102.54-.57-153.82h23.11c-.55,51.28-.63,102.55-.56,153.82l.07,38.45.17,38.46c.16,25.63.22,51.27.49,76.91l.69,76.9,1,76.91.49,38.46c.21,12.81.51,25.63,1,38.45,1,25.64,2.53,51.27,5.57,76.91Z"/><path class="cls-24" d="M644.34,522.82c.55-6.41,1-12.82,1.37-19.23l.56-9.62.47-9.61c.33-6.41.55-12.82.78-19.23s.43-12.81.59-19.22c.76-25.64.8-51.27,1-76.91l.66-76.91.46-76.91.34-76.91.16-76.9c.07-25.64,0-51.28-.08-76.91L650.62-54l-.22-38.45h15.76L665.94-54l-.09,38.46c0,25.63-.15,51.27-.08,76.91l.17,76.9.33,76.91.47,76.91L667.4,369c.25,25.64.29,51.27,1,76.91.16,6.41.33,12.82.59,19.22s.46,12.82.79,19.23l.46,9.61.56,9.62c.39,6.41.83,12.82,1.37,19.23Z"/><ellipse class="cls-21" cx="667.73" cy="43.47" rx="64.63" ry="28.73"/><path class="cls-32" d="M662.91,555s-1.15-45.34-37.55-42.37"/><path class="cls-32" d="M620.28,532s29-15.83,43.87,23.08"/><path class="cls-32" d="M714.24,516.29c-51.49-18.47-50.09,37.86-50.09,37.86"/><path class="cls-32" d="M662.65,554.15s19.76-41.77,52.81-26.87"/><path class="cls-32" d="M664.15,556.06s-.25-45.87-5.83-59.07"/><path class="cls-33" d="M1597.49,628.63s-1.43-56.22-46.81-52.54"/><path class="cls-33" d="M1544.34,600s36.21-19.62,54.7,28.62"/><path class="cls-33" d="M1661.48,580.59c-64.19-22.9-62.44,46.95-62.44,46.95"/><path class="cls-33" d="M1597.16,627.54s24.64-51.79,65.84-33.32"/><path class="cls-33" d="M1599,629.9s-.32-56.87-7.27-73.23"/><path class="cls-29" d="M1948.33,607.44s-1.51-59.17-49.28-55.3"/><path class="cls-29" d="M1892.38,577.32s38.11-20.66,57.57,30.12"/><path class="cls-34" d="M382.23,670.57s-2-79.34-66.08-74.15"/><path class="cls-34" d="M307.21,630.18s51.1-27.7,77.19,40.39"/><path class="cls-34" d="M472.53,602.77C381.94,570.46,384.4,669,384.4,669"/><path class="cls-34" d="M381.76,669s34.77-73.09,92.92-47"/><path class="cls-34" d="M384.4,672.37S384,592.09,374.15,569"/><ellipse class="cls-15" cx="1865.78" cy="97.72" rx="94.5" ry="42"/><path class="cls-35" d="M588.41,705.59s-3.14-123.33-102.7-115.26"/><path class="cls-35" d="M471.8,642.8s79.44-43,120,62.79"/><path class="cls-35" d="M728.79,600.2c-140.82-50.23-137,103-137,103"/><path class="cls-35" d="M587.69,703.2s54-113.62,144.44-73.1"/><path class="cls-35" d="M591.8,708.39s-.69-124.79-15.94-160.67"/><path class="cls-36" d="M1738.92,674.33s-3.07-120.64-100.46-112.75"/><path class="cls-36" d="M1624.86,612.91s77.7-42.12,117.38,61.42"/><path class="cls-36" d="M1876.23,571.23c-137.75-49.13-134,100.76-134,100.76"/><path class="cls-36" d="M1738.21,672s52.87-111.14,141.29-71.51"/><path class="cls-36" d="M1742.24,677.06s-.69-122.06-15.6-157.15"/><ellipse class="cls-15" cx="1712.5" cy="257" rx="94.5" ry="42"/><ellipse class="cls-19" cx="1697.5" cy="437" rx="94.5" ry="42"/><path class="cls-20" d="M1542.47,549.63s-1.65-64.86-54-60.61"/><path class="cls-20" d="M1481.15,516.61s41.77-22.64,63.1,33"/><path class="cls-20" d="M1616.29,494.21c-74.06-26.42-72,54.16-72,54.16"/><path class="cls-20" d="M1542.08,548.37s28.43-59.74,76-38.44"/><path class="cls-20" d="M1544.25,551.1s-.37-65.62-8.39-84.49"/><ellipse class="cls-23" cx="1535.54" cy="213.77" rx="77.5" ry="34.44"/><ellipse class="cls-15" cx="1558.06" cy="130.57" rx="64.63" ry="28.73"/><ellipse class="cls-15" cx="1618.25" cy="40.97" rx="64.63" ry="28.73"/><path class="cls-24" d="M1412.17,525.6c1.1-6.4,2-12.81,2.76-19.22s1.45-12.82,2.06-19.23c1.2-12.82,2.1-25.64,2.78-38.45s1.09-25.64,1.37-38.46l.71-38.45,1.27-76.91.93-76.91c.37-25.63.46-51.27.67-76.91l.24-38.45.09-38.45c.1-51.28,0-102.55-.76-153.82h31.51c-.75,51.27-.87,102.54-.77,153.82l.09,38.45.24,38.45c.22,25.64.3,51.28.67,76.91l.93,76.91,1.27,76.91.71,38.45c.29,12.82.7,25.64,1.37,38.46s1.58,25.63,2.78,38.45c.61,6.41,1.27,12.82,2.06,19.23s1.67,12.82,2.76,19.22Z"/><path class="cls-24" d="M1492,638.22c1.18-7.43,2.13-14.86,3-22.28s1.56-14.86,2.22-22.28c1.29-14.86,2.25-29.71,3-44.57s1.17-29.71,1.48-44.56l.76-44.56,1.37-89.13,1-89.12c.4-29.71.49-59.42.72-89.13l.26-44.56.1-44.56c.11-59.42,0-118.84-.83-178.25H1539c-.81,59.41-.93,118.83-.82,178.25l.09,44.56.27,44.56c.22,29.71.31,59.42.71,89.13l1,89.12,1.36,89.13.77,44.56c.3,14.85.75,29.71,1.47,44.56s1.71,29.71,3,44.57c.66,7.42,1.37,14.85,2.22,22.28s1.8,14.85,3,22.28Z"/><ellipse class="cls-15" cx="1472.54" cy="37.22" rx="94.5" ry="42"/><ellipse class="cls-21" cx="1368.65" cy="273.15" rx="64.63" ry="28.73"/><ellipse class="cls-21" cx="1424.83" cy="116.55" rx="64.63" ry="28.73"/><ellipse class="cls-22" cx="1523.65" cy="359.15" rx="64.63" ry="28.73"/><ellipse class="cls-26" cx="1583.83" cy="269.55" rx="64.63" ry="28.73"/><path class="cls-17" d="M1326.6,571.22c3.05-25.64,4.54-51.27,5.58-76.91.49-12.82.79-25.64,1-38.45l.49-38.46,1-76.91.69-76.9c.27-25.64.33-51.28.48-76.91l.18-38.46.07-38.45c.07-51.27,0-102.54-.56-153.82h23.1c-.54,51.28-.63,102.55-.56,153.82l.07,38.45.18,38.46c.15,25.63.21,51.27.49,76.91l.68,76.9,1,76.91.48,38.46c.21,12.81.52,25.63,1,38.45,1,25.64,2.54,51.27,5.58,76.91Z"/><path class="cls-37" d="M1389.48,622.43s-2-77.68-64.68-72.59"/><path class="cls-37" d="M1316,582.88s50-27.11,75.58,39.55"/><path class="cls-37" d="M1477.9,556.05c-88.7-31.64-86.28,64.87-86.28,64.87"/><path class="cls-37" d="M1389,620.92s34-71.55,91-46"/><path class="cls-37" d="M1391.62,624.19s-.44-78.59-10-101.19"/></g><g id="tree"><path class="cls-38" d="M535.89,858.39c1.88-3.1,3.62-6.2,5.3-9.31s3.28-6.2,4.92-9.31q4.8-9.3,9.07-18.62c5.77-12.41,11-24.82,15.91-37.24s9.39-24.82,13.6-37.24c2.14-6.2,4.09-12.41,6.1-18.62s3.86-12.41,5.62-18.62l2.68-9.31,2.55-9.31c1.72-6.2,3.28-12.41,4.85-18.62Q611.13,653.57,615,635q7.83-37.23,13-74.48c1.74-12.41,3.25-24.82,4.6-37.24L636.76,486c1.39-12.42,2.62-24.83,3.93-37.24l1.95-18.62,1.83-18.62q7.44-74.49,13.22-149c7.78-99.31,13.51-198.62,16.43-297.92L674.65-54l.43-18.62c.32-12.42.46-24.83.69-37.24.31-24.83.5-49.66.4-74.48s-.43-49.66-1.09-74.48-1.61-49.66-3.3-74.48H1400c-1.69,24.82-2.65,49.65-3.31,74.48s-1,49.65-1.08,74.48.09,49.65.4,74.48c.22,12.41.37,24.82.69,37.24l.42,18.62.54,18.62c2.92,99.3,8.64,198.61,16.43,297.92q5.84,74.47,13.22,149l1.83,18.62,1.94,18.62c1.32,12.41,2.55,24.82,3.93,37.24l4.13,37.23c1.35,12.42,2.86,24.83,4.6,37.24q5.21,37.24,13,74.48,3.93,18.63,8.55,37.24c1.57,6.21,3.13,12.42,4.85,18.62l2.55,9.31,2.68,9.31c1.76,6.21,3.74,12.42,5.62,18.62s4,12.42,6.1,18.62c4.21,12.42,8.69,24.83,13.6,37.24s10.14,24.83,15.91,37.24q4.29,9.32,9.07,18.62c1.64,3.11,3.17,6.21,4.91,9.31s3.43,6.21,5.31,9.31Z"/><path class="cls-39" d="M1352.8,774.77a277.42,277.42,0,0,1-14.87-25.86q-6.77-13.18-12.68-26.71t-10.55-27.52c-3.07-9.35-6-18.74-9.3-28l-9.68-27.86-9.47-27.95c-6.22-18.66-12.47-37.32-18.45-56.08l1.4-.54c8.19,17.91,16.11,35.92,24,53.92L1305,635.2l11.57,27.14c3.84,9,7.94,18,12,27s7.57,18.15,10.7,27.48,6,18.75,8.57,28.29a280,280,0,0,1,6.38,29.14Z"/><path class="cls-39" d="M829,799.34c-1.45-7.52-2.3-15-3-22.44s-1.12-14.86-1.41-22.26c-.53-14.81-.42-29.54.25-44.22.35-7.33.89-14.65,1.69-21.94s1.86-14.55,3.09-21.79c2.49-14.48,5.32-28.93,7.46-43.45l6.64-43.54,7.08-43.49c4.91-29,9.78-58,15.22-86.87l3,.32c-.72,29.41-2,58.77-3.28,88.13l-2.17,44-2.61,44c-.95,14.65-1.2,29.37-1.79,44-.31,7.34-.79,14.66-1.54,22s-1.74,14.56-2.93,21.81c-2.42,14.49-5.39,28.92-9,43.28-1.83,7.18-3.81,14.35-6,21.49S835,792.6,832,799.66Z"/><path class="cls-39" d="M1133,758.55a129.27,129.27,0,0,1-4.52-16q-1.79-8-3-16.11a142.76,142.76,0,0,1-1.45-16.25c-.16-5.45-.27-10.91-.55-16.34l-.83-16.31-.68-16.33c-.39-10.89-.79-21.78-1-32.68l1-.1c1.78,10.76,3.38,21.54,5,32.32l2.32,16.17,2.17,16.19c.72,5.4,1.61,10.78,2.45,16.16a142.93,142.93,0,0,1,1.55,16.25q.32,8.16,0,16.39a129.07,129.07,0,0,1-1.52,16.52Z"/></g><g id="fallen-tree"><path class="cls-40" d="M-47.5,665.5q31.52,3.11,63,5.48c21,1.65,42,3.11,63,4.5q63,4.13,126.07,7.11t126.06,5.1l126.06,4.18L708.88,700,961,707.71q126.06,3.85,252.13,7.24l126.06,3.52,126.06,3.3q252.12,6.56,504.25,11.6V997.63q-252.12,4.75-504.25,11.6l-126.06,3.3-126.06,3.52q-126.08,3.6-252.13,7.24L708.88,1031l-252.13,8.14-126.06,4.18q-63,2.19-126.06,5.1t-126.07,7.11c-21,1.39-42,2.85-63,4.5s-42,3.41-63,5.48Z"/><path class="cls-41" d="M81.51,743.75c2.84-1.31,5.67-2.38,8.5-3.38s5.66-1.89,8.49-2.74c5.66-1.68,11.31-3,17-4.26a278.86,278.86,0,0,1,33.91-4.87c5.65-.46,11.3-.69,16.94-.61s11.29.46,16.93,1c11.29,1.2,22.57,2.79,33.85,3.57L234,733.75,251,735.11l16.93,1.52,16.92,1.62c22.57,2.31,45.14,4.57,67.7,7.5l0,3.5c-22.61,2.6-45.21,4.52-67.8,6.5l-16.95,1.37-17,1.27-16.95,1.11-16.94,1c-11.3.61-22.6,2-33.9,3.07-5.65.5-11.3.8-16.95.79s-11.29-.32-16.93-.86a279.29,279.29,0,0,1-33.84-5.37c-5.63-1.31-11.27-2.75-16.9-4.51-2.82-.89-5.63-1.81-8.45-2.87s-5.63-2.15-8.44-3.5Z"/><path class="cls-39" d="M-78.56,986.75c3.07-1.44,6.16-2.65,9.24-3.78s6.18-2.17,9.28-3.15c6.18-2,12.38-3.57,18.59-5.06a337.57,337.57,0,0,1,37.31-6.5c6.23-.73,12.47-1.23,18.72-1.42s12.52-.08,18.79.22c12.54.66,25.09,1.71,37.62,2l18.79.44,18.79.55,18.8.7,18.81.81c25.08,1.22,50.15,2.39,75.26,4.24l.12,3.5c-24.89,3.68-49.82,6.68-74.74,9.74l-18.69,2.19-18.7,2.07-18.71,1.92L72,997c-12.47,1.15-24.92,3.12-37.38,4.7-6.23.76-12.46,1.34-18.71,1.59s-12.51.23-18.78,0a337.49,337.49,0,0,1-37.69-3.75c-6.29-1-12.59-2.2-18.91-3.68-3.15-.76-6.31-1.55-9.47-2.47s-6.33-1.88-9.51-3.09Z"/><path class="cls-39" d="M679.5,788.5c15.13-2.87,30.25-4.64,45.38-6.07s30.25-2.34,45.37-2.93,30.25-.54,45.38.1,30.25,1.47,45.37,1.9l45.38,1.35,45.37,1.65c30.25,1.23,60.5,2.42,90.75,4v2c-30.25,1.58-60.5,2.77-90.75,4l-45.37,1.65L861,797.5c-15.12.43-30.25,1.22-45.37,1.9s-30.25.7-45.38.1S740,798,724.88,796.57s-30.25-3.2-45.38-6.07Z"/><path class="cls-39" d="M1169.52,788.5a108.56,108.56,0,0,1,20.4-5.57,176.59,176.59,0,0,1,20.33-2.43,110.42,110.42,0,0,1,20.24.6c6.74.81,13.47,1.84,20.21,2.4l20.21,1.85,20.21,2.15c13.47,1.56,26.94,3.09,40.4,5l0,2c-13.54,1.25-27.07,2.11-40.6,3l-20.29,1.15-20.29.85c-6.76.23-13.53.92-20.29,1.4a111.48,111.48,0,0,1-20.26-.4,176.31,176.31,0,0,1-20.17-3.43,107.92,107.92,0,0,1-20.1-6.57Z"/><path class="cls-39" d="M1268,971a138.38,138.38,0,0,1,23.25-6.07A230.77,230.77,0,0,1,1314.5,962a145.55,145.55,0,0,1,23.25.1c7.75.64,15.5,1.5,23.25,1.9l23.25,1.35L1407.5,967c15.5,1.23,31,2.42,46.5,4v2c-15.5,1.58-31,2.77-46.5,4l-23.25,1.65L1361,980c-7.75.4-15.5,1.26-23.25,1.9a145.55,145.55,0,0,1-23.25.1,230.77,230.77,0,0,1-23.25-2.93A138.38,138.38,0,0,1,1268,973Z"/><polygon class="cls-42" points="-50 665.76 364.78 687.36 909.77 705.06 1438.67 720.47 1419.56 736.73 1378.28 742.21 1288.7 763.01 1229.75 751.67 1087.86 756.93 998.54 774.65 823.2 736.73 734.23 756.93 583.28 756.93 417.52 729.48 318.7 756.93 202.86 732.14 134.28 770.07 36.19 763.01 -130.11 768.53 -98.11 678.65 -50 665.76"/><polygon class="cls-17" points="266.22 690.85 372.19 613.75 488.44 542.24 555 566.15 295.65 713 266.22 690.85"/><polygon class="cls-43" points="527.91 556.42 555 566.15 502.35 617.71 440.47 706.27 295.65 713 425.32 614.34 527.91 556.42"/><polygon class="cls-17" points="928 1015 1071 1061 1232.69 1086.86 1307.67 1061.88 997.34 992.43 928 1015"/><polygon class="cls-43" points="1277.15 1072.05 1307.67 1061.88 1205 1033 1152 1009 1085 1011 1154.42 1044.69 1277.15 1072.05"/><polygon class="cls-17" points="1673.19 732.54 1736.68 710.88 1805.81 691.87 1842.9 704.59 1689.15 742.38 1673.19 732.54"/><polygon class="cls-43" points="1827.81 699.41 1842.9 704.59 1810.85 720.18 1768 741 1689.15 742.38 1765 723 1827.81 699.41"/></g><g id="legend"><path class="cls-44" d="M80.24,846.09l-9.45.35-1-25.86c0-.53,0-1.17,0-1.91s0-1.52,0-2.33v-2.43c0-.82,0-1.56,0-2.23-.09.12-.26.31-.5.57l-.79.84-.92.93c-.31.32-.62.61-.91.86l-5,4.32-4.79-5.52,14-12,7.77-.29Z"/><path class="cls-44" d="M80.44,909.31l-2-4.58h-.24A13.92,13.92,0,0,1,73.53,909a15.85,15.85,0,0,1-6.46,1.38,10.49,10.49,0,0,1-7.85-2.53c-1.95-1.8-3-4.44-3.12-7.9q-.2-5.44,3.51-8.17T71,888.54l5.93-.41-.06-1.49c-.12-3.47-2-5.13-5.51-5a24.25,24.25,0,0,0-9.53,2.82l-3.32-6.18a27.86,27.86,0,0,1,13-3.57q6.87-.24,10.65,2.61t4,9L87,909.07Zm-3.33-15.73-3.61.25a11.49,11.49,0,0,0-6,1.69,4.58,4.58,0,0,0-1.84,4.17c.1,2.63,1.65,3.89,4.67,3.78a7.17,7.17,0,0,0,5.11-2.06,6.52,6.52,0,0,0,1.76-5Z"/><path class="cls-44" d="M168.43,839.92l-30,1.1-.24-6.57,10.1-11.73q1.91-2.21,3.46-4.07a33,33,0,0,0,2.65-3.62,16.33,16.33,0,0,0,1.68-3.55,11.29,11.29,0,0,0,.5-3.85,4.53,4.53,0,0,0-1.49-3.46,5.18,5.18,0,0,0-3.7-1.12,9.73,9.73,0,0,0-4.6,1.36,23.86,23.86,0,0,0-4.55,3.57l-5.36-5.9c.88-.87,1.81-1.7,2.78-2.5a19.55,19.55,0,0,1,3.23-2.16,20,20,0,0,1,3.92-1.57,21.17,21.17,0,0,1,4.84-.71,17.48,17.48,0,0,1,5.8.68,12.56,12.56,0,0,1,4.45,2.36,11,11,0,0,1,2.91,3.86,13.46,13.46,0,0,1,1.15,5.19,13.9,13.9,0,0,1-.73,5.06,22.12,22.12,0,0,1-2.34,4.8,41.39,41.39,0,0,1-3.51,4.72q-2,2.36-4.31,4.79l-5.18,5.61,0,.43,18.21-.67Z"/><path class="cls-44" d="M163.4,915.33l-2-4.58h-.24a13.65,13.65,0,0,1-4.7,4.29,15.59,15.59,0,0,1-6.45,1.39,10.49,10.49,0,0,1-7.85-2.53q-2.94-2.71-3.12-7.9-.21-5.44,3.51-8.17T154,894.55l5.92-.4-.05-1.5c-.13-3.46-2-5.13-5.51-5a24.38,24.38,0,0,0-9.54,2.83l-3.32-6.18a27.89,27.89,0,0,1,13-3.57q6.89-.26,10.66,2.61t4,9l.84,22.78Zm-19.26-43.74,20.72-.76.24,6.45-20.72.76Zm15.93,28-3.6.26a11.5,11.5,0,0,0-6,1.69,4.59,4.59,0,0,0-1.83,4.17c.09,2.62,1.65,3.88,4.66,3.77a7.19,7.19,0,0,0,5.12-2.05,6.57,6.57,0,0,0,1.76-5Z"/><path class="cls-45" d="M241.81,784a10.76,10.76,0,0,1-.57,4,9.91,9.91,0,0,1-1.85,3.17,11,11,0,0,1-2.85,2.34A15.5,15.5,0,0,1,233,795v.18q5.21.45,8,2.86a8.79,8.79,0,0,1,2.91,6.65,13.25,13.25,0,0,1-.82,5.23,11,11,0,0,1-2.95,4.26,15,15,0,0,1-5.17,2.93,25.38,25.38,0,0,1-7.45,1.25,34.52,34.52,0,0,1-6.52-.33,26.16,26.16,0,0,1-5.74-1.53l-.28-7.7a21.23,21.23,0,0,0,2.82,1.12,30.19,30.19,0,0,0,3,.79,25.64,25.64,0,0,0,2.91.44,22.37,22.37,0,0,0,2.68.07,15.85,15.85,0,0,0,4.17-.62,6.92,6.92,0,0,0,2.62-1.41,4.73,4.73,0,0,0,1.34-2.09,7.37,7.37,0,0,0,.33-2.61,5.23,5.23,0,0,0-.62-2.36,4.56,4.56,0,0,0-1.83-1.75,9.82,9.82,0,0,0-3.22-1,23.64,23.64,0,0,0-4.84-.24l-3.05.11-.23-6.35,3-.11a17.08,17.08,0,0,0,4.46-.65,7.73,7.73,0,0,0,2.8-1.42,4.59,4.59,0,0,0,1.44-2,6.33,6.33,0,0,0,.35-2.39,4.57,4.57,0,0,0-1.55-3.52,6.56,6.56,0,0,0-4.54-1.12,11.73,11.73,0,0,0-2.61.37,15,15,0,0,0-2.23.79,14.34,14.34,0,0,0-1.87,1c-.56.36-1.07.71-1.53,1.06L213.86,779a20.68,20.68,0,0,1,5.72-3.21,22.34,22.34,0,0,1,3.63-1,26.8,26.8,0,0,1,4.17-.48,22.52,22.52,0,0,1,5.78.48,13.42,13.42,0,0,1,4.51,1.83,9.19,9.19,0,0,1,3,3.08A9.08,9.08,0,0,1,241.81,784Z"/><path class="cls-45" d="M234.12,890.14q-7.91.29-12.51-3.91T216.7,874q-.3-8.24,3.65-12.88t11.21-4.91c4.63-.17,8.27,1,10.95,3.56s4.09,6.13,4.26,10.78l.16,4.33-21.11.77a8.66,8.66,0,0,0,2.47,5.87,8,8,0,0,0,6,1.92,25.26,25.26,0,0,0,5.57-.82,28.31,28.31,0,0,0,5.43-2.17l.25,6.91a21.06,21.06,0,0,1-4.94,1.93A32.4,32.4,0,0,1,234.12,890.14Zm-2.27-27.54a5.67,5.67,0,0,0-4.38,2,8.29,8.29,0,0,0-1.66,5.17l12.53-.46a7.47,7.47,0,0,0-1.91-5A5.87,5.87,0,0,0,231.85,862.6Z"/><path class="cls-45" d="M308.76,814.33l-5.15.19.32,8.87-8.81.32-.33-8.87-17.68.65-.23-6.3,17.17-28.3,8.31-.31,1,26.91,5.15-.19Zm-14.22-6.52-.27-7.26c0-.25,0-.62,0-1.1s0-1,0-1.62V796c0-.64,0-1.26,0-1.85s0-1.1,0-1.54,0-.76,0-.95h-.26c-.32.83-.68,1.71-1.09,2.65a29.51,29.51,0,0,1-1.41,2.81l-6.74,11.09Z"/><path class="cls-45" d="M297.27,896.27q-7.9.29-12.52-3.91t-4.9-12.19q-.3-8.24,3.65-12.88t11.21-4.91q6.93-.25,10.94,3.56t4.27,10.78l.16,4.33-21.11.77a8.61,8.61,0,0,0,2.47,5.87,8,8,0,0,0,6,1.92,25.17,25.17,0,0,0,5.57-.82,28.13,28.13,0,0,0,5.44-2.17l.25,6.91a21.06,21.06,0,0,1-4.94,1.93A32.5,32.5,0,0,1,297.27,896.27Zm-12.94-42.68,19.85-.73.23,6.18-19.85.72ZM295,868.73a5.69,5.69,0,0,0-4.39,2,8.29,8.29,0,0,0-1.65,5.17l12.53-.46a7.43,7.43,0,0,0-1.92-5A5.84,5.84,0,0,0,295,868.73Z"/><path class="cls-45" d="M370.37,790.9a15,15,0,0,1,5.15.66,11.86,11.86,0,0,1,4.22,2.34,11.36,11.36,0,0,1,2.9,4,14.91,14.91,0,0,1,1.2,5.57,17,17,0,0,1-.85,6.29,12.34,12.34,0,0,1-3,4.8,14.34,14.34,0,0,1-5.12,3.14,22.66,22.66,0,0,1-7.12,1.28c-1.07,0-2.14,0-3.2,0a28.94,28.94,0,0,1-3-.31,19.49,19.49,0,0,1-2.78-.62,14.63,14.63,0,0,1-2.4-.93l-.28-7.82a16.66,16.66,0,0,0,2.41,1,25,25,0,0,0,2.83.78c1,.2,2,.36,2.93.48a19.13,19.13,0,0,0,2.79.11,9.41,9.41,0,0,0,5.91-1.84q2-1.69,1.86-5.24a5.88,5.88,0,0,0-2.18-4.75c-1.37-1-3.46-1.53-6.25-1.42a16.13,16.13,0,0,0-1.62.14c-.58.08-1.14.18-1.69.3s-1.08.24-1.59.37a13.22,13.22,0,0,0-1.3.38l-3.67-1.8.81-21.87,22.6-.83.28,7.67-14.75.54-.4,8.43c.62-.16,1.34-.32,2.17-.49A20.28,20.28,0,0,1,370.37,790.9Z"/><path class="cls-45" d="M388.59,889.66l-8.93.33-.7-19.12q-.25-7.08-5.53-6.89c-2.5.09-4.27,1-5.32,2.74s-1.51,4.52-1.37,8.32l.57,15.4-8.93.33-1.67-45.56,8.93-.32.34,9.28c0,.72,0,2.42,0,5.1l-.11,2.64.47,0q2.81-4.9,9.31-5.14,5.76-.22,8.86,2.78t3.32,8.79Z"/><path class="cls-45" d="M421.58,814.23a54.44,54.44,0,0,1,.11-6.13,31.37,31.37,0,0,1,1-5.89,22.26,22.26,0,0,1,2.15-5.28,15.58,15.58,0,0,1,3.59-4.31,17.13,17.13,0,0,1,5.35-3,24.44,24.44,0,0,1,7.38-1.28c.41,0,.86,0,1.35,0s1,0,1.48,0,1,0,1.45.07.9.1,1.27.16l.26,7.23a23,23,0,0,0-2.37-.33,19.09,19.09,0,0,0-2.51-.07,18.06,18.06,0,0,0-6.46,1.22,9.72,9.72,0,0,0-3.94,2.88,10.45,10.45,0,0,0-2,4.29,27.13,27.13,0,0,0-.57,5.48h.35a10.34,10.34,0,0,1,1.34-2,8.31,8.31,0,0,1,1.89-1.65,10.19,10.19,0,0,1,2.47-1.14,12.06,12.06,0,0,1,3.1-.49,13.1,13.1,0,0,1,5,.72,10.07,10.07,0,0,1,3.86,2.5,11.58,11.58,0,0,1,2.51,4.16,18.6,18.6,0,0,1,1,5.74,18.31,18.31,0,0,1-.75,6.27,13,13,0,0,1-2.62,4.77,12.08,12.08,0,0,1-4.29,3.09,15.71,15.71,0,0,1-5.76,1.22,15.29,15.29,0,0,1-5.95-.91,12.71,12.71,0,0,1-4.91-3.26,16.4,16.4,0,0,1-3.41-5.73A26.58,26.58,0,0,1,421.58,814.23Zm15.29,11a5.15,5.15,0,0,0,2.17-.54,4.47,4.47,0,0,0,1.64-1.43,6.78,6.78,0,0,0,1-2.37,12.36,12.36,0,0,0,.27-3.36,8.25,8.25,0,0,0-1.48-4.88,4.59,4.59,0,0,0-4-1.66,5.75,5.75,0,0,0-2.44.62,6.24,6.24,0,0,0-3,3.39,5.82,5.82,0,0,0-.35,2.16,12.61,12.61,0,0,0,.48,3,9,9,0,0,0,1.21,2.62,6.34,6.34,0,0,0,1.91,1.85A4.59,4.59,0,0,0,436.87,825.22Z"/><path class="cls-45" d="M432.67,862.57c-.1-2.9,1.46-4.42,4.7-4.54s4.92,1.28,5,4.19a4.27,4.27,0,0,1-1.09,3.28,5.15,5.15,0,0,1-3.61,1.29Q432.83,867,432.67,862.57Zm10.82,40.86-8.93.32L433.36,871l8.93-.33Z"/><path class="cls-45" d="M511.72,833.32l13.93-35.69-19.67.72-.28-7.61,29.51-1.08.21,5.68L521.17,833Z"/><path class="cls-45" d="M509.9,862.87l19.85-.73.23,6.18-19.85.72Zm15.85,42-8.93.33-1.2-32.73,8.93-.33Z"/><path class="cls-45" d="M596.54,797.21a19.12,19.12,0,0,1,5,.65,12.74,12.74,0,0,1,4.16,1.93,9.55,9.55,0,0,1,2.84,3.22,9.26,9.26,0,0,1,1.06,4.54,9.92,9.92,0,0,1-.59,3.5,10.24,10.24,0,0,1-1.61,2.85,12,12,0,0,1-2.43,2.27,22.71,22.71,0,0,1-3,1.81,36.91,36.91,0,0,1,3.33,2,16.63,16.63,0,0,1,2.88,2.51,11.45,11.45,0,0,1,2,3.12,9.45,9.45,0,0,1,.77,3.87,11,11,0,0,1-1.06,4.83,10.5,10.5,0,0,1-3,3.69,13.71,13.71,0,0,1-4.55,2.35,20,20,0,0,1-5.85.82,21.78,21.78,0,0,1-6.15-.8,13,13,0,0,1-4.54-2.25,9.56,9.56,0,0,1-2.8-3.6,11.8,11.8,0,0,1-.95-4.81,11.07,11.07,0,0,1,2.4-7.12,12.87,12.87,0,0,1,2.61-2.49,20.35,20.35,0,0,1,3.19-1.9,25.54,25.54,0,0,1-2.69-2,12.9,12.9,0,0,1-2.19-2.37A11.37,11.37,0,0,1,584,811a10.74,10.74,0,0,1-.54-3.49,8.92,8.92,0,0,1,1.07-4.46,9.78,9.78,0,0,1,2.88-3.23,12.91,12.91,0,0,1,4.19-1.94A18.88,18.88,0,0,1,596.54,797.21Zm-6.06,32a5.84,5.84,0,0,0,.38,2.16A4.5,4.5,0,0,0,592,833a5,5,0,0,0,1.86,1.1,7.77,7.77,0,0,0,2.58.4,6.4,6.4,0,0,0,4.59-1.46,5,5,0,0,0,1.53-3.82,4.71,4.71,0,0,0-.51-2.21,8.52,8.52,0,0,0-1.32-1.82,12,12,0,0,0-1.83-1.53c-.69-.47-1.37-.92-2-1.35l-.65-.41a17.41,17.41,0,0,0-2.34,1.39,8.93,8.93,0,0,0-1.8,1.64,6.81,6.81,0,0,0-1.16,1.95A6.08,6.08,0,0,0,590.48,829.2Zm6-25.37a5.31,5.31,0,0,0-1.8.3,4,4,0,0,0-1.43.84,4.16,4.16,0,0,0-1,1.38,4.73,4.73,0,0,0-.35,1.85,5.43,5.43,0,0,0,.37,2.12,5.18,5.18,0,0,0,1,1.58,7,7,0,0,0,1.46,1.23c.56.37,1.15.72,1.77,1.07a16.38,16.38,0,0,0,1.73-1,7.43,7.43,0,0,0,1.45-1.28,5.89,5.89,0,0,0,1-1.62,5.25,5.25,0,0,0,.38-2.08,4.56,4.56,0,0,0-.35-1.85,3.92,3.92,0,0,0-1-1.38,4.05,4.05,0,0,0-1.46-.84A5.52,5.52,0,0,0,596.48,803.83Z"/><path class="cls-45" d="M589,894.79l3.9-5,9.17-10H612.1l-13,14.2,13.8,18.55H602.58l-9.44-13.27-3.84,3.07v10.2h-8.93V867h8.93v20.34l-.46,7.44Z"/><path class="cls-45" d="M690.13,826.11a54.71,54.71,0,0,1-.11,6.14,31.1,31.1,0,0,1-1,5.89,22.6,22.6,0,0,1-2.15,5.28,15.3,15.3,0,0,1-3.59,4.31,17.52,17.52,0,0,1-5.35,3,24.84,24.84,0,0,1-7.41,1.28l-1.35,0-1.48,0c-.5,0-1,0-1.45-.06a11.72,11.72,0,0,1-1.24-.15l-.27-7.26a17.8,17.8,0,0,0,2.35.37,21.37,21.37,0,0,0,2.54.07,18.51,18.51,0,0,0,6.46-1.22,9.85,9.85,0,0,0,3.94-2.9,10.59,10.59,0,0,0,2-4.31,27,27,0,0,0,.57-5.45l-.38,0a10.61,10.61,0,0,1-1.33,2,8.26,8.26,0,0,1-1.87,1.65,9.91,9.91,0,0,1-2.48,1.15,11.86,11.86,0,0,1-3.12.49,13.1,13.1,0,0,1-5-.72,10,10,0,0,1-3.86-2.5A11.58,11.58,0,0,1,662,829a18.53,18.53,0,0,1-1-5.73,18.25,18.25,0,0,1,.75-6.27,13.11,13.11,0,0,1,2.62-4.78,12.27,12.27,0,0,1,4.3-3.1,16.52,16.52,0,0,1,11.73-.33,12.62,12.62,0,0,1,4.9,3.27,16.7,16.7,0,0,1,3.4,5.73A26.77,26.77,0,0,1,690.13,826.11Zm-15.29-11a5.18,5.18,0,0,0-2.18.52,4.36,4.36,0,0,0-1.67,1.42,6.85,6.85,0,0,0-1,2.38,12.47,12.47,0,0,0-.27,3.37,8.2,8.2,0,0,0,1.49,4.87,4.63,4.63,0,0,0,4,1.67,5.61,5.61,0,0,0,2.44-.62,6.16,6.16,0,0,0,3-3.39,5.77,5.77,0,0,0,.35-2.15,12.45,12.45,0,0,0-.48-3,9,9,0,0,0-1.21-2.63,6.34,6.34,0,0,0-1.91-1.85A4.5,4.5,0,0,0,674.84,815.15Z"/><path class="cls-45" d="M683.16,914.87h-8.93V895.73a9.62,9.62,0,0,0-1.19-5.31,4.17,4.17,0,0,0-3.73-1.78,5.4,5.4,0,0,0-5,2.52q-1.56,2.52-1.56,8.3v15.41h-8.93V882.11h6.82l1.2,4.19h.5a9.12,9.12,0,0,1,3.81-3.53,12.37,12.37,0,0,1,5.71-1.27q7.36,0,10,4.8h.8a8.8,8.8,0,0,1,3.88-3.54,13,13,0,0,1,5.78-1.26q5.57,0,8.43,2.85t2.85,9.16v21.36h-9V895.73a9.62,9.62,0,0,0-1.19-5.31,4.17,4.17,0,0,0-3.73-1.78,5.58,5.58,0,0,0-4.91,2.35c-1.08,1.56-1.63,4-1.63,7.44Z"/><path class="cls-45" d="M745.93,856.88l-9,.33L736,832.44c0-.5,0-1.11-.05-1.83s0-1.45,0-2.22,0-1.55,0-2.33,0-1.5,0-2.14a6.74,6.74,0,0,1-.48.54l-.76.81-.87.89c-.31.31-.6.58-.88.83l-4.78,4.13-4.59-5.28,13.39-11.49,7.44-.27Z"/><path class="cls-45" d="M785.43,834a48.23,48.23,0,0,1-.47,9.28,20.58,20.58,0,0,1-2.32,7,12.06,12.06,0,0,1-4.41,4.5,14.27,14.27,0,0,1-6.7,1.74,13.36,13.36,0,0,1-6.52-1.26,12.44,12.44,0,0,1-4.73-4.16,21.3,21.3,0,0,1-3-6.81,44,44,0,0,1-1.23-9.22,47.84,47.84,0,0,1,.47-9.31,20.55,20.55,0,0,1,2.3-7,12,12,0,0,1,4.38-4.52,13.92,13.92,0,0,1,6.68-1.75,13.44,13.44,0,0,1,6.5,1.25,12.67,12.67,0,0,1,4.75,4.17,21.1,21.1,0,0,1,3,6.84A43.76,43.76,0,0,1,785.43,834Zm-20.32.75q.27,7.32,1.66,11c.93,2.43,2.43,3.6,4.5,3.53s3.44-1.35,4.24-3.82,1.11-6.17.93-11.09-.76-8.56-1.74-11-2.48-3.62-4.51-3.54a3.8,3.8,0,0,0-2.59,1,6.72,6.72,0,0,0-1.64,2.84,20.09,20.09,0,0,0-.8,4.65A64.17,64.17,0,0,0,765.11,834.75Z"/><path class="cls-45" d="M773.25,927.93l-8.93.33-.7-19.12a9.17,9.17,0,0,0-1.45-5.27,4.57,4.57,0,0,0-4.08-1.62c-2.49.09-4.27,1-5.32,2.7s-1.51,4.49-1.37,8.36l.57,15.4L743,929l-1.2-32.74,6.82-.25L750,900.2l.49,0a9.46,9.46,0,0,1,4-3.74,14.08,14.08,0,0,1,5.92-1.43q5.7-.21,8.78,2.77t3.28,8.8Z"/><path class="cls-46" d="M868.17,852.36l-8.21.43-1.16-22.48c0-.46,0-1-.07-1.66s0-1.32-.05-2l0-2.12c0-.71,0-1.35,0-1.94a6.5,6.5,0,0,1-.42.5l-.69.74-.78.83c-.27.28-.53.53-.78.76l-4.28,3.82-4.24-4.74,12-10.61,6.75-.35Z"/><path class="cls-46" d="M898.14,850.81l-8.21.43-1.17-22.48c0-.46,0-1-.07-1.66s0-1.32-.05-2l0-2.12c0-.71,0-1.35,0-1.94-.09.11-.23.28-.43.5s-.43.47-.68.74l-.78.83c-.27.28-.54.53-.79.76l-4.28,3.82-4.24-4.74,12-10.61,6.75-.35Z"/><path class="cls-46" d="M877.94,917.31l-8.1.42-.9-17.34a8.34,8.34,0,0,0-1.39-4.77,4.16,4.16,0,0,0-3.72-1.41,5.47,5.47,0,0,0-4.8,2.52c-.93,1.57-1.31,4.1-1.13,7.61l.73,14-8.1.42L849,889l6.19-.32,1.28,3.75.46,0a8.44,8.44,0,0,1,3.56-3.44,12.78,12.78,0,0,1,5.35-1.39q5.17-.27,8,2.4c1.88,1.77,2.92,4.42,3.1,8Z"/><path class="cls-46" d="M911,918.27q.09,6.42-3.59,9.78t-11.08,3.48A31.29,31.29,0,0,1,885.21,930l-.09-6.49a29.46,29.46,0,0,0,11.63,2.11q6.24-.11,6.14-6.85v-.59l.19-3.65h-.24a9.42,9.42,0,0,1-8.37,4.52,9.58,9.58,0,0,1-8.34-4q-3-4.08-3.11-11.18-.12-7.3,2.87-11.44a9.88,9.88,0,0,1,8.33-4.21,10,10,0,0,1,8.68,4.23h.21l.61-3.81,6.86-.1Zm-13.76-5.67q3.27,0,4.65-1.94t1.32-6.1l0-1c-.05-3.18-.57-5.45-1.58-6.83a5.42,5.42,0,0,0-4.78-2q-5.72.09-5.58,9.08c.05,3,.55,5.2,1.52,6.66A4.9,4.9,0,0,0,897.27,912.6Z"/><path class="cls-45" d="M969,859.44l-9-.33.9-24.77c0-.51.05-1.12.08-1.83s.08-1.45.14-2.22.12-1.55.17-2.33.11-1.49.16-2.13l-.52.51-.82.75-.94.83a11.85,11.85,0,0,1-.94.75l-5.06,3.78L949,826.84l14.19-10.48,7.43.28Z"/><path class="cls-45" d="M1009.27,860.91l-28.72-1,.23-6.3,10.47-10.49c1.32-1.32,2.51-2.54,3.59-3.65a32.52,32.52,0,0,0,2.79-3.27,15.63,15.63,0,0,0,1.85-3.28,10.48,10.48,0,0,0,.74-3.63,4.33,4.33,0,0,0-1.18-3.42,5,5,0,0,0-3.45-1.33,9.38,9.38,0,0,0-4.49,1,22.86,22.86,0,0,0-4.6,3.09l-4.71-6c.91-.77,1.86-1.51,2.84-2.2a18.79,18.79,0,0,1,7.09-3.06,19.66,19.66,0,0,1,4.67-.34,16.55,16.55,0,0,1,5.49,1,11.93,11.93,0,0,1,4.08,2.57,10.28,10.28,0,0,1,2.51,3.89,12.73,12.73,0,0,1,.74,5,13.4,13.4,0,0,1-1.05,4.78,21.89,21.89,0,0,1-2.56,4.42,39.53,39.53,0,0,1-3.69,4.26c-1.39,1.41-2.88,2.84-4.45,4.28l-5.34,5,0,.41,17.45.63Z"/><path class="cls-45" d="M991.89,897.87q-.28,8-4.67,12.35t-11.91,4.08a16.3,16.3,0,0,1-8.23-2.37,13.61,13.61,0,0,1-5.32-6.13,19.9,19.9,0,0,1-1.61-9.08q.3-8,4.65-12.32t11.93-4a16.42,16.42,0,0,1,8.24,2.35,13.71,13.71,0,0,1,5.32,6.08A19.79,19.79,0,0,1,991.89,897.87Zm-22.63-.82q-.18,4.86,1.33,7.41a5.69,5.69,0,0,0,5.1,2.67,5.61,5.61,0,0,0,5.23-2.28q1.67-2.42,1.84-7.31c.11-3.24-.32-5.69-1.32-7.35s-2.69-2.53-5.09-2.62-4.13.66-5.24,2.23S969.38,893.79,969.26,897.05Z"/><path class="cls-45" d="M1077.56,867.49l-9-.33.9-24.77c0-.51,0-1.12.08-1.83s.08-1.45.14-2.22.12-1.55.17-2.33.11-1.49.16-2.13l-.52.51-.82.74c-.3.28-.62.55-.94.83a10.11,10.11,0,0,1-.94.76l-5.06,3.77-4.19-5.6,14.19-10.48,7.43.27Z"/><path class="cls-45" d="M1117.33,835.66a10.48,10.48,0,0,1-.86,4,10,10,0,0,1-2.07,3,11.32,11.32,0,0,1-3,2.11,15,15,0,0,1-3.7,1.23v.18c3.44.55,6,1.7,7.73,3.43a8.86,8.86,0,0,1,2.42,6.85,13.29,13.29,0,0,1-1.2,5.16,11,11,0,0,1-3.26,4,15,15,0,0,1-5.37,2.54,25.47,25.47,0,0,1-7.51.71,34.36,34.36,0,0,1-6.48-.81,25,25,0,0,1-5.62-2l.28-7.7a20.42,20.42,0,0,0,2.74,1.33,30,30,0,0,0,2.89,1,24,24,0,0,0,2.87.65,22,22,0,0,0,2.67.27,15.89,15.89,0,0,0,4.2-.31,7,7,0,0,0,2.72-1.22,4.76,4.76,0,0,0,1.49-2,7.54,7.54,0,0,0,.52-2.57,5.32,5.32,0,0,0-.45-2.41,4.65,4.65,0,0,0-1.7-1.88,10.08,10.08,0,0,0-3.13-1.27,24.24,24.24,0,0,0-4.82-.58l-3-.12.23-6.35,3,.11a17.19,17.19,0,0,0,4.49-.32,8.08,8.08,0,0,0,2.91-1.21,4.61,4.61,0,0,0,1.58-1.9,6.35,6.35,0,0,0,.52-2.35,4.54,4.54,0,0,0-1.29-3.62,6.55,6.55,0,0,0-4.45-1.46,11.77,11.77,0,0,0-2.63.19,14.08,14.08,0,0,0-2.28.62,13.7,13.7,0,0,0-1.93.86c-.59.32-1.13.64-1.61,1l-4.34-6.2a19.58,19.58,0,0,1,2.74-1.57,21.8,21.8,0,0,1,3.19-1.22,23.82,23.82,0,0,1,3.69-.76,26.05,26.05,0,0,1,4.2-.17,22.63,22.63,0,0,1,5.73.9,13.67,13.67,0,0,1,4.36,2.15,9.21,9.21,0,0,1,2.74,3.3A9,9,0,0,1,1117.33,835.66Z"/><path class="cls-45" d="M1103.64,910.93q-.3,8-4.67,12.35t-11.91,4.08a16.53,16.53,0,0,1-8.24-2.37,13.79,13.79,0,0,1-5.32-6.13,20.05,20.05,0,0,1-1.6-9.09q.3-8,4.64-12.32t11.93-4a16.59,16.59,0,0,1,8.24,2.35,13.73,13.73,0,0,1,5.32,6.09A19.74,19.74,0,0,1,1103.64,910.93Zm-24.85-27,19.85.73-.22,6.17-19.85-.72Zm2.22,26.2q-.18,4.86,1.32,7.41a5.73,5.73,0,0,0,5.11,2.68,5.63,5.63,0,0,0,5.23-2.29q1.65-2.42,1.83-7.3t-1.31-7.35q-1.5-2.49-5.1-2.62a5.71,5.71,0,0,0-5.24,2.23C1081.74,904.43,1081.12,906.85,1081,910.1Z"/><path class="cls-45" d="M1187.92,867.63l-9,.55-1.49-24.74c0-.51-.07-1.12-.1-1.83s-.06-1.45-.08-2.22,0-1.55,0-2.33,0-1.5-.05-2.14l-.47.55-.74.83-.86.91c-.29.31-.58.6-.86.85l-4.67,4.24-4.72-5.17,13.11-11.8,7.43-.45Z"/><path class="cls-45" d="M1228.21,856.3l-5.15.31.54,8.86-8.81.54-.53-8.86-17.66,1.06-.39-6.28,16.49-28.71,8.31-.5,1.63,26.87,5.14-.31Zm-14.38-6.17-.44-7.26c0-.25,0-.61-.05-1.09s0-1,0-1.63,0-1.23,0-1.87,0-1.27,0-1.85v-1.54c0-.44,0-.76,0-1l-.26,0c-.3.84-.64,1.73-1,2.67a27.86,27.86,0,0,1-1.33,2.84l-6.49,11.25Z"/><path class="cls-45" d="M1204.85,939.33a10.86,10.86,0,0,1-9.29-3.64l-.47,0q.72,4.06.75,4.71l.81,13.25-8.92.54-2.85-47.08,7.25-.44,1.51,4.16.41,0a10.33,10.33,0,0,1,9-5.42,10.6,10.6,0,0,1,9.33,3.93q3.56,4.27,4,12.23a24.51,24.51,0,0,1-1,9.18,12.8,12.8,0,0,1-4,6.15A11.25,11.25,0,0,1,1204.85,939.33Zm-4.26-26.6a5.64,5.64,0,0,0-4.7,2.32q-1.4,2.13-1.17,6.81l.06,1c.21,3.5.88,6,2,7.45a5.62,5.62,0,0,0,5.09,2q6-.37,5.4-10.25-.29-4.83-1.91-7.15A5.06,5.06,0,0,0,1200.59,912.73Z"/><path class="cls-45" d="M1290.28,858.76l-9,.54-1.5-24.74c0-.5-.06-1.11-.1-1.82s-.06-1.46-.07-2.23l-.06-2.33c0-.78,0-1.49,0-2.14-.09.12-.25.31-.47.56l-.74.82-.85.92c-.3.31-.59.59-.86.84l-4.68,4.25-4.71-5.18,13.11-11.8,7.42-.45Z"/><path class="cls-45" d="M1315.21,829.84a14.88,14.88,0,0,1,5.17.53,11.8,11.8,0,0,1,4.27,2.24,11.25,11.25,0,0,1,3,3.91,14.7,14.7,0,0,1,1.33,5.54,17,17,0,0,1-.7,6.31,12.22,12.22,0,0,1-2.91,4.87,14.09,14.09,0,0,1-5,3.26,22.72,22.72,0,0,1-7.09,1.45,30.91,30.91,0,0,1-3.19,0,29.24,29.24,0,0,1-3-.24,21.68,21.68,0,0,1-2.8-.55,13.88,13.88,0,0,1-2.41-.88l-.47-7.81a15.6,15.6,0,0,0,2.43,1,23.74,23.74,0,0,0,2.85.71,29.67,29.67,0,0,0,2.94.41,17.55,17.55,0,0,0,2.79,0,9.51,9.51,0,0,0,5.87-2q2-1.75,1.73-5.29a5.88,5.88,0,0,0-2.29-4.69c-1.4-1-3.5-1.44-6.28-1.27q-.77,0-1.62.18c-.57.1-1.13.21-1.68.34s-1.08.26-1.58.4-.93.28-1.3.42l-3.71-1.71.29-21.89,22.58-1.36.46,7.66-14.74.89-.19,8.43c.61-.17,1.33-.35,2.15-.54A20.35,20.35,0,0,1,1315.21,829.84Z"/><path class="cls-45" d="M1309.49,896.3a13.8,13.8,0,0,1,3,.08l-.17,8.4a10.43,10.43,0,0,0-2.65-.13,9.49,9.49,0,0,0-6.52,2.59,8,8,0,0,0-2,6.29l1,16.64-8.92.54-2-32.69,6.75-.41,1.65,5.41.44,0a12.18,12.18,0,0,1,3.84-4.68A10.1,10.1,0,0,1,1309.49,896.3Z"/><path class="cls-47" d="M1401.08,849.47l-8.52.32-.87-23.33c0-.48,0-1.05,0-1.73s0-1.37,0-2.09v-2.2c0-.74,0-1.41,0-2a5.79,5.79,0,0,1-.45.51l-.71.76-.83.84c-.28.29-.56.55-.83.78l-4.49,3.89-4.33-5,12.61-10.83,7-.26Z"/><path class="cls-47" d="M1411.11,832a52.87,52.87,0,0,1,.11-5.77,30.34,30.34,0,0,1,.92-5.55,21.53,21.53,0,0,1,2-5,14.62,14.62,0,0,1,3.38-4.06,16.07,16.07,0,0,1,5-2.81,23.17,23.17,0,0,1,7-1.22c.39,0,.81,0,1.27,0h1.39c.47,0,.93,0,1.37.08a9.34,9.34,0,0,1,1.2.15l.25,6.81a20.47,20.47,0,0,0-4.6-.39,17.34,17.34,0,0,0-6.09,1.16,9.23,9.23,0,0,0-3.71,2.72,9.81,9.81,0,0,0-1.85,4,25.54,25.54,0,0,0-.54,5.16l.33,0a10.74,10.74,0,0,1,1.27-1.91,7.82,7.82,0,0,1,1.78-1.55,9.51,9.51,0,0,1,2.32-1.07,11.22,11.22,0,0,1,2.92-.47,12.46,12.46,0,0,1,4.75.68,9.5,9.5,0,0,1,3.64,2.35,11.32,11.32,0,0,1,2.37,3.92,17.75,17.75,0,0,1,1,5.4,17.26,17.26,0,0,1-.71,5.91,12.28,12.28,0,0,1-2.47,4.5,11.41,11.41,0,0,1-4,2.91,14.87,14.87,0,0,1-5.43,1.15,14.54,14.54,0,0,1-5.61-.85,12.15,12.15,0,0,1-4.63-3.08,15.54,15.54,0,0,1-3.21-5.39A25.82,25.82,0,0,1,1411.11,832Zm14.42,10.35a4.79,4.79,0,0,0,2-.51,4.27,4.27,0,0,0,1.56-1.35,6.43,6.43,0,0,0,1-2.23,11.74,11.74,0,0,0,.26-3.16,7.83,7.83,0,0,0-1.4-4.6,4.32,4.32,0,0,0-3.8-1.56,5.43,5.43,0,0,0-2.3.58,5.89,5.89,0,0,0-2.82,3.2,5.51,5.51,0,0,0-.33,2,12,12,0,0,0,.45,2.78,8.94,8.94,0,0,0,1.14,2.48,6.11,6.11,0,0,0,1.81,1.74A4.31,4.31,0,0,0,1425.53,842.3Z"/><path class="cls-47" d="M1415.36,910.65a18.12,18.12,0,0,0,5.26-1.16l.23,6.26a18.93,18.93,0,0,1-7.67,1.69q-5.06.19-7.44-2.28c-1.6-1.64-2.47-4.16-2.59-7.56l-.55-14.87-4,.15-.13-3.56,4.53-3,2.18-6.6,5.38-.2.24,6.57,8.64-.32.23,6.31-8.63.32.55,14.86a3.26,3.26,0,0,0,1.1,2.61A4,4,0,0,0,1415.36,910.65Z"/><path class="cls-48" d="M1497.89,850.31l-8.22.31-.83-22.49c0-.46,0-1,0-1.66s0-1.33,0-2v-4.06c-.09.11-.23.28-.44.5l-.69.73c-.26.27-.52.54-.8.81a10.79,10.79,0,0,1-.79.75l-4.34,3.76-4.17-4.8,12.15-10.43,6.76-.25Z"/><path class="cls-48" d="M1511.66,849.8l12.64-32.41-17.87.66-.25-6.91,26.79-1,.19,5.15-12.92,34.18Z"/><path class="cls-48" d="M1516,915.06l-1.23-3.76h-.42a8.52,8.52,0,0,1-3.58,3.34,12.59,12.59,0,0,1-5.41,1.34q-5.23.19-8-2.52c-1.84-1.8-2.82-4.46-2.95-8l-.72-19.38,8.1-.3.65,17.35a8.39,8.39,0,0,0,1.32,4.79,4.18,4.18,0,0,0,3.7,1.47,5.46,5.46,0,0,0,4.83-2.45q1.44-2.34,1.24-7.6l-.52-14,8.11-.3,1.1,29.72Z"/><path class="cls-49" d="M1591.54,834.27l-8.15-.21.55-22.33c0-.45,0-1,0-1.64s.06-1.32.1-2,.09-1.39.13-2.1.09-1.34.12-1.92c-.09.1-.25.26-.46.46s-.46.44-.73.68-.55.51-.84.76-.57.49-.84.7l-4.52,3.45-3.84-5,12.68-9.59,6.7.17Z"/><path class="cls-49" d="M1615.63,795.75a17.3,17.3,0,0,1,4.52.69,11.49,11.49,0,0,1,3.71,1.83,8.72,8.72,0,0,1,2.49,3,8.58,8.58,0,0,1,.85,4.11,8.92,8.92,0,0,1-.61,3.15,9.43,9.43,0,0,1-1.51,2.52,11.06,11.06,0,0,1-2.25,2,20.66,20.66,0,0,1-2.78,1.57,30.12,30.12,0,0,1,3,1.9,14.11,14.11,0,0,1,2.54,2.32,10.45,10.45,0,0,1,1.76,2.85,8.62,8.62,0,0,1,.6,3.5,10,10,0,0,1-1.06,4.34,9.69,9.69,0,0,1-2.75,3.26,12.58,12.58,0,0,1-4.16,2,17.74,17.74,0,0,1-5.28.6,19.52,19.52,0,0,1-5.53-.85,11.84,11.84,0,0,1-4-2.13,8.59,8.59,0,0,1-2.44-3.31,10.54,10.54,0,0,1-.75-4.35,10.34,10.34,0,0,1,.67-3.55,10.5,10.5,0,0,1,1.65-2.81,12,12,0,0,1,2.41-2.18,18.94,18.94,0,0,1,2.92-1.65,20.75,20.75,0,0,1-2.39-1.84,11.64,11.64,0,0,1-1.91-2.19,10.12,10.12,0,0,1-1.25-2.63,9.65,9.65,0,0,1-.42-3.15,8.15,8.15,0,0,1,1.07-4,8.73,8.73,0,0,1,2.67-2.84,11.48,11.48,0,0,1,3.82-1.66A16.62,16.62,0,0,1,1615.63,795.75Zm-6.18,28.68a5.32,5.32,0,0,0,.3,2,4.06,4.06,0,0,0,1,1.55,4.78,4.78,0,0,0,1.65,1,7,7,0,0,0,2.31.41,5.84,5.84,0,0,0,4.18-1.2,4.59,4.59,0,0,0,1.46-3.41,4.29,4.29,0,0,0-.42-2,6.82,6.82,0,0,0-1.14-1.66,10.68,10.68,0,0,0-1.62-1.43c-.61-.44-1.21-.86-1.82-1.26l-.57-.38a14.53,14.53,0,0,0-2.14,1.2,8.08,8.08,0,0,0-1.66,1.44,6.25,6.25,0,0,0-1.09,1.72A5.77,5.77,0,0,0,1609.45,824.43Zm6-22.72a5.06,5.06,0,0,0-1.63.22,3.58,3.58,0,0,0-1.31.74,3.47,3.47,0,0,0-.89,1.22,4,4,0,0,0-.36,1.65,5.12,5.12,0,0,0,.28,1.92,4.89,4.89,0,0,0,.86,1.45,6.86,6.86,0,0,0,1.3,1.14c.49.34,1,.67,1.57,1a16.11,16.11,0,0,0,1.58-.89,6.27,6.27,0,0,0,1.33-1.12,5.22,5.22,0,0,0,.95-1.44,4.89,4.89,0,0,0,.39-1.86,4.22,4.22,0,0,0-.27-1.67,3.51,3.51,0,0,0-.85-1.27,3.63,3.63,0,0,0-1.3-.79A5.09,5.09,0,0,0,1615.43,801.71Z"/><path class="cls-49" d="M1606,899.53l-1-3.8h-.42a8.55,8.55,0,0,1-3.75,3.09,12.64,12.64,0,0,1-5.44,1q-5.19-.12-7.77-3c-1.71-1.9-2.52-4.6-2.44-8.08l.48-19.24,8,.2-.43,17.23a8.3,8.3,0,0,0,1,4.82,4.11,4.11,0,0,0,3.57,1.69,5.45,5.45,0,0,0,4.94-2.14c1-1.48,1.61-4,1.69-7.44l.35-13.89,8,.2-.73,29.51Zm-15.47-38.73,17.9.44-.14,5.57-17.9-.44Z"/><path class="cls-49" d="M1684.28,854l-8.16-.2.55-22.33c0-.46,0-1,0-1.65s.06-1.31.11-2,.08-1.4.13-2.1.08-1.34.11-1.93a6.07,6.07,0,0,1-.46.47l-.73.68-.84.76a9.77,9.77,0,0,1-.83.69l-4.52,3.46-3.84-5,12.67-9.59,6.71.16Z"/><path class="cls-49" d="M1720.88,832.74a54,54,0,0,1-.44,5.53,28.1,28.1,0,0,1-1.22,5.23,20.88,20.88,0,0,1-2.22,4.64,13.92,13.92,0,0,1-3.47,3.67,15.56,15.56,0,0,1-5,2.38,22,22,0,0,1-6.74.74l-1.21,0-1.33-.1-1.3-.14a8.62,8.62,0,0,1-1.11-.2l.16-6.55a15.65,15.65,0,0,0,2.09.47,19.12,19.12,0,0,0,2.28.2,16.47,16.47,0,0,0,5.88-.74,8.81,8.81,0,0,0,3.71-2.39,9.49,9.49,0,0,0,2-3.77,24.12,24.12,0,0,0,.82-4.87h-.34a9.49,9.49,0,0,1-1.31,1.73,7.67,7.67,0,0,1-1.78,1.39,9.18,9.18,0,0,1-2.29.89,10.55,10.55,0,0,1-2.83.27,11.87,11.87,0,0,1-4.5-.93,9.11,9.11,0,0,1-3.33-2.46,10.62,10.62,0,0,1-2-3.88,18.5,18.5,0,0,1,.41-10.81,11.75,11.75,0,0,1,2.63-4.15,10.86,10.86,0,0,1,4-2.56,14.22,14.22,0,0,1,5.26-.79,13.9,13.9,0,0,1,5.3,1.15,11.38,11.38,0,0,1,4.23,3.2,15.35,15.35,0,0,1,2.75,5.35A24.16,24.16,0,0,1,1720.88,832.74ZM1707.72,822a4.83,4.83,0,0,0-2,.35,4,4,0,0,0-1.57,1.19,5.89,5.89,0,0,0-1.05,2.08,11.34,11.34,0,0,0-.44,3,7.48,7.48,0,0,0,1.08,4.46,4.15,4.15,0,0,0,3.55,1.72,5.13,5.13,0,0,0,2.23-.42,5.43,5.43,0,0,0,2.88-2.88,4.87,4.87,0,0,0,.43-1.92,10.68,10.68,0,0,0-.26-2.69,8.19,8.19,0,0,0-.94-2.42,5.53,5.53,0,0,0-1.62-1.77A4.05,4.05,0,0,0,1707.72,822Z"/><path class="cls-49" d="M1696.57,919.18l-2-10.38-2.69-13.11h-.23l-6,23.22-8.65-.21L1669.35,889l8,.2,3.08,13.15c.35,1.56.8,4.8,1.37,9.73h.21a53.08,53.08,0,0,1,1.08-6.34l.48-2.23,4-14.06,8.87.22,3.11,14.23c.18,1,.41,2.4.67,4.29a37,37,0,0,1,.41,4.35h.21c.23-1.57.55-3.34,1-5.33s.74-3.43,1-4.32l3.86-13,7.9.2-9.23,29.3Z"/><path class="cls-49" d="M1809.23,843l-25.89-.64.14-5.68,9.32-9.57q1.76-1.8,3.2-3.32a29.83,29.83,0,0,0,2.48-3,14,14,0,0,0,1.63-3,9.77,9.77,0,0,0,.63-3.29,3.87,3.87,0,0,0-1.1-3.06,4.44,4.44,0,0,0-3.12-1.16,8.29,8.29,0,0,0-4,.93,20.82,20.82,0,0,0-4.11,2.83l-4.31-5.36c.81-.7,1.66-1.38,2.54-2a17,17,0,0,1,2.89-1.69,16.93,16.93,0,0,1,7.67-1.5,15.16,15.16,0,0,1,5,.89,10.78,10.78,0,0,1,3.7,2.27,9.4,9.4,0,0,1,2.31,3.48,11.72,11.72,0,0,1,.72,4.53,12.17,12.17,0,0,1-.9,4.32,19,19,0,0,1-2.27,4,35.62,35.62,0,0,1-3.27,3.88q-1.86,1.94-4,3.91l-4.76,4.55v.37l15.73.39Z"/><path class="cls-49" d="M1839.53,824.46a42.25,42.25,0,0,1-.93,8.32,18.53,18.53,0,0,1-2.47,6.17,10.92,10.92,0,0,1-4.22,3.81,12.81,12.81,0,0,1-6.12,1.19,12,12,0,0,1-5.8-1.49,11.19,11.19,0,0,1-4-4,18.88,18.88,0,0,1-2.28-6.29,38.6,38.6,0,0,1-.6-8.36,42.64,42.64,0,0,1,.93-8.34,18.44,18.44,0,0,1,2.46-6.2,10.86,10.86,0,0,1,4.19-3.82,12.5,12.5,0,0,1,6.1-1.21,11.94,11.94,0,0,1,5.78,1.49,11.42,11.42,0,0,1,4,4,18.93,18.93,0,0,1,2.32,6.31A38.6,38.6,0,0,1,1839.53,824.46Zm-18.31-.45a32.39,32.39,0,0,0,.89,10q1,3.35,3.85,3.42t4-3.2q1.29-3.27,1.45-9.92t-1-10c-.75-2.24-2-3.39-3.87-3.43a3.46,3.46,0,0,0-2.38.78,6,6,0,0,0-1.63,2.47,17.52,17.52,0,0,0-1,4.14A56.81,56.81,0,0,0,1821.22,824Z"/><path class="cls-49" d="M1799.06,907.67l-2-10.38-2.68-13.11h-.24l-6,23.22-8.66-.21-7.66-29.72,8,.2,3.08,13.15q.52,2.34,1.37,9.73h.21a57.22,57.22,0,0,1,1.08-6.34l.48-2.23,4-14.06,8.87.22,3.11,14.23c.19,1,.41,2.4.67,4.29a34.94,34.94,0,0,1,.41,4.35h.21c.24-1.57.55-3.34,1-5.33s.74-3.43,1-4.32l3.86-13,7.89.2-9.23,29.3Z"/><path class="cls-49" d="M1848.31,908.89l-8-.2.43-17.24c.1-4.26-1.43-6.42-4.6-6.5a5.41,5.41,0,0,0-4.94,2.17q-1.56,2.26-1.69,7.41l-.34,13.88-8-.2,1-41.07,8.05.2-.21,8.37q0,1-.3,4.59l-.24,2.37h.42q2.81-4.26,8.66-4.12c3.47.09,6.07,1.09,7.82,3s2.58,4.61,2.5,8.1Z"/></g><g id="plants-foreground-2" data-name="plants-foreground"><path class="cls-50" d="M703.68,1075.18s-3-116.55-97-108.92"/><path class="cls-50" d="M593.5,1015.84s75-40.68,113.38,59.34"/><path class="cls-50" d="M836.33,975.58c-133.07-47.46-129.45,97.33-129.45,97.33"/><path class="cls-50" d="M703,1072.91s51.08-107.35,136.49-69.07"/><path class="cls-50" d="M706.88,1077.81S706.23,959.9,691.82,926"/><path class="cls-34" d="M945.14,1052.08s-2-79.34-66.07-74.15"/><path class="cls-34" d="M870.12,1011.69s51.1-27.7,77.2,40.39"/><path class="cls-34" d="M1035.44,984.28c-90.59-32.32-88.12,66.26-88.12,66.26"/><path class="cls-34" d="M944.67,1050.54s34.77-73.09,92.92-47"/><path class="cls-34" d="M947.32,1053.87s-.45-80.27-10.26-103.35"/><path class="cls-34" d="M106.41,1095.27s-2-79.34-66.07-74.15"/><path class="cls-34" d="M31.39,1054.88s51.1-27.7,77.2,40.39"/><path class="cls-34" d="M196.71,1027.47c-90.59-32.31-88.12,66.26-88.12,66.26"/><path class="cls-34" d="M105.94,1093.73s34.77-73.09,92.92-47"/><path class="cls-34" d="M108.59,1097.07s-.45-80.28-10.26-103.36"/><path class="cls-29" d="M254.51,1065.78s-1.5-59.17-49.27-55.3"/><path class="cls-29" d="M198.57,1035.66s38.11-20.66,57.57,30.12"/><path class="cls-29" d="M321.86,1015.21c-67.56-24.1-65.72,49.42-65.72,49.42"/><path class="cls-29" d="M254.16,1064.63s25.93-54.51,69.3-35.07"/><path class="cls-29" d="M256.14,1067.12s-.34-59.87-7.65-77.08"/><path class="cls-51" d="M859.26,1110.09s-2.52-98.92-82.36-92.44"/><path class="cls-51" d="M765.74,1059.73s63.71-34.53,96.24,50.36"/><path class="cls-51" d="M971.84,1025.56C858.9,985.28,862,1108.17,862,1108.17"/><path class="cls-51" d="M858.68,1108.17s43.34-91.12,115.84-58.63"/><path class="cls-51" d="M862,1112.32s-.56-100.07-12.79-128.84"/></g><g id="moss"><path id="moss-2" class="cls-52" d="M956,905l22,15,45-30,19.5-28.5L1035,820s27-44,27-45c0-.48,26-20,26-20l-81,8-70-2L823,737l90,72Z"/><polygon id="moss-1" class="cls-52" points="112 769 137 809 186.83 842.22 205 885 225 894 265 852.67 287.58 814.5 326.58 774.5 365 744 289 747 209 729 173 748 112 769"/></g></g></svg>