<svg xmlns="http://www.w3.org/2000/svg" viewBox="0 0 500 500"><defs><style>.cls-1{fill:#fff;}.cls-2{opacity:0.5;}.cls-3{opacity:0.7;}</style></defs><g id="welcome-icons"><g id="landscape-icon"><path class="cls-1" d="M365.32,28.61H155.68a12.47,12.47,0,0,0-12.47,12.48V458.56A12.47,12.47,0,0,0,155.68,471H365.32a12.47,12.47,0,0,0,12.47-12.47V41.09A12.47,12.47,0,0,0,365.32,28.61ZM243.89,39.38A3.35,3.35,0,0,1,247.24,36h26.52a3.35,3.35,0,0,1,3.35,3.35v.06a3.35,3.35,0,0,1-3.35,3.35H247.24a3.35,3.35,0,0,1-3.35-3.35ZM260.5,458.84a12.12,12.12,0,1,1,12.12-12.12A12.12,12.12,0,0,1,260.5,458.84Zm103.86-47.72a11.78,11.78,0,0,1-11.78,11.78H168.42a11.78,11.78,0,0,1-11.78-11.78V61.3a11.78,11.78,0,0,1,11.78-11.78H352.58A11.78,11.78,0,0,1,364.36,61.3Z"/></g></g></svg>