<svg xmlns="http://www.w3.org/2000/svg" viewBox="0 0 178.64 263.01"><defs><style>.cls-1{fill:#cfdee3;}.cls-2{fill:#6f5637;}</style></defs><g id="leaves-individual"><g id="leaf-1-back"><path class="cls-1" d="M89.88,229.86c-20.5-2.81-72.23,19.26-73.76,15.79s30.8-23.25,70.55-31.1Z"/><path class="cls-1" d="M95.54,245.85C67.18,247.57,28.23,260.4,26,257.4s25.17-20,63.21-25.71Z"/><path class="cls-1" d="M82.83,198.05c-11.67-1.79-71.13,15.07-73.44,9.25-2.41-6.05,57.22-22,70.09-22.73Z"/><path class="cls-1" d="M86.13,213.5c-12.06-1.79-70,15.72-71.78,12.64-2.14-3.67,54.57-25.94,67.77-26.78Z"/><path class="cls-1" d="M77.89,169.88C67.68,164.29,7,173,6.1,170c-2.09-7,58.23-14.61,69.25-12.58Z"/><path class="cls-1" d="M79.71,182.86c-10.36-2.69-73,13.07-73.88,7s60.41-20,72.09-19.43Z"/><path class="cls-1" d="M74.33,144.21c-17-8.59-54.91-6.22-54.87-11.47,0-4.21,37.71-5.42,55.13.19Z"/><path class="cls-1" d="M76.23,157.2c-9.21-3.65-63.63-6-63.89-8.88-.55-6.23,52.75-4.83,63.34-3Z"/><path class="cls-1" d="M74,131.46C60.59,121.2,26.53,121.05,27.46,116c.74-4,40.08-.61,46.85,2.86Z"/><path class="cls-1" d="M74.64,103.73c-7.24-2.27-38.43-18.45-37.46-21.38C38.63,78,65.71,92.3,74,92.66Z"/><path class="cls-1" d="M74.32,116.93c-7.31-3-44-15.09-43.24-19.14.49-2.66,35.38,6.6,43.81,7.6Z"/><path class="cls-1" d="M75.77,90.76c-5.89-2-31.61-16-30.31-23.12,1.12-6.08,22.9,13.67,29.6,14.18Z"/><path class="cls-1" d="M78.32,49.79C77.18,47,65,31.15,67.85,28c1.39-1.52,10.93,8.46,12.65,11.26Z"/><path class="cls-1" d="M82.75,25.84c-.68-1.24-6.6-8.82-5.31-10,.25-.23,5.76,3.63,6.71,4.84Z"/><path class="cls-1" d="M81,38.38c-.81-1.66-8.88-15.55-7.9-17.36.76-1.4,8.85,4.94,10,6.57Z"/><path class="cls-1" d="M75.32,80C71.27,76.32,50.67,58,52,55.25,53.6,51.9,72.84,69.94,75.89,69.5Z"/><path class="cls-1" d="M77.06,58.56C72.78,56.21,62.38,41.92,63.93,36.9,65.14,33,73.27,49,78.54,49.92Z"/><path class="cls-1" d="M76.77,68.33c-4.21-2.88-21.4-18.75-18.95-23.27,2-3.62,11.56,10.43,19.12,14.82Z"/><path class="cls-1" d="M85.61,21.3c.72-2.18,1.88-8.59.71-9.46s-4.21,6.84-4.94,9Z"/><path class="cls-1" d="M90.85,230.56c17.52-18.64,76.85-13.15,76.81-16.95s-48.28-10.08-80.22,1.69Z"/><path class="cls-1" d="M96.56,245.71C121,228.16,173,232.8,172.82,229.05s-52.77-12.22-80.53,1.75Z"/><path class="cls-1" d="M84,198.1c10.3-5.75,72-11,72.17-17.29.15-6.51-62.77.58-75.07,4.43Z"/><path class="cls-1" d="M87.49,214.11c10.25-6.61,72.33-12.24,73.39-16.89.94-4.14-63.21-2.34-75.58,2.36Z"/><path class="cls-1" d="M78,171.05c8.93-5.27,65.27-13.5,65.27-16.59,0-7.28-55.81.43-66.42,3.95Z"/><path class="cls-1" d="M81,183.85c9.15-5.56,70.27-9.74,69.39-15.85s-60.25-.5-71.27,3.39Z"/><path class="cls-1" d="M75.85,144.2c8.9-3.55,51.78-18.7,52.07-23.94.14-2.65-41.58,10.86-51.89,12.67Z"/><path class="cls-1" d="M77,157.46c8.94-4.26,58.6-16.69,58.66-19.59.14-6.26-48.46,5.17-58.91,7.66Z"/><path class="cls-1" d="M79.22,49.26C81.26,47,96,35.41,94.35,31.48c-.78-1.9-10.95,5.12-13.53,7.15Z"/><path class="cls-1" d="M83.35,25.25c1.07-.93,9.24-6,8.44-7.55-.15-.3-6.66,1.42-8,2.22Z"/><path class="cls-1" d="M80.67,37.63c1.34-1.28,12.8-12.26,12.51-14.3-.23-1.57-9.1,2.31-10.76,3.44Z"/><path class="cls-1" d="M74.7,131.11c7.48-3.67,47.1-17.25,46.36-22.34-.58-4.08-37.56,8.07-46.23,9.73Z"/><path class="cls-1" d="M75.08,103.37c7.32-2,39-14.4,38.54-17.45-.89-6.2-29.18,6.38-37.48,6.41Z"/><path class="cls-1" d="M74.89,116.58c7.42-2.67,43-15.67,42.38-19.75-.39-2.67-34,7.52-42.51,8.2Z"/><path class="cls-1" d="M74.46,90.37c6-1.79,33-10.85,32-18-.88-6.11-24.25,8.83-31,9.08Z"/><path class="cls-1" d="M74.82,79.86c5.06-2,26.55-14,26.11-17.08-.71-4.93-19.32,6.79-25,7.1Z"/><path class="cls-1" d="M77.37,57.92c4.83-.73,18-12,18.3-17.27.22-4.11-11.42,9.57-16.7,8.65Z"/><path class="cls-1" d="M76.15,68.37C81.09,67.11,99,56.81,98.3,51.72c-.59-4.08-12.66,6-21.27,7.48Z"/><path class="cls-2" d="M85.44,18C83,27.91,81.31,38,79.87,48.11s-2.44,20.28-3.15,30.47S75.66,99,75.66,109.17s.35,20.41,1,30.59,1.78,20.31,3.14,30.41c.77,5,1.47,10.09,2.42,15.09s1.91,10,2.94,15a388.73,388.73,0,0,0,17.61,58.39l-4.66,1.8a393.12,393.12,0,0,1-17-59.33c-1-5.05-2-10.1-2.78-15.18s-1.53-10.17-2.24-15.27c-1.23-10.21-2.22-20.44-2.77-30.71s-.75-20.54-.62-30.81.65-20.53,1.48-30.77,2-20.44,3.56-30.58,3.42-20.24,6-30.23Z"/></g></g></svg>