<svg xmlns="http://www.w3.org/2000/svg" viewBox="0 0 178.16 262.75"><defs><style>.cls-1{fill:#cfdee3;}.cls-2{fill:#3a2b26;}</style></defs><g id="leaves-individual"><g id="leaf-2-back-no-dots"><polygon class="cls-1" points="80.53 235.12 0 152.67 80.46 209.9 4.76 116.26 79.79 185.44 11.47 84.39 83.29 156.92 14.81 49.66 86.47 125.16 33.79 27.19 92.01 97.82 50.24 7.71 99.09 69.09 65.42 0 105.87 45.21 87.7 4.38 111.69 28.98 140.28 32.74 106.78 45.05 171.96 56.78 100.98 69.02 171.21 85.02 94.01 97.79 165.92 115.21 88.46 124.87 170.87 136.71 86.55 157.91 175.81 158.21 82.69 186.41 178.16 186.19 83.09 209.86 176.89 208.22 90.51 242.11 80.53 235.12"/><path class="cls-2" d="M113.37,31.29c-5.7,18.55-10.55,37.47-14.8,56.43Q95.38,102,92.79,116.3c-1.71,9.56-3.28,19.13-4.5,28.74a374.9,374.9,0,0,0-3.5,57.65A199,199,0,0,0,87.52,231a100,100,0,0,0,8,26.28l-11.89,5.5a112.18,112.18,0,0,1-8.05-29.87A210.22,210.22,0,0,1,73.8,202.8a385.84,385.84,0,0,1,5.7-59.07c1.6-9.72,3.53-19.36,5.61-29S89.5,95.62,92,86.13c5-19,10.52-37.76,17-56.34Z"/></g></g></svg>