<svg xmlns="http://www.w3.org/2000/svg" viewBox="0 0 178.64 263.01"><defs><style>.cls-1{fill:#cfdee3;}.cls-2{fill:#3a2b26;}</style></defs><g id="leaves-individual"><g id="leaf-1-back-no-dots"><polygon class="cls-1" points="82.26 28.59 4 65.1 81.62 53.77 7.93 101.56 80.4 78.18 13.91 133.54 83.26 106.73 16.47 168.28 85.72 138.51 34.91 191.15 90.64 165.94 50.9 210.96 97.06 194.78 66.3 223.93 103.29 218.78 86.3 238.93 108.74 235.11 130.36 223 104.2 218.96 162.54 199.71 98.94 194.89 162.42 171.5 92.63 166.01 157.82 141.23 87.7 138.85 163.24 119.88 86.53 105.82 168.66 98.52 83.32 77.27 171.64 70.64 84.25 53.87 170.87 48.62 92.38 21.83 82.26 28.59"/><path class="cls-2" d="M106.61,236c-5.08-18.61-9.39-37.34-13.2-56.22s-7-37.89-9.3-57.08S80.36,84.16,80.8,64.6a208.27,208.27,0,0,1,2.63-29.44C85.14,25.34,87.72,15.44,92.5,6l11.24,6C99.55,19.57,96.83,28.34,95,37.33a196.43,196.43,0,0,0-3.46,27.72c-1.1,18.78-.35,37.82,1.22,56.78s4.1,37.92,7.18,56.78,6.75,37.67,11.11,56.24Z"/></g></g></svg>