<svg xmlns="http://www.w3.org/2000/svg" viewBox="0 0 182.47 262.77"><defs><style>.cls-1{fill:#cfdee3;}.cls-2{fill:#6f5637;}.cls-3{opacity:0.5;}.cls-4{opacity:0.7;}</style></defs><g id="leaves-individual"><g id="leaf-1-back"><path class="cls-1" d="M85.74,221.45C68,215.52,10.4,238,9.17,234.51s35.5-23.43,74.59-28.12Z"/><path class="cls-1" d="M90.05,237.36c-27.6-.42-77.71,18.19-79.67,15.11s37.3-26.56,74.56-29.29Z"/><path class="cls-1" d="M81.25,190.13c-11.17-2.6-74,12.55-75.79,6.75-1.89-6,61-20.33,73.53-20Z"/><path class="cls-1" d="M83.31,205.33c-11.56-2.61-72.9,13.27-74.42,10.16-1.8-3.71,58.72-24.3,71.57-24.15Z"/><path class="cls-1" d="M78.53,162.48c-9.48-6.17-68.9-2.2-69.54-5.13-1.52-6.91,57.46-9.88,68-7.1Z"/><path class="cls-1" d="M79.34,175.19c-9.84-3.37-71.63,7.3-72.07,1.32s60-14.92,71.25-13.53Z"/><path class="cls-1" d="M77,137.35c-15.84-9.57-54-10.31-52.3-15.13,2-5.76,36.92-2.49,53.38,4.23Z"/><path class="cls-1" d="M77.84,150.08c-8.64-4.22-61.18-10.48-61.22-13.29-.08-6.08,51.45-.81,61.57,1.7Z"/><path class="cls-1" d="M77.53,125c-7.11-7.84-45.31-15.55-44-20.38,1-3.87,37.11,5.64,45.3,8.2Z"/><path class="cls-1" d="M80.23,98.17c-6.85-2.73-35.87-20.69-34.71-23.46,1.72-4.12,26.9,11.73,34.91,12.69Z"/><path class="cls-1" d="M79,110.93c-6.86-3.39-41.49-17.84-40.48-21.71.67-2.54,33.79,9,41.88,10.58Z"/><path class="cls-1" d="M82.27,85.69C76.72,83.3,52.84,67.84,54.62,61.07,56.15,55.27,75.79,76,82.24,77Z"/><path class="cls-1" d="M87.75,46.2c-.89-2.81-11.55-19-8.54-21.87,1.46-1.37,10,9,11.43,11.84Z"/><path class="cls-1" d="M93.8,23.32c-.57-1.25-5.74-9-4.41-10.08.26-.2,5.31,4,6.14,5.18Z"/><path class="cls-1" d="M91.17,35.34c-.66-1.67-7.46-15.71-6.38-17.4C85.63,16.64,93,23.37,94,25Z"/><path class="cls-1" d="M82.63,75.22C79,71.37,60.37,52.16,61.86,49.56,63.66,46.43,81,65.31,84,65.11Z"/><path class="cls-1" d="M85.89,54.6c-4-2.59-13-17.2-11.13-22C76.22,28.93,82.92,45,88,46.33Z"/><path class="cls-1" d="M84.89,64C81,60.94,65.54,44.31,68.24,40.11c2.17-3.37,10.43,11,17.43,15.75Z"/><path class="cls-1" d="M96.9,19.13c.86-2.06,2.45-8.18,1.39-9.11s-4.59,6.32-5.45,8.38Z"/><path class="cls-1" d="M86.63,222.2c10.32-6.86,81.66-13.78,81.9-17.46s-71.63-2.45-84.09,2.43Z"/><path class="cls-1" d="M91.05,237.3c10.57-7.23,84.08-20.13,84.15-23.77s-74.27,3.65-87.2,9Z"/><path class="cls-1" d="M82.37,190.26c10.41-4.81,75-2.81,75.57-8.86.62-6.29-65.23-6.63-77.43-3.81Z"/><path class="cls-1" d="M84.58,206c10.42-5.66,78.54-9.58,79.15-13,.73-4.06-67.88-4.89-80.2-1.25Z"/><path class="cls-1" d="M78.52,163.62c9-4.45,64.21-8.29,64.43-11.28.53-7.05-54.08-3.68-64.62-1.05Z"/><path class="cls-1" d="M80.5,176.24c9.27-4.72,68.78-4.28,68.38-10.27s-58.32-4.9-69.29-1.94Z"/><path class="cls-1" d="M78.43,137.46c8.88-2.79,51.53-14.31,52.19-19.37.34-2.56-41.07,7.47-51.19,8.46Z"/><path class="cls-1" d="M78.57,150.38c9-3.46,58-11.87,58.25-14.66.6-6.06-47.32,1.45-57.62,3.09Z"/><path class="cls-1" d="M88.67,45.75c2.13-2,17.22-12.19,16-16.11-.61-1.9-11,4.15-13.63,5.93Z"/><path class="cls-1" d="M94.43,22.79c1.1-.81,9.39-5.12,8.72-6.69-.12-.3-6.55.89-7.87,1.57Z"/><path class="cls-1" d="M90.92,34.59c1.39-1.14,13.3-10.94,13.16-12.93-.1-1.55-9,1.57-10.67,2.54Z"/><path class="cls-1" d="M78.28,124.69c7.52-3,46.88-13.25,46.55-18.24-.27-4-37,5.07-45.5,6Z"/><path class="cls-1" d="M80.68,97.85c7.24-1.38,38.81-11.08,38.61-14.07-.41-6.07-28.73,4-36.77,3.46Z"/><path class="cls-1" d="M79.53,110.63c7.38-2,42.76-12,42.5-16C121.85,92,88.5,99.4,80.26,99.43Z"/><path class="cls-1" d="M81,85.22c5.91-1.3,32.8-8.09,32.33-15.08-.4-6-24.14,6.78-30.65,6.52Z"/><path class="cls-1" d="M82.15,75.06c5.06-1.6,26.75-11.63,26.55-14.63-.33-4.83-19.21,5.16-24.72,5.05Z"/><path class="cls-1" d="M86.24,54c4.72-.35,18.32-10.33,19-15.38.52-4-11.76,8.43-16.81,7.14Z"/><path class="cls-1" d="M84.29,64c4.88-.86,23-9.52,22.67-14.5-.27-4-12.7,4.86-21.14,5.68Z"/><path class="cls-2" d="M97,16c-3.07,9.38-5.47,19.05-7.6,28.72S85.56,64.15,84.13,74s-2.52,19.68-3.27,29.56-1.15,19.79-1.25,29.69.24,19.81.82,29.69c.37,4.94.68,9.88,1.24,14.79s1.11,9.84,1.75,14.74A377.88,377.88,0,0,0,96.2,250.27l-4.79,1.44A382.45,382.45,0,0,1,79.26,193c-.58-5-1.19-9.93-1.57-14.91s-.74-10-1-14.95c-.44-10-.65-20-.42-30s.78-20,1.66-29.89S80,83.43,81.58,73.58,85,53.93,87.27,44.21s4.81-19.35,8-28.83Z"/></g></g></svg>