<svg xmlns="http://www.w3.org/2000/svg" viewBox="0 0 182.47 262.77"><defs><style>.cls-1{fill:#27701b;}.cls-2{fill:#6f5637;}</style></defs><g id="leaves-individual"><g id="leaf-1-back"><path class="cls-1" d="M95.26,220.86c17.72-5.94,75.35,16.54,76.57,13.06s-35.5-23.44-74.58-28.12Z"/><path class="cls-1" d="M91,236.76c27.6-.41,77.71,18.2,79.67,15.12s-37.3-26.56-74.56-29.29Z"/><path class="cls-1" d="M99.76,189.53c11.17-2.59,74,12.56,75.78,6.76,1.89-6-61-20.33-73.53-20.06Z"/><path class="cls-1" d="M97.69,204.74c11.56-2.61,72.91,13.27,74.42,10.16,1.81-3.71-58.72-24.31-71.57-24.15Z"/><path class="cls-1" d="M102.48,161.89c9.47-6.17,68.9-2.21,69.54-5.13,1.51-6.91-57.47-9.88-68-7.1Z"/><path class="cls-1" d="M101.66,174.59c9.84-3.36,71.63,7.31,72.07,1.33s-60-14.93-71.25-13.53Z"/><path class="cls-1" d="M104,136.76c15.85-9.57,54-10.32,52.3-15.13-2-5.76-36.91-2.49-53.38,4.23Z"/><path class="cls-1" d="M103.16,149.48c8.64-4.21,61.18-10.47,61.22-13.28.08-6.08-51.45-.81-61.57,1.7Z"/><path class="cls-1" d="M103.47,124.38c7.11-7.84,45.31-15.55,44-20.39-1-3.86-37.12,5.65-45.31,8.21Z"/><path class="cls-1" d="M100.77,97.58c6.85-2.73,35.87-20.69,34.72-23.46-1.73-4.13-26.91,11.73-34.91,12.69Z"/><path class="cls-1" d="M102.05,110.34c6.86-3.39,41.49-17.85,40.48-21.72-.67-2.54-33.79,9-41.88,10.59Z"/><path class="cls-1" d="M98.73,85.1c5.55-2.39,29.43-17.85,27.65-24.62-1.52-5.81-21.17,14.92-27.62,15.9Z"/><path class="cls-1" d="M93.25,45.61c.89-2.81,11.55-19,8.54-21.87-1.45-1.37-10,9-11.42,11.83Z"/><path class="cls-1" d="M87.2,22.73c.57-1.25,5.75-9,4.41-10.08-.26-.2-5.31,4-6.14,5.18Z"/><path class="cls-1" d="M89.83,34.75c.67-1.67,7.46-15.72,6.38-17.4-.84-1.3-8.2,5.43-9.22,7.1Z"/><path class="cls-1" d="M98.37,74.63C102,70.78,120.63,51.57,119.14,49,117.34,45.84,100,64.72,97,64.51Z"/><path class="cls-1" d="M95.11,54c4-2.6,13-17.2,11.14-21.95C104.78,28.34,98.08,44.43,93,45.74Z"/><path class="cls-1" d="M96.11,63.45c3.86-3.11,19.35-19.73,16.65-23.94-2.16-3.36-10.43,11-17.43,15.76Z"/><path class="cls-1" d="M84.1,18.54c-.86-2.06-2.45-8.18-1.39-9.11s4.59,6.32,5.45,8.38Z"/><path class="cls-1" d="M94.37,221.61c-10.32-6.86-81.66-13.78-81.9-17.46s71.64-2.45,84.09,2.43Z"/><path class="cls-1" d="M90,236.71C79.38,229.48,5.87,216.58,5.8,212.93s74.28,3.66,87.2,9Z"/><path class="cls-1" d="M98.63,189.67c-10.4-4.82-75-2.81-75.56-8.86-.62-6.3,65.23-6.63,77.43-3.81Z"/><path class="cls-1" d="M96.42,205.44c-10.41-5.66-78.54-9.59-79.15-13-.73-4.05,67.88-4.88,80.21-1.24Z"/><path class="cls-1" d="M102.48,163c-9-4.45-64.21-8.29-64.43-11.28-.53-7.05,54.08-3.68,64.62-1.06Z"/><path class="cls-1" d="M100.5,175.64c-9.27-4.71-68.78-4.27-68.38-10.26s58.32-4.9,69.29-1.94Z"/><path class="cls-1" d="M102.57,136.87C93.69,134.08,51,122.56,50.38,117.5,50,114.94,91.45,125,101.57,126Z"/><path class="cls-1" d="M102.44,149.79c-9-3.46-58-11.87-58.26-14.67-.59-6.05,47.32,1.45,57.62,3.1Z"/><path class="cls-1" d="M92.33,45.15c-2.13-2-17.22-12.18-16-16.1C77,27.14,87.36,33.2,90,35Z"/><path class="cls-1" d="M86.58,22.2c-1.11-.82-9.39-5.13-8.73-6.69.13-.3,6.55.89,7.88,1.56Z"/><path class="cls-1" d="M90.08,34c-1.39-1.15-13.3-10.94-13.16-12.94.1-1.54,9,1.58,10.67,2.55Z"/><path class="cls-1" d="M102.72,124.1c-7.52-3-46.88-13.25-46.55-18.24.27-4,37,5.06,45.5,6Z"/><path class="cls-1" d="M100.32,97.26c-7.24-1.39-38.81-11.08-38.61-14.08.41-6.07,28.73,4,36.77,3.47Z"/><path class="cls-1" d="M101.47,110C94.09,108,58.71,98,59,94c.17-2.62,33.52,4.79,41.77,4.82Z"/><path class="cls-1" d="M100,84.63c-5.9-1.3-32.8-8.09-32.33-15.08.4-6,24.14,6.77,30.65,6.52Z"/><path class="cls-1" d="M98.85,74.47C93.79,72.87,72.1,62.84,72.3,59.84,72.63,55,91.52,65,97,64.89Z"/><path class="cls-1" d="M94.77,53.41C90,53.06,76.44,43.08,75.78,38c-.52-4,11.76,8.43,16.8,7.14Z"/><path class="cls-1" d="M96.71,63.44c-4.87-.86-23-9.52-22.67-14.51.27-4,12.7,4.87,21.15,5.69Z"/><path class="cls-2" d="M85.68,14.79c3.24,9.48,5.76,19.12,8,28.83S97.86,63.13,99.43,73s2.8,19.76,3.69,29.7,1.42,19.91,1.66,29.89,0,20-.42,30c-.31,5-.55,10-1,14.95s-1,9.94-1.57,14.91a382.7,382.7,0,0,1-12.15,58.73l-4.79-1.44a377,377,0,0,0,12.78-57.84c.64-4.91,1.31-9.81,1.75-14.74s.87-9.85,1.25-14.79c.57-9.88.91-19.78.81-29.69s-.51-19.81-1.25-29.69-1.86-19.74-3.27-29.56S93.71,53.79,91.6,44.1,87.06,24.76,84,15.38Z"/></g></g></svg>