<svg xmlns="http://www.w3.org/2000/svg" viewBox="0 0 178.64 263.01"><defs><style>.cls-1{fill:#27701b;}.cls-2{fill:#6f5637;}.cls-3{opacity:0.5;}.cls-4{opacity:0.7;}</style></defs><g id="leaves-individual"><g id="leaf-1-front"><g id="leaf-1-back"><path class="cls-1" d="M95.23,222.56c17.28-7.11,76.29,11.44,77.28,7.89s-37-21-76.31-23Z"/><path class="cls-1" d="M92,238.71c27.51-2.26,78.76,12.94,80.51,9.74s-39-24-76.36-24.22Z"/><path class="cls-1" d="M97.62,191c11-3.34,74.64,7.56,76.06,1.65,1.48-6.15-62.23-16.19-74.71-15.07Z"/><path class="cls-1" d="M96.58,206.31c11.35-3.38,73.63,8.34,74.93,5.14,1.55-3.82-60.22-20.31-73-19.29Z"/><path class="cls-1" d="M98.47,163.24c9-6.79,68.6-6.83,69-9.79,1.05-7-58-6-68.31-2.52Z"/><path class="cls-1" d="M98.51,176c9.6-4,72,2.48,72-3.52s-60.85-10.86-72-8.72Z"/><path class="cls-1" d="M98.34,138.06c15.17-10.61,53.16-13.92,51.17-18.61-2.38-5.61-37,0-53,7.8Z"/><path class="cls-1" d="M98.32,150.81c8.34-4.78,60.34-14.56,60.19-17.36-.33-6.08-51.38,2.64-61.32,5.83Z"/><path class="cls-1" d="M97,125.74c6.56-8.29,44.15-18.56,42.56-23.29-1.27-3.8-36.65,8.12-44.65,11.23Z"/><path class="cls-1" d="M92.45,99.18c35.69-22.7,51.61-38.9-.92-10.73Z"/><path class="cls-1" d="M94.58,111.83c44.9-23.6,56.41-33.79-2.14-11Z"/><path class="cls-1" d="M89.58,86.87c5.37-2.75,28.16-19.79,25.93-26.42C113.6,54.76,95.39,76.76,89,78.17Z"/><path class="cls-1" d="M81.46,47.83c.7-2.85,10.24-19.77,7.05-22.38C87,24.18,79.18,35.09,77.9,38Z"/><path class="cls-1" d="M73.88,25.41c2.77-5.6,8.52-17-2-4.77Z"/><path class="cls-1" d="M77.32,37.23c.55-1.71,6.38-16.18,5.19-17.78-.92-1.25-7.82,6-8.72,7.69Z"/><path class="cls-1" d="M88.51,76.45c17.75-21.3,32.91-42.73-2-10Z"/><path class="cls-1" d="M83.88,56.09c3.78-2.85,11.81-18,9.63-22.64C91.8,29.83,86.2,46.34,81.26,48Z"/><path class="cls-1" d="M85.51,65.45c3.64-3.36,18-21,15-25-2.38-3.22-9.67,11.63-16.33,16.89Z"/><path class="cls-1" d="M70.51,21.45c-4.84-11.46-1.08-11.46,4-1Z"/><path class="cls-1" d="M94.4,223.37C83.64,217.21,12,215.1,11.51,211.45s71.31-7.26,84.06-3.23Z"/><path class="cls-1" d="M91,238.73c-11-6.5-85.25-14.44-85.57-18.07s74.36-1.34,87.61,3.14Z"/><path class="cls-1" d="M96.5,191.21c-10.7-4.11-75,2.24-76-3.76-1-6.24,64.64-11,77-9Z"/><path class="cls-1" d="M95.35,207.09c-10.77-4.94-79-4.29-79.84-7.64-1-4,67.4-9.44,79.94-6.64Z"/><path class="cls-1" d="M98.55,164.37c-9.3-3.83-64.62-4-65-6.92-1-7,53.71-7.31,64.4-5.4Z"/><path class="cls-1" d="M97.43,177.09c-9.57-4.08-68.92.36-68.92-5.64s57.86-8.82,69-6.59Z"/><path class="cls-1" d="M96.89,138.26c-56.82-12.2-78.78-21.91-1.74-10.81Z"/><path class="cls-1" d="M97.62,151.17c-69.95-9.34-83-17.53-1.41-11.51Z"/><path class="cls-1" d="M80.51,47.45c-2.26-1.88-18-11-17-15,.49-1.94,11.24,3.4,14,5Z"/><path class="cls-1" d="M73.22,24.93c-5.56-2.85-17-8.61-1.19-5.06Z"/><path class="cls-1" d="M77.52,36.46c-5.72-4.23-25.64-17.94-3.19-10.2Z"/><path class="cls-1" d="M96.18,125.51c-51-11.11-71.35-22-1.87-12.1Z"/><path class="cls-1" d="M92,98.9C49.71,91.3,32.2,80.57,89.43,88.44Z"/><path class="cls-1" d="M94,111.57c-47.4-10.28-64.23-17.47-1.48-11.12Z"/><path class="cls-1" d="M90.78,86.32c-6-.9-33.27-5.87-33.27-12.87,0-6,24.54,5.13,31,4.44Z"/><path class="cls-1" d="M89,76.26c-25.38-7.84-44.69-20.5-2.47-9.44Z"/><path class="cls-1" d="M83.49,55.52c-4.74,0-19-9.07-20-14.07-.78-3.93,12.3,7.62,17.25,6Z"/><path class="cls-1" d="M86.11,65.39c-4.93-.52-23.6-7.94-23.6-12.94,0-4,13,4,21.48,4.25Z"/><path class="cls-2" d="M71.83,17.59c3.87,9.25,7,18.69,10,28.23S87.23,65,89.46,74.74s4.12,19.52,5.68,29.38,2.76,19.77,3.66,29.71,1.37,19.93,1.6,29.91c0,5,.11,10-.05,15s-.32,10-.56,15a381.85,381.85,0,0,1-8.18,59.42L86.73,252a376.48,376.48,0,0,0,8.87-58.57c.3-4.93.65-9.87.76-14.81s.2-9.9.24-14.85c-.09-9.89-.42-19.8-1.18-29.67s-1.83-19.73-3.24-29.55S89,85,86.93,75.3,82.47,56,79.7,46.44s-5.82-19-9.51-28.14Z"/></g></g></g></svg>