<svg xmlns="http://www.w3.org/2000/svg" viewBox="0 0 195.27 263.43"><defs><style>.cls-1{fill:#27701b;}.cls-2{fill:#3a2b26;}</style></defs><g id="leaves-individual"><g id="leaf-16-front"><polygon class="cls-1" points="99.75 249.25 195.27 170.56 102.75 222.33 194.4 131.14 106.3 196.29 190.94 96.33 105.86 165.45 191.4 58.88 106.15 131.18 173.74 32.69 103.39 101.34 158.43 9.99 99.17 69.85 143.12 0 94.7 43.57 118.82 2.1 90.36 25.57 59.41 26.29 93.74 43.3 22.81 48.27 97.17 69.56 20.34 78.51 101.27 101.08 22.48 111.35 104.06 130.63 14.71 133.73 102.27 166.12 6.95 156.11 103.09 197 1.19 185.71 99.94 221.98 0 209.37 88.29 255.55 99.75 249.25"/><path class="cls-2" d="M93.08,23.51c4.62,19.59,8.33,39.28,11.45,59.13s5.48,39.83,6.83,60,1.68,40.39-.11,60.74a204.94,204.94,0,0,1-4.83,30.47,113,113,0,0,1-11.31,29.63l-11.47-6.86a100.63,100.63,0,0,0,10.89-25.89,195.52,195.52,0,0,0,5.57-28.55c2.41-19.44,2.8-39.28,2.21-59.1S100,103.36,97.68,83.59s-5.38-39.53-9.25-59Z"/></g></g></svg>