<svg xmlns="http://www.w3.org/2000/svg" viewBox="0 0 195.27 263.43"><defs><style>.cls-1{fill:#27701b;}.cls-2{fill:#6f5637;}</style></defs><g id="leaves-individual"><g id="leaf-1-back"><path class="cls-1" d="M98.42,225.44c20.5-2.8,72.23,19.27,73.76,15.79s-30.8-23.25-70.56-31.1Z"/><path class="cls-1" d="M92.76,241.43c28.36,1.72,67.31,14.55,69.56,11.55s-25.18-20-63.22-25.71Z"/><path class="cls-1" d="M105.47,193.63c11.66-1.79,71.12,15.07,73.44,9.25,2.41-6-57.22-22-70.09-22.73Z"/><path class="cls-1" d="M102.16,209.08c12.07-1.78,70,15.72,71.78,12.64,2.14-3.66-54.56-25.94-67.76-26.78Z"/><path class="cls-1" d="M110.41,165.47c10.2-5.6,70.9,3.09,71.78.14C184.29,158.63,124,151,113,153Z"/><path class="cls-1" d="M108.58,178.44c10.37-2.68,73,13.07,73.89,7s-60.42-20-72.1-19.43Z"/><path class="cls-1" d="M114,139.79c17-8.59,54.92-6.22,54.87-11.47,0-4.21-37.7-5.42-55.12.2Z"/><path class="cls-1" d="M112.07,152.78c9.21-3.65,63.63-6,63.88-8.87.56-6.24-52.75-4.84-63.34-3Z"/><path class="cls-1" d="M114.35,127c13.36-10.25,47.42-10.41,46.49-15.47-.74-4-40.08-.61-46.85,2.87Z"/><path class="cls-1" d="M113.65,99.31c7.25-2.27,38.44-18.45,37.47-21.38-1.45-4.37-28.53,9.95-36.82,10.31Z"/><path class="cls-1" d="M114,112.51c7.31-2.94,44-15.09,43.24-19.14-.49-2.66-35.38,6.6-43.81,7.61Z"/><path class="cls-1" d="M112.53,86.35c5.89-2,31.6-16,30.3-23.13-1.11-6.08-22.89,13.67-29.59,14.18Z"/><path class="cls-1" d="M110,45.38c1.13-2.81,13.33-18.65,10.47-21.78-1.39-1.52-10.93,8.46-12.65,11.25Z"/><path class="cls-1" d="M105.55,21.42c.68-1.23,6.6-8.82,5.31-10-.25-.23-5.76,3.64-6.71,4.84Z"/><path class="cls-1" d="M107.31,34c.82-1.67,8.88-15.56,7.9-17.37-.75-1.4-8.84,4.94-10,6.57Z"/><path class="cls-1" d="M113,75.57c4.06-3.67,24.65-21.95,23.32-24.73-1.6-3.35-20.83,14.68-23.89,14.24Z"/><path class="cls-1" d="M111.24,54.15c4.27-2.36,14.68-16.65,13.13-21.67-1.21-3.93-9.34,12.07-14.62,13Z"/><path class="cls-1" d="M111.53,63.92c4.2-2.89,21.4-18.75,18.95-23.28-2-3.62-11.56,10.44-19.12,14.82Z"/><path class="cls-1" d="M102.69,16.88c-.72-2.18-1.88-8.59-.72-9.46s4.22,6.85,4.94,9Z"/><path class="cls-1" d="M97.45,226.14C79.92,207.5,20.6,213,20.64,209.19s48.28-10.08,80.22,1.69Z"/><path class="cls-1" d="M91.74,241.3c-24.43-17.55-76.48-12.91-76.27-16.66S68.25,212.42,96,226.38Z"/><path class="cls-1" d="M104.3,193.69c-10.31-5.76-72-11-72.17-17.3-.15-6.51,62.76.59,75.07,4.43Z"/><path class="cls-1" d="M100.8,209.7c-10.25-6.62-72.33-12.25-73.38-16.9-.94-4.14,63.21-2.33,75.58,2.36Z"/><path class="cls-1" d="M110.32,166.63c-8.92-5.26-65.26-13.5-65.26-16.58,0-7.28,55.8.42,66.42,3.94Z"/><path class="cls-1" d="M107.31,179.43c-9.15-5.56-70.28-9.74-69.4-15.85s60.26-.5,71.28,3.4Z"/><path class="cls-1" d="M112.45,139.79c-8.9-3.56-51.78-18.7-52.07-23.94-.15-2.66,41.58,10.85,51.89,12.66Z"/><path class="cls-1" d="M111.31,153c-9-4.25-58.6-16.69-58.66-19.58-.14-6.26,48.46,5.16,58.9,7.65Z"/><path class="cls-1" d="M109.07,44.84C107,42.6,92.34,31,94,27.07c.78-1.91,11,5.12,13.53,7.14Z"/><path class="cls-1" d="M105,20.83c-1.07-.92-9.24-6-8.44-7.55.15-.3,6.66,1.43,8,2.22Z"/><path class="cls-1" d="M107.63,33.21c-1.34-1.28-12.8-12.26-12.51-14.3.23-1.57,9.1,2.32,10.76,3.44Z"/><path class="cls-1" d="M113.6,126.69c-7.49-3.66-47.1-17.24-46.37-22.34.59-4.07,37.56,8.07,46.24,9.73Z"/><path class="cls-1" d="M113.22,99c-7.33-2-39-14.4-38.54-17.46.89-6.2,29.17,6.38,37.47,6.42Z"/><path class="cls-1" d="M113.41,112.16C106,109.5,70.44,96.49,71,92.42c.38-2.68,34,7.51,42.5,8.19Z"/><path class="cls-1" d="M113.84,86c-6-1.79-33-10.86-32-18,.87-6.12,24.25,8.83,31,9.07Z"/><path class="cls-1" d="M113.48,75.44c-5.07-2-26.55-14-26.11-17.08.71-4.93,19.32,6.79,25,7.11Z"/><path class="cls-1" d="M110.93,53.5c-4.83-.73-18-12-18.3-17.26-.23-4.11,11.42,9.57,16.7,8.64Z"/><path class="cls-1" d="M112.15,64C107.21,62.69,89.26,52.4,90,47.3c.58-4.08,12.66,6,21.26,7.48Z"/><path class="cls-2" d="M104.57,13.16c2.59,10,4.43,20.07,6,30.22s2.72,20.35,3.56,30.59,1.34,20.49,1.48,30.76-.09,20.55-.63,30.82-1.53,20.5-2.76,30.71c-.71,5.09-1.35,10.2-2.25,15.26s-1.79,10.13-2.77,15.18a392.91,392.91,0,0,1-17,59.34l-4.66-1.8a388.85,388.85,0,0,0,17.61-58.4c1-5,2.1-10,2.94-15s1.65-10.06,2.42-15.09c1.35-10.1,2.47-20.24,3.14-30.42s1-20.38,1-30.58-.38-20.41-1.07-30.6-1.72-20.35-3.14-30.46-3.15-20.21-5.58-30.08Z"/></g></g></svg>