<svg xmlns="http://www.w3.org/2000/svg" viewBox="0 0 182.47 262.77"><defs><style>.cls-1{fill:#cfdee3;}.cls-2{fill:#4a3426;}.cls-3{fill:#3a2b26;}</style></defs><g id="leaves-individual"><g id="leaf-4-back"><polygon class="cls-1" points="84.41 238.95 0 157.09 83.59 213.46 3.85 120.08 82.03 188.97 9.96 87.38 84.95 159.78 12.57 51.86 87.46 127.28 31.43 28.48 92.49 99.24 47.77 8.22 99.06 69.75 63.09 0 105.43 45.22 85.94 3.96 111 28.52 140.26 31.7 106.36 45.03 173.16 55.51 100.98 69.64 173.04 84.36 94.53 99.16 168.34 115.3 89.49 126.94 173.88 137.13 88.29 160.71 179.42 158.97 85.01 189.89 182.47 187.48 85.97 213.82 181.67 209.99 94.73 245.9 84.41 238.95"/><circle class="cls-2" cx="102.64" cy="235.21" r="4.43"/><circle class="cls-2" cx="97.8" cy="221.26" r="4.43"/><circle class="cls-2" cx="115.36" cy="229.54" r="4.43"/><circle class="cls-2" cx="109.27" cy="220.09" r="4.43"/><path class="cls-3" d="M113.25,29.57c-5.77,18.69-10.69,37.74-15,56.85Q95,100.76,92.37,115.2c-1.74,9.63-3.34,19.28-4.58,29a378.13,378.13,0,0,0-3.64,58.08,200.64,200.64,0,0,0,2.7,28.5,100.55,100.55,0,0,0,8.06,26.49l-12,5.54a113.25,113.25,0,0,1-8.07-30.13,213.33,213.33,0,0,1-1.78-30.31,387.78,387.78,0,0,1,5.86-59.51c1.62-9.79,3.59-19.5,5.7-29.18s4.45-19.28,7-28.84c5-19.12,10.67-38,17.19-56.74Z"/></g></g></svg>