<svg xmlns="http://www.w3.org/2000/svg" viewBox="0 0 195.27 263.43"><defs><style>.cls-1{fill:#cfdee3;}.cls-2{fill:#6f5637;}.cls-3{fill:#4a3426;}.cls-4{opacity:0.5;}.cls-5{opacity:0.7;}</style></defs><g id="leaves-individual"><g id="leaf-1-back"><path class="cls-1" d="M97.72,221.37c-20.5-2.8-72.23,19.27-73.76,15.79s30.8-23.25,70.55-31.1Z"/><path class="cls-1" d="M103.38,237.36C75,239.08,36.07,251.91,33.82,248.91S59,228.9,97,223.2Z"/><path class="cls-1" d="M90.67,189.56c-11.67-1.79-71.13,15.07-73.44,9.25-2.41-6.05,57.22-22,70.09-22.73Z"/><path class="cls-1" d="M94,205c-12.06-1.78-70,15.72-71.77,12.64C20.05,214,76.76,191.71,90,190.87Z"/><path class="cls-1" d="M85.73,161.4c-10.2-5.6-70.9,3.09-71.79.14-2.09-7,58.23-14.62,69.25-12.58Z"/><path class="cls-1" d="M87.55,174.37c-10.36-2.68-73,13.07-73.88,7s60.41-20,72.09-19.43Z"/><path class="cls-1" d="M82.17,135.72c-17-8.59-54.91-6.22-54.87-11.47,0-4.21,37.71-5.42,55.13.2Z"/><path class="cls-1" d="M84.07,148.71c-9.21-3.65-63.63-6-63.88-8.87-.56-6.24,52.75-4.84,63.33-3.05Z"/><path class="cls-1" d="M81.79,123C68.43,112.72,34.37,112.56,35.3,107.5c.74-4,40.08-.61,46.85,2.86Z"/><path class="cls-1" d="M82.48,95.24c-39.69-17.9-58.29-32.07-.64-11.07Z"/><path class="cls-1" d="M82.16,108.44C33,91,19.73,82.28,82.73,96.9Z"/><path class="cls-1" d="M83.61,82.28c-5.89-2-31.61-16-30.3-23.13C54.42,53.07,76.2,72.82,82.9,73.33Z"/><path class="cls-1" d="M86.16,41.31C85,38.5,72.82,22.66,75.69,19.53,77.08,18,86.62,28,88.34,30.78Z"/><path class="cls-1" d="M90.59,17.35C87,12.05,79.42,1.22,92,12.19Z"/><path class="cls-1" d="M88.83,29.9C88,28.23,80,14.34,80.92,12.53c.76-1.4,8.85,4.94,10,6.57Z"/><path class="cls-1" d="M83.16,71.5C62,52.4,43.36,32.78,83.74,61Z"/><path class="cls-1" d="M84.9,50.08c-4.27-2.36-14.68-16.65-13.13-21.67,1.21-3.93,9.34,12.07,14.61,13Z"/><path class="cls-1" d="M84.61,59.85c-4.2-2.89-21.4-18.75-19-23.28C67.62,33,77.22,47,84.78,51.39Z"/><path class="cls-1" d="M93.45,12.81C96.7.43,92.87,1,89.22,12.38Z"/><path class="cls-1" d="M98.69,222.07c17.52-18.64,76.85-13.15,76.81-16.95S127.22,195,95.28,206.81Z"/><path class="cls-1" d="M104.4,237.23c24.43-17.55,76.48-12.91,76.26-16.66s-52.77-12.23-80.53,1.74Z"/><path class="cls-1" d="M91.84,189.62c10.3-5.76,72-11,72.17-17.3.15-6.51-62.77.59-75.07,4.43Z"/><path class="cls-1" d="M95.34,205.63c10.24-6.62,72.32-12.25,73.38-16.9.94-4.14-63.21-2.33-75.58,2.36Z"/><path class="cls-1" d="M85.81,162.56c8.93-5.27,65.27-13.5,65.27-16.58,0-7.28-55.81.42-66.42,3.94Z"/><path class="cls-1" d="M88.83,175.36c9.15-5.56,70.27-9.74,69.39-15.85S98,159,87,162.91Z"/><path class="cls-1" d="M83.69,135.72c56.11-20.76,77.06-33.87.18-11.28Z"/><path class="cls-1" d="M84.83,149c69.91-19.76,82-30-.25-11.93Z"/><path class="cls-1" d="M87.07,40.77c2-2.24,16.73-13.84,15.12-17.77-.78-1.91-11,5.12-13.53,7.14Z"/><path class="cls-1" d="M91.19,16.76c5.25-3.72,16.07-11.27.48-5.33Z"/><path class="cls-1" d="M88.51,29.14c1.34-1.28,12.8-12.26,12.51-14.3-.23-1.57-9.1,2.32-10.76,3.44Z"/><path class="cls-1" d="M82.54,122.62c50.35-18.8,69.48-32.9.13-12.61Z"/><path class="cls-1" d="M82.92,94.88c42-13.94,58.23-27.43,1.07-11Z"/><path class="cls-1" d="M82.73,108.09c46.8-17.42,62.89-27.21-.13-11.55Z"/><path class="cls-1" d="M82.3,81.89c6-1.79,33-10.86,32-18-.88-6.12-24.25,8.83-31,9.07Z"/><path class="cls-1" d="M82.66,71.37c24.71-11.7,42.53-27.43,1.13-10Z"/><path class="cls-1" d="M85.21,49.43c4.83-.73,18-12,18.3-17.26.22-4.11-11.42,9.57-16.7,8.64Z"/><path class="cls-1" d="M84,59.88c4.94-1.26,22.88-11.56,22.15-16.65-.59-4.08-12.66,6-21.27,7.48Z"/><path class="cls-2" d="M93.28,9.55c-2.42,9.87-4.13,20-5.57,30.08s-2.44,20.28-3.14,30.46-1.07,20.39-1.07,30.6.36,20.4,1,30.58,1.79,20.32,3.14,30.42c.77,5,1.47,10.08,2.42,15.09s1.91,10,2.94,15a388.85,388.85,0,0,0,17.61,58.4L106,252a392.91,392.91,0,0,1-17-59.34c-1-5-2-10.09-2.78-15.18s-1.53-10.17-2.24-15.26c-1.23-10.21-2.22-20.45-2.77-30.71s-.75-20.55-.62-30.82S81.16,80.13,82,69.9s2-20.44,3.56-30.59,3.42-20.23,6-30.22Z"/><path class="cls-3" d="M111.93,228.94c2.55-4.14-4-8-6.45-3.83S109.51,233.16,111.93,228.94Z"/><path class="cls-3" d="M107.4,213.63c2.37-3.87-3.76-7.51-6-3.57S105.13,217.57,107.4,213.63Z"/><path class="cls-3" d="M102.25,197.94c2-3.34-3.23-6.47-5.18-3.08S100.3,201.33,102.25,197.94Z"/><path class="cls-3" d="M99,182.46c2-3.33-3.24-6.47-5.19-3.08S97,185.85,99,182.46Z"/><path class="cls-3" d="M96,168.68c2-3.33-3.24-6.47-5.19-3.08S94,172.07,96,168.68Z"/><path class="cls-3" d="M95.08,155.29c2-3.34-3.24-6.48-5.19-3.08S93.13,158.68,95.08,155.29Z"/><path class="cls-3" d="M93.32,143.06c2.05-3.34-3.24-6.47-5.18-3.08S91.37,146.45,93.32,143.06Z"/><path class="cls-3" d="M92.06,129.52c2-3.31-3.2-6.41-5.13-3.05S90.14,132.87,92.06,129.52Z"/><path class="cls-3" d="M91.17,115.59c2-3.18-3.08-6.17-4.94-2.94S89.32,118.83,91.17,115.59Z"/><path class="cls-3" d="M90.17,102.59c2-3.18-3.08-6.17-4.94-2.94S88.32,105.83,90.17,102.59Z"/><path class="cls-3" d="M90.87,89.83c1.9-3.1-3-6-4.81-2.86S89.06,93,90.87,89.83Z"/><path class="cls-3" d="M90.74,77.25c1.8-2.93-2.84-5.68-4.56-2.7S89,80.23,90.74,77.25Z"/><path class="cls-3" d="M90.61,65.36c1.7-2.76-2.68-5.37-4.3-2.55S89,68.17,90.61,65.36Z"/><path class="cls-3" d="M91.44,54.43c1.59-2.59-2.53-5-4-2.4S89.92,57.08,91.44,54.43Z"/><path class="cls-3" d="M92.2,44.4c1.5-2.43-2.36-4.72-3.78-2.25S90.78,46.87,92.2,44.4Z"/><path class="cls-3" d="M93.33,33.53c1.42-2.32-2.26-4.51-3.61-2.14S92,35.89,93.33,33.53Z"/></g></g></svg>