<svg xmlns="http://www.w3.org/2000/svg" viewBox="0 0 177.18 262.95"><defs><style>.cls-1{fill:#27701b;}.cls-2{fill:#3a2b26;}</style></defs><g id="leaves-individual"><g id="leaf-8-front"><polygon class="cls-1" points="95.27 232 177.19 152.67 96.11 207.34 173.25 116.46 97.42 183.28 167.31 84.75 94.59 154.97 164.79 50.3 92.15 123.45 146.49 27.63 87.27 96.26 130.64 7.98 80.9 67.65 115.78 0 74.72 43.86 93.62 3.84 69.32 27.66 40.94 30.75 73.82 43.68 9.03 53.84 79.04 67.54 9.14 81.82 85.3 96.18 13.7 111.83 90.19 123.12 8.33 133.01 91.34 155.87 2.96 154.18 94.53 184.18 0 181.84 93.6 207.39 0.77 203.67 85.26 238.74 95.27 232"/><path class="cls-2" d="M74.47,22.33c3,9.69,5.69,19.4,8.22,29.18s4.85,19.6,7,29.48c4.28,19.75,7.72,39.71,10.11,59.86q1.71,15.12,2.53,30.39c.46,10.18.51,20.41.06,30.67A214.86,214.86,0,0,1,98.8,232.7,134.8,134.8,0,0,1,89.46,263l-12.25-5.9a121.53,121.53,0,0,0,9.36-27A201.22,201.22,0,0,0,91,201.16c.79-9.81,1.1-19.7,1-29.62s-.64-19.86-1.4-29.79c-1.63-19.87-4.3-39.7-7.82-59.4q-2.64-14.79-5.86-29.46c-2.15-9.77-4.46-19.56-7.08-29.16Z"/></g></g></svg>