<svg xmlns="http://www.w3.org/2000/svg" viewBox="0 0 177.18 262.95"><defs><style>.cls-1{fill:#cfdee3;}.cls-2{fill:#3a2b26;}</style></defs><g id="leaves-individual"><g id="leaf-8-back-no-dots"><polygon class="cls-1" points="81.92 232 0 152.67 81.07 207.34 3.94 116.46 79.77 183.28 9.87 84.75 82.6 154.97 12.4 50.3 85.04 123.45 30.69 27.63 89.92 96.26 46.54 7.98 96.28 67.65 61.4 0 102.46 43.86 83.56 3.84 107.86 27.66 136.25 30.75 103.36 43.68 168.15 53.84 98.15 67.54 168.04 81.82 91.89 96.18 163.48 111.83 87 123.12 168.85 133.01 85.84 155.87 174.23 154.18 82.66 184.18 177.19 181.84 83.58 207.39 176.41 203.67 91.92 238.74 81.92 232"/><path class="cls-2" d="M107.36,23.73c-2.62,9.6-4.94,19.39-7.09,29.16s-4.1,19.6-5.85,29.46c-3.52,19.7-6.2,39.53-7.83,59.4q-1.14,14.9-1.39,29.79c-.09,9.92.22,19.81,1,29.62a202.62,202.62,0,0,0,4.41,28.94,121.55,121.55,0,0,0,9.37,27L87.73,263a133.78,133.78,0,0,1-9.34-30.25,213.46,213.46,0,0,1-3.57-30.79c-.45-10.26-.39-20.49.07-30.67s1.39-20.31,2.53-30.39c2.39-20.15,5.83-40.11,10.1-59.86q3.2-14.82,7-29.48C97,41.73,99.69,32,102.72,22.33Z"/></g></g></svg>