<svg xmlns="http://www.w3.org/2000/svg" viewBox="0 0 178.16 262.75"><defs><style>.cls-1{fill:#cfdee3;}.cls-2{fill:#6f5637;}.cls-3{fill:#4a3426;}.cls-4{opacity:0.5;}.cls-5{opacity:0.7;}</style></defs><g id="leaves-individual"><g id="leaf-1-back"><path class="cls-1" d="M90.12,214.72c18.38-3.37,72.24,27.05,73.95,23.78s-31.83-28.24-69.85-38.41Z"/><path class="cls-1" d="M83.6,229.85c27.38,3.5,74.35,29,76.73,26.25s-33.16-31.58-69.66-39.56Z"/><path class="cls-1" d="M99,184.34c11.43-1,71.44,22.92,74.06,17.43,2.73-5.71-57.51-28.77-69.94-30.27Z"/><path class="cls-1" d="M94.81,199.1c11.81-.95,70.29,23.47,72.23,20.61,2.31-3.42-54.68-32.39-67.42-34.05Z"/><path class="cls-1" d="M105.62,157.36c10.25-4.76,68.52,7.59,69.57,4.78,2.48-6.62-55.49-17.93-66.3-16.67Z"/><path class="cls-1" d="M103,169.82c10.22-1.93,69.87,17.39,71.16,11.53s-57.26-23.27-68.61-23.49Z"/><path class="cls-1" d="M110.73,132.71c17-7.23,54.89-2.56,53.92-7.57-1.16-6-36.19-7.69-53.44-3.37Z"/><path class="cls-1" d="M108.05,145.18c9.16-3,62.06-1.7,62.49-4.47.94-6-50.81-8.1-61.19-7.05Z"/><path class="cls-1" d="M111.92,120.37c8.15-6.75,47.06-9,46.48-13.94-.46-4-37.54.33-46,1.71Z"/><path class="cls-1" d="M113.05,93.46c7.16-1.73,38.44-15.4,37.69-18.3-1.13-4.33-28.3,7.8-36.36,7.61Z"/><path class="cls-1" d="M112.51,106.27c7.27-2.38,43.6-11.78,43.14-15.76-.3-2.6-34.72,4.12-42.95,4.54Z"/><path class="cls-1" d="M112.8,80.82c5.83-1.58,31.66-13.5,30.86-20.46-.69-6-23.08,11.77-29.6,11.83Z"/><path class="cls-1" d="M113,41c1.28-2.65,14.13-17.22,11.56-20.44-1.25-1.56-11.14,7.5-13,10.1Z"/><path class="cls-1" d="M110.23,17.44c.74-1.15,7-8.12,5.79-9.35-.23-.23-5.82,3.15-6.82,4.26Z"/><path class="cls-1" d="M111.12,29.72c.9-1.57,9.62-14.5,8.78-16.32-.64-1.41-8.89,4.21-10.12,5.72Z"/><path class="cls-1" d="M113.92,70.4c4.17-3.29,25.31-19.67,24.2-22.46C136.79,44.59,117,60.83,114.05,60.2Z"/><path class="cls-1" d="M113.62,49.53c4.3-2,15.31-15.19,14.13-20.15-.92-3.89-9.83,11.09-15,11.67Z"/><path class="cls-1" d="M113.28,59c4.25-2.53,21.95-16.79,19.87-21.34-1.67-3.64-11.88,9.37-19.49,13.13Z"/><path class="cls-1" d="M107.75,12.86c-.56-2.17-1.27-8.45-.08-9.22s3.64,6.91,4.2,9.07Z"/><path class="cls-1" d="M89.14,215.33c-9.25-8.26-83.28-15-83-18.65s75.64-2.52,87.28,4.08Z"/><path class="cls-1" d="M82.62,229.65C73.18,221,1.7,213.3,2.15,209.68s73.54-1.35,85.58,5.79Z"/><path class="cls-1" d="M97.88,184.32c-9.62-6.24-75.73-9.55-75.73-15.64,0-3,67.69-1.16,79.37,3.36Z"/><path class="cls-1" d="M93.45,199.61c-9.5-7.07-79.18-14.47-79.3-17.93-.15-4.12,70.68-1.36,82.37,4Z"/><path class="cls-1" d="M105.46,158.49c-8.3-5.68-62.38-15.31-62.18-18.3.48-7.05,54.06,2,64.12,6.12Z"/><path class="cls-1" d="M101.72,170.7c-8.51-6-69.9-13.18-69.57-16,.7-6,61.76-.42,72.19,4.07Z"/><path class="cls-1" d="M109.26,132.61c-8.39-4-49-19.47-48.92-24.57,0-2.58,39.6,11.21,49.48,13.63Z"/><path class="cls-1" d="M107.3,145.38c-8.4-4.7-55.72-18-55.59-20.78.27-6.07,46.63,6.15,56.6,9.23Z"/><path class="cls-1" d="M112.13,40.37c-1.83-2.31-15.32-14.5-13.51-18.21.87-1.79,10.28,5.67,12.65,7.8Z"/><path class="cls-1" d="M109.68,16.83c-1-1-8.57-6.41-7.69-7.86.17-.28,6.36,1.81,7.57,2.67Z"/><path class="cls-1" d="M111.48,29c-1.21-1.32-11.62-12.71-11.2-14.66.32-1.52,8.67,2.83,10.2,4Z"/><path class="cls-1" d="M111.22,120c-7-4-44.53-19.76-43.49-24.65.83-3.91,35.88,10.25,44.18,12.42Z"/><path class="cls-1" d="M112.65,93.08c-7-2.4-36.85-16.47-36.23-19.41,1.27-6,27.87,8.08,35.91,8.65Z"/><path class="cls-1" d="M112,105.89c-7-3.06-40.63-18-39.8-21.87.54-2.57,32.51,9.48,40.67,10.69Z"/><path class="cls-1" d="M114.09,80.53C108.43,78.4,82.77,67.87,84.22,61c1.25-5.87,22.94,10.12,29.43,10.8Z"/><path class="cls-1" d="M114.42,70.31C109.64,68,89.59,55,90.22,52.07c1-4.74,18.28,7.83,23.75,8.5Z"/><path class="cls-1" d="M113.36,48.88c-4.63-1-16.68-12.82-16.61-17.91,0-4,10.44,10,15.62,9.45Z"/><path class="cls-1" d="M113.87,59.09c-4.71-1.54-21.43-12.68-20.39-17.57.83-3.92,11.88,6.61,20.13,8.62Z"/><path class="cls-2" d="M109.85,9.39c1.61,10.4,2.59,20.82,3.3,31.29s1,20.93,1.07,31.41a488.05,488.05,0,0,1-3.88,62.77,409.82,409.82,0,0,1-12.63,61.67c-1.37,5.08-3.09,10.05-4.66,15.07L90.42,219l-1.32,3.72-1.45,3.68-2.9,7.34L81.6,241,80,244.64,78.3,248.2l-3.43,7.12L70.42,253l3.47-7,1.73-3.49,1.6-3.54,3.21-7.1,2.95-7.2,1.47-3.61,1.35-3.65,2.69-7.31c1.61-4.94,3.38-9.83,4.8-14.83A408.23,408.23,0,0,0,107,134.4a484.5,484.5,0,0,0,4.65-62.32q.18-15.63-.66-31.27C110.4,30.4,109.55,20,108.09,9.68Z"/><circle class="cls-3" cx="94.11" cy="224.49" r="2.93"/><circle class="cls-3" cx="99.59" cy="208.86" r="2.93"/></g></g></svg>