<svg xmlns="http://www.w3.org/2000/svg" viewBox="0 0 178.64 263.01"><defs><style>.cls-1{fill:#cfdee3;}.cls-2{fill:#6f5637;}.cls-3{fill:#4a3426;}</style></defs><g id="leaves-individual"><g id="leaf-1-back"><path class="cls-1" d="M84.06,221c-17.28-7.12-76.29,11.44-77.28,7.88s37-21,76.31-23.05Z"/><path class="cls-1" d="M87.29,237.14c-27.51-2.27-78.76,12.93-80.51,9.73s39-24,76.37-24.22Z"/><path class="cls-1" d="M81.68,189.43C70.71,186.09,7,197,5.61,191.07,4.13,184.92,67.85,174.89,80.32,176Z"/><path class="cls-1" d="M82.72,204.74c-11.36-3.39-73.63,8.34-74.94,5.13-1.55-3.82,60.22-20.3,73-19.28Z"/><path class="cls-1" d="M80.82,161.66c-9-6.79-68.59-6.82-69-9.79-1-7,58-6,68.32-2.52Z"/><path class="cls-1" d="M80.78,174.39c-9.59-4-72,2.48-72-3.52s60.85-10.86,72-8.71Z"/><path class="cls-1" d="M81,136.49c-15.17-10.62-53.16-13.92-51.17-18.62,2.39-5.61,37,0,53,7.81Z"/><path class="cls-1" d="M81,149.24c-8.35-4.78-60.35-14.56-60.2-17.37.33-6.07,51.39,2.65,61.32,5.83Z"/><path class="cls-1" d="M82.35,124.17c-6.57-8.3-44.16-18.56-42.57-23.3,1.28-3.79,36.66,8.13,44.65,11.23Z"/><path class="cls-1" d="M86.85,97.61c-6.65-3.18-34.41-23-33.07-25.74,2-4,26.06,13.52,34,15Z"/><path class="cls-1" d="M84.71,110.26c-6.62-3.85-40.2-20.59-38.93-24.39.84-2.49,33.11,11.25,41.08,13.37Z"/><path class="cls-1" d="M89.72,85.3c-5.38-2.76-28.17-19.79-25.94-26.43C65.7,53.19,83.91,75.19,90.27,76.6Z"/><path class="cls-1" d="M97.84,46.26c-.7-2.85-10.24-19.77-7.06-22.39,1.55-1.26,9.34,9.65,10.61,12.58Z"/><path class="cls-1" d="M105.41,23.84c-.48-1.28-5.12-9.39-3.72-10.35.27-.18,5,4.3,5.78,5.58Z"/><path class="cls-1" d="M102,35.66c-.55-1.71-6.39-16.18-5.2-17.79.93-1.24,7.82,6,8.72,7.7Z"/><path class="cls-1" d="M90.78,74.87c-3.38-4.08-20.66-24.5-19-27,2-3,18,17,21,17Z"/><path class="cls-1" d="M95.42,54.52c-3.79-2.85-11.82-18-9.64-22.65C87.49,28.26,93.09,44.76,98,46.41Z"/><path class="cls-1" d="M93.78,63.87c-3.64-3.35-18-21-15-25,2.39-3.21,9.68,11.64,16.34,16.89Z"/><path class="cls-1" d="M108.78,19.87c1-2,3-8,2-9s-5,6-6,8Z"/><path class="cls-1" d="M84.89,221.79c10.77-6.15,82.41-8.26,82.89-11.92s-71.3-7.26-84.06-3.22Z"/><path class="cls-1" d="M88.29,237.16c11-6.51,85.25-14.44,85.56-18.07s-74.35-1.35-87.61,3.13Z"/><path class="cls-1" d="M82.79,189.64c10.71-4.11,75,2.23,76-3.77,1-6.23-64.63-11-77-9Z"/><path class="cls-1" d="M83.94,205.52c10.77-4.94,79-4.29,79.84-7.65,1-4-67.4-9.43-79.94-6.63Z"/><path class="cls-1" d="M80.74,162.8c9.31-3.83,64.62-4,65-6.93,1-7-53.71-7.3-64.4-5.39Z"/><path class="cls-1" d="M81.87,175.52c9.56-4.08,68.91.35,68.91-5.65s-57.86-8.81-69-6.59Z"/><path class="cls-1" d="M82.41,136.69c9-2.19,52.37-10.82,53.37-15.82.51-2.53-41.48,4.69-51.64,5Z"/><path class="cls-1" d="M81.68,149.59c9.18-2.85,58.64-7.94,59.1-10.72,1-6-47.3-1.73-57.69-.78Z"/><path class="cls-1" d="M98.78,45.87c2.27-1.87,18-11,17-15-.48-1.94-11.23,3.41-14,5Z"/><path class="cls-1" d="M106.07,23.36c1.15-.74,9.71-4.49,9.16-6.09-.11-.31-6.6.44-8,1Z"/><path class="cls-1" d="M101.78,34.89c1.46-1,14-10,14-12,0-1.54-9.06,1-10.81,1.82Z"/><path class="cls-1" d="M83.11,123.94c7.71-2.49,47.67-10.07,47.67-15.07,0-4-37.23,2.57-45.8,3Z"/><path class="cls-1" d="M87.31,97.33c7.32-.9,39.47-8.46,39.47-11.46,0-6.08-28.93,2.11-36.91,1Z"/><path class="cls-1" d="M85.31,110c7.5-1.54,43.47-9.13,43.47-13.13,0-2.62-33.77,2.52-42,2Z"/><path class="cls-1" d="M88.51,84.75c6-.9,33.27-5.88,33.27-12.88,0-6-24.53,5.14-31,4.45Z"/><path class="cls-1" d="M90.31,74.69c5.16-1.26,27.47-9.82,27.47-12.82,0-4.84-19.51,3.86-25,3.38Z"/><path class="cls-1" d="M95.8,54c4.74,0,19-9.08,20-14.08.79-3.92-12.3,7.63-17.25,6Z"/><path class="cls-1" d="M93.19,63.82c4.92-.52,23.59-8,23.59-13,0-4-13,4-21.48,4.25Z"/><path class="cls-2" d="M109.1,16.73c-3.69,9.15-6.73,18.63-9.51,28.14S94.44,64,92.36,73.72,88.53,93.18,87.11,103s-2.47,19.67-3.24,29.54-1.09,19.78-1.18,29.68c0,4.95,0,9.9.25,14.84s.45,9.89.75,14.82a377.86,377.86,0,0,0,8.87,58.57l-4.87,1.12a381.85,381.85,0,0,1-8.18-59.42c-.24-5-.52-10-.57-15s-.06-10,0-15c.23-10,.69-20,1.59-29.91s2.12-19.86,3.67-29.72,3.46-19.65,5.68-29.38,4.75-19.37,7.66-28.91,6.09-19,10-28.23Z"/><circle class="cls-3" cx="93.84" cy="227.94" r="2.93"/></g></g></svg>