<svg xmlns="http://www.w3.org/2000/svg" viewBox="0 0 178.64 263.01"><defs><style>.cls-1{fill:#27701b;}.cls-2{fill:#3a2b26;}</style></defs><g id="leaves-individual"><g id="leaf-1-front"><polygon class="cls-1" points="82.26 28.59 4.29 75.33 81.62 53.77 6.93 119.56 80.4 78.18 12.91 151.54 83.26 106.73 15.47 186.28 85.72 138.51 33.91 209.15 90.64 165.94 49.9 228.96 97.06 194.78 64.88 237.01 103.29 218.78 84.23 259.13 108.74 235.11 137.36 232 104.2 218.96 169.54 208.71 98.94 194.89 169.42 180.5 92.63 166.01 164.82 150.23 87.7 138.85 170.24 128.88 86.53 105.82 175.66 107.52 83.32 77.27 178.64 79.64 84.25 53.87 177.87 57.62 92.38 21.83 82.26 28.59"/><path class="cls-2" d="M102.57,235.33c-4.45-19.08-8.16-38.24-11.41-57.53s-5.92-38.68-7.87-58.19a555.37,555.37,0,0,1-3-58.9q.07-14.8,1.55-29.7A198.65,198.65,0,0,1,87,1.29L99.26,4.72A187.38,187.38,0,0,0,93.53,32.4C92.25,41.83,91.42,51.39,91,61a543.65,543.65,0,0,0,.87,57.91c1.24,19.34,3.23,38.66,5.77,57.92s5.58,38.49,9.32,57.52Z"/></g></g></svg>