<svg xmlns="http://www.w3.org/2000/svg" viewBox="0 0 182.47 262.77"><defs><style>.cls-1{fill:#27701b;}.cls-2{fill:#6f5637;}</style></defs><g id="leaves-individual"><g id="leaf-1-back"><path class="cls-1" d="M96.37,220.44c17.71-5.93,75.34,16.54,76.57,13.06s-35.51-23.43-74.59-28.12Z"/><path class="cls-1" d="M92.06,236.35c27.6-.42,77.71,18.19,79.67,15.11s-37.3-26.56-74.56-29.29Z"/><path class="cls-1" d="M100.86,189.12c11.17-2.6,74,12.55,75.79,6.75,1.89-6-61-20.33-73.53-20.05Z"/><path class="cls-1" d="M98.8,204.32c11.55-2.61,72.9,13.27,74.42,10.16,1.8-3.71-58.72-24.3-71.57-24.15Z"/><path class="cls-1" d="M103.58,161.47c9.48-6.17,68.9-2.2,69.54-5.13,1.52-6.9-57.46-9.88-68-7.1Z"/><path class="cls-1" d="M102.77,174.18c9.84-3.36,71.63,7.3,72.07,1.32s-60-14.92-71.25-13.53Z"/><path class="cls-1" d="M105.14,136.34c15.85-9.57,54-10.31,52.31-15.13-2-5.76-36.92-2.49-53.38,4.23Z"/><path class="cls-1" d="M104.26,149.07c8.65-4.22,61.19-10.48,61.23-13.29.08-6.08-51.45-.81-61.57,1.7Z"/><path class="cls-1" d="M104.58,124c7.11-7.84,45.3-15.55,44-20.38-1-3.87-37.11,5.64-45.3,8.2Z"/><path class="cls-1" d="M101.87,97.16c6.85-2.73,35.88-20.69,34.72-23.46-1.72-4.12-26.9,11.74-34.91,12.69Z"/><path class="cls-1" d="M103.16,109.92c6.86-3.39,41.49-17.84,40.47-21.71-.66-2.54-33.78,9-41.88,10.58Z"/><path class="cls-1" d="M99.84,84.68c5.55-2.39,29.43-17.85,27.65-24.62C126,54.26,106.31,75,99.87,76Z"/><path class="cls-1" d="M94.36,45.19c.89-2.8,11.54-19,8.54-21.87-1.46-1.36-10,9-11.43,11.84Z"/><path class="cls-1" d="M88.31,22.31c.57-1.25,5.74-9,4.41-10.07-.26-.21-5.31,3.94-6.14,5.17Z"/><path class="cls-1" d="M90.94,34.33c.66-1.67,7.46-15.71,6.38-17.39-.84-1.31-8.21,5.43-9.22,7.09Z"/><path class="cls-1" d="M99.47,74.21c3.66-3.85,22.27-23.06,20.77-25.66-1.79-3.13-19.1,15.75-22.09,15.55Z"/><path class="cls-1" d="M96.22,53.59c4-2.59,13-17.2,11.13-22-1.46-3.72-8.16,12.37-13.2,13.68Z"/><path class="cls-1" d="M97.22,63c3.86-3.1,19.35-19.73,16.65-23.93-2.17-3.37-10.44,10.95-17.43,15.75Z"/><path class="cls-1" d="M85.21,18.12c-.86-2.06-2.46-8.18-1.39-9.11s4.58,6.32,5.45,8.39Z"/><path class="cls-1" d="M95.48,221.19c-10.32-6.86-81.67-13.78-81.9-17.46s71.63-2.45,84.08,2.43Z"/><path class="cls-1" d="M91.06,236.29C80.49,229.06,7,216.16,6.91,212.52s74.27,3.65,87.19,9Z"/><path class="cls-1" d="M99.74,189.26c-10.41-4.82-75-2.82-75.57-8.87-.62-6.29,65.23-6.63,77.43-3.81Z"/><path class="cls-1" d="M97.52,205c-10.41-5.66-78.53-9.58-79.14-13-.73-4.06,67.88-4.89,80.2-1.25Z"/><path class="cls-1" d="M103.59,162.61c-9-4.45-64.21-8.29-64.43-11.28-.53-7.05,54.08-3.68,64.61-1.05Z"/><path class="cls-1" d="M101.61,175.23C92.34,170.51,32.82,171,33.23,165s58.32-4.9,69.28-1.93Z"/><path class="cls-1" d="M103.68,136.45c-8.88-2.79-51.53-14.31-52.19-19.37-.34-2.56,41.07,7.47,51.19,8.46Z"/><path class="cls-1" d="M103.54,149.37c-9-3.46-58-11.87-58.25-14.66-.6-6.06,47.31,1.45,57.62,3.09Z"/><path class="cls-1" d="M93.44,44.74c-2.13-2-17.22-12.19-16-16.11.61-1.9,11,4.15,13.63,5.93Z"/><path class="cls-1" d="M87.68,21.78c-1.1-.81-9.39-5.12-8.73-6.69.13-.3,6.56.89,7.88,1.57Z"/><path class="cls-1" d="M91.19,33.58C89.8,32.44,77.89,22.64,78,20.65c.11-1.55,9,1.57,10.67,2.54Z"/><path class="cls-1" d="M103.83,123.68c-7.52-3-46.89-13.25-46.55-18.23.27-4,37,5.06,45.5,6Z"/><path class="cls-1" d="M101.43,96.85c-7.24-1.39-38.82-11.09-38.61-14.08.4-6.07,28.72,4,36.76,3.46Z"/><path class="cls-1" d="M102.58,109.62c-7.38-2-42.77-12-42.5-16,.18-2.62,33.53,4.78,41.77,4.81Z"/><path class="cls-1" d="M101.08,84.21c-5.91-1.3-32.8-8.09-32.33-15.08.4-6,24.13,6.78,30.65,6.52Z"/><path class="cls-1" d="M100,74.05c-5.06-1.6-26.75-11.63-26.55-14.63.32-4.83,19.21,5.16,24.72,5Z"/><path class="cls-1" d="M95.87,53c-4.73-.35-18.33-10.33-19-15.38-.52-4,11.76,8.43,16.81,7.14Z"/><path class="cls-1" d="M97.82,63c-4.88-.85-23-9.51-22.68-14.5.27-4,12.71,4.86,21.15,5.68Z"/><path class="cls-2" d="M86.78,14.37c3.25,9.49,5.77,19.12,8,28.83s4.14,19.52,5.7,29.37,2.81,19.75,3.7,29.69,1.42,19.91,1.66,29.89,0,20-.42,30c-.32,5-.56,10-1,14.95s-1,9.94-1.57,14.91A381.29,381.29,0,0,1,90.69,250.7l-4.78-1.44a377.88,377.88,0,0,0,12.78-57.84c.63-4.9,1.31-9.81,1.75-14.73s.86-9.86,1.24-14.8c.57-9.88.91-19.78.82-29.69s-.51-19.81-1.25-29.69S99.39,82.77,98,73,94.82,53.37,92.7,43.68,88.17,24.34,85.1,15Z"/></g></g></svg>