<svg xmlns="http://www.w3.org/2000/svg" viewBox="0 0 182.47 262.77"><defs><style>.cls-1{fill:#cfdee3;}.cls-2{fill:#6f5637;}.cls-3{opacity:0.5;}.cls-4{opacity:0.7;}</style></defs><g id="leaves-individual"><g id="leaf-1-back"><path class="cls-1" d="M85.74,221.45C68,215.52,10.4,238,9.17,234.51s35.5-23.43,74.59-28.12Z"/><path class="cls-1" d="M90.05,237.36c-27.6-.42-77.71,18.19-79.67,15.11s37.3-26.56,74.56-29.29Z"/><path class="cls-1" d="M81.25,190.13c-11.17-2.6-74,12.55-75.79,6.75-1.89-6,61-20.33,73.53-20Z"/><path class="cls-1" d="M83.31,205.33c-11.56-2.61-72.9,13.27-74.42,10.16-1.8-3.71,58.72-24.3,71.57-24.15Z"/><path class="cls-1" d="M78.53,162.48c-9.48-6.17-68.9-2.2-69.54-5.13-1.52-6.91,57.46-9.88,68-7.1Z"/><path class="cls-1" d="M79.34,175.19c-9.84-3.37-71.63,7.3-72.07,1.32s60-14.92,71.25-13.53Z"/><path class="cls-1" d="M77,137.35c-15.84-9.57-54-10.31-52.3-15.13,2-5.76,36.92-2.49,53.38,4.23Z"/><path class="cls-1" d="M77.84,150.08c-8.64-4.22-61.18-10.48-61.22-13.29-.08-6.08,51.45-.81,61.57,1.7Z"/><path class="cls-1" d="M77.53,125c-7.11-7.84-45.31-15.55-44-20.38,1-3.87,37.11,5.64,45.3,8.2Z"/><path class="cls-1" d="M80.23,98.17c-37.13-20.25-54.11-35.34.2-10.77Z"/><path class="cls-1" d="M79,110.93C32.57,90.41,20.41,81,80.35,99.8Z"/><path class="cls-1" d="M82.27,85.69C76.72,83.3,52.84,67.84,54.62,61.07,56.15,55.27,75.79,76,82.24,77Z"/><path class="cls-1" d="M87.75,46.2c-.89-2.81-11.55-19-8.54-21.87,1.46-1.37,10,9,11.43,11.84Z"/><path class="cls-1" d="M93.8,23.32c-3.13-5.41-9.64-16.44,1.73-4.9Z"/><path class="cls-1" d="M91.17,35.34c-.66-1.67-7.46-15.71-6.38-17.4C85.63,16.64,93,23.37,94,25Z"/><path class="cls-1" d="M82.63,75.22C63.5,55.16,46.93,34.8,84,65.11Z"/><path class="cls-1" d="M85.89,54.6c-4-2.59-13-17.2-11.13-22C76.22,28.93,82.92,45,88,46.33Z"/><path class="cls-1" d="M84.89,64C81,60.94,65.54,44.31,68.24,40.11c2.17-3.37,10.43,11,17.43,15.75Z"/><path class="cls-1" d="M96.9,19.13c4.06-11.76.31-11.5-4.06-.73Z"/><path class="cls-1" d="M86.63,222.2c10.32-6.86,81.66-13.78,81.9-17.46s-71.63-2.45-84.09,2.43Z"/><path class="cls-1" d="M91.05,237.3c10.57-7.23,84.08-20.13,84.15-23.77s-74.27,3.65-87.2,9Z"/><path class="cls-1" d="M82.37,190.26c10.41-4.81,75-2.81,75.57-8.86.62-6.29-65.23-6.63-77.43-3.81Z"/><path class="cls-1" d="M84.58,206c10.42-5.66,78.54-9.58,79.15-13,.73-4.06-67.88-4.89-80.2-1.25Z"/><path class="cls-1" d="M78.52,163.62c9-4.45,64.21-8.29,64.43-11.28.53-7.05-54.08-3.68-64.62-1.05Z"/><path class="cls-1" d="M80.5,176.24c9.27-4.72,68.78-4.28,68.38-10.27s-58.32-4.9-69.29-1.94Z"/><path class="cls-1" d="M78.43,137.46c55.87-16,77.12-27.15,1-10.91Z"/><path class="cls-1" d="M78.57,150.38c69.16-14,81.66-23.06.63-11.57Z"/><path class="cls-1" d="M88.67,45.75c2.13-2,17.22-12.19,16-16.11-.61-1.9-11,4.15-13.63,5.93Z"/><path class="cls-1" d="M94.43,22.79c5.35-3.22,16.38-9.73.85-5.12Z"/><path class="cls-1" d="M90.92,34.59C96.33,30,115.29,15,93.41,24.2Z"/><path class="cls-1" d="M78.28,124.69c50.14-14.52,69.71-26.77,1-12.2Z"/><path class="cls-1" d="M80.68,97.85c41.67-10.42,58.41-22.3,1.84-10.61Z"/><path class="cls-1" d="M79.53,110.63c46.6-13.44,62.91-21.74.73-11.2Z"/><path class="cls-1" d="M81,85.22c5.91-1.3,32.8-8.09,32.33-15.08-.4-6-24.14,6.78-30.65,6.52Z"/><path class="cls-1" d="M82.15,75.06C107,65.54,125.36,51.61,84,65.48Z"/><path class="cls-1" d="M86.24,54c4.72-.35,18.32-10.33,19-15.38.52-4-11.76,8.43-16.81,7.14Z"/><path class="cls-1" d="M84.29,64c4.88-.86,23-9.52,22.67-14.5-.27-4-12.7,4.86-21.14,5.68Z"/><path class="cls-2" d="M97,16c-3.07,9.38-5.47,19.05-7.6,28.72S85.56,64.15,84.13,74s-2.52,19.68-3.27,29.56-1.15,19.79-1.25,29.69.24,19.81.82,29.69c.37,4.94.68,9.88,1.24,14.79s1.11,9.84,1.75,14.74A377.88,377.88,0,0,0,96.2,250.27l-4.79,1.44A382.45,382.45,0,0,1,79.26,193c-.58-5-1.19-9.93-1.57-14.91s-.74-10-1-14.95c-.44-10-.65-20-.42-30s.78-20,1.66-29.89S80,83.43,81.58,73.58,85,53.93,87.27,44.21s4.81-19.35,8-28.83Z"/></g></g></svg>