<svg xmlns="http://www.w3.org/2000/svg" viewBox="0 0 178.16 262.75"><defs><style>.cls-1{fill:#27701b;}.cls-2{fill:#6f5637;}</style></defs><g id="leaves-individual"><g id="leaf-1-back"><path class="cls-1" d="M87.67,214.59c-18.38-3.37-72.24,27-73.95,23.78S45.55,210.14,83.57,200Z"/><path class="cls-1" d="M94.19,229.72c-27.38,3.5-74.35,29-76.73,26.26s33.16-31.59,69.66-39.57Z"/><path class="cls-1" d="M78.78,184.21c-11.43-1-71.44,22.92-74.06,17.43C2,195.93,62.23,172.87,74.66,171.37Z"/><path class="cls-1" d="M83,199c-11.81-.94-70.29,23.47-72.23,20.61-2.31-3.42,54.68-32.38,67.42-34.05Z"/><path class="cls-1" d="M72.17,157.24C61.92,152.47,3.65,164.82,2.6,162c-2.48-6.62,55.49-17.92,66.3-16.67Z"/><path class="cls-1" d="M74.78,169.7c-10.22-1.94-69.87,17.38-71.16,11.52S60.88,158,72.23,157.73Z"/><path class="cls-1" d="M67.06,132.58C50,125.35,12.17,130,13.14,125c1.17-6,36.19-7.69,53.44-3.37Z"/><path class="cls-1" d="M69.74,145.05c-9.16-2.94-62.06-1.69-62.49-4.47-.94-6,50.81-8.1,61.19-7.05Z"/><path class="cls-1" d="M65.87,120.25c-8.15-6.76-47.05-9-46.48-13.94.46-4,37.54.32,46,1.7Z"/><path class="cls-1" d="M64.75,93.33C57.58,91.6,26.3,77.93,27.05,75c1.13-4.33,28.3,7.8,36.36,7.61Z"/><path class="cls-1" d="M65.28,106.15C58,103.76,21.68,94.36,22.14,90.39c.3-2.61,34.72,4.11,43,4.53Z"/><path class="cls-1" d="M65,80.69c-5.84-1.58-31.67-13.5-30.87-20.46.69-6,23.08,11.78,29.6,11.83Z"/><path class="cls-1" d="M64.82,40.82c-1.28-2.65-14.13-17.21-11.56-20.43,1.25-1.57,11.14,7.49,13,10.09Z"/><path class="cls-1" d="M67.57,17.31c-.75-1.15-7-8.12-5.8-9.35.23-.23,5.82,3.16,6.82,4.26Z"/><path class="cls-1" d="M66.67,29.59c-.9-1.56-9.62-14.5-8.78-16.32C58.53,11.86,66.78,17.48,68,19Z"/><path class="cls-1" d="M63.87,70.27C59.71,67,38.56,50.6,39.67,47.81,41,44.46,60.81,60.7,63.75,60.07Z"/><path class="cls-1" d="M64.17,49.4c-4.3-2-15.3-15.19-14.13-20.15.92-3.89,9.83,11.09,15,11.67Z"/><path class="cls-1" d="M64.52,58.89c-4.26-2.53-22-16.79-19.87-21.34,1.66-3.63,11.88,9.37,19.48,13.13Z"/><path class="cls-1" d="M70,12.73c.56-2.16,1.27-8.45.08-9.22s-3.64,6.91-4.2,9.07Z"/><path class="cls-1" d="M88.65,215.21c9.25-8.26,83.28-15,83-18.65S96,194,84.36,200.63Z"/><path class="cls-1" d="M95.17,229.52c9.44-8.65,80.92-16.34,80.47-20s-73.54-1.35-85.58,5.79Z"/><path class="cls-1" d="M79.91,184.19c9.62-6.24,75.73-9.55,75.73-15.63,0-3-67.69-1.17-79.37,3.35Z"/><path class="cls-1" d="M84.34,199.48c9.5-7.07,79.18-14.46,79.3-17.92.15-4.13-70.68-1.37-82.37,4Z"/><path class="cls-1" d="M72.33,158.36c8.3-5.68,62.38-15.31,62.18-18.29-.48-7.06-54.06,2-64.12,6.11Z"/><path class="cls-1" d="M76.07,170.57c8.51-6,69.9-13.18,69.57-16-.7-6-61.76-.43-72.19,4.06Z"/><path class="cls-1" d="M68.53,132.48c8.39-4,49-19.47,48.92-24.57,0-2.58-39.6,11.21-49.48,13.63Z"/><path class="cls-1" d="M70.49,145.25c8.4-4.7,55.72-18,55.59-20.77-.27-6.08-46.63,6.14-56.6,9.22Z"/><path class="cls-1" d="M65.66,40.24C67.49,37.93,81,25.74,79.17,22c-.87-1.79-10.28,5.67-12.65,7.81Z"/><path class="cls-1" d="M68.11,16.7c1-1,8.57-6.4,7.69-7.86-.17-.28-6.36,1.81-7.57,2.67Z"/><path class="cls-1" d="M66.31,28.88c1.21-1.33,11.62-12.71,11.2-14.67-.32-1.51-8.67,2.83-10.2,4Z"/><path class="cls-1" d="M66.57,119.86c7-4,44.53-19.76,43.49-24.65-.83-3.91-35.88,10.25-44.18,12.42Z"/><path class="cls-1" d="M65.14,93c7-2.4,36.85-16.48,36.23-19.41-1.27-6-27.87,8.07-35.91,8.64Z"/><path class="cls-1" d="M65.82,105.77c7-3.07,40.62-18,39.79-21.88C105.07,81.32,73.1,93.38,65,94.58Z"/><path class="cls-1" d="M63.7,80.4C69.36,78.28,95,67.74,93.57,60.89,92.32,55,70.63,71,64.15,71.69Z"/><path class="cls-1" d="M63.37,70.18c4.78-2.3,24.83-15.3,24.21-18.24-1-4.73-18.29,7.83-23.76,8.5Z"/><path class="cls-1" d="M64.43,48.76c4.63-1,16.68-12.82,16.62-17.92,0-4-10.45,10-15.63,9.45Z"/><path class="cls-1" d="M63.92,59c4.71-1.54,21.43-12.68,20.39-17.57C83.48,37.48,72.43,48,64.18,50Z"/><path class="cls-2" d="M69.7,9.56c-1.46,10.28-2.31,20.71-2.88,31.12S66,61.53,66.16,72a484.37,484.37,0,0,0,4.65,62.32A408.23,408.23,0,0,0,84.1,195.22c1.42,5,3.19,9.89,4.8,14.83l2.69,7.31L92.94,221l1.47,3.61,3,7.21,3.21,7.09,1.6,3.55L103.9,246l3.47,7-4.45,2.29-3.43-7.13-1.71-3.56-1.59-3.62L93,233.65l-2.9-7.34-1.45-3.67-1.32-3.72-2.63-7.44c-1.57-5-3.29-10-4.66-15.07a411.19,411.19,0,0,1-12.63-61.68A489.81,489.81,0,0,1,63.57,72q0-15.73,1.07-31.42c.71-10.46,1.69-20.89,3.3-31.28Z"/></g></g></svg>