<svg xmlns="http://www.w3.org/2000/svg" viewBox="0 0 195.27 263.43"><defs><style>.cls-1{fill:#cfdee3;}.cls-2{fill:#3a2b26;}</style></defs><g id="leaves-individual"><g id="leaf-16-back-no-dots"><polygon class="cls-1" points="95.52 249.25 0 170.56 92.52 222.33 0.86 131.14 88.97 196.29 4.33 96.33 89.41 165.45 3.87 58.88 89.12 131.18 21.53 32.69 91.87 101.34 36.84 9.99 96.1 69.85 52.15 0 100.57 43.57 76.45 2.1 104.91 25.57 135.86 26.29 101.53 43.3 172.46 48.27 98.1 69.56 174.93 78.51 94 101.08 172.79 111.35 91.21 130.63 180.56 133.73 93 166.12 188.32 156.11 92.18 197 194.08 185.71 95.33 221.98 195.27 209.37 106.98 255.55 95.52 249.25"/><path class="cls-2" d="M106.83,24.57c-3.86,19.49-6.86,39.26-9.24,59S93.58,123.21,93,143s-.21,39.66,2.21,59.1a194.21,194.21,0,0,0,5.57,28.55,100.63,100.63,0,0,0,10.89,25.89l-11.47,6.86A113,113,0,0,1,88.85,233.8,204.94,204.94,0,0,1,84,203.33c-1.79-20.35-1.44-40.63-.12-60.74s3.75-40.1,6.84-59.95,6.83-39.54,11.45-59.13Z"/></g></g></svg>