<svg xmlns="http://www.w3.org/2000/svg" viewBox="0 0 182.47 262.77"><defs><style>.cls-1{fill:#27701b;}.cls-2{fill:#3a2b26;}</style></defs><g id="leaves-individual"><g id="leaf-4-front"><polygon class="cls-1" points="98.06 238.95 182.47 157.09 98.88 213.46 178.62 120.08 100.44 188.97 172.51 87.38 97.52 159.78 169.9 51.86 95.01 127.28 151.04 28.48 89.98 99.24 134.69 8.22 83.41 69.75 119.38 0 77.04 45.22 96.53 3.96 71.47 28.52 42.2 31.7 76.11 45.03 9.31 55.51 81.49 69.64 9.43 84.36 87.94 99.16 14.13 115.3 92.98 126.94 8.59 137.13 94.18 160.71 3.05 158.97 97.46 189.89 0 187.48 96.5 213.82 0.8 209.99 87.74 245.9 98.06 238.95"/><path class="cls-2" d="M73.67,28.06C80.19,46.77,85.81,65.68,90.86,84.8q3.78,14.34,7,28.84c2.11,9.68,4.08,19.39,5.7,29.18a387.78,387.78,0,0,1,5.86,59.51,213.33,213.33,0,0,1-1.78,30.31,113.25,113.25,0,0,1-8.07,30.13l-12-5.54a100.55,100.55,0,0,0,8.06-26.49,200.64,200.64,0,0,0,2.7-28.5,379.39,379.39,0,0,0-3.64-58.08c-1.25-9.68-2.84-19.33-4.58-29S86.38,96,84.23,86.42c-4.32-19.11-9.25-38.16-15-56.85Z"/></g></g></svg>