<svg xmlns="http://www.w3.org/2000/svg" viewBox="0 0 195.27 263.43"><defs><style>.cls-1{fill:#cfdee3;}.cls-2{fill:#6f5637;}.cls-3{fill:#4a3426;}</style></defs><g id="leaves-individual"><g id="leaf-1-back"><path class="cls-1" d="M97.72,221.37c-20.5-2.8-72.23,19.27-73.76,15.79s30.8-23.25,70.55-31.1Z"/><path class="cls-1" d="M103.38,237.36C75,239.08,36.07,251.91,33.82,248.91S59,228.9,97,223.2Z"/><path class="cls-1" d="M90.67,189.56c-11.67-1.79-71.13,15.07-73.44,9.25-2.41-6.05,57.22-22,70.09-22.73Z"/><path class="cls-1" d="M94,205c-12.06-1.78-70,15.72-71.77,12.64C20.05,214,76.76,191.71,90,190.87Z"/><path class="cls-1" d="M85.73,161.4c-10.2-5.6-70.9,3.09-71.79.14-2.09-7,58.23-14.62,69.25-12.58Z"/><path class="cls-1" d="M87.55,174.37c-10.36-2.68-73,13.07-73.88,7s60.41-20,72.09-19.43Z"/><path class="cls-1" d="M82.17,135.72c-17-8.59-54.91-6.22-54.87-11.47,0-4.21,37.71-5.42,55.13.2Z"/><path class="cls-1" d="M84.07,148.71c-9.21-3.65-63.63-6-63.88-8.87-.56-6.24,52.75-4.84,63.33-3.05Z"/><path class="cls-1" d="M81.79,123C68.43,112.72,34.37,112.56,35.3,107.5c.74-4,40.08-.61,46.85,2.86Z"/><path class="cls-1" d="M82.48,95.24C75.24,93,44.05,76.79,45,73.86c1.45-4.37,28.53,10,36.82,10.31Z"/><path class="cls-1" d="M82.16,108.44c-7.31-3-44-15.09-43.24-19.14.49-2.66,35.38,6.6,43.81,7.6Z"/><path class="cls-1" d="M83.61,82.28c-5.89-2-31.61-16-30.3-23.13C54.42,53.07,76.2,72.82,82.9,73.33Z"/><path class="cls-1" d="M86.16,41.31C85,38.5,72.82,22.66,75.69,19.53,77.08,18,86.62,28,88.34,30.78Z"/><path class="cls-1" d="M90.59,17.35c-.68-1.23-6.6-8.82-5.31-10C85.53,7.12,91,11,92,12.19Z"/><path class="cls-1" d="M88.83,29.9C88,28.23,80,14.34,80.92,12.53c.76-1.4,8.85,4.94,10,6.57Z"/><path class="cls-1" d="M83.16,71.5c-4-3.67-24.64-22-23.31-24.73C61.44,43.42,80.68,61.45,83.74,61Z"/><path class="cls-1" d="M84.9,50.08c-4.27-2.36-14.68-16.65-13.13-21.67,1.21-3.93,9.34,12.07,14.61,13Z"/><path class="cls-1" d="M84.61,59.85c-4.2-2.89-21.4-18.75-19-23.28C67.62,33,77.22,47,84.78,51.39Z"/><path class="cls-1" d="M93.45,12.81c.72-2.18,1.88-8.59.72-9.46s-4.22,6.85-5,9Z"/><path class="cls-1" d="M98.69,222.07c17.52-18.64,76.85-13.15,76.81-16.95S127.22,195,95.28,206.81Z"/><path class="cls-1" d="M104.4,237.23c24.43-17.55,76.48-12.91,76.26-16.66s-52.77-12.23-80.53,1.74Z"/><path class="cls-1" d="M91.84,189.62c10.3-5.76,72-11,72.17-17.3.15-6.51-62.77.59-75.07,4.43Z"/><path class="cls-1" d="M95.34,205.63c10.24-6.62,72.32-12.25,73.38-16.9.94-4.14-63.21-2.33-75.58,2.36Z"/><path class="cls-1" d="M85.81,162.56c8.93-5.27,65.27-13.5,65.27-16.58,0-7.28-55.81.42-66.42,3.94Z"/><path class="cls-1" d="M88.83,175.36c9.15-5.56,70.27-9.74,69.39-15.85S98,159,87,162.91Z"/><path class="cls-1" d="M83.69,135.72c8.9-3.56,51.78-18.7,52.07-23.94.14-2.66-41.58,10.85-51.89,12.66Z"/><path class="cls-1" d="M84.83,149c8.94-4.25,58.6-16.69,58.66-19.58.14-6.26-48.46,5.16-58.91,7.65Z"/><path class="cls-1" d="M87.07,40.77c2-2.24,16.73-13.84,15.12-17.77-.78-1.91-11,5.12-13.53,7.14Z"/><path class="cls-1" d="M91.19,16.76c1.07-.92,9.24-6,8.44-7.55-.15-.3-6.66,1.42-8,2.22Z"/><path class="cls-1" d="M88.51,29.14c1.34-1.28,12.8-12.26,12.51-14.3-.23-1.57-9.1,2.32-10.76,3.44Z"/><path class="cls-1" d="M82.54,122.62c7.48-3.66,47.1-17.24,46.37-22.34-.59-4.08-37.57,8.07-46.24,9.73Z"/><path class="cls-1" d="M82.92,94.88c7.32-2,39-14.39,38.54-17.45-.89-6.2-29.18,6.38-37.47,6.42Z"/><path class="cls-1" d="M82.73,108.09c7.42-2.66,43-15.67,42.38-19.74-.39-2.68-34,7.51-42.51,8.19Z"/><path class="cls-1" d="M82.3,81.89c6-1.79,33-10.86,32-18-.88-6.12-24.25,8.83-31,9.07Z"/><path class="cls-1" d="M82.66,71.37c5.07-2,26.55-14,26.11-17.08-.71-4.93-19.32,6.79-25,7.1Z"/><path class="cls-1" d="M85.21,49.43c4.83-.73,18-12,18.3-17.26.22-4.11-11.42,9.57-16.7,8.64Z"/><path class="cls-1" d="M84,59.88c4.94-1.26,22.88-11.56,22.15-16.65-.59-4.08-12.66,6-21.27,7.48Z"/><path class="cls-2" d="M93.28,9.55c-2.42,9.87-4.13,20-5.57,30.08s-2.44,20.28-3.14,30.46-1.07,20.39-1.07,30.6.36,20.4,1,30.58,1.79,20.32,3.14,30.42c.77,5,1.47,10.08,2.42,15.09s1.91,10,2.94,15a388.85,388.85,0,0,0,17.61,58.4L106,252a392.91,392.91,0,0,1-17-59.34c-1-5-2-10.09-2.78-15.18s-1.53-10.17-2.24-15.26c-1.23-10.21-2.22-20.45-2.77-30.71s-.75-20.55-.62-30.82S81.16,80.13,82,69.9s2-20.44,3.56-30.59,3.42-20.23,6-30.22Z"/><circle class="cls-3" cx="108.71" cy="227.03" r="3.75"/><circle class="cls-3" cx="104.39" cy="211.85" r="3.5"/><circle class="cls-3" cx="99.66" cy="196.4" r="3.02"/><circle class="cls-3" cx="96.39" cy="180.92" r="3.02"/><circle class="cls-3" cx="93.37" cy="167.14" r="3.02"/><circle class="cls-3" cx="92.49" cy="153.75" r="3.02"/><circle class="cls-3" cx="90.73" cy="141.52" r="3.02"/><circle class="cls-3" cx="89.5" cy="127.99" r="2.99" transform="translate(-17.31 14.04) rotate(-8.18)"/><circle class="cls-3" cx="88.7" cy="114.12" r="2.87" transform="translate(-15.34 13.79) rotate(-8.18)"/><circle class="cls-3" cx="87.7" cy="101.12" r="2.87" transform="translate(-13.5 13.51) rotate(-8.18)"/><circle class="cls-3" cx="88.46" cy="88.4" r="2.8" transform="translate(-11.68 13.49) rotate(-8.18)"/><circle class="cls-3" cx="88.46" cy="75.9" r="2.65" transform="matrix(0.99, -0.14, 0.14, 0.99, -9.9, 13.36)"/><circle class="cls-3" cx="88.46" cy="64.08" r="2.5" transform="translate(-8.22 13.24) rotate(-8.18)"/><circle class="cls-3" cx="89.42" cy="53.23" r="2.35" transform="translate(-6.67 13.27) rotate(-8.18)"/><circle class="cls-3" cx="90.31" cy="43.28" r="2.2" transform="translate(-5.24 13.3) rotate(-8.18)"/><circle class="cls-3" cx="91.52" cy="32.46" r="2.1" transform="translate(-3.69 13.36) rotate(-8.18)"/></g></g></svg>