<svg id="outside-pa" xmlns="http://www.w3.org/2000/svg" xmlns:xlink="http://www.w3.org/1999/xlink" viewBox="0 0 1920 1257"><defs><style>.cls-1{fill:url(#radial-gradient);}.cls-2{fill:url(#radial-gradient-2);}.cls-3{fill:url(#radial-gradient-3);}.cls-4{opacity:0.53;fill:url(#radial-gradient-4);}.cls-5,.cls-7{opacity:0.73;}.cls-5{fill:url(#radial-gradient-5);}.cls-6{opacity:0.71;fill:url(#radial-gradient-6);}.cls-7{fill:url(#radial-gradient-7);}.cls-8{fill:url(#radial-gradient-8);}.cls-9{fill:url(#radial-gradient-9);}.cls-10{opacity:0.74;fill:url(#radial-gradient-10);}.cls-11,.cls-13,.cls-14{opacity:0.39;}.cls-11{fill:url(#radial-gradient-11);}.cls-12{opacity:0.49;fill:url(#radial-gradient-12);}.cls-13{fill:url(#radial-gradient-13);}.cls-14{fill:url(#radial-gradient-14);}.cls-15{fill:url(#radial-gradient-15);}.cls-16,.cls-17{opacity:0.58;}.cls-16{fill:url(#radial-gradient-16);}.cls-17{fill:url(#radial-gradient-17);}.cls-18{fill:#343540;}.cls-19{fill:#23242b;}.cls-20{fill:#4d5233;}.cls-21,.cls-39,.cls-40,.cls-42,.cls-43,.cls-44,.cls-45,.cls-47,.cls-48,.cls-49{fill:none;stroke-miterlimit:10;}.cls-21{stroke:#342b1a;stroke-width:20px;}.cls-22{fill:#5c613c;}.cls-23{fill:#43452d;}.cls-24{fill:#3a4000;}.cls-25{fill:#36382d;}.cls-26{fill:#36331f;}.cls-27{fill:#302e1c;}.cls-28{fill:#453b2d;}.cls-29{fill:#545454;}.cls-30{fill:#666;}.cls-31{fill:#696969;}.cls-32{fill:#423823;}.cls-33{fill:#544826;}.cls-34{fill:#52452c;}.cls-35{fill:#403522;}.cls-36{fill:#2b261d;}.cls-37{fill:#6b5c30;}.cls-38{fill:#362e1d;}.cls-39,.cls-40{stroke:#421c0d;}.cls-39{stroke-width:24px;}.cls-40{stroke-width:17.52px;}.cls-41{fill:#171717;}.cls-42,.cls-43,.cls-44,.cls-45{stroke:#fff;stroke-linecap:round;opacity:0.2;}.cls-42{stroke-width:2px;stroke-dasharray:60 30 20 50 25 40;}.cls-43{stroke-width:4px;stroke-dasharray:65 15 20 30 50 90;}.cls-44{stroke-width:3px;stroke-dasharray:62.83 31.42 20.94 52.36 26.18 41.89;}.cls-45{stroke-width:5px;stroke-dasharray:68.07 15.71 20.94 31.42 52.36 94.25;}.cls-46{fill:#3b2300;}.cls-47,.cls-48{stroke:#3b2300;}.cls-47,.cls-49{stroke-width:70px;}.cls-48{stroke-width:40px;}.cls-49{stroke:#331e00;}.cls-50{opacity:0.5;}.cls-51{opacity:0.7;}</style><radialGradient id="radial-gradient" cx="1375.57" cy="156.01" fx="1582.3639965416558" fy="301.6451562007138" r="1371.44" gradientUnits="userSpaceOnUse"><stop offset="0.03" stop-color="#f7b113"/><stop offset="0.04" stop-color="#e6a11e"/><stop offset="0.09" stop-color="#b1723e"/><stop offset="0.12" stop-color="#905551"/><stop offset="0.14" stop-color="#844a59"/><stop offset="0.16" stop-color="#6d3c4e"/><stop offset="0.19" stop-color="#542c43"/><stop offset="0.23" stop-color="#41213a"/><stop offset="0.27" stop-color="#331834"/><stop offset="0.32" stop-color="#2b1330"/><stop offset="0.41" stop-color="#29122f"/><stop offset="0.48" stop-color="#24112c"/><stop offset="0.76" stop-color="#160e21"/><stop offset="1" stop-color="#110d1e"/></radialGradient><radialGradient id="radial-gradient-2" cx="63.37" cy="10.57" r="7.78" gradientUnits="userSpaceOnUse"><stop offset="0.16" stop-color="#fbfcff"/><stop offset="0.21" stop-color="#e0e1e5" stop-opacity="0.89"/><stop offset="0.29" stop-color="#b0b0b7" stop-opacity="0.68"/><stop offset="0.38" stop-color="#86848e" stop-opacity="0.5"/><stop offset="0.47" stop-color="#62606c" stop-opacity="0.35"/><stop offset="0.57" stop-color="#444250" stop-opacity="0.22"/><stop offset="0.66" stop-color="#2e2a3a" stop-opacity="0.12"/><stop offset="0.76" stop-color="#1e1a2a" stop-opacity="0.05"/><stop offset="0.87" stop-color="#141021" stop-opacity="0.01"/><stop offset="1" stop-color="#110d1e" stop-opacity="0"/></radialGradient><radialGradient id="radial-gradient-3" cx="297.19" cy="46.58" r="3.23" xlink:href="#radial-gradient-2"/><radialGradient id="radial-gradient-4" cx="-2760.77" cy="-585.35" r="6.64" gradientTransform="translate(3304.66 -824.63) rotate(-30)" xlink:href="#radial-gradient-2"/><radialGradient id="radial-gradient-5" cx="28.69" cy="126.17" r="3.23" xlink:href="#radial-gradient-2"/><radialGradient id="radial-gradient-6" cx="3952.39" cy="-1115.1" r="3.23" gradientTransform="matrix(0.88, 0.48, -0.48, 0.88, -3087.42, -879.54)" xlink:href="#radial-gradient-2"/><radialGradient id="radial-gradient-7" cx="3353.72" cy="-718.42" r="3.23" gradientTransform="matrix(0.88, 0.48, -0.48, 0.88, -3087.42, -879.54)" xlink:href="#radial-gradient-2"/><radialGradient id="radial-gradient-8" cx="3568.83" cy="-910.34" r="3.23" gradientTransform="matrix(0.88, 0.48, -0.48, 0.88, -3087.42, -879.54)" xlink:href="#radial-gradient-2"/><radialGradient id="radial-gradient-9" cx="777.11" cy="60.45" r="3.23" xlink:href="#radial-gradient-2"/><radialGradient id="radial-gradient-10" cx="3669.21" cy="-897.37" r="3.23" gradientTransform="matrix(0.88, 0.48, -0.48, 0.88, -3087.42, -879.54)" xlink:href="#radial-gradient-2"/><radialGradient id="radial-gradient-11" cx="4280.35" cy="-1278.8" r="3.23" gradientTransform="matrix(0.88, 0.48, -0.48, 0.88, -3087.42, -879.54)" xlink:href="#radial-gradient-2"/><radialGradient id="radial-gradient-12" cx="1053.46" cy="79.8" r="3.23" xlink:href="#radial-gradient-2"/><radialGradient id="radial-gradient-13" cx="4720.6" cy="-1557.97" r="3.23" gradientTransform="matrix(0.88, 0.48, -0.48, 0.88, -3087.42, -879.54)" xlink:href="#radial-gradient-2"/><radialGradient id="radial-gradient-14" cx="4833.82" cy="-1565.89" r="3.23" gradientTransform="matrix(0.88, 0.48, -0.48, 0.88, -3087.42, -879.54)" xlink:href="#radial-gradient-2"/><radialGradient id="radial-gradient-15" cx="213.41" cy="29.89" r="3.23" xlink:href="#radial-gradient-2"/><radialGradient id="radial-gradient-16" cx="3451.97" cy="-678.91" r="3.23" gradientTransform="matrix(0.88, 0.48, -0.48, 0.88, -3087.42, -879.54)" xlink:href="#radial-gradient-2"/><radialGradient id="radial-gradient-17" cx="3778.87" cy="-890.2" r="3.23" gradientTransform="matrix(0.88, 0.48, -0.48, 0.88, -3087.42, -879.54)" xlink:href="#radial-gradient-2"/></defs><g id="sky"><rect class="cls-1" x="-50" y="-50" width="2020" height="723.89"/></g><g id="stars"><path class="cls-2" d="M71.26,10.57c.15,10.24-15.93,10.24-15.78,0C55.33.34,71.41.34,71.26,10.57Z"/><path class="cls-3" d="M300.47,46.58c.06,4.25-6.62,4.25-6.56,0S300.53,42.32,300.47,46.58Z"/><path class="cls-4" d="M626.92,45.47c4.48,7.5-7.4,14.36-11.66,6.73C610.78,44.7,622.67,37.84,626.92,45.47Z"/><path class="cls-5" d="M32,126.17c.07,4.25-6.62,4.25-6.55,0S32,121.91,32,126.17Z"/><path class="cls-6" d="M920.55,29.86c-2,3.77-7.85.58-5.76-3.13S922.63,26.16,920.55,29.86Z"/><path class="cls-7" d="M205.11,92.47c-2,3.77-7.84.58-5.76-3.13S207.2,88.77,205.11,92.47Z"/><path class="cls-8" d="M485.77,26.58c-2,3.77-7.85.58-5.76-3.13S487.85,22.88,485.77,26.58Z"/><path class="cls-9" d="M780.39,60.45c.06,4.25-6.62,4.25-6.56,0S780.45,56.19,780.39,60.45Z"/><path class="cls-10" d="M567.76,85.92c-2,3.76-7.85.57-5.76-3.13S569.85,82.21,567.76,85.92Z"/><path class="cls-11" d="M1286.87,42.66c-2,3.76-7.85.57-5.76-3.13S1289,39,1286.87,42.66Z"/><path class="cls-12" d="M1056.74,79.8c.06,4.25-6.62,4.25-6.56,0S1056.8,75.55,1056.74,79.8Z"/><path class="cls-13" d="M1807,7.64c-2,3.77-7.84.58-5.76-3.13S1809.08,3.93,1807,7.64Z"/><path class="cls-14" d="M1910.25,54.75c-2,3.77-7.85.58-5.76-3.13S1912.34,51,1910.25,54.75Z"/><path class="cls-15" d="M216.69,29.89c.06,4.25-6.62,4.25-6.56,0S216.75,25.64,216.69,29.89Z"/><path class="cls-16" d="M272.56,174.11c-2,3.77-7.84.58-5.76-3.13S274.65,170.4,272.56,174.11Z"/><path class="cls-17" d="M660.69,144.59c-2,3.77-7.85.58-5.76-3.13S662.77,140.89,660.69,144.59Z"/></g><g id="mountains"><path class="cls-18" d="M-45.5,191.5c199.76-55.48,123.39-88.63,287,47,246.71-158.42,142.79-138.6,414-41l327-73,94,32,142-57,373.78,139,124.22-93,166,34,83-57V1128.72H-45.5Z"/><polygon class="cls-19" points="120.5 138.5 153.5 272.5 241.5 238.5 120.5 138.5"/><polygon class="cls-19" points="434.5 113.5 481.61 421.25 634.59 428.03 655.5 197.5 434.5 113.5"/><polygon class="cls-19" points="982.5 124.5 1109.5 404.5 1076.5 156.5 982.5 124.5"/><polygon class="cls-19" points="1882.5 179.5 1850.5 278.5 1716.5 145.5 1882.5 179.5"/><polygon class="cls-19" points="1218.5 99.5 1445.5 274.5 1592.5 238.5 1218.5 99.5"/></g><g id="bushes"><path class="cls-20" d="M1217.55,535c.67,47.62-149.2,47.62-148.51,0C1068.37,487.38,1218.24,487.39,1217.55,535Z"/><line class="cls-21" x1="154.61" y1="388.16" x2="163.17" y2="535.52"/><path class="cls-22" d="M202.29,389.4c1.88,34.79-126.32,34.79-124.44,0C76,354.61,204.18,354.61,202.29,389.4Z"/><line class="cls-21" x1="578.58" y1="405.01" x2="564.39" y2="541.53"/><path class="cls-23" d="M1796.94,539.36c.2,61.6-148.72,61.59-148.51,0C1648.23,477.76,1797.15,477.77,1796.94,539.36Z"/><path class="cls-24" d="M495.4,522.27c0,67.63-148.57,67.62-148.52,0S495.45,454.65,495.4,522.27Z"/><path class="cls-23" d="M735.44,528.11c.43,56.66-154.8,56.65-154.35,0C580.66,471.45,735.88,471.46,735.44,528.11Z"/><path class="cls-23" d="M373,528.11c.33,59.88-154.69,59.87-154.35,0C218.34,468.23,373.35,468.24,373,528.11Z"/><path class="cls-20" d="M1329.7,527.48c.08,66.13-148.6,66.12-148.51,0C1181.11,461.34,1329.79,461.35,1329.7,527.48Z"/><path class="cls-25" d="M109.44,522.06c-.35,89.62-148.18,89.62-148.52,0C-38.72,432.44,109.1,432.45,109.44,522.06Z"/><path class="cls-23" d="M302.25,546c2.33,38.39-150.86,38.39-148.52,0C151.4,507.63,304.59,507.63,302.25,546Z"/><path class="cls-24" d="M200,538.91c0,63.19-136,63.18-136,0S200,475.74,200,538.91Z"/><path class="cls-24" d="M411.61,547.88c.6,35.44-116.38,35.43-115.77,0C295.24,512.44,412.22,512.45,411.61,547.88Z"/><path class="cls-25" d="M671.16,549.26c2.37,37-150.91,37-148.52,0C520.26,512.32,673.54,512.32,671.16,549.26Z"/><path class="cls-24" d="M889.11,540.34c.76,45.46-149.29,45.46-148.51,0C739.84,494.88,889.89,494.89,889.11,540.34Z"/><path class="cls-20" d="M549.53,543.31c.61,49.13-149.14,49.12-148.51,0C400.41,494.18,550.16,494.19,549.53,543.31Z"/><path class="cls-20" d="M1373.07,550.94c.76,45.46-149.3,45.45-148.52,0C1223.79,505.48,1373.85,505.49,1373.07,550.94Z"/><path class="cls-23" d="M1487.82,532.67c.16,62.67-148.7,62.66-148.52,0C1339.14,470,1488,470,1487.82,532.67Z"/><path class="cls-20" d="M1610,535.41c.28,58.51-148.82,58.51-148.52,0C1461.15,476.91,1610.25,476.91,1610,535.41Z"/><path class="cls-24" d="M1241,546.57c.26,42-111.28,42-111,0C1129.73,504.58,1241.28,504.58,1241,546.57Z"/><path class="cls-23" d="M1704.22,545.69c.6,40.41-128,40.4-127.4,0C1576.22,505.28,1704.83,505.29,1704.22,545.69Z"/><path class="cls-24" d="M663.15,411.2c2.52,48.88-173,48.88-170.43,0C490.19,362.32,665.69,362.32,663.15,411.2Z"/><path class="cls-22" d="M247.32,383.27c.17,58.9-140.86,58.89-140.67,0C106.48,324.37,247.5,324.38,247.32,383.27Z"/><path class="cls-23" d="M783.29,550.64c.49,29.3-96.2,29.29-95.7,0C687.1,521.35,783.79,521.36,783.29,550.64Z"/><line class="cls-21" x1="1831.45" y1="456.56" x2="1837.33" y2="557.78"/><path class="cls-24" d="M1919.81,419c.11,35.14-84.28,35.13-84.16,0C1835.54,383.87,1919.92,383.88,1919.81,419Z"/><path class="cls-24" d="M1904.86,437.23c.17,58.9-140.86,58.89-140.67,0C1764,378.33,1905,378.34,1904.86,437.23Z"/><path class="cls-24" d="M1842,554.09c.28,34.14-94.51,34.14-94.22,0C1747.5,520,1842.29,520,1842,554.09Z"/><path class="cls-23" d="M1959.83,543.6c.63,43.13-136.64,43.12-136,0C1823.21,500.47,1960.47,500.47,1959.83,543.6Z"/></g><g id="ground"><rect class="cls-26" x="-50" y="566.93" width="2015.5" height="690.07"/><polygon class="cls-27" points="724.67 751.53 -49.22 751.53 -49.22 1204.83 724.67 751.53"/><polygon class="cls-27" points="1204.73 751.53 1978.63 751.53 1978.63 1204.83 1204.73 751.53"/><ellipse class="cls-28" cx="1524.48" cy="597.49" rx="17.05" ry="2.35"/><ellipse class="cls-29" cx="1509.72" cy="596.68" rx="2.72" ry="1.16" transform="translate(-111.23 508.34) rotate(-18.45)"/><ellipse class="cls-30" cx="1538.23" cy="598.48" rx="2.72" ry="1.16" transform="translate(-60.42 187.81) rotate(-6.85)"/><ellipse class="cls-30" cx="1529.17" cy="594.2" rx="1.16" ry="2.72" transform="translate(781.11 2054.28) rotate(-84.11)"/><ellipse class="cls-30" cx="1509.52" cy="598.17" rx="1.16" ry="2.72" transform="translate(605.59 1947) rotate(-77.79)"/><ellipse class="cls-31" cx="1538.48" cy="596.09" rx="1.16" ry="2.72" transform="translate(763.09 2052.46) rotate(-83.15)"/><ellipse class="cls-31" cx="1517.89" cy="599.67" rx="1.16" ry="2.72" transform="translate(765.55 2047.98) rotate(-84.11)"/><ellipse class="cls-31" cx="1520.12" cy="594.41" rx="2.72" ry="1.16" transform="translate(-52.99 159.21) rotate(-5.89)"/><ellipse class="cls-31" cx="1527.65" cy="599.67" rx="2.72" ry="1.16" transform="translate(-25.5 69.52) rotate(-2.59)"/><ellipse class="cls-29" cx="1533.75" cy="599.24" rx="2.72" ry="1.16" transform="translate(-60.54 187.28) rotate(-6.85)"/><ellipse class="cls-29" cx="1524.42" cy="594.56" rx="2.72" ry="1.16" transform="translate(-52.99 159.65) rotate(-5.89)"/><ellipse class="cls-29" cx="1533.65" cy="594.86" rx="1.06" ry="2.12" transform="translate(759.07 2046.06) rotate(-83.11)"/><ellipse class="cls-29" cx="1514.48" cy="599.33" rx="1.16" ry="2.72" transform="translate(608.37 1952.77) rotate(-77.79)"/><ellipse class="cls-29" cx="1514.82" cy="594.93" rx="2.72" ry="1.16" transform="translate(-53.07 158.66) rotate(-5.89)"/><ellipse class="cls-29" cx="1524.15" cy="599.67" rx="2.72" ry="1.16" transform="translate(-25.5 69.37) rotate(-2.59)"/><ellipse class="cls-28" cx="440.03" cy="660.44" rx="44.03" ry="6.07"/><ellipse class="cls-29" cx="401.92" cy="658.37" rx="7.02" ry="3" transform="translate(-187.66 160.99) rotate(-18.45)"/><ellipse class="cls-30" cx="475.54" cy="662.99" rx="7.02" ry="3" transform="translate(-75.71 61.47) rotate(-6.85)"/><ellipse class="cls-30" cx="452.14" cy="651.96" rx="3" ry="7.02" transform="translate(-242.79 1034.77) rotate(-84.11)"/><ellipse class="cls-30" cx="401.39" cy="662.2" rx="3" ry="7.02" transform="translate(-330.73 914.43) rotate(-77.79)"/><ellipse class="cls-31" cx="476.18" cy="656.83" rx="3" ry="7.02" transform="translate(-232.77 1051.25) rotate(-83.15)"/><ellipse class="cls-31" cx="423.02" cy="666.09" rx="3" ry="7.02" transform="translate(-282.98 1018.49) rotate(-84.11)"/><ellipse class="cls-31" cx="428.78" cy="652.51" rx="7.02" ry="3" transform="translate(-64.72 47.47) rotate(-5.89)"/><ellipse class="cls-31" cx="448.21" cy="666.09" rx="7.01" ry="3" transform="matrix(1, -0.05, 0.05, 1, -29.59, 20.9)"/><ellipse class="cls-29" cx="463.98" cy="664.98" rx="7.02" ry="3" transform="translate(-76.03 60.11) rotate(-6.85)"/><ellipse class="cls-29" cx="439.86" cy="652.88" rx="7.02" ry="3" transform="translate(-64.71 48.61) rotate(-5.89)"/><ellipse class="cls-29" cx="463.72" cy="653.66" rx="2.74" ry="5.47" transform="translate(-240.86 1035.6) rotate(-83.11)"/><ellipse class="cls-29" cx="414.21" cy="665.19" rx="3" ry="7.02" transform="translate(-323.54 929.33) rotate(-77.79)"/><ellipse class="cls-29" cx="415.08" cy="653.83" rx="7.02" ry="3" transform="translate(-64.93 46.07) rotate(-5.89)"/><ellipse class="cls-29" cx="439.18" cy="666.09" rx="7.01" ry="3" transform="translate(-29.6 20.49) rotate(-2.59)"/></g><g id="buildings"><polygon class="cls-32" points="534.86 594.07 372.75 630.52 465.44 546.34 534.86 594.07"/><polygon class="cls-33" points="373.78 636.71 472.65 531.77 286.44 501.99 187.15 585.21 373.78 636.71"/><path class="cls-34" d="M472.65,531.77l84.45,63.12c-1.4,8.34-82.67-56.8-84.45-56.23-4.07,2.53-93.25,105.07-98.87,98Z"/><polygon class="cls-35" points="552.41 596.1 534.86 594.07 465.44 546.34 472.65 538.66 552.41 596.1"/><polygon class="cls-36" points="478.62 569.35 497.85 602.39 453.8 612.3 461.94 571.82 478.62 569.35"/><path class="cls-37" d="M444.63,534.91c-3,3.87-6.18,7.6-9.39,11.27s-6.5,7.29-9.81,10.88c-6.6,7.18-13.74,13.84-20.65,20.72L384,598.38l-20.93,20.46-.26-.25,19.86-21.5,20-21.38c6.68-7.1,13.13-14.43,20.13-21.24,3.49-3.4,7-6.8,10.59-10.11s7.22-6.58,11-9.71Z"/><path class="cls-37" d="M373.84,561.4c-2.74,3.49-5.7,6.77-8.71,10s-6.28,6.19-9.43,9.27l-9.5,9.21L336.63,599l-.13-.13,9-9.67,9.1-9.59c3.05-3.19,6-6.5,9.17-9.54s6.44-6,9.9-8.81Z"/><path class="cls-37" d="M359.42,534.85a109.27,109.27,0,0,1-7.45,8.33c-2.59,2.68-5.43,5.08-8.17,7.6l-8.22,7.53-8.29,7.47-.13-.14,7.78-8,7.84-7.93c2.62-2.63,5.13-5.39,7.9-7.86a109.39,109.39,0,0,1,8.61-7.14Z"/><path class="cls-37" d="M313.07,533.64c-2.07,2.59-4.28,5-6.53,7.43s-4.57,4.71-6.91,7c-4.67,4.61-9.84,8.65-14.8,12.93L269.9,573.79c-5,4.22-10,8.47-15.06,12.65l-.25-.27c4.66-4.62,9.38-9.17,14.06-13.75l14.18-13.62c4.75-4.52,9.28-9.27,14.31-13.47,2.51-2.11,5-4.2,7.65-6.2s5.24-4,8-5.77Z"/><path class="cls-37" d="M289.65,517.44a90.94,90.94,0,0,1-7.59,7c-2.61,2.21-5.46,4.13-8.21,6.17l-8.27,6.1-8.33,6-.12-.14L265,536l7.93-6.54c2.65-2.17,5.2-4.46,8-6.46a90.61,90.61,0,0,1,8.61-5.66Z"/><path class="cls-37" d="M307,569.42a57.48,57.48,0,0,1-5.56,6c-1.95,1.89-4.14,3.5-6.23,5.23l-6.3,5.16-6.35,5.09-.12-.14,5.86-5.64,5.93-5.58c2-1.85,3.86-3.82,6-5.51a56.44,56.44,0,0,1,6.66-4.74Z"/><polygon class="cls-32" points="1704.86 616.51 1833.84 645.52 1760.09 578.53 1704.86 616.51"/><polygon class="cls-33" points="1833.03 650.44 1754.36 566.94 1902.52 543.25 1981.51 609.46 1833.03 650.44"/><path class="cls-34" d="M1754.36,566.94l-67.2,50.23c1,6.44,65.85-45.08,67.2-44.75,3.24,2,74.19,83.61,78.66,78Z"/><polygon class="cls-35" points="1690.89 618.13 1704.86 616.51 1760.09 578.53 1754.36 572.42 1690.89 618.13"/><polygon class="cls-36" points="1749.6 596.84 1734.31 623.13 1769.35 631.01 1762.88 598.81 1749.6 596.84"/><path class="cls-37" d="M1776.9,569.2c3.11,2.38,6.07,4.92,9,7.51s5.73,5.25,8.53,7.93c5.62,5.36,10.66,11.29,15.94,17l15.8,17.11c5.21,5.75,10.47,11.47,15.65,17.25l-.29.28c-5.63-5.34-11.19-10.76-16.8-16.13l-16.65-16.28c-5.53-5.45-11.32-10.65-16.51-16.42-2.61-2.88-5.2-5.77-7.69-8.76s-5-6-7.25-9.19Z"/><path class="cls-37" d="M1833.1,590.4a89.38,89.38,0,0,1,8,6.85c2.57,2.39,4.85,5.06,7.26,7.62l7.19,7.69,7.12,7.76-.15.14-7.68-7.2-7.62-7.27c-2.53-2.43-5.18-4.74-7.54-7.34a89.47,89.47,0,0,1-6.77-8.11Z"/><path class="cls-37" d="M1844.57,569.27a63.84,63.84,0,0,1,7,5.5c2.23,2,4.18,4.19,6.26,6.3l6.18,6.37,6.11,6.44-.14.14-6.66-5.86-6.6-5.94c-2.19-2-4.51-3.85-6.53-6a63,63,0,0,1-5.77-6.8Z"/><path class="cls-37" d="M1881.56,568.17a71.73,71.73,0,0,1,6.6,4.36c2.13,1.53,4.17,3.16,6.19,4.81,4.06,3.29,7.57,7.17,11.32,10.8s7.47,7.28,11.17,11,7.4,7.36,11.05,11.1l-.27.3c-4.08-3.27-8.08-6.61-12.12-9.92s-8-6.68-12-10.06-8.19-6.49-11.85-10.2c-1.84-1.86-3.66-3.73-5.4-5.7a72.86,72.86,0,0,1-5-6.14Z"/><path class="cls-37" d="M1900.06,555.41a54.12,54.12,0,0,1,7,4.32c2.24,1.56,4.23,3.44,6.33,5.18l6.26,5.26,6.2,5.34-.12.16L1919,571l-6.63-4.79c-2.2-1.61-4.51-3.08-6.57-4.87a54.86,54.86,0,0,1-5.89-5.73Z"/><path class="cls-37" d="M1886.3,596.77a34.55,34.55,0,0,1,5.46,3.59,63.74,63.74,0,0,1,4.73,4.43l4.66,4.49c1.53,1.53,3.08,3,4.6,4.57l-.13.15c-1.73-1.3-3.42-2.64-5.13-4l-5.06-4a60,60,0,0,1-5-4.12,35.08,35.08,0,0,1-4.27-5Z"/><polygon class="cls-38" points="969.91 453.89 836.22 527.48 836.22 581.92 1103.6 581.92 1103.6 505.43 969.91 453.89"/><polygon class="cls-36" points="1034.68 511.92 997.36 511.92 986.45 581.92 1046.44 581.92 1034.68 511.92"/><rect class="cls-36" x="888.18" y="516.32" width="42.59" height="23.02"/><line class="cls-39" x1="979.66" y1="436.43" x2="793.32" y2="543.15"/><line class="cls-39" x1="963.62" y1="436.22" x2="1149.96" y2="542.93"/><line class="cls-40" x1="827.52" y1="514.33" x2="827.52" y2="581.92"/><line class="cls-40" x1="971.01" y1="414.78" x2="971.01" y2="581.3"/><line class="cls-40" x1="1112.28" y1="514.33" x2="1112.28" y2="581.92"/><polygon class="cls-32" points="1506.58 574.92 1614.9 599.28 1552.96 543.02 1506.58 574.92"/><polygon class="cls-33" points="1614.21 603.41 1548.14 533.29 1672.57 513.39 1738.91 569 1614.21 603.41"/><path class="cls-34" d="M1548.14,533.29l-56.43,42.18,3.14.81,53.29-38.39c2.72,1.7,62.31,70.22,66.07,65.52Z"/><polygon class="cls-35" points="1494.85 576.28 1506.58 574.92 1552.96 543.02 1548.14 537.89 1494.85 576.28"/><polygon class="cls-36" points="1544.15 558.4 1531.31 580.48 1560.74 587.1 1555.3 560.05 1544.15 558.4"/><path class="cls-37" d="M1567.07,535.19c2.62,2,5.11,4.13,7.54,6.3s4.82,4.41,7.17,6.66c4.72,4.51,9,9.48,13.39,14.26l13.26,14.37c4.38,4.83,8.8,9.63,13.15,14.49l-.24.24c-4.74-4.49-9.41-9-14.11-13.56l-14-13.67c-4.64-4.57-9.5-8.94-13.86-13.78-2.19-2.42-4.37-4.85-6.46-7.36s-4.16-5-6.09-7.72Z"/><path class="cls-37" d="M1614.27,553a74.43,74.43,0,0,1,6.75,5.75c2.16,2,4.08,4.25,6.1,6.4l6,6.46,6,6.52-.12.11-6.46-6-6.39-6.11c-2.13-2-4.36-4-6.34-6.16a74.51,74.51,0,0,1-5.68-6.81Z"/><path class="cls-37" d="M1623.9,535.24a53.22,53.22,0,0,1,5.9,4.63c1.87,1.63,3.51,3.51,5.25,5.28l5.19,5.35,5.13,5.41-.11.12-5.6-4.92-5.55-5c-1.84-1.67-3.78-3.23-5.48-5a54.36,54.36,0,0,1-4.84-5.72Z"/><path class="cls-37" d="M1655,534.32a60.46,60.46,0,0,1,5.55,3.66c1.78,1.29,3.5,2.66,5.19,4,3.41,2.76,6.36,6,9.51,9.07l9.38,9.2c3.09,3.11,6.22,6.18,9.28,9.32l-.23.25c-3.42-2.74-6.78-5.55-10.18-8.33l-10.06-8.45c-3.34-2.83-6.88-5.44-10-8.57-1.55-1.55-3.07-3.13-4.53-4.78a58.45,58.45,0,0,1-4.18-5.16Z"/><path class="cls-37" d="M1670.51,523.6a46.16,46.16,0,0,1,5.88,3.63c1.88,1.31,3.55,2.89,5.31,4.35L1687,536l5.21,4.49-.11.13-5.62-4-5.57-4c-1.85-1.35-3.78-2.58-5.51-4.09a44.91,44.91,0,0,1-4.95-4.81Z"/><path class="cls-37" d="M1659,558.34a28.79,28.79,0,0,1,4.58,3,49.78,49.78,0,0,1,4,3.71c2.61,2.51,5.22,5,7.78,7.62l-.12.12c-2.89-2.19-5.72-4.46-8.55-6.73a49.64,49.64,0,0,1-4.19-3.46,28.78,28.78,0,0,1-3.59-4.16Z"/><path class="cls-26" d="M888.34,582.56H739.43C785.42,567.33,842.77,567.48,888.34,582.56Z"/><path class="cls-26" d="M1194.4,582.56H1045.49C1091.48,567.33,1148.83,567.48,1194.4,582.56Z"/></g><g id="people"><path class="cls-41" d="M964.78,525.38h-1.89c0-.24,0-.48,0-.74v-.13c1.64-1,2.89-3.17,2.86-6.47.09-9.52-10.5-9.52-10.41,0,0,3.3,1.22,5.46,2.86,6.47v.13c0,.26,0,.5,0,.74h-1.89c-10.69,0-10.69,48.17-10.69,48.17l7.9,8.75v16.38h3.3l.35-15.75,3.34.23,3.35-.23.35,15.75h3.3V582.3l7.9-8.75S975.47,525.38,964.78,525.38Z"/><path class="cls-41" d="M911.11,531h-1.89c0-.24,0-.48,0-.74a.57.57,0,0,0,0-.13c1.64-1,2.9-3.17,2.86-6.47.1-9.52-10.5-9.52-10.4,0,0,3.3,1.21,5.46,2.86,6.47,0,.05,0,.08,0,.13,0,.26,0,.5,0,.74h-1.89C892,531,892,579.18,892,579.18l7.9,8.76v16.38h3.3l.36-15.75,3.34.22,3.34-.22.35,15.75h3.3V587.94l7.91-8.76S921.8,531,911.11,531Z"/><path class="cls-41" d="M1006.29,540.24h-1.6c0-.2,0-.4,0-.62,0,0,0-.09,0-.14,1.39-.86,2.46-2.66,2.43-5.44.08-8.06-8.89-8.06-8.81,0,0,2.78,1,4.58,2.42,5.44v.14c0,.22,0,.42,0,.62h-1.6c-9,0-9,40.77-9,40.77l6.69,7.41v13.86h2.8l.3-13.33,2.82.19,2.83-.19.3,13.33h2.79V588.42l6.69-7.41S1015.33,540.24,1006.29,540.24Z"/><path class="cls-41" d="M1509.77,602.8l-2.66.22c-.39-5.65-1.62-14.66-5.55-14.66h-1c0-.13,0-.26,0-.4v-.08a3.79,3.79,0,0,0,1.53-3.45c.05-5.11-5.62-5.11-5.57,0a3.79,3.79,0,0,0,1.53,3.45V588c0,.14,0,.27,0,.4h-1c-5.73,0-5.73,19.12-5.73,19.12,2,1.52,5.54,1.82,8,1.92a22.23,22.23,0,0,0,5.87-.88l.07.11,4.47-2.26S1511.61,602.68,1509.77,602.8Z"/><path class="cls-41" d="M1557.77,607.48s0-19.12-5.73-19.12h-1c0-.13,0-.26,0-.4v-.08a3.79,3.79,0,0,0,1.53-3.45c0-5.11-5.62-5.11-5.57,0a3.79,3.79,0,0,0,1.53,3.45V588c0,.14,0,.27,0,.4h-1c-3.93,0-5.16,9-5.55,14.66l-2.66-.22c-1.84-.12.06,3.57.06,3.57l4.48,2.26.06-.11a22.23,22.23,0,0,0,5.87.88C1552.23,609.3,1555.74,609,1557.77,607.48Z"/><path class="cls-41" d="M1510,557.62h-.75a2.81,2.81,0,0,0,0-.29v-.07a2.77,2.77,0,0,0,1.13-2.54c0-3.77-4.15-3.77-4.11,0a2.77,2.77,0,0,0,1.13,2.54v.07a2.81,2.81,0,0,0,0,.29h-.75c-3,0-2.91,18.07-2.91,18.07l1.81,2.66v8.26h1.3l.14-7.45,1.32.09,1.33-.09.14,7.45h1.3v-8.26l1.81-2.66S1513,557.62,1510,557.62Z"/><path class="cls-41" d="M1759.92,609.49h-1c0-.12,0-.24,0-.38V609a3.64,3.64,0,0,0,1.47-3.3c0-4.88-5.39-4.88-5.34,0a3.62,3.62,0,0,0,1.47,3.3v.08c0,.14,0,.26,0,.38h-1c-3.92,0-3.77,23.43-3.77,23.43l2.34,3.44v10.72h1.69l.19-9.67,1.71.11,1.71-.11.18,9.67h1.7V636.36l2.34-3.44S1763.84,609.49,1759.92,609.49Z"/><path class="cls-41" d="M497,570.35H495c0-.21,0-.41,0-.63v-.12c1.66-.86,2.93-2.71,2.9-5.53.1-8.16-10.65-8.16-10.56,0,0,2.82,1.24,4.67,2.91,5.53,0,0,0,.08,0,.12,0,.22,0,.42,0,.63h-1.92c-7.76,0-7.46,39.12-7.46,39.12l4.63,5.76v17.88h3.35L489.3,617l3.39.19,3.39-.19.36,16.14h3.35V615.23l4.63-5.76S504.72,570.35,497,570.35Z"/><path class="cls-41" d="M538.5,684.26s0-49.61-14.86-49.61H521c0-.34,0-.67,0-1,0-.08,0-.15,0-.22,2.28-1.42,4-4.37,4-8.95.13-13.24-14.6-13.24-14.46,0-.05,4.58,1.7,7.53,4,8.95,0,.07,0,.14,0,.22,0,.36,0,.69,0,1h-2.63c-10.2,0-13.4,23.37-14.4,38-2.82-.25-5.4-.47-6.9-.57-4.79-.31.15,9.26.15,9.26l11.61,5.85.18-.26c4.9,1.63,10.73,2.1,15.21,2.27C524.13,689,533.23,688.2,538.5,684.26Z"/><path class="cls-41" d="M360.12,569.66h-2.88c0-.32.05-.63.05-1,0-.08,0-.14,0-.21,2.49-1.34,4.4-4.13,4.35-8.45.14-12.51-15.95-12.51-15.81,0-.05,4.33,1.86,7.12,4.35,8.46,0,.07,0,.13,0,.21,0,.34,0,.65,0,1h-2.87c-11.61,0-11.16,60-11.16,60l6.93,8.82v27.43h5l.54-24.75,5.07.29,5.08-.29.53,24.75h5V638.48l6.93-8.82S371.73,569.66,360.12,569.66Z"/></g><g id="op-smoke"><path id="op-smoke-right-slow" class="cls-42" d="M1522.63,596.68s-16.27-71-15.3-123.11c1.2-64.25,43.92-142.19,54.94-162.83s46.32-91.74,47.85-185.07c2.69-164.88,75.79-328.21,124.17-348.8"/><path id="op-smoke-right-fast" class="cls-43" d="M1524.53,596.61s-27.6-46.82-30-90.37c-2.93-53.69,50.71-148.19,64.51-173s57.64-108.4,53.09-186.25c-8-137.52,81.6-323.85,147.17-375.2"/><path id="op-smoke-left-slow" class="cls-44" d="M439.25,657.66s13-75.16,35.05-125.09c27.16-61.57,100-119.56,119-135s81.86-69.87,121.11-159.39C783.71,80,920.41-48.16,975.48-48.47"/><path id="op-smoke-left-fast" class="cls-45" d="M441.12,658.37S433.4,602,448.74,559c18.91-53,109-122.6,132.33-141s99.54-81.38,126.66-158.4c47.9-136.07,209.88-279.76,294-302.82"/></g><g id="fence"><path class="cls-46" d="M606,382.33c3.13,7.7,5.79,15.39,8.27,23.08,1.29,3.84,2.39,7.69,3.59,11.54s2.25,7.69,3.3,11.53a10.47,10.47,0,0,1,.24,2.89c0,1-.2,1.92-.29,2.88a25.3,25.3,0,0,0-.11,2.89V751.53H591V437.14a25.3,25.3,0,0,0-.11-2.89c-.09-1-.25-1.92-.29-2.88a10.47,10.47,0,0,1,.24-2.89c1-3.84,2.18-7.69,3.3-11.53s2.3-7.7,3.59-11.54C600.21,397.72,602.87,390,606,382.33Z"/><path class="cls-46" d="M399.42,382.33c3.13,7.7,5.78,15.39,8.26,23.08,1.29,3.84,2.39,7.69,3.6,11.54s2.24,7.69,3.3,11.53a10.87,10.87,0,0,1,.24,2.89c-.05,1-.2,1.92-.29,2.88a21.42,21.42,0,0,0-.11,2.89V751.53h-30V437.14a23.2,23.2,0,0,0-.12-2.89c-.09-1-.24-1.92-.29-2.88a10.87,10.87,0,0,1,.24-2.89c1.06-3.84,2.19-7.69,3.3-11.53s2.31-7.7,3.6-11.54C393.63,397.72,396.28,390,399.42,382.33Z"/><path class="cls-46" d="M468.28,382.33c3.13,7.7,5.78,15.39,8.26,23.08,1.29,3.84,2.4,7.69,3.6,11.54s2.24,7.69,3.3,11.53a10.87,10.87,0,0,1,.24,2.89c-.05,1-.2,1.92-.29,2.88a23.2,23.2,0,0,0-.11,2.89V751.53h-30V437.14a23.2,23.2,0,0,0-.12-2.89c-.09-1-.24-1.92-.29-2.88a10.87,10.87,0,0,1,.24-2.89c1.06-3.84,2.19-7.69,3.3-11.53s2.31-7.7,3.6-11.54C462.49,397.72,465.15,390,468.28,382.33Z"/><path class="cls-46" d="M537.14,382.33c3.13,7.7,5.78,15.39,8.26,23.08,1.29,3.84,2.4,7.69,3.6,11.54s2.25,7.69,3.3,11.53a10.47,10.47,0,0,1,.24,2.89c0,1-.2,1.92-.29,2.88a23.2,23.2,0,0,0-.11,2.89V751.53h-30V437.14a25.3,25.3,0,0,0-.11-2.89c-.09-1-.25-1.92-.29-2.88a10.86,10.86,0,0,1,.23-2.89c1.06-3.84,2.19-7.69,3.3-11.53s2.31-7.7,3.6-11.54C531.35,397.72,534,390,537.14,382.33Z"/><path class="cls-46" d="M192.83,382.33c3.13,7.7,5.79,15.39,8.27,23.08,1.29,3.84,2.39,7.69,3.59,11.54s2.25,7.69,3.31,11.53a10.86,10.86,0,0,1,.23,2.89c0,1-.2,1.92-.29,2.88a25.3,25.3,0,0,0-.11,2.89V751.53h-30V437.14a25.3,25.3,0,0,0-.11-2.89c-.09-1-.25-1.92-.29-2.88a10.47,10.47,0,0,1,.24-2.89c1.05-3.84,2.18-7.69,3.3-11.53s2.3-7.7,3.59-11.54C187,397.72,189.7,390,192.83,382.33Z"/><path class="cls-46" d="M261.69,382.33c3.13,7.7,5.79,15.39,8.27,23.08,1.29,3.84,2.39,7.69,3.6,11.54s2.24,7.69,3.3,11.53a10.86,10.86,0,0,1,.23,2.89c0,1-.2,1.92-.28,2.88a23.2,23.2,0,0,0-.12,2.89V751.53h-30V437.14a23.2,23.2,0,0,0-.11-2.89c-.09-1-.24-1.92-.29-2.88a10.47,10.47,0,0,1,.24-2.89c1.05-3.84,2.19-7.69,3.3-11.53s2.31-7.7,3.6-11.54C255.91,397.72,258.56,390,261.69,382.33Z"/><path class="cls-46" d="M330.55,382.33c3.13,7.7,5.79,15.39,8.27,23.08,1.29,3.84,2.39,7.69,3.6,11.54s2.24,7.69,3.3,11.53a10.87,10.87,0,0,1,.24,2.89c0,1-.2,1.92-.29,2.88a23.2,23.2,0,0,0-.12,2.89V751.53h-30V437.14a23.2,23.2,0,0,0-.11-2.89c-.09-1-.24-1.92-.29-2.88a10.87,10.87,0,0,1,.24-2.89c1.06-3.84,2.19-7.69,3.3-11.53s2.31-7.7,3.6-11.54C324.77,397.72,327.42,390,330.55,382.33Z"/><path class="cls-46" d="M-13.75,382.33c3.13,7.7,5.78,15.39,8.26,23.08,1.29,3.84,2.39,7.69,3.6,11.54s2.24,7.69,3.3,11.53a10.87,10.87,0,0,1,.24,2.89c0,1-.2,1.92-.29,2.88a23.2,23.2,0,0,0-.11,2.89V751.53h-30V437.14a23.2,23.2,0,0,0-.12-2.89c-.09-1-.24-1.92-.29-2.88a10.87,10.87,0,0,1,.24-2.89c1.06-3.84,2.19-7.69,3.3-11.53s2.31-7.7,3.6-11.54C-19.54,397.72-16.88,390-13.75,382.33Z"/><path class="cls-46" d="M55.11,382.33c3.13,7.7,5.78,15.39,8.26,23.08,1.29,3.84,2.4,7.69,3.6,11.54s2.24,7.69,3.3,11.53a10.47,10.47,0,0,1,.24,2.89c-.05,1-.2,1.92-.29,2.88a23.2,23.2,0,0,0-.11,2.89V751.53h-30V437.14a23.2,23.2,0,0,0-.12-2.89c-.08-1-.24-1.92-.29-2.88a10.87,10.87,0,0,1,.24-2.89c1.06-3.84,2.19-7.69,3.3-11.53s2.31-7.7,3.6-11.54C49.32,397.72,52,390,55.11,382.33Z"/><path class="cls-46" d="M124,382.33c3.13,7.7,5.78,15.39,8.27,23.08,1.28,3.84,2.39,7.69,3.59,11.54s2.25,7.69,3.3,11.53a10.47,10.47,0,0,1,.24,2.89c0,1-.2,1.92-.29,2.88a23.2,23.2,0,0,0-.11,2.89V751.53H109V437.14a25.3,25.3,0,0,0-.11-2.89c-.09-1-.25-1.92-.29-2.88a10.86,10.86,0,0,1,.23-2.89c1.06-3.84,2.19-7.69,3.3-11.53s2.31-7.7,3.6-11.54C118.18,397.72,120.84,390,124,382.33Z"/><path class="cls-46" d="M1460.18,382.33c3.13,7.7,5.79,15.39,8.27,23.08,1.29,3.84,2.39,7.69,3.59,11.54s2.25,7.69,3.3,11.53a10.47,10.47,0,0,1,.24,2.89c0,1-.2,1.92-.29,2.88a25.3,25.3,0,0,0-.11,2.89V751.53h-30V437.14a25.3,25.3,0,0,0-.11-2.89c-.09-1-.25-1.92-.29-2.88a10.86,10.86,0,0,1,.23-2.89c1.06-3.84,2.19-7.69,3.3-11.53s2.31-7.7,3.6-11.54C1454.39,397.72,1457.05,390,1460.18,382.33Z"/><path class="cls-46" d="M1529,382.33c3.13,7.7,5.79,15.39,8.27,23.08,1.29,3.84,2.39,7.69,3.6,11.54s2.24,7.69,3.3,11.53a10.86,10.86,0,0,1,.23,2.89c0,1-.2,1.92-.29,2.88a25.3,25.3,0,0,0-.11,2.89V751.53h-30V437.14a25.3,25.3,0,0,0-.11-2.89c-.09-1-.25-1.92-.29-2.88a10.47,10.47,0,0,1,.24-2.89c1-3.84,2.19-7.69,3.3-11.53s2.31-7.7,3.59-11.54C1523.26,397.72,1525.91,390,1529,382.33Z"/><path class="cls-46" d="M1597.9,382.33c3.13,7.7,5.79,15.39,8.27,23.08,1.29,3.84,2.39,7.69,3.6,11.54s2.24,7.69,3.3,11.53a10.46,10.46,0,0,1,.23,2.89c0,1-.2,1.92-.28,2.88a23.2,23.2,0,0,0-.12,2.89V751.53h-30V437.14a23.2,23.2,0,0,0-.11-2.89c-.09-1-.24-1.92-.29-2.88a10.47,10.47,0,0,1,.24-2.89c1.06-3.84,2.19-7.69,3.3-11.53s2.31-7.7,3.6-11.54C1592.12,397.72,1594.77,390,1597.9,382.33Z"/><path class="cls-46" d="M1322.46,382.33c3.13,7.7,5.78,15.39,8.26,23.08,1.29,3.84,2.39,7.69,3.6,11.54s2.24,7.69,3.3,11.53a10.87,10.87,0,0,1,.24,2.89c0,1-.2,1.92-.29,2.88a23.2,23.2,0,0,0-.11,2.89V751.53h-30V437.14a23.2,23.2,0,0,0-.12-2.89c-.09-1-.24-1.92-.29-2.88a10.87,10.87,0,0,1,.24-2.89c1.06-3.84,2.19-7.69,3.3-11.53s2.31-7.7,3.6-11.54C1316.67,397.72,1319.33,390,1322.46,382.33Z"/><path class="cls-46" d="M1391.32,382.33c3.13,7.7,5.78,15.39,8.26,23.08,1.29,3.84,2.4,7.69,3.6,11.54s2.25,7.69,3.3,11.53a10.47,10.47,0,0,1,.24,2.89c0,1-.2,1.92-.29,2.88a23.2,23.2,0,0,0-.11,2.89V751.53h-30V437.14a23.2,23.2,0,0,0-.12-2.89c-.08-1-.24-1.92-.28-2.88a10.46,10.46,0,0,1,.23-2.89c1.06-3.84,2.19-7.69,3.3-11.53s2.31-7.7,3.6-11.54C1385.53,397.72,1388.19,390,1391.32,382.33Z"/><path class="cls-46" d="M1873.35,382.33c3.13,7.7,5.78,15.39,8.27,23.08,1.28,3.84,2.39,7.69,3.59,11.54s2.25,7.69,3.3,11.53a10.47,10.47,0,0,1,.24,2.89c0,1-.2,1.92-.29,2.88a25.3,25.3,0,0,0-.11,2.89V751.53h-30V437.14a25.3,25.3,0,0,0-.11-2.89c-.09-1-.25-1.92-.29-2.88a10.86,10.86,0,0,1,.23-2.89c1.06-3.84,2.19-7.69,3.3-11.53s2.31-7.7,3.6-11.54C1867.56,397.72,1870.22,390,1873.35,382.33Z"/><path class="cls-46" d="M1666.76,382.33c3.13,7.7,5.79,15.39,8.27,23.08,1.29,3.84,2.39,7.69,3.6,11.54s2.24,7.69,3.3,11.53a10.87,10.87,0,0,1,.24,2.89c-.05,1-.2,1.92-.29,2.88a23.2,23.2,0,0,0-.12,2.89V751.53h-30V437.14a23.2,23.2,0,0,0-.11-2.89c-.09-1-.24-1.92-.29-2.88a10.87,10.87,0,0,1,.24-2.89c1.06-3.84,2.19-7.69,3.3-11.53s2.31-7.7,3.6-11.54C1661,397.72,1663.63,390,1666.76,382.33Z"/><path class="cls-46" d="M1735.63,382.33c3.13,7.7,5.78,15.39,8.26,23.08,1.29,3.84,2.39,7.69,3.6,11.54s2.24,7.69,3.3,11.53a10.87,10.87,0,0,1,.24,2.89c0,1-.2,1.92-.29,2.88a23.2,23.2,0,0,0-.11,2.89V751.53h-30V437.14a23.2,23.2,0,0,0-.12-2.89c-.09-1-.24-1.92-.29-2.88a10.87,10.87,0,0,1,.24-2.89c1.06-3.84,2.19-7.69,3.3-11.53s2.31-7.7,3.6-11.54C1729.84,397.72,1732.5,390,1735.63,382.33Z"/><path class="cls-46" d="M1804.49,382.33c3.13,7.7,5.78,15.39,8.26,23.08,1.29,3.84,2.4,7.69,3.6,11.54s2.24,7.69,3.3,11.53a10.47,10.47,0,0,1,.24,2.89c-.05,1-.2,1.92-.29,2.88a23.2,23.2,0,0,0-.11,2.89V751.53h-30V437.14a23.2,23.2,0,0,0-.12-2.89c-.08-1-.24-1.92-.28-2.88a10.46,10.46,0,0,1,.23-2.89c1.06-3.84,2.19-7.69,3.3-11.53s2.31-7.7,3.6-11.54C1798.7,397.72,1801.36,390,1804.49,382.33Z"/><line class="cls-47" x1="688.62" y1="751.53" x2="688.62" y2="212"/><line class="cls-47" x1="1239.51" y1="751.53" x2="1239.51" y2="212"/><line class="cls-48" x1="1251.33" y1="490.33" x2="2007.33" y2="490.33"/><line class="cls-48" x1="1251.33" y1="641" x2="2007.33" y2="641"/><line class="cls-48" x1="-67.38" y1="490.33" x2="688.62" y2="490.33"/><line class="cls-48" x1="-67.38" y1="641" x2="688.62" y2="641"/><line class="cls-49" x1="585.85" y1="331.47" x2="972.58" y2="153.65"/><line class="cls-49" x1="1343.32" y1="331.47" x2="956.59" y2="153.65"/><line class="cls-49" x1="964.67" y1="187" x2="964.67" y2="63.72"/></g></svg>