<svg id="outside-pa" xmlns="http://www.w3.org/2000/svg" xmlns:xlink="http://www.w3.org/1999/xlink" viewBox="0 0 1920 1257"><defs><style>.cls-1{fill:url(#radial-gradient);}.cls-2{fill:url(#radial-gradient-2);}.cls-3{fill:url(#radial-gradient-3);}.cls-4{opacity:0.53;fill:url(#radial-gradient-4);}.cls-5,.cls-7{opacity:0.73;}.cls-5{fill:url(#radial-gradient-5);}.cls-6{opacity:0.71;fill:url(#radial-gradient-6);}.cls-7{fill:url(#radial-gradient-7);}.cls-8{fill:url(#radial-gradient-8);}.cls-9{fill:url(#radial-gradient-9);}.cls-10{opacity:0.74;fill:url(#radial-gradient-10);}.cls-11,.cls-13,.cls-14{opacity:0.39;}.cls-11{fill:url(#radial-gradient-11);}.cls-12{opacity:0.49;fill:url(#radial-gradient-12);}.cls-13{fill:url(#radial-gradient-13);}.cls-14{fill:url(#radial-gradient-14);}.cls-15{fill:url(#radial-gradient-15);}.cls-16,.cls-17{opacity:0.58;}.cls-16{fill:url(#radial-gradient-16);}.cls-17{fill:url(#radial-gradient-17);}.cls-18{fill:#343540;}.cls-19{fill:#23242b;}.cls-20{fill:#4d5233;}.cls-21,.cls-35,.cls-36,.cls-39,.cls-40,.cls-41{fill:none;stroke-miterlimit:10;}.cls-21{stroke:#342b1a;stroke-width:20px;}.cls-22{fill:#5c613c;}.cls-23{fill:#43452d;}.cls-24{fill:#3a4000;}.cls-25{fill:#36382d;}.cls-26{fill:#36331f;}.cls-27{fill:#302e1c;}.cls-28{fill:#423823;}.cls-29{fill:#544826;}.cls-30{fill:#52452c;}.cls-31{fill:#403522;}.cls-32{fill:#2b261d;}.cls-33{fill:#6b5c30;}.cls-34{fill:#362e1d;}.cls-35,.cls-36{stroke:#421c0d;}.cls-35{stroke-width:24px;}.cls-36{stroke-width:17.52px;}.cls-37{fill:#171717;}.cls-38{fill:#3b2300;}.cls-39,.cls-40{stroke:#3b2300;}.cls-39,.cls-41{stroke-width:70px;}.cls-40{stroke-width:40px;}.cls-41{stroke:#331e00;}.cls-42{opacity:0.5;}.cls-43{opacity:0.7;}</style><radialGradient id="radial-gradient" cx="1375.57" cy="156.01" fx="1582.363996541655" fy="301.6451562007152" r="1371.44" gradientUnits="userSpaceOnUse"><stop offset="0.03" stop-color="#f7b113"/><stop offset="0.04" stop-color="#e6a11e"/><stop offset="0.09" stop-color="#b1723e"/><stop offset="0.12" stop-color="#905551"/><stop offset="0.14" stop-color="#844a59"/><stop offset="0.16" stop-color="#6d3c4e"/><stop offset="0.19" stop-color="#542c43"/><stop offset="0.23" stop-color="#41213a"/><stop offset="0.27" stop-color="#331834"/><stop offset="0.32" stop-color="#2b1330"/><stop offset="0.41" stop-color="#29122f"/><stop offset="0.48" stop-color="#24112c"/><stop offset="0.76" stop-color="#160e21"/><stop offset="1" stop-color="#110d1e"/></radialGradient><radialGradient id="radial-gradient-2" cx="63.37" cy="10.57" r="7.89" gradientUnits="userSpaceOnUse"><stop offset="0.16" stop-color="#fbfcff"/><stop offset="0.21" stop-color="#e0e1e5" stop-opacity="0.89"/><stop offset="0.29" stop-color="#b0b0b7" stop-opacity="0.68"/><stop offset="0.38" stop-color="#86848e" stop-opacity="0.5"/><stop offset="0.47" stop-color="#62606c" stop-opacity="0.35"/><stop offset="0.57" stop-color="#444250" stop-opacity="0.22"/><stop offset="0.66" stop-color="#2e2a3a" stop-opacity="0.12"/><stop offset="0.76" stop-color="#1e1a2a" stop-opacity="0.05"/><stop offset="0.87" stop-color="#141021" stop-opacity="0.01"/><stop offset="1" stop-color="#110d1e" stop-opacity="0"/></radialGradient><radialGradient id="radial-gradient-3" cx="297.19" cy="46.58" r="3.28" xlink:href="#radial-gradient-2"/><radialGradient id="radial-gradient-4" cx="-2760.77" cy="-585.35" r="6.73" gradientTransform="translate(3304.66 -824.63) rotate(-30)" xlink:href="#radial-gradient-2"/><radialGradient id="radial-gradient-5" cx="28.69" cy="126.17" r="3.28" xlink:href="#radial-gradient-2"/><radialGradient id="radial-gradient-6" cx="3952.39" cy="-1115.1" r="3.28" gradientTransform="matrix(0.88, 0.48, -0.48, 0.88, -3087.42, -879.54)" xlink:href="#radial-gradient-2"/><radialGradient id="radial-gradient-7" cx="3353.72" cy="-718.42" r="3.28" gradientTransform="matrix(0.88, 0.48, -0.48, 0.88, -3087.42, -879.54)" xlink:href="#radial-gradient-2"/><radialGradient id="radial-gradient-8" cx="3568.83" cy="-910.34" r="3.28" gradientTransform="matrix(0.88, 0.48, -0.48, 0.88, -3087.42, -879.54)" xlink:href="#radial-gradient-2"/><radialGradient id="radial-gradient-9" cx="777.11" cy="60.45" r="3.28" xlink:href="#radial-gradient-2"/><radialGradient id="radial-gradient-10" cx="3669.21" cy="-897.37" r="3.28" gradientTransform="matrix(0.88, 0.48, -0.48, 0.88, -3087.42, -879.54)" xlink:href="#radial-gradient-2"/><radialGradient id="radial-gradient-11" cx="4280.35" cy="-1278.8" r="3.28" gradientTransform="matrix(0.88, 0.48, -0.48, 0.88, -3087.42, -879.54)" xlink:href="#radial-gradient-2"/><radialGradient id="radial-gradient-12" cx="1053.46" cy="79.8" r="3.28" xlink:href="#radial-gradient-2"/><radialGradient id="radial-gradient-13" cx="4720.6" cy="-1557.97" r="3.28" gradientTransform="matrix(0.88, 0.48, -0.48, 0.88, -3087.42, -879.54)" xlink:href="#radial-gradient-2"/><radialGradient id="radial-gradient-14" cx="4833.82" cy="-1565.89" r="3.28" gradientTransform="matrix(0.88, 0.48, -0.48, 0.88, -3087.42, -879.54)" xlink:href="#radial-gradient-2"/><radialGradient id="radial-gradient-15" cx="213.41" cy="29.89" r="3.28" xlink:href="#radial-gradient-2"/><radialGradient id="radial-gradient-16" cx="3451.97" cy="-678.91" r="3.28" gradientTransform="matrix(0.88, 0.48, -0.48, 0.88, -3087.42, -879.54)" xlink:href="#radial-gradient-2"/><radialGradient id="radial-gradient-17" cx="3778.87" cy="-890.2" r="3.28" gradientTransform="matrix(0.88, 0.48, -0.48, 0.88, -3087.42, -879.54)" xlink:href="#radial-gradient-2"/></defs><g id="sky"><rect class="cls-1" x="-50" y="-50" width="2020" height="723.89"/></g><g id="stars"><circle class="cls-2" cx="63.37" cy="10.57" r="7.89"/><circle class="cls-3" cx="297.19" cy="46.58" r="3.28"/><circle class="cls-4" cx="621.09" cy="48.83" r="6.73"/><circle class="cls-5" cx="28.69" cy="126.17" r="3.28"/><circle class="cls-6" cx="917.67" cy="28.3" r="3.28"/><circle class="cls-7" cx="202.23" cy="90.91" r="3.28"/><circle class="cls-8" cx="482.89" cy="25.02" r="3.28"/><circle class="cls-9" cx="777.11" cy="60.45" r="3.28"/><circle class="cls-10" cx="564.88" cy="84.35" r="3.28"/><circle class="cls-11" cx="1283.99" cy="41.09" r="3.28"/><circle class="cls-12" cx="1053.46" cy="79.8" r="3.28"/><circle class="cls-13" cx="1804.11" cy="6.07" r="3.28"/><circle class="cls-14" cx="1907.37" cy="53.19" r="3.28"/><circle class="cls-15" cx="213.41" cy="29.89" r="3.28"/><circle class="cls-16" cx="269.68" cy="172.54" r="3.28"/><circle class="cls-17" cx="657.81" cy="143.03" r="3.28"/></g><g id="mountains"><polygon class="cls-18" points="-45.5 191.5 120.5 138.5 241.5 238.5 434.5 113.5 655.5 197.5 982.5 124.5 1076.5 156.5 1218.5 99.5 1592.28 238.5 1716.5 145.5 1882.5 179.5 1965.5 122.5 1965.5 1128.72 -45.5 1128.72 -45.5 191.5"/><polygon class="cls-19" points="120.5 138.5 153.5 272.5 241.5 238.5 120.5 138.5"/><polygon class="cls-19" points="434.5 113.5 481.61 421.25 634.59 428.03 655.5 197.5 434.5 113.5"/><polygon class="cls-19" points="982.5 124.5 1109.5 404.5 1076.5 156.5 982.5 124.5"/><polygon class="cls-19" points="1882.5 179.5 1850.5 278.5 1716.5 145.5 1882.5 179.5"/><polygon class="cls-19" points="1218.5 99.5 1445.5 274.5 1592.5 238.5 1218.5 99.5"/></g><g id="bushes"><ellipse class="cls-20" cx="1143.29" cy="535" rx="74.26" ry="36.62"/><line class="cls-21" x1="154.61" y1="388.16" x2="163.17" y2="535.52"/><ellipse class="cls-22" cx="140.07" cy="389.4" rx="62.22" ry="26.95"/><line class="cls-21" x1="578.58" y1="405.01" x2="564.39" y2="541.53"/><ellipse class="cls-23" cx="1722.69" cy="539.36" rx="74.26" ry="47.25"/><ellipse class="cls-24" cx="421.14" cy="522.27" rx="74.26" ry="51.83"/><ellipse class="cls-23" cx="658.26" cy="528.11" rx="77.18" ry="43.51"/><ellipse class="cls-23" cx="295.84" cy="528.11" rx="77.18" ry="45.96"/><ellipse class="cls-20" cx="1255.44" cy="527.48" rx="74.26" ry="50.7"/><ellipse class="cls-25" cx="35.18" cy="522.06" rx="74.26" ry="68.56"/><ellipse class="cls-23" cx="227.99" cy="546.01" rx="74.26" ry="29.75"/><ellipse class="cls-24" cx="131.97" cy="538.91" rx="67.99" ry="48.42"/><ellipse class="cls-24" cx="353.72" cy="547.88" rx="57.89" ry="27.26"/><ellipse class="cls-25" cx="596.9" cy="549.26" rx="74.26" ry="28.65"/><ellipse class="cls-24" cx="814.86" cy="540.34" rx="74.26" ry="34.97"/><ellipse class="cls-20" cx="475.28" cy="543.31" rx="74.26" ry="37.76"/><ellipse class="cls-20" cx="1298.81" cy="550.94" rx="74.26" ry="34.97"/><ellipse class="cls-23" cx="1413.56" cy="532.67" rx="74.26" ry="48.07"/><ellipse class="cls-20" cx="1535.69" cy="535.41" rx="74.26" ry="44.9"/><ellipse class="cls-24" cx="1185.5" cy="546.57" rx="55.5" ry="32.24"/><ellipse class="cls-23" cx="1640.52" cy="545.69" rx="63.7" ry="31.07"/><ellipse class="cls-24" cx="577.93" cy="411.2" rx="85.21" ry="37.86"/><ellipse class="cls-22" cx="176.98" cy="383.27" rx="70.34" ry="45.17"/><ellipse class="cls-23" cx="735.44" cy="550.64" rx="47.85" ry="22.53"/><line class="cls-21" x1="1831.45" y1="456.56" x2="1837.33" y2="557.78"/><ellipse class="cls-24" cx="1877.73" cy="419.01" rx="42.08" ry="26.95"/><ellipse class="cls-24" cx="1834.52" cy="437.23" rx="70.34" ry="45.17"/><ellipse class="cls-24" cx="1794.89" cy="554.09" rx="47.11" ry="26.22"/><ellipse class="cls-23" cx="1891.83" cy="543.6" rx="67.99" ry="33.17"/></g><g id="ground"><rect class="cls-26" x="-50" y="566.93" width="2015.5" height="690.07"/><polygon class="cls-27" points="724.67 751.53 -49.22 751.53 -49.22 1204.83 724.67 751.53"/><polygon class="cls-27" points="1204.73 751.53 1978.63 751.53 1978.63 1204.83 1204.73 751.53"/></g><g id="buildings"><polygon class="cls-28" points="512.99 598.29 338.1 637.62 438.1 546.79 512.99 598.29"/><polygon class="cls-29" points="339.21 644.29 445.88 531.08 244.99 498.95 137.88 588.73 339.21 644.29"/><polygon class="cls-30" points="445.88 531.08 536.99 599.17 531.92 600.48 445.88 538.51 350.32 640.29 339.21 644.29 445.88 531.08"/><polygon class="cls-31" points="531.92 600.48 512.99 598.29 438.1 546.79 445.88 538.51 531.92 600.48"/><polygon class="cls-32" points="452.32 571.62 473.06 607.27 425.54 617.95 434.32 574.29 452.32 571.62"/><path class="cls-33" d="M415.65,534.47c-3.26,4.17-6.67,8.19-10.14,12.16s-7,7.86-10.57,11.73c-7.12,7.75-14.83,14.93-22.29,22.36l-22.43,22.22L327.65,625l-.29-.28,21.43-23.2,21.57-23c7.21-7.67,14.17-15.58,21.71-22.92,3.77-3.67,7.55-7.33,11.43-10.9s7.78-7.11,11.86-10.48Z"/><path class="cls-33" d="M339.28,563.05c-2.95,3.76-6.15,7.3-9.4,10.77s-6.77,6.68-10.18,10l-10.25,9.93-10.32,9.87-.14-.15,9.75-10.42,9.83-10.35c3.28-3.45,6.44-7,9.89-10.29s6.94-6.51,10.68-9.51Z"/><path class="cls-33" d="M323.72,534.4a114.54,114.54,0,0,1-8,9c-2.79,2.89-5.86,5.48-8.81,8.2L298,559.71l-8.94,8.06-.14-.15,8.39-8.63,8.45-8.56c2.83-2.84,5.54-5.81,8.53-8.48a114.49,114.49,0,0,1,9.29-7.69Z"/><path class="cls-33" d="M273.71,533.09c-2.23,2.8-4.61,5.44-7,8s-4.93,5.08-7.45,7.56c-5,5-10.62,9.33-16,13.94l-16.11,13.8c-5.42,4.55-10.79,9.14-16.24,13.65l-.27-.29c5-5,10.11-9.89,15.17-14.84l15.3-14.69c5.11-4.87,10-10,15.43-14.54,2.71-2.27,5.44-4.52,8.25-6.68s5.66-4.28,8.66-6.22Z"/><path class="cls-33" d="M248.46,515.62a100.19,100.19,0,0,1-8.19,7.53c-2.83,2.39-5.9,4.45-8.87,6.66l-8.92,6.57-9,6.5-.12-.15,8.49-7.14,8.56-7.05c2.86-2.34,5.61-4.81,8.62-7a96.52,96.52,0,0,1,9.29-6.1Z"/><path class="cls-33" d="M267.13,571.69a62.53,62.53,0,0,1-6,6.47c-2.1,2-4.47,3.78-6.73,5.64l-6.79,5.57-6.85,5.49-.14-.15,6.33-6.09,6.4-6c2.14-2,4.16-4.12,6.46-5.94a62.55,62.55,0,0,1,7.18-5.12Z"/><polygon class="cls-28" points="1704.86 616.51 1833.84 645.52 1760.09 578.53 1704.86 616.51"/><polygon class="cls-29" points="1833.03 650.44 1754.36 566.94 1902.52 543.25 1981.51 609.46 1833.03 650.44"/><polygon class="cls-30" points="1754.36 566.94 1687.16 617.17 1690.89 618.13 1754.36 572.42 1824.83 647.49 1833.03 650.44 1754.36 566.94"/><polygon class="cls-31" points="1690.89 618.13 1704.86 616.51 1760.09 578.53 1754.36 572.42 1690.89 618.13"/><polygon class="cls-32" points="1749.6 596.84 1734.31 623.13 1769.35 631.01 1762.88 598.81 1749.6 596.84"/><path class="cls-33" d="M1776.9,569.2c3.11,2.39,6.07,4.92,9,7.51s5.73,5.25,8.53,7.93c5.62,5.36,10.66,11.29,15.94,17l15.8,17.11c5.21,5.75,10.47,11.47,15.65,17.25l-.29.28c-5.63-5.34-11.19-10.76-16.8-16.14l-16.65-16.27c-5.53-5.45-11.32-10.65-16.51-16.42-2.61-2.88-5.2-5.77-7.69-8.76s-5-6-7.25-9.19Z"/><path class="cls-33" d="M1833.1,590.4a89.38,89.38,0,0,1,8,6.85c2.57,2.39,4.85,5.06,7.26,7.62l7.19,7.69,7.12,7.76-.15.14-7.68-7.2-7.62-7.27c-2.53-2.43-5.18-4.74-7.54-7.34a89.47,89.47,0,0,1-6.77-8.11Z"/><path class="cls-33" d="M1844.57,569.27a63.84,63.84,0,0,1,7,5.5c2.23,2,4.18,4.19,6.26,6.3l6.18,6.37,6.11,6.44-.14.14-6.66-5.86-6.6-5.94c-2.19-2-4.51-3.85-6.53-6a63,63,0,0,1-5.77-6.8Z"/><path class="cls-33" d="M1881.56,568.17a71.73,71.73,0,0,1,6.6,4.36c2.13,1.53,4.17,3.16,6.19,4.81,4.06,3.29,7.57,7.17,11.32,10.8s7.47,7.28,11.17,11,7.4,7.36,11.05,11.1l-.27.3c-4.08-3.27-8.08-6.61-12.12-9.92s-8-6.68-12-10.06-8.19-6.49-11.85-10.2c-1.84-1.86-3.66-3.73-5.4-5.7a72.86,72.86,0,0,1-5-6.14Z"/><path class="cls-33" d="M1900.06,555.41a54.12,54.12,0,0,1,7,4.32c2.24,1.56,4.23,3.44,6.33,5.18l6.26,5.26,6.2,5.34-.12.16L1919,571l-6.63-4.79c-2.2-1.61-4.51-3.08-6.57-4.87a54.86,54.86,0,0,1-5.89-5.73Z"/><path class="cls-33" d="M1886.3,596.77a34.55,34.55,0,0,1,5.46,3.59,63.74,63.74,0,0,1,4.73,4.43l4.66,4.49c1.53,1.53,3.08,3,4.6,4.57l-.13.15c-1.73-1.3-3.42-2.64-5.13-4l-5.06-4a60,60,0,0,1-5-4.12,35.08,35.08,0,0,1-4.27-5Z"/><polygon class="cls-34" points="969.91 453.89 836.22 527.48 836.22 581.92 1103.6 581.92 1103.6 505.43 969.91 453.89"/><polygon class="cls-32" points="1034.68 511.92 997.36 511.92 986.45 581.92 1046.44 581.92 1034.68 511.92"/><rect class="cls-32" x="888.18" y="516.32" width="42.59" height="23.02"/><line class="cls-35" x1="979.66" y1="436.43" x2="793.32" y2="543.15"/><line class="cls-35" x1="963.62" y1="436.22" x2="1149.96" y2="542.93"/><line class="cls-36" x1="827.52" y1="514.33" x2="827.52" y2="581.92"/><line class="cls-36" x1="971.01" y1="414.78" x2="971.01" y2="581.3"/><line class="cls-36" x1="1112.28" y1="514.33" x2="1112.28" y2="581.92"/><polygon class="cls-28" points="1506.58 574.92 1614.9 599.28 1552.96 543.02 1506.58 574.92"/><polygon class="cls-29" points="1614.21 603.41 1548.14 533.29 1672.57 513.39 1738.91 569 1614.21 603.41"/><polygon class="cls-30" points="1548.14 533.29 1491.71 575.47 1494.85 576.28 1548.14 537.89 1607.33 600.93 1614.21 603.41 1548.14 533.29"/><polygon class="cls-31" points="1494.85 576.28 1506.58 574.92 1552.96 543.02 1548.14 537.89 1494.85 576.28"/><polygon class="cls-32" points="1544.15 558.4 1531.31 580.48 1560.74 587.1 1555.3 560.05 1544.15 558.4"/><path class="cls-33" d="M1567.07,535.19c2.62,2,5.11,4.13,7.54,6.3s4.82,4.41,7.17,6.66c4.72,4.51,9,9.48,13.39,14.26l13.26,14.37c4.38,4.83,8.8,9.63,13.15,14.49l-.24.24c-4.74-4.49-9.41-9-14.11-13.56l-14-13.67c-4.64-4.57-9.5-8.94-13.86-13.78-2.19-2.42-4.37-4.85-6.46-7.36s-4.16-5-6.09-7.72Z"/><path class="cls-33" d="M1614.27,553a74.43,74.43,0,0,1,6.75,5.75c2.16,2,4.08,4.25,6.1,6.4l6,6.46,6,6.52-.12.11-6.46-6-6.39-6.11c-2.13-2-4.36-4-6.34-6.16a74.51,74.51,0,0,1-5.68-6.81Z"/><path class="cls-33" d="M1623.9,535.24a53.22,53.22,0,0,1,5.9,4.63c1.87,1.63,3.51,3.51,5.25,5.28l5.19,5.35,5.13,5.41-.11.12-5.6-4.92-5.55-5c-1.84-1.67-3.78-3.23-5.48-5a54.36,54.36,0,0,1-4.84-5.72Z"/><path class="cls-33" d="M1655,534.32a60.46,60.46,0,0,1,5.55,3.66c1.78,1.29,3.5,2.66,5.19,4,3.41,2.76,6.36,6,9.51,9.07l9.38,9.2c3.09,3.11,6.22,6.18,9.28,9.32l-.23.25c-3.42-2.74-6.78-5.55-10.18-8.33l-10.06-8.44c-3.34-2.84-6.88-5.45-10-8.58-1.55-1.55-3.07-3.13-4.53-4.78a58.45,58.45,0,0,1-4.18-5.16Z"/><path class="cls-33" d="M1670.51,523.6a46.16,46.16,0,0,1,5.88,3.63c1.88,1.31,3.55,2.89,5.31,4.35L1687,536l5.21,4.49-.11.13-5.62-4-5.57-4c-1.85-1.35-3.78-2.58-5.51-4.09a44.91,44.91,0,0,1-4.95-4.81Z"/><path class="cls-33" d="M1659,558.34a28.79,28.79,0,0,1,4.58,3,49.78,49.78,0,0,1,4,3.71c2.61,2.51,5.22,5,7.78,7.62l-.12.12c-2.89-2.19-5.72-4.46-8.55-6.73a49.64,49.64,0,0,1-4.19-3.46,28.78,28.78,0,0,1-3.59-4.16Z"/><path class="cls-26" d="M888.34,582.56H739.43s50.55-41.94,74.46-41.94S888.34,582.56,888.34,582.56Z"/><path class="cls-26" d="M1194.4,582.56H1045.49s50.55-41.94,74.45-41.94S1194.4,582.56,1194.4,582.56Z"/></g><g id="people"><path class="cls-37" d="M956.37,525.38c-10.69,0-10.69,48.17-10.69,48.17l7.9,8.75v16.38h3.3l.35-15.75,3.34.23V525.38Z"/><ellipse class="cls-37" cx="960.57" cy="518.04" rx="5.2" ry="7.34"/><ellipse class="cls-37" cx="960.57" cy="524.64" rx="2.35" ry="5.12"/><path class="cls-37" d="M964.78,525.38c10.69,0,10.69,48.17,10.69,48.17l-7.9,8.75v16.38h-3.3l-.35-15.75-3.35.23V525.38Z"/><path class="cls-37" d="M902.69,531C892,531,892,579.18,892,579.18l7.9,8.76v16.38h3.3l.36-15.75,3.34.23V531Z"/><ellipse class="cls-37" cx="906.9" cy="523.68" rx="5.2" ry="7.34"/><ellipse class="cls-37" cx="906.9" cy="530.28" rx="2.35" ry="5.12"/><path class="cls-37" d="M911.11,531c10.69,0,10.69,48.16,10.69,48.16l-7.91,8.76v16.38h-3.3l-.35-15.75-3.34.23V531Z"/><path class="cls-37" d="M999.16,540.24c-9,0-9,40.77-9,40.77l6.68,7.41v13.86h2.8l.3-13.33,2.82.19v-48.9Z"/><ellipse class="cls-37" cx="1002.72" cy="534.04" rx="4.4" ry="6.21"/><ellipse class="cls-37" cx="1002.72" cy="539.62" rx="1.99" ry="4.33"/><path class="cls-37" d="M1006.29,540.24c9,0,9,40.77,9,40.77l-6.69,7.41v13.86h-2.79l-.3-13.33-2.83.19v-48.9Z"/><path class="cls-37" d="M1497.05,588.36c-5.73,0-5.73,19.12-5.73,19.12l2,1.14,3.35.62,2.58.16v-21Z"/><ellipse class="cls-37" cx="1499.3" cy="584.43" rx="2.79" ry="3.93"/><ellipse class="cls-37" cx="1499.3" cy="587.96" rx="1.26" ry="2.74"/><path class="cls-37" d="M1501.56,588.36c5.73,0,5.73,19.12,5.73,19.12l-2,1.14-3.35.62-2.59.16v-21Z"/><path class="cls-37" d="M1505.24,608.62l4.47-2.25s1.9-3.69.06-3.57-7.85.71-7.85.71Z"/><path class="cls-37" d="M1552,588.36c5.73,0,5.73,19.12,5.73,19.12l-2,1.14-3.35.62-2.58.16v-21Z"/><ellipse class="cls-37" cx="1549.79" cy="584.43" rx="2.79" ry="3.93"/><ellipse class="cls-37" cx="1549.79" cy="587.96" rx="1.26" ry="2.74"/><path class="cls-37" d="M1547.53,588.36c-5.73,0-5.73,19.12-5.73,19.12l2.06,1.14,3.34.62,2.59.16v-21Z"/><path class="cls-37" d="M1543.86,608.62l-4.48-2.25s-1.9-3.69-.06-3.57,7.85.71,7.85.71Z"/><path class="cls-37" d="M1506.63,557.62c-3,0-2.91,18.07-2.91,18.07l1.81,2.66v8.26h1.3l.14-7.45,1.32.09V557.62Z"/><ellipse class="cls-37" cx="1508.29" cy="554.72" rx="2.06" ry="2.9"/><ellipse class="cls-37" cx="1508.29" cy="557.33" rx="0.93" ry="2.02"/><path class="cls-37" d="M1510,557.62c3,0,2.91,18.07,2.91,18.07l-1.81,2.66v8.26h-1.3l-.14-7.45-1.33.09V557.62Z"/><path class="cls-37" d="M1755.6,609.49c-3.92,0-3.77,23.43-3.77,23.43l2.34,3.44v10.72h1.69l.19-9.67,1.71.11v-28Z"/><ellipse class="cls-37" cx="1757.76" cy="605.73" rx="2.67" ry="3.76"/><ellipse class="cls-37" cx="1757.76" cy="609.11" rx="1.2" ry="2.62"/><path class="cls-37" d="M1759.92,609.49c3.92,0,3.77,23.43,3.77,23.43l-2.34,3.44v10.72h-1.7l-.18-9.67-1.71.11v-28Z"/><path class="cls-37" d="M431.4,567.71c-8.37,0-8,42.2-8,42.2l5,6.21v19.3H432l.39-17.42,3.66.21v-50.5Z"/><ellipse class="cls-37" cx="436.01" cy="560.93" rx="5.7" ry="6.78"/><ellipse class="cls-37" cx="436.01" cy="567.02" rx="2.57" ry="4.73"/><path class="cls-37" d="M440.61,567.71c8.38,0,8.05,42.2,8.05,42.2l-5,6.21v19.3h-3.62L439.67,618l-3.66.21v-50.5Z"/></g><g id="fence"><path class="cls-38" d="M606,382.33c3.13,7.7,5.79,15.39,8.27,23.08,1.29,3.84,2.39,7.69,3.59,11.54s2.25,7.69,3.3,11.53a10.47,10.47,0,0,1,.24,2.89c0,1-.2,1.92-.29,2.88a25.3,25.3,0,0,0-.11,2.89V751.53H591V437.14a25.3,25.3,0,0,0-.11-2.89c-.09-1-.25-1.92-.29-2.88a10.47,10.47,0,0,1,.24-2.89c1-3.84,2.18-7.69,3.3-11.53s2.3-7.7,3.59-11.54C600.21,397.72,602.87,390,606,382.33Z"/><path class="cls-38" d="M399.42,382.33c3.13,7.7,5.78,15.39,8.26,23.08,1.29,3.84,2.39,7.69,3.6,11.54s2.24,7.69,3.3,11.53a10.87,10.87,0,0,1,.24,2.89c-.05,1-.2,1.92-.29,2.88a21.42,21.42,0,0,0-.11,2.89V751.53h-30V437.14a23.2,23.2,0,0,0-.12-2.89c-.09-1-.24-1.92-.29-2.88a10.87,10.87,0,0,1,.24-2.89c1.06-3.84,2.19-7.69,3.3-11.53s2.31-7.7,3.6-11.54C393.63,397.72,396.28,390,399.42,382.33Z"/><path class="cls-38" d="M468.28,382.33c3.13,7.7,5.78,15.39,8.26,23.08,1.29,3.84,2.4,7.69,3.6,11.54s2.24,7.69,3.3,11.53a10.87,10.87,0,0,1,.24,2.89c-.05,1-.2,1.92-.29,2.88a23.2,23.2,0,0,0-.11,2.89V751.53h-30V437.14a23.2,23.2,0,0,0-.12-2.89c-.09-1-.24-1.92-.29-2.88a10.87,10.87,0,0,1,.24-2.89c1.06-3.84,2.19-7.69,3.3-11.53s2.31-7.7,3.6-11.54C462.49,397.72,465.15,390,468.28,382.33Z"/><path class="cls-38" d="M537.14,382.33c3.13,7.7,5.78,15.39,8.26,23.08,1.29,3.84,2.4,7.69,3.6,11.54s2.25,7.69,3.3,11.53a10.47,10.47,0,0,1,.24,2.89c0,1-.2,1.92-.29,2.88a23.2,23.2,0,0,0-.11,2.89V751.53h-30V437.14a25.3,25.3,0,0,0-.11-2.89c-.09-1-.25-1.92-.29-2.88a10.86,10.86,0,0,1,.23-2.89c1.06-3.84,2.19-7.69,3.3-11.53s2.31-7.7,3.6-11.54C531.35,397.72,534,390,537.14,382.33Z"/><path class="cls-38" d="M192.83,382.33c3.13,7.7,5.79,15.39,8.27,23.08,1.29,3.84,2.39,7.69,3.59,11.54s2.25,7.69,3.31,11.53a10.86,10.86,0,0,1,.23,2.89c0,1-.2,1.92-.29,2.88a25.3,25.3,0,0,0-.11,2.89V751.53h-30V437.14a25.3,25.3,0,0,0-.11-2.89c-.09-1-.25-1.92-.29-2.88a10.47,10.47,0,0,1,.24-2.89c1.05-3.84,2.18-7.69,3.3-11.53s2.3-7.7,3.59-11.54C187,397.72,189.7,390,192.83,382.33Z"/><path class="cls-38" d="M261.69,382.33c3.13,7.7,5.79,15.39,8.27,23.08,1.29,3.84,2.39,7.69,3.6,11.54s2.24,7.69,3.3,11.53a10.86,10.86,0,0,1,.23,2.89c0,1-.2,1.92-.28,2.88a23.2,23.2,0,0,0-.12,2.89V751.53h-30V437.14a23.2,23.2,0,0,0-.11-2.89c-.09-1-.24-1.92-.29-2.88a10.47,10.47,0,0,1,.24-2.89c1.05-3.84,2.19-7.69,3.3-11.53s2.31-7.7,3.6-11.54C255.91,397.72,258.56,390,261.69,382.33Z"/><path class="cls-38" d="M330.55,382.33c3.13,7.7,5.79,15.39,8.27,23.08,1.29,3.84,2.39,7.69,3.6,11.54s2.24,7.69,3.3,11.53a10.87,10.87,0,0,1,.24,2.89c0,1-.2,1.92-.29,2.88a23.2,23.2,0,0,0-.12,2.89V751.53h-30V437.14a23.2,23.2,0,0,0-.11-2.89c-.09-1-.24-1.92-.29-2.88a10.87,10.87,0,0,1,.24-2.89c1.06-3.84,2.19-7.69,3.3-11.53s2.31-7.7,3.6-11.54C324.77,397.72,327.42,390,330.55,382.33Z"/><path class="cls-38" d="M-13.75,382.33c3.13,7.7,5.78,15.39,8.26,23.08,1.29,3.84,2.39,7.69,3.6,11.54s2.24,7.69,3.3,11.53a10.87,10.87,0,0,1,.24,2.89c0,1-.2,1.92-.29,2.88a23.2,23.2,0,0,0-.11,2.89V751.53h-30V437.14a23.2,23.2,0,0,0-.12-2.89c-.09-1-.24-1.92-.29-2.88a10.87,10.87,0,0,1,.24-2.89c1.06-3.84,2.19-7.69,3.3-11.53s2.31-7.7,3.6-11.54C-19.54,397.72-16.88,390-13.75,382.33Z"/><path class="cls-38" d="M55.11,382.33c3.13,7.7,5.78,15.39,8.26,23.08,1.29,3.84,2.4,7.69,3.6,11.54s2.24,7.69,3.3,11.53a10.47,10.47,0,0,1,.24,2.89c-.05,1-.2,1.92-.29,2.88a23.2,23.2,0,0,0-.11,2.89V751.53h-30V437.14a23.2,23.2,0,0,0-.12-2.89c-.08-1-.24-1.92-.29-2.88a10.87,10.87,0,0,1,.24-2.89c1.06-3.84,2.19-7.69,3.3-11.53s2.31-7.7,3.6-11.54C49.32,397.72,52,390,55.11,382.33Z"/><path class="cls-38" d="M124,382.33c3.13,7.7,5.78,15.39,8.27,23.08,1.28,3.84,2.39,7.69,3.59,11.54s2.25,7.69,3.3,11.53a10.47,10.47,0,0,1,.24,2.89c0,1-.2,1.92-.29,2.88a23.2,23.2,0,0,0-.11,2.89V751.53H109V437.14a25.3,25.3,0,0,0-.11-2.89c-.09-1-.25-1.92-.29-2.88a10.86,10.86,0,0,1,.23-2.89c1.06-3.84,2.19-7.69,3.3-11.53s2.31-7.7,3.6-11.54C118.18,397.72,120.84,390,124,382.33Z"/><path class="cls-38" d="M1460.18,382.33c3.13,7.7,5.79,15.39,8.27,23.08,1.29,3.84,2.39,7.69,3.59,11.54s2.25,7.69,3.3,11.53a10.47,10.47,0,0,1,.24,2.89c0,1-.2,1.92-.29,2.88a25.3,25.3,0,0,0-.11,2.89V751.53h-30V437.14a25.3,25.3,0,0,0-.11-2.89c-.09-1-.25-1.92-.29-2.88a10.86,10.86,0,0,1,.23-2.89c1.06-3.84,2.19-7.69,3.3-11.53s2.31-7.7,3.6-11.54C1454.39,397.72,1457.05,390,1460.18,382.33Z"/><path class="cls-38" d="M1529,382.33c3.13,7.7,5.79,15.39,8.27,23.08,1.29,3.84,2.39,7.69,3.6,11.54s2.24,7.69,3.3,11.53a10.86,10.86,0,0,1,.23,2.89c0,1-.2,1.92-.29,2.88a25.3,25.3,0,0,0-.11,2.89V751.53h-30V437.14a25.3,25.3,0,0,0-.11-2.89c-.09-1-.25-1.92-.29-2.88a10.47,10.47,0,0,1,.24-2.89c1-3.84,2.19-7.69,3.3-11.53s2.31-7.7,3.59-11.54C1523.26,397.72,1525.91,390,1529,382.33Z"/><path class="cls-38" d="M1597.9,382.33c3.13,7.7,5.79,15.39,8.27,23.08,1.29,3.84,2.39,7.69,3.6,11.54s2.24,7.69,3.3,11.53a10.46,10.46,0,0,1,.23,2.89c0,1-.2,1.92-.28,2.88a23.2,23.2,0,0,0-.12,2.89V751.53h-30V437.14a23.2,23.2,0,0,0-.11-2.89c-.09-1-.24-1.92-.29-2.88a10.47,10.47,0,0,1,.24-2.89c1.06-3.84,2.19-7.69,3.3-11.53s2.31-7.7,3.6-11.54C1592.12,397.72,1594.77,390,1597.9,382.33Z"/><path class="cls-38" d="M1322.46,382.33c3.13,7.7,5.78,15.39,8.26,23.08,1.29,3.84,2.39,7.69,3.6,11.54s2.24,7.69,3.3,11.53a10.87,10.87,0,0,1,.24,2.89c0,1-.2,1.92-.29,2.88a23.2,23.2,0,0,0-.11,2.89V751.53h-30V437.14a23.2,23.2,0,0,0-.12-2.89c-.09-1-.24-1.92-.29-2.88a10.87,10.87,0,0,1,.24-2.89c1.06-3.84,2.19-7.69,3.3-11.53s2.31-7.7,3.6-11.54C1316.67,397.72,1319.33,390,1322.46,382.33Z"/><path class="cls-38" d="M1391.32,382.33c3.13,7.7,5.78,15.39,8.26,23.08,1.29,3.84,2.4,7.69,3.6,11.54s2.25,7.69,3.3,11.53a10.47,10.47,0,0,1,.24,2.89c0,1-.2,1.92-.29,2.88a23.2,23.2,0,0,0-.11,2.89V751.53h-30V437.14a23.2,23.2,0,0,0-.12-2.89c-.08-1-.24-1.92-.28-2.88a10.46,10.46,0,0,1,.23-2.89c1.06-3.84,2.19-7.69,3.3-11.53s2.31-7.7,3.6-11.54C1385.53,397.72,1388.19,390,1391.32,382.33Z"/><path class="cls-38" d="M1873.35,382.33c3.13,7.7,5.78,15.39,8.27,23.08,1.28,3.84,2.39,7.69,3.59,11.54s2.25,7.69,3.3,11.53a10.47,10.47,0,0,1,.24,2.89c0,1-.2,1.92-.29,2.88a25.3,25.3,0,0,0-.11,2.89V751.53h-30V437.14a25.3,25.3,0,0,0-.11-2.89c-.09-1-.25-1.92-.29-2.88a10.86,10.86,0,0,1,.23-2.89c1.06-3.84,2.19-7.69,3.3-11.53s2.31-7.7,3.6-11.54C1867.56,397.72,1870.22,390,1873.35,382.33Z"/><path class="cls-38" d="M1666.76,382.33c3.13,7.7,5.79,15.39,8.27,23.08,1.29,3.84,2.39,7.69,3.6,11.54s2.24,7.69,3.3,11.53a10.87,10.87,0,0,1,.24,2.89c-.05,1-.2,1.92-.29,2.88a23.2,23.2,0,0,0-.12,2.89V751.53h-30V437.14a23.2,23.2,0,0,0-.11-2.89c-.09-1-.24-1.92-.29-2.88a10.87,10.87,0,0,1,.24-2.89c1.06-3.84,2.19-7.69,3.3-11.53s2.31-7.7,3.6-11.54C1661,397.72,1663.63,390,1666.76,382.33Z"/><path class="cls-38" d="M1735.63,382.33c3.13,7.7,5.78,15.39,8.26,23.08,1.29,3.84,2.39,7.69,3.6,11.54s2.24,7.69,3.3,11.53a10.87,10.87,0,0,1,.24,2.89c0,1-.2,1.92-.29,2.88a23.2,23.2,0,0,0-.11,2.89V751.53h-30V437.14a23.2,23.2,0,0,0-.12-2.89c-.09-1-.24-1.92-.29-2.88a10.87,10.87,0,0,1,.24-2.89c1.06-3.84,2.19-7.69,3.3-11.53s2.31-7.7,3.6-11.54C1729.84,397.72,1732.5,390,1735.63,382.33Z"/><path class="cls-38" d="M1804.49,382.33c3.13,7.7,5.78,15.39,8.26,23.08,1.29,3.84,2.4,7.69,3.6,11.54s2.24,7.69,3.3,11.53a10.47,10.47,0,0,1,.24,2.89c-.05,1-.2,1.92-.29,2.88a23.2,23.2,0,0,0-.11,2.89V751.53h-30V437.14a23.2,23.2,0,0,0-.12-2.89c-.08-1-.24-1.92-.28-2.88a10.46,10.46,0,0,1,.23-2.89c1.06-3.84,2.19-7.69,3.3-11.53s2.31-7.7,3.6-11.54C1798.7,397.72,1801.36,390,1804.49,382.33Z"/><line class="cls-39" x1="688.62" y1="751.53" x2="688.62" y2="212"/><line class="cls-39" x1="1239.51" y1="751.53" x2="1239.51" y2="212"/><line class="cls-40" x1="1251.33" y1="490.33" x2="2007.33" y2="490.33"/><line class="cls-40" x1="1251.33" y1="641" x2="2007.33" y2="641"/><line class="cls-40" x1="-67.38" y1="490.33" x2="688.62" y2="490.33"/><line class="cls-40" x1="-67.38" y1="641" x2="688.62" y2="641"/><line class="cls-41" x1="585.85" y1="331.47" x2="972.58" y2="153.65"/><line class="cls-41" x1="1343.32" y1="331.47" x2="956.59" y2="153.65"/><line class="cls-41" x1="964.67" y1="187" x2="964.67" y2="63.72"/></g></svg>