<svg xmlns="http://www.w3.org/2000/svg" viewBox="0 0 200 600"><defs><style>.cls-1{fill:#637d3d;}.cls-2{fill:#63873d;}.cls-3{opacity:0.5;}.cls-4{opacity:0.7;}</style></defs><g id="plains-components"><g id="plains-bushes-right"><ellipse class="cls-1" cx="158.05" cy="523.3" rx="87.93" ry="85.23" transform="translate(-162.87 80.77) rotate(-19.14)"/><ellipse class="cls-1" cx="74.57" cy="471.89" rx="62.72" ry="60.8" transform="translate(-150.63 50.55) rotate(-19.14)"/><ellipse class="cls-1" cx="103.01" cy="569.48" rx="55.2" ry="53.51" transform="translate(-181.06 65.28) rotate(-19.14)"/><ellipse class="cls-2" cx="180.56" cy="492.91" rx="65.63" ry="63.62" transform="translate(-151.66 86.47) rotate(-19.14)"/><ellipse class="cls-2" cx="180.56" cy="588.14" rx="57.21" ry="55.46" transform="translate(-182.89 91.74) rotate(-19.14)"/><ellipse class="cls-1" cx="148.79" cy="352.17" rx="106.23" ry="109.59" transform="translate(-107.27 68.27) rotate(-19.14)"/><ellipse class="cls-1" cx="148.79" cy="120.47" rx="90.98" ry="93.85" transform="matrix(0.94, -0.33, 0.33, 0.94, -31.28, 55.46)"/><ellipse class="cls-1" cx="127.79" cy="218.24" rx="95.16" ry="98.16" transform="translate(-64.5 53.98) rotate(-19.14)"/><ellipse class="cls-1" cx="148.79" cy="36.06" rx="90.08" ry="92.92" transform="translate(-3.6 50.79) rotate(-19.14)"/><ellipse class="cls-1" cx="88.4" cy="110.43" rx="62.72" ry="60.8" transform="translate(-31.33 35.1) rotate(-19.14)"/><ellipse class="cls-2" cx="148.79" cy="360.11" rx="63.17" ry="61.24" transform="translate(-109.87 68.71) rotate(-19.14)"/><ellipse class="cls-2" cx="171.6" cy="195.5" rx="80.86" ry="83.41" transform="translate(-85.6 234.43) rotate(-57.33)"/><ellipse class="cls-2" cx="137.31" cy="267.84" rx="65.82" ry="67.9" transform="translate(-162.27 238.85) rotate(-57.33)"/><ellipse class="cls-2" cx="180.56" cy="85.31" rx="83.52" ry="80.96" transform="translate(-17.99 63.93) rotate(-19.14)"/></g></g></svg>