<svg xmlns="http://www.w3.org/2000/svg" viewBox="0 0 200 200"><defs><style>.cls-1{fill:#bec2a3;}.cls-2{fill:#a39382;}.cls-3{fill:#a39f82;}.cls-4{fill:#969988;}.cls-5{fill:#d3dbc4;}.cls-5,.cls-6,.cls-7,.cls-8,.cls-9{stroke:#4a4a4a;stroke-miterlimit:10;stroke-width:0.5px;}.cls-6{fill:#d5e2ce;}.cls-7{fill:#cdcfb9;}.cls-8{fill:#cddecc;}.cls-9{fill:#cccaba;}.cls-10{fill:#906755;}.cls-11{fill:#637d3d;}.cls-12{fill:#63873d;}.cls-13{opacity:0.5;}.cls-14{opacity:0.7;}</style></defs><g id="plains-components"><g id="plains-grid-obstacle-c"><g id="nest"><ellipse class="cls-1" cx="98.82" cy="97.37" rx="32.02" ry="25.94"/><path class="cls-2" d="M72.58,96.15a13.05,13.05,0,0,1,2.48-9,21.07,21.07,0,0,1,7.17-6.27,29.14,29.14,0,0,1,8.92-3.11,30.71,30.71,0,0,1,9.32-.29,70.5,70.5,0,0,0-9,1.81,39.25,39.25,0,0,0-8.31,3.34,24.29,24.29,0,0,0-6.9,5.46A16,16,0,0,0,72.58,96.15Z"/><path class="cls-3" d="M127.63,91a26.07,26.07,0,0,1-1.24,11.06,27.45,27.45,0,0,1-5.67,9.77,26,26,0,0,1-9.23,6.53,22.28,22.28,0,0,1-11,1.63,30.14,30.14,0,0,0,10.37-3,29.33,29.33,0,0,0,8.4-6.47,31.76,31.76,0,0,0,5.7-9A38.3,38.3,0,0,0,127.63,91Z"/><path class="cls-3" d="M70,98.17a22.83,22.83,0,0,0,2.91,8.55,23.92,23.92,0,0,0,5.82,6.65,28.86,28.86,0,0,0,7.73,4.41A39.53,39.53,0,0,0,95.33,120a23.34,23.34,0,0,1-9.35-.74,24,24,0,0,1-8.49-4.33,21,21,0,0,1-5.95-7.49A16.78,16.78,0,0,1,70,98.17Z"/><path class="cls-2" d="M74.6,97.92a10.33,10.33,0,0,0,3.51,5.81A22.73,22.73,0,0,0,84,107.27a32.27,32.27,0,0,0,3.24,1.23l1.68.53c.56.13,1.13.28,1.7.45,2.28.55,4.61,1,7,1.41a26.24,26.24,0,0,1-7.3.12,25.54,25.54,0,0,1-7.13-1.91A18,18,0,0,1,77,104.83,8.59,8.59,0,0,1,74.6,97.92Z"/><path class="cls-2" d="M124.39,96.15A20.14,20.14,0,0,0,121,87.36a25.08,25.08,0,0,0-6.66-6.45,34.46,34.46,0,0,0-8.46-4.09,51.88,51.88,0,0,0-9.38-2.08,28.17,28.17,0,0,1,9.8.58,27.62,27.62,0,0,1,9.15,3.93,22,22,0,0,1,6.87,7.29A15.8,15.8,0,0,1,124.39,96.15Z"/><path class="cls-2" d="M122,95.28a11.38,11.38,0,0,1-.52,4l-.34,1-.46.93a13.91,13.91,0,0,1-1.09,1.76,18.76,18.76,0,0,1-6.23,5.35,26.58,26.58,0,0,1-7.7,2.76,19.77,19.77,0,0,1-2,.33,17.24,17.24,0,0,1-2,.21,32.35,32.35,0,0,1-4.06,0c1.35-.16,2.69-.23,4-.48.67-.08,1.32-.21,2-.35s1.31-.26,1.94-.46a31.69,31.69,0,0,0,7.4-2.89,20.46,20.46,0,0,0,6.11-4.94A13.33,13.33,0,0,0,122,95.28Z"/><path class="cls-4" d="M80.84,101.57a8.28,8.28,0,0,1-3.19-6.26,7.85,7.85,0,0,1,.7-3.58A6.53,6.53,0,0,1,80.64,89a9.78,9.78,0,0,0-2,6.28A12,12,0,0,0,80.84,101.57Z"/><path class="cls-4" d="M117.21,101.4a34.87,34.87,0,0,0-1.33-7,25.45,25.45,0,0,0-3-6.36,18.15,18.15,0,0,0-4.82-5,13.75,13.75,0,0,0-6.58-2.38,15.61,15.61,0,0,1,1.81,0,13.79,13.79,0,0,1,1.8.3,10.84,10.84,0,0,1,1.74.6l.84.37c.28.13.53.3.8.45a16.42,16.42,0,0,1,5.24,5.12,21,21,0,0,1,2.86,6.71A23.41,23.41,0,0,1,117.21,101.4Z"/><path class="cls-3" d="M103.07,85.44a13.49,13.49,0,0,0-10.19-1.93,18.77,18.77,0,0,0-9.27,5.06,14.41,14.41,0,0,1,9.08-6,12.46,12.46,0,0,1,5.6.16A10.35,10.35,0,0,1,103.07,85.44Z"/><path class="cls-4" d="M82,111.06a9.37,9.37,0,0,0,1.47,1.83,10,10,0,0,0,1.89,1.34,14.22,14.22,0,0,0,4.35,1.5,31,31,0,0,0,9.28.08,57.57,57.57,0,0,0,9.14-2,84.88,84.88,0,0,0,8.85-3.28c-1.36.81-2.78,1.53-4.2,2.22s-2.91,1.25-4.41,1.79a44.41,44.41,0,0,1-9.26,2.26,27.69,27.69,0,0,1-9.56-.32,15,15,0,0,1-4.45-1.83,10.18,10.18,0,0,1-1.82-1.58A7.71,7.71,0,0,1,82,111.06Z"/><ellipse class="cls-5" cx="107.48" cy="95.3" rx="4.37" ry="5.51" transform="matrix(0.99, -0.16, 0.16, 0.99, -13.58, 17.98)"/><ellipse class="cls-6" cx="90.18" cy="96.19" rx="5.51" ry="4.37" transform="translate(-40.53 113.52) rotate(-54.4)"/><ellipse class="cls-7" cx="89.32" cy="102.27" rx="4.37" ry="5.51" transform="translate(-46.41 98.34) rotate(-47.21)"/><ellipse class="cls-8" cx="99.06" cy="93.14" rx="4.37" ry="5.51" transform="translate(-24.87 37.19) rotate(-18.94)"/><ellipse class="cls-9" cx="101.22" cy="102.36" rx="5.51" ry="4.37" transform="translate(-40.93 125.07) rotate(-54.4)"/><circle class="cls-10" cx="98.81" cy="100.61" r="0.19"/><circle class="cls-10" cx="98.82" cy="103.3" r="0.19"/><circle class="cls-10" cx="99.06" cy="106.43" r="0.32"/><circle class="cls-10" cx="101.26" cy="106.04" r="0.1"/><circle class="cls-10" cx="102.5" cy="104.99" r="0.11"/><circle class="cls-10" cx="104.1" cy="104.63" r="0.14"/><circle class="cls-10" cx="99.93" cy="104.68" r="0.24"/><circle class="cls-10" cx="97.25" cy="104.04" r="0.25"/></g><g id="bush"><ellipse class="cls-11" cx="41.51" cy="132.37" rx="39.53" ry="38.32"/><ellipse class="cls-11" cx="43.18" cy="95.56" rx="31.13" ry="30.17"/><ellipse class="cls-11" cx="83.86" cy="161.6" rx="37" ry="35.87"/><ellipse class="cls-11" cx="35.93" cy="165.19" rx="31.13" ry="30.17"/><ellipse class="cls-12" cx="39" cy="157.9" rx="22.28" ry="21.6"/><ellipse class="cls-11" cx="130.18" cy="40.94" rx="38.4" ry="37.22" transform="translate(37.55 141.16) rotate(-64.71)"/><ellipse class="cls-11" cx="151.27" cy="65.39" rx="31.13" ry="30.17" transform="translate(27.52 174.22) rotate(-64.71)"/><ellipse class="cls-11" cx="45.95" cy="55.17" rx="37.02" ry="40.53" transform="translate(-23.56 73.14) rotate(-64.71)"/><ellipse class="cls-11" cx="82.28" cy="37.45" rx="32.8" ry="34.81" transform="translate(13.26 95.84) rotate(-64.71)"/><ellipse class="cls-12" cx="130.18" cy="39.07" rx="27.49" ry="26.65" transform="translate(39.24 140.08) rotate(-64.71)"/><ellipse class="cls-12" cx="41.51" cy="55.17" rx="26.49" ry="31.43" transform="translate(-26.1 69.13) rotate(-64.71)"/><ellipse class="cls-12" cx="83.86" cy="40.94" rx="29.05" ry="21.75" transform="translate(-7.28 20.89) rotate(-13.61)"/><ellipse class="cls-12" cx="45.22" cy="132.37" rx="31.05" ry="30.1"/><ellipse class="cls-11" cx="132.38" cy="154.55" rx="38.19" ry="42.05" transform="translate(-35.11 270.11) rotate(-84.02)"/><ellipse class="cls-11" cx="159.92" cy="106.26" rx="37" ry="35.87" transform="translate(37.58 254.25) rotate(-84.02)"/><ellipse class="cls-11" cx="164.38" cy="157.9" rx="31.13" ry="30.17" transform="translate(-9.78 304.94) rotate(-84.02)"/><ellipse class="cls-12" cx="157.11" cy="111.81" rx="26.49" ry="25.68" transform="translate(29.54 256.42) rotate(-84.02)"/><ellipse class="cls-12" cx="158.9" cy="152.54" rx="22.28" ry="21.6" transform="translate(-9.36 294.69) rotate(-84.02)"/><ellipse class="cls-12" cx="133.55" cy="157.9" rx="31.05" ry="30.1" transform="translate(-37.4 274.28) rotate(-84.02)"/></g></g></g></svg>