<svg xmlns="http://www.w3.org/2000/svg" viewBox="0 0 200 200"><defs><style>.cls-1{fill:#828282;}.cls-2{fill:#666;}.cls-3{fill:#637d3d;}.cls-4{fill:#63873d;}.cls-5{opacity:0.5;}.cls-6{opacity:0.7;}</style></defs><g id="plains-components"><g id="plains-grid-obstacle-e"><polygon class="cls-1" points="25.51 50.8 40.42 29.68 28.4 11.38 9.33 14.04 25.51 50.8"/><polygon class="cls-2" points="26.07 20.71 29.17 34.61 25.51 50.8 16.4 39.83 9.34 14.04 26.07 20.71"/><polygon class="cls-1" points="169.7 195 180.3 190.39 189.35 178.94 183.28 164.22 169.7 195"/><polygon class="cls-2" points="181.09 178.78 175.42 182.56 169.7 195 167.57 179.14 183.28 164.22 181.09 178.78"/><ellipse class="cls-3" cx="78" cy="96.54" rx="65.65" ry="67.72" transform="translate(-29.66 34.8) rotate(-21.23)"/><ellipse class="cls-3" cx="52.68" cy="144.69" rx="47.11" ry="48.6" transform="translate(-48.82 28.89) rotate(-21.23)"/><ellipse class="cls-3" cx="141.69" cy="62.69" rx="56" ry="57.77" transform="translate(-13.08 55.56) rotate(-21.23)"/><ellipse class="cls-3" cx="132.59" cy="141.45" rx="47.11" ry="48.6" transform="translate(-42.22 57.61) rotate(-21.23)"/><ellipse class="cls-4" cx="81.26" cy="100" rx="47" ry="48.48" transform="translate(-30.7 36.21) rotate(-21.23)"/><ellipse class="cls-4" cx="127.67" cy="70.75" rx="40.09" ry="41.36" transform="translate(-16.96 51.03) rotate(-21.23)"/><ellipse class="cls-4" cx="121.8" cy="137.46" rx="33.72" ry="34.79" transform="translate(-41.51 53.43) rotate(-21.23)"/></g></g></svg>