<svg xmlns="http://www.w3.org/2000/svg" viewBox="0 0 200 200"><defs><style>.cls-1{fill:#bec2a3;}.cls-2{fill:#a39382;}.cls-3{fill:#a39f82;}.cls-4{fill:#969988;}.cls-5{fill:#d3dbc4;}.cls-5,.cls-6,.cls-7,.cls-8,.cls-9{stroke:#4a4a4a;stroke-miterlimit:10;stroke-width:0.5px;}.cls-6{fill:#d5e2ce;}.cls-7{fill:#cdcfb9;}.cls-8{fill:#cddecc;}.cls-9{fill:#cccaba;}.cls-10{fill:#906755;}.cls-11{fill:#637d3d;}.cls-12{fill:#63873d;}.cls-13{opacity:0.5;}.cls-14{opacity:0.7;}</style></defs><g id="plains-components"><g id="plains-grid-obstacle-c"><g id="nest"><path class="cls-1" d="M130.84,97.37c-.08,33.89-64,33.89-64,0C66.88,63.48,130.76,63.49,130.84,97.37Z"/><path class="cls-2" d="M72.58,96.15a13.05,13.05,0,0,1,2.48-9,21.07,21.07,0,0,1,7.17-6.27,29.14,29.14,0,0,1,8.92-3.11,30.71,30.71,0,0,1,9.32-.29,70.5,70.5,0,0,0-9,1.81,39.25,39.25,0,0,0-8.31,3.34,24.29,24.29,0,0,0-6.9,5.46A16,16,0,0,0,72.58,96.15Z"/><path class="cls-3" d="M127.63,91a26.07,26.07,0,0,1-1.24,11.06,27.45,27.45,0,0,1-5.67,9.77,26,26,0,0,1-9.23,6.53,22.28,22.28,0,0,1-11,1.63,30.14,30.14,0,0,0,10.37-3,29.33,29.33,0,0,0,8.4-6.47,31.76,31.76,0,0,0,5.7-9A38.3,38.3,0,0,0,127.63,91Z"/><path class="cls-3" d="M70,98.17a22.83,22.83,0,0,0,2.91,8.55,23.92,23.92,0,0,0,5.82,6.65,28.86,28.86,0,0,0,7.73,4.41A39.53,39.53,0,0,0,95.33,120a23.34,23.34,0,0,1-9.35-.74,24,24,0,0,1-8.49-4.33,21,21,0,0,1-5.95-7.49A16.78,16.78,0,0,1,70,98.17Z"/><path class="cls-2" d="M74.6,97.92a10.33,10.33,0,0,0,3.51,5.81A22.73,22.73,0,0,0,84,107.27a32.27,32.27,0,0,0,3.24,1.23l1.68.53c.56.13,1.13.28,1.7.45,2.28.55,4.61,1,7,1.41a26.24,26.24,0,0,1-7.3.12,25.54,25.54,0,0,1-7.13-1.91A18,18,0,0,1,77,104.83,8.59,8.59,0,0,1,74.6,97.92Z"/><path class="cls-2" d="M124.39,96.15A20.14,20.14,0,0,0,121,87.36a25.08,25.08,0,0,0-6.66-6.45,34.46,34.46,0,0,0-8.46-4.09,51.88,51.88,0,0,0-9.38-2.08,28.17,28.17,0,0,1,9.8.58,27.62,27.62,0,0,1,9.15,3.93,22,22,0,0,1,6.87,7.29A15.8,15.8,0,0,1,124.39,96.15Z"/><path class="cls-2" d="M122,95.28a11.38,11.38,0,0,1-.52,4l-.34,1-.46.93a13.91,13.91,0,0,1-1.09,1.76,18.76,18.76,0,0,1-6.23,5.35,26.58,26.58,0,0,1-7.7,2.76,19.77,19.77,0,0,1-2,.33,17.24,17.24,0,0,1-2,.21,32.35,32.35,0,0,1-4.06,0c1.35-.16,2.69-.23,4-.48.67-.08,1.32-.21,2-.35s1.31-.26,1.94-.46a31.69,31.69,0,0,0,7.4-2.89,20.46,20.46,0,0,0,6.11-4.94A13.33,13.33,0,0,0,122,95.28Z"/><path class="cls-4" d="M80.84,101.57a8.28,8.28,0,0,1-3.19-6.26,7.85,7.85,0,0,1,.7-3.58A6.53,6.53,0,0,1,80.64,89a9.78,9.78,0,0,0-2,6.28A12,12,0,0,0,80.84,101.57Z"/><path class="cls-4" d="M117.21,101.4a34.87,34.87,0,0,0-1.33-7,25.45,25.45,0,0,0-3-6.36,18.15,18.15,0,0,0-4.82-5,13.75,13.75,0,0,0-6.58-2.38,15.61,15.61,0,0,1,1.81,0,13.79,13.79,0,0,1,1.8.3,10.84,10.84,0,0,1,1.74.6l.84.37c.28.13.53.3.8.45a16.42,16.42,0,0,1,5.24,5.12,21,21,0,0,1,2.86,6.71A23.41,23.41,0,0,1,117.21,101.4Z"/><path class="cls-3" d="M103.07,85.44a13.49,13.49,0,0,0-10.19-1.93,18.77,18.77,0,0,0-9.27,5.06,14.41,14.41,0,0,1,9.08-6,12.46,12.46,0,0,1,5.6.16A10.35,10.35,0,0,1,103.07,85.44Z"/><path class="cls-4" d="M82,111.06a9.37,9.37,0,0,0,1.47,1.83,10,10,0,0,0,1.89,1.34,14.22,14.22,0,0,0,4.35,1.5,31,31,0,0,0,9.28.08,57.57,57.57,0,0,0,9.14-2,84.88,84.88,0,0,0,8.85-3.28c-1.36.81-2.78,1.53-4.2,2.22s-2.91,1.25-4.41,1.79a44.41,44.41,0,0,1-9.26,2.26,27.69,27.69,0,0,1-9.56-.32,15,15,0,0,1-4.45-1.83,10.18,10.18,0,0,1-1.82-1.58A7.71,7.71,0,0,1,82,111.06Z"/><path class="cls-5" d="M111.8,94.62c1.2,7-7.59,8.44-8.63,1.36C102,88.93,110.76,87.54,111.8,94.62Z"/><path class="cls-6" d="M93.73,98.73c-4.1,5.87-11.33.69-7.1-5.08S98,93,93.73,98.73Z"/><path class="cls-7" d="M92.28,99.06c5.31,4.81-.73,11.33-5.93,6.41S87.09,94.15,92.28,99.06Z"/><path class="cls-8" d="M103.19,91.73c2.4,6.74-6,9.62-8.26,2.83C92.53,87.82,101,84.93,103.19,91.73Z"/><path class="cls-9" d="M104.77,104.9c-4.1,5.87-11.33.69-7.11-5.08S109,99.13,104.77,104.9Z"/><path class="cls-10" d="M99,100.72c-.14.2-.45,0-.3-.22A.19.19,0,0,1,99,100.72Z"/><path class="cls-10" d="M99,103.41a.19.19,0,0,1-.31-.22A.19.19,0,0,1,99,103.41Z"/><path class="cls-10" d="M99.32,106.62c-.23.35-.77,0-.52-.37A.32.32,0,0,1,99.32,106.62Z"/><path class="cls-10" d="M101.34,106.1a.1.1,0,0,1-.17-.12A.1.1,0,0,1,101.34,106.1Z"/><path class="cls-10" d="M102.59,105.06c-.08.11-.26,0-.18-.13S102.67,104.94,102.59,105.06Z"/><path class="cls-10" d="M104.21,104.71c-.1.14-.32,0-.22-.16A.14.14,0,1,1,104.21,104.71Z"/><path class="cls-10" d="M100.12,104.81a.24.24,0,0,1-.39-.27A.24.24,0,0,1,100.12,104.81Z"/><path class="cls-10" d="M97.45,104.18a.25.25,0,0,1-.4-.29A.25.25,0,0,1,97.45,104.18Z"/></g><g id="bush"><path class="cls-11" d="M81,132.37c-.21,50.1-78.84,50.1-79.05,0C2.2,82.27,80.83,82.27,81,132.37Z"/><path class="cls-11" d="M74.3,95.56c-.17,39.45-62.08,39.45-62.25,0C12.22,56.1,74.14,56.11,74.3,95.56Z"/><path class="cls-11" d="M120.86,161.6c-.2,46.91-73.81,46.9-74,0C47.06,114.7,120.67,114.7,120.86,161.6Z"/><path class="cls-11" d="M67.05,165.19c-.17,39.46-62.08,39.45-62.25,0C5,125.74,66.89,125.74,67.05,165.19Z"/><path class="cls-12" d="M61.28,157.9c-.12,28.24-44.45,28.24-44.57,0C16.84,129.66,61.16,129.66,61.28,157.9Z"/><path class="cls-11" d="M113.78,75.66c-43.92-21-11.28-90,32.81-69.43C190.51,27.21,157.87,96.27,113.78,75.66Z"/><path class="cls-11" d="M138,93.53c-35.6-17-9.14-73,26.6-56.29C200.16,54.25,173.71,110.23,138,93.53Z"/><path class="cls-11" d="M30.13,88.64C-17.7,65.75,13.71-.73,61.76,21.7,109.6,44.58,78.18,111.06,30.13,88.64Z"/><path class="cls-11" d="M68.27,67.1C27.18,47.45,55-11.47,96.29,7.8,137.37,27.45,109.53,86.37,68.27,67.1Z"/><path class="cls-12" d="M118.44,63.92C87,48.9,110.37-.54,141.93,14.22,173.37,29.24,150,78.68,118.44,63.92Z"/><path class="cls-12" d="M30.2,79.12c-37.1-17.76-14.64-65.3,22.63-47.9C89.93,49,67.46,96.51,30.2,79.12Z"/><path class="cls-12" d="M55.62,47.78C49,20.18,105.39,6.52,112.09,34.11S62.32,75.37,55.62,47.78Z"/><path class="cls-12" d="M76.27,132.37c-.17,39.36-61.94,39.36-62.1,0C14.33,93,76.11,93,76.27,132.37Z"/><path class="cls-11" d="M136.36,116.57c54.69,6,46.78,81.43-8,76C73.72,186.53,81.62,111.1,136.36,116.57Z"/><path class="cls-11" d="M163.78,69.46c46.62,5.09,38.95,78.3-7.71,73.61C109.44,138,117.11,64.77,163.78,69.46Z"/><path class="cls-11" d="M167.62,126.94c39.22,4.28,32.77,65.86-6.49,61.92C121.92,184.58,128.37,123,167.62,126.94Z"/><path class="cls-12" d="M159.87,85.46c33.38,3.64,27.88,56.05-5.52,52.7C121,134.51,126.46,82.11,159.87,85.46Z"/><path class="cls-12" d="M161.22,130.38c28.08,3.06,23.46,47.14-4.64,44.32C128.51,171.64,133.12,127.55,161.22,130.38Z"/><path class="cls-12" d="M136.78,127c39.13,4.26,32.7,65.7-6.47,61.76C91.19,184.51,97.62,123.08,136.78,127Z"/></g></g></g></svg>