<svg xmlns="http://www.w3.org/2000/svg" viewBox="0 0 200 200"><defs><style>.cls-1{fill:#bec2a3;}.cls-2{fill:#d3dbc4;}.cls-2,.cls-6,.cls-7,.cls-8,.cls-9{stroke:#595c54;stroke-miterlimit:10;stroke-width:0.2px;}.cls-3{fill:#a39382;}.cls-4{fill:#a39f82;}.cls-5{fill:#969988;}.cls-6{fill:#d5e2ce;}.cls-7{fill:#cdcfb9;}.cls-8{fill:#cddecc;}.cls-9{fill:#cccaba;}.cls-10{fill:#906755;}.cls-11{fill:#637d3d;}.cls-12{fill:#63873d;}.cls-13{opacity:0.5;}.cls-14{opacity:0.7;}</style></defs><g id="plains-components"><g id="plains-grid-obstacle-c"><g id="nest"><ellipse class="cls-1" cx="98.39" cy="102.44" rx="22.5" ry="18.23"/><ellipse class="cls-2" cx="103.43" cy="101.34" rx="2.55" ry="3.22" transform="matrix(0.99, -0.16, 0.16, 0.99, -14.57, 17.42)"/><path class="cls-3" d="M80,101.58a8.92,8.92,0,0,1,1.56-6.46,14.43,14.43,0,0,1,5.08-4.53A19.86,19.86,0,0,1,93,88.44a19.24,19.24,0,0,1,6.6,0c-2.16.43-4.23.88-6.25,1.49a30.27,30.27,0,0,0-5.75,2.38,18,18,0,0,0-4.81,3.72A11.92,11.92,0,0,0,80,101.58Z"/><path class="cls-4" d="M118.64,98a17.2,17.2,0,0,1-.65,7.85,18.82,18.82,0,0,1-4,7,17.81,17.81,0,0,1-6.61,4.61,15,15,0,0,1-7.84.93,22.85,22.85,0,0,0,7.19-2.35,21.29,21.29,0,0,0,5.78-4.53,23.29,23.29,0,0,0,4-6.18A29.8,29.8,0,0,0,118.64,98Z"/><path class="cls-4" d="M78.15,103a17.09,17.09,0,0,0,6.32,10.45,21.71,21.71,0,0,0,5.32,3.11,32.44,32.44,0,0,0,6.15,1.78,15.08,15.08,0,0,1-6.64-.3,16.4,16.4,0,0,1-6.08-3,14.46,14.46,0,0,1-4.2-5.39A11.18,11.18,0,0,1,78.15,103Z"/><path class="cls-3" d="M81.38,102.82A7.48,7.48,0,0,0,84,106.74a17.11,17.11,0,0,0,4.06,2.38,34.22,34.22,0,0,0,4.57,1.59c1.59.44,3.21.79,4.89,1.23a16,16,0,0,1-5.17.31,16.53,16.53,0,0,1-5.09-1.3,12.09,12.09,0,0,1-4.37-3.11A5.87,5.87,0,0,1,81.38,102.82Z"/><path class="cls-3" d="M116.36,101.58a15.06,15.06,0,0,0-2.58-6.06,18.08,18.08,0,0,0-4.65-4.41,25.43,25.43,0,0,0-5.84-2.89,44.59,44.59,0,0,0-6.53-1.69,18.34,18.34,0,0,1,7,.18,19,19,0,0,1,6.53,2.75,15,15,0,0,1,4.85,5.24A10.64,10.64,0,0,1,116.36,101.58Z"/><path class="cls-3" d="M114.71,101a8.21,8.21,0,0,1-1.59,5.48,13.34,13.34,0,0,1-4.4,3.82,19.7,19.7,0,0,1-11.19,2.19,37.49,37.49,0,0,0,5.55-1,22.94,22.94,0,0,0,5.15-2A14.61,14.61,0,0,0,112.5,106,9.57,9.57,0,0,0,114.71,101Z"/><path class="cls-5" d="M85.76,105.39a5.51,5.51,0,0,1-2.39-4.4,5.38,5.38,0,0,1,.53-2.56,4.24,4.24,0,0,1,1.72-1.88A7.38,7.38,0,0,0,84.37,101,9.48,9.48,0,0,0,85.76,105.39Z"/><path class="cls-5" d="M111.31,105.26A21.64,21.64,0,0,0,108.18,96a11.19,11.19,0,0,0-7.89-5.28,8.15,8.15,0,0,1,5,1.12A11.32,11.32,0,0,1,109,95.4,15.1,15.1,0,0,1,111.31,105.26Z"/><path class="cls-4" d="M101.38,94.05a9.91,9.91,0,0,0-7.13-1.21,14,14,0,0,0-6.54,3.41,9.69,9.69,0,0,1,6.35-4.39,8.68,8.68,0,0,1,4,.14A7,7,0,0,1,101.38,94.05Z"/><path class="cls-5" d="M86.59,112.06A7.8,7.8,0,0,0,92,115.21a22.26,22.26,0,0,0,6.47,0,43.25,43.25,0,0,0,6.41-1.35c1-.33,2.1-.64,3.13-1s2.06-.79,3.12-1.15c-1,.57-1.92,1.12-2.93,1.61s-2,.89-3.08,1.31a29.7,29.7,0,0,1-6.53,1.61,18.49,18.49,0,0,1-6.75-.26,10.48,10.48,0,0,1-3.14-1.32A6.37,6.37,0,0,1,86.59,112.06Z"/><ellipse class="cls-6" cx="93.33" cy="101.86" rx="3.22" ry="2.55" transform="translate(-43.83 118.45) rotate(-54.4)"/><ellipse class="cls-7" cx="94.65" cy="106.45" rx="2.55" ry="3.22" transform="matrix(0.68, -0.73, 0.73, 0.68, -47.76, 103.59)"/><ellipse class="cls-8" cx="98.51" cy="100.08" rx="2.55" ry="3.22" transform="translate(-27.15 37.39) rotate(-18.94)"/><ellipse class="cls-9" cx="99.77" cy="105.47" rx="3.22" ry="2.55" transform="translate(-44.06 125.2) rotate(-54.4)"/><circle class="cls-10" cx="98.37" cy="104.44" r="0.11"/><circle class="cls-10" cx="98.37" cy="106.02" r="0.11"/><circle class="cls-10" cx="98.51" cy="107.85" r="0.19"/><circle class="cls-10" cx="99.8" cy="107.62" r="0.06"/><circle class="cls-10" cx="100.52" cy="107" r="0.06"/><circle class="cls-10" cx="101.46" cy="106.79" r="0.08"/><circle class="cls-10" cx="99.02" cy="106.82" r="0.14"/><circle class="cls-10" cx="97.45" cy="106.45" r="0.15"/></g><g id="bush"><ellipse class="cls-11" cx="45.36" cy="128.64" rx="43.38" ry="42.05"/><ellipse class="cls-11" cx="43.18" cy="95.56" rx="31.13" ry="30.17"/><ellipse class="cls-11" cx="83.86" cy="161.6" rx="37" ry="35.87"/><ellipse class="cls-11" cx="35.93" cy="165.19" rx="31.13" ry="30.17"/><ellipse class="cls-12" cx="40.69" cy="159.19" rx="22.28" ry="21.6"/><ellipse class="cls-11" cx="120.86" cy="51.02" rx="43.38" ry="42.05" transform="translate(23.1 138.5) rotate(-64.71)"/><ellipse class="cls-11" cx="151.27" cy="65.39" rx="31.13" ry="30.17" transform="translate(27.52 174.22) rotate(-64.71)"/><ellipse class="cls-11" cx="50.74" cy="57.43" rx="41.86" ry="45.84" transform="translate(-22.86 78.77) rotate(-64.71)"/><ellipse class="cls-11" cx="74.3" cy="34.19" rx="31.13" ry="30.17" transform="translate(11.65 86.76) rotate(-64.71)"/><ellipse class="cls-12" cx="120.86" cy="48.9" rx="31.05" ry="30.1" transform="translate(25.01 137.28) rotate(-64.71)"/><ellipse class="cls-12" cx="55.17" cy="57.93" rx="26.49" ry="31.43" transform="translate(-20.77 83.06) rotate(-64.71)"/><ellipse class="cls-12" cx="90.45" cy="36.65" rx="22.28" ry="21.6" transform="translate(18.67 102.77) rotate(-64.71)"/><ellipse class="cls-12" cx="47.44" cy="133.02" rx="31.05" ry="30.1"/><ellipse class="cls-11" cx="130.18" cy="149.53" rx="43.38" ry="42.05" transform="translate(-32.09 263.43) rotate(-84.02)"/><ellipse class="cls-11" cx="159.92" cy="106.26" rx="37" ry="35.87" transform="translate(37.58 254.25) rotate(-84.02)"/><ellipse class="cls-11" cx="164.38" cy="157.9" rx="31.13" ry="30.17" transform="translate(-9.78 304.94) rotate(-84.02)"/><ellipse class="cls-12" cx="157.11" cy="111.81" rx="26.49" ry="25.68" transform="translate(29.54 256.42) rotate(-84.02)"/><ellipse class="cls-12" cx="158.9" cy="152.54" rx="22.28" ry="21.6" transform="translate(-9.36 294.69) rotate(-84.02)"/><ellipse class="cls-12" cx="133.58" cy="143.09" rx="31.05" ry="30.1" transform="translate(-22.65 261.05) rotate(-84.02)"/></g></g></g></svg>