<svg xmlns="http://www.w3.org/2000/svg" viewBox="0 0 800 200"><defs><style>.cls-1{opacity:0.68;}.cls-2{fill:#382f1c;}.cls-3,.cls-7,.cls-8{fill:none;stroke:#826938;stroke-miterlimit:10;}.cls-3{stroke-width:5.53px;}.cls-4{fill:#826938;}.cls-5{fill:#54482b;}.cls-6{fill:#4d4026;}.cls-7{stroke-width:5.36px;}.cls-8{stroke-width:5.95px;}.cls-9{opacity:0.5;}.cls-10{opacity:0.7;}</style></defs><g id="plains-components"><g id="plains-instruction-stack-missing-right"><g class="cls-1"><path class="cls-2" d="M6.51,162.14l81.13,33.18,4.72-20.45,12-20.32c1.71-10.48,6.71-31.76,9.55-42.07L32.58,82.71,27,108.1C19.86,120.48,10.12,148.22,6.51,162.14Z"/><line class="cls-3" x1="92.65" y1="151.62" x2="35.67" y2="130.16"/><polygon class="cls-4" points="60.78 115.46 62.88 120.58 37.66 130.9 49.8 155.3 44.84 157.76 30.06 128.04 60.78 115.46"/><path class="cls-5" d="M71.53,115.14l8.6,2.88,8.57,3c2.85,1,5.76,1.86,8.54,3a81,81,0,0,1,8.22,3.89l-.06.15a78.05,78.05,0,0,1-8.74-2.49c-2.87-1-5.63-2.22-8.43-3.35l-8.39-3.43-8.37-3.5Z"/><path class="cls-5" d="M37.86,95.81l10.07,3.44,10,3.51c3.34,1.19,6.74,2.23,10,3.6s6.54,2.77,9.69,4.44l-.06.16c-3.47-.82-6.85-1.91-10.21-3s-6.6-2.59-9.9-3.9l-9.86-4L37.8,96Z"/><path class="cls-5" d="M48.06,169.48l-8.6-2.89-8.57-3c-2.85-1-5.76-1.86-8.54-3a81,81,0,0,1-8.22-3.89l.06-.16a80.28,80.28,0,0,1,8.74,2.5c2.87,1,5.62,2.21,8.43,3.35l8.39,3.42,8.37,3.51Z"/><path class="cls-6" d="M480.48,10.45,443.1,86.77l19.47,5.9,18.87,13c10,2.33,30.29,8.55,40.09,12l34.09-76.77-24.2-7C519.91,26.07,493.71,14.84,480.48,10.45Z"/><path class="cls-2" d="M480.48,10.45,443.1,86.77l19.47,5.9,18.87,13c10,2.33,30.29,8.55,40.09,12l34.09-76.77-24.2-7C519.91,26.07,493.71,14.84,480.48,10.45Z"/><polyline class="cls-7" points="491.94 67.49 480.77 40.59 508.48 31.18"/><path class="cls-5" d="M533.78,35.16l-5.59,13.05-5.67,13c-1.88,4.34-3.68,8.73-5.74,13s-4.19,8.5-6.55,12.63l-.14-.07c1.56-4.49,3.36-8.87,5.22-13.22s4-8.59,6-12.86l6.1-12.83,6.18-12.79Z"/><path class="cls-5" d="M492.16,99.93l3.35-8.13,3.42-8.1c1.15-2.69,2.18-5.44,3.5-8.06a76.56,76.56,0,0,1,4.3-7.7l.14.07a77.29,77.29,0,0,1-3,8.3c-1.11,2.71-2.51,5.29-3.79,7.93l-3.86,7.9L492.3,100Z"/><path class="cls-5" d="M458,77l3.35-8.14,3.42-8.09c1.15-2.7,2.18-5.45,3.5-8.07a77.68,77.68,0,0,1,4.3-7.7l.15.07a76.57,76.57,0,0,1-3,8.3c-1.11,2.71-2.51,5.29-3.79,7.93l-3.86,7.9-3.93,7.86Z"/><path class="cls-7" d="M483.09,41.54c36.71,12.58,44.17,36.78,32,63.51"/><path class="cls-2" d="M65.88,8.22,43.54,99.86l22.51,1.76,23.55,9.55c11.43.14,34.88,2.06,46.31,3.44l18.67-91.35-27.9-1.83C112.35,15.76,81.27,9.83,65.88,8.22Z"/><line class="cls-8" x1="90.85" y1="98.2" x2="104.58" y2="34.14"/><polygon class="cls-4" points="124.23 58.51 119.12 61.56 104.1 36.37 80.08 53.19 76.67 48.31 105.93 27.83 124.23 58.51"/><path class="cls-5" d="M126.29,69.9l-1.69,9.61-1.79,9.59c-.6,3.2-1.06,6.43-1.86,9.58a87.59,87.59,0,0,1-2.83,9.37l-.18,0a86.9,86.9,0,0,1,1.26-9.7c.55-3.21,1.46-6.34,2.22-9.5l2.31-9.49,2.39-9.46Z"/><path class="cls-5" d="M141.48,31l-2,11.27L137.3,53.49c-.72,3.75-1.3,7.52-2.23,11.23s-1.9,7.39-3.18,11l-.18,0c.32-3.84.94-7.61,1.62-11.37S135,56.9,135.9,53.19l2.66-11.14,2.75-11.11Z"/><path class="cls-5" d="M64.72,53.61,66.41,44l1.78-9.59c.61-3.2,1.06-6.43,1.87-9.58a87.59,87.59,0,0,1,2.83-9.37l.18,0a87.38,87.38,0,0,1-1.26,9.71c-.56,3.2-1.46,6.33-2.22,9.5l-2.31,9.48-2.39,9.46Z"/><path class="cls-6" d="M261.71,26l18.84,82.86,18.85-7.63,22.83-1.77c9.28-4.48,28.94-12.37,38.71-15.85L339.27,2.43,316,12.17C302.21,13.36,274.77,21.07,261.71,26Z"/><path class="cls-2" d="M261.71,26l18.84,82.86,18.85-7.63,22.83-1.77c9.28-4.48,28.94-12.37,38.71-15.85L339.27,2.43,316,12.17C302.21,13.36,274.77,21.07,261.71,26Z"/><polyline class="cls-7" points="306.45 63.15 280.86 49.24 296.52 24.52"/><path class="cls-5" d="M318.71,11.72l3.84,13.68,3.77,13.69c1.26,4.57,2.62,9.11,3.69,13.72s2.08,9.24,2.84,13.93l-.16,0c-1.6-4.47-2.95-9-4.23-13.57s-2.29-9.19-3.38-13.8L321.77,25.6l-3.22-13.84Z"/><path class="cls-5" d="M327,88.27l-2.5-8.43-2.42-8.45c-.8-2.82-1.72-5.61-2.34-8.47a76.72,76.72,0,0,1-1.49-8.7l.16,0a79,79,0,0,1,2.88,8.34c.84,2.8,1.38,5.69,2,8.55l1.95,8.57,1.88,8.59Z"/><path class="cls-5" d="M286,91.88l-2.5-8.43L281.11,75c-.8-2.81-1.73-5.6-2.35-8.47a80.85,80.85,0,0,1-1.49-8.69l.16,0a76.73,76.73,0,0,1,2.89,8.33c.84,2.81,1.37,5.7,2,8.55l1.95,8.58,1.88,8.59Z"/><path class="cls-7" d="M283.26,48.52c36.48-13.26,57.48.89,64.79,29.33"/><path class="cls-2" d="M169.72,2.31,147,93.87l22.51,1.84,23.51,9.64c11.44.18,34.87,2.18,46.3,3.6l19-91.28-27.9-1.93C216.16,10,185.1,4,169.72,2.31Z"/><line class="cls-8" x1="194.36" y1="92.38" x2="208.32" y2="28.37"/><polygon class="cls-4" points="227.89 52.81 222.76 55.84 207.84 30.6 183.75 47.33 180.36 42.44 209.7 22.07 227.89 52.81"/><path class="cls-5" d="M229.9,64.2l-1.73,9.61-1.81,9.59c-.62,3.19-1.09,6.42-1.91,9.57a86.91,86.91,0,0,1-2.86,9.36l-.17,0a84.66,84.66,0,0,1,1.29-9.7c.57-3.21,1.48-6.33,2.25-9.49l2.34-9.48,2.43-9.45Z"/><path class="cls-5" d="M245.24,25.34,243.15,36.6,241,47.84c-.74,3.74-1.33,7.52-2.27,11.22s-1.93,7.39-3.22,11l-.17,0c.33-3.83.95-7.6,1.65-11.35s1.72-7.44,2.61-11.15l2.7-11.12,2.79-11.11Z"/><path class="cls-5" d="M168.39,47.69l1.73-9.61,1.81-9.58c.62-3.2,1.09-6.42,1.91-9.57a86.91,86.91,0,0,1,2.86-9.36l.18,0a87,87,0,0,1-1.3,9.7c-.56,3.2-1.48,6.33-2.25,9.49L171,38.27l-2.43,9.46Z"/><path class="cls-2" d="M88.83,106.68l30.75,89.17,19.89-10.69,25-4.69c9.69-6.07,30.45-17.13,40.81-22.15L171.58,71.38,147.11,84.93C132,87.9,102.65,99.72,88.83,106.68Z"/><line class="cls-8" x1="158.48" y1="168.88" x2="135.39" y2="107.57"/><polygon class="cls-4" points="165.11 117.44 162.46 122.77 136.2 109.7 125.09 136.84 119.58 134.58 133.13 101.53 165.11 117.44"/><path class="cls-5" d="M173,125.91l3.77,9,3.69,9c1.22,3,2.58,6,3.6,9.07a86.48,86.48,0,0,1,2.69,9.41l-.17.06a88,88,0,0,1-4.19-8.84c-1.27-3-2.19-6.12-3.27-9.19l-3.19-9.23-3.1-9.25Z"/><path class="cls-5" d="M164.73,85l4.37,10.59,4.28,10.61c1.42,3.55,3,7,4.2,10.65s2.4,7.25,3.29,11l-.17.06c-1.8-3.4-3.33-6.9-4.79-10.43s-2.59-7.17-3.86-10.77l-3.79-10.81L164.56,85Z"/><path class="cls-5" d="M112.39,145.5l-3.77-9-3.69-9c-1.22-3-2.58-6-3.61-9.07A85.17,85.17,0,0,1,98.64,109l.17-.06a85.75,85.75,0,0,1,4.18,8.84c1.27,3,2.2,6.12,3.28,9.19l3.18,9.23,3.11,9.25Z"/><path class="cls-2" d="M232.71,74.78l-52.32,70.31L199,154.76l16.69,16.7c9.73,4.27,29.09,14.4,38.37,19.72l49.08-71.39-23.21-11.68C269.74,98.07,245.3,81.73,232.71,74.78Z"/><line class="cls-3" x1="221.46" y1="160.82" x2="256.43" y2="110.98"/><polygon class="cls-4" points="264.42 138.95 258.94 139.71 255.22 112.72 228.56 118.4 227.41 112.99 259.88 106.07 264.42 138.95"/><path class="cls-5" d="M262.05,149.45l-4.93,7.61-5,7.56c-1.67,2.52-3.23,5.11-5.07,7.52a78.55,78.55,0,0,1-5.81,7l-.14-.1a79.76,79.76,0,0,1,4.6-7.85c1.63-2.54,3.54-4.89,5.34-7.32l5.41-7.28,5.48-7.23Z"/><path class="cls-5" d="M289.15,121.65l-5.83,8.89-5.91,8.85c-2,3-3.83,6-6,8.81s-4.31,5.64-6.72,8.28l-.14-.1c1.67-3.16,3.56-6.17,5.5-9.13s4.15-5.76,6.25-8.62l6.31-8.56,6.38-8.52Z"/><path class="cls-5" d="M215.27,113.19l4.93-7.61,5-7.56c1.68-2.52,3.24-5.12,5.07-7.52a80.43,80.43,0,0,1,5.82-7l.14.09a79.41,79.41,0,0,1-4.6,7.85c-1.63,2.55-3.55,4.9-5.34,7.33l-5.41,7.28-5.48,7.23Z"/><path class="cls-6" d="M318.44,96.29l-27.87,80.28,20,3.5,20.3,10.58c10.24,1.11,31.1,4.83,41.24,7l24.55-80.33-24.87-4C359.47,107,332.1,99.05,318.44,96.29Z"/><path class="cls-2" d="M318.44,96.29l-27.87,80.28,20,3.5,20.3,10.58c10.24,1.11,31.1,4.83,41.24,7l24.55-80.33-24.87-4C359.47,107,332.1,99.05,318.44,96.29Z"/><polyline class="cls-7" points="336.71 151.52 322.37 126.17 348.74 113.48"/><path class="cls-5" d="M374.34,114.37l-4,13.64-4.05,13.61c-1.34,4.54-2.6,9.11-4.12,13.59s-3.13,8.95-5,13.33l-.16,0c1-4.65,2.27-9.21,3.59-13.76s2.93-9,4.44-13.49l4.51-13.48,4.58-13.44Z"/><path class="cls-5" d="M340.85,183.7l2.35-8.47,2.41-8.45c.82-2.82,1.51-5.67,2.5-8.43a75.71,75.71,0,0,1,3.34-8.17l.15,0a77.14,77.14,0,0,1-2,8.6c-.77,2.83-1.85,5.56-2.8,8.33L344,175.47,341,183.75Z"/><path class="cls-5" d="M304.19,165.09l2.34-8.48,2.42-8.45c.81-2.82,1.5-5.67,2.49-8.43a77.64,77.64,0,0,1,3.34-8.16l.15,0a77.14,77.14,0,0,1-2,8.6c-.77,2.83-1.85,5.56-2.8,8.33l-2.88,8.31-3,8.29Z"/><path class="cls-7" d="M324.79,126.83c38,8,48.29,31.18,39.44,59.18"/><path class="cls-6" d="M388.78,132.9l57,63.07,12.72-15.88,19-12.7c5.9-8.45,19.2-24.94,26-32.76L444.92,74.44,429.42,94.3C417.94,102.1,397.78,122.24,388.78,132.9Z"/><path class="cls-2" d="M388.78,132.9l57,63.07,12.72-15.88,19-12.7c5.9-8.45,19.2-24.94,26-32.76L444.92,74.44,429.42,94.3C417.94,102.1,397.78,122.24,388.78,132.9Z"/><polyline class="cls-7" points="445.99 143.46 416.87 143.83 418.43 114.61"/><path class="cls-5" d="M431.53,92.6l10,10.05,10,10.1c3.33,3.37,6.73,6.67,9.93,10.16s6.33,7.05,9.28,10.78l-.11.11c-3.59-3.12-7-6.43-10.34-9.78s-6.48-6.89-9.69-10.38L441,103.21l-9.57-10.5Z"/><path class="cls-5" d="M476.19,155.33l-6.3-6.14L463.64,143c-2.07-2.06-4.24-4-6.18-6.24a76.48,76.48,0,0,1-5.55-6.85l.11-.12a78.63,78.63,0,0,1,6.6,5.86c2.1,2,4,4.3,5.95,6.47l5.9,6.52,5.84,6.58Z"/><path class="cls-5" d="M442.22,178.5l-6.3-6.13-6.25-6.19c-2.07-2.07-4.24-4.05-6.19-6.24a78.31,78.31,0,0,1-5.54-6.86l.11-.11a75.23,75.23,0,0,1,6.6,5.86c2.1,2,4,4.3,6,6.46l5.9,6.53,5.83,6.57Z"/><path class="cls-7" d="M418.61,142c25.33-29.4,50.57-27.32,70.85-6.09"/><path class="cls-6" d="M373.9,12.84,341.73,91.5l19.83,4.58,19.7,11.66c10.17,1.66,30.79,6.5,40.79,9.26l28.87-78.88L426.3,32.75C414.3,25.78,387.4,16.34,373.9,12.84Z"/><path class="cls-2" d="M373.9,12.84,341.73,91.5l19.83,4.58,19.7,11.66c10.17,1.66,30.79,6.5,40.79,9.26l28.87-78.88L426.3,32.75C414.3,25.78,387.4,16.34,373.9,12.84Z"/><polyline class="cls-7" points="389.17 68.98 376.22 42.9 403.23 31.65"/><path class="cls-5" d="M428.75,33.92,424,47.32,419.26,60.7c-1.59,4.46-3.09,9-4.86,13.35s-3.6,8.76-5.68,13l-.15,0c1.26-4.59,2.76-9.08,4.33-13.55s3.41-8.84,5.16-13.24L423.29,47l5.3-13.18Z"/><path class="cls-5" d="M391.56,101.34l2.8-8.34,2.87-8.31c1-2.76,1.81-5.58,2.95-8.28a79.24,79.24,0,0,1,3.77-8l.15.06A74.07,74.07,0,0,1,401.68,77c-.92,2.78-2.14,5.45-3.24,8.17l-3.33,8.14-3.4,8.11Z"/><path class="cls-5" d="M356,80.77l2.79-8.34,2.87-8.31c1-2.77,1.81-5.58,2.95-8.28a77.19,77.19,0,0,1,3.78-8l.15.06a79,79,0,0,1-2.42,8.48c-.93,2.78-2.15,5.45-3.25,8.16l-3.33,8.14-3.39,8.12Z"/><path class="cls-7" d="M378.6,43.68c37.47,10.1,46.54,33.74,36.18,61.23"/></g></g></g></svg>