<svg xmlns="http://www.w3.org/2000/svg" viewBox="0 0 200 200"><defs><style>.cls-1{fill:#637d3d;}.cls-2{fill:#63873d;}.cls-3{opacity:0.5;}.cls-4{opacity:0.7;}</style></defs><g id="plains-components"><g id="plains-grid-obstacle-b"><path class="cls-1" d="M142.11,165C54.27,195,6.49,57.39,94.07,26.58,181.91-3.49,229.68,134.16,142.11,165Z"/><path class="cls-1" d="M161.18,90.18c-52.53,18-81.11-64.34-28.73-82.77C185-10.57,213.56,71.76,161.18,90.18Z"/><path class="cls-1" d="M75,195.06c-62.45,21.38-96.42-76.49-34.15-98.4C103.27,75.29,137.24,173.16,75,195.06Z"/><path class="cls-1" d="M75.77,112.74C11,134.92-24.28,33.37,40.33,10.64,105.13-11.54,140.38,90,75.77,112.74Z"/><path class="cls-2" d="M141.7,148.68C70.56,173,31.87,61.56,102.8,36.6,173.93,12.25,212.62,123.73,141.7,148.68Z"/><path class="cls-2" d="M79.77,169.67c-44.71,15.31-69-54.75-24.45-70.44C100,83.93,124.34,154,79.77,169.67Z"/><path class="cls-2" d="M74,104C36.37,116.9,15.92,58,53.41,44.78,91,31.9,111.48,90.84,74,104Z"/></g></g></svg>