<svg xmlns="http://www.w3.org/2000/svg" viewBox="0 0 200 600"><defs><style>.cls-1{fill:#637d3d;}.cls-2{fill:#63873d;}.cls-3{opacity:0.5;}.cls-4{opacity:0.7;}</style></defs><g id="plains-components"><g id="plains-bushes-left"><path class="cls-1" d="M-27.5,118.23C-61.46,19,94-34.95,128.82,64,162.78,163.19,7.31,217.15-27.5,118.23Z"/><path class="cls-1" d="M73.46,174.58C49.23,103.81,160.14,65.32,185,135.88,209.19,206.64,98.28,245.13,73.46,174.58Z"/><path class="cls-1" d="M8.61,38.85c-29.49-86.16,105.53-133,135.75-47.12C173.86,77.89,38.83,124.75,8.61,38.85Z"/><path class="cls-1" d="M74.31,94.61C53,32.32,150.6-1.56,172.45,60.55,193.77,122.84,96.16,156.72,74.31,94.61Z"/><path class="cls-2" d="M-5.31,33.65C-27.41-30.91,73.75-66,96.39-1.66,118.49,62.9,17.33,98-5.31,33.65Z"/><path class="cls-1" d="M17.34,131C141,88.71,208.26,282.49,85,325.87-38.69,368.2-105.95,174.42,17.34,131Z"/><path class="cls-1" d="M30.41,386.71c105.9-36.25,163.5,129.7,57.92,166.85C-17.57,589.81-75.17,423.86,30.41,386.71Z"/><path class="cls-1" d="M48.85,290.89c110.76-37.91,171,135.66,60.57,174.52C-1.34,503.32-61.59,329.75,48.85,290.89Z"/><path class="cls-1" d="M50.46,511.94c104.86-35.89,161.89,128.42,57.34,165.2C3,713-54.08,548.72,50.46,511.94Z"/><path class="cls-1" d="M73.46,552C49.23,481.18,160.14,442.69,185,513.25,209.19,584,98.28,622.51,73.46,552Z"/><path class="cls-2" d="M-19.73,300.51c-24.4-71.29,87.31-110.06,112.31-39C117,332.8,5.28,371.58-19.73,300.51Z"/><path class="cls-2" d="M-28.16,357.17c54.06-83.51,185.48.77,132.13,84.74C49.91,525.42-81.51,441.14-28.16,357.17Z"/><path class="cls-2" d="M18,325.52c44-68,151,.62,107.57,69C81.51,462.48-25.48,393.87,18,325.52Z"/><path class="cls-2" d="M-56.13,590.67C-88.39,496.42,59.29,445.16,92.35,539.13,124.61,633.37-23.07,684.62-56.13,590.67Z"/><path class="cls-2" d="M-24.72,101C-50.07,26.93,66-13.35,92,60.49,117.32,134.55,1.26,174.83-24.72,101Z"/></g></g></svg>