<svg xmlns="http://www.w3.org/2000/svg" viewBox="0 0 1920 1080"><defs><style>.cls-1{fill:#8f955d;}.cls-2{fill:#9aa561;}.cls-3{fill:#9e9865;}.cls-4{opacity:0.5;}.cls-5{opacity:0.7;}</style></defs><g id="plains"><g id="plains-instructions"><rect class="cls-1" x="-50" y="-50" width="2020" height="1180"/></g><g id="plains-grid"><rect class="cls-2" x="-50" y="-50" width="1369.23" height="973.85"/></g><polygon class="cls-3" points="15.69 945.66 157.56 955.89 305.11 941.67 577.11 955.89 737.7 942.26 1110.44 933.37 1322.14 939.08 1367.56 916.42 1361.2 833.32 1579.33 816.63 1738 827 1874 816.63 1907.64 931.69 1903.33 1057.22 1748.67 1048.33 1620.07 1067.89 1359.33 1069.67 911.33 1060.78 651.78 1067.89 341.85 1077.37 20.67 1066.11 15.69 945.66"/><polygon class="cls-3" points="1374 592.33 1519.33 577.67 1675.33 588.33 1816.67 589 1892.67 612.33 1907.64 672.33 1907.64 748.33 1855.16 776.71 1731.33 784.33 1506 767 1395.33 769.67 1338 749.67 1347.33 637.67 1374 592.33"/></g></svg>