<svg xmlns="http://www.w3.org/2000/svg" viewBox="0 0 200 200"><defs><style>.cls-1{fill:#666;}.cls-2{fill:#828282;}.cls-3{fill:#637d3d;}.cls-4{fill:#63873d;}.cls-5{opacity:0.5;}.cls-6{opacity:0.7;}</style></defs><g id="plains-components"><g id="plains-grid-obstacle-a"><path class="cls-1" d="M70,53.81,194.21,189.9c-109.9-15.47-84.79-7.21-165.9-80.47L20.36,23Z"/><polygon class="cls-2" points="194.21 189.9 184.27 43.21 82.95 10.1 20.36 23.01 70.03 53.81 194.21 189.9"/><path class="cls-3" d="M88.74,128.64c-.24,55-86.52,55-86.75,0C2.22,73.66,88.51,73.66,88.74,128.64Z"/><path class="cls-3" d="M74.3,95.56c-.17,39.45-62.08,39.45-62.25,0C12.22,56.1,74.14,56.11,74.3,95.56Z"/><path class="cls-3" d="M120.86,161.6c-.2,46.91-73.81,46.9-74,0C47.06,114.7,120.67,114.7,120.86,161.6Z"/><path class="cls-3" d="M67.05,165.19c-.17,39.46-62.08,39.45-62.25,0C5,125.74,66.89,125.74,67.05,165.19Z"/><path class="cls-4" d="M78.5,133c-.17,39.36-61.95,39.36-62.11,0C16.56,93.66,78.33,93.66,78.5,133Z"/><path class="cls-4" d="M101.49,156.62c-.14,33.58-52.84,33.57-53,0C48.66,123,101.35,123,101.49,156.62Z"/><path class="cls-4" d="M63,159.19c-.12,28.24-44.45,28.24-44.56,0C18.53,130.94,62.85,131,63,159.19Z"/></g></g></svg>