<svg xmlns="http://www.w3.org/2000/svg" viewBox="0 0 200 600"><defs><style>.cls-1{fill:#637d3d;}.cls-2{fill:#63873d;}.cls-3{opacity:0.5;}.cls-4{opacity:0.7;}</style></defs><g id="plains-components"><g id="plains-bushes-left"><ellipse class="cls-1" cx="50.66" cy="91.1" rx="82.73" ry="80.2" transform="translate(-27.07 21.65) rotate(-19.14)"/><ellipse class="cls-1" cx="129.21" cy="155.22" rx="59.01" ry="57.21" transform="translate(-43.76 50.96) rotate(-19.14)"/><ellipse class="cls-1" cx="76.49" cy="15.29" rx="71.85" ry="69.65" transform="translate(-0.78 25.93) rotate(-19.14)"/><ellipse class="cls-1" cx="123.38" cy="77.58" rx="51.94" ry="50.35" transform="translate(-18.62 44.75) rotate(-19.14)"/><ellipse class="cls-2" cx="33.62" cy="80.74" rx="61.76" ry="59.87" transform="translate(-24.62 15.49) rotate(-19.14)"/><ellipse class="cls-2" cx="45.54" cy="15.99" rx="53.83" ry="52.18" transform="translate(-2.73 15.82) rotate(-19.14)"/><ellipse class="cls-1" cx="51.16" cy="228.46" rx="99.96" ry="103.11" transform="translate(-72.09 29.41) rotate(-19.14)"/><ellipse class="cls-1" cx="59.37" cy="470.14" rx="85.6" ry="88.31" transform="translate(-150.9 45.47) rotate(-19.14)"/><ellipse class="cls-1" cx="79.14" cy="378.15" rx="89.54" ry="92.36" transform="translate(-119.64 46.87) rotate(-19.14)"/><ellipse class="cls-1" cx="79.14" cy="594.54" rx="84.76" ry="87.43" transform="translate(-190.6 58.83) rotate(-19.14)"/><ellipse class="cls-1" cx="129.21" cy="532.6" rx="59.01" ry="57.21" transform="translate(-167.52 71.83) rotate(-19.14)"/><ellipse class="cls-2" cx="36.43" cy="281.01" rx="59.44" ry="57.62" transform="translate(-90.14 27.49) rotate(-19.14)"/><ellipse class="cls-2" cx="37.91" cy="399.54" rx="76.08" ry="78.49" transform="translate(-318.89 215.78) rotate(-57.33)"/><ellipse class="cls-2" cx="71.73" cy="360" rx="61.94" ry="63.89" transform="translate(-270.04 226.06) rotate(-57.33)"/><ellipse class="cls-2" cx="18.11" cy="564.89" rx="78.58" ry="76.18" transform="translate(-184.25 37.18) rotate(-19.14)"/></g></g></svg>