<svg xmlns="http://www.w3.org/2000/svg" viewBox="0 0 800 200"><defs><style>.cls-1{opacity:0.68;}.cls-2{fill:#382f1c;}.cls-3,.cls-7,.cls-8,.cls-9{fill:none;stroke:#826938;stroke-miterlimit:10;}.cls-3{stroke-width:4.91px;}.cls-4{fill:#826938;}.cls-5{fill:#54482b;}.cls-6{fill:#4d4026;}.cls-7{stroke-width:5.11px;}.cls-8{stroke-width:5.02px;}.cls-9{stroke-width:5.28px;}.cls-10{opacity:0.5;}.cls-11{opacity:0.7;}</style></defs><g id="plains-components"><g id="plains-instruction-stack"><g class="cls-1"><polygon class="cls-2" points="18.55 160.13 90.58 189.59 94.77 171.44 105.45 153.4 108.77 136.32 113.92 116.04 41.69 89.61 36.78 112.15 27.07 132.57 18.55 160.13"/><line class="cls-3" x1="95.02" y1="150.79" x2="44.44" y2="131.74"/><polygon class="cls-4" points="66.73 118.69 68.59 123.23 46.2 132.4 56.98 154.06 52.58 156.24 39.46 129.86 66.73 118.69"/><path class="cls-5" d="M76.27,118.4,83.91,121l7.61,2.62c2.53.89,5.11,1.66,7.58,2.7a71.41,71.41,0,0,1,7.3,3.46l-.06.14a73.24,73.24,0,0,1-7.76-2.22c-2.55-.84-5-2-7.48-3l-7.45-3-7.43-3.11Z"/><path class="cls-5" d="M46.38,101.24l8.94,3.05,8.92,3.13c3,1,6,2,8.88,3.19s5.8,2.46,8.61,4l0,.13C78.59,114,75.59,113,72.61,112s-5.87-2.28-8.79-3.46L55.06,105l-8.73-3.6Z"/><path class="cls-5" d="M55.44,166.64l-7.64-2.56-7.61-2.63c-2.53-.88-5.11-1.65-7.58-2.7a71.32,71.32,0,0,1-7.3-3.45l.06-.14a68.79,68.79,0,0,1,7.76,2.22c2.55.84,5,2,7.48,3l7.45,3,7.43,3.11Z"/><polygon class="cls-6" points="559.39 41.8 585.82 118.43 602.91 109.24 624.37 105.2 640.03 96.07 659.44 86.17 630.5 11.46 609.48 23.1 586.81 29.53 559.39 41.8"/><polygon class="cls-2" points="559.39 41.8 585.82 118.43 602.91 109.24 624.37 105.2 640.03 96.07 659.44 86.17 630.5 11.46 609.48 23.1 586.81 29.53 559.39 41.8"/><path class="cls-5" d="M581.75,40.78l5.06,12.57,5,12.6c1.67,4.2,3.42,8.36,4.91,12.62s2.93,8.55,4.13,12.93l-.14,0c-2-4.08-3.73-8.25-5.42-12.44s-3.12-8.47-4.63-12.73l-4.56-12.76L581.6,40.84Z"/><path class="cls-5" d="M646.33,88.28l-3.25-7.73-3.17-7.77c-1-2.59-2.21-5.13-3.09-7.79a73.47,73.47,0,0,1-2.31-8.09l.14,0a74.14,74.14,0,0,1,3.6,7.6c1.09,2.58,1.89,5.26,2.81,7.9l2.74,7.93,2.67,8Z"/><polyline class="cls-7" points="619.33 67.29 631.68 42.41 605.92 31.68"/><path class="cls-7" d="M629.41,43.16C593.67,52.79,585,75.34,594.9,101.55"/><polygon class="cls-6" points="633.07 33.61 610.7 111.51 629.97 113.81 649.86 122.83 667.92 124.34 689.5 127.39 708.71 49.61 684.81 47.06 662.57 39.31 633.07 33.61"/><polygon class="cls-2" points="633.07 33.61 610.7 111.51 629.97 113.81 649.86 122.83 667.92 124.34 689.5 127.39 708.71 49.61 684.81 47.06 662.57 39.31 633.07 33.61"/><path class="cls-5" d="M652,45.61l-3.08,13.2L645.73,72c-1,4.39-2,8.81-3.22,13.16s-2.51,8.68-4,12.94l-.15,0c.72-4.48,1.68-8.9,2.7-13.3s2.32-8.73,3.52-13.08l3.6-13.06,3.67-13Z"/><path class="cls-5" d="M677.55,121.59l1.79-8.2,1.86-8.18c.63-2.72,1.13-5.47,1.94-8.15a74,74,0,0,1,2.75-8l.15,0a71.75,71.75,0,0,1-1.42,8.29c-.58,2.73-1.47,5.39-2.23,8.08l-2.31,8.06-2.39,8Z"/><polyline class="cls-7" points="667.5 88.89 691.91 75.62 676.97 52.04"/><path class="cls-7" d="M689.62,74.94c-34.8-12.65-54.82.84-61.8,28"/><polygon class="cls-6" points="466.4 23.16 431.39 94.64 449.63 100.17 467.31 112.31 484.51 116.88 504.86 123.53 536.79 51.62 514.12 45.05 493.94 33.74 466.4 23.16"/><polygon class="cls-2" points="466.4 23.16 431.39 94.64 449.63 100.17 467.31 112.31 484.51 116.88 504.86 123.53 536.79 51.62 514.12 45.05 493.94 33.74 466.4 23.16"/><polyline class="cls-8" points="477.14 76.58 466.68 51.39 492.63 42.58"/><path class="cls-5" d="M516.33,46.3l-5.24,12.23-5.31,12.2c-1.76,4.07-3.45,8.18-5.37,12.17s-3.92,8-6.13,11.83l-.14-.06c1.46-4.21,3.15-8.31,4.9-12.39s3.74-8,5.65-12l5.72-12,5.79-12Z"/><path class="cls-5" d="M477.34,107l3.14-7.62,3.21-7.59c1.08-2.52,2-5.1,3.27-7.55A72.78,72.78,0,0,1,491,77l.14.06a71.05,71.05,0,0,1-2.8,7.77c-1,2.55-2.35,5-3.55,7.43l-3.61,7.4L477.48,107Z"/><path class="cls-5" d="M445.36,85.51l3.14-7.62,3.2-7.58c1.08-2.53,2-5.11,3.28-7.56a73,73,0,0,1,4-7.21l.13.06a74.12,74.12,0,0,1-2.79,7.78c-1,2.54-2.35,5-3.55,7.43l-3.62,7.4-3.68,7.36Z"/><path class="cls-8" d="M468.85,52.28c34.39,11.78,41.37,34.45,30,59.49"/><polygon class="cls-2" points="77.24 30.08 57.4 111.44 77.39 113 98.3 121.48 117 122.29 139.41 124.53 155.98 43.44 131.21 41.81 107.92 34.74 77.24 30.08"/><line class="cls-9" x1="99.4" y1="109.97" x2="111.59" y2="53.09"/><polygon class="cls-4" points="129.04 74.72 124.51 77.44 111.17 55.07 89.84 70.01 86.81 65.67 112.8 47.49 129.04 74.72"/><path class="cls-5" d="M130.87,84.84l-1.5,8.53-1.59,8.52c-.53,2.84-.94,5.7-1.66,8.5a75,75,0,0,1-2.51,8.32l-.15,0a74.68,74.68,0,0,1,1.12-8.62c.49-2.85,1.29-5.63,2-8.44l2-8.41,2.13-8.41Z"/><path class="cls-5" d="M144.36,50.28l-1.82,10-1.9,10c-.64,3.33-1.15,6.68-2,10S137,86.81,135.84,90l-.16,0c.29-3.4.83-6.75,1.44-10.08s1.5-6.61,2.28-9.9l2.36-9.89,2.44-9.87Z"/><path class="cls-5" d="M76.2,70.37l1.51-8.53,1.58-8.52c.54-2.83.94-5.7,1.66-8.5a77.15,77.15,0,0,1,2.51-8.32l.16,0a77.06,77.06,0,0,1-1.12,8.61c-.49,2.85-1.3,5.63-2,8.44l-2,8.42-2.12,8.4Z"/><polygon class="cls-6" points="291.08 24.74 308.73 102.36 326.39 95.21 347.77 93.55 364.03 86.3 384.04 78.7 363.73 2.69 341.97 11.81 319.16 15.68 291.08 24.74"/><polygon class="cls-2" points="291.08 24.74 308.73 102.36 326.39 95.21 347.77 93.55 364.03 86.3 384.04 78.7 363.73 2.69 341.97 11.81 319.16 15.68 291.08 24.74"/><polyline class="cls-8" points="332.99 59.57 309.02 46.54 323.69 23.38"/><path class="cls-5" d="M344.47,11.39l3.6,12.81L351.6,37c1.19,4.28,2.45,8.53,3.46,12.85s1.95,8.66,2.66,13.06l-.15,0c-1.5-4.19-2.76-8.44-4-12.71s-2.14-8.61-3.16-12.93l-3.1-12.94-3-13Z"/><path class="cls-5" d="M352.23,83.1l-2.34-7.9-2.27-7.91c-.74-2.65-1.62-5.25-2.19-7.94a73.6,73.6,0,0,1-1.4-8.14l.15,0a75.77,75.77,0,0,1,2.71,7.8c.79,2.64,1.28,5.34,1.9,8l1.83,8,1.76,8Z"/><path class="cls-5" d="M313.86,86.48l-2.34-7.9-2.27-7.92c-.75-2.64-1.62-5.25-2.2-7.93a73.58,73.58,0,0,1-1.39-8.14l.15,0a73.4,73.4,0,0,1,2.7,7.8c.79,2.63,1.29,5.34,1.91,8l1.83,8,1.75,8Z"/><path class="cls-8" d="M311.27,45.86c34.17-12.42,53.84.84,60.68,27.48"/><polygon class="cls-6" points="679.74 33.89 689.23 114.39 707.89 109.06 729.72 109.69 746.96 104.1 768.04 98.56 755.68 19.4 732.66 26.3 709.15 27.75 679.74 33.89"/><polygon class="cls-2" points="679.74 33.89 689.23 114.39 707.89 109.06 729.72 109.69 746.96 104.1 768.04 98.56 755.68 19.4 732.66 26.3 709.15 27.75 679.74 33.89"/><path class="cls-5" d="M701.8,37.66,704.06,51l2.2,13.37c.73,4.46,1.56,8.9,2.11,13.38s1,9,1.28,13.51l-.15,0c-1.07-4.41-1.89-8.85-2.65-13.3s-1.24-9-1.81-13.43l-1.73-13.44-1.66-13.45Z"/><path class="cls-5" d="M754.77,97.83l-1.51-8.25-1.45-8.26c-.47-2.75-1.07-5.49-1.36-8.27a73.28,73.28,0,0,1-.54-8.4l.16,0a73.64,73.64,0,0,1,1.89,8.2c.52,2.74.73,5.54,1.07,8.31l1,8.33.92,8.34Z"/><polyline class="cls-7" points="732.87 71.57 750.24 49.89 727.36 33.92"/><path class="cls-7" d="M747.87,50.14c-37,1.79-50.23,22-46.17,49.7"/><polygon class="cls-2" points="150.15 18.02 130.03 99.3 150.01 100.93 170.88 109.49 189.59 110.37 211.98 112.69 228.85 31.65 204.08 29.94 180.82 22.78 150.15 18.02"/><line class="cls-9" x1="172.03" y1="97.98" x2="184.42" y2="41.15"/><polygon class="cls-4" points="201.8 62.84 197.25 65.54 184 43.13 162.61 57.99 159.6 53.64 185.65 35.55 201.8 62.84"/><path class="cls-5" d="M203.59,73l-1.54,8.52L200.44,90c-.55,2.83-1,5.7-1.69,8.49a77.15,77.15,0,0,1-2.54,8.31l-.16,0a77.28,77.28,0,0,1,1.15-8.62c.5-2.84,1.32-5.62,2-8.42l2.08-8.41,2.15-8.4Z"/><path class="cls-5" d="M217.2,38.46l-1.86,10-1.93,10c-.65,3.33-1.18,6.68-2,10s-1.71,6.56-2.86,9.77l-.16,0c.3-3.4.85-6.75,1.47-10.08s1.53-6.6,2.32-9.9l2.4-9.87L217,38.42Z"/><path class="cls-5" d="M149,58.3l1.54-8.52,1.61-8.52c.55-2.83,1-5.7,1.69-8.49a77.15,77.15,0,0,1,2.54-8.31l.16,0a77.28,77.28,0,0,1-1.15,8.62c-.5,2.84-1.32,5.62-2,8.42l-2.08,8.41-2.15,8.4Z"/><polygon class="cls-2" points="85.16 108.65 112.47 187.81 130.13 178.32 152.3 174.15 168.47 164.72 188.53 154.49 158.63 77.31 136.91 89.33 113.49 95.97 85.16 108.65"/><line class="cls-9" x1="147" y1="163.87" x2="126.5" y2="109.43"/><polygon class="cls-4" points="152.88 118.19 150.53 122.93 127.22 111.33 117.35 135.42 112.46 133.41 124.49 104.07 152.88 118.19"/><path class="cls-5" d="M159.89,125.71l3.35,8,3.27,8c1.08,2.67,2.29,5.3,3.2,8a74.6,74.6,0,0,1,2.38,8.36l-.14.06a74.07,74.07,0,0,1-3.72-7.86c-1.13-2.66-1.95-5.43-2.91-8.16L162.49,134l-2.75-8.21Z"/><path class="cls-5" d="M152.55,89.35l3.88,9.4,3.8,9.43c1.26,3.14,2.64,6.24,3.73,9.45s2.13,6.44,2.91,9.76l-.15.06c-1.6-3-2.95-6.13-4.24-9.26s-2.31-6.37-3.44-9.57L155.68,99l-3.28-9.62Z"/><path class="cls-5" d="M106.08,143.1l-3.35-8-3.27-8c-1.09-2.68-2.3-5.31-3.2-8a76.19,76.19,0,0,1-2.39-8.36l.15-.05a76.93,76.93,0,0,1,3.72,7.85c1.12,2.66,2,5.44,2.9,8.16l2.83,8.19,2.76,8.22Z"/><polygon class="cls-2" points="204.2 68.53 157.75 130.95 174.28 139.53 189.09 154.36 204.81 161.83 223.16 171.87 266.74 108.49 246.13 98.12 228.77 83.63 204.2 68.53"/><line class="cls-3" x1="194.21" y1="144.91" x2="225.26" y2="100.66"/><polygon class="cls-4" points="232.35 125.5 227.48 126.17 224.18 102.21 200.51 107.25 199.49 102.45 228.31 96.31 232.35 125.5"/><path class="cls-5" d="M230.25,134.81l-4.38,6.76-4.45,6.72c-1.48,2.23-2.87,4.53-4.5,6.67a72.27,72.27,0,0,1-5.16,6.21l-.12-.09a72.14,72.14,0,0,1,4.08-7c1.45-2.25,3.15-4.34,4.74-6.5l4.8-6.46,4.87-6.42Z"/><path class="cls-5" d="M254.31,110.14,249.13,118l-5.25,7.86c-1.74,2.62-3.41,5.29-5.3,7.82s-3.83,5-6,7.35l-.12-.09c1.47-2.81,3.15-5.47,4.88-8.11s3.67-5.11,5.54-7.64l5.6-7.61,5.67-7.56Z"/><path class="cls-5" d="M188.71,102.63l4.38-6.76,4.44-6.71c1.49-2.24,2.88-4.54,4.5-6.68a72.56,72.56,0,0,1,5.17-6.2l.12.08a71,71,0,0,1-4.08,7c-1.45,2.26-3.15,4.34-4.74,6.5l-4.8,6.46-4.87,6.42Z"/><polygon class="cls-6" points="331.74 93.75 305.64 168.95 324.41 172.23 343.43 182.14 361.06 184.59 382.05 188.73 405.06 113.48 381.76 109.71 360.36 100.92 331.74 93.75"/><polygon class="cls-2" points="331.74 93.75 305.64 168.95 324.41 172.23 343.43 182.14 361.06 184.59 382.05 188.73 405.06 113.48 381.76 109.71 360.36 100.92 331.74 93.75"/><polyline class="cls-8" points="348.87 145.48 335.43 121.74 360.13 109.85"/><path class="cls-5" d="M384.1,110.68l-3.72,12.78-3.79,12.75c-1.26,4.25-2.44,8.53-3.87,12.73s-2.92,8.38-4.65,12.48l-.15,0c.95-4.36,2.13-8.63,3.37-12.89s2.74-8.44,4.15-12.64l4.22-12.62,4.3-12.6Z"/><path class="cls-5" d="M352.74,175.63l2.2-7.94,2.26-7.92c.77-2.64,1.41-5.31,2.34-7.89a72.16,72.16,0,0,1,3.12-7.65l.15,0a72.45,72.45,0,0,1-1.84,8.06c-.72,2.65-1.73,5.21-2.62,7.8l-2.7,7.78-2.76,7.76Z"/><path class="cls-5" d="M318.39,158.19l2.2-7.94,2.26-7.92c.77-2.64,1.41-5.31,2.34-7.89a72.23,72.23,0,0,1,3.13-7.65l.14,0a72.42,72.42,0,0,1-1.83,8.06c-.73,2.65-1.74,5.21-2.63,7.8l-2.69,7.78-2.77,7.76Z"/><path class="cls-8" d="M337.69,122.36c35.57,7.54,45.24,29.2,36.95,55.43"/><polygon class="cls-6" points="400.73 118.69 454.07 177.77 465.98 162.89 483.82 150.99 494.46 136.72 508.2 120.31 453.32 63.93 438.8 82.53 420.79 97.06 400.73 118.69"/><polygon class="cls-2" points="400.73 118.69 454.07 177.77 465.98 162.89 483.82 150.99 494.46 136.72 508.2 120.31 453.32 63.93 438.8 82.53 420.79 97.06 400.73 118.69"/><polyline class="cls-8" points="454.31 128.58 427.04 128.93 428.5 101.56"/><path class="cls-5" d="M440.77,80.94l9.41,9.41,9.35,9.47c3.13,3.15,6.31,6.24,9.3,9.51s5.94,6.6,8.7,10.09l-.11.11c-3.36-2.92-6.54-6-9.68-9.15s-6.07-6.47-9.08-9.73l-9-9.78-9-9.83Z"/><path class="cls-5" d="M482.6,139.7,476.7,134l-5.85-5.8c-1.94-1.94-4-3.78-5.79-5.85a71.79,71.79,0,0,1-5.2-6.42l.11-.1a75.09,75.09,0,0,1,6.18,5.48c2,1.91,3.72,4,5.57,6.06l5.53,6.11,5.46,6.16Z"/><path class="cls-5" d="M450.78,161.41l-5.9-5.75-5.85-5.8c-1.94-1.94-4-3.78-5.79-5.85a71.79,71.79,0,0,1-5.2-6.42l.11-.1a73.34,73.34,0,0,1,6.17,5.48c2,1.91,3.73,4,5.58,6.06l5.52,6.11,5.47,6.16Z"/><path class="cls-8" d="M428.67,127.24C452.4,99.7,476,101.65,495,121.54"/><polygon class="cls-6" points="376.89 26.04 346.76 99.72 365.33 104.01 383.78 114.93 401.25 118.33 422 123.6 449.03 49.71 425.97 44.68 405.08 34.75 376.89 26.04"/><polygon class="cls-2" points="376.89 26.04 346.76 99.72 365.33 104.01 383.78 114.93 401.25 118.33 422 123.6 449.03 49.71 425.97 44.68 405.08 34.75 376.89 26.04"/><polyline class="cls-8" points="391.19 78.63 379.06 54.19 404.37 43.66"/><path class="cls-5" d="M428.26,45.78l-4.4,12.55-4.48,12.54c-1.49,4.17-2.89,8.38-4.55,12.5s-3.38,8.21-5.32,12.21l-.14,0c1.17-4.3,2.58-8.51,4.05-12.69s3.19-8.28,4.83-12.4l4.9-12.37,5-12.34Z"/><path class="cls-5" d="M393.43,108.94l2.62-7.81,2.69-7.79c.91-2.59,1.69-5.22,2.77-7.75A72.65,72.65,0,0,1,405,78.12l.14,0a71.56,71.56,0,0,1-2.27,8c-.86,2.6-2,5.1-3,7.65l-3.11,7.62-3.18,7.6Z"/><path class="cls-5" d="M360.08,89.67l2.62-7.81,2.69-7.79c.91-2.59,1.69-5.23,2.76-7.76a71.49,71.49,0,0,1,3.54-7.46l.14,0a73.78,73.78,0,0,1-2.27,7.95c-.86,2.6-2,5.1-3,7.65l-3.12,7.62-3.18,7.6Z"/><path class="cls-8" d="M381.29,54.93c35.1,9.45,43.59,31.6,33.9,57.35"/><polygon class="cls-6" points="566.94 100.47 582.26 180.06 600.48 173.39 622.29 172.43 639.09 165.6 659.71 158.55 641.63 80.5 619.17 89.04 595.82 92.2 566.94 100.47"/><polygon class="cls-2" points="566.94 100.47 582.26 180.06 600.48 173.39 622.29 172.43 639.09 165.6 659.71 158.55 641.63 80.5 619.17 89.04 595.82 92.2 566.94 100.47"/><path class="cls-5" d="M589.21,102.62l3.24,13.16L595.6,129c1.06,4.39,2.2,8.76,3.08,13.19s1.69,8.88,2.26,13.38l-.15,0c-1.38-4.32-2.52-8.69-3.6-13.08s-1.89-8.83-2.79-13.25L591.7,116l-2.64-13.29Z"/><path class="cls-5" d="M646.42,158.78l-2.11-8.11-2-8.14c-.67-2.71-1.47-5.4-2-8.15a76.88,76.88,0,0,1-1.14-8.33l.15,0a72.41,72.41,0,0,1,2.49,8c.72,2.7,1.13,5.47,1.67,8.22l1.59,8.23,1.51,8.25Z"/><polyline class="cls-7" points="622.67 134.18 638.42 111.3 614.43 97.03"/><path class="cls-7" d="M636.07,111.72c-36.75,4.47-48.5,25.58-42.44,52.92"/><polygon class="cls-6" points="681.92 80.08 655.45 156.69 674.57 160 693.95 170.06 711.9 172.53 733.29 176.72 756.6 100.07 732.88 96.26 711.07 87.34 681.92 80.08"/><polygon class="cls-2" points="681.92 80.08 655.45 156.69 674.57 160 693.95 170.06 711.9 172.53 733.29 176.72 756.6 100.07 732.88 96.26 711.07 87.34 681.92 80.08"/><path class="cls-5" d="M700.14,93.07l-3.77,13-3.84,13c-1.28,4.34-2.47,8.7-3.92,13s-3,8.54-4.72,12.72l-.15,0c1-4.43,2.15-8.79,3.41-13.13s2.77-8.59,4.21-12.87l4.28-12.86L700,93Z"/><path class="cls-5" d="M721.67,170.29l2.22-8.09,2.29-8.06c.78-2.69,1.43-5.41,2.37-8a75.68,75.68,0,0,1,3.17-7.79l.15,0a75,75,0,0,1-1.86,8.2c-.73,2.7-1.76,5.31-2.66,7.95l-2.73,7.93-2.81,7.91Z"/><polyline class="cls-7" points="713.37 137.11 738.44 125.15 724.78 100.81"/><path class="cls-7" d="M736.19,124.35C702.12,109.87,681.41,122.29,673,149"/></g></g></g></svg>