<svg xmlns="http://www.w3.org/2000/svg" viewBox="0 0 1920 3240"><defs><style>.cls-1{fill:#607e80;}.cls-2{opacity:0.3;}.cls-17,.cls-18,.cls-19,.cls-20,.cls-21,.cls-22,.cls-23,.cls-24,.cls-25,.cls-3{fill:none;stroke-linecap:round;}.cls-3{stroke:#4d443d;stroke-width:13px;}.cls-4{opacity:0.5;}.cls-5{fill:#648485;}.cls-6{opacity:0.7;}.cls-7{fill:#68898a;}.cls-8{fill:#858270;}.cls-9{fill:#a19f93;}.cls-10{fill:#87867c;}.cls-11{fill:#9c9d9e;}.cls-12{fill:#838485;}.cls-13{fill:#774600;}.cls-14{fill:#6e7a34;}.cls-15{fill:#9bb55c;}.cls-16{fill:#879e50;}.cls-17,.cls-20,.cls-23{stroke:#6a803d;}.cls-17,.cls-18,.cls-19,.cls-20,.cls-21,.cls-22,.cls-23,.cls-24,.cls-25{stroke-miterlimit:10;}.cls-17,.cls-18{stroke-width:4.81px;}.cls-18,.cls-21,.cls-24{stroke:#5c6e35;}.cls-19,.cls-22,.cls-25{stroke:#829c4c;}.cls-19{stroke-width:2.41px;}.cls-20,.cls-21{stroke-width:4.57px;}.cls-22{stroke-width:2.28px;}.cls-23,.cls-24{stroke-width:5.33px;}.cls-25{stroke-width:2.67px;}</style></defs><g id="river-crossing"><g id="water"><rect id="base" class="cls-1" x="281.42" y="-50" width="1600" height="1180"/><g id="eels"><g id="rc-eel" class="cls-2"><path class="cls-3" d="M1808.38-4.33c4.42,29-48.6,65.33-45,93,3.79,29.1,64.31,50.73,67.22,78.45,3.07,29.16-51.66,62.84-49.5,90.65,2.27,29.2,61.52,54.1,62.84,82,1.39,29.19-55.26,59.52-54.84,87.53.44,29.11,58,57.76,57.42,85.87-.54,29-59.11,55.45-60.59,83.65-1.52,28.8,53.93,61.24,51.51,89.52-2.44,28.58-62.6,51.23-65.86,79.6s50.21,63.92,46.22,92.35c-3.94,28.09-65.14,47.76-69.7,76.27-4.46,27.87,47.6,65.5,42.63,94.06-4.82,27.71-66.55,45.71-71.77,74.33-5,27.59,46.38,66.1,41,94.78-5.13,27.51-67,45-72.33,73.77-5.12,27.48,46.3,66,41,94.79-5,27.48-66.78,45.37-71.89,74.19-4.88,27.5,46.93,65.51,42,94.37-4.69,27.53-66.2,46.25-70.89,75.14-4.49,27.58,47.91,64.8,43.45,93.72-3.62,23.51-63.22,43.36-64.57,71-1.18,24.19,56,51,56.25,78.29.25,24.53-56.51,51.88-55.27,78.78,1.13,24.72,60.13,47.15,61.94,73.79,1.69,24.85-53.77,54.82-51.61,81.29,2,24.94,61.63,45.68,64,72,2.23,25-52.75,55.88-50.32,82.11,2.33,25.09,62.07,45.38,64.5,71.54,2.34,25.15-52.62,56.05-50.25,82.15,2.29,25.2,61.94,45.75,64.2,71.81,2.19,25.25-53,55.71-50.92,81.74,2,25.3,61.44,46.53,63.36,72.54,1.87,25.34-53.78,55-52.08,81,1.66,25.39,60.7,47.59,62.16,73.58,1.42,25.42-54.77,54.05-53.59,80,1.17,25.46,59.74,48.87,60.64,74.84.88,25.48-55.93,52.86-55.34,78.83.58,25.5,58.58,50.29,58.85,76.24.26,25.53-57.21,51.48-57.29,77.43-.07,25.54,57.26,51.84,56.83,77.77"/></g></g><g id="rc-water-middle" class="cls-4"><path class="cls-5" d="M918.89,62.14,826.33,368c16.87,234.07,9.31,238.64,121,449.71l154.55-258.37-84.24-465Z"/><path class="cls-5" d="M1412.49,524.66l-34.14,317.71L1445,1080l95-235L1526.6,659.65C1506.79,627.16,1438.87,553.32,1412.49,524.66Z"/><path class="cls-5" d="M1558.31,0c-94.15,268.46-76.79,216,14.69,474.67l30.45-248.19Z"/><polygon class="cls-5" points="1160.56 673.04 1054.9 879.32 1117.89 1046.43 1210.92 817.69 1160.56 673.04"/><path class="cls-5" d="M709.27,630.47,665.81,778l25.34,232.7s74.17-54,72.68-61.57S809,746.88,809,746.88L786.4,392.21l-49-69Z"/><path class="cls-5" d="M1265.44,49.1c-65.84,261.61-55.2,278.17-16,538.67l83.06-83.56,71.4-243.7L1375.55,10Z"/><path class="cls-5" d="M918.89,2222.14,826.33,2528c16.87,234.07,9.31,238.64,121,449.71l154.55-258.37-84.24-465Z"/><path class="cls-5" d="M1412.49,2684.66l-34.14,317.71L1445,3240l95-235-13.35-185.36C1506.79,2787.16,1438.87,2713.32,1412.49,2684.66Z"/><path class="cls-5" d="M1558.31,2160c-94.15,268.46-76.79,216,14.69,474.67l30.45-248.19Z"/><polygon class="cls-5" points="1160.56 2833.04 1054.9 3039.32 1117.89 3206.43 1210.92 2977.69 1160.56 2833.04"/><path class="cls-5" d="M709.27,2790.47,665.81,2938l25.34,232.7s74.17-54,72.68-61.57S809,2906.88,809,2906.88L786.4,2552.21l-49-69Z"/><path class="cls-5" d="M1265.44,2209.1c-65.84,261.61-55.2,278.17-16,538.67l83.06-83.56,71.4-243.7L1375.55,2170Z"/><path class="cls-5" d="M879.67,1130l-79.82,202.65C852,1481.21,911.59,1690.1,947.34,1842.88l40.77-28.46,44.45-152.88c41.15-281,45.41-286.77-28.45-563.29Z"/><path class="cls-5" d="M724.35,1570c-42.83,162.45-30.83,134.6,12.21,290.66l-90.94,160.72L679.15,2130l211.29-28.61,28.45-211.92-136.63-418.9Z"/><path class="cls-5" d="M1132.91,1660.65c2.39-143.22,41.84-333,50.94-461.33l213-25,27,186.59s-104.48,270.23-125.66,287.67-58.92,240.91-58.92,240.91Z"/><polygon class="cls-5" points="1034.69 1842.88 964.11 2032.82 994.61 2101.39 1132.91 2129.99 1183.85 1961.99 1101.89 1743.32 1034.69 1842.88"/><path class="cls-5" d="M1432.24,1546.92c-51.48,305.88-92.22,255.9,44.76,554.46L1667.24,1994l-46.88-232-73-184-45.11-217.11Z"/><path class="cls-5" d="M1620.36,1174.29l-77.88,138.62,100.45,203.74c17.69,78.2,62.12,253.22,92,326.23L1789.74,1714V1465.38l-67.3-266.06Z"/></g><g id="rc-water-top" class="cls-6"><path class="cls-7" d="M1031.05,2196c-36.08,165.8-44.84,162.34-7.54,332l32.67-230.38Z"/><path class="cls-7" d="M1315.35,2886.46c-27.47,92.73-33.86,70.79-5.53,166l24-53.26Z"/><path class="cls-7" d="M1511.31,2790.47c32.4-140.21,40.18-130.25,6.71-273.79l-29.09,190Z"/><path class="cls-7" d="M791.82,2392.91c-27.84-80.57-34.26-55.77-5.53-138.62l24,44.47Z"/><path class="cls-7" d="M747.07,2507.18c23.76,131.93,31.25,121-7.33,252.6l-17.93-176.16Z"/><path class="cls-7" d="M1326.18,2298.63c-27.85-80.57-34.27-55.78-5.53-138.63l23.95,44.48Z"/><path class="cls-7" d="M1669.47,2292.77c23.76,131.93,31.25,121-7.34,252.61l-17.92-176.17Z"/><path class="cls-7" d="M1625.79,3240c-27.85-80.57-34.27-55.78-5.53-138.63l24,44.48Z"/><polygon class="cls-7" points="891.72 2939.42 920.17 3044.97 948.62 2785.86 920.17 2621.11 891.72 2939.42"/><polygon class="cls-7" points="1219.16 2438.79 1240.54 2651.94 1209.13 2852.26 1183.85 2647.77 1203.69 2549.82 1187.54 2425.41 1219.25 2237.19 1219.16 2438.79"/><path class="cls-7" d="M1029.77,36c-36.08,165.8-44.84,162.34-7.54,332L1054.9,137.6Z"/><path class="cls-7" d="M1314.07,726.46c-27.47,92.73-33.86,70.79-5.53,166l24-53.26Z"/><path class="cls-7" d="M1510,630.47c32.4-140.21,40.18-130.25,6.71-273.79l-29.09,190Z"/><path class="cls-7" d="M790.54,232.91C762.7,152.34,756.28,177.14,785,94.29l24,44.47Z"/><path class="cls-7" d="M745.79,347.18c23.76,131.93,31.25,121-7.33,252.6L720.53,423.62Z"/><path class="cls-7" d="M1324.9,138.63c-27.85-80.57-34.27-55.78-5.53-138.63l24,44.48Z"/><path class="cls-7" d="M1668.19,132.77c23.76,131.93,31.25,121-7.34,252.61l-17.92-176.17Z"/><path class="cls-7" d="M1624.51,1080c-27.85-80.57-34.27-55.78-5.53-138.63l24,44.48Z"/><polygon class="cls-7" points="890.44 779.42 918.89 884.97 947.34 625.86 918.89 461.12 890.44 779.42"/><polygon class="cls-7" points="1217.88 278.79 1239.26 491.94 1207.85 692.26 1182.57 487.77 1202.41 389.82 1186.26 265.41 1217.97 77.19 1217.88 278.79"/><path class="cls-7" d="M989,1299.4c36.08,165.8,44.83,162.34,7.54,332L963.82,1401Z"/><path class="cls-7" d="M1707.53,1360.88c27.47,92.73,33.87,70.79,5.53,166l-24-53.26Z"/><path class="cls-7" d="M832.3,1814.42c-32.4-140.2-40.18-130.24-6.71-273.79l29.09,190Z"/><path class="cls-7" d="M1576.74,1312.91c27.84-80.57,34.26-55.77,5.52-138.62l-24,44.47Z"/><path class="cls-7" d="M1045.57,1780.21c-23.75,131.93-31.24,121,7.34,252.61l17.92-176.17Z"/><path class="cls-7" d="M1042.38,1218.63c27.85-80.57,34.27-55.78,5.53-138.63l-24,44.48Z"/><path class="cls-7" d="M699.09,1212.77c-23.76,131.93-31.25,121,7.34,252.61l17.92-176.17Z"/><path class="cls-7" d="M742.77,2160c27.85-80.57,34.27-55.78,5.53-138.63l-23.95,44.48Z"/><polygon class="cls-7" points="1268.99 1995.83 1240.54 2101.39 1212.09 1842.27 1240.54 1677.53 1268.99 1995.83"/><polygon class="cls-7" points="1396.93 1337.94 1375.55 1551.09 1406.96 1751.41 1432.24 1546.92 1412.4 1448.97 1428.55 1324.56 1396.84 1136.34 1396.93 1337.94"/><path class="cls-7" d="M1536,1648.55c21.85,168.45,30.47,165.65-21.09,331.47l-12.72-232Z"/></g></g><g id="ground-3" data-name="ground"><path class="cls-8" d="M-50-50.06H649.23L631.45,74.82,664.14,187l9,143.28S626.44,414,623.45,425.93s-17.18,167.71-17.18,167.71C631.56,743.9,616,748,579.06,888.45c79.89,140.85,67.78,88.15,22.39,241.49H-50Z"/><path class="cls-8" d="M1970-50V1130H1756.27l-10.45-111.64-31.34-94,13.43-107.46-38.81-89.56L1702.54,481,1775.67,393l79.11-140.3c-6.25-75-19-227.4-25.23-302.69Z"/></g><g id="rocks"><path class="cls-9" d="M580.54,846.51c62.68,85.29,63.65,46.51,52.73,154.93l-78.68,11S530.36,903.18,528,900.18,580.54,846.51,580.54,846.51Z"/><path class="cls-9" d="M726.32,120.13S737.25,98.42,736.52,95,702,62.14,702,62.14l-15.2,44.46,30.63,28.93Z"/><path class="cls-9" d="M1684.67,80.27,1654.3,165c17.36,66.48,16.77,62.24,4.09,129.46l58.53,9.12c40.84-66.93,43.88-64.44,53.53-143.79L1746,88.09l-15.13-27.81-23.89-7.38Z"/><path class="cls-10" d="M1710.19,157.6l-25.52-77.33L1654.3,165c17.36,66.48,16.77,62.24,4.09,129.46L1699.22,221C1697.71,186.41,1695.17,189.78,1710.19,157.6Z"/><path class="cls-9" d="M685.92,138.75l.82,25.23,20.19,6.17c4.94-31.19,2.34-19.35-17-41.17Z"/><path class="cls-9" d="M1839.22,893.6c-21.24,48.16-17.39,25.5,13.93,72l21.33-26.08-22.81-55.11Z"/><polygon class="cls-9" points="1687.66 852.02 1671.56 911.03 1706.97 972.72 1760.08 988.28 1776.17 958.24 1779.93 871.34 1747.2 817.69 1687.66 852.02"/><path class="cls-10" d="M1714.08,900.84,1687.66,852c-23,79.32-18.08,50.1,19.31,120.7Z"/><polygon class="cls-10" points="586.2 920.45 554.59 1012.44 525.76 895.07 580.54 846.51 586.2 920.45"/><path class="cls-9" d="M684.61,343.31c-24.34,14.51-15.59,5.77-16.34,35.95l17.49-4.79,7.18-31.31Z"/><path class="cls-9" d="M692.94,237.92,664.8,261l-4.09,42.11,20.39,25.85,18.16-9c6.55-15.46,21.19-52.51,22.32-69.13Z"/><path class="cls-10" d="M697.59,254.64l-4.65-16.72c-38.46,30.54-26,18.06-32.23,65.17Z"/><path class="cls-9" d="M1836.36,314c51,28.48,42.6,8.79,61.92,65.73l-37,23.52s-37.17-49.32-39.07-50.27S1836.36,314,1836.36,314Z"/><polygon class="cls-10" points="1849.65 326.61 1861.29 403.25 1819.95 350.91 1836.36 314 1849.65 326.61"/><path class="cls-11" d="M640.83,170.38c-28.64,48-31.6,26-9.73,79l34.71-40.3V170.38Z"/><polygon class="cls-11" points="711.07 971.38 701.97 1078.9 620.47 1098.25 580.18 1015.76 668.02 954.71 711.07 971.38"/><polygon class="cls-12" points="668.02 954.71 670.99 1012.44 620.47 1098.25 580.18 1015.76 668.02 954.71"/><polygon class="cls-11" points="1828.91 959.95 1834.11 1067.73 1755.88 1097.69 1705.04 1021.25 1784.04 949.12 1828.91 959.95"/><polygon class="cls-12" points="1784.04 949.12 1794.61 1005.95 1755.88 1097.69 1705.04 1021.25 1784.04 949.12"/><polygon class="cls-11" points="1891.29 215.53 1912.68 250.63 1883.46 314 1826.87 278.51 1857.68 207.03 1891.29 215.53"/><path class="cls-12" d="M1857.68,207c-6.8,66.08-3.51,50.35,25.78,107l-56.59-35.49Z"/><polygon class="cls-11" points="640.44 -13.8 662.62 113.31 604.69 175.24 537.83 112.4 581.1 0.22 640.44 -13.8"/><path class="cls-12" d="M581.1.22c49.94,99.88,52.73,64.7,23.59,175L537.82,112.4Z"/></g><g id="posts"><path class="cls-13" d="M1776.31,732.92c-.16,35.23-53.71,35.22-53.87,0C1722.6,697.7,1776.16,697.7,1776.31,732.92Z"/><path class="cls-13" d="M1776.31,519.77c-.16,35.22-53.71,35.22-53.87,0C1722.6,484.54,1776.16,484.54,1776.31,519.77Z"/><path class="cls-13" d="M1747.42,626.34c.24,16.21-25.21,16.21-25,0C1722.21,610.14,1747.66,610.14,1747.42,626.34Z"/><path class="cls-13" d="M582.81,732.92c-.16,35.23-53.71,35.22-53.87,0C529.1,697.7,582.66,697.7,582.81,732.92Z"/><path class="cls-13" d="M582.81,519.77c-.16,35.22-53.71,35.22-53.87,0C529.1,484.54,582.66,484.54,582.81,519.77Z"/><path class="cls-13" d="M582.81,626.34c.24,16.21-25.22,16.21-25,0C557.6,610.14,583.05,610.14,582.81,626.34Z"/></g><g id="ground-detail"><polygon class="cls-14" points="14.48 644.65 48.77 713.32 44.33 765.32 33.21 785.99 24.32 815.32 1.44 857.99 -5.99 812.19 -21.91 776.04 2.4 635.76 14.48 644.65"/><path class="cls-14" d="M-16,849.7,25.35,887c8,20,16.34,65.51,18.88,87.1l14.24,6.38,45.9,57.5,107.44,64.17L-11.86,1113.5Z"/><path class="cls-15" d="M609.09,215a68.86,68.86,0,0,1-18.88-11.66c-7.33,2.23-9.05,13.6-8.91,16.37-1.27-4.21-.39-15,2.54-20-6.46,1.28-14.24,9.35-15.62,13.41-.78-5,3-13.76,8.56-16.67a154.79,154.79,0,0,1-23.45-3.55,211,211,0,0,0,27.89-2.62c-7.77-6.79-5.37-10.34-13.14-17.14,4.06.37,13.46,5.64,16,12.07a51.64,51.64,0,0,0,.2-21.53c4.37,1.88,5.51,15.31,5.46,20.64,8.09-11.55,9-6.85,17-18.41-1.36,5.84-6.44,15.89-12.14,21.38,4-2.84,12.9-2.55,15.58-1-1.93,2.56-9.63,6.55-13.72,6.44a105.72,105.72,0,0,1,29.36,11.12c-7.12,1-21.46-1-28.92-4.58C598.49,204.36,605.16,212.63,609.09,215Z"/><path class="cls-16" d="M600.29,240.79c10.92,1.74,25,3.92,28.16,15.36,14.7,4,23.95-9.42,26.64-14.22-2.29,8.43-11.57,23.46-21.76,28.77,12.24,4.67,15.42-.94,22-6.33-4,9.32-9.12,19-21.63,18,11.82,8.53,4.9,20.72,11.29,31.67-8.64-14.8-4.72-15.73-20.82-22.42,5.94,19.63-2.95,11.84,3,31.47-6.45-4.9-15.63-12.43-13.22-26-9.52,9.34-10.66,12.69-15.67,26.1-5.38-7.76-.51-21.65,5.2-30.58-25.8,10.95-18.22,6.37-30.77,7.41,8.43-8.4,18.5-16.81,33.87-20.05-9.68.57-34.9-5.81-37.8-11.21,6-2.29,28.56-3.79,35.34.71-4.74-5.31-11-9.9-11.83-18,5.47,6.08,12.91,8.31,22,7.22C614.62,251.59,604.46,248.84,600.29,240.79Z"/><path class="cls-16" d="M1834.11,955.92A109.16,109.16,0,0,1,1856,983.3c12.08.6,20.69-15.39,22-19.57-.35,6.93-7.45,22.57-14.46,28.41,10.29,1.56,26.15-6.29,30.35-11.59-1.51,7.9-11.72,18.87-21.6,20.21a244.24,244.24,0,0,1,33,17.78,334.16,334.16,0,0,0-42.85-11c7.94,14.24,2.47,18.24,10.4,32.48-5.84-2.72-17-15.56-17.42-26.49a81.55,81.55,0,0,0-11.77,31.88c-5.5-5.11,0-25.69,2.89-33.59-18.18,12.86-17,5.42-35.13,18.28,5.12-7.94,18-20.17,29.42-25.29-7.42,2.09-20.52-3.09-23.68-6.8,4.22-2.78,17.79-4.6,23.81-2.25-13.46-8-29-21.73-37.69-32.17,11.1,2.33,31.35,12.92,40.53,22.21C1844.22,977.31,1838.71,961.47,1834.11,955.92Z"/><path class="cls-16" d="M1860.35,791.94c.47,17.44,1.16,39.85-15.67,48.15-1.89,23.95,21.57,34.44,29.8,37.21-13.75-1.1-39.76-11.15-51-25.42-3.69,20.34,5.94,23.66,16.21,32.33-15.61-3.47-32.2-8.64-34.27-28.34-9.81,20.81-30.74,13.62-45.87,26.72,20.46-17.7,23-11.9,28.76-38.82-28.75,14.91-19.23-1.15-48,13.77,5.72-11.43,14.75-27.86,36.49-28.07-17.26-12.05-22.78-12.85-45.06-16.73,10.48-10.6,33.46-7.07,49-.81-24.47-36.86-15.17-26.42-20.42-45.59,15.47,10.64,31.44,23.83,40.94,46.73-3.71-14.85-1.12-55.83,6.42-61.9,5.28,8.56,14.17,43.22,9.15,55.05,6.86-8.9,12.17-20,24.5-23.59-7.84,10.25-9.14,22.45-4.83,36.17C1847.75,817.31,1849.06,800.75,1860.35,791.94Z"/><path class="cls-15" d="M1781.89,1076.36c10.37-3.74,17.88-1.75,27.32-1.52,6.44-10.24-3.29-25.57-6.31-28.73,5.88,3.7,16,17.54,17.69,26.53,6.39-8.22,7.32-25.89,4.76-32.15,6.15,5.19,10.71,19.46,7,28.73a243.62,243.62,0,0,1,31.65-20,331.77,331.77,0,0,0-30.56,32c16.3.06,17.1,6.78,33.4,6.84-5.22,3.76-21.88,7.2-31.62,2.21a81.63,81.63,0,0,0,22,25.89c-7.15,2.28-22.41-12.56-27.86-19,2.3,22.15-3.58,17.43-1.28,39.58-4.41-8.36-8.75-25.6-7.63-38-1.82,7.49-12.75,16.38-17.53,17.32-.35-5,4.71-17.77,9.71-21.87-13.6,7.81-16.1,5.38-29.47,7.86,7.46-8.54,9.57-11.76,22.17-15.21C1798.23,1082.15,1789,1075.07,1781.89,1076.36Z"/><path class="cls-16" d="M1799.54,11.69c12-12.67,27.37-8.81,45.14-2.78,18.27-15.6,9.1-39.6,5.24-47.38,8.94,10.5,20.23,36,18.06,54,17-11.79,12.53-20.94,11.39-34.33,8.59,13.49,16.66,28.87,4.2,44.27,21.66-7.78,41-1.83,61-.39-18.67,7.11-34.37,6-57.45,21,30.87,9.78,12.79,14.4,43.66,24.18-12.13,4-30.13,9.27-45.65-6,3.68,20.73,7.61,11.58,20.62,30.06-14.91.09-29.25-5-35.79-20.42-7.44,1.68-6.2,7.22-16,24.49-3.41-18.46-7.15-16.89,2.34-39.81-7.89,13.13-21.16,27.22-30.78,26.18,2.32-9.78,3-27.53,14.92-32.34-11.14,1.44-44-8-55.22-14.18,12.8-1.71,43.55,4.13,50.21-8.62C1826.4,22.86,1813.76,13.44,1799.54,11.69Z"/><path class="cls-15" d="M1824.48,146.26c10.37-3.74,17.88-1.74,27.32-1.52,6.44-10.23-3.28-25.57-6.31-28.73,5.88,3.71,16,17.55,17.69,26.53,6.4-8.21,7.32-25.88,4.77-32.14,6.15,5.19,10.71,19.46,7,28.73a243.62,243.62,0,0,1,31.65-20,334.11,334.11,0,0,0-30.56,32c16.3.06,17.1,6.78,33.4,6.84-5.22,3.77-21.88,7.2-31.62,2.21a81.76,81.76,0,0,0,22,25.89c-7.14,2.28-22.41-12.56-27.86-19,2.3,22.15-3.58,17.42-1.27,39.58-4.42-8.36-8.76-25.61-7.64-38-1.82,7.49-12.75,16.37-17.53,17.32-.35-5,4.71-17.77,9.71-21.87-13.6,7.81-16.09,5.38-29.46,7.85,7.46-8.54,9.56-11.75,22.16-15.2C1840.83,152.05,1831.58,145,1824.48,146.26Z"/><g id="rc-reeds-3"><path class="cls-7" d="M684.23,857.47a44.48,44.48,0,0,1-30.08,0Z"/><path class="cls-17" d="M671.31,857.58s.36,10.38,6.42,13.28"/><path class="cls-18" d="M676.89,857.58c0,7.27,7.05,12.09,14.11,13.15"/><path class="cls-18" d="M666.62,857.58s3.37,10.36-9.31,14.64"/><path class="cls-19" d="M680.52,857.58c0,.35,5.38,9.71,14.11,12.52"/><path class="cls-17" d="M662.85,857.58s-4.39,8.6,7.14,12.62"/><path class="cls-19" d="M659,857.58s2,10.37-5.65,13.25"/><path class="cls-7" d="M654.15,857.47a44.48,44.48,0,0,1,30.08,0Z"/></g><g id="rc-reeds-2"><path class="cls-7" d="M1748.23,343.69a42.19,42.19,0,0,1-28.56,0Z"/><path class="cls-20" d="M1736,343.8s.34,9.86,6.09,12.61"/><path class="cls-21" d="M1741.26,343.8c0,6.9,6.69,11.48,13.39,12.48"/><path class="cls-21" d="M1731.51,343.8s3.2,9.84-8.83,13.9"/><path class="cls-22" d="M1744.7,343.8c0,.33,5.11,9.22,13.4,11.89"/><path class="cls-20" d="M1727.94,343.8s-4.17,8.16,6.77,12"/><path class="cls-22" d="M1724.28,343.8s1.9,9.85-5.37,12.58"/><path class="cls-7" d="M1719.67,343.69a42.35,42.35,0,0,1,28.56,0Z"/></g><g id="rc-reeds-1"><path class="cls-7" d="M1684.67,386.87a49.39,49.39,0,0,0,33.35,0Z"/><path class="cls-23" d="M1699,387s-.4,11.51-7.11,14.72"/><path class="cls-24" d="M1692.81,387c0,8.05-7.82,13.4-15.64,14.57"/><path class="cls-24" d="M1704.19,387s-3.73,11.48,10.32,16.23"/><path class="cls-25" d="M1688.78,387c0,.38-6,10.76-15.64,13.88"/><path class="cls-23" d="M1708.37,387s4.87,9.53-7.91,14"/><path class="cls-25" d="M1712.64,387s-2.22,11.5,6.27,14.69"/><path class="cls-7" d="M1718,386.87a49.39,49.39,0,0,0-33.35,0Z"/></g></g></g></svg>