<svg xmlns="http://www.w3.org/2000/svg" viewBox="0 0 1920 3240"><defs><style>.cls-1{fill:#607e80;}.cls-2{opacity:0.5;}.cls-3{fill:#648485;}.cls-4{opacity:0.7;}.cls-5{fill:#68898a;}.cls-6{fill:#858270;}.cls-7{fill:#a19f93;}.cls-8{fill:#87867c;}.cls-9{fill:#9c9d9e;}.cls-10{fill:#838485;}.cls-11{fill:#774600;}.cls-12{fill:#6e7a34;}</style></defs><g id="river-crossing"><g id="water"><rect id="base" class="cls-1" x="281.42" y="-50" width="1600" height="1180"/><g id="water-middle" class="cls-2"><polygon class="cls-3" points="918.89 62.14 826.33 367.98 847.67 613.86 947.34 817.69 1101.89 559.32 1017.65 94.29 918.89 62.14"/><polygon class="cls-3" points="1412.49 524.66 1378.35 842.37 1444.98 1080 1539.95 845.01 1526.6 659.65 1491.77 612.24 1412.49 524.66"/><path class="cls-3" d="M1558.31,0s-72.46,221.19-70.66,231.48S1573,474.67,1573,474.67l30.45-248.19Z"/><polygon class="cls-3" points="1160.56 673.04 1054.9 879.32 1117.89 1046.43 1210.92 817.69 1160.56 673.04"/><path class="cls-3" d="M709.27,630.47,665.81,778l25.34,232.7s74.17-54,72.68-61.57S809,746.88,809,746.88L786.4,392.21l-49-69Z"/><polygon class="cls-3" points="1265.44 49.1 1210.92 303.09 1249.44 587.76 1332.5 504.21 1403.9 260.51 1375.55 9.99 1265.44 49.1"/><polygon class="cls-3" points="918.89 2222.14 826.33 2527.98 847.67 2773.86 947.34 2977.69 1101.89 2719.32 1017.65 2254.29 918.89 2222.14"/><polygon class="cls-3" points="1412.49 2684.66 1378.35 3002.37 1444.98 3240 1539.95 3005.01 1526.6 2819.65 1491.77 2772.24 1412.49 2684.66"/><path class="cls-3" d="M1558.31,2160s-72.46,221.19-70.66,231.48S1573,2634.67,1573,2634.67l30.45-248.19Z"/><polygon class="cls-3" points="1160.56 2833.04 1054.9 3039.32 1117.89 3206.43 1210.92 2977.69 1160.56 2833.04"/><path class="cls-3" d="M709.27,2790.47,665.81,2938l25.34,232.7s74.17-54,72.68-61.57S809,2906.88,809,2906.88L786.4,2552.21l-49-69Z"/><polygon class="cls-3" points="1265.44 2209.1 1210.92 2463.09 1249.44 2747.76 1332.5 2664.21 1403.9 2420.51 1375.55 2169.99 1265.44 2209.1"/><polygon class="cls-3" points="879.67 1130 799.85 1332.65 863.67 1526.87 909.89 1693.54 947.34 1842.88 988.11 1814.42 1032.56 1661.54 1069.1 1371.77 1004.11 1098.25 879.67 1130"/><polygon class="cls-3" points="724.35 1569.99 692.94 1705.99 736.56 1860.65 645.62 2021.37 679.15 2129.99 890.44 2101.39 918.89 1889.46 782.26 1470.56 724.35 1569.99"/><path class="cls-3" d="M1132.91,1660.65C1125,1634,1159.67,1410,1159.67,1410l24.18-210.67,213-25,27,186.59s-104.48,270.23-125.66,287.67-58.92,240.91-58.92,240.91Z"/><polygon class="cls-3" points="1034.69 1842.88 964.11 2032.82 994.61 2101.39 1132.91 2129.99 1183.85 1961.99 1101.89 1743.32 1034.69 1842.88"/><path class="cls-3" d="M1432.24,1546.92s-51.47,288.85-56.69,296S1477,2101.38,1477,2101.38L1667.24,1994l-46.88-232-73-184-45.11-217.11Z"/><polygon class="cls-3" points="1620.36 1174.29 1542.48 1312.91 1642.93 1516.65 1692.82 1719.32 1734.93 1842.88 1789.74 1713.99 1789.74 1465.38 1722.44 1199.32 1620.36 1174.29"/></g><g id="water-top" class="cls-4"><polygon class="cls-5" points="1031.05 2196.01 994.61 2371.33 1023.51 2527.98 1056.18 2297.6 1031.05 2196.01"/><polygon class="cls-5" points="1315.35 2886.46 1288.64 2974.12 1309.83 3052.45 1333.78 2999.19 1315.35 2886.46"/><polygon class="cls-5" points="1511.31 2790.47 1543.76 2645.87 1518.03 2516.68 1488.93 2706.68 1511.31 2790.47"/><polygon class="cls-5" points="791.82 2392.91 765.11 2319.7 786.29 2254.29 810.25 2298.76 791.82 2392.91"/><polygon class="cls-5" points="747.07 2507.18 770.42 2641.6 739.74 2759.78 721.81 2583.62 747.07 2507.18"/><polygon class="cls-5" points="1326.18 2298.63 1299.46 2225.42 1320.65 2160 1344.6 2204.48 1326.18 2298.63"/><polygon class="cls-5" points="1669.47 2292.77 1692.82 2427.19 1662.13 2545.38 1644.21 2369.21 1669.47 2292.77"/><polygon class="cls-5" points="1625.79 3240 1599.07 3166.79 1620.26 3101.37 1644.21 3145.85 1625.79 3240"/><polygon class="cls-5" points="891.72 2939.42 920.17 3044.97 948.62 2785.86 920.17 2621.11 891.72 2939.42"/><polygon class="cls-5" points="1219.16 2438.79 1240.54 2651.94 1209.13 2852.26 1183.85 2647.77 1203.69 2549.82 1187.54 2425.41 1219.25 2237.19 1219.16 2438.79"/><polygon class="cls-5" points="1029.77 36.02 993.33 211.33 1022.23 367.98 1054.9 137.6 1029.77 36.02"/><polygon class="cls-5" points="1314.07 726.46 1287.36 814.12 1308.55 892.45 1332.5 839.19 1314.07 726.46"/><polygon class="cls-5" points="1510.03 630.47 1542.48 485.87 1516.74 356.68 1487.65 546.68 1510.03 630.47"/><polygon class="cls-5" points="790.54 232.91 763.83 159.7 785.01 94.29 808.97 138.76 790.54 232.91"/><polygon class="cls-5" points="745.79 347.18 769.14 481.6 738.46 599.78 720.53 423.62 745.79 347.18"/><polygon class="cls-5" points="1324.9 138.63 1298.18 65.42 1319.37 0 1343.32 44.48 1324.9 138.63"/><polygon class="cls-5" points="1668.19 132.77 1691.54 267.19 1660.85 385.38 1642.93 209.21 1668.19 132.77"/><polygon class="cls-5" points="1624.51 1080 1597.79 1006.79 1618.98 941.37 1642.93 985.85 1624.51 1080"/><polygon class="cls-5" points="890.44 779.42 918.89 884.97 947.34 625.86 918.89 461.12 890.44 779.42"/><polygon class="cls-5" points="1217.88 278.79 1239.26 491.94 1207.85 692.26 1182.57 487.77 1202.41 389.82 1186.26 265.41 1217.97 77.19 1217.88 278.79"/><polygon class="cls-5" points="988.95 1299.4 1025.39 1474.71 996.49 1631.36 963.82 1400.98 988.95 1299.4"/><polygon class="cls-5" points="1707.53 1360.88 1734.25 1448.54 1713.06 1526.87 1689.1 1473.61 1707.53 1360.88"/><polygon class="cls-5" points="832.3 1814.42 799.85 1669.83 825.59 1540.63 854.68 1730.64 832.3 1814.42"/><polygon class="cls-5" points="1576.74 1312.91 1603.45 1239.7 1582.27 1174.29 1558.31 1218.76 1576.74 1312.91"/><polygon class="cls-5" points="1045.58 1780.21 1022.23 1914.63 1052.91 2032.82 1070.83 1856.65 1045.58 1780.21"/><polygon class="cls-5" points="1042.38 1218.63 1069.1 1145.42 1047.91 1080 1023.96 1124.48 1042.38 1218.63"/><polygon class="cls-5" points="699.09 1212.77 675.74 1347.19 706.43 1465.38 724.35 1289.21 699.09 1212.77"/><polygon class="cls-5" points="742.77 2160 769.49 2086.79 748.3 2021.37 724.35 2065.85 742.77 2160"/><polygon class="cls-5" points="1268.99 1995.83 1240.54 2101.39 1212.09 1842.27 1240.54 1677.53 1268.99 1995.83"/><polygon class="cls-5" points="1396.93 1337.94 1375.55 1551.09 1406.96 1751.41 1432.24 1546.92 1412.4 1448.97 1428.55 1324.56 1396.84 1136.34 1396.93 1337.94"/><polygon class="cls-5" points="1536.01 1648.55 1557.23 1825.95 1514.92 1980.02 1502.2 1748 1536.01 1648.55"/></g></g><g id="ground-2" data-name="ground"><path class="cls-6" d="M-50-50H649.21L631.43,74.88,664.12,187l9,143.29S626.42,414.05,623.43,426s-17.18,167.7-17.18,167.7l16.08,132.13L579.05,888.51l62.68,111.94L601.43,1130H-50Z"/><polygon class="cls-6" points="1970 -50 1970 1130 1756.27 1130 1745.82 1018.36 1714.48 924.33 1727.91 816.87 1689.1 727.31 1702.54 481.05 1775.67 392.99 1854.78 252.69 1842.84 109.4 1829.55 -50 1970 -50"/></g><g id="rocks"><path class="cls-7" d="M580.54,846.51l59.32,75-6.59,79.89-78.68,11S530.36,903.18,528,900.18,580.54,846.51,580.54,846.51Z"/><path class="cls-7" d="M726.32,120.13S737.25,98.42,736.52,95,702,62.14,702,62.14l-15.2,44.46,30.63,28.93Z"/><polygon class="cls-7" points="1721.67 109.07 1691.31 193.78 1706.49 257.64 1695.39 323.24 1753.92 332.37 1796.11 261.56 1807.45 188.57 1782.95 116.89 1767.82 89.09 1743.93 81.7 1721.67 109.07"/><polygon class="cls-8" points="1747.19 186.4 1721.67 109.07 1691.31 193.78 1706.49 257.64 1695.39 323.24 1736.22 249.82 1734.86 215.05 1747.19 186.4"/><path class="cls-7" d="M685.92,138.75l.82,25.23,20.19,6.17s3.4-22.76,2-23-19-18.13-19-18.13Z"/><polygon class="cls-7" points="1804.56 867.38 1789.74 901.15 1818.48 939.38 1839.82 913.3 1817 858.19 1804.56 867.38"/><polygon class="cls-7" points="1687.66 852.02 1671.56 911.03 1706.97 972.72 1760.08 988.28 1776.17 958.24 1779.93 871.34 1747.2 817.69 1687.66 852.02"/><polygon class="cls-8" points="1714.08 900.84 1687.66 852.02 1671.56 911.03 1706.97 972.72 1714.08 900.84"/><polygon class="cls-8" points="586.2 920.45 554.59 1012.44 525.76 895.07 580.54 846.51 586.2 920.45"/><polygon class="cls-7" points="684.61 343.31 667.57 353.51 668.26 379.26 685.76 374.47 692.94 343.16 684.61 343.31"/><polygon class="cls-7" points="692.94 237.91 664.8 260.98 660.71 303.09 681.1 328.94 699.26 319.92 716.55 275.98 721.58 250.79 692.94 237.91"/><polygon class="cls-8" points="697.59 254.64 692.94 237.91 664.8 260.98 660.71 303.09 697.59 254.64"/><path class="cls-7" d="M1836.36,314l47,24.1,15,41.63-37,23.52s-37.17-49.32-39.07-50.27S1836.36,314,1836.36,314Z"/><polygon class="cls-8" points="1849.65 326.61 1861.29 403.25 1819.95 350.91 1836.36 314 1849.65 326.61"/><polygon class="cls-9" points="640.83 170.38 615.07 210.11 631.1 249.39 665.81 209.09 665.81 170.38 640.83 170.38"/><polygon class="cls-9" points="711.07 971.38 701.97 1078.9 620.47 1098.25 580.18 1015.76 668.02 954.71 711.07 971.38"/><polygon class="cls-10" points="668.02 954.71 670.99 1012.44 620.47 1098.25 580.18 1015.76 668.02 954.71"/><polygon class="cls-9" points="1828.91 959.95 1834.11 1067.73 1755.88 1097.69 1705.04 1021.25 1784.04 949.12 1828.91 959.95"/><polygon class="cls-10" points="1784.04 949.12 1794.61 1005.95 1755.88 1097.69 1705.04 1021.25 1784.04 949.12"/><polygon class="cls-9" points="1891.29 215.53 1912.68 250.63 1883.46 314 1826.87 278.51 1857.68 207.03 1891.29 215.53"/><polygon class="cls-10" points="1857.68 207.03 1853.89 259.21 1883.46 314 1826.87 278.51 1857.68 207.03"/><polygon class="cls-9" points="640.44 -13.8 662.62 113.31 604.69 175.24 537.83 112.4 581.1 0.22 640.44 -13.8"/><polygon class="cls-10" points="581.1 0.22 626.47 87.73 604.69 175.24 537.83 112.4 581.1 0.22"/></g><g id="posts"><circle class="cls-11" cx="1749.38" cy="732.92" r="26.93"/><circle class="cls-11" cx="1749.38" cy="519.77" r="26.93"/><circle class="cls-11" cx="1734.93" cy="626.34" r="12.49"/><circle class="cls-11" cx="555.88" cy="732.92" r="26.93"/><circle class="cls-11" cx="555.88" cy="519.77" r="26.93"/><circle class="cls-11" cx="570.32" cy="626.34" r="12.49"/></g><g id="ground-detail"><polygon class="cls-12" points="14.48 644.65 48.77 713.32 44.33 765.32 33.21 785.99 24.32 815.32 1.44 857.99 -5.99 812.19 -21.91 776.04 2.4 635.76 14.48 644.65"/><polygon class="cls-12" points="-15.96 849.7 25.35 886.99 36.11 922.4 44.23 974.09 58.47 980.48 104.37 1037.97 211.81 1102.13 -11.86 1113.49 -15.96 849.7"/></g></g></svg>